<?xml version="1.0" encoding="UTF-8" standalone="no"?>
<!DOCTYPE svg PUBLIC "-//W3C//DTD SVG 1.1//EN"
 "http://www.w3.org/Graphics/SVG/1.1/DTD/svg11.dtd">
<!-- Generated by graphviz version 2.43.0 (0)
 -->
<!-- Title: AllenCahnNLFormIntegrator.hpp Pages: 1 -->
<svg width="629pt" height="218pt"
 viewBox="0.00 0.00 628.51 218.00" xmlns="http://www.w3.org/2000/svg" xmlns:xlink="http://www.w3.org/1999/xlink">
<g id="graph0" class="graph" transform="scale(1 1) rotate(0) translate(4 214)">
<title>AllenCahnNLFormIntegrator.hpp</title>
<!-- Node1 -->
<g id="node1" class="node">
<title>Node1</title>
<g id="a_node1"><a xlink:title="FV for the Allen Cahn equation.">
<polygon fill="#bfbfbf" stroke="black" points="385,-190.5 385,-209.5 572,-209.5 572,-190.5 385,-190.5"/>
<text text-anchor="middle" x="478.5" y="-197.5" font-family="serif" font-size="10.00">AllenCahnNLFormIntegrator.hpp</text>
</a>
</g>
</g>
<!-- Node2 -->
<g id="node2" class="node">
<title>Node2</title>
<g id="a_node2"><a xlink:href="AllenCahnMeltingBaseNLFormIntegrator_8hpp.html" target="_top" xlink:title="Base integrator for melting.">
<polygon fill="none" stroke="black" points="240,-123.5 240,-153.5 417,-153.5 417,-123.5 240,-123.5"/>
<text text-anchor="start" x="248" y="-141.5" font-family="serif" font-size="10.00">AllenCahnMeltingBaseNLForm</text>
<text text-anchor="middle" x="328.5" y="-130.5" font-family="serif" font-size="10.00">Integrator.hpp</text>
</a>
</g>
</g>
<!-- Node1&#45;&gt;Node2 -->
<g id="edge1" class="edge">
<title>Node1&#45;&gt;Node2</title>
<path fill="none" stroke="midnightblue" d="M447.54,-186.72C423.19,-177.06 389.26,-163.6 363.85,-153.52"/>
<polygon fill="midnightblue" stroke="midnightblue" points="446.42,-190.04 457.01,-190.48 449,-183.53 446.42,-190.04"/>
</g>
<!-- Node4 -->
<g id="node4" class="node">
<title>Node4</title>
<g id="a_node4"><a xlink:href="sloth_8hpp.html" target="_top" xlink:title="List of all header files contained in the kernel directory.">
<polygon fill="none" stroke="black" points="296,-0.5 296,-19.5 361,-19.5 361,-0.5 296,-0.5"/>
<text text-anchor="middle" x="328.5" y="-7.5" font-family="serif" font-size="10.00">sloth.hpp</text>
</a>
</g>
</g>
<!-- Node1&#45;&gt;Node4 -->
<g id="edge9" class="edge">
<title>Node1&#45;&gt;Node4</title>
<path fill="none" stroke="midnightblue" d="M506.38,-186.11C556.2,-161.38 651.57,-105.34 609.5,-56 577.89,-18.92 428.17,-12.27 361.11,-11.16"/>
<polygon fill="midnightblue" stroke="midnightblue" points="504.82,-182.97 497.36,-190.49 507.88,-189.27 504.82,-182.97"/>
</g>
<!-- Node3 -->
<g id="node3" class="node">
<title>Node3</title>
<g id="a_node3"><a xlink:href="AllenCahnCalphadMeltingNLFormIntegrator_8hpp.html" target="_top" xlink:title="Compute the enthalpy of phase change based on two driving forces defined as auxiliary variables.">
<polygon fill="none" stroke="black" points="0,-56.5 0,-86.5 195,-86.5 195,-56.5 0,-56.5"/>
<text text-anchor="start" x="8" y="-74.5" font-family="serif" font-size="10.00">AllenCahnCalphadMeltingNLForm</text>
<text text-anchor="middle" x="97.5" y="-63.5" font-family="serif" font-size="10.00">Integrator.hpp</text>
</a>
</g>
</g>
<!-- Node2&#45;&gt;Node3 -->
<g id="edge2" class="edge">
<title>Node2&#45;&gt;Node3</title>
<path fill="none" stroke="midnightblue" d="M268.85,-120.71C231.26,-110.14 183.27,-96.63 147.65,-86.61"/>
<polygon fill="midnightblue" stroke="midnightblue" points="268.09,-124.14 278.66,-123.48 269.98,-117.4 268.09,-124.14"/>
</g>
<!-- Node2&#45;&gt;Node4 -->
<g id="edge8" class="edge">
<title>Node2&#45;&gt;Node4</title>
<path fill="none" stroke="midnightblue" d="M276.57,-118.78C262.73,-111.15 249.43,-100.78 241.5,-87 234.63,-75.06 234.34,-67.77 241.5,-56 253.26,-36.68 276.28,-25.29 295.69,-18.8"/>
<polygon fill="midnightblue" stroke="midnightblue" points="275.19,-122.01 285.69,-123.42 278.36,-115.77 275.19,-122.01"/>
</g>
<!-- Node5 -->
<g id="node5" class="node">
<title>Node5</title>
<g id="a_node5"><a xlink:href="AllenCahnConstantMeltingNLFormIntegrator_8hpp.html" target="_top" xlink:title="AllenCahn integrator for constant melting.">
<polygon fill="none" stroke="black" points="251,-56.5 251,-86.5 406,-86.5 406,-56.5 251,-56.5"/>
<text text-anchor="start" x="259" y="-74.5" font-family="serif" font-size="10.00">AllenCahnConstantMelting</text>
<text text-anchor="middle" x="328.5" y="-63.5" font-family="serif" font-size="10.00">NLFormIntegrator.hpp</text>
</a>
</g>
</g>
<!-- Node2&#45;&gt;Node5 -->
<g id="edge4" class="edge">
<title>Node2&#45;&gt;Node5</title>
<path fill="none" stroke="midnightblue" d="M328.5,-113.11C328.5,-104.15 328.5,-94.32 328.5,-86.58"/>
<polygon fill="midnightblue" stroke="midnightblue" points="325,-113.4 328.5,-123.4 332,-113.4 325,-113.4"/>
</g>
<!-- Node6 -->
<g id="node6" class="node">
<title>Node6</title>
<g id="a_node6"><a xlink:href="AllenCahnTemperatureMeltingNLFormIntegrator_8hpp.html" target="_top" xlink:title="FV for the Allen Cahn equation with ad&#45;hoc melting controled by temperature and a given melting tempe...">
<polygon fill="none" stroke="black" points="424.5,-56.5 424.5,-86.5 600.5,-86.5 600.5,-56.5 424.5,-56.5"/>
<text text-anchor="start" x="432.5" y="-74.5" font-family="serif" font-size="10.00">AllenCahnTemperatureMelting</text>
<text text-anchor="middle" x="512.5" y="-63.5" font-family="serif" font-size="10.00">NLFormIntegrator.hpp</text>
</a>
</g>
</g>
<!-- Node2&#45;&gt;Node6 -->
<g id="edge6" class="edge">
<title>Node2&#45;&gt;Node6</title>
<path fill="none" stroke="midnightblue" d="M378.17,-119.96C407.8,-109.48 444.94,-96.37 472.65,-86.58"/>
<polygon fill="midnightblue" stroke="midnightblue" points="376.69,-116.76 368.43,-123.4 379.02,-123.37 376.69,-116.76"/>
</g>
<!-- Node3&#45;&gt;Node4 -->
<g id="edge3" class="edge">
<title>Node3&#45;&gt;Node4</title>
<path fill="none" stroke="midnightblue" d="M161.89,-53.91C205.44,-42.7 261.13,-28.35 295.81,-19.42"/>
<polygon fill="midnightblue" stroke="midnightblue" points="160.76,-50.59 151.95,-56.47 162.51,-57.37 160.76,-50.59"/>
</g>
<!-- Node5&#45;&gt;Node4 -->
<g id="edge5" class="edge">
<title>Node5&#45;&gt;Node4</title>
<path fill="none" stroke="midnightblue" d="M328.5,-46.29C328.5,-36.86 328.5,-26.65 328.5,-19.66"/>
<polygon fill="midnightblue" stroke="midnightblue" points="325,-46.4 328.5,-56.4 332,-46.4 325,-46.4"/>
</g>
<!-- Node6&#45;&gt;Node4 -->
<g id="edge7" class="edge">
<title>Node6&#45;&gt;Node4</title>
<path fill="none" stroke="midnightblue" d="M459.06,-53.22C424.9,-42.17 382.09,-28.33 355.01,-19.57"/>
<polygon fill="midnightblue" stroke="midnightblue" points="458.3,-56.65 468.89,-56.4 460.46,-49.99 458.3,-56.65"/>
</g>
</g>
</svg>
