<?xml version="1.0" encoding="UTF-8" standalone="no"?>
<!DOCTYPE svg PUBLIC "-//W3C//DTD SVG 1.1//EN"
 "http://www.w3.org/Graphics/SVG/1.1/DTD/svg11.dtd">
<!-- Generated by graphviz version 2.43.0 (0)
 -->
<!-- Title: AllenCahnMeltingBaseNLFormIntegrator.hpp Pages: 1 -->
<svg width="609pt" height="162pt"
 viewBox="0.00 0.00 608.50 162.00" xmlns="http://www.w3.org/2000/svg" xmlns:xlink="http://www.w3.org/1999/xlink">
<g id="graph0" class="graph" transform="scale(1 1) rotate(0) translate(4 158)">
<title>AllenCahnMeltingBaseNLFormIntegrator.hpp</title>
<!-- Node1 -->
<g id="node1" class="node">
<title>Node1</title>
<g id="a_node1"><a xlink:title="Base integrator for melting.">
<polygon fill="#bfbfbf" stroke="black" points="187,-123.5 187,-153.5 364,-153.5 364,-123.5 187,-123.5"/>
<text text-anchor="start" x="195" y="-141.5" font-family="serif" font-size="10.00">AllenCahnMeltingBaseNLForm</text>
<text text-anchor="middle" x="275.5" y="-130.5" font-family="serif" font-size="10.00">Integrator.hpp</text>
</a>
</g>
</g>
<!-- Node2 -->
<g id="node2" class="node">
<title>Node2</title>
<g id="a_node2"><a xlink:href="AllenCahnCalphadMeltingNLFormIntegrator_8hpp.html" target="_top" xlink:title="Compute the enthalpy of phase change based on two driving forces defined as auxiliary variables.">
<polygon fill="none" stroke="black" points="0,-56.5 0,-86.5 195,-86.5 195,-56.5 0,-56.5"/>
<text text-anchor="start" x="8" y="-74.5" font-family="serif" font-size="10.00">AllenCahnCalphadMeltingNLForm</text>
<text text-anchor="middle" x="97.5" y="-63.5" font-family="serif" font-size="10.00">Integrator.hpp</text>
</a>
</g>
</g>
<!-- Node1&#45;&gt;Node2 -->
<g id="edge1" class="edge">
<title>Node1&#45;&gt;Node2</title>
<path fill="none" stroke="midnightblue" d="M227.45,-119.96C198.78,-109.48 162.86,-96.37 136.05,-86.58"/>
<polygon fill="midnightblue" stroke="midnightblue" points="226.28,-123.25 236.88,-123.4 228.68,-116.68 226.28,-123.25"/>
</g>
<!-- Node3 -->
<g id="node3" class="node">
<title>Node3</title>
<g id="a_node3"><a xlink:href="sloth_8hpp.html" target="_top" xlink:title="List of all header files contained in the kernel directory.">
<polygon fill="none" stroke="black" points="243,-0.5 243,-19.5 308,-19.5 308,-0.5 243,-0.5"/>
<text text-anchor="middle" x="275.5" y="-7.5" font-family="serif" font-size="10.00">sloth.hpp</text>
</a>
</g>
</g>
<!-- Node1&#45;&gt;Node3 -->
<g id="edge7" class="edge">
<title>Node1&#45;&gt;Node3</title>
<path fill="none" stroke="midnightblue" d="M256.35,-115.22C250.38,-106.92 244.57,-97.05 241.5,-87 237.48,-73.82 237.12,-69.06 241.5,-56 246.36,-41.52 257.92,-27.98 266.21,-19.61"/>
<polygon fill="midnightblue" stroke="midnightblue" points="253.65,-117.45 262.51,-123.25 259.2,-113.19 253.65,-117.45"/>
</g>
<!-- Node4 -->
<g id="node4" class="node">
<title>Node4</title>
<g id="a_node4"><a xlink:href="AllenCahnConstantMeltingNLFormIntegrator_8hpp.html" target="_top" xlink:title="AllenCahn integrator for constant melting.">
<polygon fill="none" stroke="black" points="251,-56.5 251,-86.5 406,-86.5 406,-56.5 251,-56.5"/>
<text text-anchor="start" x="259" y="-74.5" font-family="serif" font-size="10.00">AllenCahnConstantMelting</text>
<text text-anchor="middle" x="328.5" y="-63.5" font-family="serif" font-size="10.00">NLFormIntegrator.hpp</text>
</a>
</g>
</g>
<!-- Node1&#45;&gt;Node4 -->
<g id="edge3" class="edge">
<title>Node1&#45;&gt;Node4</title>
<path fill="none" stroke="midnightblue" d="M293.48,-115.45C301.27,-105.9 310.15,-95 317.02,-86.58"/>
<polygon fill="midnightblue" stroke="midnightblue" points="290.61,-113.43 287,-123.4 296.03,-117.86 290.61,-113.43"/>
</g>
<!-- Node5 -->
<g id="node5" class="node">
<title>Node5</title>
<g id="a_node5"><a xlink:href="AllenCahnTemperatureMeltingNLFormIntegrator_8hpp.html" target="_top" xlink:title="FV for the Allen Cahn equation with ad&#45;hoc melting controled by temperature and a given melting tempe...">
<polygon fill="none" stroke="black" points="424.5,-56.5 424.5,-86.5 600.5,-86.5 600.5,-56.5 424.5,-56.5"/>
<text text-anchor="start" x="432.5" y="-74.5" font-family="serif" font-size="10.00">AllenCahnTemperatureMelting</text>
<text text-anchor="middle" x="512.5" y="-63.5" font-family="serif" font-size="10.00">NLFormIntegrator.hpp</text>
</a>
</g>
</g>
<!-- Node1&#45;&gt;Node5 -->
<g id="edge5" class="edge">
<title>Node1&#45;&gt;Node5</title>
<path fill="none" stroke="midnightblue" d="M336.7,-120.71C375.27,-110.14 424.5,-96.63 461.05,-86.61"/>
<polygon fill="midnightblue" stroke="midnightblue" points="335.35,-117.46 326.63,-123.48 337.2,-124.21 335.35,-117.46"/>
</g>
<!-- Node2&#45;&gt;Node3 -->
<g id="edge2" class="edge">
<title>Node2&#45;&gt;Node3</title>
<path fill="none" stroke="midnightblue" d="M149.2,-53.22C182.24,-42.17 223.66,-28.33 249.86,-19.57"/>
<polygon fill="midnightblue" stroke="midnightblue" points="148.06,-49.91 139.68,-56.4 150.28,-56.55 148.06,-49.91"/>
</g>
<!-- Node4&#45;&gt;Node3 -->
<g id="edge4" class="edge">
<title>Node4&#45;&gt;Node3</title>
<path fill="none" stroke="midnightblue" d="M309.08,-48.7C300.12,-38.64 289.98,-27.26 283.21,-19.66"/>
<polygon fill="midnightblue" stroke="midnightblue" points="306.67,-51.26 315.94,-56.4 311.9,-46.6 306.67,-51.26"/>
</g>
<!-- Node5&#45;&gt;Node3 -->
<g id="edge6" class="edge">
<title>Node5&#45;&gt;Node3</title>
<path fill="none" stroke="midnightblue" d="M446.91,-54.03C401.73,-42.69 343.64,-28.11 308.01,-19.16"/>
<polygon fill="midnightblue" stroke="midnightblue" points="446.08,-57.43 456.63,-56.47 447.79,-50.64 446.08,-57.43"/>
</g>
</g>
</svg>
