<?xml version="1.0" encoding="UTF-8" standalone="no"?>
<!DOCTYPE svg PUBLIC "-//W3C//DTD SVG 1.1//EN"
 "http://www.w3.org/Graphics/SVG/1.1/DTD/svg11.dtd">
<!-- Generated by graphviz version 2.43.0 (0)
 -->
<!-- Title: AnalyticalFunctions.hpp Pages: 1 -->
<!--zoomable 364 -->
<svg id="main" version="1.1" xmlns="http://www.w3.org/2000/svg" xmlns:xlink="http://www.w3.org/1999/xlink" xml:space="preserve" onload="init(evt)">
<style type="text/css"><![CDATA[
.edge:hover path { stroke: red; }
.edge:hover polygon { stroke: red; fill: red; }
]]></style>
<script type="text/javascript"><![CDATA[
var edges = document.getElementsByTagName('g');
if (edges && edges.length) {
  for (var i=0;i<edges.length;i++) {
    if (edges[i].id.substr(0,4)=='edge') {
      edges[i].setAttribute('class','edge');
    }
  }
}
]]></script>
        <defs>
                <circle id="rim" cx="0" cy="0" r="7"/>
                <circle id="rim2" cx="0" cy="0" r="3.5"/>
                <g id="zoomPlus">
                        <use xlink:href="#rim" fill="#404040">
                                <set attributeName="fill" to="#808080" begin="zoomplus.mouseover" end="zoomplus.mouseout"/>
                        </use>
                        <path d="M-4,0h8M0,-4v8" fill="none" stroke="white" stroke-width="1.5" pointer-events="none"/>
                </g>
                <g id="zoomMin">
                        <use xlink:href="#rim" fill="#404040">
                                <set attributeName="fill" to="#808080" begin="zoomminus.mouseover" end="zoomminus.mouseout"/>
                        </use>
                        <path d="M-4,0h8" fill="none" stroke="white" stroke-width="1.5" pointer-events="none"/>
                </g>
                <g id="dirArrow">
                        <path fill="none" stroke="white" stroke-width="1.5" d="M0,-3.0v7 M-2.5,-0.5L0,-3.0L2.5,-0.5"/>
                </g>
               <g id="resetDef">
                       <use xlink:href="#rim2" fill="#404040">
                               <set attributeName="fill" to="#808080" begin="reset.mouseover" end="reset.mouseout"/>
                       </use>
               </g>
        </defs>

<script type="text/javascript">
var viewWidth = 1079;
var viewHeight = 364;
var sectionId = 'dynsection-1';
</script>
<script xlink:href="svgpan.js"/>
<svg id="graph" class="graph">
<g id="viewport">
<title>AnalyticalFunctions.hpp</title>
<!-- Node1 -->
<g id="node1" class="node">
<title>Node1</title>
<g id="a_node1"><a xlink:title="List of Analytical functions used by phase&#45;field models.">
<polygon fill="#bfbfbf" stroke="black" points="265,-336.5 265,-355.5 405,-355.5 405,-336.5 265,-336.5"/>
<text text-anchor="middle" x="335" y="-343.5" font-family="serif" font-size="10.00">AnalyticalFunctions.hpp</text>
</a>
</g>
</g>
<!-- Node2 -->
<g id="node2" class="node">
<title>Node2</title>
<g id="a_node2"><a xlink:href="OperatorBase_8hpp.html" target="_top" xlink:title="Base class for building Steady and TimeDependent PhaseFieldOperators.">
<polygon fill="none" stroke="black" points="280,-168.5 280,-187.5 390,-187.5 390,-168.5 280,-168.5"/>
<text text-anchor="middle" x="335" y="-175.5" font-family="serif" font-size="10.00">OperatorBase.hpp</text>
</a>
</g>
</g>
<!-- Node1&#45;&gt;Node2 -->
<g id="edge1" class="edge">
<title>Node1&#45;&gt;Node2</title>
<path fill="none" stroke="midnightblue" d="M335,-325.93C335,-289.92 335,-213.23 335,-187.57"/>
<polygon fill="midnightblue" stroke="midnightblue" points="331.5,-326.08 335,-336.08 338.5,-326.08 331.5,-326.08"/>
</g>
<!-- Node3 -->
<g id="node3" class="node">
<title>Node3</title>
<g id="a_node3"><a xlink:href="SteadyOperatorBase_8hpp.html" target="_top" xlink:title="Steady Operator base.">
<polygon fill="none" stroke="black" points="212,-112.5 212,-131.5 358,-131.5 358,-112.5 212,-112.5"/>
<text text-anchor="middle" x="285" y="-119.5" font-family="serif" font-size="10.00">SteadyOperatorBase.hpp</text>
</a>
</g>
</g>
<!-- Node1&#45;&gt;Node3 -->
<g id="edge16" class="edge">
<title>Node1&#45;&gt;Node3</title>
<path fill="none" stroke="midnightblue" d="M325,-327.1C309.76,-298.67 281.39,-241 271,-188 267.05,-167.84 275.36,-144.29 280.79,-131.81"/>
<polygon fill="midnightblue" stroke="midnightblue" points="322.1,-329.08 329.96,-336.18 328.24,-325.73 322.1,-329.08"/>
</g>
<!-- Node5 -->
<g id="node5" class="node">
<title>Node5</title>
<g id="a_node5"><a xlink:href="sloth_8hpp.html" target="_top" xlink:title="List of all header files contained in the kernel directory.">
<polygon fill="none" stroke="black" points="575.5,-0.5 575.5,-19.5 640.5,-19.5 640.5,-0.5 575.5,-0.5"/>
<text text-anchor="middle" x="608" y="-7.5" font-family="serif" font-size="10.00">sloth.hpp</text>
</a>
</g>
</g>
<!-- Node1&#45;&gt;Node5 -->
<g id="edge18" class="edge">
<title>Node1&#45;&gt;Node5</title>
<path fill="none" stroke="midnightblue" d="M255.59,-335.02C156.53,-320.29 0,-288.56 0,-235 0,-235 0,-235 0,-121 0,-79.51 29.23,-73.17 67,-56 158.48,-14.42 472.96,-10.89 575.43,-10.87"/>
<polygon fill="midnightblue" stroke="midnightblue" points="255.19,-338.49 265.59,-336.47 256.2,-331.57 255.19,-338.49"/>
</g>
<!-- Node8 -->
<g id="node8" class="node">
<title>Node8</title>
<g id="a_node8"><a xlink:href="TransientOperatorBase_8hpp.html" target="_top" xlink:title="Transient Operator base.">
<polygon fill="none" stroke="black" points="376.5,-112.5 376.5,-131.5 535.5,-131.5 535.5,-112.5 376.5,-112.5"/>
<text text-anchor="middle" x="456" y="-119.5" font-family="serif" font-size="10.00">TransientOperatorBase.hpp</text>
</a>
</g>
</g>
<!-- Node1&#45;&gt;Node8 -->
<g id="edge17" class="edge">
<title>Node1&#45;&gt;Node8</title>
<path fill="none" stroke="midnightblue" d="M344.57,-327.44C369,-282.61 433.04,-165.13 451.16,-131.88"/>
<polygon fill="midnightblue" stroke="midnightblue" points="341.46,-325.84 339.74,-336.3 347.6,-329.19 341.46,-325.84"/>
</g>
<!-- Node9 -->
<g id="node9" class="node">
<title>Node9</title>
<g id="a_node9"><a xlink:href="Variable_8hpp.html" target="_top" xlink:title="Variable class used to build and manage variables of model.">
<polygon fill="none" stroke="black" points="640.5,-280.5 640.5,-299.5 721.5,-299.5 721.5,-280.5 640.5,-280.5"/>
<text text-anchor="middle" x="681" y="-287.5" font-family="serif" font-size="10.00">Variable.hpp</text>
</a>
</g>
</g>
<!-- Node1&#45;&gt;Node9 -->
<g id="edge19" class="edge">
<title>Node1&#45;&gt;Node9</title>
<path fill="none" stroke="midnightblue" d="M399.94,-334.86C470.58,-323.84 581.3,-306.56 640.49,-297.32"/>
<polygon fill="midnightblue" stroke="midnightblue" points="399.17,-331.44 389.82,-336.44 400.24,-338.36 399.17,-331.44"/>
</g>
<!-- Node2&#45;&gt;Node3 -->
<g id="edge2" class="edge">
<title>Node2&#45;&gt;Node3</title>
<path fill="none" stroke="midnightblue" d="M319.92,-160.72C311.11,-151.2 300.33,-139.56 293.1,-131.75"/>
<polygon fill="midnightblue" stroke="midnightblue" points="317.38,-163.12 326.74,-168.08 322.52,-158.37 317.38,-163.12"/>
</g>
<!-- Node2&#45;&gt;Node5 -->
<g id="edge15" class="edge">
<title>Node2&#45;&gt;Node5</title>
<path fill="none" stroke="midnightblue" d="M269.7,-169.01C176.23,-155.11 21.87,-121.49 82,-56 115.39,-19.63 465.3,-12.6 575.18,-11.29"/>
<polygon fill="midnightblue" stroke="midnightblue" points="269.26,-172.49 279.66,-170.45 270.26,-165.56 269.26,-172.49"/>
</g>
<!-- Node2&#45;&gt;Node8 -->
<g id="edge10" class="edge">
<title>Node2&#45;&gt;Node8</title>
<path fill="none" stroke="midnightblue" d="M363.31,-164.37C385.97,-154.26 417.13,-140.35 436.92,-131.52"/>
<polygon fill="midnightblue" stroke="midnightblue" points="361.88,-161.17 354.17,-168.44 364.73,-167.56 361.88,-161.17"/>
</g>
<!-- Node4 -->
<g id="node4" class="node">
<title>Node4</title>
<g id="a_node4"><a xlink:href="DiffusionOperator_8hpp.html" target="_top" xlink:title="Diffusion operator (Base, Steady and TimeDependent)">
<polygon fill="none" stroke="black" points="391.5,-56.5 391.5,-75.5 522.5,-75.5 522.5,-56.5 391.5,-56.5"/>
<text text-anchor="middle" x="457" y="-63.5" font-family="serif" font-size="10.00">DiffusionOperator.hpp</text>
</a>
</g>
</g>
<!-- Node3&#45;&gt;Node4 -->
<g id="edge3" class="edge">
<title>Node3&#45;&gt;Node4</title>
<path fill="none" stroke="midnightblue" d="M321.83,-109.44C354.26,-99.26 400.74,-84.66 429.87,-75.52"/>
<polygon fill="midnightblue" stroke="midnightblue" points="320.75,-106.11 312.25,-112.44 322.84,-112.79 320.75,-106.11"/>
</g>
<!-- Node3&#45;&gt;Node5 -->
<g id="edge9" class="edge">
<title>Node3&#45;&gt;Node5</title>
<path fill="none" stroke="midnightblue" d="M201.7,-117.16C135.18,-111.13 58.66,-95.67 95,-56 127.46,-20.57 467.24,-12.91 575.24,-11.37"/>
<polygon fill="midnightblue" stroke="midnightblue" points="201.59,-120.66 211.85,-118.01 202.18,-113.69 201.59,-120.66"/>
</g>
<!-- Node6 -->
<g id="node6" class="node">
<title>Node6</title>
<g id="a_node6"><a xlink:href="HeatOperator_8hpp.html" target="_top" xlink:title="Heat operator (Base, Steady and TimeDependent)">
<polygon fill="none" stroke="black" points="104,-56.5 104,-75.5 214,-75.5 214,-56.5 104,-56.5"/>
<text text-anchor="middle" x="159" y="-63.5" font-family="serif" font-size="10.00">HeatOperator.hpp</text>
</a>
</g>
</g>
<!-- Node3&#45;&gt;Node6 -->
<g id="edge5" class="edge">
<title>Node3&#45;&gt;Node6</title>
<path fill="none" stroke="midnightblue" d="M255.84,-108.5C232.22,-98.38 199.57,-84.39 178.87,-75.52"/>
<polygon fill="midnightblue" stroke="midnightblue" points="254.46,-111.72 265.03,-112.44 257.22,-105.29 254.46,-111.72"/>
</g>
<!-- Node7 -->
<g id="node7" class="node">
<title>Node7</title>
<g id="a_node7"><a xlink:href="PhaseFieldOperator_8hpp.html" target="_top" xlink:title="AllenCahn operator (Base, Steady and TimeDependent)">
<polygon fill="none" stroke="black" points="232.5,-56.5 232.5,-75.5 373.5,-75.5 373.5,-56.5 232.5,-56.5"/>
<text text-anchor="middle" x="303" y="-63.5" font-family="serif" font-size="10.00">PhaseFieldOperator.hpp</text>
</a>
</g>
</g>
<!-- Node3&#45;&gt;Node7 -->
<g id="edge7" class="edge">
<title>Node3&#45;&gt;Node7</title>
<path fill="none" stroke="midnightblue" d="M291.2,-102.4C294.21,-93.36 297.69,-82.94 300.08,-75.75"/>
<polygon fill="midnightblue" stroke="midnightblue" points="287.81,-101.49 287.97,-112.08 294.46,-103.7 287.81,-101.49"/>
</g>
<!-- Node4&#45;&gt;Node5 -->
<g id="edge4" class="edge">
<title>Node4&#45;&gt;Node5</title>
<path fill="none" stroke="midnightblue" d="M490.45,-53.04C518.86,-42.88 558.94,-28.55 584.19,-19.52"/>
<polygon fill="midnightblue" stroke="midnightblue" points="489.16,-49.78 480.93,-56.44 491.52,-56.37 489.16,-49.78"/>
</g>
<!-- Node6&#45;&gt;Node5 -->
<g id="edge6" class="edge">
<title>Node6&#45;&gt;Node5</title>
<path fill="none" stroke="midnightblue" d="M224.37,-55.85C360.86,-38.38 510.43,-21.68 575.26,-14.57"/>
<polygon fill="midnightblue" stroke="midnightblue" points="223.62,-52.42 214.15,-57.16 224.51,-59.36 223.62,-52.42"/>
</g>
<!-- Node7&#45;&gt;Node5 -->
<g id="edge8" class="edge">
<title>Node7&#45;&gt;Node5</title>
<path fill="none" stroke="midnightblue" d="M361.21,-54.69C424.77,-43.44 524.3,-25.82 575.37,-16.78"/>
<polygon fill="midnightblue" stroke="midnightblue" points="360.56,-51.25 351.33,-56.44 361.79,-58.15 360.56,-51.25"/>
</g>
<!-- Node8&#45;&gt;Node4 -->
<g id="edge11" class="edge">
<title>Node8&#45;&gt;Node4</title>
<path fill="none" stroke="midnightblue" d="M456.36,-101.8C456.52,-92.91 456.71,-82.78 456.84,-75.75"/>
<polygon fill="midnightblue" stroke="midnightblue" points="452.85,-102.02 456.17,-112.08 459.85,-102.15 452.85,-102.02"/>
</g>
<!-- Node8&#45;&gt;Node5 -->
<g id="edge14" class="edge">
<title>Node8&#45;&gt;Node5</title>
<path fill="none" stroke="midnightblue" d="M481.03,-107.62C496.19,-99.17 515.68,-87.68 532,-76 557.7,-57.61 585.27,-32.52 599.06,-19.54"/>
<polygon fill="midnightblue" stroke="midnightblue" points="479.3,-104.58 472.22,-112.46 482.67,-110.71 479.3,-104.58"/>
</g>
<!-- Node8&#45;&gt;Node6 -->
<g id="edge12" class="edge">
<title>Node8&#45;&gt;Node6</title>
<path fill="none" stroke="midnightblue" d="M398.8,-110.6C342.67,-100.4 258.1,-85.02 205.84,-75.52"/>
<polygon fill="midnightblue" stroke="midnightblue" points="398.47,-114.1 408.94,-112.44 399.73,-107.21 398.47,-114.1"/>
</g>
<!-- Node8&#45;&gt;Node7 -->
<g id="edge13" class="edge">
<title>Node8&#45;&gt;Node7</title>
<path fill="none" stroke="midnightblue" d="M422.11,-109.04C393.32,-98.88 352.71,-84.55 327.13,-75.52"/>
<polygon fill="midnightblue" stroke="midnightblue" points="421.16,-112.42 431.76,-112.44 423.49,-105.81 421.16,-112.42"/>
</g>
<!-- Node9&#45;&gt;Node5 -->
<g id="edge39" class="edge">
<title>Node9&#45;&gt;Node5</title>
<path fill="none" stroke="midnightblue" d="M672.29,-271.31C658.65,-242.77 632.54,-184.43 620,-132 610.13,-90.73 608.36,-39.67 608.06,-19.64"/>
<polygon fill="midnightblue" stroke="midnightblue" points="669.19,-272.94 676.7,-280.42 675.49,-269.89 669.19,-272.94"/>
</g>
<!-- Node10 -->
<g id="node10" class="node">
<title>Node10</title>
<g id="a_node10"><a xlink:href="postprocessing_8hpp.html" target="_top" xlink:title="Post&#45;processing features.">
<polygon fill="none" stroke="black" points="771.5,-224.5 771.5,-243.5 888.5,-243.5 888.5,-224.5 771.5,-224.5"/>
<text text-anchor="middle" x="830" y="-231.5" font-family="serif" font-size="10.00">postprocessing.hpp</text>
</a>
</g>
</g>
<!-- Node9&#45;&gt;Node10 -->
<g id="edge20" class="edge">
<title>Node9&#45;&gt;Node10</title>
<path fill="none" stroke="midnightblue" d="M714.37,-276.91C742.38,-266.75 781.7,-252.51 806.5,-243.52"/>
<polygon fill="midnightblue" stroke="midnightblue" points="712.82,-273.75 704.61,-280.44 715.2,-280.33 712.82,-273.75"/>
</g>
<!-- Node11 -->
<g id="node11" class="node">
<title>Node11</title>
<g id="a_node11"><a xlink:href="MPIProblem_8hpp.html" target="_top" xlink:title="Class used to defined a MPI_Problem objet.">
<polygon fill="none" stroke="black" points="629,-112.5 629,-131.5 733,-131.5 733,-112.5 629,-112.5"/>
<text text-anchor="middle" x="681" y="-119.5" font-family="serif" font-size="10.00">MPIProblem.hpp</text>
</a>
</g>
</g>
<!-- Node9&#45;&gt;Node11 -->
<g id="edge36" class="edge">
<title>Node9&#45;&gt;Node11</title>
<path fill="none" stroke="midnightblue" d="M681,-269.93C681,-233.92 681,-157.23 681,-131.57"/>
<polygon fill="midnightblue" stroke="midnightblue" points="677.5,-270.08 681,-280.08 684.5,-270.08 677.5,-270.08"/>
</g>
<!-- Node12 -->
<g id="node12" class="node">
<title>Node12</title>
<g id="a_node12"><a xlink:href="Problem_8hpp.html" target="_top" xlink:title="Class used to defined a Problem objet.">
<polygon fill="none" stroke="black" points="973.5,-112.5 973.5,-131.5 1056.5,-131.5 1056.5,-112.5 973.5,-112.5"/>
<text text-anchor="middle" x="1015" y="-119.5" font-family="serif" font-size="10.00">Problem.hpp</text>
</a>
</g>
</g>
<!-- Node9&#45;&gt;Node12 -->
<g id="edge37" class="edge">
<title>Node9&#45;&gt;Node12</title>
<path fill="none" stroke="midnightblue" d="M731.88,-286.9C777.82,-283.1 845.99,-272.64 898,-244 950.73,-214.96 994.36,-154.31 1009.39,-131.72"/>
<polygon fill="midnightblue" stroke="midnightblue" points="731.57,-283.41 721.86,-287.65 732.09,-290.39 731.57,-283.41"/>
</g>
<!-- Node14 -->
<g id="node14" class="node">
<title>Node14</title>
<g id="a_node14"><a xlink:href="ProblemBase_8hpp.html" target="_top" xlink:title="Base class for building Problems.">
<polygon fill="none" stroke="black" points="776.5,-168.5 776.5,-187.5 883.5,-187.5 883.5,-168.5 776.5,-168.5"/>
<text text-anchor="middle" x="830" y="-175.5" font-family="serif" font-size="10.00">ProblemBase.hpp</text>
</a>
</g>
</g>
<!-- Node9&#45;&gt;Node14 -->
<g id="edge38" class="edge">
<title>Node9&#45;&gt;Node14</title>
<path fill="none" stroke="midnightblue" d="M699.15,-273.94C715.56,-260.48 740.51,-240.42 763,-224 781.1,-210.78 802.75,-196.5 816.44,-187.66"/>
<polygon fill="midnightblue" stroke="midnightblue" points="696.9,-271.25 691.41,-280.31 701.35,-276.66 696.9,-271.25"/>
</g>
<!-- Node17 -->
<g id="node17" class="node">
<title>Node17</title>
<g id="a_node17"><a xlink:href="Variables_8hpp.html" target="_top" xlink:title="Variables class used to build and manage variables.">
<polygon fill="none" stroke="black" points="484,-224.5 484,-243.5 570,-243.5 570,-224.5 484,-224.5"/>
<text text-anchor="middle" x="527" y="-231.5" font-family="serif" font-size="10.00">Variables.hpp</text>
</a>
</g>
</g>
<!-- Node9&#45;&gt;Node17 -->
<g id="edge40" class="edge">
<title>Node9&#45;&gt;Node17</title>
<path fill="none" stroke="midnightblue" d="M646.89,-277.04C617.91,-266.88 577.04,-252.55 551.29,-243.52"/>
<polygon fill="midnightblue" stroke="midnightblue" points="646,-280.44 656.6,-280.44 648.32,-273.83 646,-280.44"/>
</g>
<!-- Node10&#45;&gt;Node5 -->
<g id="edge35" class="edge">
<title>Node10&#45;&gt;Node5</title>
<path fill="none" stroke="midnightblue" d="M898.8,-224.15C954.39,-212.97 1029.21,-187.9 1066,-132 1080.63,-109.76 1057.63,-65.75 1045,-56 1013.15,-31.42 736.93,-16.79 640.81,-12.4"/>
<polygon fill="midnightblue" stroke="midnightblue" points="897.83,-220.77 888.66,-226.08 899.14,-227.65 897.83,-220.77"/>
</g>
<!-- Node10&#45;&gt;Node11 -->
<g id="edge21" class="edge">
<title>Node10&#45;&gt;Node11</title>
<path fill="none" stroke="midnightblue" d="M809.95,-218.55C797.78,-209.76 781.96,-198.28 768,-188 740.82,-167.99 709.12,-144.18 692.5,-131.67"/>
<polygon fill="midnightblue" stroke="midnightblue" points="807.92,-221.41 818.08,-224.42 812.02,-215.73 807.92,-221.41"/>
</g>
<!-- Node10&#45;&gt;Node12 -->
<g id="edge23" class="edge">
<title>Node10&#45;&gt;Node12</title>
<path fill="none" stroke="midnightblue" d="M853.53,-219.01C892.36,-195.92 968.73,-150.51 1000.55,-131.59"/>
<polygon fill="midnightblue" stroke="midnightblue" points="851.32,-216.25 844.52,-224.37 854.9,-222.27 851.32,-216.25"/>
</g>
<!-- Node10&#45;&gt;Node14 -->
<g id="edge27" class="edge">
<title>Node10&#45;&gt;Node14</title>
<path fill="none" stroke="midnightblue" d="M830,-213.8C830,-204.91 830,-194.78 830,-187.75"/>
<polygon fill="midnightblue" stroke="midnightblue" points="826.5,-214.08 830,-224.08 833.5,-214.08 826.5,-214.08"/>
</g>
<!-- Node11&#45;&gt;Node5 -->
<g id="edge22" class="edge">
<title>Node11&#45;&gt;Node5</title>
<path fill="none" stroke="midnightblue" d="M670.75,-103.5C662.89,-90.27 651.61,-71.77 641,-56 632.35,-43.14 621.62,-28.78 614.79,-19.81"/>
<polygon fill="midnightblue" stroke="midnightblue" points="667.94,-105.62 676.04,-112.45 673.97,-102.06 667.94,-105.62"/>
</g>
<!-- Node12&#45;&gt;Node5 -->
<g id="edge24" class="edge">
<title>Node12&#45;&gt;Node5</title>
<path fill="none" stroke="midnightblue" d="M1025.85,-103.26C1033.13,-88.82 1039.5,-68.8 1028,-56 1002.21,-27.29 734.86,-15.37 640.64,-12.04"/>
<polygon fill="midnightblue" stroke="midnightblue" points="1022.67,-101.77 1020.87,-112.2 1028.79,-105.17 1022.67,-101.77"/>
</g>
<!-- Node13 -->
<g id="node13" class="node">
<title>Node13</title>
<g id="a_node13"><a xlink:href="Time_8hpp.html" target="_top" xlink:title="Main time loop.">
<polygon fill="none" stroke="black" points="953.5,-56.5 953.5,-75.5 1018.5,-75.5 1018.5,-56.5 953.5,-56.5"/>
<text text-anchor="middle" x="986" y="-63.5" font-family="serif" font-size="10.00">Time.hpp</text>
</a>
</g>
</g>
<!-- Node12&#45;&gt;Node13 -->
<g id="edge25" class="edge">
<title>Node12&#45;&gt;Node13</title>
<path fill="none" stroke="midnightblue" d="M1005.32,-102.98C1000.4,-93.82 994.64,-83.09 990.7,-75.75"/>
<polygon fill="midnightblue" stroke="midnightblue" points="1002.4,-104.93 1010.21,-112.08 1008.56,-101.62 1002.4,-104.93"/>
</g>
<!-- Node13&#45;&gt;Node5 -->
<g id="edge26" class="edge">
<title>Node13&#45;&gt;Node5</title>
<path fill="none" stroke="midnightblue" d="M943.44,-56.75C941.95,-56.49 940.46,-56.24 939,-56 829.97,-38.16 699.92,-21.95 640.51,-14.83"/>
<polygon fill="midnightblue" stroke="midnightblue" points="942.97,-60.21 953.42,-58.53 944.19,-53.32 942.97,-60.21"/>
</g>
<!-- Node14&#45;&gt;Node5 -->
<g id="edge34" class="edge">
<title>Node14&#45;&gt;Node5</title>
<path fill="none" stroke="midnightblue" d="M876.69,-165.4C907,-155.22 938.69,-137.94 926,-112 908.19,-75.58 891,-72.57 854,-56 782.28,-23.89 689,-14.69 640.5,-12.05"/>
<polygon fill="midnightblue" stroke="midnightblue" points="875.45,-162.12 866.96,-168.46 877.55,-168.8 875.45,-162.12"/>
</g>
<!-- Node14&#45;&gt;Node11 -->
<g id="edge30" class="edge">
<title>Node14&#45;&gt;Node11</title>
<path fill="none" stroke="midnightblue" d="M796.63,-164.91C768.62,-154.75 729.3,-140.51 704.5,-131.52"/>
<polygon fill="midnightblue" stroke="midnightblue" points="795.8,-168.33 806.39,-168.44 798.18,-161.75 795.8,-168.33"/>
</g>
<!-- Node14&#45;&gt;Node12 -->
<g id="edge31" class="edge">
<title>Node14&#45;&gt;Node12</title>
<path fill="none" stroke="midnightblue" d="M869.17,-165.57C904.07,-155.38 954.35,-140.7 985.82,-131.52"/>
<polygon fill="midnightblue" stroke="midnightblue" points="867.93,-162.28 859.31,-168.44 869.89,-169 867.93,-162.28"/>
</g>
<!-- Node15 -->
<g id="node15" class="node">
<title>Node15</title>
<g id="a_node15"><a xlink:href="Calphad__problem_8hpp.html" target="_top" xlink:title="Class used to defined a Calphad_Problem objet.">
<polygon fill="none" stroke="black" points="693.5,-56.5 693.5,-75.5 824.5,-75.5 824.5,-56.5 693.5,-56.5"/>
<text text-anchor="middle" x="759" y="-63.5" font-family="serif" font-size="10.00">Calphad_problem.hpp</text>
</a>
</g>
</g>
<!-- Node14&#45;&gt;Node15 -->
<g id="edge28" class="edge">
<title>Node14&#45;&gt;Node15</title>
<path fill="none" stroke="midnightblue" d="M809.39,-162.05C799.64,-154.07 788.51,-143.53 781,-132 769.17,-113.83 763.04,-88.64 760.49,-75.6"/>
<polygon fill="midnightblue" stroke="midnightblue" points="807.45,-164.97 817.48,-168.36 811.75,-159.45 807.45,-164.97"/>
</g>
<!-- Node16 -->
<g id="node16" class="node">
<title>Node16</title>
<g id="a_node16"><a xlink:href="PropertyProblem_8hpp.html" target="_top" xlink:title="Class used to compute primary variables as a function of auxialiary variables.">
<polygon fill="none" stroke="black" points="789.5,-112.5 789.5,-131.5 916.5,-131.5 916.5,-112.5 789.5,-112.5"/>
<text text-anchor="middle" x="853" y="-119.5" font-family="serif" font-size="10.00">PropertyProblem.hpp</text>
</a>
</g>
</g>
<!-- Node14&#45;&gt;Node16 -->
<g id="edge32" class="edge">
<title>Node14&#45;&gt;Node16</title>
<path fill="none" stroke="midnightblue" d="M837.8,-158.69C841.68,-149.59 846.18,-139.01 849.27,-131.75"/>
<polygon fill="midnightblue" stroke="midnightblue" points="834.5,-157.51 833.8,-168.08 840.94,-160.25 834.5,-157.51"/>
</g>
<!-- Node15&#45;&gt;Node5 -->
<g id="edge29" class="edge">
<title>Node15&#45;&gt;Node5</title>
<path fill="none" stroke="midnightblue" d="M725.55,-53.04C697.14,-42.88 657.06,-28.55 631.81,-19.52"/>
<polygon fill="midnightblue" stroke="midnightblue" points="724.48,-56.37 735.07,-56.44 726.84,-49.78 724.48,-56.37"/>
</g>
<!-- Node16&#45;&gt;Node5 -->
<g id="edge33" class="edge">
<title>Node16&#45;&gt;Node5</title>
<path fill="none" stroke="midnightblue" d="M852.57,-102.39C851.19,-87.7 846.85,-67.77 834,-56 806.12,-30.47 696.22,-18.11 640.61,-13.39"/>
<polygon fill="midnightblue" stroke="midnightblue" points="849.07,-102.6 853.13,-112.39 856.06,-102.21 849.07,-102.6"/>
</g>
<!-- Node17&#45;&gt;Node2 -->
<g id="edge41" class="edge">
<title>Node17&#45;&gt;Node2</title>
<path fill="none" stroke="midnightblue" d="M486.82,-221.7C450.58,-211.51 398.09,-196.74 365.28,-187.52"/>
<polygon fill="midnightblue" stroke="midnightblue" points="486,-225.11 496.58,-224.44 487.9,-218.37 486,-225.11"/>
</g>
<!-- Node17&#45;&gt;Node3 -->
<g id="edge42" class="edge">
<title>Node17&#45;&gt;Node3</title>
<path fill="none" stroke="midnightblue" d="M502.08,-219.47C476.53,-205.8 435.48,-184.42 399,-168 368.15,-154.11 331.64,-140.12 308.41,-131.51"/>
<polygon fill="midnightblue" stroke="midnightblue" points="500.61,-222.65 511.07,-224.3 503.92,-216.48 500.61,-222.65"/>
</g>
<!-- Node17&#45;&gt;Node5 -->
<g id="edge44" class="edge">
<title>Node17&#45;&gt;Node5</title>
<path fill="none" stroke="midnightblue" d="M533.61,-214.87C550.12,-169.63 592.68,-52.99 604.76,-19.88"/>
<polygon fill="midnightblue" stroke="midnightblue" points="530.32,-213.7 530.18,-224.3 536.89,-216.1 530.32,-213.7"/>
</g>
<!-- Node17&#45;&gt;Node8 -->
<g id="edge43" class="edge">
<title>Node17&#45;&gt;Node8</title>
<path fill="none" stroke="midnightblue" d="M516,-215.96C500.61,-192.12 473.24,-149.71 461.55,-131.59"/>
<polygon fill="midnightblue" stroke="midnightblue" points="513.07,-217.86 521.43,-224.37 518.95,-214.07 513.07,-217.86"/>
</g>
</g>
</svg>
        <g id="navigator" transform="translate(0 0)" fill="#404254">
                <rect fill="#f2f5e9" fill-opacity="0.5" stroke="#606060" stroke-width=".5" x="0" y="0" width="60" height="60"/>
                <use id="zoomplus" xlink:href="#zoomPlus" x="17" y="9" onmousedown="handleZoom(evt,'in')"/>
                <use id="zoomminus" xlink:href="#zoomMin" x="42" y="9" onmousedown="handleZoom(evt,'out')"/>
                <use id="reset" xlink:href="#resetDef" x="30" y="36" onmousedown="handleReset()"/>
                <g id="arrowUp" xlink:href="#dirArrow" transform="translate(30 24)" onmousedown="handlePan(0,-1)">
                  <use xlink:href="#rim" fill="#404040">
                        <set attributeName="fill" to="#808080" begin="arrowUp.mouseover" end="arrowUp.mouseout"/>
                  </use>
                  <path fill="none" stroke="white" stroke-width="1.5" d="M0,-3.0v7 M-2.5,-0.5L0,-3.0L2.5,-0.5"/>
                </g>
                <g id="arrowRight" xlink:href="#dirArrow" transform="rotate(90) translate(36 -43)" onmousedown="handlePan(1,0)">
                  <use xlink:href="#rim" fill="#404040">
                        <set attributeName="fill" to="#808080" begin="arrowRight.mouseover" end="arrowRight.mouseout"/>
                  </use>
                  <path fill="none" stroke="white" stroke-width="1.5" d="M0,-3.0v7 M-2.5,-0.5L0,-3.0L2.5,-0.5"/>
                </g>
                <g id="arrowDown" xlink:href="#dirArrow" transform="rotate(180) translate(-30 -48)" onmousedown="handlePan(0,1)">
                  <use xlink:href="#rim" fill="#404040">
                        <set attributeName="fill" to="#808080" begin="arrowDown.mouseover" end="arrowDown.mouseout"/>
                  </use>
                  <path fill="none" stroke="white" stroke-width="1.5" d="M0,-3.0v7 M-2.5,-0.5L0,-3.0L2.5,-0.5"/>
                </g>
                <g id="arrowLeft" xlink:href="#dirArrow" transform="rotate(270) translate(-36 17)" onmousedown="handlePan(-1,0)">
                  <use xlink:href="#rim" fill="#404040">
                        <set attributeName="fill" to="#808080" begin="arrowLeft.mouseover" end="arrowLeft.mouseout"/>
                  </use>
                  <path fill="none" stroke="white" stroke-width="1.5" d="M0,-3.0v7 M-2.5,-0.5L0,-3.0L2.5,-0.5"/>
                </g>
        </g>
        <svg viewBox="0 0 15 15" width="100%" height="30px" preserveAspectRatio="xMaxYMin meet">
         <g id="arrow_out" transform="scale(0.3 0.3)">
          <a xlink:href="AnalyticalFunctions_8hpp__dep__incl_org.svg" target="_base">
           <rect id="button" ry="5" rx="5" y="6" x="6" height="38" width="38"
                fill="#f2f5e9" fill-opacity="0.5" stroke="#606060" stroke-width="1.0"/>
           <path id="arrow"
             d="M 11.500037,31.436501 C 11.940474,20.09759 22.043105,11.32322 32.158766,21.979434 L 37.068811,17.246167 C 37.068811,17.246167 37.088388,32 37.088388,32 L 22.160133,31.978069 C 22.160133,31.978069 26.997745,27.140456 26.997745,27.140456 C 18.528582,18.264221 13.291696,25.230495 11.500037,31.436501 z"
             style="fill:#404040;"/>
          </a>
         </g>
        </svg>
</svg>
