<?xml version="1.0" encoding="UTF-8" standalone="no"?>
<!DOCTYPE svg PUBLIC "-//W3C//DTD SVG 1.1//EN"
 "http://www.w3.org/Graphics/SVG/1.1/DTD/svg11.dtd">
<!-- Generated by graphviz version 2.43.0 (0)
 -->
<!-- Title: AnalyticalFunctions.hpp Pages: 1 -->
<svg width="2140pt" height="319pt"
 viewBox="0.00 0.00 2139.80 319.00" xmlns="http://www.w3.org/2000/svg" xmlns:xlink="http://www.w3.org/1999/xlink">
<g id="graph0" class="graph" transform="scale(1 1) rotate(0) translate(4 315)">
<title>AnalyticalFunctions.hpp</title>
<!-- Node1 -->
<g id="node1" class="node">
<title>Node1</title>
<g id="a_node1"><a xlink:title="List of Analytical functions used by phase&#45;field models.">
<polygon fill="#bfbfbf" stroke="black" points="69.5,-291.5 69.5,-310.5 209.5,-310.5 209.5,-291.5 69.5,-291.5"/>
<text text-anchor="middle" x="139.5" y="-298.5" font-family="serif" font-size="10.00">AnalyticalFunctions.hpp</text>
</a>
</g>
</g>
<!-- Node2 -->
<g id="node2" class="node">
<title>Node2</title>
<g id="a_node2"><a xlink:title=" ">
<polygon fill="none" stroke="#bfbfbf" points="0,-235.5 0,-254.5 35,-254.5 35,-235.5 0,-235.5"/>
<text text-anchor="middle" x="17.5" y="-242.5" font-family="serif" font-size="10.00">any</text>
</a>
</g>
</g>
<!-- Node1&#45;&gt;Node2 -->
<g id="edge1" class="edge">
<title>Node1&#45;&gt;Node2</title>
<path fill="none" stroke="midnightblue" d="M120.17,-291.44C99.71,-282.39 67.27,-268.03 44.34,-257.88"/>
<polygon fill="midnightblue" stroke="midnightblue" points="45.72,-254.66 35.16,-253.82 42.88,-261.06 45.72,-254.66"/>
</g>
<!-- Node3 -->
<g id="node3" class="node">
<title>Node3</title>
<g id="a_node3"><a xlink:title=" ">
<polygon fill="none" stroke="#bfbfbf" points="930.5,-0.5 930.5,-19.5 998.5,-19.5 998.5,-0.5 930.5,-0.5"/>
<text text-anchor="middle" x="964.5" y="-7.5" font-family="serif" font-size="10.00">functional</text>
</a>
</g>
</g>
<!-- Node1&#45;&gt;Node3 -->
<g id="edge2" class="edge">
<title>Node1&#45;&gt;Node3</title>
<path fill="none" stroke="midnightblue" d="M135.1,-291.38C124.29,-268.91 99.19,-207.51 125.5,-168 161.28,-114.27 196.58,-126.41 259.5,-112 403.11,-79.12 793.67,-149.25 921.5,-76 939.43,-65.72 951.27,-44.57 957.91,-29.18"/>
<polygon fill="midnightblue" stroke="midnightblue" points="961.26,-30.23 961.68,-19.65 954.75,-27.66 961.26,-30.23"/>
</g>
<!-- Node4 -->
<g id="node4" class="node">
<title>Node4</title>
<g id="a_node4"><a xlink:title=" ">
<polygon fill="none" stroke="#bfbfbf" points="453,-0.5 453,-19.5 500,-19.5 500,-0.5 453,-0.5"/>
<text text-anchor="middle" x="476.5" y="-7.5" font-family="serif" font-size="10.00">string</text>
</a>
</g>
</g>
<!-- Node1&#45;&gt;Node4 -->
<g id="edge3" class="edge">
<title>Node1&#45;&gt;Node4</title>
<path fill="none" stroke="midnightblue" d="M125.75,-291.21C114.07,-283.09 97.64,-270.05 87.5,-255 69.01,-227.55 63.5,-217.6 63.5,-184.5 63.5,-184.5 63.5,-184.5 63.5,-121 63.5,-42.7 344.22,-18.74 442.79,-12.74"/>
<polygon fill="midnightblue" stroke="midnightblue" points="443.03,-16.23 452.81,-12.15 442.62,-9.24 443.03,-16.23"/>
</g>
<!-- Node5 -->
<g id="node5" class="node">
<title>Node5</title>
<g id="a_node5"><a xlink:title=" ">
<polygon fill="none" stroke="#bfbfbf" points="1228.5,-0.5 1228.5,-19.5 1274.5,-19.5 1274.5,-0.5 1228.5,-0.5"/>
<text text-anchor="middle" x="1251.5" y="-7.5" font-family="serif" font-size="10.00">utility</text>
</a>
</g>
</g>
<!-- Node1&#45;&gt;Node5 -->
<g id="edge4" class="edge">
<title>Node1&#45;&gt;Node5</title>
<path fill="none" stroke="midnightblue" d="M137.58,-291.32C132.89,-267.61 123.66,-201.24 158.5,-168 235.63,-94.41 1011.2,-105.97 1113.5,-76 1132.19,-70.52 1134.96,-64.48 1152.5,-56 1175.91,-44.68 1202.79,-32.52 1222.62,-23.69"/>
<polygon fill="midnightblue" stroke="midnightblue" points="1224.3,-26.78 1232.02,-19.53 1221.46,-20.38 1224.3,-26.78"/>
</g>
<!-- Node6 -->
<g id="node6" class="node">
<title>Node6</title>
<g id="a_node6"><a xlink:title=" ">
<polygon fill="none" stroke="#bfbfbf" points="1518.5,-0.5 1518.5,-19.5 1566.5,-19.5 1566.5,-0.5 1518.5,-0.5"/>
<text text-anchor="middle" x="1542.5" y="-7.5" font-family="serif" font-size="10.00">vector</text>
</a>
</g>
</g>
<!-- Node1&#45;&gt;Node6 -->
<g id="edge5" class="edge">
<title>Node1&#45;&gt;Node6</title>
<path fill="none" stroke="midnightblue" d="M209.52,-299.03C545.75,-294.01 1981.04,-268.56 2043.5,-199 2115.97,-118.29 2315.52,-251.54 1688.5,-56 1650.11,-44.03 1605.98,-30.45 1576.37,-21.37"/>
<polygon fill="midnightblue" stroke="midnightblue" points="1577.13,-17.94 1566.54,-18.36 1575.08,-24.63 1577.13,-17.94"/>
</g>
<!-- Node7 -->
<g id="node7" class="node">
<title>Node7</title>
<g id="a_node7"><a xlink:href="Options_8hpp.html" target="_top" xlink:title="List of all Options files.">
<polygon fill="none" stroke="black" points="987.5,-235.5 987.5,-254.5 1109.5,-254.5 1109.5,-235.5 987.5,-235.5"/>
<text text-anchor="middle" x="1048.5" y="-242.5" font-family="serif" font-size="10.00">Options/Options.hpp</text>
</a>
</g>
</g>
<!-- Node1&#45;&gt;Node7 -->
<g id="edge6" class="edge">
<title>Node1&#45;&gt;Node7</title>
<path fill="none" stroke="midnightblue" d="M209.69,-295.83C378.75,-285.79 807.05,-260.34 977.21,-250.23"/>
<polygon fill="midnightblue" stroke="midnightblue" points="977.54,-253.72 987.32,-249.63 977.13,-246.73 977.54,-253.72"/>
</g>
<!-- Node9 -->
<g id="node9" class="node">
<title>Node9</title>
<g id="a_node9"><a xlink:href="Utils_8hpp.html" target="_top" xlink:title="List of all Utils files.">
<polygon fill="none" stroke="black" points="1064,-112.5 1064,-131.5 1153,-131.5 1153,-112.5 1064,-112.5"/>
<text text-anchor="middle" x="1108.5" y="-119.5" font-family="serif" font-size="10.00">Utils/Utils.hpp</text>
</a>
</g>
</g>
<!-- Node1&#45;&gt;Node9 -->
<g id="edge81" class="edge">
<title>Node1&#45;&gt;Node9</title>
<path fill="none" stroke="midnightblue" d="M209.65,-298.47C520.99,-291.33 1764.99,-259.11 1820.5,-199 1829.85,-188.88 1829.97,-178.01 1820.5,-168 1770.55,-115.22 1239.78,-139.49 1167.5,-132 1166.2,-131.86 1164.88,-131.72 1163.55,-131.57"/>
<polygon fill="midnightblue" stroke="midnightblue" points="1163.58,-128.05 1153.22,-130.28 1162.71,-134.99 1163.58,-128.05"/>
</g>
<!-- Node8 -->
<g id="node8" class="node">
<title>Node8</title>
<g id="a_node8"><a xlink:href="AnalyticalFunctionOptions_8hpp.html" target="_top" xlink:title="Options for Analytical functions.">
<polygon fill="none" stroke="black" points="334,-168.5 334,-198.5 489,-198.5 489,-168.5 334,-168.5"/>
<text text-anchor="start" x="342" y="-186.5" font-family="serif" font-size="10.00">Options/AnalyticalFunction</text>
<text text-anchor="middle" x="411.5" y="-175.5" font-family="serif" font-size="10.00">Options.hpp</text>
</a>
</g>
</g>
<!-- Node7&#45;&gt;Node8 -->
<g id="edge7" class="edge">
<title>Node7&#45;&gt;Node8</title>
<path fill="none" stroke="midnightblue" d="M987.17,-240.71C887.09,-234.96 682.22,-221.62 499.34,-199.17"/>
<polygon fill="midnightblue" stroke="midnightblue" points="499.63,-195.68 489.27,-197.92 498.77,-202.62 499.63,-195.68"/>
</g>
<!-- Node7&#45;&gt;Node9 -->
<g id="edge80" class="edge">
<title>Node7&#45;&gt;Node9</title>
<path fill="none" stroke="midnightblue" d="M1109.8,-240.48C1205.31,-234.37 1380.7,-220.36 1399.5,-199 1408.6,-188.66 1408.47,-178.46 1399.5,-168 1399.02,-167.44 1247.3,-144.19 1163.15,-131.34"/>
<polygon fill="midnightblue" stroke="midnightblue" points="1163.65,-127.87 1153.24,-129.82 1162.6,-134.79 1163.65,-127.87"/>
</g>
<!-- Node30 -->
<g id="node30" class="node">
<title>Node30</title>
<g id="a_node30"><a xlink:href="CalphadOptions_8hpp.html" target="_top" xlink:title="Options for Calphad problems.">
<polygon fill="none" stroke="black" points="1869,-174 1869,-193 2034,-193 2034,-174 1869,-174"/>
<text text-anchor="middle" x="1951.5" y="-181" font-family="serif" font-size="10.00">Options/CalphadOptions.hpp</text>
</a>
</g>
</g>
<!-- Node7&#45;&gt;Node30 -->
<g id="edge55" class="edge">
<title>Node7&#45;&gt;Node30</title>
<path fill="none" stroke="midnightblue" d="M1109.62,-241.52C1240.26,-235.98 1556.29,-221.31 1820.5,-199 1836.74,-197.63 1854.08,-195.9 1870.66,-194.11"/>
<polygon fill="midnightblue" stroke="midnightblue" points="1871.3,-197.57 1880.86,-193 1870.54,-190.61 1871.3,-197.57"/>
</g>
<!-- Node31 -->
<g id="node31" class="node">
<title>Node31</title>
<g id="a_node31"><a xlink:href="DiffusionOptions_8hpp.html" target="_top" xlink:title="Option for Mass Diffusion problems.">
<polygon fill="none" stroke="black" points="1446.5,-174 1446.5,-193 1614.5,-193 1614.5,-174 1446.5,-174"/>
<text text-anchor="middle" x="1530.5" y="-181" font-family="serif" font-size="10.00">Options/DiffusionOptions.hpp</text>
</a>
</g>
</g>
<!-- Node7&#45;&gt;Node31 -->
<g id="edge60" class="edge">
<title>Node7&#45;&gt;Node31</title>
<path fill="none" stroke="midnightblue" d="M1109.76,-237.4C1185.61,-229.09 1318.72,-214.08 1432.5,-199 1442.9,-197.62 1453.91,-196.08 1464.65,-194.52"/>
<polygon fill="midnightblue" stroke="midnightblue" points="1465.44,-197.94 1474.83,-193.04 1464.43,-191.02 1465.44,-197.94"/>
</g>
<!-- Node32 -->
<g id="node32" class="node">
<title>Node32</title>
<g id="a_node32"><a xlink:href="PhaseFieldOptions_8hpp.html" target="_top" xlink:title="Options for PhaseField problems.">
<polygon fill="none" stroke="black" points="1633,-174 1633,-193 1812,-193 1812,-174 1633,-174"/>
<text text-anchor="middle" x="1722.5" y="-181" font-family="serif" font-size="10.00">Options/PhaseFieldOptions.hpp</text>
</a>
</g>
</g>
<!-- Node7&#45;&gt;Node32 -->
<g id="edge62" class="edge">
<title>Node7&#45;&gt;Node32</title>
<path fill="none" stroke="midnightblue" d="M1109.9,-240.56C1215.2,-234.35 1436.92,-219.94 1623.5,-199 1634.92,-197.72 1647.04,-196.13 1658.74,-194.48"/>
<polygon fill="midnightblue" stroke="midnightblue" points="1659.49,-197.91 1668.89,-193.02 1658.5,-190.98 1659.49,-197.91"/>
</g>
<!-- Node33 -->
<g id="node33" class="node">
<title>Node33</title>
<g id="a_node33"><a xlink:href="PhysicalConvergenceOptions_8hpp.html" target="_top" xlink:title="Options for PhysicalConvergence objects.">
<polygon fill="none" stroke="black" points="507,-168.5 507,-198.5 676,-198.5 676,-168.5 507,-168.5"/>
<text text-anchor="start" x="515" y="-186.5" font-family="serif" font-size="10.00">Options/PhysicalConvergence</text>
<text text-anchor="middle" x="591.5" y="-175.5" font-family="serif" font-size="10.00">Options.hpp</text>
</a>
</g>
</g>
<!-- Node7&#45;&gt;Node33 -->
<g id="edge64" class="edge">
<title>Node7&#45;&gt;Node33</title>
<path fill="none" stroke="midnightblue" d="M987.41,-236.99C917.33,-228.82 798.69,-214.6 686.2,-199.07"/>
<polygon fill="midnightblue" stroke="midnightblue" points="686.42,-195.57 676.03,-197.66 685.46,-202.5 686.42,-195.57"/>
</g>
<!-- Node34 -->
<g id="node34" class="node">
<title>Node34</title>
<g id="a_node34"><a xlink:href="PhysicalPropertiesOptions_8hpp.html" target="_top" xlink:title="Options for physical properties.">
<polygon fill="none" stroke="black" points="1058.5,-168.5 1058.5,-198.5 1212.5,-198.5 1212.5,-168.5 1058.5,-168.5"/>
<text text-anchor="start" x="1066.5" y="-186.5" font-family="serif" font-size="10.00">Options/PhysicalProperties</text>
<text text-anchor="middle" x="1135.5" y="-175.5" font-family="serif" font-size="10.00">Options.hpp</text>
</a>
</g>
</g>
<!-- Node7&#45;&gt;Node34 -->
<g id="edge67" class="edge">
<title>Node7&#45;&gt;Node34</title>
<path fill="none" stroke="midnightblue" d="M1060.96,-235.48C1072.86,-227.34 1091.21,-214.79 1106.73,-204.18"/>
<polygon fill="midnightblue" stroke="midnightblue" points="1108.72,-207.06 1115,-198.52 1104.77,-201.28 1108.72,-207.06"/>
</g>
<!-- Node35 -->
<g id="node35" class="node">
<title>Node35</title>
<g id="a_node35"><a xlink:href="ProblemsOptions_8hpp.html" target="_top" xlink:title="Options for Problem objects.">
<polygon fill="none" stroke="black" points="694.5,-174 694.5,-193 864.5,-193 864.5,-174 694.5,-174"/>
<text text-anchor="middle" x="779.5" y="-181" font-family="serif" font-size="10.00">Options/ProblemsOptions.hpp</text>
</a>
</g>
</g>
<!-- Node7&#45;&gt;Node35 -->
<g id="edge69" class="edge">
<title>Node7&#45;&gt;Node35</title>
<path fill="none" stroke="midnightblue" d="M1009.96,-235.48C962.02,-224.87 880.14,-206.76 827.99,-195.22"/>
<polygon fill="midnightblue" stroke="midnightblue" points="828.49,-191.75 817.97,-193.01 826.98,-198.59 828.49,-191.75"/>
</g>
<!-- Node36 -->
<g id="node36" class="node">
<title>Node36</title>
<g id="a_node36"><a xlink:href="SolversOptions_8hpp.html" target="_top" xlink:title="Options for solvers and preconditioners.">
<polygon fill="none" stroke="black" points="1230.5,-174 1230.5,-193 1390.5,-193 1390.5,-174 1230.5,-174"/>
<text text-anchor="middle" x="1310.5" y="-181" font-family="serif" font-size="10.00">Options/SolversOptions.hpp</text>
</a>
</g>
</g>
<!-- Node7&#45;&gt;Node36 -->
<g id="edge72" class="edge">
<title>Node7&#45;&gt;Node36</title>
<path fill="none" stroke="midnightblue" d="M1086.04,-235.48C1132.73,-224.87 1212.48,-206.76 1263.28,-195.22"/>
<polygon fill="midnightblue" stroke="midnightblue" points="1264.05,-198.64 1273.03,-193.01 1262.5,-191.81 1264.05,-198.64"/>
</g>
<!-- Node37 -->
<g id="node37" class="node">
<title>Node37</title>
<g id="a_node37"><a xlink:href="SpatialOptions_8hpp.html" target="_top" xlink:title="Options for Spatial discretization.">
<polygon fill="none" stroke="black" points="882.5,-174 882.5,-193 1040.5,-193 1040.5,-174 882.5,-174"/>
<text text-anchor="middle" x="961.5" y="-181" font-family="serif" font-size="10.00">Options/SpatialOptions.hpp</text>
</a>
</g>
</g>
<!-- Node7&#45;&gt;Node37 -->
<g id="edge74" class="edge">
<title>Node7&#45;&gt;Node37</title>
<path fill="none" stroke="midnightblue" d="M1036.04,-235.48C1022.08,-225.93 999.24,-210.31 982.51,-198.87"/>
<polygon fill="midnightblue" stroke="midnightblue" points="984.17,-195.77 973.94,-193.01 980.22,-201.54 984.17,-195.77"/>
</g>
<!-- Node38 -->
<g id="node38" class="node">
<title>Node38</title>
<g id="a_node38"><a xlink:href="TimeOptions_8hpp.html" target="_top" xlink:title="Options for Time discretization.">
<polygon fill="none" stroke="black" points="167.5,-174 167.5,-193 315.5,-193 315.5,-174 167.5,-174"/>
<text text-anchor="middle" x="241.5" y="-181" font-family="serif" font-size="10.00">Options/TimeOptions.hpp</text>
</a>
</g>
</g>
<!-- Node7&#45;&gt;Node38 -->
<g id="edge77" class="edge">
<title>Node7&#45;&gt;Node38</title>
<path fill="none" stroke="midnightblue" d="M987.27,-242.48C862.3,-238.89 569.01,-227.87 324.5,-199 314.9,-197.87 304.73,-196.35 294.93,-194.73"/>
<polygon fill="midnightblue" stroke="midnightblue" points="295.32,-191.25 284.87,-193.01 294.14,-198.15 295.32,-191.25"/>
</g>
<!-- Node8&#45;&gt;Node4 -->
<g id="edge8" class="edge">
<title>Node8&#45;&gt;Node4</title>
<path fill="none" stroke="midnightblue" d="M416.82,-168.47C428.53,-137.57 456.53,-63.69 469.58,-29.25"/>
<polygon fill="midnightblue" stroke="midnightblue" points="472.98,-30.15 473.26,-19.56 466.44,-27.67 472.98,-30.15"/>
</g>
<!-- Node8&#45;&gt;Node9 -->
<g id="edge9" class="edge">
<title>Node8&#45;&gt;Node9</title>
<path fill="none" stroke="midnightblue" d="M489.27,-169.05C492.04,-168.68 494.79,-168.33 497.5,-168 701.88,-143.3 946.49,-130.23 1053.65,-125.32"/>
<polygon fill="midnightblue" stroke="midnightblue" points="1054.07,-128.8 1063.9,-124.85 1053.75,-121.81 1054.07,-128.8"/>
</g>
<!-- Node10 -->
<g id="node10" class="node">
<title>Node10</title>
<g id="a_node10"><a xlink:href="UtilsForData_8hpp.html" target="_top" xlink:title="Usefull methods for data.">
<polygon fill="none" stroke="black" points="974,-56.5 974,-75.5 1105,-75.5 1105,-56.5 974,-56.5"/>
<text text-anchor="middle" x="1039.5" y="-63.5" font-family="serif" font-size="10.00">Utils/UtilsForData.hpp</text>
</a>
</g>
</g>
<!-- Node9&#45;&gt;Node10 -->
<g id="edge10" class="edge">
<title>Node9&#45;&gt;Node10</title>
<path fill="none" stroke="midnightblue" d="M1097.41,-112.32C1087.01,-104.18 1071.24,-91.84 1058.78,-82.09"/>
<polygon fill="midnightblue" stroke="midnightblue" points="1060.82,-79.24 1050.79,-75.83 1056.51,-84.75 1060.82,-79.24"/>
</g>
<!-- Node20 -->
<g id="node20" class="node">
<title>Node20</title>
<g id="a_node20"><a xlink:href="UtilsForDebug_8hpp.html" target="_top" xlink:title="Usefull methods for debug.">
<polygon fill="none" stroke="black" points="772,-56.5 772,-75.5 913,-75.5 913,-56.5 772,-56.5"/>
<text text-anchor="middle" x="842.5" y="-63.5" font-family="serif" font-size="10.00">Utils/UtilsForDebug.hpp</text>
</a>
</g>
</g>
<!-- Node9&#45;&gt;Node20 -->
<g id="edge24" class="edge">
<title>Node9&#45;&gt;Node20</title>
<path fill="none" stroke="midnightblue" d="M1066.35,-112.44C1019.75,-102.98 944.66,-87.74 894.45,-77.55"/>
<polygon fill="midnightblue" stroke="midnightblue" points="894.95,-74.08 884.45,-75.52 893.56,-80.94 894.95,-74.08"/>
</g>
<!-- Node23 -->
<g id="node23" class="node">
<title>Node23</title>
<g id="a_node23"><a xlink:href="UtilsForOptions_8hpp.html" target="_top" xlink:title="Usefull methods for Options.">
<polygon fill="none" stroke="black" points="1363.5,-56.5 1363.5,-75.5 1509.5,-75.5 1509.5,-56.5 1363.5,-56.5"/>
<text text-anchor="middle" x="1436.5" y="-63.5" font-family="serif" font-size="10.00">Utils/UtilsForOptions.hpp</text>
</a>
</g>
</g>
<!-- Node9&#45;&gt;Node23 -->
<g id="edge34" class="edge">
<title>Node9&#45;&gt;Node23</title>
<path fill="none" stroke="midnightblue" d="M1153.08,-113.66C1210.35,-104.23 1310.08,-87.81 1374.67,-77.18"/>
<polygon fill="midnightblue" stroke="midnightblue" points="1375.42,-80.6 1384.72,-75.52 1374.29,-73.7 1375.42,-80.6"/>
</g>
<!-- Node26 -->
<g id="node26" class="node">
<title>Node26</title>
<g id="a_node26"><a xlink:href="UtilsForPostProcessing_8hpp.html" target="_top" xlink:title="Usefull methods for post&#45;processing.">
<polygon fill="none" stroke="black" points="1162,-56.5 1162,-75.5 1345,-75.5 1345,-56.5 1162,-56.5"/>
<text text-anchor="middle" x="1253.5" y="-63.5" font-family="serif" font-size="10.00">Utils/UtilsForPostProcessing.hpp</text>
</a>
</g>
</g>
<!-- Node9&#45;&gt;Node26 -->
<g id="edge44" class="edge">
<title>Node9&#45;&gt;Node26</title>
<path fill="none" stroke="midnightblue" d="M1131.48,-112.44C1155.66,-103.44 1193.92,-89.19 1221.15,-79.05"/>
<polygon fill="midnightblue" stroke="midnightblue" points="1222.48,-82.29 1230.63,-75.52 1220.04,-75.73 1222.48,-82.29"/>
</g>
<!-- Node27 -->
<g id="node27" class="node">
<title>Node27</title>
<g id="a_node27"><a xlink:href="UtilsForVariants_8hpp.html" target="_top" xlink:title="manage std::Variants">
<polygon fill="none" stroke="black" points="1979.5,-56.5 1979.5,-75.5 2127.5,-75.5 2127.5,-56.5 1979.5,-56.5"/>
<text text-anchor="middle" x="2053.5" y="-63.5" font-family="serif" font-size="10.00">Utils/UtilsForVariants.hpp</text>
</a>
</g>
</g>
<!-- Node9&#45;&gt;Node27 -->
<g id="edge51" class="edge">
<title>Node9&#45;&gt;Node27</title>
<path fill="none" stroke="midnightblue" d="M1153.13,-118.45C1300.76,-110.01 1774.97,-82.92 1969.27,-71.81"/>
<polygon fill="midnightblue" stroke="midnightblue" points="1969.64,-75.3 1979.42,-71.23 1969.24,-68.31 1969.64,-75.3"/>
</g>
<!-- Node10&#45;&gt;Node3 -->
<g id="edge16" class="edge">
<title>Node10&#45;&gt;Node3</title>
<path fill="none" stroke="midnightblue" d="M1027.45,-56.32C1016.04,-48.11 998.67,-35.6 985.07,-25.81"/>
<polygon fill="midnightblue" stroke="midnightblue" points="986.93,-22.84 976.77,-19.83 982.84,-28.52 986.93,-22.84"/>
</g>
<!-- Node10&#45;&gt;Node4 -->
<g id="edge19" class="edge">
<title>Node10&#45;&gt;Node4</title>
<path fill="none" stroke="midnightblue" d="M973.94,-59.75C846.48,-49.51 572.95,-27.31 510.4,-19.49"/>
<polygon fill="midnightblue" stroke="midnightblue" points="510.57,-15.98 500.18,-18.01 509.57,-22.91 510.57,-15.98"/>
</g>
<!-- Node10&#45;&gt;Node5 -->
<g id="edge21" class="edge">
<title>Node10&#45;&gt;Node5</title>
<path fill="none" stroke="midnightblue" d="M1074.2,-56.49C1110.3,-47.59 1168.44,-33.12 1218.5,-20 1218.6,-19.97 1218.7,-19.95 1218.8,-19.92"/>
<polygon fill="midnightblue" stroke="midnightblue" points="1219.68,-23.31 1228.44,-17.35 1217.87,-16.55 1219.68,-23.31"/>
</g>
<!-- Node10&#45;&gt;Node6 -->
<g id="edge22" class="edge">
<title>Node10&#45;&gt;Node6</title>
<path fill="none" stroke="midnightblue" d="M1105.07,-59.31C1224.73,-48.83 1469.8,-26.93 1508.5,-20 1508.6,-19.98 1508.7,-19.96 1508.8,-19.95"/>
<polygon fill="midnightblue" stroke="midnightblue" points="1509.41,-23.39 1518.46,-17.88 1507.95,-16.55 1509.41,-23.39"/>
</g>
<!-- Node11 -->
<g id="node11" class="node">
<title>Node11</title>
<g id="a_node11"><a xlink:title=" ">
<polygon fill="none" stroke="#bfbfbf" points="701,-0.5 701,-19.5 760,-19.5 760,-0.5 701,-0.5"/>
<text text-anchor="middle" x="730.5" y="-7.5" font-family="serif" font-size="10.00">unistd.h</text>
</a>
</g>
</g>
<!-- Node10&#45;&gt;Node11 -->
<g id="edge11" class="edge">
<title>Node10&#45;&gt;Node11</title>
<path fill="none" stroke="midnightblue" d="M981.14,-56.48C928.37,-48.52 848.34,-35.77 770.32,-20.27"/>
<polygon fill="midnightblue" stroke="midnightblue" points="770.82,-16.8 760.33,-18.27 769.45,-23.66 770.82,-16.8"/>
</g>
<!-- Node12 -->
<g id="node12" class="node">
<title>Node12</title>
<g id="a_node12"><a xlink:title=" ">
<polygon fill="none" stroke="#bfbfbf" points="1016.5,-0.5 1016.5,-19.5 1066.5,-19.5 1066.5,-0.5 1016.5,-0.5"/>
<text text-anchor="middle" x="1041.5" y="-7.5" font-family="serif" font-size="10.00">cctype</text>
</a>
</g>
</g>
<!-- Node10&#45;&gt;Node12 -->
<g id="edge12" class="edge">
<title>Node10&#45;&gt;Node12</title>
<path fill="none" stroke="midnightblue" d="M1039.83,-56.08C1040.09,-49.01 1040.47,-38.86 1040.8,-29.99"/>
<polygon fill="midnightblue" stroke="midnightblue" points="1044.3,-29.87 1041.18,-19.75 1037.31,-29.61 1044.3,-29.87"/>
</g>
<!-- Node13 -->
<g id="node13" class="node">
<title>Node13</title>
<g id="a_node13"><a xlink:title=" ">
<polygon fill="none" stroke="#bfbfbf" points="865,-0.5 865,-19.5 912,-19.5 912,-0.5 865,-0.5"/>
<text text-anchor="middle" x="888.5" y="-7.5" font-family="serif" font-size="10.00">cstdio</text>
</a>
</g>
</g>
<!-- Node10&#45;&gt;Node13 -->
<g id="edge13" class="edge">
<title>Node10&#45;&gt;Node13</title>
<path fill="none" stroke="midnightblue" d="M1015.57,-56.44C990.28,-47.4 950.2,-33.06 921.82,-22.92"/>
<polygon fill="midnightblue" stroke="midnightblue" points="922.91,-19.59 912.31,-19.52 920.55,-26.18 922.91,-19.59"/>
</g>
<!-- Node14 -->
<g id="node14" class="node">
<title>Node14</title>
<g id="a_node14"><a xlink:title=" ">
<polygon fill="none" stroke="#bfbfbf" points="1372.5,-0.5 1372.5,-19.5 1438.5,-19.5 1438.5,-0.5 1372.5,-0.5"/>
<text text-anchor="middle" x="1405.5" y="-7.5" font-family="serif" font-size="10.00">algorithm</text>
</a>
</g>
</g>
<!-- Node10&#45;&gt;Node14 -->
<g id="edge14" class="edge">
<title>Node10&#45;&gt;Node14</title>
<path fill="none" stroke="midnightblue" d="M1105.28,-57.16C1168.46,-49.34 1266.81,-36.37 1362.1,-19.96"/>
<polygon fill="midnightblue" stroke="midnightblue" points="1362.95,-23.36 1372.21,-18.2 1361.76,-16.46 1362.95,-23.36"/>
</g>
<!-- Node15 -->
<g id="node15" class="node">
<title>Node15</title>
<g id="a_node15"><a xlink:title=" ">
<polygon fill="none" stroke="#bfbfbf" points="1084.5,-0.5 1084.5,-19.5 1152.5,-19.5 1152.5,-0.5 1084.5,-0.5"/>
<text text-anchor="middle" x="1118.5" y="-7.5" font-family="serif" font-size="10.00">filesystem</text>
</a>
</g>
</g>
<!-- Node10&#45;&gt;Node15 -->
<g id="edge15" class="edge">
<title>Node10&#45;&gt;Node15</title>
<path fill="none" stroke="midnightblue" d="M1052.19,-56.32C1064.4,-47.98 1083.08,-35.21 1097.5,-25.35"/>
<polygon fill="midnightblue" stroke="midnightblue" points="1099.56,-28.19 1105.84,-19.65 1095.61,-22.41 1099.56,-28.19"/>
</g>
<!-- Node16 -->
<g id="node16" class="node">
<title>Node16</title>
<g id="a_node16"><a xlink:title=" ">
<polygon fill="none" stroke="#bfbfbf" points="1293,-0.5 1293,-19.5 1354,-19.5 1354,-0.5 1293,-0.5"/>
<text text-anchor="middle" x="1323.5" y="-7.5" font-family="serif" font-size="10.00">iostream</text>
</a>
</g>
</g>
<!-- Node10&#45;&gt;Node16 -->
<g id="edge17" class="edge">
<title>Node10&#45;&gt;Node16</title>
<path fill="none" stroke="midnightblue" d="M1089.15,-56.43C1136.4,-48.14 1209.76,-34.93 1283.08,-20.02"/>
<polygon fill="midnightblue" stroke="midnightblue" points="1283.85,-23.43 1292.95,-18 1282.45,-16.58 1283.85,-23.43"/>
</g>
<!-- Node17 -->
<g id="node17" class="node">
<title>Node17</title>
<g id="a_node17"><a xlink:title=" ">
<polygon fill="none" stroke="#bfbfbf" points="1171,-0.5 1171,-19.5 1210,-19.5 1210,-0.5 1171,-0.5"/>
<text text-anchor="middle" x="1190.5" y="-7.5" font-family="serif" font-size="10.00">map</text>
</a>
</g>
</g>
<!-- Node10&#45;&gt;Node17 -->
<g id="edge18" class="edge">
<title>Node10&#45;&gt;Node17</title>
<path fill="none" stroke="midnightblue" d="M1063.43,-56.44C1089.91,-46.97 1132.61,-31.7 1161.11,-21.51"/>
<polygon fill="midnightblue" stroke="midnightblue" points="1162.31,-24.8 1170.54,-18.14 1159.95,-18.21 1162.31,-24.8"/>
</g>
<!-- Node18 -->
<g id="node18" class="node">
<title>Node18</title>
<g id="a_node18"><a xlink:title=" ">
<polygon fill="none" stroke="#bfbfbf" points="1457,-0.5 1457,-19.5 1500,-19.5 1500,-0.5 1457,-0.5"/>
<text text-anchor="middle" x="1478.5" y="-7.5" font-family="serif" font-size="10.00">tuple</text>
</a>
</g>
</g>
<!-- Node10&#45;&gt;Node18 -->
<g id="edge20" class="edge">
<title>Node10&#45;&gt;Node18</title>
<path fill="none" stroke="midnightblue" d="M1105.31,-59.14C1199.31,-50.54 1368.39,-34.16 1446.92,-19.71"/>
<polygon fill="midnightblue" stroke="midnightblue" points="1447.78,-23.11 1456.94,-17.78 1446.46,-16.24 1447.78,-23.11"/>
</g>
<!-- Node19 -->
<g id="node19" class="node">
<title>Node19</title>
<g id="a_node19"><a xlink:title=" ">
<polygon fill="none" stroke="#bfbfbf" points="778,-0.5 778,-19.5 847,-19.5 847,-0.5 778,-0.5"/>
<text text-anchor="middle" x="812.5" y="-7.5" font-family="serif" font-size="10.00">mfem.hpp</text>
</a>
</g>
</g>
<!-- Node10&#45;&gt;Node19 -->
<g id="edge23" class="edge">
<title>Node10&#45;&gt;Node19</title>
<path fill="none" stroke="midnightblue" d="M1003.53,-56.44C963.83,-47 899.9,-31.79 857.06,-21.6"/>
<polygon fill="midnightblue" stroke="midnightblue" points="857.72,-18.16 847.18,-19.25 856.1,-24.97 857.72,-18.16"/>
</g>
<!-- Node20&#45;&gt;Node3 -->
<g id="edge29" class="edge">
<title>Node20&#45;&gt;Node3</title>
<path fill="none" stroke="midnightblue" d="M861.83,-56.44C881.82,-47.6 913.24,-33.69 936.06,-23.59"/>
<polygon fill="midnightblue" stroke="midnightblue" points="937.53,-26.76 945.26,-19.52 934.7,-20.36 937.53,-26.76"/>
</g>
<!-- Node20&#45;&gt;Node4 -->
<g id="edge31" class="edge">
<title>Node20&#45;&gt;Node4</title>
<path fill="none" stroke="midnightblue" d="M771.82,-56.56C693.89,-47.07 572.37,-31.68 510.35,-19.88"/>
<polygon fill="midnightblue" stroke="midnightblue" points="510.69,-16.38 500.2,-17.87 509.33,-23.24 510.69,-16.38"/>
</g>
<!-- Node20&#45;&gt;Node5 -->
<g id="edge32" class="edge">
<title>Node20&#45;&gt;Node5</title>
<path fill="none" stroke="midnightblue" d="M913.32,-59.65C987.04,-53.38 1105.94,-41.29 1218.04,-19.79"/>
<polygon fill="midnightblue" stroke="midnightblue" points="1219.02,-23.17 1228.16,-17.82 1217.68,-16.3 1219.02,-23.17"/>
</g>
<!-- Node20&#45;&gt;Node11 -->
<g id="edge26" class="edge">
<title>Node20&#45;&gt;Node11</title>
<path fill="none" stroke="midnightblue" d="M824.51,-56.32C806.46,-47.62 778.45,-34.12 757.7,-24.11"/>
<polygon fill="midnightblue" stroke="midnightblue" points="758.98,-20.84 748.45,-19.65 755.94,-27.15 758.98,-20.84"/>
</g>
<!-- Node20&#45;&gt;Node13 -->
<g id="edge27" class="edge">
<title>Node20&#45;&gt;Node13</title>
<path fill="none" stroke="midnightblue" d="M850.1,-56.08C856.73,-48.3 866.52,-36.8 874.56,-27.37"/>
<polygon fill="midnightblue" stroke="midnightblue" points="877.23,-29.63 881.05,-19.75 871.9,-25.09 877.23,-29.63"/>
</g>
<!-- Node20&#45;&gt;Node16 -->
<g id="edge30" class="edge">
<title>Node20&#45;&gt;Node16</title>
<path fill="none" stroke="midnightblue" d="M913.11,-58.83C1014.8,-49.78 1198.62,-32.74 1282.98,-19.85"/>
<polygon fill="midnightblue" stroke="midnightblue" points="1283.67,-23.28 1293,-18.26 1282.57,-16.37 1283.67,-23.28"/>
</g>
<!-- Node20&#45;&gt;Node19 -->
<g id="edge33" class="edge">
<title>Node20&#45;&gt;Node19</title>
<path fill="none" stroke="midnightblue" d="M837.55,-56.08C833.4,-48.61 827.35,-37.72 822.23,-28.52"/>
<polygon fill="midnightblue" stroke="midnightblue" points="825.28,-26.79 817.36,-19.75 819.16,-30.19 825.28,-26.79"/>
</g>
<!-- Node21 -->
<g id="node21" class="node">
<title>Node21</title>
<g id="a_node21"><a xlink:title=" ">
<polygon fill="none" stroke="#bfbfbf" points="592.5,-0.5 592.5,-19.5 682.5,-19.5 682.5,-0.5 592.5,-0.5"/>
<text text-anchor="middle" x="637.5" y="-7.5" font-family="serif" font-size="10.00">sys/resource.h</text>
</a>
</g>
</g>
<!-- Node20&#45;&gt;Node21 -->
<g id="edge25" class="edge">
<title>Node20&#45;&gt;Node21</title>
<path fill="none" stroke="midnightblue" d="M810.02,-56.44C774.78,-47.16 718.4,-32.31 679.74,-22.13"/>
<polygon fill="midnightblue" stroke="midnightblue" points="680.39,-18.68 669.83,-19.52 678.61,-25.45 680.39,-18.68"/>
</g>
<!-- Node22 -->
<g id="node22" class="node">
<title>Node22</title>
<g id="a_node22"><a xlink:title=" ">
<polygon fill="none" stroke="#bfbfbf" points="518.5,-0.5 518.5,-19.5 574.5,-19.5 574.5,-0.5 518.5,-0.5"/>
<text text-anchor="middle" x="546.5" y="-7.5" font-family="serif" font-size="10.00">fstream</text>
</a>
</g>
</g>
<!-- Node20&#45;&gt;Node22 -->
<g id="edge28" class="edge">
<title>Node20&#45;&gt;Node22</title>
<path fill="none" stroke="midnightblue" d="M787.23,-56.49C736.91,-48.5 660.35,-35.72 584.89,-20.18"/>
<polygon fill="midnightblue" stroke="midnightblue" points="585.24,-16.68 574.74,-18.07 583.82,-23.53 585.24,-16.68"/>
</g>
<!-- Node23&#45;&gt;Node3 -->
<g id="edge36" class="edge">
<title>Node23&#45;&gt;Node3</title>
<path fill="none" stroke="midnightblue" d="M1363.18,-57.03C1359.91,-56.68 1356.67,-56.34 1353.5,-56 1203.06,-40.02 1162,-43.7 1008.95,-20.09"/>
<polygon fill="midnightblue" stroke="midnightblue" points="1009.13,-16.57 998.71,-18.49 1008.05,-23.49 1009.13,-16.57"/>
</g>
<!-- Node23&#45;&gt;Node4 -->
<g id="edge39" class="edge">
<title>Node23&#45;&gt;Node4</title>
<path fill="none" stroke="midnightblue" d="M1363.2,-56.79C1359.93,-56.51 1356.68,-56.24 1353.5,-56 982.4,-28 882.24,-76.88 510.12,-19.68"/>
<polygon fill="midnightblue" stroke="midnightblue" points="510.57,-16.21 500.16,-18.13 509.5,-23.12 510.57,-16.21"/>
</g>
<!-- Node23&#45;&gt;Node5 -->
<g id="edge41" class="edge">
<title>Node23&#45;&gt;Node5</title>
<path fill="none" stroke="midnightblue" d="M1407.19,-56.44C1373.71,-46.67 1319.08,-30.73 1284.24,-20.56"/>
<polygon fill="midnightblue" stroke="midnightblue" points="1285.12,-17.17 1274.54,-17.73 1283.16,-23.89 1285.12,-17.17"/>
</g>
<!-- Node23&#45;&gt;Node6 -->
<g id="edge43" class="edge">
<title>Node23&#45;&gt;Node6</title>
<path fill="none" stroke="midnightblue" d="M1453.53,-56.32C1470.53,-47.66 1496.88,-34.24 1516.49,-24.25"/>
<polygon fill="midnightblue" stroke="midnightblue" points="1518.19,-27.31 1525.51,-19.65 1515.01,-21.08 1518.19,-27.31"/>
</g>
<!-- Node23&#45;&gt;Node14 -->
<g id="edge35" class="edge">
<title>Node23&#45;&gt;Node14</title>
<path fill="none" stroke="midnightblue" d="M1431.38,-56.08C1427.09,-48.61 1420.84,-37.72 1415.56,-28.52"/>
<polygon fill="midnightblue" stroke="midnightblue" points="1418.54,-26.68 1410.52,-19.75 1412.47,-30.17 1418.54,-26.68"/>
</g>
<!-- Node23&#45;&gt;Node16 -->
<g id="edge37" class="edge">
<title>Node23&#45;&gt;Node16</title>
<path fill="none" stroke="midnightblue" d="M1418.59,-56.44C1400.25,-47.68 1371.49,-33.94 1350.41,-23.86"/>
<polygon fill="midnightblue" stroke="midnightblue" points="1351.85,-20.67 1341.32,-19.52 1348.83,-26.99 1351.85,-20.67"/>
</g>
<!-- Node23&#45;&gt;Node18 -->
<g id="edge40" class="edge">
<title>Node23&#45;&gt;Node18</title>
<path fill="none" stroke="midnightblue" d="M1443.44,-56.08C1449.43,-48.38 1458.25,-37.03 1465.55,-27.65"/>
<polygon fill="midnightblue" stroke="midnightblue" points="1468.32,-29.79 1471.69,-19.75 1462.79,-25.5 1468.32,-29.79"/>
</g>
<!-- Node24 -->
<g id="node24" class="node">
<title>Node24</title>
<g id="a_node24"><a xlink:title=" ">
<polygon fill="none" stroke="#bfbfbf" points="1584.5,-0.5 1584.5,-19.5 1628.5,-19.5 1628.5,-0.5 1584.5,-0.5"/>
<text text-anchor="middle" x="1606.5" y="-7.5" font-family="serif" font-size="10.00">limits</text>
</a>
</g>
</g>
<!-- Node23&#45;&gt;Node24 -->
<g id="edge38" class="edge">
<title>Node23&#45;&gt;Node24</title>
<path fill="none" stroke="midnightblue" d="M1463.44,-56.44C1493.6,-46.86 1542.44,-31.35 1574.51,-21.16"/>
<polygon fill="midnightblue" stroke="midnightblue" points="1575.82,-24.42 1584.29,-18.05 1573.7,-17.75 1575.82,-24.42"/>
</g>
<!-- Node25 -->
<g id="node25" class="node">
<title>Node25</title>
<g id="a_node25"><a xlink:title=" ">
<polygon fill="none" stroke="#bfbfbf" points="1771,-0.5 1771,-19.5 1824,-19.5 1824,-0.5 1771,-0.5"/>
<text text-anchor="middle" x="1797.5" y="-7.5" font-family="serif" font-size="10.00">variant</text>
</a>
</g>
</g>
<!-- Node23&#45;&gt;Node25 -->
<g id="edge42" class="edge">
<title>Node23&#45;&gt;Node25</title>
<path fill="none" stroke="midnightblue" d="M1493.7,-56.44C1568.5,-45.25 1697.42,-25.97 1760.52,-16.53"/>
<polygon fill="midnightblue" stroke="midnightblue" points="1761.42,-19.94 1770.79,-15 1760.38,-13.01 1761.42,-19.94"/>
</g>
<!-- Node26&#45;&gt;Node4 -->
<g id="edge48" class="edge">
<title>Node26&#45;&gt;Node4</title>
<path fill="none" stroke="midnightblue" d="M1161.63,-59.03C1145.59,-58.01 1129.06,-56.96 1113.5,-56 848.37,-39.58 776.61,-63.03 510.13,-19.72"/>
<polygon fill="midnightblue" stroke="midnightblue" points="510.6,-16.25 500.16,-18.08 509.46,-23.16 510.6,-16.25"/>
</g>
<!-- Node26&#45;&gt;Node5 -->
<g id="edge49" class="edge">
<title>Node26&#45;&gt;Node5</title>
<path fill="none" stroke="midnightblue" d="M1253.17,-56.08C1252.91,-49.01 1252.53,-38.86 1252.2,-29.99"/>
<polygon fill="midnightblue" stroke="midnightblue" points="1255.69,-29.61 1251.82,-19.75 1248.7,-29.87 1255.69,-29.61"/>
</g>
<!-- Node26&#45;&gt;Node6 -->
<g id="edge50" class="edge">
<title>Node26&#45;&gt;Node6</title>
<path fill="none" stroke="midnightblue" d="M1309.73,-56.47C1361.58,-48.28 1440.56,-34.96 1508.5,-20 1508.6,-19.98 1508.7,-19.96 1508.8,-19.93"/>
<polygon fill="midnightblue" stroke="midnightblue" points="1509.5,-23.37 1518.42,-17.64 1507.88,-16.56 1509.5,-23.37"/>
</g>
<!-- Node26&#45;&gt;Node14 -->
<g id="edge45" class="edge">
<title>Node26&#45;&gt;Node14</title>
<path fill="none" stroke="midnightblue" d="M1277.58,-56.44C1303.04,-47.4 1343.39,-33.06 1371.96,-22.92"/>
<polygon fill="midnightblue" stroke="midnightblue" points="1373.28,-26.16 1381.53,-19.52 1370.93,-19.57 1373.28,-26.16"/>
</g>
<!-- Node26&#45;&gt;Node16 -->
<g id="edge46" class="edge">
<title>Node26&#45;&gt;Node16</title>
<path fill="none" stroke="midnightblue" d="M1264.75,-56.32C1275.3,-48.18 1291.3,-35.84 1303.94,-26.09"/>
<polygon fill="midnightblue" stroke="midnightblue" points="1306.27,-28.71 1312.05,-19.83 1301.99,-23.17 1306.27,-28.71"/>
</g>
<!-- Node26&#45;&gt;Node24 -->
<g id="edge47" class="edge">
<title>Node26&#45;&gt;Node24</title>
<path fill="none" stroke="midnightblue" d="M1338.49,-56.5C1401.33,-49.43 1489.08,-37.92 1574.39,-19.98"/>
<polygon fill="midnightblue" stroke="midnightblue" points="1575.2,-23.39 1584.25,-17.88 1573.74,-16.54 1575.2,-23.39"/>
</g>
<!-- Node27&#45;&gt;Node25 -->
<g id="edge54" class="edge">
<title>Node27&#45;&gt;Node25</title>
<path fill="none" stroke="midnightblue" d="M2012.94,-56.44C1963.68,-46.05 1881.34,-28.68 1833.99,-18.7"/>
<polygon fill="midnightblue" stroke="midnightblue" points="1834.67,-15.26 1824.16,-16.62 1833.23,-22.11 1834.67,-15.26"/>
</g>
<!-- Node28 -->
<g id="node28" class="node">
<title>Node28</title>
<g id="a_node28"><a xlink:title=" ">
<polygon fill="none" stroke="#bfbfbf" points="1983,-0.5 1983,-19.5 2042,-19.5 2042,-0.5 1983,-0.5"/>
<text text-anchor="middle" x="2012.5" y="-7.5" font-family="serif" font-size="10.00">memory</text>
</a>
</g>
</g>
<!-- Node27&#45;&gt;Node28 -->
<g id="edge52" class="edge">
<title>Node27&#45;&gt;Node28</title>
<path fill="none" stroke="midnightblue" d="M2046.73,-56.08C2040.94,-48.46 2032.44,-37.26 2025.36,-27.94"/>
<polygon fill="midnightblue" stroke="midnightblue" points="2027.98,-25.6 2019.14,-19.75 2022.4,-29.83 2027.98,-25.6"/>
</g>
<!-- Node29 -->
<g id="node29" class="node">
<title>Node29</title>
<g id="a_node29"><a xlink:title=" ">
<polygon fill="none" stroke="#bfbfbf" points="2060,-0.5 2060,-19.5 2131,-19.5 2131,-0.5 2060,-0.5"/>
<text text-anchor="middle" x="2095.5" y="-7.5" font-family="serif" font-size="10.00">type_traits</text>
</a>
</g>
</g>
<!-- Node27&#45;&gt;Node29 -->
<g id="edge53" class="edge">
<title>Node27&#45;&gt;Node29</title>
<path fill="none" stroke="midnightblue" d="M2060.44,-56.08C2066.43,-48.38 2075.25,-37.03 2082.55,-27.65"/>
<polygon fill="midnightblue" stroke="midnightblue" points="2085.32,-29.79 2088.69,-19.75 2079.79,-25.5 2085.32,-29.79"/>
</g>
<!-- Node30&#45;&gt;Node4 -->
<g id="edge57" class="edge">
<title>Node30&#45;&gt;Node4</title>
<path fill="none" stroke="midnightblue" d="M1888.8,-173.97C1872.44,-171.88 1854.82,-169.74 1838.5,-168 1778.84,-161.63 821.81,-85.06 762.5,-76 670.01,-61.87 562.95,-34.54 509.88,-20.23"/>
<polygon fill="midnightblue" stroke="midnightblue" points="510.58,-16.8 500.01,-17.55 508.74,-23.55 510.58,-16.8"/>
</g>
<!-- Node30&#45;&gt;Node6 -->
<g id="edge58" class="edge">
<title>Node30&#45;&gt;Node6</title>
<path fill="none" stroke="midnightblue" d="M1931.22,-174C1864.44,-145.99 1651.23,-56.59 1572.28,-23.49"/>
<polygon fill="midnightblue" stroke="midnightblue" points="1573.48,-20.2 1562.9,-19.56 1570.77,-26.65 1573.48,-20.2"/>
</g>
<!-- Node30&#45;&gt;Node9 -->
<g id="edge59" class="edge">
<title>Node30&#45;&gt;Node9</title>
<path fill="none" stroke="midnightblue" d="M1900.77,-173.98C1885.9,-171.73 1869.58,-169.52 1854.5,-168 1550.29,-137.36 1471.67,-163.09 1167.5,-132 1166.2,-131.87 1164.88,-131.72 1163.55,-131.57"/>
<polygon fill="midnightblue" stroke="midnightblue" points="1163.57,-128.05 1153.22,-130.3 1162.71,-135 1163.57,-128.05"/>
</g>
<!-- Node30&#45;&gt;Node24 -->
<g id="edge56" class="edge">
<title>Node30&#45;&gt;Node24</title>
<path fill="none" stroke="midnightblue" d="M1938.83,-173.89C1906.23,-152 1816.38,-93.36 1735.5,-56 1703.56,-41.25 1665.33,-28.49 1638.82,-20.36"/>
<polygon fill="midnightblue" stroke="midnightblue" points="1639.51,-16.91 1628.93,-17.37 1637.49,-23.61 1639.51,-16.91"/>
</g>
<!-- Node31&#45;&gt;Node9 -->
<g id="edge61" class="edge">
<title>Node31&#45;&gt;Node9</title>
<path fill="none" stroke="midnightblue" d="M1473.77,-173.99C1460.25,-171.99 1445.87,-169.9 1432.5,-168 1314.82,-151.3 1285.14,-148.96 1167.5,-132 1166.2,-131.81 1164.89,-131.62 1163.56,-131.43"/>
<polygon fill="midnightblue" stroke="midnightblue" points="1163.67,-127.91 1153.27,-129.91 1162.65,-134.83 1163.67,-127.91"/>
</g>
<!-- Node32&#45;&gt;Node9 -->
<g id="edge63" class="edge">
<title>Node32&#45;&gt;Node9</title>
<path fill="none" stroke="midnightblue" d="M1668.89,-173.98C1654.2,-171.83 1638.26,-169.66 1623.5,-168 1421.48,-145.26 1369.45,-155.34 1167.5,-132 1166.2,-131.85 1164.88,-131.69 1163.55,-131.53"/>
<polygon fill="midnightblue" stroke="midnightblue" points="1163.6,-128 1153.23,-130.17 1162.69,-134.95 1163.6,-128"/>
</g>
<!-- Node33&#45;&gt;Node4 -->
<g id="edge65" class="edge">
<title>Node33&#45;&gt;Node4</title>
<path fill="none" stroke="midnightblue" d="M582.09,-168.47C561.1,-137.17 510.54,-61.76 487.85,-27.93"/>
<polygon fill="midnightblue" stroke="midnightblue" points="490.72,-25.92 482.24,-19.56 484.9,-29.81 490.72,-25.92"/>
</g>
<!-- Node33&#45;&gt;Node9 -->
<g id="edge66" class="edge">
<title>Node33&#45;&gt;Node9</title>
<path fill="none" stroke="midnightblue" d="M676.02,-169.27C679.22,-168.83 682.39,-168.41 685.5,-168 817.26,-150.84 972.76,-135.57 1053.54,-128.01"/>
<polygon fill="midnightblue" stroke="midnightblue" points="1054.33,-131.46 1063.96,-127.04 1053.68,-124.49 1054.33,-131.46"/>
</g>
<!-- Node34&#45;&gt;Node9 -->
<g id="edge68" class="edge">
<title>Node34&#45;&gt;Node9</title>
<path fill="none" stroke="midnightblue" d="M1129.1,-168.4C1125.38,-160.2 1120.65,-149.78 1116.67,-140.99"/>
<polygon fill="midnightblue" stroke="midnightblue" points="1119.75,-139.32 1112.43,-131.66 1113.37,-142.21 1119.75,-139.32"/>
</g>
<!-- Node35&#45;&gt;Node4 -->
<g id="edge70" class="edge">
<title>Node35&#45;&gt;Node4</title>
<path fill="none" stroke="midnightblue" d="M762.19,-173.82C742.67,-163.97 710.07,-147.26 682.5,-132 615.26,-94.78 537.43,-48.05 499.57,-25.07"/>
<polygon fill="midnightblue" stroke="midnightblue" points="501.2,-21.97 490.84,-19.76 497.57,-27.95 501.2,-21.97"/>
</g>
<!-- Node35&#45;&gt;Node9 -->
<g id="edge71" class="edge">
<title>Node35&#45;&gt;Node9</title>
<path fill="none" stroke="midnightblue" d="M826.64,-173.98C886.64,-163.12 990.11,-144.41 1053.61,-132.93"/>
<polygon fill="midnightblue" stroke="midnightblue" points="1054.61,-136.3 1063.82,-131.08 1053.36,-129.42 1054.61,-136.3"/>
</g>
<!-- Node36&#45;&gt;Node9 -->
<g id="edge73" class="edge">
<title>Node36&#45;&gt;Node9</title>
<path fill="none" stroke="midnightblue" d="M1281.56,-173.98C1246.23,-163.57 1186.37,-145.94 1147.14,-134.38"/>
<polygon fill="midnightblue" stroke="midnightblue" points="1147.97,-130.98 1137.39,-131.51 1145.99,-137.69 1147.97,-130.98"/>
</g>
<!-- Node37&#45;&gt;Node4 -->
<g id="edge75" class="edge">
<title>Node37&#45;&gt;Node4</title>
<path fill="none" stroke="midnightblue" d="M937.45,-174C857.68,-145.79 601.67,-55.26 509.75,-22.76"/>
<polygon fill="midnightblue" stroke="midnightblue" points="510.72,-19.39 500.12,-19.35 508.39,-25.99 510.72,-19.39"/>
</g>
<!-- Node37&#45;&gt;Node9 -->
<g id="edge76" class="edge">
<title>Node37&#45;&gt;Node9</title>
<path fill="none" stroke="midnightblue" d="M982.56,-173.98C1007.56,-163.86 1049.44,-146.9 1077.99,-135.35"/>
<polygon fill="midnightblue" stroke="midnightblue" points="1079.52,-138.51 1087.48,-131.51 1076.89,-132.02 1079.52,-138.51"/>
</g>
<!-- Node38&#45;&gt;Node4 -->
<g id="edge78" class="edge">
<title>Node38&#45;&gt;Node4</title>
<path fill="none" stroke="midnightblue" d="M253.15,-174C290.74,-146.57 409.07,-60.21 456.52,-25.58"/>
<polygon fill="midnightblue" stroke="midnightblue" points="458.76,-28.28 464.78,-19.56 454.64,-22.62 458.76,-28.28"/>
</g>
<!-- Node38&#45;&gt;Node9 -->
<g id="edge79" class="edge">
<title>Node38&#45;&gt;Node9</title>
<path fill="none" stroke="midnightblue" d="M284.87,-173.95C297.6,-171.7 311.57,-169.5 324.5,-168 596.85,-136.5 925.1,-126.72 1053.37,-123.98"/>
<polygon fill="midnightblue" stroke="midnightblue" points="1053.78,-127.47 1063.7,-123.76 1053.63,-120.47 1053.78,-127.47"/>
</g>
</g>
</svg>
