<?xml version="1.0" encoding="UTF-8" standalone="no"?>
<!DOCTYPE svg PUBLIC "-//W3C//DTD SVG 1.1//EN"
 "http://www.w3.org/Graphics/SVG/1.1/DTD/svg11.dtd">
<!-- Generated by graphviz version 2.43.0 (0)
 -->
<!-- Title: BoundaryConditions.hpp Pages: 1 -->
<svg width="1146pt" height="364pt"
 viewBox="0.00 0.00 1146.00 364.00" xmlns="http://www.w3.org/2000/svg" xmlns:xlink="http://www.w3.org/1999/xlink">
<g id="graph0" class="graph" transform="scale(1 1) rotate(0) translate(4 360)">
<title>BoundaryConditions.hpp</title>
<!-- Node1 -->
<g id="node1" class="node">
<title>Node1</title>
<g id="a_node1"><a xlink:title="BoundaryConditions class used to build and manage boundary conditions.">
<polygon fill="#bfbfbf" stroke="black" points="366.5,-336.5 366.5,-355.5 511.5,-355.5 511.5,-336.5 366.5,-336.5"/>
<text text-anchor="middle" x="439" y="-343.5" font-family="serif" font-size="10.00">BoundaryConditions.hpp</text>
</a>
</g>
</g>
<!-- Node2 -->
<g id="node2" class="node">
<title>Node2</title>
<g id="a_node2"><a xlink:href="OperatorBase_8hpp.html" target="_top" xlink:title="Base class for building Steady and TimeDependent PhaseFieldOperators.">
<polygon fill="none" stroke="black" points="852,-168.5 852,-187.5 962,-187.5 962,-168.5 852,-168.5"/>
<text text-anchor="middle" x="907" y="-175.5" font-family="serif" font-size="10.00">OperatorBase.hpp</text>
</a>
</g>
</g>
<!-- Node1&#45;&gt;Node2 -->
<g id="edge1" class="edge">
<title>Node1&#45;&gt;Node2</title>
<path fill="none" stroke="midnightblue" d="M488.8,-334.21C557.57,-318.5 684.82,-286.51 788,-244 828.05,-227.5 872,-201.14 893.56,-187.62"/>
<polygon fill="midnightblue" stroke="midnightblue" points="487.66,-330.88 478.68,-336.5 489.21,-337.71 487.66,-330.88"/>
</g>
<!-- Node5 -->
<g id="node5" class="node">
<title>Node5</title>
<g id="a_node5"><a xlink:href="sloth_8hpp.html" target="_top" xlink:title="List of all header files contained in the kernel directory.">
<polygon fill="none" stroke="black" points="484.5,-0.5 484.5,-19.5 549.5,-19.5 549.5,-0.5 484.5,-0.5"/>
<text text-anchor="middle" x="517" y="-7.5" font-family="serif" font-size="10.00">sloth.hpp</text>
</a>
</g>
</g>
<!-- Node1&#45;&gt;Node5 -->
<g id="edge16" class="edge">
<title>Node1&#45;&gt;Node5</title>
<path fill="none" stroke="midnightblue" d="M355.9,-341.05C228.63,-332.69 0,-307.58 0,-235 0,-235 0,-235 0,-121 0,-21.55 370.62,-11.65 484.27,-10.95"/>
<polygon fill="midnightblue" stroke="midnightblue" points="355.81,-344.55 366.02,-341.69 356.26,-337.56 355.81,-344.55"/>
</g>
<!-- Node9 -->
<g id="node9" class="node">
<title>Node9</title>
<g id="a_node9"><a xlink:href="Variable_8hpp.html" target="_top" xlink:title="Variable class used to build and manage variables of model.">
<polygon fill="none" stroke="black" points="398.5,-280.5 398.5,-299.5 479.5,-299.5 479.5,-280.5 398.5,-280.5"/>
<text text-anchor="middle" x="439" y="-287.5" font-family="serif" font-size="10.00">Variable.hpp</text>
</a>
</g>
</g>
<!-- Node1&#45;&gt;Node9 -->
<g id="edge17" class="edge">
<title>Node1&#45;&gt;Node9</title>
<path fill="none" stroke="midnightblue" d="M439,-325.8C439,-316.91 439,-306.78 439,-299.75"/>
<polygon fill="midnightblue" stroke="midnightblue" points="435.5,-326.08 439,-336.08 442.5,-326.08 435.5,-326.08"/>
</g>
<!-- Node3 -->
<g id="node3" class="node">
<title>Node3</title>
<g id="a_node3"><a xlink:href="SteadyOperatorBase_8hpp.html" target="_top" xlink:title="Steady Operator base.">
<polygon fill="none" stroke="black" points="663,-112.5 663,-131.5 809,-131.5 809,-112.5 663,-112.5"/>
<text text-anchor="middle" x="736" y="-119.5" font-family="serif" font-size="10.00">SteadyOperatorBase.hpp</text>
</a>
</g>
</g>
<!-- Node2&#45;&gt;Node3 -->
<g id="edge2" class="edge">
<title>Node2&#45;&gt;Node3</title>
<path fill="none" stroke="midnightblue" d="M869.96,-165.3C837.74,-155.13 791.81,-140.62 762.97,-131.52"/>
<polygon fill="midnightblue" stroke="midnightblue" points="869.31,-168.77 879.9,-168.44 871.42,-162.09 869.31,-168.77"/>
</g>
<!-- Node2&#45;&gt;Node5 -->
<g id="edge15" class="edge">
<title>Node2&#45;&gt;Node5</title>
<path fill="none" stroke="midnightblue" d="M944.86,-165.12C1002.83,-145.11 1102.6,-102.28 1060,-56 1025.36,-18.37 661.78,-12.21 549.7,-11.2"/>
<polygon fill="midnightblue" stroke="midnightblue" points="943.61,-161.85 935.26,-168.36 945.85,-168.48 943.61,-161.85"/>
</g>
<!-- Node8 -->
<g id="node8" class="node">
<title>Node8</title>
<g id="a_node8"><a xlink:href="TransientOperatorBase_8hpp.html" target="_top" xlink:title="Transient Operator base.">
<polygon fill="none" stroke="black" points="827.5,-112.5 827.5,-131.5 986.5,-131.5 986.5,-112.5 827.5,-112.5"/>
<text text-anchor="middle" x="907" y="-119.5" font-family="serif" font-size="10.00">TransientOperatorBase.hpp</text>
</a>
</g>
</g>
<!-- Node2&#45;&gt;Node8 -->
<g id="edge10" class="edge">
<title>Node2&#45;&gt;Node8</title>
<path fill="none" stroke="midnightblue" d="M907,-157.8C907,-148.91 907,-138.78 907,-131.75"/>
<polygon fill="midnightblue" stroke="midnightblue" points="903.5,-158.08 907,-168.08 910.5,-158.08 903.5,-158.08"/>
</g>
<!-- Node4 -->
<g id="node4" class="node">
<title>Node4</title>
<g id="a_node4"><a xlink:href="DiffusionOperator_8hpp.html" target="_top" xlink:title="Diffusion operator (Base, Steady and TimeDependent)">
<polygon fill="none" stroke="black" points="614.5,-56.5 614.5,-75.5 745.5,-75.5 745.5,-56.5 614.5,-56.5"/>
<text text-anchor="middle" x="680" y="-63.5" font-family="serif" font-size="10.00">DiffusionOperator.hpp</text>
</a>
</g>
</g>
<!-- Node3&#45;&gt;Node4 -->
<g id="edge3" class="edge">
<title>Node3&#45;&gt;Node4</title>
<path fill="none" stroke="midnightblue" d="M719.67,-105.25C709.74,-95.67 697.41,-83.79 689.16,-75.83"/>
<polygon fill="midnightblue" stroke="midnightblue" points="717.37,-107.9 727,-112.32 722.23,-102.86 717.37,-107.9"/>
</g>
<!-- Node3&#45;&gt;Node5 -->
<g id="edge9" class="edge">
<title>Node3&#45;&gt;Node5</title>
<path fill="none" stroke="midnightblue" d="M692.91,-109.6C666.94,-101.89 633.65,-90.47 606,-76 574.81,-59.68 542.48,-33.24 526.76,-19.66"/>
<polygon fill="midnightblue" stroke="midnightblue" points="692.25,-113.06 702.83,-112.48 694.2,-106.33 692.25,-113.06"/>
</g>
<!-- Node6 -->
<g id="node6" class="node">
<title>Node6</title>
<g id="a_node6"><a xlink:href="HeatOperator_8hpp.html" target="_top" xlink:title="Heat operator (Base, Steady and TimeDependent)">
<polygon fill="none" stroke="black" points="764,-56.5 764,-75.5 874,-75.5 874,-56.5 764,-56.5"/>
<text text-anchor="middle" x="819" y="-63.5" font-family="serif" font-size="10.00">HeatOperator.hpp</text>
</a>
</g>
</g>
<!-- Node3&#45;&gt;Node6 -->
<g id="edge5" class="edge">
<title>Node3&#45;&gt;Node6</title>
<path fill="none" stroke="midnightblue" d="M758.1,-106.62C773.26,-96.76 792.88,-83.99 805.7,-75.65"/>
<polygon fill="midnightblue" stroke="midnightblue" points="755.81,-103.94 749.34,-112.32 759.63,-109.8 755.81,-103.94"/>
</g>
<!-- Node7 -->
<g id="node7" class="node">
<title>Node7</title>
<g id="a_node7"><a xlink:href="PhaseFieldOperator_8hpp.html" target="_top" xlink:title="AllenCahn operator (Base, Steady and TimeDependent)">
<polygon fill="none" stroke="black" points="892.5,-56.5 892.5,-75.5 1033.5,-75.5 1033.5,-56.5 892.5,-56.5"/>
<text text-anchor="middle" x="963" y="-63.5" font-family="serif" font-size="10.00">PhaseFieldOperator.hpp</text>
</a>
</g>
</g>
<!-- Node3&#45;&gt;Node7 -->
<g id="edge7" class="edge">
<title>Node3&#45;&gt;Node7</title>
<path fill="none" stroke="midnightblue" d="M781.87,-110.09C824.75,-99.89 887.92,-84.86 927.2,-75.52"/>
<polygon fill="midnightblue" stroke="midnightblue" points="780.89,-106.72 771.97,-112.44 782.51,-113.53 780.89,-106.72"/>
</g>
<!-- Node4&#45;&gt;Node5 -->
<g id="edge4" class="edge">
<title>Node4&#45;&gt;Node5</title>
<path fill="none" stroke="midnightblue" d="M644.3,-53.17C613.6,-43 570.08,-28.59 542.71,-19.52"/>
<polygon fill="midnightblue" stroke="midnightblue" points="643.58,-56.62 654.17,-56.44 645.78,-49.98 643.58,-56.62"/>
</g>
<!-- Node6&#45;&gt;Node5 -->
<g id="edge6" class="edge">
<title>Node6&#45;&gt;Node5</title>
<path fill="none" stroke="midnightblue" d="M761,-54.63C698.23,-43.41 600.33,-25.9 549.74,-16.85"/>
<polygon fill="midnightblue" stroke="midnightblue" points="760.69,-58.13 771.15,-56.44 761.92,-51.24 760.69,-58.13"/>
</g>
<!-- Node7&#45;&gt;Node5 -->
<g id="edge8" class="edge">
<title>Node7&#45;&gt;Node5</title>
<path fill="none" stroke="midnightblue" d="M882.34,-55.23C783.08,-43.22 619.18,-23.37 549.73,-14.96"/>
<polygon fill="midnightblue" stroke="midnightblue" points="881.98,-58.72 892.33,-56.44 882.82,-51.77 881.98,-58.72"/>
</g>
<!-- Node8&#45;&gt;Node4 -->
<g id="edge11" class="edge">
<title>Node8&#45;&gt;Node4</title>
<path fill="none" stroke="midnightblue" d="M861.13,-110.09C818.25,-99.89 755.08,-84.86 715.8,-75.52"/>
<polygon fill="midnightblue" stroke="midnightblue" points="860.49,-113.53 871.03,-112.44 862.11,-106.72 860.49,-113.53"/>
</g>
<!-- Node8&#45;&gt;Node5 -->
<g id="edge14" class="edge">
<title>Node8&#45;&gt;Node5</title>
<path fill="none" stroke="midnightblue" d="M977.01,-110.49C1022.31,-100.84 1068.47,-83.75 1043,-56 1009.61,-19.63 659.7,-12.6 549.82,-11.29"/>
<polygon fill="midnightblue" stroke="midnightblue" points="976.19,-107.08 967.08,-112.49 977.57,-113.95 976.19,-107.08"/>
</g>
<!-- Node8&#45;&gt;Node6 -->
<g id="edge12" class="edge">
<title>Node8&#45;&gt;Node6</title>
<path fill="none" stroke="midnightblue" d="M884.02,-106.9C867.89,-97 846.82,-84.07 833.1,-75.65"/>
<polygon fill="midnightblue" stroke="midnightblue" points="882.51,-110.08 892.86,-112.32 886.17,-104.11 882.51,-110.08"/>
</g>
<!-- Node8&#45;&gt;Node7 -->
<g id="edge13" class="edge">
<title>Node8&#45;&gt;Node7</title>
<path fill="none" stroke="midnightblue" d="M923.33,-105.25C933.26,-95.67 945.59,-83.79 953.84,-75.83"/>
<polygon fill="midnightblue" stroke="midnightblue" points="920.77,-102.86 916,-112.32 925.63,-107.9 920.77,-102.86"/>
</g>
<!-- Node9&#45;&gt;Node5 -->
<g id="edge37" class="edge">
<title>Node9&#45;&gt;Node5</title>
<path fill="none" stroke="midnightblue" d="M489.71,-286.37C650.43,-277.37 1138,-244.66 1138,-179 1138,-179 1138,-179 1138,-121 1138,-81.68 1113.35,-73.2 1078,-56 983.98,-10.27 655.13,-9.55 549.75,-10.54"/>
<polygon fill="midnightblue" stroke="midnightblue" points="489.39,-282.88 479.6,-286.93 489.78,-289.87 489.39,-282.88"/>
</g>
<!-- Node10 -->
<g id="node10" class="node">
<title>Node10</title>
<g id="a_node10"><a xlink:href="postprocessing_8hpp.html" target="_top" xlink:title="Post&#45;processing features.">
<polygon fill="none" stroke="black" points="274.5,-224.5 274.5,-243.5 391.5,-243.5 391.5,-224.5 274.5,-224.5"/>
<text text-anchor="middle" x="333" y="-231.5" font-family="serif" font-size="10.00">postprocessing.hpp</text>
</a>
</g>
</g>
<!-- Node9&#45;&gt;Node10 -->
<g id="edge18" class="edge">
<title>Node9&#45;&gt;Node10</title>
<path fill="none" stroke="midnightblue" d="M412.94,-275.73C393.32,-265.73 366.97,-252.31 349.99,-243.65"/>
<polygon fill="midnightblue" stroke="midnightblue" points="411.47,-278.9 421.97,-280.32 414.65,-272.67 411.47,-278.9"/>
</g>
<!-- Node11 -->
<g id="node11" class="node">
<title>Node11</title>
<g id="a_node11"><a xlink:href="MPIProblem_8hpp.html" target="_top" xlink:title="Class used to defined a MPI_Problem objet.">
<polygon fill="none" stroke="black" points="66,-112.5 66,-131.5 170,-131.5 170,-112.5 66,-112.5"/>
<text text-anchor="middle" x="118" y="-119.5" font-family="serif" font-size="10.00">MPIProblem.hpp</text>
</a>
</g>
</g>
<!-- Node9&#45;&gt;Node11 -->
<g id="edge34" class="edge">
<title>Node9&#45;&gt;Node11</title>
<path fill="none" stroke="midnightblue" d="M388.27,-281.73C352.65,-275.24 304.66,-263.63 266,-244 205.04,-213.04 146.36,-153.56 125.76,-131.5"/>
<polygon fill="midnightblue" stroke="midnightblue" points="387.98,-285.24 398.43,-283.51 389.19,-278.34 387.98,-285.24"/>
</g>
<!-- Node12 -->
<g id="node12" class="node">
<title>Node12</title>
<g id="a_node12"><a xlink:href="Problem_8hpp.html" target="_top" xlink:title="Class used to defined a Problem objet.">
<polygon fill="none" stroke="black" points="410.5,-112.5 410.5,-131.5 493.5,-131.5 493.5,-112.5 410.5,-112.5"/>
<text text-anchor="middle" x="452" y="-119.5" font-family="serif" font-size="10.00">Problem.hpp</text>
</a>
</g>
</g>
<!-- Node9&#45;&gt;Node12 -->
<g id="edge35" class="edge">
<title>Node9&#45;&gt;Node12</title>
<path fill="none" stroke="midnightblue" d="M440.49,-269.93C443.31,-233.92 449.32,-157.23 451.33,-131.57"/>
<polygon fill="midnightblue" stroke="midnightblue" points="436.99,-269.83 439.7,-280.08 443.97,-270.38 436.99,-269.83"/>
</g>
<!-- Node14 -->
<g id="node14" class="node">
<title>Node14</title>
<g id="a_node14"><a xlink:href="ProblemBase_8hpp.html" target="_top" xlink:title="Base class for building Problems.">
<polygon fill="none" stroke="black" points="284.5,-168.5 284.5,-187.5 391.5,-187.5 391.5,-168.5 284.5,-168.5"/>
<text text-anchor="middle" x="338" y="-175.5" font-family="serif" font-size="10.00">ProblemBase.hpp</text>
</a>
</g>
</g>
<!-- Node9&#45;&gt;Node14 -->
<g id="edge36" class="edge">
<title>Node9&#45;&gt;Node14</title>
<path fill="none" stroke="midnightblue" d="M430.97,-270.84C424.28,-257 413.78,-238 401,-224 387.14,-208.81 367.34,-195.7 353.66,-187.62"/>
<polygon fill="midnightblue" stroke="midnightblue" points="427.95,-272.65 435.33,-280.25 434.31,-269.71 427.95,-272.65"/>
</g>
<!-- Node17 -->
<g id="node17" class="node">
<title>Node17</title>
<g id="a_node17"><a xlink:href="Variables_8hpp.html" target="_top" xlink:title="Variables class used to build and manage variables.">
<polygon fill="none" stroke="black" points="693,-224.5 693,-243.5 779,-243.5 779,-224.5 693,-224.5"/>
<text text-anchor="middle" x="736" y="-231.5" font-family="serif" font-size="10.00">Variables.hpp</text>
</a>
</g>
</g>
<!-- Node9&#45;&gt;Node17 -->
<g id="edge38" class="edge">
<title>Node9&#45;&gt;Node17</title>
<path fill="none" stroke="midnightblue" d="M489.59,-279.8C546.81,-269.4 639.02,-252.63 692.93,-242.83"/>
<polygon fill="midnightblue" stroke="midnightblue" points="488.89,-276.37 479.67,-281.6 490.14,-283.26 488.89,-276.37"/>
</g>
<!-- Node10&#45;&gt;Node5 -->
<g id="edge33" class="edge">
<title>Node10&#45;&gt;Node5</title>
<path fill="none" stroke="midnightblue" d="M264.16,-228.7C166.91,-219.73 6.43,-192.57 57,-112 102.97,-38.77 386.96,-17.6 484.3,-12.46"/>
<polygon fill="midnightblue" stroke="midnightblue" points="263.97,-232.2 274.24,-229.59 264.58,-225.23 263.97,-232.2"/>
</g>
<!-- Node10&#45;&gt;Node11 -->
<g id="edge19" class="edge">
<title>Node10&#45;&gt;Node11</title>
<path fill="none" stroke="midnightblue" d="M307.07,-219.73C262.41,-196.88 172.16,-150.71 134.79,-131.59"/>
<polygon fill="midnightblue" stroke="midnightblue" points="305.63,-222.93 316.13,-224.37 308.82,-216.7 305.63,-222.93"/>
</g>
<!-- Node10&#45;&gt;Node12 -->
<g id="edge21" class="edge">
<title>Node10&#45;&gt;Node12</title>
<path fill="none" stroke="midnightblue" d="M357.67,-219.32C371.23,-211.17 387.9,-200.09 401,-188 420.19,-170.3 437.87,-144.91 446.49,-131.72"/>
<polygon fill="midnightblue" stroke="midnightblue" points="355.74,-216.39 348.87,-224.46 359.27,-222.44 355.74,-216.39"/>
</g>
<!-- Node10&#45;&gt;Node14 -->
<g id="edge25" class="edge">
<title>Node10&#45;&gt;Node14</title>
<path fill="none" stroke="midnightblue" d="M334.75,-214.1C335.58,-205.14 336.53,-194.86 337.19,-187.75"/>
<polygon fill="midnightblue" stroke="midnightblue" points="331.26,-213.8 333.83,-224.08 338.23,-214.45 331.26,-213.8"/>
</g>
<!-- Node11&#45;&gt;Node5 -->
<g id="edge20" class="edge">
<title>Node11&#45;&gt;Node5</title>
<path fill="none" stroke="midnightblue" d="M135.47,-105.56C153.73,-90.35 183.86,-67.74 214,-56 307.41,-19.63 427.54,-12.42 484.4,-11.15"/>
<polygon fill="midnightblue" stroke="midnightblue" points="132.85,-103.2 127.52,-112.36 137.4,-108.52 132.85,-103.2"/>
</g>
<!-- Node12&#45;&gt;Node5 -->
<g id="edge22" class="edge">
<title>Node12&#45;&gt;Node5</title>
<path fill="none" stroke="midnightblue" d="M445.01,-102.66C441,-88.98 438.16,-70.26 446,-56 455.71,-38.35 475.58,-26.66 491.84,-19.62"/>
<polygon fill="midnightblue" stroke="midnightblue" points="441.78,-104.02 448.29,-112.38 448.41,-101.78 441.78,-104.02"/>
</g>
<!-- Node13 -->
<g id="node13" class="node">
<title>Node13</title>
<g id="a_node13"><a xlink:href="Time_8hpp.html" target="_top" xlink:title="Main time loop.">
<polygon fill="none" stroke="black" points="454.5,-56.5 454.5,-75.5 519.5,-75.5 519.5,-56.5 454.5,-56.5"/>
<text text-anchor="middle" x="487" y="-63.5" font-family="serif" font-size="10.00">Time.hpp</text>
</a>
</g>
</g>
<!-- Node12&#45;&gt;Node13 -->
<g id="edge23" class="edge">
<title>Node12&#45;&gt;Node13</title>
<path fill="none" stroke="midnightblue" d="M463.3,-103.57C469.32,-94.27 476.47,-83.25 481.33,-75.75"/>
<polygon fill="midnightblue" stroke="midnightblue" points="460.28,-101.79 457.78,-112.08 466.16,-105.6 460.28,-101.79"/>
</g>
<!-- Node13&#45;&gt;Node5 -->
<g id="edge24" class="edge">
<title>Node13&#45;&gt;Node5</title>
<path fill="none" stroke="midnightblue" d="M496.85,-47.27C501.97,-38.05 508.02,-27.17 512.14,-19.75"/>
<polygon fill="midnightblue" stroke="midnightblue" points="493.75,-45.64 491.95,-56.08 499.87,-49.04 493.75,-45.64"/>
</g>
<!-- Node14&#45;&gt;Node5 -->
<g id="edge32" class="edge">
<title>Node14&#45;&gt;Node5</title>
<path fill="none" stroke="midnightblue" d="M338.35,-157.68C337.67,-143.74 334.74,-125.15 325,-112 301.9,-80.81 233.02,-85.7 258,-56 286.57,-22.04 421.23,-13.71 484.29,-11.66"/>
<polygon fill="midnightblue" stroke="midnightblue" points="334.86,-158.11 338.49,-168.07 341.86,-158.02 334.86,-158.11"/>
</g>
<!-- Node14&#45;&gt;Node11 -->
<g id="edge28" class="edge">
<title>Node14&#45;&gt;Node11</title>
<path fill="none" stroke="midnightblue" d="M293.28,-166.02C251.72,-155.82 190.69,-140.84 152.7,-131.52"/>
<polygon fill="midnightblue" stroke="midnightblue" points="292.59,-169.46 303.14,-168.44 294.26,-162.66 292.59,-169.46"/>
</g>
<!-- Node14&#45;&gt;Node12 -->
<g id="edge29" class="edge">
<title>Node14&#45;&gt;Node12</title>
<path fill="none" stroke="midnightblue" d="M365.24,-164.1C386.54,-154.01 415.54,-140.27 434.02,-131.52"/>
<polygon fill="midnightblue" stroke="midnightblue" points="363.6,-161 356.06,-168.44 366.6,-167.33 363.6,-161"/>
</g>
<!-- Node15 -->
<g id="node15" class="node">
<title>Node15</title>
<g id="a_node15"><a xlink:href="Calphad__problem_8hpp.html" target="_top" xlink:title="Class used to defined a Calphad_Problem objet.">
<polygon fill="none" stroke="black" points="266.5,-56.5 266.5,-75.5 397.5,-75.5 397.5,-56.5 266.5,-56.5"/>
<text text-anchor="middle" x="332" y="-63.5" font-family="serif" font-size="10.00">Calphad_problem.hpp</text>
</a>
</g>
</g>
<!-- Node14&#45;&gt;Node15 -->
<g id="edge26" class="edge">
<title>Node14&#45;&gt;Node15</title>
<path fill="none" stroke="midnightblue" d="M348.97,-159.4C355.73,-146.38 362.34,-128.18 358,-112 354.31,-98.23 345.27,-84.32 338.89,-75.68"/>
<polygon fill="midnightblue" stroke="midnightblue" points="345.85,-157.8 343.95,-168.23 351.94,-161.26 345.85,-157.8"/>
</g>
<!-- Node16 -->
<g id="node16" class="node">
<title>Node16</title>
<g id="a_node16"><a xlink:href="PropertyProblem_8hpp.html" target="_top" xlink:title="Class used to compute primary variables as a function of auxialiary variables.">
<polygon fill="none" stroke="black" points="188.5,-112.5 188.5,-131.5 315.5,-131.5 315.5,-112.5 188.5,-112.5"/>
<text text-anchor="middle" x="252" y="-119.5" font-family="serif" font-size="10.00">PropertyProblem.hpp</text>
</a>
</g>
</g>
<!-- Node14&#45;&gt;Node16 -->
<g id="edge30" class="edge">
<title>Node14&#45;&gt;Node16</title>
<path fill="none" stroke="midnightblue" d="M315.55,-162.9C299.78,-153 279.19,-140.07 265.78,-131.65"/>
<polygon fill="midnightblue" stroke="midnightblue" points="313.85,-165.97 324.18,-168.32 317.57,-160.04 313.85,-165.97"/>
</g>
<!-- Node15&#45;&gt;Node5 -->
<g id="edge27" class="edge">
<title>Node15&#45;&gt;Node5</title>
<path fill="none" stroke="midnightblue" d="M371.17,-53.57C406.07,-43.38 456.35,-28.7 487.82,-19.52"/>
<polygon fill="midnightblue" stroke="midnightblue" points="369.93,-50.28 361.31,-56.44 371.89,-57 369.93,-50.28"/>
</g>
<!-- Node16&#45;&gt;Node5 -->
<g id="edge31" class="edge">
<title>Node16&#45;&gt;Node5</title>
<path fill="none" stroke="midnightblue" d="M235.9,-104.59C224.01,-90.47 211.83,-70.19 224,-56 257.26,-17.24 415.1,-11.53 484.33,-10.92"/>
<polygon fill="midnightblue" stroke="midnightblue" points="233.38,-107.02 242.68,-112.1 238.58,-102.33 233.38,-107.02"/>
</g>
<!-- Node17&#45;&gt;Node2 -->
<g id="edge39" class="edge">
<title>Node17&#45;&gt;Node2</title>
<path fill="none" stroke="midnightblue" d="M773.04,-221.3C805.26,-211.13 851.19,-196.62 880.03,-187.52"/>
<polygon fill="midnightblue" stroke="midnightblue" points="771.58,-218.09 763.1,-224.44 773.69,-224.77 771.58,-218.09"/>
</g>
<!-- Node17&#45;&gt;Node3 -->
<g id="edge40" class="edge">
<title>Node17&#45;&gt;Node3</title>
<path fill="none" stroke="midnightblue" d="M736,-214.35C736,-190.25 736,-149.31 736,-131.59"/>
<polygon fill="midnightblue" stroke="midnightblue" points="732.5,-214.37 736,-224.37 739.5,-214.37 732.5,-214.37"/>
</g>
<!-- Node17&#45;&gt;Node5 -->
<g id="edge42" class="edge">
<title>Node17&#45;&gt;Node5</title>
<path fill="none" stroke="midnightblue" d="M718.15,-217.28C687.16,-189.71 621.85,-130.39 571,-76 552.97,-56.71 533.6,-32.41 523.68,-19.68"/>
<polygon fill="midnightblue" stroke="midnightblue" points="716.14,-220.17 725.94,-224.18 720.78,-214.93 716.14,-220.17"/>
</g>
<!-- Node17&#45;&gt;Node8 -->
<g id="edge41" class="edge">
<title>Node17&#45;&gt;Node8</title>
<path fill="none" stroke="midnightblue" d="M758.21,-218.71C794.24,-195.53 864.36,-150.43 893.64,-131.59"/>
<polygon fill="midnightblue" stroke="midnightblue" points="755.93,-216.01 749.42,-224.37 759.72,-221.9 755.93,-216.01"/>
</g>
</g>
</svg>
