<?xml version="1.0" encoding="UTF-8" standalone="no"?>
<!DOCTYPE svg PUBLIC "-//W3C//DTD SVG 1.1//EN"
 "http://www.w3.org/Graphics/SVG/1.1/DTD/svg11.dtd">
<!-- Generated by graphviz version 2.43.0 (0)
 -->
<!-- Title: Boundary.hpp Pages: 1 -->
<!--zoomable 420 -->
<svg id="main" version="1.1" xmlns="http://www.w3.org/2000/svg" xmlns:xlink="http://www.w3.org/1999/xlink" xml:space="preserve" onload="init(evt)">
<style type="text/css"><![CDATA[
.edge:hover path { stroke: red; }
.edge:hover polygon { stroke: red; fill: red; }
]]></style>
<script type="text/javascript"><![CDATA[
var edges = document.getElementsByTagName('g');
if (edges && edges.length) {
  for (var i=0;i<edges.length;i++) {
    if (edges[i].id.substr(0,4)=='edge') {
      edges[i].setAttribute('class','edge');
    }
  }
}
]]></script>
        <defs>
                <circle id="rim" cx="0" cy="0" r="7"/>
                <circle id="rim2" cx="0" cy="0" r="3.5"/>
                <g id="zoomPlus">
                        <use xlink:href="#rim" fill="#404040">
                                <set attributeName="fill" to="#808080" begin="zoomplus.mouseover" end="zoomplus.mouseout"/>
                        </use>
                        <path d="M-4,0h8M0,-4v8" fill="none" stroke="white" stroke-width="1.5" pointer-events="none"/>
                </g>
                <g id="zoomMin">
                        <use xlink:href="#rim" fill="#404040">
                                <set attributeName="fill" to="#808080" begin="zoomminus.mouseover" end="zoomminus.mouseout"/>
                        </use>
                        <path d="M-4,0h8" fill="none" stroke="white" stroke-width="1.5" pointer-events="none"/>
                </g>
                <g id="dirArrow">
                        <path fill="none" stroke="white" stroke-width="1.5" d="M0,-3.0v7 M-2.5,-0.5L0,-3.0L2.5,-0.5"/>
                </g>
               <g id="resetDef">
                       <use xlink:href="#rim2" fill="#404040">
                               <set attributeName="fill" to="#808080" begin="reset.mouseover" end="reset.mouseout"/>
                       </use>
               </g>
        </defs>

<script type="text/javascript">
var viewWidth = 1134;
var viewHeight = 420;
var sectionId = 'dynsection-1';
</script>
<script xlink:href="svgpan.js"/>
<svg id="graph" class="graph">
<g id="viewport">
<title>Boundary.hpp</title>
<!-- Node1 -->
<g id="node1" class="node">
<title>Node1</title>
<g id="a_node1"><a xlink:title="Boundary class used to build a boundary with a name, an index, a type and, if needed,...">
<polygon fill="#bfbfbf" stroke="black" points="111.5,-392.5 111.5,-411.5 200.5,-411.5 200.5,-392.5 111.5,-392.5"/>
<text text-anchor="middle" x="156" y="-399.5" font-family="serif" font-size="10.00">Boundary.hpp</text>
</a>
</g>
</g>
<!-- Node2 -->
<g id="node2" class="node">
<title>Node2</title>
<g id="a_node2"><a xlink:href="BoundaryConditions_8hpp.html" target="_top" xlink:title="BoundaryConditions class used to build and manage boundary conditions.">
<polygon fill="none" stroke="black" points="624.5,-336.5 624.5,-355.5 769.5,-355.5 769.5,-336.5 624.5,-336.5"/>
<text text-anchor="middle" x="697" y="-343.5" font-family="serif" font-size="10.00">BoundaryConditions.hpp</text>
</a>
</g>
</g>
<!-- Node1&#45;&gt;Node2 -->
<g id="edge1" class="edge">
<title>Node1&#45;&gt;Node2</title>
<path fill="none" stroke="midnightblue" d="M210.73,-395.54C308.83,-385.75 514.57,-365.21 624.35,-354.25"/>
<polygon fill="midnightblue" stroke="midnightblue" points="210.34,-392.06 200.73,-396.54 211.03,-399.02 210.34,-392.06"/>
</g>
<!-- Node6 -->
<g id="node6" class="node">
<title>Node6</title>
<g id="a_node6"><a xlink:href="sloth_8hpp.html" target="_top" xlink:title="List of all header files contained in the kernel directory.">
<polygon fill="none" stroke="black" points="466.5,-0.5 466.5,-19.5 531.5,-19.5 531.5,-0.5 466.5,-0.5"/>
<text text-anchor="middle" x="499" y="-7.5" font-family="serif" font-size="10.00">sloth.hpp</text>
</a>
</g>
</g>
<!-- Node1&#45;&gt;Node6 -->
<g id="edge44" class="edge">
<title>Node1&#45;&gt;Node6</title>
<path fill="none" stroke="midnightblue" d="M109.62,-389.52C63.63,-375.03 0,-345.18 0,-291 0,-291 0,-291 0,-121 0,-76.89 34.54,-73.58 75,-56 145.35,-25.43 379.69,-14.86 466.38,-11.95"/>
<polygon fill="midnightblue" stroke="midnightblue" points="108.84,-392.94 119.42,-392.46 110.85,-386.23 108.84,-392.94"/>
</g>
<!-- Node3 -->
<g id="node3" class="node">
<title>Node3</title>
<g id="a_node3"><a xlink:href="OperatorBase_8hpp.html" target="_top" xlink:title="Base class for building Steady and TimeDependent PhaseFieldOperators.">
<polygon fill="none" stroke="black" points="807,-168.5 807,-187.5 917,-187.5 917,-168.5 807,-168.5"/>
<text text-anchor="middle" x="862" y="-175.5" font-family="serif" font-size="10.00">OperatorBase.hpp</text>
</a>
</g>
</g>
<!-- Node2&#45;&gt;Node3 -->
<g id="edge2" class="edge">
<title>Node2&#45;&gt;Node3</title>
<path fill="none" stroke="midnightblue" d="M713.25,-328.65C747.75,-293.94 827.31,-213.9 853.48,-187.57"/>
<polygon fill="midnightblue" stroke="midnightblue" points="710.44,-326.52 705.87,-336.08 715.4,-331.45 710.44,-326.52"/>
</g>
<!-- Node2&#45;&gt;Node6 -->
<g id="edge17" class="edge">
<title>Node2&#45;&gt;Node6</title>
<path fill="none" stroke="midnightblue" d="M780.06,-340.55C904.78,-331.57 1126,-305.67 1126,-235 1126,-235 1126,-235 1126,-121 1126,-74.15 1086.63,-73.09 1043,-56 948.92,-19.14 634.1,-12.46 531.57,-11.26"/>
<polygon fill="midnightblue" stroke="midnightblue" points="779.51,-337.08 769.77,-341.27 779.99,-344.07 779.51,-337.08"/>
</g>
<!-- Node10 -->
<g id="node10" class="node">
<title>Node10</title>
<g id="a_node10"><a xlink:href="Variable_8hpp.html" target="_top" xlink:title="Variable class used to build and manage variables of model.">
<polygon fill="none" stroke="black" points="271.5,-280.5 271.5,-299.5 352.5,-299.5 352.5,-280.5 271.5,-280.5"/>
<text text-anchor="middle" x="312" y="-287.5" font-family="serif" font-size="10.00">Variable.hpp</text>
</a>
</g>
</g>
<!-- Node2&#45;&gt;Node10 -->
<g id="edge18" class="edge">
<title>Node2&#45;&gt;Node10</title>
<path fill="none" stroke="midnightblue" d="M625.96,-335.04C545.63,-323.77 417.59,-305.81 352.64,-296.7"/>
<polygon fill="midnightblue" stroke="midnightblue" points="625.61,-338.52 636,-336.44 626.58,-331.59 625.61,-338.52"/>
</g>
<!-- Node4 -->
<g id="node4" class="node">
<title>Node4</title>
<g id="a_node4"><a xlink:href="SteadyOperatorBase_8hpp.html" target="_top" xlink:title="Steady Operator base.">
<polygon fill="none" stroke="black" points="789,-112.5 789,-131.5 935,-131.5 935,-112.5 789,-112.5"/>
<text text-anchor="middle" x="862" y="-119.5" font-family="serif" font-size="10.00">SteadyOperatorBase.hpp</text>
</a>
</g>
</g>
<!-- Node3&#45;&gt;Node4 -->
<g id="edge3" class="edge">
<title>Node3&#45;&gt;Node4</title>
<path fill="none" stroke="midnightblue" d="M862,-157.8C862,-148.91 862,-138.78 862,-131.75"/>
<polygon fill="midnightblue" stroke="midnightblue" points="858.5,-158.08 862,-168.08 865.5,-158.08 858.5,-158.08"/>
</g>
<!-- Node3&#45;&gt;Node6 -->
<g id="edge16" class="edge">
<title>Node3&#45;&gt;Node6</title>
<path fill="none" stroke="midnightblue" d="M898.64,-164.97C954.84,-144.7 1051.66,-101.49 1010,-56 977.67,-20.7 639.22,-12.95 531.64,-11.38"/>
<polygon fill="midnightblue" stroke="midnightblue" points="897.26,-161.74 889,-168.36 899.59,-168.34 897.26,-161.74"/>
</g>
<!-- Node9 -->
<g id="node9" class="node">
<title>Node9</title>
<g id="a_node9"><a xlink:href="TransientOperatorBase_8hpp.html" target="_top" xlink:title="Transient Operator base.">
<polygon fill="none" stroke="black" points="611.5,-112.5 611.5,-131.5 770.5,-131.5 770.5,-112.5 611.5,-112.5"/>
<text text-anchor="middle" x="691" y="-119.5" font-family="serif" font-size="10.00">TransientOperatorBase.hpp</text>
</a>
</g>
</g>
<!-- Node3&#45;&gt;Node9 -->
<g id="edge11" class="edge">
<title>Node3&#45;&gt;Node9</title>
<path fill="none" stroke="midnightblue" d="M824.96,-165.3C792.74,-155.13 746.81,-140.62 717.97,-131.52"/>
<polygon fill="midnightblue" stroke="midnightblue" points="824.31,-168.77 834.9,-168.44 826.42,-162.09 824.31,-168.77"/>
</g>
<!-- Node5 -->
<g id="node5" class="node">
<title>Node5</title>
<g id="a_node5"><a xlink:href="DiffusionOperator_8hpp.html" target="_top" xlink:title="Diffusion operator (Base, Steady and TimeDependent)">
<polygon fill="none" stroke="black" points="852.5,-56.5 852.5,-75.5 983.5,-75.5 983.5,-56.5 852.5,-56.5"/>
<text text-anchor="middle" x="918" y="-63.5" font-family="serif" font-size="10.00">DiffusionOperator.hpp</text>
</a>
</g>
</g>
<!-- Node4&#45;&gt;Node5 -->
<g id="edge4" class="edge">
<title>Node4&#45;&gt;Node5</title>
<path fill="none" stroke="midnightblue" d="M878.33,-105.25C888.26,-95.67 900.59,-83.79 908.84,-75.83"/>
<polygon fill="midnightblue" stroke="midnightblue" points="875.77,-102.86 871,-112.32 880.63,-107.9 875.77,-102.86"/>
</g>
<!-- Node4&#45;&gt;Node6 -->
<g id="edge10" class="edge">
<title>Node4&#45;&gt;Node6</title>
<path fill="none" stroke="midnightblue" d="M928.08,-110.37C972.19,-100.55 1017.91,-83.28 993,-56 961.9,-21.94 636.85,-13.37 531.65,-11.48"/>
<polygon fill="midnightblue" stroke="midnightblue" points="927.19,-106.98 918.13,-112.47 928.63,-113.83 927.19,-106.98"/>
</g>
<!-- Node7 -->
<g id="node7" class="node">
<title>Node7</title>
<g id="a_node7"><a xlink:href="HeatOperator_8hpp.html" target="_top" xlink:title="Heat operator (Base, Steady and TimeDependent)">
<polygon fill="none" stroke="black" points="565,-56.5 565,-75.5 675,-75.5 675,-56.5 565,-56.5"/>
<text text-anchor="middle" x="620" y="-63.5" font-family="serif" font-size="10.00">HeatOperator.hpp</text>
</a>
</g>
</g>
<!-- Node4&#45;&gt;Node7 -->
<g id="edge6" class="edge">
<title>Node4&#45;&gt;Node7</title>
<path fill="none" stroke="midnightblue" d="M813.68,-110.22C767.95,-100.01 700.22,-84.9 658.17,-75.52"/>
<polygon fill="midnightblue" stroke="midnightblue" points="813.13,-113.68 823.65,-112.44 814.66,-106.85 813.13,-113.68"/>
</g>
<!-- Node8 -->
<g id="node8" class="node">
<title>Node8</title>
<g id="a_node8"><a xlink:href="PhaseFieldOperator_8hpp.html" target="_top" xlink:title="AllenCahn operator (Base, Steady and TimeDependent)">
<polygon fill="none" stroke="black" points="693.5,-56.5 693.5,-75.5 834.5,-75.5 834.5,-56.5 693.5,-56.5"/>
<text text-anchor="middle" x="764" y="-63.5" font-family="serif" font-size="10.00">PhaseFieldOperator.hpp</text>
</a>
</g>
</g>
<!-- Node4&#45;&gt;Node8 -->
<g id="edge8" class="edge">
<title>Node4&#45;&gt;Node8</title>
<path fill="none" stroke="midnightblue" d="M837.41,-107.45C819.32,-97.48 795.27,-84.23 779.71,-75.65"/>
<polygon fill="midnightblue" stroke="midnightblue" points="835.81,-110.56 846.25,-112.32 839.19,-104.43 835.81,-110.56"/>
</g>
<!-- Node5&#45;&gt;Node6 -->
<g id="edge5" class="edge">
<title>Node5&#45;&gt;Node6</title>
<path fill="none" stroke="midnightblue" d="M841.94,-55.2C749.54,-43.29 597.84,-23.74 531.62,-15.2"/>
<polygon fill="midnightblue" stroke="midnightblue" points="841.7,-58.7 852.07,-56.5 842.6,-51.75 841.7,-58.7"/>
</g>
<!-- Node7&#45;&gt;Node6 -->
<g id="edge7" class="edge">
<title>Node7&#45;&gt;Node6</title>
<path fill="none" stroke="midnightblue" d="M591.69,-52.37C569.03,-42.26 537.87,-28.35 518.08,-19.52"/>
<polygon fill="midnightblue" stroke="midnightblue" points="590.27,-55.56 600.83,-56.44 593.12,-49.17 590.27,-55.56"/>
</g>
<!-- Node8&#45;&gt;Node6 -->
<g id="edge9" class="edge">
<title>Node8&#45;&gt;Node6</title>
<path fill="none" stroke="midnightblue" d="M712.03,-54.41C658.48,-43.5 576.67,-26.83 531.6,-17.64"/>
<polygon fill="midnightblue" stroke="midnightblue" points="711.51,-57.88 722.01,-56.44 712.91,-51.02 711.51,-57.88"/>
</g>
<!-- Node9&#45;&gt;Node5 -->
<g id="edge12" class="edge">
<title>Node9&#45;&gt;Node5</title>
<path fill="none" stroke="midnightblue" d="M736.87,-110.09C779.75,-99.89 842.92,-84.86 882.2,-75.52"/>
<polygon fill="midnightblue" stroke="midnightblue" points="735.89,-106.72 726.97,-112.44 737.51,-113.53 735.89,-106.72"/>
</g>
<!-- Node9&#45;&gt;Node6 -->
<g id="edge15" class="edge">
<title>Node9&#45;&gt;Node6</title>
<path fill="none" stroke="midnightblue" d="M637.02,-110C611.06,-103.02 580.36,-92.18 556,-76 533,-60.72 513.61,-33.83 504.53,-19.91"/>
<polygon fill="midnightblue" stroke="midnightblue" points="636.16,-113.39 646.72,-112.48 637.9,-106.61 636.16,-113.39"/>
</g>
<!-- Node9&#45;&gt;Node7 -->
<g id="edge13" class="edge">
<title>Node9&#45;&gt;Node7</title>
<path fill="none" stroke="midnightblue" d="M671.41,-106.1C658.63,-96.38 642.39,-84.03 631.61,-75.83"/>
<polygon fill="midnightblue" stroke="midnightblue" points="669.51,-109.06 679.59,-112.32 673.75,-103.48 669.51,-109.06"/>
</g>
<!-- Node9&#45;&gt;Node8 -->
<g id="edge14" class="edge">
<title>Node9&#45;&gt;Node8</title>
<path fill="none" stroke="midnightblue" d="M711.14,-106.1C724.28,-96.38 740.98,-84.03 752.06,-75.83"/>
<polygon fill="midnightblue" stroke="midnightblue" points="708.69,-103.56 702.73,-112.32 712.85,-109.19 708.69,-103.56"/>
</g>
<!-- Node10&#45;&gt;Node6 -->
<g id="edge38" class="edge">
<title>Node10&#45;&gt;Node6</title>
<path fill="none" stroke="midnightblue" d="M362.92,-286.87C444.06,-282.75 607.35,-271.57 743,-244 826.35,-227.06 850.01,-226.22 926,-188 986.15,-157.75 1013.48,-141.74 1028,-76 1029.92,-67.32 1034.01,-62.55 1028,-56 994.37,-19.39 641.69,-12.52 531.62,-11.27"/>
<polygon fill="midnightblue" stroke="midnightblue" points="362.32,-283.39 352.5,-287.38 362.66,-290.38 362.32,-283.39"/>
</g>
<!-- Node11 -->
<g id="node11" class="node">
<title>Node11</title>
<g id="a_node11"><a xlink:href="postprocessing_8hpp.html" target="_top" xlink:title="Post&#45;processing features.">
<polygon fill="none" stroke="black" points="84.5,-224.5 84.5,-243.5 201.5,-243.5 201.5,-224.5 84.5,-224.5"/>
<text text-anchor="middle" x="143" y="-231.5" font-family="serif" font-size="10.00">postprocessing.hpp</text>
</a>
</g>
</g>
<!-- Node10&#45;&gt;Node11 -->
<g id="edge19" class="edge">
<title>Node10&#45;&gt;Node11</title>
<path fill="none" stroke="midnightblue" d="M275.4,-277.3C243.55,-267.13 198.16,-252.62 169.65,-243.52"/>
<polygon fill="midnightblue" stroke="midnightblue" points="274.63,-280.73 285.22,-280.44 276.76,-274.07 274.63,-280.73"/>
</g>
<!-- Node12 -->
<g id="node12" class="node">
<title>Node12</title>
<g id="a_node12"><a xlink:href="MPIProblem_8hpp.html" target="_top" xlink:title="Class used to defined a MPI_Problem objet.">
<polygon fill="none" stroke="black" points="66,-112.5 66,-131.5 170,-131.5 170,-112.5 66,-112.5"/>
<text text-anchor="middle" x="118" y="-119.5" font-family="serif" font-size="10.00">MPIProblem.hpp</text>
</a>
</g>
</g>
<!-- Node10&#45;&gt;Node12 -->
<g id="edge35" class="edge">
<title>Node10&#45;&gt;Node12</title>
<path fill="none" stroke="midnightblue" d="M261.29,-286.67C199.09,-282.62 99.05,-271.86 76,-244 47.08,-209.05 90.92,-152.96 109.93,-131.62"/>
<polygon fill="midnightblue" stroke="midnightblue" points="261.11,-290.16 271.31,-287.28 261.54,-283.18 261.11,-290.16"/>
</g>
<!-- Node13 -->
<g id="node13" class="node">
<title>Node13</title>
<g id="a_node13"><a xlink:href="Problem_8hpp.html" target="_top" xlink:title="Class used to defined a Problem objet.">
<polygon fill="none" stroke="black" points="188.5,-112.5 188.5,-131.5 271.5,-131.5 271.5,-112.5 188.5,-112.5"/>
<text text-anchor="middle" x="230" y="-119.5" font-family="serif" font-size="10.00">Problem.hpp</text>
</a>
</g>
</g>
<!-- Node10&#45;&gt;Node13 -->
<g id="edge36" class="edge">
<title>Node10&#45;&gt;Node13</title>
<path fill="none" stroke="midnightblue" d="M299.79,-272.12C286.15,-252.64 264.13,-219.26 250,-188 241.25,-168.63 234.91,-144.37 231.93,-131.66"/>
<polygon fill="midnightblue" stroke="midnightblue" points="297.1,-274.37 305.74,-280.5 302.81,-270.32 297.1,-274.37"/>
</g>
<!-- Node15 -->
<g id="node15" class="node">
<title>Node15</title>
<g id="a_node15"><a xlink:href="ProblemBase_8hpp.html" target="_top" xlink:title="Base class for building Problems.">
<polygon fill="none" stroke="black" points="258.5,-168.5 258.5,-187.5 365.5,-187.5 365.5,-168.5 258.5,-168.5"/>
<text text-anchor="middle" x="312" y="-175.5" font-family="serif" font-size="10.00">ProblemBase.hpp</text>
</a>
</g>
</g>
<!-- Node10&#45;&gt;Node15 -->
<g id="edge37" class="edge">
<title>Node10&#45;&gt;Node15</title>
<path fill="none" stroke="midnightblue" d="M312,-270.35C312,-246.25 312,-205.31 312,-187.59"/>
<polygon fill="midnightblue" stroke="midnightblue" points="308.5,-270.37 312,-280.37 315.5,-270.37 308.5,-270.37"/>
</g>
<!-- Node18 -->
<g id="node18" class="node">
<title>Node18</title>
<g id="a_node18"><a xlink:href="Variables_8hpp.html" target="_top" xlink:title="Variables class used to build and manage variables.">
<polygon fill="none" stroke="black" points="648,-224.5 648,-243.5 734,-243.5 734,-224.5 648,-224.5"/>
<text text-anchor="middle" x="691" y="-231.5" font-family="serif" font-size="10.00">Variables.hpp</text>
</a>
</g>
</g>
<!-- Node10&#45;&gt;Node18 -->
<g id="edge39" class="edge">
<title>Node10&#45;&gt;Node18</title>
<path fill="none" stroke="midnightblue" d="M362.72,-281.77C437.83,-271.07 577.34,-251.19 647.84,-241.15"/>
<polygon fill="midnightblue" stroke="midnightblue" points="361.97,-278.35 352.56,-283.22 362.95,-285.28 361.97,-278.35"/>
</g>
<!-- Node11&#45;&gt;Node6 -->
<g id="edge34" class="edge">
<title>Node11&#45;&gt;Node6</title>
<path fill="none" stroke="midnightblue" d="M123.53,-217.67C102.49,-199.74 70.21,-167.9 57,-132 42.14,-91.61 77.96,-74.1 117,-56 178.95,-27.28 385.69,-15.73 466.36,-12.24"/>
<polygon fill="midnightblue" stroke="midnightblue" points="121.56,-220.59 131.5,-224.26 126.02,-215.19 121.56,-220.59"/>
</g>
<!-- Node11&#45;&gt;Node12 -->
<g id="edge20" class="edge">
<title>Node11&#45;&gt;Node12</title>
<path fill="none" stroke="midnightblue" d="M138.76,-214.35C133.28,-190.25 123.98,-149.31 119.95,-131.59"/>
<polygon fill="midnightblue" stroke="midnightblue" points="135.41,-215.39 141.04,-224.37 142.23,-213.84 135.41,-215.39"/>
</g>
<!-- Node11&#45;&gt;Node13 -->
<g id="edge22" class="edge">
<title>Node11&#45;&gt;Node13</title>
<path fill="none" stroke="midnightblue" d="M156.23,-216.27C175.04,-192.49 208.81,-149.79 223.2,-131.59"/>
<polygon fill="midnightblue" stroke="midnightblue" points="153.28,-214.35 149.83,-224.37 158.78,-218.7 153.28,-214.35"/>
</g>
<!-- Node11&#45;&gt;Node15 -->
<g id="edge26" class="edge">
<title>Node11&#45;&gt;Node15</title>
<path fill="none" stroke="midnightblue" d="M179.6,-221.3C211.45,-211.13 256.84,-196.62 285.35,-187.52"/>
<polygon fill="midnightblue" stroke="midnightblue" points="178.24,-218.07 169.78,-224.44 180.37,-224.73 178.24,-218.07"/>
</g>
<!-- Node12&#45;&gt;Node6 -->
<g id="edge21" class="edge">
<title>Node12&#45;&gt;Node6</title>
<path fill="none" stroke="midnightblue" d="M116.95,-102.25C117.23,-87.46 120.24,-67.49 133,-56 181.64,-12.19 386.12,-9.66 466.43,-10.41"/>
<polygon fill="midnightblue" stroke="midnightblue" points="113.46,-102.39 117.16,-112.31 120.46,-102.24 113.46,-102.39"/>
</g>
<!-- Node13&#45;&gt;Node6 -->
<g id="edge23" class="edge">
<title>Node13&#45;&gt;Node6</title>
<path fill="none" stroke="midnightblue" d="M233.45,-102.17C237.17,-87.34 244.62,-67.35 259,-56 290.69,-30.98 408.12,-18.28 466.13,-13.42"/>
<polygon fill="midnightblue" stroke="midnightblue" points="229.96,-101.76 231.27,-112.27 236.8,-103.23 229.96,-101.76"/>
</g>
<!-- Node14 -->
<g id="node14" class="node">
<title>Node14</title>
<g id="a_node14"><a xlink:href="Time_8hpp.html" target="_top" xlink:title="Main time loop.">
<polygon fill="none" stroke="black" points="141.5,-56.5 141.5,-75.5 206.5,-75.5 206.5,-56.5 141.5,-56.5"/>
<text text-anchor="middle" x="174" y="-63.5" font-family="serif" font-size="10.00">Time.hpp</text>
</a>
</g>
</g>
<!-- Node13&#45;&gt;Node14 -->
<g id="edge24" class="edge">
<title>Node13&#45;&gt;Node14</title>
<path fill="none" stroke="midnightblue" d="M213.67,-105.25C203.74,-95.67 191.41,-83.79 183.16,-75.83"/>
<polygon fill="midnightblue" stroke="midnightblue" points="211.37,-107.9 221,-112.32 216.23,-102.86 211.37,-107.9"/>
</g>
<!-- Node14&#45;&gt;Node6 -->
<g id="edge25" class="edge">
<title>Node14&#45;&gt;Node6</title>
<path fill="none" stroke="midnightblue" d="M216.56,-56.79C218.06,-56.52 219.54,-56.26 221,-56 309.59,-40.35 414.45,-23.95 466.42,-15.96"/>
<polygon fill="midnightblue" stroke="midnightblue" points="215.79,-53.38 206.59,-58.63 217.06,-60.26 215.79,-53.38"/>
</g>
<!-- Node15&#45;&gt;Node6 -->
<g id="edge33" class="edge">
<title>Node15&#45;&gt;Node6</title>
<path fill="none" stroke="midnightblue" d="M301.64,-159.26C288.16,-133.57 268.98,-85.83 293,-56 314.41,-29.41 413.96,-17.68 466.43,-13.27"/>
<polygon fill="midnightblue" stroke="midnightblue" points="298.7,-161.17 306.6,-168.23 304.83,-157.79 298.7,-161.17"/>
</g>
<!-- Node15&#45;&gt;Node12 -->
<g id="edge29" class="edge">
<title>Node15&#45;&gt;Node12</title>
<path fill="none" stroke="midnightblue" d="M271.4,-165.7C234.78,-155.51 181.74,-140.74 148.6,-131.52"/>
<polygon fill="midnightblue" stroke="midnightblue" points="270.69,-169.13 281.26,-168.44 272.56,-162.39 270.69,-169.13"/>
</g>
<!-- Node15&#45;&gt;Node13 -->
<g id="edge30" class="edge">
<title>Node15&#45;&gt;Node13</title>
<path fill="none" stroke="midnightblue" d="M290.17,-162.62C275.19,-152.76 255.8,-139.99 243.14,-131.65"/>
<polygon fill="midnightblue" stroke="midnightblue" points="288.55,-165.75 298.83,-168.32 292.4,-159.9 288.55,-165.75"/>
</g>
<!-- Node16 -->
<g id="node16" class="node">
<title>Node16</title>
<g id="a_node16"><a xlink:href="Calphad__problem_8hpp.html" target="_top" xlink:title="Class used to defined a Calphad_Problem objet.">
<polygon fill="none" stroke="black" points="301.5,-56.5 301.5,-75.5 432.5,-75.5 432.5,-56.5 301.5,-56.5"/>
<text text-anchor="middle" x="367" y="-63.5" font-family="serif" font-size="10.00">Calphad_problem.hpp</text>
</a>
</g>
</g>
<!-- Node15&#45;&gt;Node16 -->
<g id="edge27" class="edge">
<title>Node15&#45;&gt;Node16</title>
<path fill="none" stroke="midnightblue" d="M320.84,-159.32C332.82,-135.37 353.73,-93.55 362.7,-75.59"/>
<polygon fill="midnightblue" stroke="midnightblue" points="317.66,-157.86 316.32,-168.37 323.92,-160.99 317.66,-157.86"/>
</g>
<!-- Node17 -->
<g id="node17" class="node">
<title>Node17</title>
<g id="a_node17"><a xlink:href="PropertyProblem_8hpp.html" target="_top" xlink:title="Class used to compute primary variables as a function of auxialiary variables.">
<polygon fill="none" stroke="black" points="366.5,-112.5 366.5,-131.5 493.5,-131.5 493.5,-112.5 366.5,-112.5"/>
<text text-anchor="middle" x="430" y="-119.5" font-family="serif" font-size="10.00">PropertyProblem.hpp</text>
</a>
</g>
</g>
<!-- Node15&#45;&gt;Node17 -->
<g id="edge31" class="edge">
<title>Node15&#45;&gt;Node17</title>
<path fill="none" stroke="midnightblue" d="M339.9,-164.23C361.97,-154.13 392.18,-140.31 411.39,-131.52"/>
<polygon fill="midnightblue" stroke="midnightblue" points="338.33,-161.1 330.7,-168.44 341.25,-167.46 338.33,-161.1"/>
</g>
<!-- Node16&#45;&gt;Node6 -->
<g id="edge28" class="edge">
<title>Node16&#45;&gt;Node6</title>
<path fill="none" stroke="midnightblue" d="M397.22,-52.64C421.99,-42.5 456.4,-28.43 478.18,-19.52"/>
<polygon fill="midnightblue" stroke="midnightblue" points="395.85,-49.42 387.92,-56.44 398.5,-55.9 395.85,-49.42"/>
</g>
<!-- Node17&#45;&gt;Node6 -->
<g id="edge32" class="edge">
<title>Node17&#45;&gt;Node6</title>
<path fill="none" stroke="midnightblue" d="M440.89,-103.64C455.88,-79.74 482.3,-37.63 493.61,-19.59"/>
<polygon fill="midnightblue" stroke="midnightblue" points="437.76,-102.04 435.41,-112.37 443.69,-105.76 437.76,-102.04"/>
</g>
<!-- Node18&#45;&gt;Node3 -->
<g id="edge40" class="edge">
<title>Node18&#45;&gt;Node3</title>
<path fill="none" stroke="midnightblue" d="M728.04,-221.3C760.26,-211.13 806.19,-196.62 835.03,-187.52"/>
<polygon fill="midnightblue" stroke="midnightblue" points="726.58,-218.09 718.1,-224.44 728.69,-224.77 726.58,-218.09"/>
</g>
<!-- Node18&#45;&gt;Node4 -->
<g id="edge41" class="edge">
<title>Node18&#45;&gt;Node4</title>
<path fill="none" stroke="midnightblue" d="M713.21,-218.71C749.24,-195.53 819.36,-150.43 848.64,-131.59"/>
<polygon fill="midnightblue" stroke="midnightblue" points="710.93,-216.01 704.42,-224.37 714.72,-221.9 710.93,-216.01"/>
</g>
<!-- Node18&#45;&gt;Node6 -->
<g id="edge43" class="edge">
<title>Node18&#45;&gt;Node6</title>
<path fill="none" stroke="midnightblue" d="M671.2,-218.15C637.92,-192.35 570.26,-136.23 528,-76 515.08,-57.59 505.87,-32.5 501.63,-19.54"/>
<polygon fill="midnightblue" stroke="midnightblue" points="669.19,-221.02 679.26,-224.32 673.44,-215.46 669.19,-221.02"/>
</g>
<!-- Node18&#45;&gt;Node9 -->
<g id="edge42" class="edge">
<title>Node18&#45;&gt;Node9</title>
<path fill="none" stroke="midnightblue" d="M691,-214.35C691,-190.25 691,-149.31 691,-131.59"/>
<polygon fill="midnightblue" stroke="midnightblue" points="687.5,-214.37 691,-224.37 694.5,-214.37 687.5,-214.37"/>
</g>
</g>
</svg>
        <g id="navigator" transform="translate(0 0)" fill="#404254">
                <rect fill="#f2f5e9" fill-opacity="0.5" stroke="#606060" stroke-width=".5" x="0" y="0" width="60" height="60"/>
                <use id="zoomplus" xlink:href="#zoomPlus" x="17" y="9" onmousedown="handleZoom(evt,'in')"/>
                <use id="zoomminus" xlink:href="#zoomMin" x="42" y="9" onmousedown="handleZoom(evt,'out')"/>
                <use id="reset" xlink:href="#resetDef" x="30" y="36" onmousedown="handleReset()"/>
                <g id="arrowUp" xlink:href="#dirArrow" transform="translate(30 24)" onmousedown="handlePan(0,-1)">
                  <use xlink:href="#rim" fill="#404040">
                        <set attributeName="fill" to="#808080" begin="arrowUp.mouseover" end="arrowUp.mouseout"/>
                  </use>
                  <path fill="none" stroke="white" stroke-width="1.5" d="M0,-3.0v7 M-2.5,-0.5L0,-3.0L2.5,-0.5"/>
                </g>
                <g id="arrowRight" xlink:href="#dirArrow" transform="rotate(90) translate(36 -43)" onmousedown="handlePan(1,0)">
                  <use xlink:href="#rim" fill="#404040">
                        <set attributeName="fill" to="#808080" begin="arrowRight.mouseover" end="arrowRight.mouseout"/>
                  </use>
                  <path fill="none" stroke="white" stroke-width="1.5" d="M0,-3.0v7 M-2.5,-0.5L0,-3.0L2.5,-0.5"/>
                </g>
                <g id="arrowDown" xlink:href="#dirArrow" transform="rotate(180) translate(-30 -48)" onmousedown="handlePan(0,1)">
                  <use xlink:href="#rim" fill="#404040">
                        <set attributeName="fill" to="#808080" begin="arrowDown.mouseover" end="arrowDown.mouseout"/>
                  </use>
                  <path fill="none" stroke="white" stroke-width="1.5" d="M0,-3.0v7 M-2.5,-0.5L0,-3.0L2.5,-0.5"/>
                </g>
                <g id="arrowLeft" xlink:href="#dirArrow" transform="rotate(270) translate(-36 17)" onmousedown="handlePan(-1,0)">
                  <use xlink:href="#rim" fill="#404040">
                        <set attributeName="fill" to="#808080" begin="arrowLeft.mouseover" end="arrowLeft.mouseout"/>
                  </use>
                  <path fill="none" stroke="white" stroke-width="1.5" d="M0,-3.0v7 M-2.5,-0.5L0,-3.0L2.5,-0.5"/>
                </g>
        </g>
        <svg viewBox="0 0 15 15" width="100%" height="30px" preserveAspectRatio="xMaxYMin meet">
         <g id="arrow_out" transform="scale(0.3 0.3)">
          <a xlink:href="Boundary_8hpp__dep__incl_org.svg" target="_base">
           <rect id="button" ry="5" rx="5" y="6" x="6" height="38" width="38"
                fill="#f2f5e9" fill-opacity="0.5" stroke="#606060" stroke-width="1.0"/>
           <path id="arrow"
             d="M 11.500037,31.436501 C 11.940474,20.09759 22.043105,11.32322 32.158766,21.979434 L 37.068811,17.246167 C 37.068811,17.246167 37.088388,32 37.088388,32 L 22.160133,31.978069 C 22.160133,31.978069 26.997745,27.140456 26.997745,27.140456 C 18.528582,18.264221 13.291696,25.230495 11.500037,31.436501 z"
             style="fill:#404040;"/>
          </a>
         </g>
        </svg>
</svg>
