<?xml version="1.0" encoding="UTF-8" standalone="no"?>
<!DOCTYPE svg PUBLIC "-//W3C//DTD SVG 1.1//EN"
 "http://www.w3.org/Graphics/SVG/1.1/DTD/svg11.dtd">
<!-- Generated by graphviz version 2.43.0 (0)
 -->
<!-- Title: CalphadBase.hpp Pages: 1 -->
<svg width="432pt" height="140pt"
 viewBox="0.00 0.00 431.50 140.00" xmlns="http://www.w3.org/2000/svg" xmlns:xlink="http://www.w3.org/1999/xlink">
<g id="graph0" class="graph" transform="scale(1 1) rotate(0) translate(4 136)">
<title>CalphadBase.hpp</title>
<!-- Node1 -->
<g id="node1" class="node">
<title>Node1</title>
<g id="a_node1"><a xlink:title="Base class for Calphad objets.">
<polygon fill="#bfbfbf" stroke="black" points="132.5,-112.5 132.5,-131.5 239.5,-131.5 239.5,-112.5 132.5,-112.5"/>
<text text-anchor="middle" x="186" y="-119.5" font-family="serif" font-size="10.00">CalphadBase.hpp</text>
</a>
</g>
</g>
<!-- Node2 -->
<g id="node2" class="node">
<title>Node2</title>
<g id="a_node2"><a xlink:href="AnalyticalIdealSolution_8hpp.html" target="_top" xlink:title="Analytical thermodynamic description for an ideal solution.">
<polygon fill="none" stroke="black" points="0,-56.5 0,-75.5 158,-75.5 158,-56.5 0,-56.5"/>
<text text-anchor="middle" x="79" y="-63.5" font-family="serif" font-size="10.00">AnalyticalIdealSolution.hpp</text>
</a>
</g>
</g>
<!-- Node1&#45;&gt;Node2 -->
<g id="edge1" class="edge">
<title>Node1&#45;&gt;Node2</title>
<path fill="none" stroke="midnightblue" d="M159.7,-107.73C139.89,-97.73 113.29,-84.31 96.15,-75.65"/>
<polygon fill="midnightblue" stroke="midnightblue" points="158.3,-110.94 168.81,-112.32 161.46,-104.69 158.3,-110.94"/>
</g>
<!-- Node3 -->
<g id="node3" class="node">
<title>Node3</title>
<g id="a_node3"><a xlink:href="sloth_8hpp.html" target="_top" xlink:title="List of all header files contained in the kernel directory.">
<polygon fill="none" stroke="black" points="153.5,-0.5 153.5,-19.5 218.5,-19.5 218.5,-0.5 153.5,-0.5"/>
<text text-anchor="middle" x="186" y="-7.5" font-family="serif" font-size="10.00">sloth.hpp</text>
</a>
</g>
</g>
<!-- Node1&#45;&gt;Node3 -->
<g id="edge5" class="edge">
<title>Node1&#45;&gt;Node3</title>
<path fill="none" stroke="midnightblue" d="M186,-102.35C186,-78.25 186,-37.31 186,-19.59"/>
<polygon fill="midnightblue" stroke="midnightblue" points="182.5,-102.37 186,-112.37 189.5,-102.37 182.5,-102.37"/>
</g>
<!-- Node4 -->
<g id="node4" class="node">
<title>Node4</title>
<g id="a_node4"><a xlink:href="CalphadInformedNeuralNetwork_8hpp.html" target="_top" xlink:title="Calphad&#45;informed neuronal network used to predict Calphad contributions.">
<polygon fill="none" stroke="black" points="214.5,-56.5 214.5,-75.5 423.5,-75.5 423.5,-56.5 214.5,-56.5"/>
<text text-anchor="middle" x="319" y="-63.5" font-family="serif" font-size="10.00">CalphadInformedNeuralNetwork.hpp</text>
</a>
</g>
</g>
<!-- Node1&#45;&gt;Node4 -->
<g id="edge3" class="edge">
<title>Node1&#45;&gt;Node4</title>
<path fill="none" stroke="midnightblue" d="M216.45,-108.64C241.41,-98.5 276.08,-84.43 298.02,-75.52"/>
<polygon fill="midnightblue" stroke="midnightblue" points="215.02,-105.44 207.07,-112.44 217.66,-111.92 215.02,-105.44"/>
</g>
<!-- Node2&#45;&gt;Node3 -->
<g id="edge2" class="edge">
<title>Node2&#45;&gt;Node3</title>
<path fill="none" stroke="midnightblue" d="M105.3,-51.73C125.11,-41.73 151.71,-28.31 168.85,-19.65"/>
<polygon fill="midnightblue" stroke="midnightblue" points="103.54,-48.69 96.19,-56.32 106.7,-54.94 103.54,-48.69"/>
</g>
<!-- Node4&#45;&gt;Node3 -->
<g id="edge4" class="edge">
<title>Node4&#45;&gt;Node3</title>
<path fill="none" stroke="midnightblue" d="M288.55,-52.64C263.59,-42.5 228.92,-28.43 206.98,-19.52"/>
<polygon fill="midnightblue" stroke="midnightblue" points="287.34,-55.92 297.93,-56.44 289.98,-49.44 287.34,-55.92"/>
</g>
</g>
</svg>
