<?xml version="1.0" encoding="UTF-8" standalone="no"?>
<!DOCTYPE svg PUBLIC "-//W3C//DTD SVG 1.1//EN"
 "http://www.w3.org/Graphics/SVG/1.1/DTD/svg11.dtd">
<!-- Generated by graphviz version 2.43.0 (0)
 -->
<!-- Title: CalphadUtils.hpp Pages: 1 -->
<svg width="339pt" height="84pt"
 viewBox="0.00 0.00 339.00 84.00" xmlns="http://www.w3.org/2000/svg" xmlns:xlink="http://www.w3.org/1999/xlink">
<g id="graph0" class="graph" transform="scale(1 1) rotate(0) translate(4 80)">
<title>CalphadUtils.hpp</title>
<!-- Node1 -->
<g id="node1" class="node">
<title>Node1</title>
<g id="a_node1"><a xlink:title="Class of methods usefull for to compute equilibrium state object.">
<polygon fill="#bfbfbf" stroke="black" points="127,-56.5 127,-75.5 233,-75.5 233,-56.5 127,-56.5"/>
<text text-anchor="middle" x="180" y="-63.5" font-family="serif" font-size="10.00">CalphadUtils.hpp</text>
</a>
</g>
</g>
<!-- Node2 -->
<g id="node2" class="node">
<title>Node2</title>
<g id="a_node2"><a xlink:title=" ">
<polygon fill="none" stroke="#bfbfbf" points="0,-0.5 0,-19.5 66,-19.5 66,-0.5 0,-0.5"/>
<text text-anchor="middle" x="33" y="-7.5" font-family="serif" font-size="10.00">algorithm</text>
</a>
</g>
</g>
<!-- Node1&#45;&gt;Node2 -->
<g id="edge1" class="edge">
<title>Node1&#45;&gt;Node2</title>
<path fill="none" stroke="midnightblue" d="M156.71,-56.44C132.19,-47.44 93.4,-33.19 65.8,-23.05"/>
<polygon fill="midnightblue" stroke="midnightblue" points="66.78,-19.68 56.18,-19.52 64.36,-26.25 66.78,-19.68"/>
</g>
<!-- Node3 -->
<g id="node3" class="node">
<title>Node3</title>
<g id="a_node3"><a xlink:title=" ">
<polygon fill="none" stroke="#bfbfbf" points="84,-0.5 84,-19.5 138,-19.5 138,-0.5 84,-0.5"/>
<text text-anchor="middle" x="111" y="-7.5" font-family="serif" font-size="10.00">iterator</text>
</a>
</g>
</g>
<!-- Node1&#45;&gt;Node3 -->
<g id="edge2" class="edge">
<title>Node1&#45;&gt;Node3</title>
<path fill="none" stroke="midnightblue" d="M168.91,-56.32C158.51,-48.18 142.74,-35.84 130.28,-26.09"/>
<polygon fill="midnightblue" stroke="midnightblue" points="132.32,-23.24 122.29,-19.83 128.01,-28.75 132.32,-23.24"/>
</g>
<!-- Node4 -->
<g id="node4" class="node">
<title>Node4</title>
<g id="a_node4"><a xlink:title=" ">
<polygon fill="none" stroke="#bfbfbf" points="156.5,-0.5 156.5,-19.5 203.5,-19.5 203.5,-0.5 156.5,-0.5"/>
<text text-anchor="middle" x="180" y="-7.5" font-family="serif" font-size="10.00">string</text>
</a>
</g>
</g>
<!-- Node1&#45;&gt;Node4 -->
<g id="edge3" class="edge">
<title>Node1&#45;&gt;Node4</title>
<path fill="none" stroke="midnightblue" d="M180,-56.08C180,-49.01 180,-38.86 180,-29.99"/>
<polygon fill="midnightblue" stroke="midnightblue" points="183.5,-29.75 180,-19.75 176.5,-29.75 183.5,-29.75"/>
</g>
<!-- Node5 -->
<g id="node5" class="node">
<title>Node5</title>
<g id="a_node5"><a xlink:title=" ">
<polygon fill="none" stroke="#bfbfbf" points="221.5,-0.5 221.5,-19.5 264.5,-19.5 264.5,-0.5 221.5,-0.5"/>
<text text-anchor="middle" x="243" y="-7.5" font-family="serif" font-size="10.00">tuple</text>
</a>
</g>
</g>
<!-- Node1&#45;&gt;Node5 -->
<g id="edge4" class="edge">
<title>Node1&#45;&gt;Node5</title>
<path fill="none" stroke="midnightblue" d="M190.12,-56.32C199.53,-48.26 213.74,-36.08 225.07,-26.37"/>
<polygon fill="midnightblue" stroke="midnightblue" points="227.38,-29 232.69,-19.83 222.82,-23.68 227.38,-29"/>
</g>
<!-- Node6 -->
<g id="node6" class="node">
<title>Node6</title>
<g id="a_node6"><a xlink:title=" ">
<polygon fill="none" stroke="#bfbfbf" points="283,-0.5 283,-19.5 331,-19.5 331,-0.5 283,-0.5"/>
<text text-anchor="middle" x="307" y="-7.5" font-family="serif" font-size="10.00">vector</text>
</a>
</g>
</g>
<!-- Node1&#45;&gt;Node6 -->
<g id="edge5" class="edge">
<title>Node1&#45;&gt;Node6</title>
<path fill="none" stroke="midnightblue" d="M200.12,-56.44C221.02,-47.56 253.93,-33.56 277.72,-23.45"/>
<polygon fill="midnightblue" stroke="midnightblue" points="279.14,-26.65 286.97,-19.52 276.4,-20.21 279.14,-26.65"/>
</g>
</g>
</svg>
