<?xml version="1.0" encoding="UTF-8" standalone="no"?>
<!DOCTYPE svg PUBLIC "-//W3C//DTD SVG 1.1//EN"
 "http://www.w3.org/Graphics/SVG/1.1/DTD/svg11.dtd">
<!-- Generated by graphviz version 2.43.0 (0)
 -->
<!-- Title: CalphadOptions.hpp Pages: 1 -->
<!--zoomable 196 -->
<svg id="main" version="1.1" xmlns="http://www.w3.org/2000/svg" xmlns:xlink="http://www.w3.org/1999/xlink" xml:space="preserve" onload="init(evt)">
<style type="text/css"><![CDATA[
.edge:hover path { stroke: red; }
.edge:hover polygon { stroke: red; fill: red; }
]]></style>
<script type="text/javascript"><![CDATA[
var edges = document.getElementsByTagName('g');
if (edges && edges.length) {
  for (var i=0;i<edges.length;i++) {
    if (edges[i].id.substr(0,4)=='edge') {
      edges[i].setAttribute('class','edge');
    }
  }
}
]]></script>
        <defs>
                <circle id="rim" cx="0" cy="0" r="7"/>
                <circle id="rim2" cx="0" cy="0" r="3.5"/>
                <g id="zoomPlus">
                        <use xlink:href="#rim" fill="#404040">
                                <set attributeName="fill" to="#808080" begin="zoomplus.mouseover" end="zoomplus.mouseout"/>
                        </use>
                        <path d="M-4,0h8M0,-4v8" fill="none" stroke="white" stroke-width="1.5" pointer-events="none"/>
                </g>
                <g id="zoomMin">
                        <use xlink:href="#rim" fill="#404040">
                                <set attributeName="fill" to="#808080" begin="zoomminus.mouseover" end="zoomminus.mouseout"/>
                        </use>
                        <path d="M-4,0h8" fill="none" stroke="white" stroke-width="1.5" pointer-events="none"/>
                </g>
                <g id="dirArrow">
                        <path fill="none" stroke="white" stroke-width="1.5" d="M0,-3.0v7 M-2.5,-0.5L0,-3.0L2.5,-0.5"/>
                </g>
               <g id="resetDef">
                       <use xlink:href="#rim2" fill="#404040">
                               <set attributeName="fill" to="#808080" begin="reset.mouseover" end="reset.mouseout"/>
                       </use>
               </g>
        </defs>

<script type="text/javascript">
var viewWidth = 1420;
var viewHeight = 196;
var sectionId = 'dynsection-0';
</script>
<script xlink:href="svgpan.js"/>
<svg id="graph" class="graph">
<g id="viewport">
<title>CalphadOptions.hpp</title>
<!-- Node1 -->
<g id="node1" class="node">
<title>Node1</title>
<g id="a_node1"><a xlink:title="Options for Calphad problems.">
<polygon fill="#bfbfbf" stroke="black" points="251.5,-168.5 251.5,-187.5 373.5,-187.5 373.5,-168.5 251.5,-168.5"/>
<text text-anchor="middle" x="312.5" y="-175.5" font-family="serif" font-size="10.00">CalphadOptions.hpp</text>
</a>
</g>
</g>
<!-- Node2 -->
<g id="node2" class="node">
<title>Node2</title>
<g id="a_node2"><a xlink:title=" ">
<polygon fill="none" stroke="#bfbfbf" points="237.5,-0.5 237.5,-19.5 281.5,-19.5 281.5,-0.5 237.5,-0.5"/>
<text text-anchor="middle" x="259.5" y="-7.5" font-family="serif" font-size="10.00">limits</text>
</a>
</g>
</g>
<!-- Node1&#45;&gt;Node2 -->
<g id="edge1" class="edge">
<title>Node1&#45;&gt;Node2</title>
<path fill="none" stroke="midnightblue" d="M300.8,-168.45C290.65,-160.31 276.51,-147.09 269.5,-132 254.02,-98.66 254.99,-54.6 257.18,-29.89"/>
<polygon fill="midnightblue" stroke="midnightblue" points="260.68,-30.04 258.25,-19.73 253.72,-29.3 260.68,-30.04"/>
</g>
<!-- Node3 -->
<g id="node3" class="node">
<title>Node3</title>
<g id="a_node3"><a xlink:title=" ">
<polygon fill="none" stroke="#bfbfbf" points="450,-0.5 450,-19.5 497,-19.5 497,-0.5 450,-0.5"/>
<text text-anchor="middle" x="473.5" y="-7.5" font-family="serif" font-size="10.00">string</text>
</a>
</g>
</g>
<!-- Node1&#45;&gt;Node3 -->
<g id="edge2" class="edge">
<title>Node1&#45;&gt;Node3</title>
<path fill="none" stroke="midnightblue" d="M367.89,-168.47C452.76,-154.05 608.26,-121.91 637.5,-76 642.27,-68.5 642.89,-63.07 637.5,-56 637.37,-55.83 554.91,-33.26 506.98,-20.15"/>
<polygon fill="midnightblue" stroke="midnightblue" points="507.89,-16.77 497.32,-17.51 506.05,-23.53 507.89,-16.77"/>
</g>
<!-- Node4 -->
<g id="node4" class="node">
<title>Node4</title>
<g id="a_node4"><a xlink:title=" ">
<polygon fill="none" stroke="#bfbfbf" points="299.5,-0.5 299.5,-19.5 347.5,-19.5 347.5,-0.5 299.5,-0.5"/>
<text text-anchor="middle" x="323.5" y="-7.5" font-family="serif" font-size="10.00">vector</text>
</a>
</g>
</g>
<!-- Node1&#45;&gt;Node4 -->
<g id="edge3" class="edge">
<title>Node1&#45;&gt;Node4</title>
<path fill="none" stroke="midnightblue" d="M305.07,-168.26C288.81,-148.02 252.97,-96.55 271.5,-56 277.28,-43.36 288.55,-32.91 299.13,-25.27"/>
<polygon fill="midnightblue" stroke="midnightblue" points="301.35,-28 307.72,-19.53 297.46,-22.18 301.35,-28"/>
</g>
<!-- Node5 -->
<g id="node5" class="node">
<title>Node5</title>
<g id="a_node5"><a xlink:href="Utils_8hpp.html" target="_top" xlink:title="List of all Utils files.">
<polygon fill="none" stroke="black" points="419,-112.5 419,-131.5 508,-131.5 508,-112.5 419,-112.5"/>
<text text-anchor="middle" x="463.5" y="-119.5" font-family="serif" font-size="10.00">Utils/Utils.hpp</text>
</a>
</g>
</g>
<!-- Node1&#45;&gt;Node5 -->
<g id="edge4" class="edge">
<title>Node1&#45;&gt;Node5</title>
<path fill="none" stroke="midnightblue" d="M336.43,-168.44C361.72,-159.4 401.8,-145.06 430.18,-134.92"/>
<polygon fill="midnightblue" stroke="midnightblue" points="431.45,-138.18 439.69,-131.52 429.09,-131.59 431.45,-138.18"/>
</g>
<!-- Node6 -->
<g id="node6" class="node">
<title>Node6</title>
<g id="a_node6"><a xlink:href="UtilsForData_8hpp.html" target="_top" xlink:title="Usefull methods for data.">
<polygon fill="none" stroke="black" points="685,-56.5 685,-75.5 816,-75.5 816,-56.5 685,-56.5"/>
<text text-anchor="middle" x="750.5" y="-63.5" font-family="serif" font-size="10.00">Utils/UtilsForData.hpp</text>
</a>
</g>
</g>
<!-- Node5&#45;&gt;Node6 -->
<g id="edge5" class="edge">
<title>Node5&#45;&gt;Node6</title>
<path fill="none" stroke="midnightblue" d="M508.03,-112.62C558.42,-103.14 640.57,-87.68 695.08,-77.43"/>
<polygon fill="midnightblue" stroke="midnightblue" points="695.74,-80.87 704.92,-75.58 694.44,-73.99 695.74,-80.87"/>
</g>
<!-- Node18 -->
<g id="node18" class="node">
<title>Node18</title>
<g id="a_node18"><a xlink:href="UtilsForDebug_8hpp.html" target="_top" xlink:title="Usefull methods for debug.">
<polygon fill="none" stroke="black" points="936,-56.5 936,-75.5 1077,-75.5 1077,-56.5 936,-56.5"/>
<text text-anchor="middle" x="1006.5" y="-63.5" font-family="serif" font-size="10.00">Utils/UtilsForDebug.hpp</text>
</a>
</g>
</g>
<!-- Node5&#45;&gt;Node18 -->
<g id="edge19" class="edge">
<title>Node5&#45;&gt;Node18</title>
<path fill="none" stroke="midnightblue" d="M508.4,-116.54C600.03,-107.42 809.68,-86.57 925.65,-75.04"/>
<polygon fill="midnightblue" stroke="midnightblue" points="926.28,-78.5 935.88,-74.02 925.59,-71.53 926.28,-78.5"/>
</g>
<!-- Node21 -->
<g id="node21" class="node">
<title>Node21</title>
<g id="a_node21"><a xlink:href="UtilsForOptions_8hpp.html" target="_top" xlink:title="Usefull methods for Options.">
<polygon fill="none" stroke="black" points="482.5,-56.5 482.5,-75.5 628.5,-75.5 628.5,-56.5 482.5,-56.5"/>
<text text-anchor="middle" x="555.5" y="-63.5" font-family="serif" font-size="10.00">Utils/UtilsForOptions.hpp</text>
</a>
</g>
</g>
<!-- Node5&#45;&gt;Node21 -->
<g id="edge29" class="edge">
<title>Node5&#45;&gt;Node21</title>
<path fill="none" stroke="midnightblue" d="M478.28,-112.32C492.77,-103.82 515.07,-90.73 531.99,-80.8"/>
<polygon fill="midnightblue" stroke="midnightblue" points="533.9,-83.74 540.76,-75.65 530.36,-77.7 533.9,-83.74"/>
</g>
<!-- Node23 -->
<g id="node23" class="node">
<title>Node23</title>
<g id="a_node23"><a xlink:href="UtilsForPostProcessing_8hpp.html" target="_top" xlink:title="Usefull methods for post&#45;processing.">
<polygon fill="none" stroke="black" points="281,-56.5 281,-75.5 464,-75.5 464,-56.5 281,-56.5"/>
<text text-anchor="middle" x="372.5" y="-63.5" font-family="serif" font-size="10.00">Utils/UtilsForPostProcessing.hpp</text>
</a>
</g>
</g>
<!-- Node5&#45;&gt;Node23 -->
<g id="edge39" class="edge">
<title>Node5&#45;&gt;Node23</title>
<path fill="none" stroke="midnightblue" d="M448.88,-112.32C434.55,-103.82 412.49,-90.73 395.75,-80.8"/>
<polygon fill="midnightblue" stroke="midnightblue" points="397.47,-77.75 387.08,-75.65 393.9,-83.77 397.47,-77.75"/>
</g>
<!-- Node24 -->
<g id="node24" class="node">
<title>Node24</title>
<g id="a_node24"><a xlink:href="UtilsForVariants_8hpp.html" target="_top" xlink:title="manage std::Variants">
<polygon fill="none" stroke="black" points="38.5,-56.5 38.5,-75.5 186.5,-75.5 186.5,-56.5 38.5,-56.5"/>
<text text-anchor="middle" x="112.5" y="-63.5" font-family="serif" font-size="10.00">Utils/UtilsForVariants.hpp</text>
</a>
</g>
</g>
<!-- Node5&#45;&gt;Node24 -->
<g id="edge46" class="edge">
<title>Node5&#45;&gt;Node24</title>
<path fill="none" stroke="midnightblue" d="M418.69,-114.11C357.74,-104.73 248.28,-87.89 178.08,-77.09"/>
<polygon fill="midnightblue" stroke="midnightblue" points="178.44,-73.6 168.02,-75.54 177.37,-80.52 178.44,-73.6"/>
</g>
<!-- Node6&#45;&gt;Node3 -->
<g id="edge14" class="edge">
<title>Node6&#45;&gt;Node3</title>
<path fill="none" stroke="midnightblue" d="M696.93,-56.45C649.54,-48.59 578.34,-36.04 507.26,-20.01"/>
<polygon fill="midnightblue" stroke="midnightblue" points="507.76,-16.54 497.23,-17.73 506.21,-23.36 507.76,-16.54"/>
</g>
<!-- Node6&#45;&gt;Node4 -->
<g id="edge17" class="edge">
<title>Node6&#45;&gt;Node4</title>
<path fill="none" stroke="midnightblue" d="M684.62,-58.71C593.59,-49.81 432.95,-33.33 357.6,-19.89"/>
<polygon fill="midnightblue" stroke="midnightblue" points="358.02,-16.41 347.55,-18.01 356.74,-23.29 358.02,-16.41"/>
</g>
<!-- Node7 -->
<g id="node7" class="node">
<title>Node7</title>
<g id="a_node7"><a xlink:title=" ">
<polygon fill="none" stroke="#bfbfbf" points="1018,-0.5 1018,-19.5 1077,-19.5 1077,-0.5 1018,-0.5"/>
<text text-anchor="middle" x="1047.5" y="-7.5" font-family="serif" font-size="10.00">unistd.h</text>
</a>
</g>
</g>
<!-- Node6&#45;&gt;Node7 -->
<g id="edge6" class="edge">
<title>Node6&#45;&gt;Node7</title>
<path fill="none" stroke="midnightblue" d="M804.52,-56.45C854.58,-48.33 931.36,-35.38 1007.48,-20.12"/>
<polygon fill="midnightblue" stroke="midnightblue" points="1008.62,-23.46 1017.73,-18.05 1007.23,-16.6 1008.62,-23.46"/>
</g>
<!-- Node8 -->
<g id="node8" class="node">
<title>Node8</title>
<g id="a_node8"><a xlink:title=" ">
<polygon fill="none" stroke="#bfbfbf" points="719.5,-0.5 719.5,-19.5 769.5,-19.5 769.5,-0.5 719.5,-0.5"/>
<text text-anchor="middle" x="744.5" y="-7.5" font-family="serif" font-size="10.00">cctype</text>
</a>
</g>
</g>
<!-- Node6&#45;&gt;Node8 -->
<g id="edge7" class="edge">
<title>Node6&#45;&gt;Node8</title>
<path fill="none" stroke="midnightblue" d="M749.51,-56.08C748.71,-48.93 747.57,-38.64 746.58,-29.69"/>
<polygon fill="midnightblue" stroke="midnightblue" points="750.06,-29.3 745.47,-19.75 743.1,-30.08 750.06,-29.3"/>
</g>
<!-- Node9 -->
<g id="node9" class="node">
<title>Node9</title>
<g id="a_node9"><a xlink:title=" ">
<polygon fill="none" stroke="#bfbfbf" points="1095,-0.5 1095,-19.5 1142,-19.5 1142,-0.5 1095,-0.5"/>
<text text-anchor="middle" x="1118.5" y="-7.5" font-family="serif" font-size="10.00">cstdio</text>
</a>
</g>
</g>
<!-- Node6&#45;&gt;Node9 -->
<g id="edge8" class="edge">
<title>Node6&#45;&gt;Node9</title>
<path fill="none" stroke="midnightblue" d="M816,-58.99C881.86,-52.32 986.41,-40.05 1085,-20.08"/>
<polygon fill="midnightblue" stroke="midnightblue" points="1085.74,-23.5 1094.83,-18.06 1084.33,-16.65 1085.74,-23.5"/>
</g>
<!-- Node10 -->
<g id="node10" class="node">
<title>Node10</title>
<g id="a_node10"><a xlink:title=" ">
<polygon fill="none" stroke="#bfbfbf" points="365.5,-0.5 365.5,-19.5 431.5,-19.5 431.5,-0.5 365.5,-0.5"/>
<text text-anchor="middle" x="398.5" y="-7.5" font-family="serif" font-size="10.00">algorithm</text>
</a>
</g>
</g>
<!-- Node6&#45;&gt;Node10 -->
<g id="edge9" class="edge">
<title>Node6&#45;&gt;Node10</title>
<path fill="none" stroke="midnightblue" d="M684.91,-56.64C624.43,-48.66 531.95,-35.78 441.66,-19.93"/>
<polygon fill="midnightblue" stroke="midnightblue" points="442.25,-16.48 431.8,-18.18 441.03,-23.37 442.25,-16.48"/>
</g>
<!-- Node11 -->
<g id="node11" class="node">
<title>Node11</title>
<g id="a_node11"><a xlink:title=" ">
<polygon fill="none" stroke="#bfbfbf" points="787.5,-0.5 787.5,-19.5 855.5,-19.5 855.5,-0.5 787.5,-0.5"/>
<text text-anchor="middle" x="821.5" y="-7.5" font-family="serif" font-size="10.00">filesystem</text>
</a>
</g>
</g>
<!-- Node6&#45;&gt;Node11 -->
<g id="edge10" class="edge">
<title>Node6&#45;&gt;Node11</title>
<path fill="none" stroke="midnightblue" d="M761.91,-56.32C772.61,-48.18 788.84,-35.84 801.66,-26.09"/>
<polygon fill="midnightblue" stroke="midnightblue" points="804.04,-28.67 809.89,-19.83 799.81,-23.1 804.04,-28.67"/>
</g>
<!-- Node12 -->
<g id="node12" class="node">
<title>Node12</title>
<g id="a_node12"><a xlink:title=" ">
<polygon fill="none" stroke="#bfbfbf" points="931.5,-0.5 931.5,-19.5 999.5,-19.5 999.5,-0.5 931.5,-0.5"/>
<text text-anchor="middle" x="965.5" y="-7.5" font-family="serif" font-size="10.00">functional</text>
</a>
</g>
</g>
<!-- Node6&#45;&gt;Node12 -->
<g id="edge11" class="edge">
<title>Node6&#45;&gt;Node12</title>
<path fill="none" stroke="midnightblue" d="M784.57,-56.44C821.68,-47.12 881.16,-32.18 921.71,-22"/>
<polygon fill="midnightblue" stroke="midnightblue" points="922.75,-25.35 931.59,-19.52 921.04,-18.56 922.75,-25.35"/>
</g>
<!-- Node13 -->
<g id="node13" class="node">
<title>Node13</title>
<g id="a_node13"><a xlink:title=" ">
<polygon fill="none" stroke="#bfbfbf" points="515,-0.5 515,-19.5 576,-19.5 576,-0.5 515,-0.5"/>
<text text-anchor="middle" x="545.5" y="-7.5" font-family="serif" font-size="10.00">iostream</text>
</a>
</g>
</g>
<!-- Node6&#45;&gt;Node13 -->
<g id="edge12" class="edge">
<title>Node6&#45;&gt;Node13</title>
<path fill="none" stroke="midnightblue" d="M718.02,-56.44C682.26,-47.03 624.73,-31.87 586.05,-21.68"/>
<polygon fill="midnightblue" stroke="midnightblue" points="586.72,-18.24 576.16,-19.08 584.94,-25.01 586.72,-18.24"/>
</g>
<!-- Node14 -->
<g id="node14" class="node">
<title>Node14</title>
<g id="a_node14"><a xlink:title=" ">
<polygon fill="none" stroke="#bfbfbf" points="874,-0.5 874,-19.5 913,-19.5 913,-0.5 874,-0.5"/>
<text text-anchor="middle" x="893.5" y="-7.5" font-family="serif" font-size="10.00">map</text>
</a>
</g>
</g>
<!-- Node6&#45;&gt;Node14 -->
<g id="edge13" class="edge">
<title>Node6&#45;&gt;Node14</title>
<path fill="none" stroke="midnightblue" d="M773.16,-56.44C797.74,-47.16 837.07,-32.31 864.04,-22.13"/>
<polygon fill="midnightblue" stroke="midnightblue" points="865.59,-25.28 873.71,-18.47 863.12,-18.73 865.59,-25.28"/>
</g>
<!-- Node15 -->
<g id="node15" class="node">
<title>Node15</title>
<g id="a_node15"><a xlink:title=" ">
<polygon fill="none" stroke="#bfbfbf" points="594,-0.5 594,-19.5 637,-19.5 637,-0.5 594,-0.5"/>
<text text-anchor="middle" x="615.5" y="-7.5" font-family="serif" font-size="10.00">tuple</text>
</a>
</g>
</g>
<!-- Node6&#45;&gt;Node15 -->
<g id="edge15" class="edge">
<title>Node6&#45;&gt;Node15</title>
<path fill="none" stroke="midnightblue" d="M729.11,-56.44C706.79,-47.52 671.6,-33.44 646.29,-23.32"/>
<polygon fill="midnightblue" stroke="midnightblue" points="647.38,-19.98 636.79,-19.52 644.78,-26.48 647.38,-19.98"/>
</g>
<!-- Node16 -->
<g id="node16" class="node">
<title>Node16</title>
<g id="a_node16"><a xlink:title=" ">
<polygon fill="none" stroke="#bfbfbf" points="655.5,-0.5 655.5,-19.5 701.5,-19.5 701.5,-0.5 655.5,-0.5"/>
<text text-anchor="middle" x="678.5" y="-7.5" font-family="serif" font-size="10.00">utility</text>
</a>
</g>
</g>
<!-- Node6&#45;&gt;Node16 -->
<g id="edge16" class="edge">
<title>Node6&#45;&gt;Node16</title>
<path fill="none" stroke="midnightblue" d="M738.93,-56.32C728.08,-48.18 711.62,-35.84 698.62,-26.09"/>
<polygon fill="midnightblue" stroke="midnightblue" points="700.38,-23.03 690.28,-19.83 696.18,-28.63 700.38,-23.03"/>
</g>
<!-- Node17 -->
<g id="node17" class="node">
<title>Node17</title>
<g id="a_node17"><a xlink:title=" ">
<polygon fill="none" stroke="#bfbfbf" points="1160,-0.5 1160,-19.5 1229,-19.5 1229,-0.5 1160,-0.5"/>
<text text-anchor="middle" x="1194.5" y="-7.5" font-family="serif" font-size="10.00">mfem.hpp</text>
</a>
</g>
</g>
<!-- Node6&#45;&gt;Node17 -->
<g id="edge18" class="edge">
<title>Node6&#45;&gt;Node17</title>
<path fill="none" stroke="midnightblue" d="M816.05,-59.56C893.56,-52.7 1026.66,-39.58 1149.83,-20.15"/>
<polygon fill="midnightblue" stroke="midnightblue" points="1150.49,-23.58 1159.82,-18.55 1149.39,-16.67 1150.49,-23.58"/>
</g>
<!-- Node18&#45;&gt;Node3 -->
<g id="edge26" class="edge">
<title>Node18&#45;&gt;Node3</title>
<path fill="none" stroke="midnightblue" d="M935.53,-60.17C821.9,-52.17 603.01,-35.68 507.16,-19.74"/>
<polygon fill="midnightblue" stroke="midnightblue" points="507.63,-16.27 497.18,-18 506.43,-23.16 507.63,-16.27"/>
</g>
<!-- Node18&#45;&gt;Node7 -->
<g id="edge21" class="edge">
<title>Node18&#45;&gt;Node7</title>
<path fill="none" stroke="midnightblue" d="M1013.27,-56.08C1019.06,-48.46 1027.56,-37.26 1034.64,-27.94"/>
<polygon fill="midnightblue" stroke="midnightblue" points="1037.6,-29.83 1040.86,-19.75 1032.02,-25.6 1037.6,-29.83"/>
</g>
<!-- Node18&#45;&gt;Node9 -->
<g id="edge22" class="edge">
<title>Node18&#45;&gt;Node9</title>
<path fill="none" stroke="midnightblue" d="M1024.49,-56.32C1042.54,-47.62 1070.55,-34.12 1091.3,-24.11"/>
<polygon fill="midnightblue" stroke="midnightblue" points="1093.06,-27.15 1100.55,-19.65 1090.02,-20.84 1093.06,-27.15"/>
</g>
<!-- Node18&#45;&gt;Node12 -->
<g id="edge24" class="edge">
<title>Node18&#45;&gt;Node12</title>
<path fill="none" stroke="midnightblue" d="M999.73,-56.08C993.94,-48.46 985.44,-37.26 978.36,-27.94"/>
<polygon fill="midnightblue" stroke="midnightblue" points="980.98,-25.6 972.14,-19.75 975.4,-29.83 980.98,-25.6"/>
</g>
<!-- Node18&#45;&gt;Node13 -->
<g id="edge25" class="edge">
<title>Node18&#45;&gt;Node13</title>
<path fill="none" stroke="midnightblue" d="M935.77,-59.93C853.98,-53.52 715.15,-40.9 586.07,-19.9"/>
<polygon fill="midnightblue" stroke="midnightblue" points="586.44,-16.41 576,-18.24 585.3,-23.32 586.44,-16.41"/>
</g>
<!-- Node18&#45;&gt;Node16 -->
<g id="edge27" class="edge">
<title>Node18&#45;&gt;Node16</title>
<path fill="none" stroke="midnightblue" d="M935.78,-56.74C877.89,-49.41 793.73,-37.45 711.81,-20.07"/>
<polygon fill="midnightblue" stroke="midnightblue" points="712.35,-16.6 701.84,-17.92 710.88,-23.45 712.35,-16.6"/>
</g>
<!-- Node18&#45;&gt;Node17 -->
<g id="edge28" class="edge">
<title>Node18&#45;&gt;Node17</title>
<path fill="none" stroke="midnightblue" d="M1036.29,-56.44C1068.33,-47.24 1119.43,-32.56 1154.85,-22.39"/>
<polygon fill="midnightblue" stroke="midnightblue" points="1156.21,-25.64 1164.85,-19.52 1154.27,-18.91 1156.21,-25.64"/>
</g>
<!-- Node19 -->
<g id="node19" class="node">
<title>Node19</title>
<g id="a_node19"><a xlink:title=" ">
<polygon fill="none" stroke="#bfbfbf" points="1247.5,-0.5 1247.5,-19.5 1337.5,-19.5 1337.5,-0.5 1247.5,-0.5"/>
<text text-anchor="middle" x="1292.5" y="-7.5" font-family="serif" font-size="10.00">sys/resource.h</text>
</a>
</g>
</g>
<!-- Node18&#45;&gt;Node19 -->
<g id="edge20" class="edge">
<title>Node18&#45;&gt;Node19</title>
<path fill="none" stroke="midnightblue" d="M1051.82,-56.44C1102.13,-46.94 1183.34,-31.61 1237.31,-21.42"/>
<polygon fill="midnightblue" stroke="midnightblue" points="1238.22,-24.81 1247.39,-19.52 1236.92,-17.93 1238.22,-24.81"/>
</g>
<!-- Node20 -->
<g id="node20" class="node">
<title>Node20</title>
<g id="a_node20"><a xlink:title=" ">
<polygon fill="none" stroke="#bfbfbf" points="1355.5,-0.5 1355.5,-19.5 1411.5,-19.5 1411.5,-0.5 1355.5,-0.5"/>
<text text-anchor="middle" x="1383.5" y="-7.5" font-family="serif" font-size="10.00">fstream</text>
</a>
</g>
</g>
<!-- Node18&#45;&gt;Node20 -->
<g id="edge23" class="edge">
<title>Node18&#45;&gt;Node20</title>
<path fill="none" stroke="midnightblue" d="M1077.18,-57.88C1143.9,-50.65 1246.91,-38.18 1345.18,-20.08"/>
<polygon fill="midnightblue" stroke="midnightblue" points="1346.1,-23.47 1355.29,-18.19 1344.81,-16.59 1346.1,-23.47"/>
</g>
<!-- Node21&#45;&gt;Node2 -->
<g id="edge33" class="edge">
<title>Node21&#45;&gt;Node2</title>
<path fill="none" stroke="midnightblue" d="M493.26,-56.49C441.62,-48.95 366.12,-36.87 291.78,-20.09"/>
<polygon fill="midnightblue" stroke="midnightblue" points="292.3,-16.61 281.77,-17.8 290.74,-23.44 292.3,-16.61"/>
</g>
<!-- Node21&#45;&gt;Node3 -->
<g id="edge34" class="edge">
<title>Node21&#45;&gt;Node3</title>
<path fill="none" stroke="midnightblue" d="M542.33,-56.32C529.65,-47.98 510.27,-35.21 495.29,-25.35"/>
<polygon fill="midnightblue" stroke="midnightblue" points="496.92,-22.23 486.64,-19.65 493.07,-28.08 496.92,-22.23"/>
</g>
<!-- Node21&#45;&gt;Node4 -->
<g id="edge38" class="edge">
<title>Node21&#45;&gt;Node4</title>
<path fill="none" stroke="midnightblue" d="M515.36,-56.46C477.2,-48.23 417.98,-35.14 357.69,-20.22"/>
<polygon fill="midnightblue" stroke="midnightblue" points="358.17,-16.73 347.62,-17.71 356.48,-23.52 358.17,-16.73"/>
</g>
<!-- Node21&#45;&gt;Node10 -->
<g id="edge30" class="edge">
<title>Node21&#45;&gt;Node10</title>
<path fill="none" stroke="midnightblue" d="M530.62,-56.44C504.21,-47.36 462.28,-32.94 432.76,-22.78"/>
<polygon fill="midnightblue" stroke="midnightblue" points="433.86,-19.46 423.26,-19.52 431.58,-26.08 433.86,-19.46"/>
</g>
<!-- Node21&#45;&gt;Node12 -->
<g id="edge31" class="edge">
<title>Node21&#45;&gt;Node12</title>
<path fill="none" stroke="midnightblue" d="M628.53,-57.88C700.53,-50.44 813.9,-37.62 921.25,-20.09"/>
<polygon fill="midnightblue" stroke="midnightblue" points="921.98,-23.51 931.28,-18.43 920.85,-16.61 921.98,-23.51"/>
</g>
<!-- Node21&#45;&gt;Node13 -->
<g id="edge32" class="edge">
<title>Node21&#45;&gt;Node13</title>
<path fill="none" stroke="midnightblue" d="M553.85,-56.08C552.52,-48.93 550.62,-38.64 548.96,-29.69"/>
<polygon fill="midnightblue" stroke="midnightblue" points="552.38,-28.95 547.12,-19.75 545.5,-30.22 552.38,-28.95"/>
</g>
<!-- Node21&#45;&gt;Node15 -->
<g id="edge35" class="edge">
<title>Node21&#45;&gt;Node15</title>
<path fill="none" stroke="midnightblue" d="M565.14,-56.32C574.01,-48.34 587.37,-36.31 598.11,-26.65"/>
<polygon fill="midnightblue" stroke="midnightblue" points="600.59,-29.13 605.68,-19.83 595.91,-23.92 600.59,-29.13"/>
</g>
<!-- Node21&#45;&gt;Node16 -->
<g id="edge36" class="edge">
<title>Node21&#45;&gt;Node16</title>
<path fill="none" stroke="midnightblue" d="M574.99,-56.44C595.14,-47.6 626.82,-33.69 649.83,-23.59"/>
<polygon fill="midnightblue" stroke="midnightblue" points="651.35,-26.74 659.1,-19.52 648.54,-20.33 651.35,-26.74"/>
</g>
<!-- Node22 -->
<g id="node22" class="node">
<title>Node22</title>
<g id="a_node22"><a xlink:title=" ">
<polygon fill="none" stroke="#bfbfbf" points="166,-0.5 166,-19.5 219,-19.5 219,-0.5 166,-0.5"/>
<text text-anchor="middle" x="192.5" y="-7.5" font-family="serif" font-size="10.00">variant</text>
</a>
</g>
</g>
<!-- Node21&#45;&gt;Node22 -->
<g id="edge37" class="edge">
<title>Node21&#45;&gt;Node22</title>
<path fill="none" stroke="midnightblue" d="M487.2,-56.49C410.77,-46.81 290.65,-31.13 229.22,-19.91"/>
<polygon fill="midnightblue" stroke="midnightblue" points="229.64,-16.43 219.16,-18.01 228.34,-23.3 229.64,-16.43"/>
</g>
<!-- Node23&#45;&gt;Node2 -->
<g id="edge42" class="edge">
<title>Node23&#45;&gt;Node2</title>
<path fill="none" stroke="midnightblue" d="M354.59,-56.44C336.25,-47.68 307.49,-33.94 286.41,-23.86"/>
<polygon fill="midnightblue" stroke="midnightblue" points="287.85,-20.67 277.32,-19.52 284.83,-26.99 287.85,-20.67"/>
</g>
<!-- Node23&#45;&gt;Node3 -->
<g id="edge43" class="edge">
<title>Node23&#45;&gt;Node3</title>
<path fill="none" stroke="midnightblue" d="M388.73,-56.32C404.85,-47.7 429.8,-34.36 448.46,-24.39"/>
<polygon fill="midnightblue" stroke="midnightblue" points="450.14,-27.46 457.31,-19.65 446.84,-21.28 450.14,-27.46"/>
</g>
<!-- Node23&#45;&gt;Node4 -->
<g id="edge45" class="edge">
<title>Node23&#45;&gt;Node4</title>
<path fill="none" stroke="midnightblue" d="M364.41,-56.08C357.34,-48.3 346.91,-36.8 338.35,-27.37"/>
<polygon fill="midnightblue" stroke="midnightblue" points="340.75,-24.8 331.44,-19.75 335.57,-29.51 340.75,-24.8"/>
</g>
<!-- Node23&#45;&gt;Node10 -->
<g id="edge40" class="edge">
<title>Node23&#45;&gt;Node10</title>
<path fill="none" stroke="midnightblue" d="M376.79,-56.08C380.35,-48.69 385.52,-37.95 389.92,-28.81"/>
<polygon fill="midnightblue" stroke="midnightblue" points="393.1,-30.28 394.29,-19.75 386.79,-27.24 393.1,-30.28"/>
</g>
<!-- Node23&#45;&gt;Node13 -->
<g id="edge41" class="edge">
<title>Node23&#45;&gt;Node13</title>
<path fill="none" stroke="midnightblue" d="M399.91,-56.44C429.27,-47.28 476.02,-32.69 508.6,-22.52"/>
<polygon fill="midnightblue" stroke="midnightblue" points="509.71,-25.84 518.22,-19.52 507.63,-19.16 509.71,-25.84"/>
</g>
<!-- Node23&#45;&gt;Node16 -->
<g id="edge44" class="edge">
<title>Node23&#45;&gt;Node16</title>
<path fill="none" stroke="midnightblue" d="M437.11,-56.46C490.59,-48.92 568.71,-36.82 645.34,-20.06"/>
<polygon fill="midnightblue" stroke="midnightblue" points="646.15,-23.47 655.16,-17.89 644.64,-16.63 646.15,-23.47"/>
</g>
<!-- Node24&#45;&gt;Node22 -->
<g id="edge49" class="edge">
<title>Node24&#45;&gt;Node22</title>
<path fill="none" stroke="midnightblue" d="M125.35,-56.32C137.72,-47.98 156.63,-35.21 171.24,-25.35"/>
<polygon fill="midnightblue" stroke="midnightblue" points="173.35,-28.15 179.68,-19.65 169.43,-22.35 173.35,-28.15"/>
</g>
<!-- Node25 -->
<g id="node25" class="node">
<title>Node25</title>
<g id="a_node25"><a xlink:title=" ">
<polygon fill="none" stroke="#bfbfbf" points="0,-0.5 0,-19.5 59,-19.5 59,-0.5 0,-0.5"/>
<text text-anchor="middle" x="29.5" y="-7.5" font-family="serif" font-size="10.00">memory</text>
</a>
</g>
</g>
<!-- Node24&#45;&gt;Node25 -->
<g id="edge47" class="edge">
<title>Node24&#45;&gt;Node25</title>
<path fill="none" stroke="midnightblue" d="M99.16,-56.32C86.34,-47.98 66.72,-35.21 51.56,-25.35"/>
<polygon fill="midnightblue" stroke="midnightblue" points="53.09,-22.17 42.8,-19.65 49.28,-28.04 53.09,-22.17"/>
</g>
<!-- Node26 -->
<g id="node26" class="node">
<title>Node26</title>
<g id="a_node26"><a xlink:title=" ">
<polygon fill="none" stroke="#bfbfbf" points="77,-0.5 77,-19.5 148,-19.5 148,-0.5 77,-0.5"/>
<text text-anchor="middle" x="112.5" y="-7.5" font-family="serif" font-size="10.00">type_traits</text>
</a>
</g>
</g>
<!-- Node24&#45;&gt;Node26 -->
<g id="edge48" class="edge">
<title>Node24&#45;&gt;Node26</title>
<path fill="none" stroke="midnightblue" d="M112.5,-56.08C112.5,-49.01 112.5,-38.86 112.5,-29.99"/>
<polygon fill="midnightblue" stroke="midnightblue" points="116,-29.75 112.5,-19.75 109,-29.75 116,-29.75"/>
</g>
</g>
</svg>
        <g id="navigator" transform="translate(0 0)" fill="#404254">
                <rect fill="#f2f5e9" fill-opacity="0.5" stroke="#606060" stroke-width=".5" x="0" y="0" width="60" height="60"/>
                <use id="zoomplus" xlink:href="#zoomPlus" x="17" y="9" onmousedown="handleZoom(evt,'in')"/>
                <use id="zoomminus" xlink:href="#zoomMin" x="42" y="9" onmousedown="handleZoom(evt,'out')"/>
                <use id="reset" xlink:href="#resetDef" x="30" y="36" onmousedown="handleReset()"/>
                <g id="arrowUp" xlink:href="#dirArrow" transform="translate(30 24)" onmousedown="handlePan(0,-1)">
                  <use xlink:href="#rim" fill="#404040">
                        <set attributeName="fill" to="#808080" begin="arrowUp.mouseover" end="arrowUp.mouseout"/>
                  </use>
                  <path fill="none" stroke="white" stroke-width="1.5" d="M0,-3.0v7 M-2.5,-0.5L0,-3.0L2.5,-0.5"/>
                </g>
                <g id="arrowRight" xlink:href="#dirArrow" transform="rotate(90) translate(36 -43)" onmousedown="handlePan(1,0)">
                  <use xlink:href="#rim" fill="#404040">
                        <set attributeName="fill" to="#808080" begin="arrowRight.mouseover" end="arrowRight.mouseout"/>
                  </use>
                  <path fill="none" stroke="white" stroke-width="1.5" d="M0,-3.0v7 M-2.5,-0.5L0,-3.0L2.5,-0.5"/>
                </g>
                <g id="arrowDown" xlink:href="#dirArrow" transform="rotate(180) translate(-30 -48)" onmousedown="handlePan(0,1)">
                  <use xlink:href="#rim" fill="#404040">
                        <set attributeName="fill" to="#808080" begin="arrowDown.mouseover" end="arrowDown.mouseout"/>
                  </use>
                  <path fill="none" stroke="white" stroke-width="1.5" d="M0,-3.0v7 M-2.5,-0.5L0,-3.0L2.5,-0.5"/>
                </g>
                <g id="arrowLeft" xlink:href="#dirArrow" transform="rotate(270) translate(-36 17)" onmousedown="handlePan(-1,0)">
                  <use xlink:href="#rim" fill="#404040">
                        <set attributeName="fill" to="#808080" begin="arrowLeft.mouseover" end="arrowLeft.mouseout"/>
                  </use>
                  <path fill="none" stroke="white" stroke-width="1.5" d="M0,-3.0v7 M-2.5,-0.5L0,-3.0L2.5,-0.5"/>
                </g>
        </g>
        <svg viewBox="0 0 15 15" width="100%" height="30px" preserveAspectRatio="xMaxYMin meet">
         <g id="arrow_out" transform="scale(0.3 0.3)">
          <a xlink:href="CalphadOptions_8hpp__incl_org.svg" target="_base">
           <rect id="button" ry="5" rx="5" y="6" x="6" height="38" width="38"
                fill="#f2f5e9" fill-opacity="0.5" stroke="#606060" stroke-width="1.0"/>
           <path id="arrow"
             d="M 11.500037,31.436501 C 11.940474,20.09759 22.043105,11.32322 32.158766,21.979434 L 37.068811,17.246167 C 37.068811,17.246167 37.088388,32 37.088388,32 L 22.160133,31.978069 C 22.160133,31.978069 26.997745,27.140456 26.997745,27.140456 C 18.528582,18.264221 13.291696,25.230495 11.500037,31.436501 z"
             style="fill:#404040;"/>
          </a>
         </g>
        </svg>
</svg>
