<?xml version="1.0" encoding="UTF-8" standalone="no"?>
<!DOCTYPE svg PUBLIC "-//W3C//DTD SVG 1.1//EN"
 "http://www.w3.org/Graphics/SVG/1.1/DTD/svg11.dtd">
<!-- Generated by graphviz version 2.43.0 (0)
 -->
<!-- Title: CalphadUtils.hpp Pages: 1 -->
<svg width="466pt" height="196pt"
 viewBox="0.00 0.00 465.72 196.00" xmlns="http://www.w3.org/2000/svg" xmlns:xlink="http://www.w3.org/1999/xlink">
<g id="graph0" class="graph" transform="scale(1 1) rotate(0) translate(4 192)">
<title>CalphadUtils.hpp</title>
<!-- Node1 -->
<g id="node1" class="node">
<title>Node1</title>
<g id="a_node1"><a xlink:title="Class of methods usefull for to compute equilibrium state object.">
<polygon fill="#bfbfbf" stroke="black" points="152.67,-168.5 152.67,-187.5 258.67,-187.5 258.67,-168.5 152.67,-168.5"/>
<text text-anchor="middle" x="205.67" y="-175.5" font-family="serif" font-size="10.00">CalphadUtils.hpp</text>
</a>
</g>
</g>
<!-- Node2 -->
<g id="node2" class="node">
<title>Node2</title>
<g id="a_node2"><a xlink:href="AnalyticalIdealSolution_8hpp.html" target="_top" xlink:title="Analytical thermodynamic description for an ideal solution.">
<polygon fill="none" stroke="black" points="19.67,-56.5 19.67,-75.5 177.67,-75.5 177.67,-56.5 19.67,-56.5"/>
<text text-anchor="middle" x="98.67" y="-63.5" font-family="serif" font-size="10.00">AnalyticalIdealSolution.hpp</text>
</a>
</g>
</g>
<!-- Node1&#45;&gt;Node2 -->
<g id="edge1" class="edge">
<title>Node1&#45;&gt;Node2</title>
<path fill="none" stroke="midnightblue" d="M182.64,-162.99C170.29,-154.85 155.27,-143.86 143.67,-132 126.21,-114.14 110.83,-88.82 103.4,-75.68"/>
<polygon fill="midnightblue" stroke="midnightblue" points="180.76,-165.95 191.07,-168.4 184.54,-160.05 180.76,-165.95"/>
</g>
<!-- Node3 -->
<g id="node3" class="node">
<title>Node3</title>
<g id="a_node3"><a xlink:href="sloth_8hpp.html" target="_top" xlink:title="List of all header files contained in the kernel directory.">
<polygon fill="none" stroke="black" points="173.17,-0.5 173.17,-19.5 238.17,-19.5 238.17,-0.5 173.17,-0.5"/>
<text text-anchor="middle" x="205.67" y="-7.5" font-family="serif" font-size="10.00">sloth.hpp</text>
</a>
</g>
</g>
<!-- Node1&#45;&gt;Node3 -->
<g id="edge11" class="edge">
<title>Node1&#45;&gt;Node3</title>
<path fill="none" stroke="midnightblue" d="M152.55,-166.19C80.61,-149.16 -33.98,-112.13 10.67,-56 30.57,-30.99 122.61,-18.68 172.8,-13.74"/>
<polygon fill="midnightblue" stroke="midnightblue" points="151.87,-169.62 162.4,-168.46 153.44,-162.8 151.87,-169.62"/>
</g>
<!-- Node4 -->
<g id="node4" class="node">
<title>Node4</title>
<g id="a_node4"><a xlink:href="CalphadBase_8hpp.html" target="_top" xlink:title="Base class for Calphad objets.">
<polygon fill="none" stroke="black" points="152.17,-112.5 152.17,-131.5 259.17,-131.5 259.17,-112.5 152.17,-112.5"/>
<text text-anchor="middle" x="205.67" y="-119.5" font-family="serif" font-size="10.00">CalphadBase.hpp</text>
</a>
</g>
</g>
<!-- Node1&#45;&gt;Node4 -->
<g id="edge3" class="edge">
<title>Node1&#45;&gt;Node4</title>
<path fill="none" stroke="midnightblue" d="M205.67,-157.8C205.67,-148.91 205.67,-138.78 205.67,-131.75"/>
<polygon fill="midnightblue" stroke="midnightblue" points="202.18,-158.08 205.67,-168.08 209.18,-158.08 202.18,-158.08"/>
</g>
<!-- Node5 -->
<g id="node5" class="node">
<title>Node5</title>
<g id="a_node5"><a xlink:href="CalphadInformedNeuralNetwork_8hpp.html" target="_top" xlink:title="Calphad&#45;informed neuronal network used to predict Calphad contributions.">
<polygon fill="none" stroke="black" points="234.17,-56.5 234.17,-75.5 443.17,-75.5 443.17,-56.5 234.17,-56.5"/>
<text text-anchor="middle" x="338.67" y="-63.5" font-family="serif" font-size="10.00">CalphadInformedNeuralNetwork.hpp</text>
</a>
</g>
</g>
<!-- Node1&#45;&gt;Node5 -->
<g id="edge8" class="edge">
<title>Node1&#45;&gt;Node5</title>
<path fill="none" stroke="midnightblue" d="M226.96,-162.81C239.41,-154.26 255.27,-142.94 268.67,-132 291.81,-113.13 317.02,-88.66 329.95,-75.8"/>
<polygon fill="midnightblue" stroke="midnightblue" points="224.89,-159.98 218.58,-168.5 228.82,-165.77 224.89,-159.98"/>
</g>
<!-- Node6 -->
<g id="node6" class="node">
<title>Node6</title>
<g id="a_node6"><a xlink:href="KKS_8hpp.html" target="_top" xlink:title="All needed for Calphad calculation including KKS model.">
<polygon fill="none" stroke="black" points="390.67,-112.5 390.67,-131.5 452.67,-131.5 452.67,-112.5 390.67,-112.5"/>
<text text-anchor="middle" x="421.67" y="-119.5" font-family="serif" font-size="10.00">KKS.hpp</text>
</a>
</g>
</g>
<!-- Node1&#45;&gt;Node6 -->
<g id="edge9" class="edge">
<title>Node1&#45;&gt;Node6</title>
<path fill="none" stroke="midnightblue" d="M249.82,-165.96C291.66,-155.5 353.44,-140.06 390.41,-130.82"/>
<polygon fill="midnightblue" stroke="midnightblue" points="248.75,-162.62 239.9,-168.44 250.45,-169.41 248.75,-162.62"/>
</g>
<!-- Node2&#45;&gt;Node3 -->
<g id="edge2" class="edge">
<title>Node2&#45;&gt;Node3</title>
<path fill="none" stroke="midnightblue" d="M124.98,-51.73C144.79,-41.73 171.38,-28.31 188.53,-19.65"/>
<polygon fill="midnightblue" stroke="midnightblue" points="123.22,-48.69 115.87,-56.32 126.37,-54.94 123.22,-48.69"/>
</g>
<!-- Node4&#45;&gt;Node2 -->
<g id="edge4" class="edge">
<title>Node4&#45;&gt;Node2</title>
<path fill="none" stroke="midnightblue" d="M179.37,-107.73C159.56,-97.73 132.97,-84.31 115.82,-75.65"/>
<polygon fill="midnightblue" stroke="midnightblue" points="177.98,-110.94 188.48,-112.32 181.13,-104.69 177.98,-110.94"/>
</g>
<!-- Node4&#45;&gt;Node3 -->
<g id="edge7" class="edge">
<title>Node4&#45;&gt;Node3</title>
<path fill="none" stroke="midnightblue" d="M205.67,-102.35C205.67,-78.25 205.67,-37.31 205.67,-19.59"/>
<polygon fill="midnightblue" stroke="midnightblue" points="202.18,-102.37 205.67,-112.37 209.18,-102.37 202.18,-102.37"/>
</g>
<!-- Node4&#45;&gt;Node5 -->
<g id="edge5" class="edge">
<title>Node4&#45;&gt;Node5</title>
<path fill="none" stroke="midnightblue" d="M236.12,-108.64C261.08,-98.5 295.75,-84.43 317.7,-75.52"/>
<polygon fill="midnightblue" stroke="midnightblue" points="234.7,-105.44 226.75,-112.44 237.33,-111.92 234.7,-105.44"/>
</g>
<!-- Node5&#45;&gt;Node3 -->
<g id="edge6" class="edge">
<title>Node5&#45;&gt;Node3</title>
<path fill="none" stroke="midnightblue" d="M308.23,-52.64C283.27,-42.5 248.6,-28.43 226.65,-19.52"/>
<polygon fill="midnightblue" stroke="midnightblue" points="307.02,-55.92 317.6,-56.44 309.65,-49.44 307.02,-55.92"/>
</g>
<!-- Node6&#45;&gt;Node3 -->
<g id="edge10" class="edge">
<title>Node6&#45;&gt;Node3</title>
<path fill="none" stroke="midnightblue" d="M438.86,-104.8C451.61,-90.81 464.86,-70.61 452.67,-56 425.73,-23.7 299.02,-14.53 238.29,-11.97"/>
<polygon fill="midnightblue" stroke="midnightblue" points="436.09,-102.63 431.6,-112.23 441.09,-107.52 436.09,-102.63"/>
</g>
</g>
</svg>
