<?xml version="1.0" encoding="UTF-8" standalone="no"?>
<!DOCTYPE svg PUBLIC "-//W3C//DTD SVG 1.1//EN"
 "http://www.w3.org/Graphics/SVG/1.1/DTD/svg11.dtd">
<!-- Generated by graphviz version 2.43.0 (0)
 -->
<!-- Title: SolverGMRES::create_solver Pages: 1 -->
<svg width="557pt" height="187pt"
 viewBox="0.00 0.00 557.00 186.50" xmlns="http://www.w3.org/2000/svg" xmlns:xlink="http://www.w3.org/1999/xlink">
<g id="graph0" class="graph" transform="scale(1 1) rotate(0) translate(4 182.5)">
<title>SolverGMRES::create_solver</title>
<!-- Node1 -->
<g id="node1" class="node">
<title>Node1</title>
<g id="a_node1"><a xlink:title=" ">
<polygon fill="#bfbfbf" stroke="black" points="0,-76.5 0,-106.5 127,-106.5 127,-76.5 0,-76.5"/>
<text text-anchor="start" x="8" y="-94.5" font-family="serif" font-size="10.00">SolverGMRES::create</text>
<text text-anchor="middle" x="63.5" y="-83.5" font-family="serif" font-size="10.00">_solver</text>
</a>
</g>
</g>
<!-- Node2 -->
<g id="node2" class="node">
<title>Node2</title>
<g id="a_node2"><a xlink:href="classSlothInfo.html#a854d3cafdb9f5a77f1063a27d2a27e04" target="_top" xlink:title="Print information on Debug mode.">
<polygon fill="none" stroke="black" points="209.5,-159 209.5,-178 311.5,-178 311.5,-159 209.5,-159"/>
<text text-anchor="middle" x="260.5" y="-166" font-family="serif" font-size="10.00">SlothInfo::debug</text>
</a>
</g>
</g>
<!-- Node1&#45;&gt;Node2 -->
<g id="edge1" class="edge">
<title>Node1&#45;&gt;Node2</title>
<path fill="none" stroke="midnightblue" d="M85.35,-106.61C104.59,-119.86 134.43,-138.64 163,-149.5 174.35,-153.81 186.83,-157.2 198.95,-159.83"/>
<polygon fill="midnightblue" stroke="midnightblue" points="198.52,-163.32 209.01,-161.88 199.91,-156.46 198.52,-163.32"/>
</g>
<!-- Node3 -->
<g id="node3" class="node">
<title>Node3</title>
<g id="a_node3"><a xlink:href="classSolverBase.html#a52edc30e08c2552f8ceb3d9ea928b059" target="_top" xlink:title=" ">
<polygon fill="none" stroke="black" points="163,-99 163,-140 358,-140 358,-99 163,-99"/>
<text text-anchor="start" x="171" y="-128" font-family="serif" font-size="10.00">SolverBase&lt; mfem::GMRESSolver,</text>
<text text-anchor="start" x="171" y="-117" font-family="serif" font-size="10.00"> IterativeSolverType &gt;::get</text>
<text text-anchor="middle" x="260.5" y="-106" font-family="serif" font-size="10.00">_description</text>
</a>
</g>
</g>
<!-- Node1&#45;&gt;Node3 -->
<g id="edge2" class="edge">
<title>Node1&#45;&gt;Node3</title>
<path fill="none" stroke="midnightblue" d="M127,-100.47C135.34,-101.67 144.07,-102.93 152.9,-104.19"/>
<polygon fill="midnightblue" stroke="midnightblue" points="152.5,-107.67 162.9,-105.63 153.5,-100.74 152.5,-107.67"/>
</g>
<!-- Node4 -->
<g id="node4" class="node">
<title>Node4</title>
<g id="a_node4"><a xlink:href="classParameters.html#ae3b314c5ebc3fde8684b0634b2406da6" target="_top" xlink:title="Return the value of the parameter associated to the given name.">
<polygon fill="none" stroke="black" points="193,-49.5 193,-79.5 328,-79.5 328,-49.5 193,-49.5"/>
<text text-anchor="start" x="201" y="-67.5" font-family="serif" font-size="10.00">Parameters::get_param</text>
<text text-anchor="middle" x="260.5" y="-56.5" font-family="serif" font-size="10.00">_value</text>
</a>
</g>
</g>
<!-- Node1&#45;&gt;Node4 -->
<g id="edge3" class="edge">
<title>Node1&#45;&gt;Node4</title>
<path fill="none" stroke="midnightblue" d="M127,-82.85C144.77,-80.39 164.32,-77.68 182.82,-75.12"/>
<polygon fill="midnightblue" stroke="midnightblue" points="183.55,-78.55 192.98,-73.71 182.59,-71.62 183.55,-78.55"/>
</g>
<!-- Node7 -->
<g id="node7" class="node">
<title>Node7</title>
<g id="a_node7"><a xlink:href="classParameters.html#a857c53fbe60d7bd2f91e91626f85b6d2" target="_top" xlink:title="Return the value of the parameter associated to the given name or, use th edefault given,...">
<polygon fill="none" stroke="black" points="193,-0.5 193,-30.5 328,-30.5 328,-0.5 193,-0.5"/>
<text text-anchor="start" x="201" y="-18.5" font-family="serif" font-size="10.00">Parameters::get_param</text>
<text text-anchor="middle" x="260.5" y="-7.5" font-family="serif" font-size="10.00">_value_or_default</text>
</a>
</g>
</g>
<!-- Node1&#45;&gt;Node7 -->
<g id="edge6" class="edge">
<title>Node1&#45;&gt;Node7</title>
<path fill="none" stroke="midnightblue" d="M89.69,-76.45C109.17,-65.31 137.1,-50.41 163,-40.5 169.61,-37.97 176.57,-35.61 183.61,-33.43"/>
<polygon fill="midnightblue" stroke="midnightblue" points="184.63,-36.78 193.21,-30.57 182.63,-30.07 184.63,-36.78"/>
</g>
<!-- Node5 -->
<g id="node5" class="node">
<title>Node5</title>
<g id="a_node5"><a xlink:href="classParameters.html#aacf1a423c07aa2e63d2397fe903a1388" target="_top" xlink:title="Return the parameter associated to the given name.">
<polygon fill="none" stroke="black" points="394,-52 394,-71 549,-71 549,-52 394,-52"/>
<text text-anchor="middle" x="471.5" y="-59" font-family="serif" font-size="10.00">Parameters::get_parameter</text>
</a>
</g>
</g>
<!-- Node4&#45;&gt;Node5 -->
<g id="edge4" class="edge">
<title>Node4&#45;&gt;Node5</title>
<path fill="none" stroke="midnightblue" d="M328.2,-63.54C345.84,-63.29 365.14,-63.01 383.68,-62.75"/>
<polygon fill="midnightblue" stroke="midnightblue" points="383.93,-66.24 393.88,-62.6 383.83,-59.24 383.93,-66.24"/>
</g>
<!-- Node6 -->
<g id="node6" class="node">
<title>Node6</title>
<g id="a_node6"><a xlink:href="classParameter.html#a7874e1270fe62aecf3063a4f9edecb47" target="_top" xlink:title="Return the value of the paramter.">
<polygon fill="none" stroke="black" points="409,-11 409,-30 534,-30 534,-11 409,-11"/>
<text text-anchor="middle" x="471.5" y="-18" font-family="serif" font-size="10.00">Parameter::get_value</text>
</a>
</g>
</g>
<!-- Node4&#45;&gt;Node6 -->
<g id="edge5" class="edge">
<title>Node4&#45;&gt;Node6</title>
<path fill="none" stroke="midnightblue" d="M328.2,-50.46C356.28,-44.55 388.55,-37.75 415.26,-32.13"/>
<polygon fill="midnightblue" stroke="midnightblue" points="416.14,-35.52 425.21,-30.04 414.7,-28.67 416.14,-35.52"/>
</g>
<!-- Node7&#45;&gt;Node5 -->
<g id="edge7" class="edge">
<title>Node7&#45;&gt;Node5</title>
<path fill="none" stroke="midnightblue" d="M328.2,-30.18C356.91,-36.5 390.02,-43.79 417.07,-49.74"/>
<polygon fill="midnightblue" stroke="midnightblue" points="416.6,-53.22 427.12,-51.95 418.1,-46.38 416.6,-53.22"/>
</g>
<!-- Node7&#45;&gt;Node6 -->
<g id="edge8" class="edge">
<title>Node7&#45;&gt;Node6</title>
<path fill="none" stroke="midnightblue" d="M328.2,-17.1C350.58,-17.63 375.63,-18.23 398.4,-18.78"/>
<polygon fill="midnightblue" stroke="midnightblue" points="398.6,-22.28 408.69,-19.02 398.77,-15.28 398.6,-22.28"/>
</g>
</g>
</svg>
