<?xml version="1.0" encoding="UTF-8" standalone="no"?>
<!DOCTYPE svg PUBLIC "-//W3C//DTD SVG 1.1//EN"
 "http://www.w3.org/Graphics/SVG/1.1/DTD/svg11.dtd">
<!-- Generated by graphviz version 2.43.0 (0)
 -->
<!-- Title: SolverBase&lt; T, S &gt; Pages: 1 -->
<!--zoomable 726 -->
<svg id="main" version="1.1" xmlns="http://www.w3.org/2000/svg" xmlns:xlink="http://www.w3.org/1999/xlink" xml:space="preserve" onload="init(evt)">
<style type="text/css"><![CDATA[
.edge:hover path { stroke: red; }
.edge:hover polygon { stroke: red; fill: red; }
]]></style>
<script type="text/javascript"><![CDATA[
var edges = document.getElementsByTagName('g');
if (edges && edges.length) {
  for (var i=0;i<edges.length;i++) {
    if (edges[i].id.substr(0,4)=='edge') {
      edges[i].setAttribute('class','edge');
    }
  }
}
]]></script>
        <defs>
                <circle id="rim" cx="0" cy="0" r="7"/>
                <circle id="rim2" cx="0" cy="0" r="3.5"/>
                <g id="zoomPlus">
                        <use xlink:href="#rim" fill="#404040">
                                <set attributeName="fill" to="#808080" begin="zoomplus.mouseover" end="zoomplus.mouseout"/>
                        </use>
                        <path d="M-4,0h8M0,-4v8" fill="none" stroke="white" stroke-width="1.5" pointer-events="none"/>
                </g>
                <g id="zoomMin">
                        <use xlink:href="#rim" fill="#404040">
                                <set attributeName="fill" to="#808080" begin="zoomminus.mouseover" end="zoomminus.mouseout"/>
                        </use>
                        <path d="M-4,0h8" fill="none" stroke="white" stroke-width="1.5" pointer-events="none"/>
                </g>
                <g id="dirArrow">
                        <path fill="none" stroke="white" stroke-width="1.5" d="M0,-3.0v7 M-2.5,-0.5L0,-3.0L2.5,-0.5"/>
                </g>
               <g id="resetDef">
                       <use xlink:href="#rim2" fill="#404040">
                               <set attributeName="fill" to="#808080" begin="reset.mouseover" end="reset.mouseout"/>
                       </use>
               </g>
        </defs>

<script type="text/javascript">
var viewWidth = 774;
var viewHeight = 726;
var sectionId = 'dynsection-0';
</script>
<script xlink:href="svgpan.js"/>
<svg id="graph" class="graph">
<g id="viewport">
<title>SolverBase&lt; T, S &gt;</title>
<!-- Node1 -->
<g id="node1" class="node">
<title>Node1</title>
<g id="a_node1"><a xlink:title=" ">
<polygon fill="#bfbfbf" stroke="black" points="0,-343.02 0,-362.02 114,-362.02 114,-343.02 0,-343.02"/>
<text text-anchor="middle" x="57" y="-350.02" font-family="serif" font-size="10.00">SolverBase&lt; T, S &gt;</text>
</a>
</g>
</g>
<!-- Node2 -->
<g id="node2" class="node">
<title>Node2</title>
<g id="a_node2"><a xlink:href="classSolverBase.html" target="_top" xlink:title=" ">
<polygon fill="none" stroke="black" points="377.5,-656.52 377.5,-686.52 557.5,-686.52 557.5,-656.52 377.5,-656.52"/>
<text text-anchor="start" x="385.5" y="-674.52" font-family="serif" font-size="10.00">SolverBase&lt; mfem::DSmoother,</text>
<text text-anchor="middle" x="467.5" y="-663.52" font-family="serif" font-size="10.00"> PreconditionerType &gt;</text>
</a>
</g>
</g>
<!-- Node1&#45;&gt;Node2 -->
<g id="edge1" class="edge">
<title>Node1&#45;&gt;Node2</title>
<path fill="none" stroke="orange" stroke-dasharray="5,2" d="M60.02,-372C66.63,-431.45 89.59,-608.69 132,-644.52 206.76,-707.7 327.46,-699.58 401.6,-686.54"/>
<polygon fill="orange" stroke="orange" points="63.5,-371.61 58.95,-362.04 56.54,-372.36 63.5,-371.61"/>
<text text-anchor="start" x="181" y="-709.52" font-family="serif" font-size="10.00"> &lt; mfem::DSmoother,</text>
<text text-anchor="middle" x="238.5" y="-698.52" font-family="serif" font-size="10.00"> PreconditionerType &gt;</text>
</g>
<!-- Node4 -->
<g id="node4" class="node">
<title>Node4</title>
<g id="a_node4"><a xlink:href="classSolverBase.html" target="_top" xlink:title=" ">
<polygon fill="none" stroke="black" points="366,-607.52 366,-637.52 569,-637.52 569,-607.52 366,-607.52"/>
<text text-anchor="start" x="374" y="-625.52" font-family="serif" font-size="10.00">SolverBase&lt; mfem::HypreFGMRES,</text>
<text text-anchor="middle" x="467.5" y="-614.52" font-family="serif" font-size="10.00"> HypreSolverType &gt;</text>
</a>
</g>
</g>
<!-- Node1&#45;&gt;Node4 -->
<g id="edge3" class="edge">
<title>Node1&#45;&gt;Node4</title>
<path fill="none" stroke="orange" stroke-dasharray="5,2" d="M57.23,-372.39C56.61,-419.74 62.34,-539.44 132,-595.52 149.98,-610 273.92,-616.9 365.72,-620.06"/>
<polygon fill="orange" stroke="orange" points="60.74,-372.32 57.49,-362.23 53.74,-372.14 60.74,-372.32"/>
<text text-anchor="start" x="172" y="-632.52" font-family="serif" font-size="10.00"> &lt; mfem::HypreFGMRES,</text>
<text text-anchor="middle" x="238.5" y="-621.52" font-family="serif" font-size="10.00"> HypreSolverType &gt;</text>
</g>
<!-- Node6 -->
<g id="node6" class="node">
<title>Node6</title>
<g id="a_node6"><a xlink:href="classSolverBase.html" target="_top" xlink:title=" ">
<polygon fill="none" stroke="black" points="383,-558.52 383,-588.52 552,-588.52 552,-558.52 383,-558.52"/>
<text text-anchor="start" x="391" y="-576.52" font-family="serif" font-size="10.00">SolverBase&lt; mfem::UMFPack</text>
<text text-anchor="middle" x="467.5" y="-565.52" font-family="serif" font-size="10.00">Solver, DirectSolverType &gt;</text>
</a>
</g>
</g>
<!-- Node1&#45;&gt;Node6 -->
<g id="edge5" class="edge">
<title>Node1&#45;&gt;Node6</title>
<path fill="none" stroke="orange" stroke-dasharray="5,2" d="M58.97,-372.45C62.11,-412.84 75.45,-504.11 132,-546.52 151.63,-561.25 290.34,-568.29 382.86,-571.38"/>
<polygon fill="orange" stroke="orange" points="62.45,-372.03 58.32,-362.28 55.46,-372.48 62.45,-372.03"/>
<text text-anchor="start" x="172" y="-583.52" font-family="serif" font-size="10.00"> &lt; mfem::UMFPackSolver,</text>
<text text-anchor="middle" x="238.5" y="-572.52" font-family="serif" font-size="10.00"> DirectSolverType &gt;</text>
</g>
<!-- Node8 -->
<g id="node8" class="node">
<title>Node8</title>
<g id="a_node8"><a xlink:href="classSolverBase.html" target="_top" xlink:title=" ">
<polygon fill="none" stroke="black" points="370,-509.52 370,-539.52 565,-539.52 565,-509.52 370,-509.52"/>
<text text-anchor="start" x="378" y="-527.52" font-family="serif" font-size="10.00">SolverBase&lt; mfem::GMRESSolver,</text>
<text text-anchor="middle" x="467.5" y="-516.52" font-family="serif" font-size="10.00"> IterativeSolverType &gt;</text>
</a>
</g>
</g>
<!-- Node1&#45;&gt;Node8 -->
<g id="edge7" class="edge">
<title>Node1&#45;&gt;Node8</title>
<path fill="none" stroke="orange" stroke-dasharray="5,2" d="M61.61,-372.21C68.71,-404.72 87.84,-468.98 132,-498.52 151.43,-511.52 277.98,-518.44 369.69,-521.79"/>
<polygon fill="orange" stroke="orange" points="64.99,-371.25 59.58,-362.14 58.12,-372.64 64.99,-371.25"/>
<text text-anchor="start" x="176" y="-534.52" font-family="serif" font-size="10.00"> &lt; mfem::GMRESSolver,</text>
<text text-anchor="middle" x="238.5" y="-523.52" font-family="serif" font-size="10.00"> IterativeSolverType &gt;</text>
</g>
<!-- Node10 -->
<g id="node10" class="node">
<title>Node10</title>
<g id="a_node10"><a xlink:href="classSolverBase.html" target="_top" xlink:title=" ">
<polygon fill="none" stroke="black" points="382.5,-460.52 382.5,-490.52 552.5,-490.52 552.5,-460.52 382.5,-460.52"/>
<text text-anchor="start" x="390.5" y="-478.52" font-family="serif" font-size="10.00">SolverBase&lt; mfem::CGSolver,</text>
<text text-anchor="middle" x="467.5" y="-467.52" font-family="serif" font-size="10.00"> IterativeSolverType &gt;</text>
</a>
</g>
</g>
<!-- Node1&#45;&gt;Node10 -->
<g id="edge9" class="edge">
<title>Node1&#45;&gt;Node10</title>
<path fill="none" stroke="orange" stroke-dasharray="5,2" d="M66.24,-371.19C77.47,-394.1 99.91,-432.06 132,-449.52 173.63,-472.18 297.53,-476.54 382.26,-476.71"/>
<polygon fill="orange" stroke="orange" points="69.41,-369.69 62,-362.12 63.07,-372.66 69.41,-369.69"/>
<text text-anchor="start" x="165.5" y="-489.52" font-family="serif" font-size="10.00"> &lt; mfem::CGSolver, Iterative</text>
<text text-anchor="middle" x="238.5" y="-478.52" font-family="serif" font-size="10.00">SolverType &gt;</text>
</g>
<!-- Node12 -->
<g id="node12" class="node">
<title>Node12</title>
<g id="a_node12"><a xlink:href="classSolverBase.html" target="_top" xlink:title=" ">
<polygon fill="none" stroke="black" points="370.5,-411.52 370.5,-441.52 564.5,-441.52 564.5,-411.52 370.5,-411.52"/>
<text text-anchor="start" x="378.5" y="-429.52" font-family="serif" font-size="10.00">SolverBase&lt; mfem::HypreDiag</text>
<text text-anchor="middle" x="467.5" y="-418.52" font-family="serif" font-size="10.00">Scale, HyprePreconditionerType &gt;</text>
</a>
</g>
</g>
<!-- Node1&#45;&gt;Node12 -->
<g id="edge11" class="edge">
<title>Node1&#45;&gt;Node12</title>
<path fill="none" stroke="orange" stroke-dasharray="5,2" d="M79.37,-367.88C93.58,-377.25 113.05,-388.54 132,-394.52 209.75,-419.07 302.29,-426.35 370.31,-427.9"/>
<polygon fill="orange" stroke="orange" points="81.09,-364.81 70.85,-362.07 77.14,-370.6 81.09,-364.81"/>
<text text-anchor="start" x="164.5" y="-440.52" font-family="serif" font-size="10.00"> &lt; mfem::HypreDiagScale,</text>
<text text-anchor="middle" x="238.5" y="-429.52" font-family="serif" font-size="10.00"> HyprePreconditionerType &gt;</text>
</g>
<!-- Node14 -->
<g id="node14" class="node">
<title>Node14</title>
<g id="a_node14"><a xlink:href="classSolverBase.html" target="_top" xlink:title=" ">
<polygon fill="none" stroke="black" points="365.5,-362.52 365.5,-392.52 569.5,-392.52 569.5,-362.52 365.5,-362.52"/>
<text text-anchor="start" x="373.5" y="-380.52" font-family="serif" font-size="10.00">SolverBase&lt; mfem::HypreSmoother,</text>
<text text-anchor="middle" x="467.5" y="-369.52" font-family="serif" font-size="10.00"> HyprePreconditionerType &gt;</text>
</a>
</g>
</g>
<!-- Node1&#45;&gt;Node14 -->
<g id="edge13" class="edge">
<title>Node1&#45;&gt;Node14</title>
<path fill="none" stroke="orange" stroke-dasharray="5,2" d="M124.53,-356.6C189.74,-360.59 290.02,-366.72 365.15,-371.32"/>
<polygon fill="orange" stroke="orange" points="124.57,-353.09 114.37,-355.97 124.14,-360.08 124.57,-353.09"/>
<text text-anchor="start" x="164.5" y="-382.52" font-family="serif" font-size="10.00"> &lt; mfem::HypreSmoother,</text>
<text text-anchor="middle" x="238.5" y="-371.52" font-family="serif" font-size="10.00"> HyprePreconditionerType &gt;</text>
</g>
<!-- Node16 -->
<g id="node16" class="node">
<title>Node16</title>
<g id="a_node16"><a xlink:href="classSolverBase.html" target="_top" xlink:title=" ">
<polygon fill="none" stroke="black" points="363,-313.52 363,-343.52 572,-343.52 572,-313.52 363,-313.52"/>
<text text-anchor="start" x="371" y="-331.52" font-family="serif" font-size="10.00">SolverBase&lt; mfem::BiCGSTABSolver,</text>
<text text-anchor="middle" x="467.5" y="-320.52" font-family="serif" font-size="10.00"> IterativeSolverType &gt;</text>
</a>
</g>
</g>
<!-- Node1&#45;&gt;Node16 -->
<g id="edge15" class="edge">
<title>Node1&#45;&gt;Node16</title>
<path fill="none" stroke="orange" stroke-dasharray="5,2" d="M96.77,-340.07C108.02,-337 120.39,-334.14 132,-332.52 208.8,-321.86 296.46,-321.23 362.78,-323.07"/>
<polygon fill="orange" stroke="orange" points="95.47,-336.81 86.82,-342.92 97.4,-343.54 95.47,-336.81"/>
<text text-anchor="start" x="169" y="-346.52" font-family="serif" font-size="10.00"> &lt; mfem::BiCGSTABSolver,</text>
<text text-anchor="middle" x="238.5" y="-335.52" font-family="serif" font-size="10.00"> IterativeSolverType &gt;</text>
</g>
<!-- Node18 -->
<g id="node18" class="node">
<title>Node18</title>
<g id="a_node18"><a xlink:href="classSolverBase.html" target="_top" xlink:title=" ">
<polygon fill="none" stroke="black" points="387.5,-264.52 387.5,-294.52 547.5,-294.52 547.5,-264.52 387.5,-264.52"/>
<text text-anchor="start" x="395.5" y="-282.52" font-family="serif" font-size="10.00">SolverBase&lt; mfem::Newton</text>
<text text-anchor="middle" x="467.5" y="-271.52" font-family="serif" font-size="10.00">Solver, NLSolverType &gt;</text>
</a>
</g>
</g>
<!-- Node1&#45;&gt;Node18 -->
<g id="edge17" class="edge">
<title>Node1&#45;&gt;Node18</title>
<path fill="none" stroke="orange" stroke-dasharray="5,2" d="M74.15,-335.29C88.03,-321.75 109.35,-303.84 132,-295.52 215.22,-264.95 318,-265.12 387.49,-270.26"/>
<polygon fill="orange" stroke="orange" points="71.41,-333.07 66.88,-342.65 76.39,-337.99 71.41,-333.07"/>
<text text-anchor="start" x="176.5" y="-309.52" font-family="serif" font-size="10.00"> &lt; mfem::NewtonSolver,</text>
<text text-anchor="middle" x="238.5" y="-298.52" font-family="serif" font-size="10.00"> NLSolverType &gt;</text>
</g>
<!-- Node20 -->
<g id="node20" class="node">
<title>Node20</title>
<g id="a_node20"><a xlink:href="classSolverBase.html" target="_top" xlink:title=" ">
<polygon fill="none" stroke="black" points="379,-215.52 379,-245.52 556,-245.52 556,-215.52 379,-215.52"/>
<text text-anchor="start" x="387" y="-233.52" font-family="serif" font-size="10.00">SolverBase&lt; mfem::HyprePCG,</text>
<text text-anchor="middle" x="467.5" y="-222.52" font-family="serif" font-size="10.00"> HypreSolverType &gt;</text>
</a>
</g>
</g>
<!-- Node1&#45;&gt;Node20 -->
<g id="edge19" class="edge">
<title>Node1&#45;&gt;Node20</title>
<path fill="none" stroke="orange" stroke-dasharray="5,2" d="M64.47,-333.27C74.38,-307.17 96.07,-261.52 132,-241.52 172.81,-218.81 294.26,-220.29 378.99,-224.53"/>
<polygon fill="orange" stroke="orange" points="61.12,-332.23 61.03,-342.83 67.71,-334.6 61.12,-332.23"/>
<text text-anchor="start" x="151" y="-255.52" font-family="serif" font-size="10.00"> &lt; mfem::HyprePCG, HypreSolver</text>
<text text-anchor="middle" x="238.5" y="-244.52" font-family="serif" font-size="10.00">Type &gt;</text>
</g>
<!-- Node22 -->
<g id="node22" class="node">
<title>Node22</title>
<g id="a_node22"><a xlink:href="classSolverBase.html" target="_top" xlink:title=" ">
<polygon fill="none" stroke="black" points="367.5,-166.52 367.5,-196.52 567.5,-196.52 567.5,-166.52 367.5,-166.52"/>
<text text-anchor="start" x="375.5" y="-184.52" font-family="serif" font-size="10.00">SolverBase&lt; mfem::MINRESSolver,</text>
<text text-anchor="middle" x="467.5" y="-173.52" font-family="serif" font-size="10.00"> IterativeSolverType &gt;</text>
</a>
</g>
</g>
<!-- Node1&#45;&gt;Node22 -->
<g id="edge21" class="edge">
<title>Node1&#45;&gt;Node22</title>
<path fill="none" stroke="orange" stroke-dasharray="5,2" d="M60.75,-332.68C66.72,-298.01 84.41,-227.12 132,-195.52 169.29,-170.77 282.76,-170.73 367.27,-174.63"/>
<polygon fill="orange" stroke="orange" points="57.23,-332.52 59.15,-342.94 64.15,-333.6 57.23,-332.52"/>
<text text-anchor="start" x="173.5" y="-209.52" font-family="serif" font-size="10.00"> &lt; mfem::MINRESSolver,</text>
<text text-anchor="middle" x="238.5" y="-198.52" font-family="serif" font-size="10.00"> IterativeSolverType &gt;</text>
</g>
<!-- Node24 -->
<g id="node24" class="node">
<title>Node24</title>
<g id="a_node24"><a xlink:href="classSolverBase.html" target="_top" xlink:title=" ">
<polygon fill="none" stroke="black" points="381,-117.52 381,-147.52 554,-147.52 554,-117.52 381,-117.52"/>
<text text-anchor="start" x="389" y="-135.52" font-family="serif" font-size="10.00">SolverBase&lt; mfem::HypreILU,</text>
<text text-anchor="middle" x="467.5" y="-124.52" font-family="serif" font-size="10.00"> HyprePreconditionerType &gt;</text>
</a>
</g>
</g>
<!-- Node1&#45;&gt;Node24 -->
<g id="edge23" class="edge">
<title>Node1&#45;&gt;Node24</title>
<path fill="none" stroke="orange" stroke-dasharray="5,2" d="M58.34,-332.36C60.28,-289.81 71.42,-191.06 132,-146.52 170.11,-118.51 294.96,-120.46 380.86,-125.59"/>
<polygon fill="orange" stroke="orange" points="54.84,-332.46 58.01,-342.57 61.83,-332.69 54.84,-332.46"/>
<text text-anchor="start" x="132" y="-160.52" font-family="serif" font-size="10.00"> &lt; mfem::HypreILU, HyprePreconditioner</text>
<text text-anchor="middle" x="238.5" y="-149.52" font-family="serif" font-size="10.00">Type &gt;</text>
</g>
<!-- Node26 -->
<g id="node26" class="node">
<title>Node26</title>
<g id="a_node26"><a xlink:href="classSolverBase.html" target="_top" xlink:title=" ">
<polygon fill="none" stroke="black" points="369.5,-68.52 369.5,-98.52 565.5,-98.52 565.5,-68.52 369.5,-68.52"/>
<text text-anchor="start" x="377.5" y="-86.52" font-family="serif" font-size="10.00">SolverBase&lt; mfem::HypreGMRES,</text>
<text text-anchor="middle" x="467.5" y="-75.52" font-family="serif" font-size="10.00"> HypreSolverType &gt;</text>
</a>
</g>
</g>
<!-- Node1&#45;&gt;Node26 -->
<g id="edge25" class="edge">
<title>Node1&#45;&gt;Node26</title>
<path fill="none" stroke="orange" stroke-dasharray="5,2" d="M60.69,-332.84C68.61,-277.97 93.74,-125.41 132,-95.52 167.66,-67.67 283.75,-69.26 369.19,-74.79"/>
<polygon fill="orange" stroke="orange" points="57.19,-332.59 59.26,-342.98 64.12,-333.57 57.19,-332.59"/>
<text text-anchor="start" x="175.5" y="-109.52" font-family="serif" font-size="10.00"> &lt; mfem::HypreGMRES,</text>
<text text-anchor="middle" x="238.5" y="-98.52" font-family="serif" font-size="10.00"> HypreSolverType &gt;</text>
</g>
<!-- Node28 -->
<g id="node28" class="node">
<title>Node28</title>
<g id="a_node28"><a xlink:href="classSolverBase.html" target="_top" xlink:title=" ">
<polygon fill="none" stroke="black" points="371.5,-19.52 371.5,-49.52 563.5,-49.52 563.5,-19.52 371.5,-19.52"/>
<text text-anchor="start" x="379.5" y="-37.52" font-family="serif" font-size="10.00">SolverBase&lt; mfem::HypreBoomer</text>
<text text-anchor="middle" x="467.5" y="-26.52" font-family="serif" font-size="10.00">AMG, HyprePreconditionerType &gt;</text>
</a>
</g>
</g>
<!-- Node1&#45;&gt;Node28 -->
<g id="edge27" class="edge">
<title>Node1&#45;&gt;Node28</title>
<path fill="none" stroke="orange" stroke-dasharray="5,2" d="M59.7,-332.7C65.46,-270.56 86.5,-81.5 132,-44.52 213.61,21.8 347.03,-0.66 418.2,-19.52"/>
<polygon fill="orange" stroke="orange" points="56.2,-332.49 58.8,-342.76 63.17,-333.11 56.2,-332.49"/>
<text text-anchor="start" x="163" y="-58.52" font-family="serif" font-size="10.00"> &lt; mfem::HypreBoomerAMG,</text>
<text text-anchor="middle" x="238.5" y="-47.52" font-family="serif" font-size="10.00"> HyprePreconditionerType &gt;</text>
</g>
<!-- Node3 -->
<g id="node3" class="node">
<title>Node3</title>
<g id="a_node3"><a xlink:href="classPrecondDSmoother.html" target="_top" xlink:title=" ">
<polygon fill="none" stroke="black" points="629.5,-662.02 629.5,-681.02 745.5,-681.02 745.5,-662.02 629.5,-662.02"/>
<text text-anchor="middle" x="687.5" y="-669.02" font-family="serif" font-size="10.00">PrecondDSmoother</text>
</a>
</g>
</g>
<!-- Node2&#45;&gt;Node3 -->
<g id="edge2" class="edge">
<title>Node2&#45;&gt;Node3</title>
<path fill="none" stroke="midnightblue" d="M568.08,-671.52C589.14,-671.52 610.67,-671.52 629.49,-671.52"/>
<polygon fill="midnightblue" stroke="midnightblue" points="567.8,-668.02 557.8,-671.52 567.8,-675.02 567.8,-668.02"/>
</g>
<!-- Node5 -->
<g id="node5" class="node">
<title>Node5</title>
<g id="a_node5"><a xlink:href="classSolverHypreFGMRES.html" target="_top" xlink:title=" ">
<polygon fill="none" stroke="black" points="623.5,-613.02 623.5,-632.02 751.5,-632.02 751.5,-613.02 623.5,-613.02"/>
<text text-anchor="middle" x="687.5" y="-620.02" font-family="serif" font-size="10.00">SolverHypreFGMRES</text>
</a>
</g>
</g>
<!-- Node4&#45;&gt;Node5 -->
<g id="edge4" class="edge">
<title>Node4&#45;&gt;Node5</title>
<path fill="none" stroke="midnightblue" d="M579.58,-622.52C594.57,-622.52 609.51,-622.52 623.26,-622.52"/>
<polygon fill="midnightblue" stroke="midnightblue" points="579.2,-619.02 569.2,-622.52 579.2,-626.02 579.2,-619.02"/>
</g>
<!-- Node7 -->
<g id="node7" class="node">
<title>Node7</title>
<g id="a_node7"><a xlink:href="classSolverUMFPACK.html" target="_top" xlink:title=" ">
<polygon fill="none" stroke="black" points="636,-564.02 636,-583.02 739,-583.02 739,-564.02 636,-564.02"/>
<text text-anchor="middle" x="687.5" y="-571.02" font-family="serif" font-size="10.00">SolverUMFPACK</text>
</a>
</g>
</g>
<!-- Node6&#45;&gt;Node7 -->
<g id="edge6" class="edge">
<title>Node6&#45;&gt;Node7</title>
<path fill="none" stroke="midnightblue" d="M562.17,-573.52C587.47,-573.52 613.91,-573.52 635.86,-573.52"/>
<polygon fill="midnightblue" stroke="midnightblue" points="562.16,-570.02 552.16,-573.52 562.16,-577.02 562.16,-570.02"/>
</g>
<!-- Node9 -->
<g id="node9" class="node">
<title>Node9</title>
<g id="a_node9"><a xlink:href="classSolverGMRES.html" target="_top" xlink:title=" ">
<polygon fill="none" stroke="black" points="643,-515.02 643,-534.02 732,-534.02 732,-515.02 643,-515.02"/>
<text text-anchor="middle" x="687.5" y="-522.02" font-family="serif" font-size="10.00">SolverGMRES</text>
</a>
</g>
</g>
<!-- Node8&#45;&gt;Node9 -->
<g id="edge8" class="edge">
<title>Node8&#45;&gt;Node9</title>
<path fill="none" stroke="midnightblue" d="M575.31,-524.52C599.26,-524.52 623.36,-524.52 642.96,-524.52"/>
<polygon fill="midnightblue" stroke="midnightblue" points="575.07,-521.02 565.07,-524.52 575.07,-528.02 575.07,-521.02"/>
</g>
<!-- Node11 -->
<g id="node11" class="node">
<title>Node11</title>
<g id="a_node11"><a xlink:href="classSolverCG.html" target="_top" xlink:title=" ">
<polygon fill="none" stroke="black" points="655,-466.02 655,-485.02 720,-485.02 720,-466.02 655,-466.02"/>
<text text-anchor="middle" x="687.5" y="-473.02" font-family="serif" font-size="10.00">SolverCG</text>
</a>
</g>
</g>
<!-- Node10&#45;&gt;Node11 -->
<g id="edge10" class="edge">
<title>Node10&#45;&gt;Node11</title>
<path fill="none" stroke="midnightblue" d="M562.95,-475.52C595.92,-475.52 630.7,-475.52 654.93,-475.52"/>
<polygon fill="midnightblue" stroke="midnightblue" points="562.78,-472.02 552.78,-475.52 562.78,-479.02 562.78,-472.02"/>
</g>
<!-- Node13 -->
<g id="node13" class="node">
<title>Node13</title>
<g id="a_node13"><a xlink:href="classPrecondHypreDiagScale.html" target="_top" xlink:title=" ">
<polygon fill="none" stroke="black" points="616.5,-417.02 616.5,-436.02 758.5,-436.02 758.5,-417.02 616.5,-417.02"/>
<text text-anchor="middle" x="687.5" y="-424.02" font-family="serif" font-size="10.00">PrecondHypreDiagScale</text>
</a>
</g>
</g>
<!-- Node12&#45;&gt;Node13 -->
<g id="edge12" class="edge">
<title>Node12&#45;&gt;Node13</title>
<path fill="none" stroke="midnightblue" d="M574.95,-426.52C588.98,-426.52 603.07,-426.52 616.29,-426.52"/>
<polygon fill="midnightblue" stroke="midnightblue" points="574.75,-423.02 564.75,-426.52 574.75,-430.02 574.75,-423.02"/>
</g>
<!-- Node15 -->
<g id="node15" class="node">
<title>Node15</title>
<g id="a_node15"><a xlink:href="classPrecondHypreSmoother.html" target="_top" xlink:title=" ">
<polygon fill="none" stroke="black" points="617.5,-368.02 617.5,-387.02 757.5,-387.02 757.5,-368.02 617.5,-368.02"/>
<text text-anchor="middle" x="687.5" y="-375.02" font-family="serif" font-size="10.00">PrecondHypreSmoother</text>
</a>
</g>
</g>
<!-- Node14&#45;&gt;Node15 -->
<g id="edge14" class="edge">
<title>Node14&#45;&gt;Node15</title>
<path fill="none" stroke="midnightblue" d="M579.76,-377.52C592.53,-377.52 605.26,-377.52 617.25,-377.52"/>
<polygon fill="midnightblue" stroke="midnightblue" points="579.52,-374.02 569.52,-377.52 579.52,-381.02 579.52,-374.02"/>
</g>
<!-- Node17 -->
<g id="node17" class="node">
<title>Node17</title>
<g id="a_node17"><a xlink:href="classSolverBICGSTAB.html" target="_top" xlink:title=" ">
<polygon fill="none" stroke="black" points="635.5,-319.02 635.5,-338.02 739.5,-338.02 739.5,-319.02 635.5,-319.02"/>
<text text-anchor="middle" x="687.5" y="-326.02" font-family="serif" font-size="10.00">SolverBICGSTAB</text>
</a>
</g>
</g>
<!-- Node16&#45;&gt;Node17 -->
<g id="edge16" class="edge">
<title>Node16&#45;&gt;Node17</title>
<path fill="none" stroke="midnightblue" d="M582.12,-328.52C600.75,-328.52 619.2,-328.52 635.29,-328.52"/>
<polygon fill="midnightblue" stroke="midnightblue" points="582.07,-325.02 572.07,-328.52 582.07,-332.02 582.07,-325.02"/>
</g>
<!-- Node19 -->
<g id="node19" class="node">
<title>Node19</title>
<g id="a_node19"><a xlink:href="classNLSolverBase.html" target="_top" xlink:title=" ">
<polygon fill="none" stroke="black" points="643,-270.02 643,-289.02 732,-289.02 732,-270.02 643,-270.02"/>
<text text-anchor="middle" x="687.5" y="-277.02" font-family="serif" font-size="10.00">NLSolverBase</text>
</a>
</g>
</g>
<!-- Node18&#45;&gt;Node19 -->
<g id="edge18" class="edge">
<title>Node18&#45;&gt;Node19</title>
<path fill="none" stroke="#8b1a1a" d="M557.8,-279.52C587.17,-279.52 618.5,-279.52 642.9,-279.52"/>
<polygon fill="#8b1a1a" stroke="#8b1a1a" points="557.51,-276.02 547.51,-279.52 557.51,-283.02 557.51,-276.02"/>
</g>
<!-- Node21 -->
<g id="node21" class="node">
<title>Node21</title>
<g id="a_node21"><a xlink:href="classSolverHyprePCG.html" target="_top" xlink:title=" ">
<polygon fill="none" stroke="black" points="635.5,-221.02 635.5,-240.02 739.5,-240.02 739.5,-221.02 635.5,-221.02"/>
<text text-anchor="middle" x="687.5" y="-228.02" font-family="serif" font-size="10.00">SolverHyprePCG</text>
</a>
</g>
</g>
<!-- Node20&#45;&gt;Node21 -->
<g id="edge20" class="edge">
<title>Node20&#45;&gt;Node21</title>
<path fill="none" stroke="midnightblue" d="M566.37,-230.52C590.17,-230.52 614.68,-230.52 635.31,-230.52"/>
<polygon fill="midnightblue" stroke="midnightblue" points="566.23,-227.02 556.23,-230.52 566.23,-234.02 566.23,-227.02"/>
</g>
<!-- Node23 -->
<g id="node23" class="node">
<title>Node23</title>
<g id="a_node23"><a xlink:href="classSolverMINRES.html" target="_top" xlink:title=" ">
<polygon fill="none" stroke="black" points="640.5,-172.02 640.5,-191.02 734.5,-191.02 734.5,-172.02 640.5,-172.02"/>
<text text-anchor="middle" x="687.5" y="-179.02" font-family="serif" font-size="10.00">SolverMINRES</text>
</a>
</g>
</g>
<!-- Node22&#45;&gt;Node23 -->
<g id="edge22" class="edge">
<title>Node22&#45;&gt;Node23</title>
<path fill="none" stroke="midnightblue" d="M577.77,-181.52C599.89,-181.52 622,-181.52 640.45,-181.52"/>
<polygon fill="midnightblue" stroke="midnightblue" points="577.61,-178.02 567.61,-181.52 577.61,-185.02 577.61,-178.02"/>
</g>
<!-- Node25 -->
<g id="node25" class="node">
<title>Node25</title>
<g id="a_node25"><a xlink:href="classPrecondHypreILU.html" target="_top" xlink:title=" ">
<polygon fill="none" stroke="black" points="633,-123.02 633,-142.02 742,-142.02 742,-123.02 633,-123.02"/>
<text text-anchor="middle" x="687.5" y="-130.02" font-family="serif" font-size="10.00">PrecondHypreILU</text>
</a>
</g>
</g>
<!-- Node24&#45;&gt;Node25 -->
<g id="edge24" class="edge">
<title>Node24&#45;&gt;Node25</title>
<path fill="none" stroke="midnightblue" d="M564.09,-132.52C587.7,-132.52 612.16,-132.52 632.96,-132.52"/>
<polygon fill="midnightblue" stroke="midnightblue" points="564.03,-129.02 554.03,-132.52 564.03,-136.02 564.03,-129.02"/>
</g>
<!-- Node27 -->
<g id="node27" class="node">
<title>Node27</title>
<g id="a_node27"><a xlink:href="classSolverHypreGMRES.html" target="_top" xlink:title=" ">
<polygon fill="none" stroke="black" points="626.5,-74.02 626.5,-93.02 748.5,-93.02 748.5,-74.02 626.5,-74.02"/>
<text text-anchor="middle" x="687.5" y="-81.02" font-family="serif" font-size="10.00">SolverHypreGMRES</text>
</a>
</g>
</g>
<!-- Node26&#45;&gt;Node27 -->
<g id="edge26" class="edge">
<title>Node26&#45;&gt;Node27</title>
<path fill="none" stroke="midnightblue" d="M575.91,-83.52C593.27,-83.52 610.69,-83.52 626.4,-83.52"/>
<polygon fill="midnightblue" stroke="midnightblue" points="575.71,-80.02 565.71,-83.52 575.71,-87.02 575.71,-80.02"/>
</g>
<!-- Node29 -->
<g id="node29" class="node">
<title>Node29</title>
<g id="a_node29"><a xlink:href="classPrecondHypreBoomerAMG.html" target="_top" xlink:title=" ">
<polygon fill="none" stroke="black" points="609,-25.02 609,-44.02 766,-44.02 766,-25.02 609,-25.02"/>
<text text-anchor="middle" x="687.5" y="-32.02" font-family="serif" font-size="10.00">PrecondHypreBoomerAMG</text>
</a>
</g>
</g>
<!-- Node28&#45;&gt;Node29 -->
<g id="edge28" class="edge">
<title>Node28&#45;&gt;Node29</title>
<path fill="none" stroke="midnightblue" d="M574.04,-34.52C585.73,-34.52 597.47,-34.52 608.72,-34.52"/>
<polygon fill="midnightblue" stroke="midnightblue" points="573.8,-31.02 563.8,-34.52 573.8,-38.02 573.8,-31.02"/>
</g>
</g>
</svg>
        <g id="navigator" transform="translate(0 0)" fill="#404254">
                <rect fill="#f2f5e9" fill-opacity="0.5" stroke="#606060" stroke-width=".5" x="0" y="0" width="60" height="60"/>
                <use id="zoomplus" xlink:href="#zoomPlus" x="17" y="9" onmousedown="handleZoom(evt,'in')"/>
                <use id="zoomminus" xlink:href="#zoomMin" x="42" y="9" onmousedown="handleZoom(evt,'out')"/>
                <use id="reset" xlink:href="#resetDef" x="30" y="36" onmousedown="handleReset()"/>
                <g id="arrowUp" xlink:href="#dirArrow" transform="translate(30 24)" onmousedown="handlePan(0,-1)">
                  <use xlink:href="#rim" fill="#404040">
                        <set attributeName="fill" to="#808080" begin="arrowUp.mouseover" end="arrowUp.mouseout"/>
                  </use>
                  <path fill="none" stroke="white" stroke-width="1.5" d="M0,-3.0v7 M-2.5,-0.5L0,-3.0L2.5,-0.5"/>
                </g>
                <g id="arrowRight" xlink:href="#dirArrow" transform="rotate(90) translate(36 -43)" onmousedown="handlePan(1,0)">
                  <use xlink:href="#rim" fill="#404040">
                        <set attributeName="fill" to="#808080" begin="arrowRight.mouseover" end="arrowRight.mouseout"/>
                  </use>
                  <path fill="none" stroke="white" stroke-width="1.5" d="M0,-3.0v7 M-2.5,-0.5L0,-3.0L2.5,-0.5"/>
                </g>
                <g id="arrowDown" xlink:href="#dirArrow" transform="rotate(180) translate(-30 -48)" onmousedown="handlePan(0,1)">
                  <use xlink:href="#rim" fill="#404040">
                        <set attributeName="fill" to="#808080" begin="arrowDown.mouseover" end="arrowDown.mouseout"/>
                  </use>
                  <path fill="none" stroke="white" stroke-width="1.5" d="M0,-3.0v7 M-2.5,-0.5L0,-3.0L2.5,-0.5"/>
                </g>
                <g id="arrowLeft" xlink:href="#dirArrow" transform="rotate(270) translate(-36 17)" onmousedown="handlePan(-1,0)">
                  <use xlink:href="#rim" fill="#404040">
                        <set attributeName="fill" to="#808080" begin="arrowLeft.mouseover" end="arrowLeft.mouseout"/>
                  </use>
                  <path fill="none" stroke="white" stroke-width="1.5" d="M0,-3.0v7 M-2.5,-0.5L0,-3.0L2.5,-0.5"/>
                </g>
        </g>
        <svg viewBox="0 0 15 15" width="100%" height="30px" preserveAspectRatio="xMaxYMin meet">
         <g id="arrow_out" transform="scale(0.3 0.3)">
          <a xlink:href="classSolverBase__inherit__graph_org.svg" target="_base">
           <rect id="button" ry="5" rx="5" y="6" x="6" height="38" width="38"
                fill="#f2f5e9" fill-opacity="0.5" stroke="#606060" stroke-width="1.0"/>
           <path id="arrow"
             d="M 11.500037,31.436501 C 11.940474,20.09759 22.043105,11.32322 32.158766,21.979434 L 37.068811,17.246167 C 37.068811,17.246167 37.088388,32 37.088388,32 L 22.160133,31.978069 C 22.160133,31.978069 26.997745,27.140456 26.997745,27.140456 C 18.528582,18.264221 13.291696,25.230495 11.500037,31.436501 z"
             style="fill:#404040;"/>
          </a>
         </g>
        </svg>
</svg>
