<?xml version="1.0" encoding="UTF-8" standalone="no"?>
<!DOCTYPE svg PUBLIC "-//W3C//DTD SVG 1.1//EN"
 "http://www.w3.org/Graphics/SVG/1.1/DTD/svg11.dtd">
<!-- Generated by graphviz version 2.43.0 (0)
 -->
<!-- Title: CalphadInformedNeuralNetwork::CalphadInformedNeuralNetwork Pages: 1 -->
<svg width="626pt" height="66pt"
 viewBox="0.00 0.00 626.00 66.00" xmlns="http://www.w3.org/2000/svg" xmlns:xlink="http://www.w3.org/1999/xlink">
<g id="graph0" class="graph" transform="scale(1 1) rotate(0) translate(4 62)">
<title>CalphadInformedNeuralNetwork::CalphadInformedNeuralNetwork</title>
<!-- Node1 -->
<g id="node1" class="node">
<title>Node1</title>
<g id="a_node1"><a xlink:title="Construct a new CalphadInformedNeuralNetwork::CalphadInformedNeuralNetwork object.">
<polygon fill="#bfbfbf" stroke="black" points="0,-14 0,-44 191,-44 191,-14 0,-14"/>
<text text-anchor="start" x="8" y="-32" font-family="serif" font-size="10.00">CalphadInformedNeuralNetwork</text>
<text text-anchor="middle" x="95.5" y="-21" font-family="serif" font-size="10.00">::CalphadInformedNeuralNetwork</text>
</a>
</g>
</g>
<!-- Node2 -->
<g id="node2" class="node">
<title>Node2</title>
<g id="a_node2"><a xlink:href="classCalphadInformedNeuralNetwork.html#a65455151b7486c06d1b346c377468800" target="_top" xlink:title="Get the parameters associated with the CalphadInformedNeuralNetwork object.">
<polygon fill="none" stroke="black" points="227,-14 227,-44 412,-44 412,-14 227,-14"/>
<text text-anchor="start" x="235" y="-32" font-family="serif" font-size="10.00">CalphadInformedNeuralNetwork</text>
<text text-anchor="middle" x="319.5" y="-21" font-family="serif" font-size="10.00">::get_parameters</text>
</a>
</g>
</g>
<!-- Node1&#45;&gt;Node2 -->
<g id="edge1" class="edge">
<title>Node1&#45;&gt;Node2</title>
<path fill="none" stroke="midnightblue" d="M191.29,-29C199.67,-29 208.17,-29 216.61,-29"/>
<polygon fill="midnightblue" stroke="midnightblue" points="216.85,-32.5 226.85,-29 216.85,-25.5 216.85,-32.5"/>
</g>
<!-- Node3 -->
<g id="node3" class="node">
<title>Node3</title>
<g id="a_node3"><a xlink:href="UtilsForData_8hpp.html#a00c16f753cc7812a3a97fb5a5ddd11d2" target="_top" xlink:title="Check existence of a file.">
<polygon fill="none" stroke="black" points="473,-38.5 473,-57.5 593,-57.5 593,-38.5 473,-38.5"/>
<text text-anchor="middle" x="533" y="-45.5" font-family="serif" font-size="10.00">check_file_existence</text>
</a>
</g>
</g>
<!-- Node2&#45;&gt;Node3 -->
<g id="edge2" class="edge">
<title>Node2&#45;&gt;Node3</title>
<path fill="none" stroke="midnightblue" d="M412.04,-37.22C428.98,-38.75 446.42,-40.31 462.57,-41.76"/>
<polygon fill="midnightblue" stroke="midnightblue" points="462.71,-45.29 472.98,-42.7 463.33,-38.32 462.71,-45.29"/>
</g>
<!-- Node4 -->
<g id="node4" class="node">
<title>Node4</title>
<g id="a_node4"><a xlink:href="classCalphadBase.html#acf1e5755a33921216777fbd78558a051" target="_top" xlink:title="Get Calphad parameters.">
<polygon fill="none" stroke="black" points="448,-0.5 448,-19.5 618,-19.5 618,-0.5 448,-0.5"/>
<text text-anchor="middle" x="533" y="-7.5" font-family="serif" font-size="10.00">CalphadBase::get_parameters</text>
</a>
</g>
</g>
<!-- Node2&#45;&gt;Node4 -->
<g id="edge3" class="edge">
<title>Node2&#45;&gt;Node4</title>
<path fill="none" stroke="midnightblue" d="M412.04,-20.78C420.62,-20.01 429.34,-19.22 437.94,-18.45"/>
<polygon fill="midnightblue" stroke="midnightblue" points="438.34,-21.93 447.99,-17.55 437.72,-14.96 438.34,-21.93"/>
</g>
</g>
</svg>
