<?xml version="1.0" encoding="UTF-8" standalone="no"?>
<!DOCTYPE svg PUBLIC "-//W3C//DTD SVG 1.1//EN"
 "http://www.w3.org/Graphics/SVG/1.1/DTD/svg11.dtd">
<!-- Generated by graphviz version 2.43.0 (0)
 -->
<!-- Title: PrecondHypreDiagScale Pages: 1 -->
<svg width="253pt" height="174pt"
 viewBox="0.00 0.00 253.00 174.00" xmlns="http://www.w3.org/2000/svg" xmlns:xlink="http://www.w3.org/1999/xlink">
<g id="graph0" class="graph" transform="scale(1 1) rotate(0) translate(4 170)">
<title>PrecondHypreDiagScale</title>
<!-- Node1 -->
<g id="node1" class="node">
<title>Node1</title>
<g id="a_node1"><a xlink:title=" ">
<polygon fill="#bfbfbf" stroke="black" points="26,-0.5 26,-19.5 168,-19.5 168,-0.5 26,-0.5"/>
<text text-anchor="middle" x="97" y="-7.5" font-family="serif" font-size="10.00">PrecondHypreDiagScale</text>
</a>
</g>
</g>
<!-- Node2 -->
<g id="node2" class="node">
<title>Node2</title>
<g id="a_node2"><a xlink:href="classSolverBase.html" target="_top" xlink:title=" ">
<polygon fill="none" stroke="black" points="0,-57.5 0,-87.5 194,-87.5 194,-57.5 0,-57.5"/>
<text text-anchor="start" x="8" y="-75.5" font-family="serif" font-size="10.00">SolverBase&lt; mfem::HypreDiag</text>
<text text-anchor="middle" x="97" y="-64.5" font-family="serif" font-size="10.00">Scale, HyprePreconditionerType &gt;</text>
</a>
</g>
</g>
<!-- Node2&#45;&gt;Node1 -->
<g id="edge1" class="edge">
<title>Node2&#45;&gt;Node1</title>
<path fill="none" stroke="midnightblue" d="M97,-47.35C97,-37.51 97,-26.78 97,-19.54"/>
<polygon fill="midnightblue" stroke="midnightblue" points="93.5,-47.47 97,-57.47 100.5,-47.47 93.5,-47.47"/>
</g>
<!-- Node3 -->
<g id="node3" class="node">
<title>Node3</title>
<g id="a_node3"><a xlink:href="classSolverBase.html" target="_top" xlink:title=" ">
<polygon fill="none" stroke="black" points="40,-146.5 40,-165.5 154,-165.5 154,-146.5 40,-146.5"/>
<text text-anchor="middle" x="97" y="-153.5" font-family="serif" font-size="10.00">SolverBase&lt; T, S &gt;</text>
</a>
</g>
</g>
<!-- Node3&#45;&gt;Node2 -->
<g id="edge2" class="edge">
<title>Node3&#45;&gt;Node2</title>
<path fill="none" stroke="orange" stroke-dasharray="5,2" d="M97,-136.23C97,-121.41 97,-101.05 97,-87.6"/>
<polygon fill="orange" stroke="orange" points="93.5,-136.28 97,-146.28 100.5,-136.28 93.5,-136.28"/>
<text text-anchor="start" x="97" y="-120" font-family="serif" font-size="10.00"> &lt; mfem::HypreDiagScale,</text>
<text text-anchor="middle" x="171" y="-109" font-family="serif" font-size="10.00"> HyprePreconditionerType &gt;</text>
</g>
</g>
</svg>
