<?xml version="1.0" encoding="UTF-8" standalone="no"?>
<!DOCTYPE svg PUBLIC "-//W3C//DTD SVG 1.1//EN"
 "http://www.w3.org/Graphics/SVG/1.1/DTD/svg11.dtd">
<!-- Generated by graphviz version 2.43.0 (0)
 -->
<!-- Title: SteadyPhaseFieldOperator&lt; T, DIM, NLFI, LHS_NLFI &gt; Pages: 1 -->
<svg width="917pt" height="110pt"
 viewBox="0.00 0.00 917.00 110.00" xmlns="http://www.w3.org/2000/svg" xmlns:xlink="http://www.w3.org/1999/xlink">
<g id="graph0" class="graph" transform="scale(1 1) rotate(0) translate(4 106)">
<title>SteadyPhaseFieldOperator&lt; T, DIM, NLFI, LHS_NLFI &gt;</title>
<!-- Node1 -->
<g id="node1" class="node">
<title>Node1</title>
<g id="a_node1"><a xlink:title="Class SteadyPhaseFieldOperator.">
<polygon fill="#bfbfbf" stroke="black" points="744,-30 744,-60 909,-60 909,-30 744,-30"/>
<text text-anchor="start" x="752" y="-48" font-family="serif" font-size="10.00">SteadyPhaseFieldOperator</text>
<text text-anchor="middle" x="826.5" y="-37" font-family="serif" font-size="10.00">&lt; T, DIM, NLFI, LHS_NLFI &gt;</text>
</a>
</g>
</g>
<!-- Node2 -->
<g id="node2" class="node">
<title>Node2</title>
<g id="a_node2"><a xlink:href="classPhaseFieldOperatorBase.html" target="_top" xlink:title=" ">
<polygon fill="none" stroke="black" points="531,-19 531,-71 707,-71 707,-19 531,-19"/>
<text text-anchor="start" x="539" y="-59" font-family="serif" font-size="10.00">PhaseFieldOperatorBase</text>
<text text-anchor="start" x="539" y="-48" font-family="serif" font-size="10.00">&lt; T, DIM, NLFI, mfem::</text>
<text text-anchor="start" x="539" y="-37" font-family="serif" font-size="10.00">BlockNonlinearFormIntegrator,</text>
<text text-anchor="middle" x="619" y="-26" font-family="serif" font-size="10.00"> SteadyOperatorBase &gt;</text>
</a>
</g>
</g>
<!-- Node2&#45;&gt;Node1 -->
<g id="edge1" class="edge">
<title>Node2&#45;&gt;Node1</title>
<path fill="none" stroke="midnightblue" d="M717.16,-45C726.07,-45 735.02,-45 743.77,-45"/>
<polygon fill="midnightblue" stroke="midnightblue" points="717.15,-41.5 707.15,-45 717.15,-48.5 717.15,-41.5"/>
</g>
<!-- Node3 -->
<g id="node3" class="node">
<title>Node3</title>
<g id="a_node3"><a xlink:href="classSteadyOperatorBase.html" target="_top" xlink:title="SteadyOperatorBase class.">
<polygon fill="none" stroke="black" points="189.5,-60.5 189.5,-101.5 311.5,-101.5 311.5,-60.5 189.5,-60.5"/>
<text text-anchor="start" x="197.5" y="-89.5" font-family="serif" font-size="10.00">SteadyOperatorBase</text>
<text text-anchor="start" x="197.5" y="-78.5" font-family="serif" font-size="10.00">&lt; T, DIM, NLFI, LHS</text>
<text text-anchor="middle" x="250.5" y="-67.5" font-family="serif" font-size="10.00">_NLFI &gt;</text>
</a>
</g>
</g>
<!-- Node3&#45;&gt;Node2 -->
<g id="edge2" class="edge">
<title>Node3&#45;&gt;Node2</title>
<path fill="none" stroke="midnightblue" d="M321.85,-77.05C374.57,-73.75 448.43,-68.38 513,-61 518.86,-60.33 524.9,-59.58 530.98,-58.77"/>
<polygon fill="midnightblue" stroke="midnightblue" points="321.37,-73.58 311.6,-77.69 321.8,-80.56 321.37,-73.58"/>
</g>
<!-- Node4 -->
<g id="node4" class="node">
<title>Node4</title>
<g id="a_node4"><a xlink:href="classOperatorBase.html" target="_top" xlink:title="Base class for building Steady and TimeDependent PhaseFieldOperators.">
<polygon fill="none" stroke="black" points="0,-66 0,-96 135,-96 135,-66 0,-66"/>
<text text-anchor="start" x="8" y="-84" font-family="serif" font-size="10.00">OperatorBase&lt; T, DIM,</text>
<text text-anchor="middle" x="67.5" y="-73" font-family="serif" font-size="10.00"> NLFI, LHS_NLFI &gt;</text>
</a>
</g>
</g>
<!-- Node4&#45;&gt;Node3 -->
<g id="edge3" class="edge">
<title>Node4&#45;&gt;Node3</title>
<path fill="none" stroke="midnightblue" d="M145.22,-81C159.96,-81 175.18,-81 189.3,-81"/>
<polygon fill="midnightblue" stroke="midnightblue" points="145.13,-77.5 135.13,-81 145.13,-84.5 145.13,-77.5"/>
</g>
<!-- Node5 -->
<g id="node5" class="node">
<title>Node5</title>
<g id="a_node5"><a xlink:href="classPhaseFieldOperatorBase.html" target="_top" xlink:title="Base class for AllenCahn.">
<polygon fill="none" stroke="black" points="172,-0.5 172,-41.5 329,-41.5 329,-0.5 172,-0.5"/>
<text text-anchor="start" x="180" y="-29.5" font-family="serif" font-size="10.00">PhaseFieldOperatorBase</text>
<text text-anchor="start" x="180" y="-18.5" font-family="serif" font-size="10.00">&lt; T, DIM, NLFI, LHS_NLFI,</text>
<text text-anchor="middle" x="250.5" y="-7.5" font-family="serif" font-size="10.00"> OPEBASE &gt;</text>
</a>
</g>
</g>
<!-- Node5&#45;&gt;Node2 -->
<g id="edge4" class="edge">
<title>Node5&#45;&gt;Node2</title>
<path fill="none" stroke="orange" stroke-dasharray="5,2" d="M339.48,-20.43C390.29,-20.83 455.36,-22.59 513,-28 518.79,-28.54 524.75,-29.21 530.74,-29.96"/>
<polygon fill="orange" stroke="orange" points="339.21,-16.93 329.19,-20.36 339.16,-23.93 339.21,-16.93"/>
<text text-anchor="start" x="347" y="-53" font-family="serif" font-size="10.00"> &lt; T, DIM, NLFI, mfem</text>
<text text-anchor="start" x="347" y="-42" font-family="serif" font-size="10.00">::BlockNonlinearFormIntegrator,</text>
<text text-anchor="middle" x="430" y="-31" font-family="serif" font-size="10.00"> SteadyOperatorBase &gt;</text>
</g>
</g>
</svg>
