<?xml version="1.0" encoding="UTF-8" standalone="no"?>
<!DOCTYPE svg PUBLIC "-//W3C//DTD SVG 1.1//EN"
 "http://www.w3.org/Graphics/SVG/1.1/DTD/svg11.dtd">
<!-- Generated by graphviz version 2.43.0 (0)
 -->
<!-- Title: ProblemBase::post_processing Pages: 1 -->
<svg width="365pt" height="78pt"
 viewBox="0.00 0.00 365.00 77.50" xmlns="http://www.w3.org/2000/svg" xmlns:xlink="http://www.w3.org/1999/xlink">
<g id="graph0" class="graph" transform="scale(1 1) rotate(0) translate(4 73.5)">
<title>ProblemBase::post_processing</title>
<!-- Node1 -->
<g id="node1" class="node">
<title>Node1</title>
<g id="a_node1"><a xlink:title="Save variables of the problem (see save method for other actions)">
<polygon fill="#bfbfbf" stroke="black" points="184,-22.5 184,-41.5 357,-41.5 357,-22.5 184,-22.5"/>
<text text-anchor="middle" x="270.5" y="-29.5" font-family="serif" font-size="10.00">ProblemBase::post_processing</text>
</a>
</g>
</g>
<!-- Node2 -->
<g id="node2" class="node">
<title>Node2</title>
<g id="a_node2"><a xlink:href="classCalphad__Problem.html#a94346f426fd9bbb3754c5e22e7b87f57" target="_top" xlink:title=" ">
<polygon fill="none" stroke="black" points="6.5,-39 6.5,-69 141.5,-69 141.5,-39 6.5,-39"/>
<text text-anchor="start" x="14.5" y="-57" font-family="serif" font-size="10.00">Calphad_Problem::post</text>
<text text-anchor="middle" x="74" y="-46" font-family="serif" font-size="10.00">_processing</text>
</a>
</g>
</g>
<!-- Node1&#45;&gt;Node2 -->
<g id="edge1" class="edge">
<title>Node1&#45;&gt;Node2</title>
<path fill="none" stroke="midnightblue" d="M175.37,-42.65C164,-43.93 152.58,-45.22 141.73,-46.45"/>
<polygon fill="midnightblue" stroke="midnightblue" points="175.78,-46.12 185.32,-41.52 174.99,-39.17 175.78,-46.12"/>
</g>
<!-- Node3 -->
<g id="node3" class="node">
<title>Node3</title>
<g id="a_node3"><a xlink:href="classProblem.html#aa480b2e5678aae55a426078ba16dfa29" target="_top" xlink:title="Call the post_execute method of the given problem and saves variables according with PST.">
<polygon fill="none" stroke="black" points="0,-0.5 0,-19.5 148,-19.5 148,-0.5 0,-0.5"/>
<text text-anchor="middle" x="74" y="-7.5" font-family="serif" font-size="10.00">Problem::post_processing</text>
</a>
</g>
</g>
<!-- Node1&#45;&gt;Node3 -->
<g id="edge2" class="edge">
<title>Node1&#45;&gt;Node3</title>
<path fill="none" stroke="midnightblue" d="M175.38,-21.35C166.18,-20.31 156.95,-19.27 148.01,-18.26"/>
<polygon fill="midnightblue" stroke="midnightblue" points="174.99,-24.83 185.32,-22.48 175.78,-17.88 174.99,-24.83"/>
</g>
</g>
</svg>
