<?xml version="1.0" encoding="UTF-8" standalone="no"?>
<!DOCTYPE svg PUBLIC "-//W3C//DTD SVG 1.1//EN"
 "http://www.w3.org/Graphics/SVG/1.1/DTD/svg11.dtd">
<!-- Generated by graphviz version 2.43.0 (0)
 -->
<!-- Title: CalphadInformedNeuralNetwork&lt; T &gt; Pages: 1 -->
<svg width="223pt" height="152pt"
 viewBox="0.00 0.00 223.00 152.00" xmlns="http://www.w3.org/2000/svg" xmlns:xlink="http://www.w3.org/1999/xlink">
<g id="graph0" class="graph" transform="scale(1 1) rotate(0) translate(4 148)">
<title>CalphadInformedNeuralNetwork&lt; T &gt;</title>
<!-- Node1 -->
<g id="node1" class="node">
<title>Node1</title>
<g id="a_node1"><a xlink:title="Calphad calculation performed by neural network Dedicated to simulations with multicomponent inter&#45;di...">
<polygon fill="#bfbfbf" stroke="black" points="0,-0.5 0,-19.5 215,-19.5 215,-0.5 0,-0.5"/>
<text text-anchor="middle" x="107.5" y="-7.5" font-family="serif" font-size="10.00">CalphadInformedNeuralNetwork&lt; T &gt;</text>
</a>
</g>
</g>
<!-- Node2 -->
<g id="node2" class="node">
<title>Node2</title>
<g id="a_node2"><a xlink:href="classCalphadBase.html" target="_top" xlink:title=" ">
<polygon fill="none" stroke="black" points="51,-57.5 51,-76.5 164,-76.5 164,-57.5 51,-57.5"/>
<text text-anchor="middle" x="107.5" y="-64.5" font-family="serif" font-size="10.00">CalphadBase&lt; T &gt;</text>
</a>
</g>
</g>
<!-- Node2&#45;&gt;Node1 -->
<g id="edge1" class="edge">
<title>Node2&#45;&gt;Node1</title>
<path fill="none" stroke="midnightblue" d="M107.5,-47.12C107.5,-37.82 107.5,-27.06 107.5,-19.71"/>
<polygon fill="midnightblue" stroke="midnightblue" points="104,-47.41 107.5,-57.41 111,-47.41 104,-47.41"/>
</g>
<!-- Node3 -->
<g id="node3" class="node">
<title>Node3</title>
<g id="a_node3"><a xlink:href="classParameters.html" target="_top" xlink:title=" ">
<polygon fill="none" stroke="black" points="70.5,-124.5 70.5,-143.5 144.5,-143.5 144.5,-124.5 70.5,-124.5"/>
<text text-anchor="middle" x="107.5" y="-131.5" font-family="serif" font-size="10.00">Parameters</text>
</a>
</g>
</g>
<!-- Node3&#45;&gt;Node2 -->
<g id="edge2" class="edge">
<title>Node3&#45;&gt;Node2</title>
<path fill="none" stroke="#9a32cd" stroke-dasharray="5,2" d="M107.5,-114.04C107.5,-101.67 107.5,-86.12 107.5,-76.63"/>
<polygon fill="#9a32cd" stroke="#9a32cd" points="104,-114.23 107.5,-124.23 111,-114.23 104,-114.23"/>
<text text-anchor="middle" x="131" y="-98" font-family="serif" font-size="10.00"> params_</text>
</g>
</g>
</svg>
