<?xml version="1.0" encoding="UTF-8" standalone="no"?>
<!DOCTYPE svg PUBLIC "-//W3C//DTD SVG 1.1//EN"
 "http://www.w3.org/Graphics/SVG/1.1/DTD/svg11.dtd">
<!-- Generated by graphviz version 2.43.0 (0)
 -->
<!-- Title: HeatOperator&lt; T, DIM, NLFI, LHS_NLFI, RHO, CP &gt; Pages: 1 -->
<svg width="904pt" height="100pt"
 viewBox="0.00 0.00 904.00 99.50" xmlns="http://www.w3.org/2000/svg" xmlns:xlink="http://www.w3.org/1999/xlink">
<g id="graph0" class="graph" transform="scale(1 1) rotate(0) translate(4 95.5)">
<title>HeatOperator&lt; T, DIM, NLFI, LHS_NLFI, RHO, CP &gt;</title>
<!-- Node1 -->
<g id="node1" class="node">
<title>Node1</title>
<g id="a_node1"><a xlink:title="Class HeatOperator.">
<polygon fill="#bfbfbf" stroke="black" points="729,-24 729,-54 896,-54 896,-24 729,-24"/>
<text text-anchor="start" x="737" y="-42" font-family="serif" font-size="10.00">HeatOperator&lt; T, DIM,</text>
<text text-anchor="middle" x="812.5" y="-31" font-family="serif" font-size="10.00"> NLFI, LHS_NLFI, RHO, CP &gt;</text>
</a>
</g>
</g>
<!-- Node2 -->
<g id="node2" class="node">
<title>Node2</title>
<g id="a_node2"><a xlink:href="classHeatOperatorBase.html" target="_top" xlink:title=" ">
<polygon fill="none" stroke="black" points="542,-18.5 542,-59.5 692,-59.5 692,-18.5 542,-18.5"/>
<text text-anchor="start" x="550" y="-47.5" font-family="serif" font-size="10.00">HeatOperatorBase&lt; T,</text>
<text text-anchor="start" x="550" y="-36.5" font-family="serif" font-size="10.00"> DIM, NLFI, LHS_NLFI,</text>
<text text-anchor="middle" x="617" y="-25.5" font-family="serif" font-size="10.00"> TransientOperatorBase &gt;</text>
</a>
</g>
</g>
<!-- Node2&#45;&gt;Node1 -->
<g id="edge1" class="edge">
<title>Node2&#45;&gt;Node1</title>
<path fill="none" stroke="midnightblue" d="M702.43,-39C711.16,-39 720.02,-39 728.74,-39"/>
<polygon fill="midnightblue" stroke="midnightblue" points="702.26,-35.5 692.26,-39 702.26,-42.5 702.26,-35.5"/>
</g>
<!-- Node3 -->
<g id="node3" class="node">
<title>Node3</title>
<g id="a_node3"><a xlink:href="classTransientOperatorBase.html" target="_top" xlink:title="TransientOperatorBase class.">
<polygon fill="none" stroke="black" points="172,-61 172,-91 337,-91 337,-61 172,-61"/>
<text text-anchor="start" x="180" y="-79" font-family="serif" font-size="10.00">TransientOperatorBase</text>
<text text-anchor="middle" x="254.5" y="-68" font-family="serif" font-size="10.00">&lt; T, DIM, NLFI, LHS_NLFI &gt;</text>
</a>
</g>
</g>
<!-- Node3&#45;&gt;Node2 -->
<g id="edge2" class="edge">
<title>Node3&#45;&gt;Node2</title>
<path fill="none" stroke="midnightblue" d="M347.2,-69.64C399.16,-65.66 465.31,-59.97 524,-53 529.78,-52.31 535.75,-51.54 541.74,-50.73"/>
<polygon fill="midnightblue" stroke="midnightblue" points="346.72,-66.17 337.01,-70.41 347.25,-73.15 346.72,-66.17"/>
</g>
<!-- Node4 -->
<g id="node4" class="node">
<title>Node4</title>
<g id="a_node4"><a xlink:href="classOperatorBase.html" target="_top" xlink:title="Base class for building Steady and TimeDependent PhaseFieldOperators.">
<polygon fill="none" stroke="black" points="0,-61 0,-91 135,-91 135,-61 0,-61"/>
<text text-anchor="start" x="8" y="-79" font-family="serif" font-size="10.00">OperatorBase&lt; T, DIM,</text>
<text text-anchor="middle" x="67.5" y="-68" font-family="serif" font-size="10.00"> NLFI, LHS_NLFI &gt;</text>
</a>
</g>
</g>
<!-- Node4&#45;&gt;Node3 -->
<g id="edge3" class="edge">
<title>Node4&#45;&gt;Node3</title>
<path fill="none" stroke="midnightblue" d="M145.21,-76C153.97,-76 162.93,-76 171.76,-76"/>
<polygon fill="midnightblue" stroke="midnightblue" points="145.03,-72.5 135.03,-76 145.03,-79.5 145.03,-72.5"/>
</g>
<!-- Node5 -->
<g id="node5" class="node">
<title>Node5</title>
<g id="a_node5"><a xlink:href="classHeatOperatorBase.html" target="_top" xlink:title="Base class for Mass Heat.">
<polygon fill="none" stroke="black" points="186,-0.5 186,-41.5 323,-41.5 323,-0.5 186,-0.5"/>
<text text-anchor="start" x="194" y="-29.5" font-family="serif" font-size="10.00">HeatOperatorBase&lt; T,</text>
<text text-anchor="start" x="194" y="-18.5" font-family="serif" font-size="10.00"> DIM, NLFI, LHS_NLFI,</text>
<text text-anchor="middle" x="254.5" y="-7.5" font-family="serif" font-size="10.00"> OPEBASE &gt;</text>
</a>
</g>
</g>
<!-- Node5&#45;&gt;Node2 -->
<g id="edge4" class="edge">
<title>Node5&#45;&gt;Node2</title>
<path fill="none" stroke="orange" stroke-dasharray="5,2" d="M333.26,-22.88C386.89,-24.42 459.81,-27.02 524,-31 529.76,-31.36 535.72,-31.77 541.71,-32.22"/>
<polygon fill="orange" stroke="orange" points="333.23,-19.38 323.13,-22.59 333.03,-26.37 333.23,-19.38"/>
<text text-anchor="start" x="355" y="-45" font-family="serif" font-size="10.00"> &lt; T, DIM, NLFI, LHS</text>
<text text-anchor="middle" x="439.5" y="-34" font-family="serif" font-size="10.00">_NLFI, TransientOperatorBase &gt;</text>
</g>
</g>
</svg>
