<?xml version="1.0" encoding="UTF-8" standalone="no"?>
<!DOCTYPE svg PUBLIC "-//W3C//DTD SVG 1.1//EN"
 "http://www.w3.org/Graphics/SVG/1.1/DTD/svg11.dtd">
<!-- Generated by graphviz version 2.43.0 (0)
 -->
<!-- Title: KKS&lt; T &gt; Pages: 1 -->
<svg width="804pt" height="68pt"
 viewBox="0.00 0.00 804.00 67.50" xmlns="http://www.w3.org/2000/svg" xmlns:xlink="http://www.w3.org/1999/xlink">
<g id="graph0" class="graph" transform="scale(1 1) rotate(0) translate(4 63.5)">
<title>KKS&lt; T &gt;</title>
<!-- Node1 -->
<g id="node1" class="node">
<title>Node1</title>
<g id="a_node1"><a xlink:title="Linearized KKS problem for two&#45;phase multi&#45;component system.">
<polygon fill="#bfbfbf" stroke="black" points="728,-17 728,-36 796,-36 796,-17 728,-17"/>
<text text-anchor="middle" x="762" y="-24" font-family="serif" font-size="10.00">KKS&lt; T &gt;</text>
</a>
</g>
</g>
<!-- Node2 -->
<g id="node2" class="node">
<title>Node2</title>
<g id="a_node2"><a xlink:href="classPotentialFunctions.html" target="_top" xlink:title=" ">
<polygon fill="none" stroke="black" points="406,-0.5 406,-52.5 590,-52.5 590,-0.5 406,-0.5"/>
<text text-anchor="start" x="414" y="-40.5" font-family="serif" font-size="10.00">PotentialFunctions</text>
<text text-anchor="start" x="414" y="-29.5" font-family="serif" font-size="10.00">&lt; 0, ThermodynamicsPotential</text>
<text text-anchor="start" x="414" y="-18.5" font-family="serif" font-size="10.00">Discretization::Implicit,</text>
<text text-anchor="middle" x="498" y="-7.5" font-family="serif" font-size="10.00"> ThermodynamicsPotentials::H &gt;</text>
</a>
</g>
</g>
<!-- Node2&#45;&gt;Node1 -->
<g id="edge1" class="edge">
<title>Node2&#45;&gt;Node1</title>
<path fill="none" stroke="#9a32cd" stroke-dasharray="5,2" d="M600.43,-26.5C645.66,-26.5 695.85,-26.5 727.88,-26.5"/>
<polygon fill="#9a32cd" stroke="#9a32cd" points="600.27,-23 590.27,-26.5 600.27,-30 600.27,-23"/>
<text text-anchor="middle" x="659" y="-29.5" font-family="serif" font-size="10.00"> interpolation_func_</text>
</g>
<!-- Node3 -->
<g id="node3" class="node">
<title>Node3</title>
<g id="a_node3"><a xlink:href="classPotentialFunctions.html" target="_top" xlink:title=" ">
<polygon fill="none" stroke="black" points="0,-11.5 0,-41.5 202,-41.5 202,-11.5 0,-11.5"/>
<text text-anchor="start" x="8" y="-29.5" font-family="serif" font-size="10.00">PotentialFunctions</text>
<text text-anchor="middle" x="101" y="-18.5" font-family="serif" font-size="10.00">&lt; ORDER, SCHEME, POTENTIAL &gt;</text>
</a>
</g>
</g>
<!-- Node3&#45;&gt;Node2 -->
<g id="edge2" class="edge">
<title>Node3&#45;&gt;Node2</title>
<path fill="none" stroke="orange" stroke-dasharray="5,2" d="M212.23,-26.5C273.2,-26.5 348.05,-26.5 405.71,-26.5"/>
<polygon fill="orange" stroke="orange" points="212.19,-23 202.19,-26.5 212.19,-30 212.19,-23"/>
<text text-anchor="start" x="220" y="-51.5" font-family="serif" font-size="10.00"> &lt; 0, ThermodynamicsPotential</text>
<text text-anchor="start" x="220" y="-40.5" font-family="serif" font-size="10.00">Discretization::Implicit,</text>
<text text-anchor="middle" x="304" y="-29.5" font-family="serif" font-size="10.00"> ThermodynamicsPotentials::H &gt;</text>
</g>
</g>
</svg>
