<?xml version="1.0" encoding="UTF-8" standalone="no"?>
<!DOCTYPE svg PUBLIC "-//W3C//DTD SVG 1.1//EN"
 "http://www.w3.org/Graphics/SVG/1.1/DTD/svg11.dtd">
<!-- Generated by graphviz version 2.43.0 (0)
 -->
<!-- Title: PhaseFieldOperatorBase&lt; T, DIM, NLFI, LHS_NLFI, OPEBASE &gt; Pages: 1 -->
<svg width="748pt" height="122pt"
 viewBox="0.00 0.00 748.00 121.50" xmlns="http://www.w3.org/2000/svg" xmlns:xlink="http://www.w3.org/1999/xlink">
<g id="graph0" class="graph" transform="scale(1 1) rotate(0) translate(4 117.5)">
<title>PhaseFieldOperatorBase&lt; T, DIM, NLFI, LHS_NLFI, OPEBASE &gt;</title>
<!-- Node1 -->
<g id="node1" class="node">
<title>Node1</title>
<g id="a_node1"><a xlink:title="Base class for AllenCahn.">
<polygon fill="#bfbfbf" stroke="black" points="0,-32.5 0,-73.5 157,-73.5 157,-32.5 0,-32.5"/>
<text text-anchor="start" x="8" y="-61.5" font-family="serif" font-size="10.00">PhaseFieldOperatorBase</text>
<text text-anchor="start" x="8" y="-50.5" font-family="serif" font-size="10.00">&lt; T, DIM, NLFI, LHS_NLFI,</text>
<text text-anchor="middle" x="78.5" y="-39.5" font-family="serif" font-size="10.00"> OPEBASE &gt;</text>
</a>
</g>
</g>
<!-- Node2 -->
<g id="node2" class="node">
<title>Node2</title>
<g id="a_node2"><a xlink:href="classPhaseFieldOperatorBase.html" target="_top" xlink:title=" ">
<polygon fill="none" stroke="black" points="362,-61 362,-113 538,-113 538,-61 362,-61"/>
<text text-anchor="start" x="370" y="-101" font-family="serif" font-size="10.00">PhaseFieldOperatorBase</text>
<text text-anchor="start" x="370" y="-90" font-family="serif" font-size="10.00">&lt; T, DIM, NLFI, mfem::</text>
<text text-anchor="start" x="370" y="-79" font-family="serif" font-size="10.00">BlockNonlinearFormIntegrator,</text>
<text text-anchor="middle" x="450" y="-68" font-family="serif" font-size="10.00"> SteadyOperatorBase &gt;</text>
</a>
</g>
</g>
<!-- Node1&#45;&gt;Node2 -->
<g id="edge1" class="edge">
<title>Node1&#45;&gt;Node2</title>
<path fill="none" stroke="orange" stroke-dasharray="5,2" d="M167.42,-61.09C226.19,-66.5 303.19,-73.58 361.82,-78.98"/>
<polygon fill="orange" stroke="orange" points="167.69,-57.6 157.41,-60.17 167.05,-64.57 167.69,-57.6"/>
<text text-anchor="start" x="176.5" y="-101" font-family="serif" font-size="10.00"> &lt; T, DIM, NLFI, mfem</text>
<text text-anchor="start" x="176.5" y="-90" font-family="serif" font-size="10.00">::BlockNonlinearFormIntegrator,</text>
<text text-anchor="middle" x="259.5" y="-79" font-family="serif" font-size="10.00"> SteadyOperatorBase &gt;</text>
</g>
<!-- Node4 -->
<g id="node4" class="node">
<title>Node4</title>
<g id="a_node4"><a xlink:href="classPhaseFieldOperatorBase.html" target="_top" xlink:title=" ">
<polygon fill="none" stroke="black" points="371.5,-0.5 371.5,-41.5 528.5,-41.5 528.5,-0.5 371.5,-0.5"/>
<text text-anchor="start" x="379.5" y="-29.5" font-family="serif" font-size="10.00">PhaseFieldOperatorBase</text>
<text text-anchor="start" x="379.5" y="-18.5" font-family="serif" font-size="10.00">&lt; T, DIM, NLFI, LHS_NLFI,</text>
<text text-anchor="middle" x="450" y="-7.5" font-family="serif" font-size="10.00"> TransientOperatorBase &gt;</text>
</a>
</g>
</g>
<!-- Node1&#45;&gt;Node4 -->
<g id="edge3" class="edge">
<title>Node1&#45;&gt;Node4</title>
<path fill="none" stroke="orange" stroke-dasharray="5,2" d="M167.23,-37.93C169.85,-37.6 172.44,-37.29 175,-37 241.05,-29.56 316.48,-25.48 371.45,-23.3"/>
<polygon fill="orange" stroke="orange" points="166.51,-34.49 157.06,-39.29 167.44,-41.43 166.51,-34.49"/>
<text text-anchor="start" x="175" y="-51" font-family="serif" font-size="10.00"> &lt; T, DIM, NLFI, LHS</text>
<text text-anchor="middle" x="259.5" y="-40" font-family="serif" font-size="10.00">_NLFI, TransientOperatorBase &gt;</text>
</g>
<!-- Node3 -->
<g id="node3" class="node">
<title>Node3</title>
<g id="a_node3"><a xlink:href="classSteadyPhaseFieldOperator.html" target="_top" xlink:title="Class SteadyPhaseFieldOperator.">
<polygon fill="none" stroke="black" points="575,-72 575,-102 740,-102 740,-72 575,-72"/>
<text text-anchor="start" x="583" y="-90" font-family="serif" font-size="10.00">SteadyPhaseFieldOperator</text>
<text text-anchor="middle" x="657.5" y="-79" font-family="serif" font-size="10.00">&lt; T, DIM, NLFI, LHS_NLFI &gt;</text>
</a>
</g>
</g>
<!-- Node2&#45;&gt;Node3 -->
<g id="edge2" class="edge">
<title>Node2&#45;&gt;Node3</title>
<path fill="none" stroke="midnightblue" d="M548.16,-87C557.07,-87 566.02,-87 574.77,-87"/>
<polygon fill="midnightblue" stroke="midnightblue" points="548.15,-83.5 538.15,-87 548.15,-90.5 548.15,-83.5"/>
</g>
<!-- Node5 -->
<g id="node5" class="node">
<title>Node5</title>
<g id="a_node5"><a xlink:href="classPhaseFieldOperator.html" target="_top" xlink:title="Class PhaseFieldOperator.">
<polygon fill="none" stroke="black" points="596.5,-0.5 596.5,-41.5 718.5,-41.5 718.5,-0.5 596.5,-0.5"/>
<text text-anchor="start" x="604.5" y="-29.5" font-family="serif" font-size="10.00">PhaseFieldOperator</text>
<text text-anchor="start" x="604.5" y="-18.5" font-family="serif" font-size="10.00">&lt; T, DIM, NLFI, LHS</text>
<text text-anchor="middle" x="657.5" y="-7.5" font-family="serif" font-size="10.00">_NLFI &gt;</text>
</a>
</g>
</g>
<!-- Node4&#45;&gt;Node5 -->
<g id="edge4" class="edge">
<title>Node4&#45;&gt;Node5</title>
<path fill="none" stroke="midnightblue" d="M538.76,-21C558.17,-21 578.3,-21 596.32,-21"/>
<polygon fill="midnightblue" stroke="midnightblue" points="538.69,-17.5 528.69,-21 538.69,-24.5 538.69,-17.5"/>
</g>
</g>
</svg>
