<?xml version="1.0" encoding="UTF-8" standalone="no"?>
<!DOCTYPE svg PUBLIC "-//W3C//DTD SVG 1.1//EN"
 "http://www.w3.org/Graphics/SVG/1.1/DTD/svg11.dtd">
<!-- Generated by graphviz version 2.43.0 (0)
 -->
<!-- Title: CalphadUtils::sort_nodes Pages: 1 -->
<svg width="301pt" height="88pt"
 viewBox="0.00 0.00 301.00 88.00" xmlns="http://www.w3.org/2000/svg" xmlns:xlink="http://www.w3.org/1999/xlink">
<g id="graph0" class="graph" transform="scale(1 1) rotate(0) translate(4 84)">
<title>CalphadUtils::sort_nodes</title>
<!-- Node1 -->
<g id="node1" class="node">
<title>Node1</title>
<g id="a_node1"><a xlink:title="Method used to sort nodes as function of temperature and/or pressure.">
<polygon fill="#bfbfbf" stroke="black" points="0,-24.5 0,-54.5 108,-54.5 108,-24.5 0,-24.5"/>
<text text-anchor="start" x="8" y="-42.5" font-family="serif" font-size="10.00">CalphadUtils::sort</text>
<text text-anchor="middle" x="54" y="-31.5" font-family="serif" font-size="10.00">_nodes</text>
</a>
</g>
</g>
<!-- Node2 -->
<g id="node2" class="node">
<title>Node2</title>
<g id="a_node2"><a xlink:href="structtemperature__sort__method.html#a2ac6758df9fee285c5c072ca554289fa" target="_top" xlink:title=" ">
<polygon fill="none" stroke="black" points="144,-49.5 144,-79.5 293,-79.5 293,-49.5 144,-49.5"/>
<text text-anchor="start" x="152" y="-67.5" font-family="serif" font-size="10.00">temperature_sort_method</text>
<text text-anchor="middle" x="218.5" y="-56.5" font-family="serif" font-size="10.00">::from</text>
</a>
</g>
</g>
<!-- Node1&#45;&gt;Node2 -->
<g id="edge1" class="edge">
<title>Node1&#45;&gt;Node2</title>
<path fill="none" stroke="midnightblue" d="M108.21,-47.69C116.39,-48.94 125.01,-50.27 133.66,-51.6"/>
<polygon fill="midnightblue" stroke="midnightblue" points="133.4,-55.1 143.82,-53.16 134.47,-48.18 133.4,-55.1"/>
</g>
<!-- Node3 -->
<g id="node3" class="node">
<title>Node3</title>
<g id="a_node3"><a xlink:href="structpressure__sort__method.html#acf40129f45ca7bf18645a20ea37b9f3b" target="_top" xlink:title=" ">
<polygon fill="none" stroke="black" points="153,-0.5 153,-30.5 284,-30.5 284,-0.5 153,-0.5"/>
<text text-anchor="start" x="161" y="-18.5" font-family="serif" font-size="10.00">pressure_sort_method</text>
<text text-anchor="middle" x="218.5" y="-7.5" font-family="serif" font-size="10.00">::from</text>
</a>
</g>
</g>
<!-- Node1&#45;&gt;Node3 -->
<g id="edge2" class="edge">
<title>Node1&#45;&gt;Node3</title>
<path fill="none" stroke="midnightblue" d="M108.21,-31.64C119.23,-30.01 131.04,-28.27 142.68,-26.55"/>
<polygon fill="midnightblue" stroke="midnightblue" points="143.45,-29.97 152.83,-25.05 142.43,-23.05 143.45,-29.97"/>
</g>
</g>
</svg>
