<?xml version="1.0" encoding="UTF-8" standalone="no"?>
<!DOCTYPE svg PUBLIC "-//W3C//DTD SVG 1.1//EN"
 "http://www.w3.org/Graphics/SVG/1.1/DTD/svg11.dtd">
<!-- Generated by graphviz version 2.43.0 (0)
 -->
<!-- Title: SolverBICGSTAB::create_solver Pages: 1 -->
<svg width="585pt" height="187pt"
 viewBox="0.00 0.00 585.00 186.50" xmlns="http://www.w3.org/2000/svg" xmlns:xlink="http://www.w3.org/1999/xlink">
<g id="graph0" class="graph" transform="scale(1 1) rotate(0) translate(4 182.5)">
<title>SolverBICGSTAB::create_solver</title>
<!-- Node1 -->
<g id="node1" class="node">
<title>Node1</title>
<g id="a_node1"><a xlink:title="Create a iterative solver based of the SolverType and a list of Parameters.">
<polygon fill="#bfbfbf" stroke="black" points="0,-76.5 0,-106.5 141,-106.5 141,-76.5 0,-76.5"/>
<text text-anchor="start" x="8" y="-94.5" font-family="serif" font-size="10.00">SolverBICGSTAB::create</text>
<text text-anchor="middle" x="70.5" y="-83.5" font-family="serif" font-size="10.00">_solver</text>
</a>
</g>
</g>
<!-- Node2 -->
<g id="node2" class="node">
<title>Node2</title>
<g id="a_node2"><a xlink:href="classSlothInfo.html#a854d3cafdb9f5a77f1063a27d2a27e04" target="_top" xlink:title="Print information on Debug mode.">
<polygon fill="none" stroke="black" points="230.5,-159 230.5,-178 332.5,-178 332.5,-159 230.5,-159"/>
<text text-anchor="middle" x="281.5" y="-166" font-family="serif" font-size="10.00">SlothInfo::debug</text>
</a>
</g>
</g>
<!-- Node1&#45;&gt;Node2 -->
<g id="edge1" class="edge">
<title>Node1&#45;&gt;Node2</title>
<path fill="none" stroke="midnightblue" d="M93.96,-106.64C114.66,-119.91 146.68,-138.7 177,-149.5 190.77,-154.4 206.05,-158.1 220.55,-160.86"/>
<polygon fill="midnightblue" stroke="midnightblue" points="219.97,-164.31 230.43,-162.63 221.2,-157.42 219.97,-164.31"/>
</g>
<!-- Node3 -->
<g id="node3" class="node">
<title>Node3</title>
<g id="a_node3"><a xlink:href="classSolverBase.html#a52edc30e08c2552f8ceb3d9ea928b059" target="_top" xlink:title=" ">
<polygon fill="none" stroke="black" points="177,-99 177,-140 386,-140 386,-99 177,-99"/>
<text text-anchor="start" x="185" y="-128" font-family="serif" font-size="10.00">SolverBase&lt; mfem::BiCGSTABSolver,</text>
<text text-anchor="start" x="185" y="-117" font-family="serif" font-size="10.00"> IterativeSolverType &gt;::get</text>
<text text-anchor="middle" x="281.5" y="-106" font-family="serif" font-size="10.00">_description</text>
</a>
</g>
</g>
<!-- Node1&#45;&gt;Node3 -->
<g id="edge2" class="edge">
<title>Node1&#45;&gt;Node3</title>
<path fill="none" stroke="midnightblue" d="M141.09,-100.82C149.46,-101.94 158.17,-103.11 166.96,-104.29"/>
<polygon fill="midnightblue" stroke="midnightblue" points="166.54,-107.76 176.91,-105.62 167.46,-100.83 166.54,-107.76"/>
</g>
<!-- Node4 -->
<g id="node4" class="node">
<title>Node4</title>
<g id="a_node4"><a xlink:href="classParameters.html#ae3b314c5ebc3fde8684b0634b2406da6" target="_top" xlink:title="Return the value of the parameter associated to the given name.">
<polygon fill="none" stroke="black" points="214,-49.5 214,-79.5 349,-79.5 349,-49.5 214,-49.5"/>
<text text-anchor="start" x="222" y="-67.5" font-family="serif" font-size="10.00">Parameters::get_param</text>
<text text-anchor="middle" x="281.5" y="-56.5" font-family="serif" font-size="10.00">_value</text>
</a>
</g>
</g>
<!-- Node1&#45;&gt;Node4 -->
<g id="edge3" class="edge">
<title>Node1&#45;&gt;Node4</title>
<path fill="none" stroke="midnightblue" d="M141.09,-82.51C161.2,-79.91 183.25,-77.06 203.76,-74.41"/>
<polygon fill="midnightblue" stroke="midnightblue" points="204.22,-77.88 213.69,-73.13 203.32,-70.94 204.22,-77.88"/>
</g>
<!-- Node7 -->
<g id="node7" class="node">
<title>Node7</title>
<g id="a_node7"><a xlink:href="classParameters.html#a857c53fbe60d7bd2f91e91626f85b6d2" target="_top" xlink:title="Return the value of the parameter associated to the given name or, use th edefault given,...">
<polygon fill="none" stroke="black" points="214,-0.5 214,-30.5 349,-30.5 349,-0.5 214,-0.5"/>
<text text-anchor="start" x="222" y="-18.5" font-family="serif" font-size="10.00">Parameters::get_param</text>
<text text-anchor="middle" x="281.5" y="-7.5" font-family="serif" font-size="10.00">_value_or_default</text>
</a>
</g>
</g>
<!-- Node1&#45;&gt;Node7 -->
<g id="edge6" class="edge">
<title>Node1&#45;&gt;Node7</title>
<path fill="none" stroke="midnightblue" d="M98.57,-76.42C119.48,-65.27 149.42,-50.37 177,-40.5 185.63,-37.41 194.79,-34.58 203.97,-32.03"/>
<polygon fill="midnightblue" stroke="midnightblue" points="205.15,-35.34 213.9,-29.36 203.34,-28.57 205.15,-35.34"/>
</g>
<!-- Node5 -->
<g id="node5" class="node">
<title>Node5</title>
<g id="a_node5"><a xlink:href="classParameters.html#aacf1a423c07aa2e63d2397fe903a1388" target="_top" xlink:title="Return the parameter associated to the given name.">
<polygon fill="none" stroke="black" points="422,-52 422,-71 577,-71 577,-52 422,-52"/>
<text text-anchor="middle" x="499.5" y="-59" font-family="serif" font-size="10.00">Parameters::get_parameter</text>
</a>
</g>
</g>
<!-- Node4&#45;&gt;Node5 -->
<g id="edge4" class="edge">
<title>Node4&#45;&gt;Node5</title>
<path fill="none" stroke="midnightblue" d="M349.07,-63.58C368.88,-63.3 390.89,-62.99 411.79,-62.7"/>
<polygon fill="midnightblue" stroke="midnightblue" points="411.99,-66.2 421.95,-62.56 411.9,-59.2 411.99,-66.2"/>
</g>
<!-- Node6 -->
<g id="node6" class="node">
<title>Node6</title>
<g id="a_node6"><a xlink:href="classParameter.html#a7874e1270fe62aecf3063a4f9edecb47" target="_top" xlink:title="Return the value of the paramter.">
<polygon fill="none" stroke="black" points="437,-11 437,-30 562,-30 562,-11 437,-11"/>
<text text-anchor="middle" x="499.5" y="-18" font-family="serif" font-size="10.00">Parameter::get_value</text>
</a>
</g>
</g>
<!-- Node4&#45;&gt;Node6 -->
<g id="edge5" class="edge">
<title>Node4&#45;&gt;Node6</title>
<path fill="none" stroke="midnightblue" d="M349.07,-50.94C378.66,-44.91 413.13,-37.89 441.51,-32.11"/>
<polygon fill="midnightblue" stroke="midnightblue" points="442.57,-35.47 451.67,-30.04 441.17,-28.61 442.57,-35.47"/>
</g>
<!-- Node7&#45;&gt;Node5 -->
<g id="edge7" class="edge">
<title>Node7&#45;&gt;Node5</title>
<path fill="none" stroke="midnightblue" d="M349.07,-29.68C379.45,-36.15 414.99,-43.72 443.78,-49.85"/>
<polygon fill="midnightblue" stroke="midnightblue" points="443.16,-53.29 453.67,-51.95 444.62,-46.45 443.16,-53.29"/>
</g>
<!-- Node7&#45;&gt;Node6 -->
<g id="edge8" class="edge">
<title>Node7&#45;&gt;Node6</title>
<path fill="none" stroke="midnightblue" d="M349.07,-17.04C373.69,-17.61 401.7,-18.26 426.76,-18.84"/>
<polygon fill="midnightblue" stroke="midnightblue" points="426.86,-22.34 436.94,-19.07 427.02,-15.34 426.86,-22.34"/>
</g>
</g>
</svg>
