<?xml version="1.0" encoding="UTF-8" standalone="no"?>
<!DOCTYPE svg PUBLIC "-//W3C//DTD SVG 1.1//EN"
 "http://www.w3.org/Graphics/SVG/1.1/DTD/svg11.dtd">
<!-- Generated by graphviz version 2.43.0 (0)
 -->
<!-- Title: DiffusionNLFormIntegrator::DiffusionNLFormIntegrator Pages: 1 -->
<svg width="344pt" height="137pt"
 viewBox="0.00 0.00 344.00 137.00" xmlns="http://www.w3.org/2000/svg" xmlns:xlink="http://www.w3.org/1999/xlink">
<g id="graph0" class="graph" transform="scale(1 1) rotate(0) translate(4 133)">
<title>DiffusionNLFormIntegrator::DiffusionNLFormIntegrator</title>
<!-- Node1 -->
<g id="node1" class="node">
<title>Node1</title>
<g id="a_node1"><a xlink:title="Construct a new DiffusionNLFormIntegrator&lt;SCHEME, COEFFICIENT&gt;::DiffusionNLFormIntegrator object.">
<polygon fill="#bfbfbf" stroke="black" points="0,-49.5 0,-79.5 163,-79.5 163,-49.5 0,-49.5"/>
<text text-anchor="start" x="8" y="-67.5" font-family="serif" font-size="10.00">DiffusionNLFormIntegrator</text>
<text text-anchor="middle" x="81.5" y="-56.5" font-family="serif" font-size="10.00">::DiffusionNLFormIntegrator</text>
</a>
</g>
</g>
<!-- Node2 -->
<g id="node2" class="node">
<title>Node2</title>
<g id="a_node2"><a xlink:href="classSlothNLFormIntegrator.html#a31d58b855462a8fb4e93f191b426b07c" target="_top" xlink:title="Return a vector of GridFunction associated with auxiliary variables.">
<polygon fill="none" stroke="black" points="199,-98.5 199,-128.5 336,-128.5 336,-98.5 199,-98.5"/>
<text text-anchor="start" x="207" y="-116.5" font-family="serif" font-size="10.00">SlothNLFormIntegrator</text>
<text text-anchor="middle" x="267.5" y="-105.5" font-family="serif" font-size="10.00">::get_aux_gf</text>
</a>
</g>
</g>
<!-- Node1&#45;&gt;Node2 -->
<g id="edge1" class="edge">
<title>Node1&#45;&gt;Node2</title>
<path fill="none" stroke="midnightblue" d="M138.96,-79.53C158.38,-84.71 180.31,-90.55 200.43,-95.91"/>
<polygon fill="midnightblue" stroke="midnightblue" points="199.59,-99.3 210.15,-98.49 201.39,-92.54 199.59,-99.3"/>
</g>
<!-- Node3 -->
<g id="node3" class="node">
<title>Node3</title>
<g id="a_node3"><a xlink:href="classSlothNLFormIntegrator.html#a33910e73d9230438602936dade46e458" target="_top" xlink:title="Return a vector of the additional information (vector of string) associated with auxiliary variables.">
<polygon fill="none" stroke="black" points="199,-49.5 199,-79.5 336,-79.5 336,-49.5 199,-49.5"/>
<text text-anchor="start" x="207" y="-67.5" font-family="serif" font-size="10.00">SlothNLFormIntegrator</text>
<text text-anchor="middle" x="267.5" y="-56.5" font-family="serif" font-size="10.00">::get_aux_infos</text>
</a>
</g>
</g>
<!-- Node1&#45;&gt;Node3 -->
<g id="edge2" class="edge">
<title>Node1&#45;&gt;Node3</title>
<path fill="none" stroke="midnightblue" d="M163.21,-64.5C171.65,-64.5 180.22,-64.5 188.63,-64.5"/>
<polygon fill="midnightblue" stroke="midnightblue" points="188.79,-68 198.79,-64.5 188.79,-61 188.79,-68"/>
</g>
<!-- Node4 -->
<g id="node4" class="node">
<title>Node4</title>
<g id="a_node4"><a xlink:href="classSlothNLFormIntegrator.html#abfe86f09f35b0f9b279ed0ea0e66a205" target="_top" xlink:title="Return a vector of GridFunction associated with auxiliary variables at the previous time&#45;step.">
<polygon fill="none" stroke="black" points="199,-0.5 199,-30.5 336,-30.5 336,-0.5 199,-0.5"/>
<text text-anchor="start" x="207" y="-18.5" font-family="serif" font-size="10.00">SlothNLFormIntegrator</text>
<text text-anchor="middle" x="267.5" y="-7.5" font-family="serif" font-size="10.00">::get_aux_old_gf</text>
</a>
</g>
</g>
<!-- Node1&#45;&gt;Node4 -->
<g id="edge3" class="edge">
<title>Node1&#45;&gt;Node4</title>
<path fill="none" stroke="midnightblue" d="M138.96,-49.47C158.38,-44.29 180.31,-38.45 200.43,-33.09"/>
<polygon fill="midnightblue" stroke="midnightblue" points="201.39,-36.46 210.15,-30.51 199.59,-29.7 201.39,-36.46"/>
</g>
</g>
</svg>
