<?xml version="1.0" encoding="UTF-8" standalone="no"?>
<!DOCTYPE svg PUBLIC "-//W3C//DTD SVG 1.1//EN"
 "http://www.w3.org/Graphics/SVG/1.1/DTD/svg11.dtd">
<!-- Generated by graphviz version 2.43.0 (0)
 -->
<!-- Title: SlothNLFormIntegrator&lt; VARS &gt; Pages: 1 -->
<!--zoomable 472 -->
<svg id="main" version="1.1" xmlns="http://www.w3.org/2000/svg" xmlns:xlink="http://www.w3.org/1999/xlink" xml:space="preserve" onload="init(evt)">
<style type="text/css"><![CDATA[
.edge:hover path { stroke: red; }
.edge:hover polygon { stroke: red; fill: red; }
]]></style>
<script type="text/javascript"><![CDATA[
var edges = document.getElementsByTagName('g');
if (edges && edges.length) {
  for (var i=0;i<edges.length;i++) {
    if (edges[i].id.substr(0,4)=='edge') {
      edges[i].setAttribute('class','edge');
    }
  }
}
]]></script>
        <defs>
                <circle id="rim" cx="0" cy="0" r="7"/>
                <circle id="rim2" cx="0" cy="0" r="3.5"/>
                <g id="zoomPlus">
                        <use xlink:href="#rim" fill="#404040">
                                <set attributeName="fill" to="#808080" begin="zoomplus.mouseover" end="zoomplus.mouseout"/>
                        </use>
                        <path d="M-4,0h8M0,-4v8" fill="none" stroke="white" stroke-width="1.5" pointer-events="none"/>
                </g>
                <g id="zoomMin">
                        <use xlink:href="#rim" fill="#404040">
                                <set attributeName="fill" to="#808080" begin="zoomminus.mouseover" end="zoomminus.mouseout"/>
                        </use>
                        <path d="M-4,0h8" fill="none" stroke="white" stroke-width="1.5" pointer-events="none"/>
                </g>
                <g id="dirArrow">
                        <path fill="none" stroke="white" stroke-width="1.5" d="M0,-3.0v7 M-2.5,-0.5L0,-3.0L2.5,-0.5"/>
                </g>
               <g id="resetDef">
                       <use xlink:href="#rim2" fill="#404040">
                               <set attributeName="fill" to="#808080" begin="reset.mouseover" end="reset.mouseout"/>
                       </use>
               </g>
        </defs>

<script type="text/javascript">
var viewWidth = 933;
var viewHeight = 472;
var sectionId = 'dynsection-0';
</script>
<script xlink:href="svgpan.js"/>
<svg id="graph" class="graph">
<g id="viewport">
<title>SlothNLFormIntegrator&lt; VARS &gt;</title>
<!-- Node1 -->
<g id="node1" class="node">
<title>Node1</title>
<g id="a_node1"><a xlink:title="Class prodiving common methods to all NLFormIntegrators.">
<polygon fill="#bfbfbf" stroke="black" points="0,-208.5 0,-238.5 137,-238.5 137,-208.5 0,-208.5"/>
<text text-anchor="start" x="8" y="-226.5" font-family="serif" font-size="10.00">SlothNLFormIntegrator</text>
<text text-anchor="middle" x="68.5" y="-215.5" font-family="serif" font-size="10.00">&lt; VARS &gt;</text>
</a>
</g>
</g>
<!-- Node2 -->
<g id="node2" class="node">
<title>Node2</title>
<g id="a_node2"><a xlink:href="classAllenCahnGrainNLFormIntegrator.html" target="_top" xlink:title="Class dedicated to the FV of the Allen Cahn equation.">
<polygon fill="none" stroke="black" points="173,-416.5 173,-446.5 382,-446.5 382,-416.5 173,-416.5"/>
<text text-anchor="start" x="181" y="-434.5" font-family="serif" font-size="10.00">AllenCahnGrainNLFormIntegrator</text>
<text text-anchor="middle" x="277.5" y="-423.5" font-family="serif" font-size="10.00">&lt; VARS, SCHEME, ENERGY, MOBI &gt;</text>
</a>
</g>
</g>
<!-- Node1&#45;&gt;Node2 -->
<g id="edge1" class="edge">
<title>Node1&#45;&gt;Node2</title>
<path fill="none" stroke="midnightblue" d="M76.44,-248.26C88.91,-288.01 118.98,-365.73 173,-406.5 178.16,-410.4 183.85,-413.7 189.82,-416.49"/>
<polygon fill="midnightblue" stroke="midnightblue" points="79.76,-247.13 73.52,-238.56 73.06,-249.15 79.76,-247.13"/>
</g>
<!-- Node3 -->
<g id="node3" class="node">
<title>Node3</title>
<g id="a_node3"><a xlink:href="classAllenCahnNLFormIntegrator.html" target="_top" xlink:title="Class dedicated to the FV of the Allen Cahn equation.">
<polygon fill="none" stroke="black" points="195.5,-356 195.5,-397 359.5,-397 359.5,-356 195.5,-356"/>
<text text-anchor="start" x="203.5" y="-385" font-family="serif" font-size="10.00">AllenCahnNLFormIntegrator</text>
<text text-anchor="start" x="203.5" y="-374" font-family="serif" font-size="10.00">&lt; VARS, SCHEME, ENERGY,</text>
<text text-anchor="middle" x="277.5" y="-363" font-family="serif" font-size="10.00"> MOBI &gt;</text>
</a>
</g>
</g>
<!-- Node1&#45;&gt;Node3 -->
<g id="edge2" class="edge">
<title>Node1&#45;&gt;Node3</title>
<path fill="none" stroke="midnightblue" d="M83.57,-247.6C101.06,-275.47 133.49,-320.8 173,-346.5 179.9,-350.99 187.49,-354.82 195.32,-358.09"/>
<polygon fill="midnightblue" stroke="midnightblue" points="86.43,-245.57 78.22,-238.87 80.46,-249.22 86.43,-245.57"/>
</g>
<!-- Node8 -->
<g id="node8" class="node">
<title>Node8</title>
<g id="a_node8"><a xlink:href="classBlockAllenCahnNLFormIntegrator.html" target="_top" xlink:title="Class dedicated to the FV of the Allen Cahn equation.">
<polygon fill="none" stroke="black" points="173,-306.5 173,-336.5 382,-336.5 382,-306.5 173,-306.5"/>
<text text-anchor="start" x="181" y="-324.5" font-family="serif" font-size="10.00">BlockAllenCahnNLFormIntegrator</text>
<text text-anchor="middle" x="277.5" y="-313.5" font-family="serif" font-size="10.00">&lt; VARS, SCHEME, ENERGY, MOBI &gt;</text>
</a>
</g>
</g>
<!-- Node1&#45;&gt;Node8 -->
<g id="edge7" class="edge">
<title>Node1&#45;&gt;Node8</title>
<path fill="none" stroke="midnightblue" d="M93.81,-245.13C113.76,-261.79 143.45,-284.15 173,-297.5 180.56,-300.92 188.67,-303.87 196.89,-306.43"/>
<polygon fill="midnightblue" stroke="midnightblue" points="96.03,-242.42 86.14,-238.61 91.49,-247.75 96.03,-242.42"/>
</g>
<!-- Node9 -->
<g id="node9" class="node">
<title>Node9</title>
<g id="a_node9"><a xlink:href="classCahnHilliardNLFormIntegrator.html" target="_top" xlink:title="Class dedicated to the FV of the Allen Cahn equation.">
<polygon fill="none" stroke="black" points="173,-257.5 173,-287.5 382,-287.5 382,-257.5 173,-257.5"/>
<text text-anchor="start" x="181" y="-275.5" font-family="serif" font-size="10.00">CahnHilliardNLFormIntegrator</text>
<text text-anchor="middle" x="277.5" y="-264.5" font-family="serif" font-size="10.00">&lt; VARS, SCHEME, ENERGY, MOBI &gt;</text>
</a>
</g>
</g>
<!-- Node1&#45;&gt;Node9 -->
<g id="edge8" class="edge">
<title>Node1&#45;&gt;Node9</title>
<path fill="none" stroke="midnightblue" d="M143.02,-240.9C165.92,-246.32 190.96,-252.25 213.11,-257.49"/>
<polygon fill="midnightblue" stroke="midnightblue" points="143.55,-237.43 133.01,-238.53 141.94,-244.24 143.55,-237.43"/>
</g>
<!-- Node10 -->
<g id="node10" class="node">
<title>Node10</title>
<g id="a_node10"><a xlink:href="classDiffusionFluxNLFormIntegrator.html" target="_top" xlink:title="Class dedicated to the VF of an inter&#45;diffusion equation.">
<polygon fill="none" stroke="black" points="188,-208.5 188,-238.5 367,-238.5 367,-208.5 188,-208.5"/>
<text text-anchor="start" x="196" y="-226.5" font-family="serif" font-size="10.00">DiffusionFluxNLFormIntegrator</text>
<text text-anchor="middle" x="277.5" y="-215.5" font-family="serif" font-size="10.00">&lt; VARS &gt;</text>
</a>
</g>
</g>
<!-- Node1&#45;&gt;Node10 -->
<g id="edge9" class="edge">
<title>Node1&#45;&gt;Node10</title>
<path fill="none" stroke="midnightblue" d="M147.66,-223.5C160.78,-223.5 174.48,-223.5 187.85,-223.5"/>
<polygon fill="midnightblue" stroke="midnightblue" points="147.28,-220 137.28,-223.5 147.28,-227 147.28,-220"/>
</g>
<!-- Node13 -->
<g id="node13" class="node">
<title>Node13</title>
<g id="a_node13"><a xlink:href="classDiffusionNLFormIntegrator.html" target="_top" xlink:title="Class dedicated to the FV of the mass diffusion equation.">
<polygon fill="none" stroke="black" points="176.5,-159.5 176.5,-189.5 378.5,-189.5 378.5,-159.5 176.5,-159.5"/>
<text text-anchor="start" x="184.5" y="-177.5" font-family="serif" font-size="10.00">DiffusionNLFormIntegrator</text>
<text text-anchor="middle" x="277.5" y="-166.5" font-family="serif" font-size="10.00">&lt; VARS, SCHEME, DIFFU_NAME &gt;</text>
</a>
</g>
</g>
<!-- Node1&#45;&gt;Node13 -->
<g id="edge12" class="edge">
<title>Node1&#45;&gt;Node13</title>
<path fill="none" stroke="midnightblue" d="M141.07,-206.12C151.77,-203.55 162.67,-200.95 173,-198.5 185.39,-195.57 198.61,-192.47 211.33,-189.52"/>
<polygon fill="midnightblue" stroke="midnightblue" points="140.23,-202.73 131.32,-208.47 141.86,-209.53 140.23,-202.73"/>
</g>
<!-- Node14 -->
<g id="node14" class="node">
<title>Node14</title>
<g id="a_node14"><a xlink:href="classHeatNLFormIntegrator.html" target="_top" xlink:title="Class dedicated to the FV of the heat transfer equation.">
<polygon fill="none" stroke="black" points="202.5,-99 202.5,-140 352.5,-140 352.5,-99 202.5,-99"/>
<text text-anchor="start" x="210.5" y="-128" font-family="serif" font-size="10.00">HeatNLFormIntegrator</text>
<text text-anchor="start" x="210.5" y="-117" font-family="serif" font-size="10.00">&lt; VARS, SCHEME, COND</text>
<text text-anchor="middle" x="277.5" y="-106" font-family="serif" font-size="10.00">_NAME &gt;</text>
</a>
</g>
</g>
<!-- Node1&#45;&gt;Node14 -->
<g id="edge13" class="edge">
<title>Node1&#45;&gt;Node14</title>
<path fill="none" stroke="midnightblue" d="M94.37,-202.01C114.44,-185.63 144,-163.56 173,-149.5 182.26,-145.01 192.32,-141.07 202.4,-137.64"/>
<polygon fill="midnightblue" stroke="midnightblue" points="92.11,-199.34 86.65,-208.42 96.58,-204.73 92.11,-199.34"/>
</g>
<!-- Node15 -->
<g id="node15" class="node">
<title>Node15</title>
<g id="a_node15"><a xlink:href="classTimeCHNLFormIntegrator.html" target="_top" xlink:title="Class dedicated to the FV of the Allen Cahn equation.">
<polygon fill="none" stroke="black" points="201,-49.5 201,-79.5 354,-79.5 354,-49.5 201,-49.5"/>
<text text-anchor="start" x="209" y="-67.5" font-family="serif" font-size="10.00">TimeCHNLFormIntegrator</text>
<text text-anchor="middle" x="277.5" y="-56.5" font-family="serif" font-size="10.00">&lt; VARS &gt;</text>
</a>
</g>
</g>
<!-- Node1&#45;&gt;Node15 -->
<g id="edge14" class="edge">
<title>Node1&#45;&gt;Node15</title>
<path fill="none" stroke="midnightblue" d="M81.56,-199.23C97.97,-168.78 130.26,-117.2 173,-89.5 181.45,-84.02 191,-79.74 200.79,-76.4"/>
<polygon fill="midnightblue" stroke="midnightblue" points="78.33,-197.84 76.79,-208.32 84.53,-201.09 78.33,-197.84"/>
</g>
<!-- Node16 -->
<g id="node16" class="node">
<title>Node16</title>
<g id="a_node16"><a xlink:href="classTimeNLFormIntegrator.html" target="_top" xlink:title="Class dedicated to the FV of the Allen Cahn equation.">
<polygon fill="none" stroke="black" points="209,-0.5 209,-30.5 346,-30.5 346,-0.5 209,-0.5"/>
<text text-anchor="start" x="217" y="-18.5" font-family="serif" font-size="10.00">TimeNLFormIntegrator</text>
<text text-anchor="middle" x="277.5" y="-7.5" font-family="serif" font-size="10.00">&lt; VARS &gt;</text>
</a>
</g>
</g>
<!-- Node1&#45;&gt;Node16 -->
<g id="edge15" class="edge">
<title>Node1&#45;&gt;Node16</title>
<path fill="none" stroke="midnightblue" d="M76.36,-198.55C88.71,-158.51 118.61,-80.26 173,-39.5 183.48,-31.65 196.11,-26.3 208.89,-22.68"/>
<polygon fill="midnightblue" stroke="midnightblue" points="72.95,-197.74 73.46,-208.32 79.66,-199.73 72.95,-197.74"/>
</g>
<!-- Node4 -->
<g id="node4" class="node">
<title>Node4</title>
<g id="a_node4"><a xlink:href="classAllenCahnMeltingBaseNLFormIntegrator.html" target="_top" xlink:title=" ">
<polygon fill="none" stroke="black" points="418,-356 418,-397 626,-397 626,-356 418,-356"/>
<text text-anchor="start" x="426" y="-385" font-family="serif" font-size="10.00">AllenCahnMeltingBaseNLForm</text>
<text text-anchor="start" x="426" y="-374" font-family="serif" font-size="10.00">Integrator&lt; VARS, SCHEME,</text>
<text text-anchor="middle" x="522" y="-363" font-family="serif" font-size="10.00"> ENERGY, MOBI, INTERPOLATION &gt;</text>
</a>
</g>
</g>
<!-- Node3&#45;&gt;Node4 -->
<g id="edge3" class="edge">
<title>Node3&#45;&gt;Node4</title>
<path fill="none" stroke="midnightblue" d="M369.81,-376.5C385.54,-376.5 401.99,-376.5 418,-376.5"/>
<polygon fill="midnightblue" stroke="midnightblue" points="369.59,-373 359.59,-376.5 369.59,-380 369.59,-373"/>
</g>
<!-- Node5 -->
<g id="node5" class="node">
<title>Node5</title>
<g id="a_node5"><a xlink:href="classAllenCahnCalphadMeltingNLFormIntegrator.html" target="_top" xlink:title=" ">
<polygon fill="none" stroke="black" points="689.5,-422 689.5,-463 897.5,-463 897.5,-422 689.5,-422"/>
<text text-anchor="start" x="697.5" y="-451" font-family="serif" font-size="10.00">AllenCahnCalphadMeltingNLForm</text>
<text text-anchor="start" x="697.5" y="-440" font-family="serif" font-size="10.00">Integrator&lt; VARS, SCHEME,</text>
<text text-anchor="middle" x="793.5" y="-429" font-family="serif" font-size="10.00"> ENERGY, MOBI, INTERPOLATION &gt;</text>
</a>
</g>
</g>
<!-- Node4&#45;&gt;Node5 -->
<g id="edge4" class="edge">
<title>Node4&#45;&gt;Node5</title>
<path fill="none" stroke="midnightblue" d="M610.74,-399.61C627.73,-403.98 645.4,-408.44 662,-412.5 674.76,-415.62 688.24,-418.82 701.51,-421.92"/>
<polygon fill="midnightblue" stroke="midnightblue" points="611.39,-396.17 600.83,-397.06 609.64,-402.95 611.39,-396.17"/>
</g>
<!-- Node6 -->
<g id="node6" class="node">
<title>Node6</title>
<g id="a_node6"><a xlink:href="classAllenCahnConstantMeltingNLFormIntegrator.html" target="_top" xlink:title=" ">
<polygon fill="none" stroke="black" points="714.5,-350.5 714.5,-402.5 872.5,-402.5 872.5,-350.5 714.5,-350.5"/>
<text text-anchor="start" x="722.5" y="-390.5" font-family="serif" font-size="10.00">AllenCahnConstantMelting</text>
<text text-anchor="start" x="722.5" y="-379.5" font-family="serif" font-size="10.00">NLFormIntegrator&lt; VARS,</text>
<text text-anchor="start" x="722.5" y="-368.5" font-family="serif" font-size="10.00"> SCHEME, ENERGY, MOBI,</text>
<text text-anchor="middle" x="793.5" y="-357.5" font-family="serif" font-size="10.00"> INTERPOLATION &gt;</text>
</a>
</g>
</g>
<!-- Node4&#45;&gt;Node6 -->
<g id="edge5" class="edge">
<title>Node4&#45;&gt;Node6</title>
<path fill="none" stroke="midnightblue" d="M636.06,-376.5C662.38,-376.5 689.82,-376.5 714.25,-376.5"/>
<polygon fill="midnightblue" stroke="midnightblue" points="636.04,-373 626.04,-376.5 636.04,-380 636.04,-373"/>
</g>
<!-- Node7 -->
<g id="node7" class="node">
<title>Node7</title>
<g id="a_node7"><a xlink:href="classAllenCahnTemperatureMeltingNLFormIntegrator.html" target="_top" xlink:title=" ">
<polygon fill="none" stroke="black" points="662,-290 662,-331 925,-331 925,-290 662,-290"/>
<text text-anchor="start" x="670" y="-319" font-family="serif" font-size="10.00">AllenCahnTemperatureMelting</text>
<text text-anchor="start" x="670" y="-308" font-family="serif" font-size="10.00">NLFormIntegrator&lt; VARS,</text>
<text text-anchor="middle" x="793.5" y="-297" font-family="serif" font-size="10.00"> SCHEME, ENERGY, MOBI, INTERPOLATION &gt;</text>
</a>
</g>
</g>
<!-- Node4&#45;&gt;Node7 -->
<g id="edge6" class="edge">
<title>Node4&#45;&gt;Node7</title>
<path fill="none" stroke="midnightblue" d="M613.73,-353.47C629.8,-349.44 646.39,-345.32 662,-341.5 676.02,-338.07 690.91,-334.48 705.42,-331.01"/>
<polygon fill="midnightblue" stroke="midnightblue" points="612.65,-350.13 603.81,-355.96 614.36,-356.92 612.65,-350.13"/>
</g>
<!-- Node11 -->
<g id="node11" class="node">
<title>Node11</title>
<g id="a_node11"><a xlink:href="classMassDiffusionFluxNLFormIntegrator.html" target="_top" xlink:title="Class dedicated to the VF of diffusion flux (gradient of chemical potential) used in mass balance equ...">
<polygon fill="none" stroke="black" points="419,-232.5 419,-262.5 625,-262.5 625,-232.5 419,-232.5"/>
<text text-anchor="start" x="427" y="-250.5" font-family="serif" font-size="10.00">MassDiffusionFluxNLFormIntegrator</text>
<text text-anchor="middle" x="522" y="-239.5" font-family="serif" font-size="10.00">&lt; VARS &gt;</text>
</a>
</g>
</g>
<!-- Node10&#45;&gt;Node11 -->
<g id="edge10" class="edge">
<title>Node10&#45;&gt;Node11</title>
<path fill="none" stroke="midnightblue" d="M377.4,-233.29C391.02,-234.64 405.02,-236.02 418.69,-237.37"/>
<polygon fill="midnightblue" stroke="midnightblue" points="377.37,-229.77 367.08,-232.27 376.68,-236.73 377.37,-229.77"/>
</g>
<!-- Node12 -->
<g id="node12" class="node">
<title>Node12</title>
<g id="a_node12"><a xlink:href="classThermalDiffusionFluxNLFormIntegrator.html" target="_top" xlink:title="Class dedicated to the VF of thermal diffusion flux used in energy balance equation.">
<polygon fill="none" stroke="black" points="437,-183.5 437,-213.5 607,-213.5 607,-183.5 437,-183.5"/>
<text text-anchor="start" x="445" y="-201.5" font-family="serif" font-size="10.00">ThermalDiffusionFluxNLForm</text>
<text text-anchor="middle" x="522" y="-190.5" font-family="serif" font-size="10.00">Integrator&lt; VARS &gt;</text>
</a>
</g>
</g>
<!-- Node10&#45;&gt;Node12 -->
<g id="edge11" class="edge">
<title>Node10&#45;&gt;Node12</title>
<path fill="none" stroke="midnightblue" d="M377.03,-213.34C396.82,-211.3 417.45,-209.18 436.7,-207.19"/>
<polygon fill="midnightblue" stroke="midnightblue" points="376.67,-209.86 367.08,-214.37 377.38,-216.82 376.67,-209.86"/>
</g>
</g>
</svg>
        <g id="navigator" transform="translate(0 0)" fill="#404254">
                <rect fill="#f2f5e9" fill-opacity="0.5" stroke="#606060" stroke-width=".5" x="0" y="0" width="60" height="60"/>
                <use id="zoomplus" xlink:href="#zoomPlus" x="17" y="9" onmousedown="handleZoom(evt,'in')"/>
                <use id="zoomminus" xlink:href="#zoomMin" x="42" y="9" onmousedown="handleZoom(evt,'out')"/>
                <use id="reset" xlink:href="#resetDef" x="30" y="36" onmousedown="handleReset()"/>
                <g id="arrowUp" xlink:href="#dirArrow" transform="translate(30 24)" onmousedown="handlePan(0,-1)">
                  <use xlink:href="#rim" fill="#404040">
                        <set attributeName="fill" to="#808080" begin="arrowUp.mouseover" end="arrowUp.mouseout"/>
                  </use>
                  <path fill="none" stroke="white" stroke-width="1.5" d="M0,-3.0v7 M-2.5,-0.5L0,-3.0L2.5,-0.5"/>
                </g>
                <g id="arrowRight" xlink:href="#dirArrow" transform="rotate(90) translate(36 -43)" onmousedown="handlePan(1,0)">
                  <use xlink:href="#rim" fill="#404040">
                        <set attributeName="fill" to="#808080" begin="arrowRight.mouseover" end="arrowRight.mouseout"/>
                  </use>
                  <path fill="none" stroke="white" stroke-width="1.5" d="M0,-3.0v7 M-2.5,-0.5L0,-3.0L2.5,-0.5"/>
                </g>
                <g id="arrowDown" xlink:href="#dirArrow" transform="rotate(180) translate(-30 -48)" onmousedown="handlePan(0,1)">
                  <use xlink:href="#rim" fill="#404040">
                        <set attributeName="fill" to="#808080" begin="arrowDown.mouseover" end="arrowDown.mouseout"/>
                  </use>
                  <path fill="none" stroke="white" stroke-width="1.5" d="M0,-3.0v7 M-2.5,-0.5L0,-3.0L2.5,-0.5"/>
                </g>
                <g id="arrowLeft" xlink:href="#dirArrow" transform="rotate(270) translate(-36 17)" onmousedown="handlePan(-1,0)">
                  <use xlink:href="#rim" fill="#404040">
                        <set attributeName="fill" to="#808080" begin="arrowLeft.mouseover" end="arrowLeft.mouseout"/>
                  </use>
                  <path fill="none" stroke="white" stroke-width="1.5" d="M0,-3.0v7 M-2.5,-0.5L0,-3.0L2.5,-0.5"/>
                </g>
        </g>
        <svg viewBox="0 0 15 15" width="100%" height="30px" preserveAspectRatio="xMaxYMin meet">
         <g id="arrow_out" transform="scale(0.3 0.3)">
          <a xlink:href="classSlothNLFormIntegrator__inherit__graph_org.svg" target="_base">
           <rect id="button" ry="5" rx="5" y="6" x="6" height="38" width="38"
                fill="#f2f5e9" fill-opacity="0.5" stroke="#606060" stroke-width="1.0"/>
           <path id="arrow"
             d="M 11.500037,31.436501 C 11.940474,20.09759 22.043105,11.32322 32.158766,21.979434 L 37.068811,17.246167 C 37.068811,17.246167 37.088388,32 37.088388,32 L 22.160133,31.978069 C 22.160133,31.978069 26.997745,27.140456 26.997745,27.140456 C 18.528582,18.264221 13.291696,25.230495 11.500037,31.436501 z"
             style="fill:#404040;"/>
          </a>
         </g>
        </svg>
</svg>
