<?xml version="1.0" encoding="UTF-8" standalone="no"?>
<!DOCTYPE svg PUBLIC "-//W3C//DTD SVG 1.1//EN"
 "http://www.w3.org/Graphics/SVG/1.1/DTD/svg11.dtd">
<!-- Generated by graphviz version 2.43.0 (0)
 -->
<!-- Title: TimeCHNLFormIntegrator&lt; VARS &gt; Pages: 1 -->
<svg width="161pt" height="174pt"
 viewBox="0.00 0.00 161.00 174.00" xmlns="http://www.w3.org/2000/svg" xmlns:xlink="http://www.w3.org/1999/xlink">
<g id="graph0" class="graph" transform="scale(1 1) rotate(0) translate(4 170)">
<title>TimeCHNLFormIntegrator&lt; VARS &gt;</title>
<!-- Node1 -->
<g id="node1" class="node">
<title>Node1</title>
<g id="a_node1"><a xlink:title="Class dedicated to the FV of the Allen Cahn equation.">
<polygon fill="#bfbfbf" stroke="black" points="0,-0.5 0,-30.5 153,-30.5 153,-0.5 0,-0.5"/>
<text text-anchor="start" x="8" y="-18.5" font-family="serif" font-size="10.00">TimeCHNLFormIntegrator</text>
<text text-anchor="middle" x="76.5" y="-7.5" font-family="serif" font-size="10.00">&lt; VARS &gt;</text>
</a>
</g>
</g>
<!-- Node2 -->
<g id="node2" class="node">
<title>Node2</title>
<g id="a_node2"><a xlink:href="classSlothNLFormIntegrator.html" target="_top" xlink:title="Class prodiving common methods to all NLFormIntegrators.">
<polygon fill="none" stroke="black" points="8,-68.5 8,-98.5 145,-98.5 145,-68.5 8,-68.5"/>
<text text-anchor="start" x="16" y="-86.5" font-family="serif" font-size="10.00">SlothNLFormIntegrator</text>
<text text-anchor="middle" x="76.5" y="-75.5" font-family="serif" font-size="10.00">&lt; VARS &gt;</text>
</a>
</g>
</g>
<!-- Node2&#45;&gt;Node1 -->
<g id="edge1" class="edge">
<title>Node2&#45;&gt;Node1</title>
<path fill="none" stroke="midnightblue" d="M76.5,-58.03C76.5,-48.86 76.5,-38.74 76.5,-30.79"/>
<polygon fill="midnightblue" stroke="midnightblue" points="73,-58.18 76.5,-68.18 80,-58.18 73,-58.18"/>
</g>
<!-- Node3 -->
<g id="node3" class="node">
<title>Node3</title>
<g id="a_node3"><a xlink:href="classParameters.html" target="_top" xlink:title=" ">
<polygon fill="none" stroke="black" points="39.5,-146.5 39.5,-165.5 113.5,-165.5 113.5,-146.5 39.5,-146.5"/>
<text text-anchor="middle" x="76.5" y="-153.5" font-family="serif" font-size="10.00">Parameters</text>
</a>
</g>
</g>
<!-- Node3&#45;&gt;Node2 -->
<g id="edge2" class="edge">
<title>Node3&#45;&gt;Node2</title>
<path fill="none" stroke="#9a32cd" stroke-dasharray="5,2" d="M76.5,-136.24C76.5,-124.41 76.5,-109.38 76.5,-98.58"/>
<polygon fill="#9a32cd" stroke="#9a32cd" points="73,-136.36 76.5,-146.36 80,-136.36 73,-136.36"/>
<text text-anchor="middle" x="100" y="-120" font-family="serif" font-size="10.00"> params_</text>
</g>
</g>
</svg>
