<?xml version="1.0" encoding="UTF-8" standalone="no"?>
<!DOCTYPE svg PUBLIC "-//W3C//DTD SVG 1.1//EN"
 "http://www.w3.org/Graphics/SVG/1.1/DTD/svg11.dtd">
<!-- Generated by graphviz version 2.43.0 (0)
 -->
<!-- Title: SteadyOperatorBase&lt; T, DIM, NLFI, LHS_NLFI &gt; Pages: 1 -->
<svg width="294pt" height="196pt"
 viewBox="0.00 0.00 293.50 196.00" xmlns="http://www.w3.org/2000/svg" xmlns:xlink="http://www.w3.org/1999/xlink">
<g id="graph0" class="graph" transform="scale(1 1) rotate(0) translate(4 192)">
<title>SteadyOperatorBase&lt; T, DIM, NLFI, LHS_NLFI &gt;</title>
<!-- Node1 -->
<g id="node1" class="node">
<title>Node1</title>
<g id="a_node1"><a xlink:title="SteadyOperatorBase class.">
<polygon fill="#bfbfbf" stroke="black" points="58.5,-0.5 58.5,-41.5 180.5,-41.5 180.5,-0.5 58.5,-0.5"/>
<text text-anchor="start" x="66.5" y="-29.5" font-family="serif" font-size="10.00">SteadyOperatorBase</text>
<text text-anchor="start" x="66.5" y="-18.5" font-family="serif" font-size="10.00">&lt; T, DIM, NLFI, LHS</text>
<text text-anchor="middle" x="119.5" y="-7.5" font-family="serif" font-size="10.00">_NLFI &gt;</text>
</a>
</g>
</g>
<!-- Node2 -->
<g id="node2" class="node">
<title>Node2</title>
<g id="a_node2"><a xlink:href="classOperatorBase.html" target="_top" xlink:title="Base class for building Steady and TimeDependent PhaseFieldOperators.">
<polygon fill="none" stroke="black" points="52,-79.5 52,-109.5 187,-109.5 187,-79.5 52,-79.5"/>
<text text-anchor="start" x="60" y="-97.5" font-family="serif" font-size="10.00">OperatorBase&lt; T, DIM,</text>
<text text-anchor="middle" x="119.5" y="-86.5" font-family="serif" font-size="10.00"> NLFI, LHS_NLFI &gt;</text>
</a>
</g>
</g>
<!-- Node2&#45;&gt;Node1 -->
<g id="edge1" class="edge">
<title>Node2&#45;&gt;Node1</title>
<path fill="none" stroke="midnightblue" d="M119.5,-69.1C119.5,-60.1 119.5,-50.02 119.5,-41.51"/>
<polygon fill="midnightblue" stroke="midnightblue" points="116,-69.37 119.5,-79.37 123,-69.37 116,-69.37"/>
</g>
<!-- Node3 -->
<g id="node3" class="node">
<title>Node3</title>
<g id="a_node3"><a xlink:href="classParameter.html" target="_top" xlink:title=" ">
<polygon fill="none" stroke="black" points="0,-168.5 0,-187.5 69,-187.5 69,-168.5 0,-168.5"/>
<text text-anchor="middle" x="34.5" y="-175.5" font-family="serif" font-size="10.00">Parameter</text>
</a>
</g>
</g>
<!-- Node3&#45;&gt;Node2 -->
<g id="edge2" class="edge">
<title>Node3&#45;&gt;Node2</title>
<path fill="none" stroke="#9a32cd" stroke-dasharray="5,2" d="M40.21,-158.96C44.11,-148.9 50.1,-136.7 58.5,-128 65.67,-120.58 74.91,-114.48 84.01,-109.64"/>
<polygon fill="#9a32cd" stroke="#9a32cd" points="36.9,-157.82 36.9,-168.42 43.51,-160.14 36.9,-157.82"/>
<text text-anchor="middle" x="87" y="-136.5" font-family="serif" font-size="10.00"> default_p_</text>
</g>
<!-- Node4 -->
<g id="node4" class="node">
<title>Node4</title>
<g id="a_node4"><a xlink:href="classNLSolver.html" target="_top" xlink:title=" ">
<polygon fill="none" stroke="black" points="87,-168.5 87,-187.5 152,-187.5 152,-168.5 87,-168.5"/>
<text text-anchor="middle" x="119.5" y="-175.5" font-family="serif" font-size="10.00">NLSolver</text>
</a>
</g>
</g>
<!-- Node4&#45;&gt;Node2 -->
<g id="edge3" class="edge">
<title>Node4&#45;&gt;Node2</title>
<path fill="none" stroke="#9a32cd" stroke-dasharray="5,2" d="M119.5,-158.23C119.5,-143.41 119.5,-123.05 119.5,-109.6"/>
<polygon fill="#9a32cd" stroke="#9a32cd" points="116,-158.28 119.5,-168.28 123,-158.28 116,-158.28"/>
<text text-anchor="middle" x="150" y="-136.5" font-family="serif" font-size="10.00"> rhs_solver_</text>
</g>
<!-- Node5 -->
<g id="node5" class="node">
<title>Node5</title>
<g id="a_node5"><a xlink:href="classParameters.html" target="_top" xlink:title=" ">
<polygon fill="none" stroke="black" points="170.5,-168.5 170.5,-187.5 244.5,-187.5 244.5,-168.5 170.5,-168.5"/>
<text text-anchor="middle" x="207.5" y="-175.5" font-family="serif" font-size="10.00">Parameters</text>
</a>
</g>
</g>
<!-- Node5&#45;&gt;Node2 -->
<g id="edge4" class="edge">
<title>Node5&#45;&gt;Node2</title>
<path fill="none" stroke="#9a32cd" stroke-dasharray="5,2" d="M202.15,-158.56C198.5,-148.54 192.79,-136.5 184.5,-128 177.1,-120.41 167.56,-114.31 158.08,-109.53"/>
<polygon fill="#9a32cd" stroke="#9a32cd" points="198.92,-159.94 205.34,-168.37 205.58,-157.78 198.92,-159.94"/>
<text text-anchor="middle" x="241.5" y="-142" font-family="serif" font-size="10.00"> default_params_</text>
<text text-anchor="middle" x="241.5" y="-131" font-family="serif" font-size="10.00">params_</text>
</g>
</g>
</svg>
