<?xml version="1.0" encoding="UTF-8" standalone="no"?>
<!DOCTYPE svg PUBLIC "-//W3C//DTD SVG 1.1//EN"
 "http://www.w3.org/Graphics/SVG/1.1/DTD/svg11.dtd">
<!-- Generated by graphviz version 2.43.0 (0)
 -->
<!-- Title: PrecondHypreDiagScale::create_solver Pages: 1 -->
<svg width="559pt" height="151pt"
 viewBox="0.00 0.00 559.00 151.00" xmlns="http://www.w3.org/2000/svg" xmlns:xlink="http://www.w3.org/1999/xlink">
<g id="graph0" class="graph" transform="scale(1 1) rotate(0) translate(4 147)">
<title>PrecondHypreDiagScale::create_solver</title>
<!-- Node1 -->
<g id="node1" class="node">
<title>Node1</title>
<g id="a_node1"><a xlink:title="Create preconditioner based of the PreconditionerType and a list of Parameters.">
<polygon fill="#bfbfbf" stroke="black" points="0,-69 0,-99 142,-99 142,-69 0,-69"/>
<text text-anchor="start" x="8" y="-87" font-family="serif" font-size="10.00">PrecondHypreDiagScale</text>
<text text-anchor="middle" x="71" y="-76" font-family="serif" font-size="10.00">::create_solver</text>
</a>
</g>
</g>
<!-- Node2 -->
<g id="node2" class="node">
<title>Node2</title>
<g id="a_node2"><a xlink:href="classSlothInfo.html#a854d3cafdb9f5a77f1063a27d2a27e04" target="_top" xlink:title="Print information on Debug mode.">
<polygon fill="none" stroke="black" points="218,-123.5 218,-142.5 320,-142.5 320,-123.5 218,-123.5"/>
<text text-anchor="middle" x="269" y="-130.5" font-family="serif" font-size="10.00">SlothInfo::debug</text>
</a>
</g>
</g>
<!-- Node1&#45;&gt;Node2 -->
<g id="edge1" class="edge">
<title>Node1&#45;&gt;Node2</title>
<path fill="none" stroke="midnightblue" d="M122.5,-99.05C140,-104.06 159.8,-109.51 178,-114 188.22,-116.52 199.15,-119.01 209.74,-121.3"/>
<polygon fill="midnightblue" stroke="midnightblue" points="209.24,-124.78 219.75,-123.44 210.71,-117.93 209.24,-124.78"/>
</g>
<!-- Node3 -->
<g id="node3" class="node">
<title>Node3</title>
<g id="a_node3"><a xlink:href="classSolverBase.html#a52edc30e08c2552f8ceb3d9ea928b059" target="_top" xlink:title=" ">
<polygon fill="none" stroke="black" points="178,-63.5 178,-104.5 360,-104.5 360,-63.5 178,-63.5"/>
<text text-anchor="start" x="186" y="-92.5" font-family="serif" font-size="10.00">SolverBase&lt; mfem::HypreDiag</text>
<text text-anchor="start" x="186" y="-81.5" font-family="serif" font-size="10.00">Scale, HyprePreconditionerType</text>
<text text-anchor="middle" x="269" y="-70.5" font-family="serif" font-size="10.00"> &gt;::get_description</text>
</a>
</g>
</g>
<!-- Node1&#45;&gt;Node3 -->
<g id="edge2" class="edge">
<title>Node1&#45;&gt;Node3</title>
<path fill="none" stroke="midnightblue" d="M142.21,-84C150.5,-84 159.08,-84 167.68,-84"/>
<polygon fill="midnightblue" stroke="midnightblue" points="167.77,-87.5 177.77,-84 167.77,-80.5 167.77,-87.5"/>
</g>
<!-- Node4 -->
<g id="node4" class="node">
<title>Node4</title>
<g id="a_node4"><a xlink:href="classParameters.html#ae3b314c5ebc3fde8684b0634b2406da6" target="_top" xlink:title="Return the value of the parameter associated to the given name.">
<polygon fill="none" stroke="black" points="201.5,-14 201.5,-44 336.5,-44 336.5,-14 201.5,-14"/>
<text text-anchor="start" x="209.5" y="-32" font-family="serif" font-size="10.00">Parameters::get_param</text>
<text text-anchor="middle" x="269" y="-21" font-family="serif" font-size="10.00">_value</text>
</a>
</g>
</g>
<!-- Node1&#45;&gt;Node4 -->
<g id="edge3" class="edge">
<title>Node1&#45;&gt;Node4</title>
<path fill="none" stroke="midnightblue" d="M124.82,-69C141.8,-64.19 160.69,-58.85 178,-54 186.4,-51.65 195.23,-49.18 203.96,-46.75"/>
<polygon fill="midnightblue" stroke="midnightblue" points="205.04,-50.08 213.73,-44.03 203.16,-43.34 205.04,-50.08"/>
</g>
<!-- Node5 -->
<g id="node5" class="node">
<title>Node5</title>
<g id="a_node5"><a xlink:href="classParameters.html#aacf1a423c07aa2e63d2397fe903a1388" target="_top" xlink:title="Return the parameter associated to the given name.">
<polygon fill="none" stroke="black" points="396,-38.5 396,-57.5 551,-57.5 551,-38.5 396,-38.5"/>
<text text-anchor="middle" x="473.5" y="-45.5" font-family="serif" font-size="10.00">Parameters::get_parameter</text>
</a>
</g>
</g>
<!-- Node4&#45;&gt;Node5 -->
<g id="edge4" class="edge">
<title>Node4&#45;&gt;Node5</title>
<path fill="none" stroke="midnightblue" d="M336.59,-35.25C352.24,-36.72 369.16,-38.3 385.56,-39.84"/>
<polygon fill="midnightblue" stroke="midnightblue" points="385.41,-43.34 395.69,-40.79 386.06,-36.37 385.41,-43.34"/>
</g>
<!-- Node6 -->
<g id="node6" class="node">
<title>Node6</title>
<g id="a_node6"><a xlink:href="classParameter.html#a7874e1270fe62aecf3063a4f9edecb47" target="_top" xlink:title="Return the value of the paramter.">
<polygon fill="none" stroke="black" points="411,-0.5 411,-19.5 536,-19.5 536,-0.5 411,-0.5"/>
<text text-anchor="middle" x="473.5" y="-7.5" font-family="serif" font-size="10.00">Parameter::get_value</text>
</a>
</g>
</g>
<!-- Node4&#45;&gt;Node6 -->
<g id="edge5" class="edge">
<title>Node4&#45;&gt;Node6</title>
<path fill="none" stroke="midnightblue" d="M336.59,-22.75C357.09,-20.83 379.76,-18.7 400.6,-16.75"/>
<polygon fill="midnightblue" stroke="midnightblue" points="401.04,-20.22 410.67,-15.8 400.39,-13.25 401.04,-20.22"/>
</g>
</g>
</svg>
