<?xml version="1.0" encoding="UTF-8" standalone="no"?>
<!DOCTYPE svg PUBLIC "-//W3C//DTD SVG 1.1//EN"
 "http://www.w3.org/Graphics/SVG/1.1/DTD/svg11.dtd">
<!-- Generated by graphviz version 2.43.0 (0)
 -->
<!-- Title: PropertyBase::compute Pages: 1 -->
<svg width="338pt" height="78pt"
 viewBox="0.00 0.00 338.00 77.50" xmlns="http://www.w3.org/2000/svg" xmlns:xlink="http://www.w3.org/1999/xlink">
<g id="graph0" class="graph" transform="scale(1 1) rotate(0) translate(4 73.5)">
<title>PropertyBase::compute</title>
<!-- Node1 -->
<g id="node1" class="node">
<title>Node1</title>
<g id="a_node1"><a xlink:title="Compute the variables (properties) as functions of auxiliary variables.">
<polygon fill="#bfbfbf" stroke="black" points="0,-22.5 0,-41.5 136,-41.5 136,-22.5 0,-22.5"/>
<text text-anchor="middle" x="68" y="-29.5" font-family="serif" font-size="10.00">PropertyBase::compute</text>
</a>
</g>
</g>
<!-- Node2 -->
<g id="node2" class="node">
<title>Node2</title>
<g id="a_node2"><a xlink:href="classPropertyBase.html#a5473e1f260f47460818a86cbaa3965ef" target="_top" xlink:title="Check the consistency of the inputs and outputs of the property problem.">
<polygon fill="none" stroke="black" points="184.5,-39 184.5,-69 317.5,-69 317.5,-39 184.5,-39"/>
<text text-anchor="start" x="192.5" y="-57" font-family="serif" font-size="10.00">PropertyBase::check</text>
<text text-anchor="middle" x="251" y="-46" font-family="serif" font-size="10.00">_variables_consistency</text>
</a>
</g>
</g>
<!-- Node1&#45;&gt;Node2 -->
<g id="edge1" class="edge">
<title>Node1&#45;&gt;Node2</title>
<path fill="none" stroke="midnightblue" d="M136.14,-40.16C148.6,-41.68 161.7,-43.27 174.4,-44.81"/>
<polygon fill="midnightblue" stroke="midnightblue" points="174.12,-48.3 184.47,-46.04 174.97,-41.35 174.12,-48.3"/>
</g>
<!-- Node3 -->
<g id="node3" class="node">
<title>Node3</title>
<g id="a_node3"><a xlink:href="classPropertyBase.html#a40e6ad497420c68660474b6f5553a273" target="_top" xlink:title="Get the values of the property.">
<polygon fill="none" stroke="black" points="172,-0.5 172,-19.5 330,-19.5 330,-0.5 172,-0.5"/>
<text text-anchor="middle" x="251" y="-7.5" font-family="serif" font-size="10.00">PropertyBase::get_property</text>
</a>
</g>
</g>
<!-- Node1&#45;&gt;Node3 -->
<g id="edge2" class="edge">
<title>Node1&#45;&gt;Node3</title>
<path fill="none" stroke="midnightblue" d="M136.14,-23.84C144.53,-22.82 153.2,-21.77 161.85,-20.71"/>
<polygon fill="midnightblue" stroke="midnightblue" points="162.46,-24.17 171.97,-19.48 161.62,-17.22 162.46,-24.17"/>
</g>
</g>
</svg>
