<?xml version="1.0" encoding="UTF-8" standalone="no"?>
<!DOCTYPE svg PUBLIC "-//W3C//DTD SVG 1.1//EN"
 "http://www.w3.org/Graphics/SVG/1.1/DTD/svg11.dtd">
<!-- Generated by graphviz version 2.43.0 (0)
 -->
<!-- Title: SteadyPhaseFieldOperator&lt; T, DIM, NLFI, LHS_NLFI &gt; Pages: 1 -->
<!--zoomable 154 -->
<svg id="main" version="1.1" xmlns="http://www.w3.org/2000/svg" xmlns:xlink="http://www.w3.org/1999/xlink" xml:space="preserve" onload="init(evt)">
<style type="text/css"><![CDATA[
.edge:hover path { stroke: red; }
.edge:hover polygon { stroke: red; fill: red; }
]]></style>
<script type="text/javascript"><![CDATA[
var edges = document.getElementsByTagName('g');
if (edges && edges.length) {
  for (var i=0;i<edges.length;i++) {
    if (edges[i].id.substr(0,4)=='edge') {
      edges[i].setAttribute('class','edge');
    }
  }
}
]]></script>
        <defs>
                <circle id="rim" cx="0" cy="0" r="7"/>
                <circle id="rim2" cx="0" cy="0" r="3.5"/>
                <g id="zoomPlus">
                        <use xlink:href="#rim" fill="#404040">
                                <set attributeName="fill" to="#808080" begin="zoomplus.mouseover" end="zoomplus.mouseout"/>
                        </use>
                        <path d="M-4,0h8M0,-4v8" fill="none" stroke="white" stroke-width="1.5" pointer-events="none"/>
                </g>
                <g id="zoomMin">
                        <use xlink:href="#rim" fill="#404040">
                                <set attributeName="fill" to="#808080" begin="zoomminus.mouseover" end="zoomminus.mouseout"/>
                        </use>
                        <path d="M-4,0h8" fill="none" stroke="white" stroke-width="1.5" pointer-events="none"/>
                </g>
                <g id="dirArrow">
                        <path fill="none" stroke="white" stroke-width="1.5" d="M0,-3.0v7 M-2.5,-0.5L0,-3.0L2.5,-0.5"/>
                </g>
               <g id="resetDef">
                       <use xlink:href="#rim2" fill="#404040">
                               <set attributeName="fill" to="#808080" begin="reset.mouseover" end="reset.mouseout"/>
                       </use>
               </g>
        </defs>

<script type="text/javascript">
var viewWidth = 1121;
var viewHeight = 154;
var sectionId = 'dynsection-1';
</script>
<script xlink:href="svgpan.js"/>
<svg id="graph" class="graph">
<g id="viewport">
<title>SteadyPhaseFieldOperator&lt; T, DIM, NLFI, LHS_NLFI &gt;</title>
<!-- Node1 -->
<g id="node1" class="node">
<title>Node1</title>
<g id="a_node1"><a xlink:title="Class SteadyPhaseFieldOperator.">
<polygon fill="#bfbfbf" stroke="black" points="948,-33 948,-63 1113,-63 1113,-33 948,-33"/>
<text text-anchor="start" x="956" y="-51" font-family="serif" font-size="10.00">SteadyPhaseFieldOperator</text>
<text text-anchor="middle" x="1030.5" y="-40" font-family="serif" font-size="10.00">&lt; T, DIM, NLFI, LHS_NLFI &gt;</text>
</a>
</g>
</g>
<!-- Node2 -->
<g id="node2" class="node">
<title>Node2</title>
<g id="a_node2"><a xlink:href="classPhaseFieldOperatorBase.html" target="_top" xlink:title=" ">
<polygon fill="none" stroke="black" points="735,-22 735,-74 911,-74 911,-22 735,-22"/>
<text text-anchor="start" x="743" y="-62" font-family="serif" font-size="10.00">PhaseFieldOperatorBase</text>
<text text-anchor="start" x="743" y="-51" font-family="serif" font-size="10.00">&lt; T, DIM, NLFI, mfem::</text>
<text text-anchor="start" x="743" y="-40" font-family="serif" font-size="10.00">BlockNonlinearFormIntegrator,</text>
<text text-anchor="middle" x="823" y="-29" font-family="serif" font-size="10.00"> SteadyOperatorBase &gt;</text>
</a>
</g>
</g>
<!-- Node2&#45;&gt;Node1 -->
<g id="edge1" class="edge">
<title>Node2&#45;&gt;Node1</title>
<path fill="none" stroke="midnightblue" d="M921.16,-48C930.07,-48 939.02,-48 947.77,-48"/>
<polygon fill="midnightblue" stroke="midnightblue" points="921.15,-44.5 911.15,-48 921.15,-51.5 921.15,-44.5"/>
</g>
<!-- Node3 -->
<g id="node3" class="node">
<title>Node3</title>
<g id="a_node3"><a xlink:href="classSteadyOperatorBase.html" target="_top" xlink:title="SteadyOperatorBase class.">
<polygon fill="none" stroke="black" points="554,-75.5 554,-116.5 676,-116.5 676,-75.5 554,-75.5"/>
<text text-anchor="start" x="562" y="-104.5" font-family="serif" font-size="10.00">SteadyOperatorBase</text>
<text text-anchor="start" x="562" y="-93.5" font-family="serif" font-size="10.00">&lt; T, DIM, NLFI, LHS</text>
<text text-anchor="middle" x="615" y="-82.5" font-family="serif" font-size="10.00">_NLFI &gt;</text>
</a>
</g>
</g>
<!-- Node3&#45;&gt;Node2 -->
<g id="edge2" class="edge">
<title>Node3&#45;&gt;Node2</title>
<path fill="none" stroke="midnightblue" d="M686.26,-79.63C701.93,-75.98 718.74,-72.06 735,-68.27"/>
<polygon fill="midnightblue" stroke="midnightblue" points="685.08,-76.31 676.14,-81.99 686.67,-83.13 685.08,-76.31"/>
</g>
<!-- Node4 -->
<g id="node4" class="node">
<title>Node4</title>
<g id="a_node4"><a xlink:href="classOperatorBase.html" target="_top" xlink:title="Base class for building Steady and TimeDependent PhaseFieldOperators.">
<polygon fill="none" stroke="black" points="204,-82 204,-112 339,-112 339,-82 204,-82"/>
<text text-anchor="start" x="212" y="-100" font-family="serif" font-size="10.00">OperatorBase&lt; T, DIM,</text>
<text text-anchor="middle" x="271.5" y="-89" font-family="serif" font-size="10.00"> NLFI, LHS_NLFI &gt;</text>
</a>
</g>
</g>
<!-- Node4&#45;&gt;Node3 -->
<g id="edge3" class="edge">
<title>Node4&#45;&gt;Node3</title>
<path fill="none" stroke="midnightblue" d="M349.25,-96.78C411.1,-96.59 496.85,-96.34 553.8,-96.18"/>
<polygon fill="midnightblue" stroke="midnightblue" points="349.15,-93.28 339.16,-96.8 349.17,-100.28 349.15,-93.28"/>
</g>
<!-- Node5 -->
<g id="node5" class="node">
<title>Node5</title>
<g id="a_node5"><a xlink:href="classParameter.html" target="_top" xlink:title=" ">
<polygon fill="none" stroke="black" points="2.5,-126.5 2.5,-145.5 71.5,-145.5 71.5,-126.5 2.5,-126.5"/>
<text text-anchor="middle" x="37" y="-133.5" font-family="serif" font-size="10.00">Parameter</text>
</a>
</g>
</g>
<!-- Node5&#45;&gt;Node4 -->
<g id="edge4" class="edge">
<title>Node5&#45;&gt;Node4</title>
<path fill="none" stroke="#9a32cd" stroke-dasharray="5,2" d="M81.51,-129.12C111.01,-124.41 150.88,-117.96 186,-112 191.73,-111.03 197.67,-110 203.63,-108.96"/>
<polygon fill="#9a32cd" stroke="#9a32cd" points="80.85,-125.68 71.53,-130.71 81.95,-132.59 80.85,-125.68"/>
<text text-anchor="middle" x="139" y="-130" font-family="serif" font-size="10.00"> default_p_</text>
</g>
<!-- Node6 -->
<g id="node6" class="node">
<title>Node6</title>
<g id="a_node6"><a xlink:href="classNLSolver.html" target="_top" xlink:title=" ">
<polygon fill="none" stroke="black" points="4.5,-88.5 4.5,-107.5 69.5,-107.5 69.5,-88.5 4.5,-88.5"/>
<text text-anchor="middle" x="37" y="-95.5" font-family="serif" font-size="10.00">NLSolver</text>
</a>
</g>
</g>
<!-- Node6&#45;&gt;Node4 -->
<g id="edge5" class="edge">
<title>Node6&#45;&gt;Node4</title>
<path fill="none" stroke="#9a32cd" stroke-dasharray="5,2" d="M80.03,-97.82C114.49,-97.67 163.92,-97.46 203.78,-97.29"/>
<polygon fill="#9a32cd" stroke="#9a32cd" points="79.83,-94.32 69.84,-97.86 79.86,-101.32 79.83,-94.32"/>
<text text-anchor="middle" x="139" y="-100" font-family="serif" font-size="10.00"> rhs_solver_</text>
</g>
<!-- Node7 -->
<g id="node7" class="node">
<title>Node7</title>
<g id="a_node7"><a xlink:href="classParameters.html" target="_top" xlink:title=" ">
<polygon fill="none" stroke="black" points="0,-26.5 0,-45.5 74,-45.5 74,-26.5 0,-26.5"/>
<text text-anchor="middle" x="37" y="-33.5" font-family="serif" font-size="10.00">Parameters</text>
</a>
</g>
</g>
<!-- Node7&#45;&gt;Node4 -->
<g id="edge6" class="edge">
<title>Node7&#45;&gt;Node4</title>
<path fill="none" stroke="#9a32cd" stroke-dasharray="5,2" d="M84.01,-46.05C113.32,-52.66 152.04,-61.77 186,-71 198.15,-74.3 211.18,-78.15 223.29,-81.87"/>
<polygon fill="#9a32cd" stroke="#9a32cd" points="84.58,-42.6 74.06,-43.82 83.05,-49.43 84.58,-42.6"/>
<text text-anchor="middle" x="139" y="-85" font-family="serif" font-size="10.00"> default_params_</text>
<text text-anchor="middle" x="139" y="-74" font-family="serif" font-size="10.00">params_</text>
</g>
<!-- Node8 -->
<g id="node8" class="node">
<title>Node8</title>
<g id="a_node8"><a xlink:href="classPhaseFieldOperatorBase.html" target="_top" xlink:title="Base class for AllenCahn.">
<polygon fill="none" stroke="black" points="357,-0.5 357,-41.5 514,-41.5 514,-0.5 357,-0.5"/>
<text text-anchor="start" x="365" y="-29.5" font-family="serif" font-size="10.00">PhaseFieldOperatorBase</text>
<text text-anchor="start" x="365" y="-18.5" font-family="serif" font-size="10.00">&lt; T, DIM, NLFI, LHS_NLFI,</text>
<text text-anchor="middle" x="435.5" y="-7.5" font-family="serif" font-size="10.00"> OPEBASE &gt;</text>
</a>
</g>
</g>
<!-- Node7&#45;&gt;Node8 -->
<g id="edge8" class="edge">
<title>Node7&#45;&gt;Node8</title>
<path fill="none" stroke="#9a32cd" stroke-dasharray="5,2" d="M84.48,-34.24C151.43,-31.71 275.88,-27 356.92,-23.94"/>
<polygon fill="#9a32cd" stroke="#9a32cd" points="84.1,-30.75 74.24,-34.63 84.36,-37.75 84.1,-30.75"/>
<text text-anchor="middle" x="139" y="-37" font-family="serif" font-size="10.00"> mobility_params_</text>
</g>
<!-- Node8&#45;&gt;Node2 -->
<g id="edge7" class="edge">
<title>Node8&#45;&gt;Node2</title>
<path fill="none" stroke="orange" stroke-dasharray="5,2" d="M524.41,-23.4C575.2,-25.2 640.27,-28.19 698,-33 709.89,-33.99 722.39,-35.25 734.69,-36.61"/>
<polygon fill="orange" stroke="orange" points="524.23,-19.89 514.12,-23.05 523.99,-26.89 524.23,-19.89"/>
<text text-anchor="start" x="532" y="-58" font-family="serif" font-size="10.00"> &lt; T, DIM, NLFI, mfem</text>
<text text-anchor="start" x="532" y="-47" font-family="serif" font-size="10.00">::BlockNonlinearFormIntegrator,</text>
<text text-anchor="middle" x="615" y="-36" font-family="serif" font-size="10.00"> SteadyOperatorBase &gt;</text>
</g>
</g>
</svg>
        <g id="navigator" transform="translate(0 0)" fill="#404254">
                <rect fill="#f2f5e9" fill-opacity="0.5" stroke="#606060" stroke-width=".5" x="0" y="0" width="60" height="60"/>
                <use id="zoomplus" xlink:href="#zoomPlus" x="17" y="9" onmousedown="handleZoom(evt,'in')"/>
                <use id="zoomminus" xlink:href="#zoomMin" x="42" y="9" onmousedown="handleZoom(evt,'out')"/>
                <use id="reset" xlink:href="#resetDef" x="30" y="36" onmousedown="handleReset()"/>
                <g id="arrowUp" xlink:href="#dirArrow" transform="translate(30 24)" onmousedown="handlePan(0,-1)">
                  <use xlink:href="#rim" fill="#404040">
                        <set attributeName="fill" to="#808080" begin="arrowUp.mouseover" end="arrowUp.mouseout"/>
                  </use>
                  <path fill="none" stroke="white" stroke-width="1.5" d="M0,-3.0v7 M-2.5,-0.5L0,-3.0L2.5,-0.5"/>
                </g>
                <g id="arrowRight" xlink:href="#dirArrow" transform="rotate(90) translate(36 -43)" onmousedown="handlePan(1,0)">
                  <use xlink:href="#rim" fill="#404040">
                        <set attributeName="fill" to="#808080" begin="arrowRight.mouseover" end="arrowRight.mouseout"/>
                  </use>
                  <path fill="none" stroke="white" stroke-width="1.5" d="M0,-3.0v7 M-2.5,-0.5L0,-3.0L2.5,-0.5"/>
                </g>
                <g id="arrowDown" xlink:href="#dirArrow" transform="rotate(180) translate(-30 -48)" onmousedown="handlePan(0,1)">
                  <use xlink:href="#rim" fill="#404040">
                        <set attributeName="fill" to="#808080" begin="arrowDown.mouseover" end="arrowDown.mouseout"/>
                  </use>
                  <path fill="none" stroke="white" stroke-width="1.5" d="M0,-3.0v7 M-2.5,-0.5L0,-3.0L2.5,-0.5"/>
                </g>
                <g id="arrowLeft" xlink:href="#dirArrow" transform="rotate(270) translate(-36 17)" onmousedown="handlePan(-1,0)">
                  <use xlink:href="#rim" fill="#404040">
                        <set attributeName="fill" to="#808080" begin="arrowLeft.mouseover" end="arrowLeft.mouseout"/>
                  </use>
                  <path fill="none" stroke="white" stroke-width="1.5" d="M0,-3.0v7 M-2.5,-0.5L0,-3.0L2.5,-0.5"/>
                </g>
        </g>
        <svg viewBox="0 0 15 15" width="100%" height="30px" preserveAspectRatio="xMaxYMin meet">
         <g id="arrow_out" transform="scale(0.3 0.3)">
          <a xlink:href="classSteadyPhaseFieldOperator__coll__graph_org.svg" target="_base">
           <rect id="button" ry="5" rx="5" y="6" x="6" height="38" width="38"
                fill="#f2f5e9" fill-opacity="0.5" stroke="#606060" stroke-width="1.0"/>
           <path id="arrow"
             d="M 11.500037,31.436501 C 11.940474,20.09759 22.043105,11.32322 32.158766,21.979434 L 37.068811,17.246167 C 37.068811,17.246167 37.088388,32 37.088388,32 L 22.160133,31.978069 C 22.160133,31.978069 26.997745,27.140456 26.997745,27.140456 C 18.528582,18.264221 13.291696,25.230495 11.500037,31.436501 z"
             style="fill:#404040;"/>
          </a>
         </g>
        </svg>
</svg>
