<?xml version="1.0" encoding="UTF-8" standalone="no"?>
<!DOCTYPE svg PUBLIC "-//W3C//DTD SVG 1.1//EN"
 "http://www.w3.org/Graphics/SVG/1.1/DTD/svg11.dtd">
<!-- Generated by graphviz version 2.43.0 (0)
 -->
<!-- Title: PrecondDSmoother::create_solver Pages: 1 -->
<svg width="569pt" height="187pt"
 viewBox="0.00 0.00 569.00 186.50" xmlns="http://www.w3.org/2000/svg" xmlns:xlink="http://www.w3.org/1999/xlink">
<g id="graph0" class="graph" transform="scale(1 1) rotate(0) translate(4 182.5)">
<title>PrecondDSmoother::create_solver</title>
<!-- Node1 -->
<g id="node1" class="node">
<title>Node1</title>
<g id="a_node1"><a xlink:title="Create preconditioner based of the PreconditionerType and a list of Parameters.">
<polygon fill="#bfbfbf" stroke="black" points="0,-76.5 0,-106.5 154,-106.5 154,-76.5 0,-76.5"/>
<text text-anchor="start" x="8" y="-94.5" font-family="serif" font-size="10.00">PrecondDSmoother::create</text>
<text text-anchor="middle" x="77" y="-83.5" font-family="serif" font-size="10.00">_solver</text>
</a>
</g>
</g>
<!-- Node2 -->
<g id="node2" class="node">
<title>Node2</title>
<g id="a_node2"><a xlink:href="classSlothInfo.html#a854d3cafdb9f5a77f1063a27d2a27e04" target="_top" xlink:title="Print information on Debug mode.">
<polygon fill="none" stroke="black" points="229,-159 229,-178 331,-178 331,-159 229,-159"/>
<text text-anchor="middle" x="280" y="-166" font-family="serif" font-size="10.00">SlothInfo::debug</text>
</a>
</g>
</g>
<!-- Node1&#45;&gt;Node2 -->
<g id="edge1" class="edge">
<title>Node1&#45;&gt;Node2</title>
<path fill="none" stroke="midnightblue" d="M102.49,-106.62C124.62,-119.69 158.46,-138.2 190,-149.5 199.26,-152.82 209.28,-155.65 219.14,-158.03"/>
<polygon fill="midnightblue" stroke="midnightblue" points="218.38,-161.44 228.91,-160.26 219.94,-154.62 218.38,-161.44"/>
</g>
<!-- Node3 -->
<g id="node3" class="node">
<title>Node3</title>
<g id="a_node3"><a xlink:href="classSolverBase.html#a52edc30e08c2552f8ceb3d9ea928b059" target="_top" xlink:title=" ">
<polygon fill="none" stroke="black" points="190,-99 190,-140 370,-140 370,-99 190,-99"/>
<text text-anchor="start" x="198" y="-128" font-family="serif" font-size="10.00">SolverBase&lt; mfem::DSmoother,</text>
<text text-anchor="start" x="198" y="-117" font-family="serif" font-size="10.00"> PreconditionerType &gt;::get</text>
<text text-anchor="middle" x="280" y="-106" font-family="serif" font-size="10.00">_description</text>
</a>
</g>
</g>
<!-- Node1&#45;&gt;Node3 -->
<g id="edge2" class="edge">
<title>Node1&#45;&gt;Node3</title>
<path fill="none" stroke="midnightblue" d="M154.28,-102.13C162.66,-103.29 171.28,-104.49 179.88,-105.69"/>
<polygon fill="midnightblue" stroke="midnightblue" points="179.58,-109.18 189.97,-107.1 180.55,-102.25 179.58,-109.18"/>
</g>
<!-- Node4 -->
<g id="node4" class="node">
<title>Node4</title>
<g id="a_node4"><a xlink:href="classParameters.html#ae3b314c5ebc3fde8684b0634b2406da6" target="_top" xlink:title="Return the value of the parameter associated to the given name.">
<polygon fill="none" stroke="black" points="212.5,-49.5 212.5,-79.5 347.5,-79.5 347.5,-49.5 212.5,-49.5"/>
<text text-anchor="start" x="220.5" y="-67.5" font-family="serif" font-size="10.00">Parameters::get_param</text>
<text text-anchor="middle" x="280" y="-56.5" font-family="serif" font-size="10.00">_value</text>
</a>
</g>
</g>
<!-- Node1&#45;&gt;Node4 -->
<g id="edge3" class="edge">
<title>Node1&#45;&gt;Node4</title>
<path fill="none" stroke="midnightblue" d="M154.28,-81.25C169.95,-79.15 186.45,-76.93 202.14,-74.82"/>
<polygon fill="midnightblue" stroke="midnightblue" points="202.87,-78.26 212.32,-73.46 201.94,-71.32 202.87,-78.26"/>
</g>
<!-- Node7 -->
<g id="node7" class="node">
<title>Node7</title>
<g id="a_node7"><a xlink:href="classParameters.html#a857c53fbe60d7bd2f91e91626f85b6d2" target="_top" xlink:title="Return the value of the parameter associated to the given name or, use th edefault given,...">
<polygon fill="none" stroke="black" points="212.5,-0.5 212.5,-30.5 347.5,-30.5 347.5,-0.5 212.5,-0.5"/>
<text text-anchor="start" x="220.5" y="-18.5" font-family="serif" font-size="10.00">Parameters::get_param</text>
<text text-anchor="middle" x="280" y="-7.5" font-family="serif" font-size="10.00">_value_or_default</text>
</a>
</g>
</g>
<!-- Node1&#45;&gt;Node7 -->
<g id="edge6" class="edge">
<title>Node1&#45;&gt;Node7</title>
<path fill="none" stroke="midnightblue" d="M107.9,-76.37C130.16,-65.47 161.51,-50.92 190,-40.5 196.74,-38.04 203.83,-35.67 210.96,-33.45"/>
<polygon fill="midnightblue" stroke="midnightblue" points="212.11,-36.75 220.66,-30.5 210.08,-30.06 212.11,-36.75"/>
</g>
<!-- Node5 -->
<g id="node5" class="node">
<title>Node5</title>
<g id="a_node5"><a xlink:href="classParameters.html#aacf1a423c07aa2e63d2397fe903a1388" target="_top" xlink:title="Return the parameter associated to the given name.">
<polygon fill="none" stroke="black" points="406,-52 406,-71 561,-71 561,-52 406,-52"/>
<text text-anchor="middle" x="483.5" y="-59" font-family="serif" font-size="10.00">Parameters::get_parameter</text>
</a>
</g>
</g>
<!-- Node4&#45;&gt;Node5 -->
<g id="edge4" class="edge">
<title>Node4&#45;&gt;Node5</title>
<path fill="none" stroke="midnightblue" d="M347.54,-63.51C363.01,-63.28 379.71,-63.03 395.9,-62.79"/>
<polygon fill="midnightblue" stroke="midnightblue" points="395.96,-66.29 405.91,-62.64 395.86,-59.29 395.96,-66.29"/>
</g>
<!-- Node6 -->
<g id="node6" class="node">
<title>Node6</title>
<g id="a_node6"><a xlink:href="classParameter.html#a7874e1270fe62aecf3063a4f9edecb47" target="_top" xlink:title="Return the value of the paramter.">
<polygon fill="none" stroke="black" points="421,-11 421,-30 546,-30 546,-11 421,-11"/>
<text text-anchor="middle" x="483.5" y="-18" font-family="serif" font-size="10.00">Parameter::get_value</text>
</a>
</g>
</g>
<!-- Node4&#45;&gt;Node6 -->
<g id="edge5" class="edge">
<title>Node4&#45;&gt;Node6</title>
<path fill="none" stroke="midnightblue" d="M347.54,-49.97C373.93,-44.21 403.89,-37.67 428.86,-32.21"/>
<polygon fill="midnightblue" stroke="midnightblue" points="429.85,-35.58 438.87,-30.03 428.36,-28.74 429.85,-35.58"/>
</g>
<!-- Node7&#45;&gt;Node5 -->
<g id="edge7" class="edge">
<title>Node7&#45;&gt;Node5</title>
<path fill="none" stroke="midnightblue" d="M346.98,-30.56C374.24,-36.78 405.36,-43.89 430.91,-49.72"/>
<polygon fill="midnightblue" stroke="midnightblue" points="430.23,-53.16 440.76,-51.97 431.79,-46.33 430.23,-53.16"/>
</g>
<!-- Node7&#45;&gt;Node6 -->
<g id="edge8" class="edge">
<title>Node7&#45;&gt;Node6</title>
<path fill="none" stroke="midnightblue" d="M347.54,-17.15C367.74,-17.65 390.02,-18.21 410.56,-18.71"/>
<polygon fill="midnightblue" stroke="midnightblue" points="410.72,-22.22 420.8,-18.97 410.89,-15.22 410.72,-22.22"/>
</g>
</g>
</svg>
