<?xml version="1.0" encoding="UTF-8" standalone="no"?>
<!DOCTYPE svg PUBLIC "-//W3C//DTD SVG 1.1//EN"
 "http://www.w3.org/Graphics/SVG/1.1/DTD/svg11.dtd">
<!-- Generated by graphviz version 2.43.0 (0)
 -->
<!-- Title: TransientOperatorBase&lt; T, DIM, NLFI, LHS_NLFI &gt; Pages: 1 -->
<svg width="740pt" height="170pt"
 viewBox="0.00 0.00 740.00 170.00" xmlns="http://www.w3.org/2000/svg" xmlns:xlink="http://www.w3.org/1999/xlink">
<g id="graph0" class="graph" transform="scale(1 1) rotate(0) translate(4 166)">
<title>TransientOperatorBase&lt; T, DIM, NLFI, LHS_NLFI &gt;</title>
<!-- Node1 -->
<g id="node1" class="node">
<title>Node1</title>
<g id="a_node1"><a xlink:title="TransientOperatorBase class.">
<polygon fill="#bfbfbf" stroke="black" points="171,-66 171,-96 336,-96 336,-66 171,-66"/>
<text text-anchor="start" x="179" y="-84" font-family="serif" font-size="10.00">TransientOperatorBase</text>
<text text-anchor="middle" x="253.5" y="-73" font-family="serif" font-size="10.00">&lt; T, DIM, NLFI, LHS_NLFI &gt;</text>
</a>
</g>
</g>
<!-- Node3 -->
<g id="node3" class="node">
<title>Node3</title>
<g id="a_node3"><a xlink:href="classDiffusionOperatorBase.html" target="_top" xlink:title=" ">
<polygon fill="none" stroke="black" points="372,-120.5 372,-161.5 529,-161.5 529,-120.5 372,-120.5"/>
<text text-anchor="start" x="380" y="-149.5" font-family="serif" font-size="10.00">DiffusionOperatorBase</text>
<text text-anchor="start" x="380" y="-138.5" font-family="serif" font-size="10.00">&lt; T, DIM, NLFI, LHS_NLFI,</text>
<text text-anchor="middle" x="450.5" y="-127.5" font-family="serif" font-size="10.00"> TransientOperatorBase &gt;</text>
</a>
</g>
</g>
<!-- Node1&#45;&gt;Node3 -->
<g id="edge2" class="edge">
<title>Node1&#45;&gt;Node3</title>
<path fill="none" stroke="midnightblue" d="M313.29,-99.09C335.21,-105.83 360.26,-113.54 382.84,-120.49"/>
<polygon fill="midnightblue" stroke="midnightblue" points="314.04,-95.66 303.46,-96.06 311.98,-102.35 314.04,-95.66"/>
</g>
<!-- Node5 -->
<g id="node5" class="node">
<title>Node5</title>
<g id="a_node5"><a xlink:href="classHeatOperatorBase.html" target="_top" xlink:title=" ">
<polygon fill="none" stroke="black" points="375.5,-60.5 375.5,-101.5 525.5,-101.5 525.5,-60.5 375.5,-60.5"/>
<text text-anchor="start" x="383.5" y="-89.5" font-family="serif" font-size="10.00">HeatOperatorBase&lt; T,</text>
<text text-anchor="start" x="383.5" y="-78.5" font-family="serif" font-size="10.00"> DIM, NLFI, LHS_NLFI,</text>
<text text-anchor="middle" x="450.5" y="-67.5" font-family="serif" font-size="10.00"> TransientOperatorBase &gt;</text>
</a>
</g>
</g>
<!-- Node1&#45;&gt;Node5 -->
<g id="edge4" class="edge">
<title>Node1&#45;&gt;Node5</title>
<path fill="none" stroke="midnightblue" d="M346.22,-81C356,-81 365.87,-81 375.41,-81"/>
<polygon fill="midnightblue" stroke="midnightblue" points="346.07,-77.5 336.07,-81 346.07,-84.5 346.07,-77.5"/>
</g>
<!-- Node7 -->
<g id="node7" class="node">
<title>Node7</title>
<g id="a_node7"><a xlink:href="classPhaseFieldOperatorBase.html" target="_top" xlink:title=" ">
<polygon fill="none" stroke="black" points="372,-0.5 372,-41.5 529,-41.5 529,-0.5 372,-0.5"/>
<text text-anchor="start" x="380" y="-29.5" font-family="serif" font-size="10.00">PhaseFieldOperatorBase</text>
<text text-anchor="start" x="380" y="-18.5" font-family="serif" font-size="10.00">&lt; T, DIM, NLFI, LHS_NLFI,</text>
<text text-anchor="middle" x="450.5" y="-7.5" font-family="serif" font-size="10.00"> TransientOperatorBase &gt;</text>
</a>
</g>
</g>
<!-- Node1&#45;&gt;Node7 -->
<g id="edge6" class="edge">
<title>Node1&#45;&gt;Node7</title>
<path fill="none" stroke="midnightblue" d="M313.29,-62.91C335.21,-56.17 360.26,-48.46 382.84,-41.51"/>
<polygon fill="midnightblue" stroke="midnightblue" points="311.98,-59.65 303.46,-65.94 314.04,-66.34 311.98,-59.65"/>
</g>
<!-- Node2 -->
<g id="node2" class="node">
<title>Node2</title>
<g id="a_node2"><a xlink:href="classOperatorBase.html" target="_top" xlink:title="Base class for building Steady and TimeDependent PhaseFieldOperators.">
<polygon fill="none" stroke="black" points="0,-66 0,-96 135,-96 135,-66 0,-66"/>
<text text-anchor="start" x="8" y="-84" font-family="serif" font-size="10.00">OperatorBase&lt; T, DIM,</text>
<text text-anchor="middle" x="67.5" y="-73" font-family="serif" font-size="10.00"> NLFI, LHS_NLFI &gt;</text>
</a>
</g>
</g>
<!-- Node2&#45;&gt;Node1 -->
<g id="edge1" class="edge">
<title>Node2&#45;&gt;Node1</title>
<path fill="none" stroke="midnightblue" d="M145.39,-81C153.85,-81 162.48,-81 170.98,-81"/>
<polygon fill="midnightblue" stroke="midnightblue" points="145.19,-77.5 135.19,-81 145.19,-84.5 145.19,-77.5"/>
</g>
<!-- Node4 -->
<g id="node4" class="node">
<title>Node4</title>
<g id="a_node4"><a xlink:href="classDiffusionOperator.html" target="_top" xlink:title="Class DiffusionOperator.">
<polygon fill="none" stroke="black" points="585.5,-120.5 585.5,-161.5 711.5,-161.5 711.5,-120.5 585.5,-120.5"/>
<text text-anchor="start" x="593.5" y="-149.5" font-family="serif" font-size="10.00">DiffusionOperator&lt;</text>
<text text-anchor="start" x="593.5" y="-138.5" font-family="serif" font-size="10.00"> T, DIM, NLFI, DENS,</text>
<text text-anchor="middle" x="648.5" y="-127.5" font-family="serif" font-size="10.00"> LHS_NLFI &gt;</text>
</a>
</g>
</g>
<!-- Node3&#45;&gt;Node4 -->
<g id="edge3" class="edge">
<title>Node3&#45;&gt;Node4</title>
<path fill="none" stroke="midnightblue" d="M539.35,-141C554.83,-141 570.65,-141 585.25,-141"/>
<polygon fill="midnightblue" stroke="midnightblue" points="539.25,-137.5 529.25,-141 539.25,-144.5 539.25,-137.5"/>
</g>
<!-- Node6 -->
<g id="node6" class="node">
<title>Node6</title>
<g id="a_node6"><a xlink:href="classHeatOperator.html" target="_top" xlink:title="Class HeatOperator.">
<polygon fill="none" stroke="black" points="565,-66 565,-96 732,-96 732,-66 565,-66"/>
<text text-anchor="start" x="573" y="-84" font-family="serif" font-size="10.00">HeatOperator&lt; T, DIM,</text>
<text text-anchor="middle" x="648.5" y="-73" font-family="serif" font-size="10.00"> NLFI, LHS_NLFI, RHO, CP &gt;</text>
</a>
</g>
</g>
<!-- Node5&#45;&gt;Node6 -->
<g id="edge5" class="edge">
<title>Node5&#45;&gt;Node6</title>
<path fill="none" stroke="midnightblue" d="M535.9,-81C545.47,-81 555.22,-81 564.76,-81"/>
<polygon fill="midnightblue" stroke="midnightblue" points="535.6,-77.5 525.6,-81 535.6,-84.5 535.6,-77.5"/>
</g>
<!-- Node8 -->
<g id="node8" class="node">
<title>Node8</title>
<g id="a_node8"><a xlink:href="classPhaseFieldOperator.html" target="_top" xlink:title="Class PhaseFieldOperator.">
<polygon fill="none" stroke="black" points="587.5,-0.5 587.5,-41.5 709.5,-41.5 709.5,-0.5 587.5,-0.5"/>
<text text-anchor="start" x="595.5" y="-29.5" font-family="serif" font-size="10.00">PhaseFieldOperator</text>
<text text-anchor="start" x="595.5" y="-18.5" font-family="serif" font-size="10.00">&lt; T, DIM, NLFI, LHS</text>
<text text-anchor="middle" x="648.5" y="-7.5" font-family="serif" font-size="10.00">_NLFI &gt;</text>
</a>
</g>
</g>
<!-- Node7&#45;&gt;Node8 -->
<g id="edge7" class="edge">
<title>Node7&#45;&gt;Node8</title>
<path fill="none" stroke="midnightblue" d="M539.3,-21C555.56,-21 572.19,-21 587.39,-21"/>
<polygon fill="midnightblue" stroke="midnightblue" points="539.25,-17.5 529.25,-21 539.25,-24.5 539.25,-17.5"/>
</g>
</g>
</svg>
