<?xml version="1.0" encoding="UTF-8" standalone="no"?>
<!DOCTYPE svg PUBLIC "-//W3C//DTD SVG 1.1//EN"
 "http://www.w3.org/Graphics/SVG/1.1/DTD/svg11.dtd">
<!-- Generated by graphviz version 2.43.0 (0)
 -->
<!-- Title: NLSolverBase Pages: 1 -->
<svg width="212pt" height="174pt"
 viewBox="0.00 0.00 212.00 174.00" xmlns="http://www.w3.org/2000/svg" xmlns:xlink="http://www.w3.org/1999/xlink">
<g id="graph0" class="graph" transform="scale(1 1) rotate(0) translate(4 170)">
<title>NLSolverBase</title>
<!-- Node1 -->
<g id="node1" class="node">
<title>Node1</title>
<g id="a_node1"><a xlink:title=" ">
<polygon fill="#bfbfbf" stroke="black" points="35.5,-0.5 35.5,-19.5 124.5,-19.5 124.5,-0.5 35.5,-0.5"/>
<text text-anchor="middle" x="80" y="-7.5" font-family="serif" font-size="10.00">NLSolverBase</text>
</a>
</g>
</g>
<!-- Node2 -->
<g id="node2" class="node">
<title>Node2</title>
<g id="a_node2"><a xlink:href="classSolverBase.html" target="_top" xlink:title=" ">
<polygon fill="none" stroke="black" points="0,-57.5 0,-87.5 160,-87.5 160,-57.5 0,-57.5"/>
<text text-anchor="start" x="8" y="-75.5" font-family="serif" font-size="10.00">SolverBase&lt; mfem::Newton</text>
<text text-anchor="middle" x="80" y="-64.5" font-family="serif" font-size="10.00">Solver, NLSolverType &gt;</text>
</a>
</g>
</g>
<!-- Node2&#45;&gt;Node1 -->
<g id="edge1" class="edge">
<title>Node2&#45;&gt;Node1</title>
<path fill="none" stroke="#8b1a1a" d="M80,-47.35C80,-37.51 80,-26.78 80,-19.54"/>
<polygon fill="#8b1a1a" stroke="#8b1a1a" points="76.5,-47.47 80,-57.47 83.5,-47.47 76.5,-47.47"/>
</g>
<!-- Node3 -->
<g id="node3" class="node">
<title>Node3</title>
<g id="a_node3"><a xlink:href="classSolverBase.html" target="_top" xlink:title=" ">
<polygon fill="none" stroke="black" points="23,-146.5 23,-165.5 137,-165.5 137,-146.5 23,-146.5"/>
<text text-anchor="middle" x="80" y="-153.5" font-family="serif" font-size="10.00">SolverBase&lt; T, S &gt;</text>
</a>
</g>
</g>
<!-- Node3&#45;&gt;Node2 -->
<g id="edge2" class="edge">
<title>Node3&#45;&gt;Node2</title>
<path fill="none" stroke="orange" stroke-dasharray="5,2" d="M80,-136.23C80,-121.41 80,-101.05 80,-87.6"/>
<polygon fill="orange" stroke="orange" points="76.5,-136.28 80,-146.28 83.5,-136.28 76.5,-136.28"/>
<text text-anchor="start" x="80" y="-120" font-family="serif" font-size="10.00"> &lt; mfem::NewtonSolver,</text>
<text text-anchor="middle" x="142" y="-109" font-family="serif" font-size="10.00"> NLSolverType &gt;</text>
</g>
</g>
</svg>
