<?xml version="1.0" encoding="UTF-8" standalone="no"?>
<!DOCTYPE svg PUBLIC "-//W3C//DTD SVG 1.1//EN"
 "http://www.w3.org/Graphics/SVG/1.1/DTD/svg11.dtd">
<!-- Generated by graphviz version 2.43.0 (0)
 -->
<!-- Title: TransientOperatorBase::initialize Pages: 1 -->
<svg width="489pt" height="78pt"
 viewBox="0.00 0.00 489.00 77.50" xmlns="http://www.w3.org/2000/svg" xmlns:xlink="http://www.w3.org/1999/xlink">
<g id="graph0" class="graph" transform="scale(1 1) rotate(0) translate(4 73.5)">
<title>TransientOperatorBase::initialize</title>
<!-- Node1 -->
<g id="node1" class="node">
<title>Node1</title>
<g id="a_node1"><a xlink:title="Initialization stage (call by imeDiscretization&lt;PST, OPE, VAR&gt;::initialize())">
<polygon fill="#bfbfbf" stroke="black" points="0,-17 0,-47 136,-47 136,-17 0,-17"/>
<text text-anchor="start" x="8" y="-35" font-family="serif" font-size="10.00">TransientOperatorBase</text>
<text text-anchor="middle" x="68" y="-24" font-family="serif" font-size="10.00">::initialize</text>
</a>
</g>
</g>
<!-- Node2 -->
<g id="node2" class="node">
<title>Node2</title>
<g id="a_node2"><a xlink:href="classOperatorBase.html#ab610e1c53fc27ec56ecab45c226be49c" target="_top" xlink:title="Initialization stage (call by imeDiscretization&lt;PST, OPE, VAR&gt;::initialize())">
<polygon fill="none" stroke="black" points="172,-22.5 172,-41.5 308,-41.5 308,-22.5 172,-22.5"/>
<text text-anchor="middle" x="240" y="-29.5" font-family="serif" font-size="10.00">OperatorBase::initialize</text>
</a>
</g>
</g>
<!-- Node1&#45;&gt;Node2 -->
<g id="edge1" class="edge">
<title>Node1&#45;&gt;Node2</title>
<path fill="none" stroke="midnightblue" d="M136.19,-32C144.5,-32 153.05,-32 161.51,-32"/>
<polygon fill="midnightblue" stroke="midnightblue" points="161.74,-35.5 171.74,-32 161.74,-28.5 161.74,-35.5"/>
</g>
<!-- Node3 -->
<g id="node3" class="node">
<title>Node3</title>
<g id="a_node3"><a xlink:href="classVariables.html#aadf815b64b6a43387f7f393d06b45887" target="_top" xlink:title="Return the number of variables.">
<polygon fill="none" stroke="black" points="344,-39 344,-69 481,-69 481,-39 344,-39"/>
<text text-anchor="start" x="352" y="-57" font-family="serif" font-size="10.00">Variables::get_variables</text>
<text text-anchor="middle" x="412.5" y="-46" font-family="serif" font-size="10.00">_number</text>
</a>
</g>
</g>
<!-- Node2&#45;&gt;Node3 -->
<g id="edge2" class="edge">
<title>Node2&#45;&gt;Node3</title>
<path fill="none" stroke="midnightblue" d="M308.39,-40.69C316.66,-41.76 325.16,-42.86 333.58,-43.95"/>
<polygon fill="midnightblue" stroke="midnightblue" points="333.4,-47.45 343.77,-45.26 334.3,-40.51 333.4,-47.45"/>
</g>
<!-- Node4 -->
<g id="node4" class="node">
<title>Node4</title>
<g id="a_node4"><a xlink:href="classVariables.html#a0fb59f4145974f7d284a5b6f906285a9" target="_top" xlink:title="get i&#45;th variable">
<polygon fill="none" stroke="black" points="347,-0.5 347,-19.5 478,-19.5 478,-0.5 347,-0.5"/>
<text text-anchor="middle" x="412.5" y="-7.5" font-family="serif" font-size="10.00">Variables::getIVariable</text>
</a>
</g>
</g>
<!-- Node2&#45;&gt;Node4 -->
<g id="edge3" class="edge">
<title>Node2&#45;&gt;Node4</title>
<path fill="none" stroke="midnightblue" d="M308.39,-23.31C317.68,-22.11 327.28,-20.87 336.7,-19.65"/>
<polygon fill="midnightblue" stroke="midnightblue" points="337.36,-23.1 346.83,-18.34 336.46,-16.15 337.36,-23.1"/>
</g>
</g>
</svg>
