<?xml version="1.0" encoding="UTF-8" standalone="no"?>
<!DOCTYPE svg PUBLIC "-//W3C//DTD SVG 1.1//EN"
 "http://www.w3.org/Graphics/SVG/1.1/DTD/svg11.dtd">
<!-- Generated by graphviz version 2.43.0 (0)
 -->
<!-- Title: Parameters::get_parameter Pages: 1 -->
<!--zoomable 1597 -->
<svg id="main" version="1.1" xmlns="http://www.w3.org/2000/svg" xmlns:xlink="http://www.w3.org/1999/xlink" xml:space="preserve" onload="init(evt)">
<style type="text/css"><![CDATA[
.edge:hover path { stroke: red; }
.edge:hover polygon { stroke: red; fill: red; }
]]></style>
<script type="text/javascript"><![CDATA[
var edges = document.getElementsByTagName('g');
if (edges && edges.length) {
  for (var i=0;i<edges.length;i++) {
    if (edges[i].id.substr(0,4)=='edge') {
      edges[i].setAttribute('class','edge');
    }
  }
}
]]></script>
        <defs>
                <circle id="rim" cx="0" cy="0" r="7"/>
                <circle id="rim2" cx="0" cy="0" r="3.5"/>
                <g id="zoomPlus">
                        <use xlink:href="#rim" fill="#404040">
                                <set attributeName="fill" to="#808080" begin="zoomplus.mouseover" end="zoomplus.mouseout"/>
                        </use>
                        <path d="M-4,0h8M0,-4v8" fill="none" stroke="white" stroke-width="1.5" pointer-events="none"/>
                </g>
                <g id="zoomMin">
                        <use xlink:href="#rim" fill="#404040">
                                <set attributeName="fill" to="#808080" begin="zoomminus.mouseover" end="zoomminus.mouseout"/>
                        </use>
                        <path d="M-4,0h8" fill="none" stroke="white" stroke-width="1.5" pointer-events="none"/>
                </g>
                <g id="dirArrow">
                        <path fill="none" stroke="white" stroke-width="1.5" d="M0,-3.0v7 M-2.5,-0.5L0,-3.0L2.5,-0.5"/>
                </g>
               <g id="resetDef">
                       <use xlink:href="#rim2" fill="#404040">
                               <set attributeName="fill" to="#808080" begin="reset.mouseover" end="reset.mouseout"/>
                       </use>
               </g>
        </defs>

<script type="text/javascript">
var viewWidth = 696;
var viewHeight = 1597;
var sectionId = 'dynsection-5';
</script>
<script xlink:href="svgpan.js"/>
<svg id="graph" class="graph">
<g id="viewport">
<title>Parameters::get_parameter</title>
<!-- Node1 -->
<g id="node1" class="node">
<title>Node1</title>
<g id="a_node1"><a xlink:title="Return the parameter associated to the given name.">
<polygon fill="#bfbfbf" stroke="black" points="533,-1011 533,-1030 688,-1030 688,-1011 533,-1011"/>
<text text-anchor="middle" x="610.5" y="-1018" font-family="serif" font-size="10.00">Parameters::get_parameter</text>
</a>
</g>
</g>
<!-- Node2 -->
<g id="node2" class="node">
<title>Node2</title>
<g id="a_node2"><a xlink:href="classParameters.html#ae3b314c5ebc3fde8684b0634b2406da6" target="_top" xlink:title="Return the value of the parameter associated to the given name.">
<polygon fill="none" stroke="black" points="362,-809.5 362,-839.5 497,-839.5 497,-809.5 362,-809.5"/>
<text text-anchor="start" x="370" y="-827.5" font-family="serif" font-size="10.00">Parameters::get_param</text>
<text text-anchor="middle" x="429.5" y="-816.5" font-family="serif" font-size="10.00">_value</text>
</a>
</g>
</g>
<!-- Node1&#45;&gt;Node2 -->
<g id="edge1" class="edge">
<title>Node1&#45;&gt;Node2</title>
<path fill="none" stroke="midnightblue" d="M593.61,-1003.1C558.96,-965.16 477.09,-875.51 444.36,-839.68"/>
<polygon fill="midnightblue" stroke="midnightblue" points="591.3,-1005.76 600.62,-1010.78 596.46,-1001.04 591.3,-1005.76"/>
</g>
<!-- Node37 -->
<g id="node37" class="node">
<title>Node37</title>
<g id="a_node37"><a xlink:href="classParameters.html#a857c53fbe60d7bd2f91e91626f85b6d2" target="_top" xlink:title="Return the value of the parameter associated to the given name or, use th edefault given,...">
<polygon fill="none" stroke="black" points="362,-1249.5 362,-1279.5 497,-1279.5 497,-1249.5 362,-1249.5"/>
<text text-anchor="start" x="370" y="-1267.5" font-family="serif" font-size="10.00">Parameters::get_param</text>
<text text-anchor="middle" x="429.5" y="-1256.5" font-family="serif" font-size="10.00">_value_or_default</text>
</a>
</g>
</g>
<!-- Node1&#45;&gt;Node37 -->
<g id="edge48" class="edge">
<title>Node1&#45;&gt;Node37</title>
<path fill="none" stroke="midnightblue" d="M596.53,-1038.18C562.84,-1084.1 473.02,-1206.54 441.57,-1249.42"/>
<polygon fill="midnightblue" stroke="midnightblue" points="599.39,-1040.2 602.48,-1030.07 593.75,-1036.06 599.39,-1040.2"/>
</g>
<!-- Node3 -->
<g id="node3" class="node">
<title>Node3</title>
<g id="a_node3"><a xlink:href="classSolverUMFPACK.html#a8a0cb7f36e9e9fa812fb45b23e39ab62" target="_top" xlink:title="Create a direct solver based of the SolverType and a list of Parameters.">
<polygon fill="none" stroke="black" points="176.5,-1225.5 176.5,-1255.5 316.5,-1255.5 316.5,-1225.5 176.5,-1225.5"/>
<text text-anchor="start" x="184.5" y="-1243.5" font-family="serif" font-size="10.00">SolverUMFPACK::create</text>
<text text-anchor="middle" x="246.5" y="-1232.5" font-family="serif" font-size="10.00">_solver</text>
</a>
</g>
</g>
<!-- Node2&#45;&gt;Node3 -->
<g id="edge2" class="edge">
<title>Node2&#45;&gt;Node3</title>
<path fill="none" stroke="midnightblue" d="M425.12,-849.89C414.23,-927.97 377.77,-1162.57 326,-1216.5 322.74,-1219.89 319.02,-1222.81 315.01,-1225.32"/>
<polygon fill="midnightblue" stroke="midnightblue" points="428.65,-849.92 426.54,-839.54 421.71,-848.97 428.65,-849.92"/>
</g>
<!-- Node5 -->
<g id="node5" class="node">
<title>Node5</title>
<g id="a_node5"><a xlink:href="classPrecondHypreILU.html#a9747a2d4154f14a83fb87b1f398973ff" target="_top" xlink:title="Create preconditioner based of the PreconditionerType and a list of Parameters.">
<polygon fill="none" stroke="black" points="173.5,-1176.5 173.5,-1206.5 319.5,-1206.5 319.5,-1176.5 173.5,-1176.5"/>
<text text-anchor="start" x="181.5" y="-1194.5" font-family="serif" font-size="10.00">PrecondHypreILU::create</text>
<text text-anchor="middle" x="246.5" y="-1183.5" font-family="serif" font-size="10.00">_solver</text>
</a>
</g>
</g>
<!-- Node2&#45;&gt;Node5 -->
<g id="edge4" class="edge">
<title>Node2&#45;&gt;Node5</title>
<path fill="none" stroke="midnightblue" d="M428.6,-849.86C427.42,-912.77 415.47,-1077.46 326,-1167.5 322.58,-1170.94 318.69,-1173.88 314.51,-1176.41"/>
<polygon fill="midnightblue" stroke="midnightblue" points="432.1,-849.7 428.71,-839.66 425.1,-849.62 432.1,-849.7"/>
</g>
<!-- Node6 -->
<g id="node6" class="node">
<title>Node6</title>
<g id="a_node6"><a xlink:href="classPrecondHypreSmoother.html#a1d685276c8db4a0c7c3acd12662fffd1" target="_top" xlink:title="Create preconditioner based of the PreconditionerType and a list of Parameters.">
<polygon fill="none" stroke="black" points="176.5,-1127.5 176.5,-1157.5 316.5,-1157.5 316.5,-1127.5 176.5,-1127.5"/>
<text text-anchor="start" x="184.5" y="-1145.5" font-family="serif" font-size="10.00">PrecondHypreSmoother</text>
<text text-anchor="middle" x="246.5" y="-1134.5" font-family="serif" font-size="10.00">::create_solver</text>
</a>
</g>
</g>
<!-- Node2&#45;&gt;Node6 -->
<g id="edge6" class="edge">
<title>Node2&#45;&gt;Node6</title>
<path fill="none" stroke="midnightblue" d="M427.13,-849.66C422.68,-906.05 403.97,-1043.49 326,-1118.5 322.41,-1121.96 318.33,-1124.92 313.96,-1127.45"/>
<polygon fill="midnightblue" stroke="midnightblue" points="430.63,-849.72 427.84,-839.5 423.65,-849.23 430.63,-849.72"/>
</g>
<!-- Node7 -->
<g id="node7" class="node">
<title>Node7</title>
<g id="a_node7"><a xlink:href="classPrecondHypreBoomerAMG.html#ae9b8748901ee350584a1c8e3b33eb0a6" target="_top" xlink:title="Create preconditioner based of the PreconditionerType and a list of Parameters.">
<polygon fill="none" stroke="black" points="168,-1078.5 168,-1108.5 325,-1108.5 325,-1078.5 168,-1078.5"/>
<text text-anchor="start" x="176" y="-1096.5" font-family="serif" font-size="10.00">PrecondHypreBoomerAMG</text>
<text text-anchor="middle" x="246.5" y="-1085.5" font-family="serif" font-size="10.00">::create_solver</text>
</a>
</g>
</g>
<!-- Node2&#45;&gt;Node7 -->
<g id="edge8" class="edge">
<title>Node2&#45;&gt;Node7</title>
<path fill="none" stroke="midnightblue" d="M425.08,-849.85C417.06,-899.38 392.42,-1009.38 326,-1069.5 322.2,-1072.94 317.91,-1075.89 313.35,-1078.42"/>
<polygon fill="midnightblue" stroke="midnightblue" points="428.58,-850.12 426.63,-839.7 421.66,-849.06 428.58,-850.12"/>
</g>
<!-- Node8 -->
<g id="node8" class="node">
<title>Node8</title>
<g id="a_node8"><a xlink:href="classPrecondHypreDiagScale.html#a99a26e0ad57569f0186c286191e591cc" target="_top" xlink:title="Create preconditioner based of the PreconditionerType and a list of Parameters.">
<polygon fill="none" stroke="black" points="175.5,-931.5 175.5,-961.5 317.5,-961.5 317.5,-931.5 175.5,-931.5"/>
<text text-anchor="start" x="183.5" y="-949.5" font-family="serif" font-size="10.00">PrecondHypreDiagScale</text>
<text text-anchor="middle" x="246.5" y="-938.5" font-family="serif" font-size="10.00">::create_solver</text>
</a>
</g>
</g>
<!-- Node2&#45;&gt;Node8 -->
<g id="edge10" class="edge">
<title>Node2&#45;&gt;Node8</title>
<path fill="none" stroke="midnightblue" d="M409.95,-847.64C391.03,-869.82 359.72,-902.75 326,-922.5 320.22,-925.89 313.92,-928.84 307.48,-931.4"/>
<polygon fill="midnightblue" stroke="midnightblue" points="412.85,-849.64 416.58,-839.72 407.48,-845.15 412.85,-849.64"/>
</g>
<!-- Node9 -->
<g id="node9" class="node">
<title>Node9</title>
<g id="a_node9"><a xlink:href="classSolverHyprePCG.html#a2122f479fde910c6a27b6f74bf750324" target="_top" xlink:title="Create a iterative solver based of the SolverType and a list of Parameters.">
<polygon fill="none" stroke="black" points="176,-1029.5 176,-1059.5 317,-1059.5 317,-1029.5 176,-1029.5"/>
<text text-anchor="start" x="184" y="-1047.5" font-family="serif" font-size="10.00">SolverHyprePCG::create</text>
<text text-anchor="middle" x="246.5" y="-1036.5" font-family="serif" font-size="10.00">_solver</text>
</a>
</g>
</g>
<!-- Node2&#45;&gt;Node9 -->
<g id="edge12" class="edge">
<title>Node2&#45;&gt;Node9</title>
<path fill="none" stroke="midnightblue" d="M422.26,-849.41C410.54,-891.01 381.31,-974.59 326,-1020.5 321.83,-1023.96 317.17,-1026.92 312.26,-1029.45"/>
<polygon fill="midnightblue" stroke="midnightblue" points="425.69,-850.12 424.92,-839.55 418.93,-848.29 425.69,-850.12"/>
</g>
<!-- Node10 -->
<g id="node10" class="node">
<title>Node10</title>
<g id="a_node10"><a xlink:href="classSolverHypreGMRES.html#ae8cd627c6a9dddb56c4ac48a134de7e0" target="_top" xlink:title="Create a iterative solver based of the SolverType and a list of Parameters.">
<polygon fill="none" stroke="black" points="167,-1558.5 167,-1588.5 326,-1588.5 326,-1558.5 167,-1558.5"/>
<text text-anchor="start" x="175" y="-1576.5" font-family="serif" font-size="10.00">SolverHypreGMRES::create</text>
<text text-anchor="middle" x="246.5" y="-1565.5" font-family="serif" font-size="10.00">_solver</text>
</a>
</g>
</g>
<!-- Node2&#45;&gt;Node10 -->
<g id="edge14" class="edge">
<title>Node2&#45;&gt;Node10</title>
<path fill="none" stroke="midnightblue" d="M424.1,-849.64C412.86,-914.33 382.53,-1091.88 362,-1240.5 352.54,-1308.98 370.27,-1496.41 326,-1549.5 323.17,-1552.89 319.88,-1555.82 316.27,-1558.33"/>
<polygon fill="midnightblue" stroke="midnightblue" points="427.58,-850.03 425.85,-839.58 420.69,-848.83 427.58,-850.03"/>
</g>
<!-- Node11 -->
<g id="node11" class="node">
<title>Node11</title>
<g id="a_node11"><a xlink:href="classSolverHypreFGMRES.html#a59a039f5afb942d01777103bad40c300" target="_top" xlink:title="Create a iterative solver based of the SolverType and a list of Parameters.">
<polygon fill="none" stroke="black" points="179.5,-1509.5 179.5,-1539.5 313.5,-1539.5 313.5,-1509.5 179.5,-1509.5"/>
<text text-anchor="start" x="187.5" y="-1527.5" font-family="serif" font-size="10.00">SolverHypreFGMRES::</text>
<text text-anchor="middle" x="246.5" y="-1516.5" font-family="serif" font-size="10.00">create_solver</text>
</a>
</g>
</g>
<!-- Node2&#45;&gt;Node11 -->
<g id="edge16" class="edge">
<title>Node2&#45;&gt;Node11</title>
<path fill="none" stroke="midnightblue" d="M424.29,-849.67C413.49,-914.42 384.13,-1092.11 362,-1240.5 353.4,-1298.19 363.84,-1456.11 326,-1500.5 322.49,-1504.62 318.29,-1508.05 313.68,-1510.9"/>
<polygon fill="midnightblue" stroke="midnightblue" points="427.78,-850.03 425.97,-839.59 420.87,-848.88 427.78,-850.03"/>
</g>
<!-- Node12 -->
<g id="node12" class="node">
<title>Node12</title>
<g id="a_node12"><a xlink:href="classSolverBICGSTAB.html#a555f9875dc6d8572bfc1ff0032635c6d" target="_top" xlink:title="Create a iterative solver based of the SolverType and a list of Parameters.">
<polygon fill="none" stroke="black" points="176,-1460.5 176,-1490.5 317,-1490.5 317,-1460.5 176,-1460.5"/>
<text text-anchor="start" x="184" y="-1478.5" font-family="serif" font-size="10.00">SolverBICGSTAB::create</text>
<text text-anchor="middle" x="246.5" y="-1467.5" font-family="serif" font-size="10.00">_solver</text>
</a>
</g>
</g>
<!-- Node2&#45;&gt;Node12 -->
<g id="edge18" class="edge">
<title>Node2&#45;&gt;Node12</title>
<path fill="none" stroke="midnightblue" d="M424.47,-849.74C405.79,-966.48 328.55,-1448.58 326,-1451.5 323,-1454.93 319.52,-1457.89 315.74,-1460.42"/>
<polygon fill="midnightblue" stroke="midnightblue" points="427.96,-850.04 426.09,-839.61 421.05,-848.93 427.96,-850.04"/>
</g>
<!-- Node13 -->
<g id="node13" class="node">
<title>Node13</title>
<g id="a_node13"><a xlink:href="classSolverMINRES.html#ae0ec160e28632f6538ec16fc476cd14b" target="_top" xlink:title=" ">
<polygon fill="none" stroke="black" points="181,-1411.5 181,-1441.5 312,-1441.5 312,-1411.5 181,-1411.5"/>
<text text-anchor="start" x="189" y="-1429.5" font-family="serif" font-size="10.00">SolverMINRES::create</text>
<text text-anchor="middle" x="246.5" y="-1418.5" font-family="serif" font-size="10.00">_solver</text>
</a>
</g>
</g>
<!-- Node2&#45;&gt;Node13 -->
<g id="edge20" class="edge">
<title>Node2&#45;&gt;Node13</title>
<path fill="none" stroke="midnightblue" d="M424.38,-849.77C406.4,-959.65 335.35,-1390.82 326,-1401.5 322.04,-1406.02 317.27,-1409.73 312.06,-1412.77"/>
<polygon fill="midnightblue" stroke="midnightblue" points="427.88,-850.05 426.04,-839.62 420.97,-848.92 427.88,-850.05"/>
</g>
<!-- Node14 -->
<g id="node14" class="node">
<title>Node14</title>
<g id="a_node14"><a xlink:href="classSolverCG.html#abb8abcd3768a748ab1c4cc366799e146" target="_top" xlink:title=" ">
<polygon fill="none" stroke="black" points="177.5,-1373 177.5,-1392 315.5,-1392 315.5,-1373 177.5,-1373"/>
<text text-anchor="middle" x="246.5" y="-1380" font-family="serif" font-size="10.00">SolverCG::create_solver</text>
</a>
</g>
</g>
<!-- Node2&#45;&gt;Node14 -->
<g id="edge22" class="edge">
<title>Node2&#45;&gt;Node14</title>
<path fill="none" stroke="midnightblue" d="M424.5,-849.63C407.86,-953.44 344.21,-1344.36 326,-1363.5 322.42,-1367.26 318.24,-1370.33 313.7,-1372.83"/>
<polygon fill="midnightblue" stroke="midnightblue" points="427.96,-850.14 426.08,-839.71 421.05,-849.04 427.96,-850.14"/>
</g>
<!-- Node15 -->
<g id="node15" class="node">
<title>Node15</title>
<g id="a_node15"><a xlink:href="classSolverGMRES.html#a7416f84035ad3da9e20adbda9ffd8c22" target="_top" xlink:title=" ">
<polygon fill="none" stroke="black" points="183,-1323.5 183,-1353.5 310,-1353.5 310,-1323.5 183,-1323.5"/>
<text text-anchor="start" x="191" y="-1341.5" font-family="serif" font-size="10.00">SolverGMRES::create</text>
<text text-anchor="middle" x="246.5" y="-1330.5" font-family="serif" font-size="10.00">_solver</text>
</a>
</g>
</g>
<!-- Node2&#45;&gt;Node15 -->
<g id="edge24" class="edge">
<title>Node2&#45;&gt;Node15</title>
<path fill="none" stroke="midnightblue" d="M424.77,-849.66C410.43,-944.84 358.13,-1279.32 326,-1314.5 321.48,-1319.45 315.98,-1323.38 310,-1326.52"/>
<polygon fill="midnightblue" stroke="midnightblue" points="428.23,-850.16 426.25,-839.75 421.31,-849.12 428.23,-850.16"/>
</g>
<!-- Node16 -->
<g id="node16" class="node">
<title>Node16</title>
<g id="a_node16"><a xlink:href="classNLSolverBase.html#a6454b04a9444bb6edb36bd417c1f681e" target="_top" xlink:title="Create non linear solver based of the NLSolverType and a list of Parameters.">
<polygon fill="none" stroke="black" points="183,-980.5 183,-1010.5 310,-1010.5 310,-980.5 183,-980.5"/>
<text text-anchor="start" x="191" y="-998.5" font-family="serif" font-size="10.00">NLSolverBase::create</text>
<text text-anchor="middle" x="246.5" y="-987.5" font-family="serif" font-size="10.00">_solver</text>
</a>
</g>
</g>
<!-- Node2&#45;&gt;Node16 -->
<g id="edge26" class="edge">
<title>Node2&#45;&gt;Node16</title>
<path fill="none" stroke="midnightblue" d="M417.65,-849.26C402.05,-882 370.22,-939.3 326,-971.5 321.16,-975.02 315.8,-978.04 310.21,-980.61"/>
<polygon fill="midnightblue" stroke="midnightblue" points="420.93,-850.48 421.96,-839.94 414.58,-847.54 420.93,-850.48"/>
</g>
<!-- Node17 -->
<g id="node17" class="node">
<title>Node17</title>
<g id="a_node17"><a xlink:href="classPrecondDSmoother.html#a04b157c452b242897c2e7e2fbdda790c" target="_top" xlink:title="Create preconditioner based of the PreconditionerType and a list of Parameters.">
<polygon fill="none" stroke="black" points="169.5,-1274.5 169.5,-1304.5 323.5,-1304.5 323.5,-1274.5 169.5,-1274.5"/>
<text text-anchor="start" x="177.5" y="-1292.5" font-family="serif" font-size="10.00">PrecondDSmoother::create</text>
<text text-anchor="middle" x="246.5" y="-1281.5" font-family="serif" font-size="10.00">_solver</text>
</a>
</g>
</g>
<!-- Node2&#45;&gt;Node17 -->
<g id="edge27" class="edge">
<title>Node2&#45;&gt;Node17</title>
<path fill="none" stroke="midnightblue" d="M425.9,-849.97C416.79,-934.48 383.69,-1203.72 326,-1265.5 322.79,-1268.94 319.1,-1271.89 315.12,-1274.42"/>
<polygon fill="midnightblue" stroke="midnightblue" points="429.39,-850.27 426.96,-839.96 422.43,-849.53 429.39,-850.27"/>
</g>
<!-- Node18 -->
<g id="node18" class="node">
<title>Node18</title>
<g id="a_node18"><a xlink:href="structConductivity__function_3_010_01_4.html#a64894d761a9a9614d9189bfe3ccf0f8e" target="_top" xlink:title="Get the Constant Conductivity fonction.">
<polygon fill="none" stroke="black" points="182.5,-833.5 182.5,-863.5 310.5,-863.5 310.5,-833.5 182.5,-833.5"/>
<text text-anchor="start" x="190.5" y="-851.5" font-family="serif" font-size="10.00">Conductivity_function</text>
<text text-anchor="middle" x="246.5" y="-840.5" font-family="serif" font-size="10.00">&lt; 0 &gt;::getConstant</text>
</a>
</g>
</g>
<!-- Node2&#45;&gt;Node18 -->
<g id="edge29" class="edge">
<title>Node2&#45;&gt;Node18</title>
<path fill="none" stroke="midnightblue" d="M351.95,-834.65C338.2,-836.47 324,-838.36 310.68,-840.12"/>
<polygon fill="midnightblue" stroke="midnightblue" points="352.42,-838.12 361.87,-833.33 351.5,-831.18 352.42,-838.12"/>
</g>
<!-- Node19 -->
<g id="node19" class="node">
<title>Node19</title>
<g id="a_node19"><a xlink:href="structdensity__function_3_010_01_4.html#aa791768b8896b3a4df83fdd8450b1328" target="_top" xlink:title="Get the Constant Density fonction.">
<polygon fill="none" stroke="black" points="187,-784.5 187,-814.5 306,-814.5 306,-784.5 187,-784.5"/>
<text text-anchor="start" x="195" y="-802.5" font-family="serif" font-size="10.00">density_function&lt; 0</text>
<text text-anchor="middle" x="246.5" y="-791.5" font-family="serif" font-size="10.00"> &gt;::getConstant</text>
</a>
</g>
</g>
<!-- Node2&#45;&gt;Node19 -->
<g id="edge30" class="edge">
<title>Node2&#45;&gt;Node19</title>
<path fill="none" stroke="midnightblue" d="M351.92,-813.92C336.63,-811.81 320.8,-809.62 306.22,-807.61"/>
<polygon fill="midnightblue" stroke="midnightblue" points="351.49,-817.4 361.87,-815.3 352.45,-810.46 351.49,-817.4"/>
</g>
<!-- Node20 -->
<g id="node20" class="node">
<title>Node20</title>
<g id="a_node20"><a xlink:href="structDiffusion__function_3_010_01_4.html#a2bcbc21bbcc07898e9cfa08b1fdb15f6" target="_top" xlink:title="Get the Constant Diffusion fonction.">
<polygon fill="none" stroke="black" points="190,-735.5 190,-765.5 303,-765.5 303,-735.5 190,-735.5"/>
<text text-anchor="start" x="198" y="-753.5" font-family="serif" font-size="10.00">Diffusion_function</text>
<text text-anchor="middle" x="246.5" y="-742.5" font-family="serif" font-size="10.00">&lt; 0 &gt;::getConstant</text>
</a>
</g>
</g>
<!-- Node2&#45;&gt;Node20 -->
<g id="edge31" class="edge">
<title>Node2&#45;&gt;Node20</title>
<path fill="none" stroke="midnightblue" d="M390.82,-804.95C371.69,-795.42 347.91,-784.18 326,-775.5 317.22,-772.02 307.75,-768.68 298.53,-765.63"/>
<polygon fill="midnightblue" stroke="midnightblue" points="389.31,-808.11 399.81,-809.48 392.45,-801.86 389.31,-808.11"/>
</g>
<!-- Node21 -->
<g id="node21" class="node">
<title>Node21</title>
<g id="a_node21"><a xlink:href="structHeatCapacity__function_3_010_01_4.html#a2cdd5d30e85ec35ed34647d423682aaa" target="_top" xlink:title="Get the Constant HeatCapacity fonction.">
<polygon fill="none" stroke="black" points="180,-686.5 180,-716.5 313,-716.5 313,-686.5 180,-686.5"/>
<text text-anchor="start" x="188" y="-704.5" font-family="serif" font-size="10.00">HeatCapacity_function</text>
<text text-anchor="middle" x="246.5" y="-693.5" font-family="serif" font-size="10.00">&lt; 0 &gt;::getConstant</text>
</a>
</g>
</g>
<!-- Node2&#45;&gt;Node21 -->
<g id="edge32" class="edge">
<title>Node2&#45;&gt;Node21</title>
<path fill="none" stroke="midnightblue" d="M409.9,-801.44C390.94,-779.33 359.6,-746.44 326,-726.5 319.6,-722.7 312.57,-719.42 305.41,-716.59"/>
<polygon fill="midnightblue" stroke="midnightblue" points="407.43,-803.94 416.54,-809.34 412.79,-799.43 407.43,-803.94"/>
</g>
<!-- Node22 -->
<g id="node22" class="node">
<title>Node22</title>
<g id="a_node22"><a xlink:href="structLambda__function_3_010_01_4.html#adec1b719917d9699d135430a8fbd9fc9" target="_top" xlink:title="Get the Constant Lambda fonction.">
<polygon fill="none" stroke="black" points="185,-637.5 185,-667.5 308,-667.5 308,-637.5 185,-637.5"/>
<text text-anchor="start" x="193" y="-655.5" font-family="serif" font-size="10.00">Lambda_function&lt; 0</text>
<text text-anchor="middle" x="246.5" y="-644.5" font-family="serif" font-size="10.00"> &gt;::getConstant</text>
</a>
</g>
</g>
<!-- Node2&#45;&gt;Node22 -->
<g id="edge33" class="edge">
<title>Node2&#45;&gt;Node22</title>
<path fill="none" stroke="midnightblue" d="M417.59,-799.82C401.93,-767.16 370.03,-709.95 326,-677.5 320.59,-673.51 314.52,-670.15 308.21,-667.31"/>
<polygon fill="midnightblue" stroke="midnightblue" points="414.53,-801.53 421.93,-809.11 420.87,-798.57 414.53,-801.53"/>
</g>
<!-- Node23 -->
<g id="node23" class="node">
<title>Node23</title>
<g id="a_node23"><a xlink:href="structMobility__function_3_010_01_4.html#a8cb28fadccc6ec4a8fc4b3f905a4cf03" target="_top" xlink:title="Get the Constant Mobility fonction.">
<polygon fill="none" stroke="black" points="189.5,-588.5 189.5,-618.5 303.5,-618.5 303.5,-588.5 189.5,-588.5"/>
<text text-anchor="start" x="197.5" y="-606.5" font-family="serif" font-size="10.00">Mobility_function&lt;</text>
<text text-anchor="middle" x="246.5" y="-595.5" font-family="serif" font-size="10.00"> 0 &gt;::getConstant</text>
</a>
</g>
</g>
<!-- Node2&#45;&gt;Node23 -->
<g id="edge34" class="edge">
<title>Node2&#45;&gt;Node23</title>
<path fill="none" stroke="midnightblue" d="M422.2,-799.66C410.4,-758.16 381.04,-674.74 326,-628.5 319.43,-622.98 311.63,-618.67 303.53,-615.32"/>
<polygon fill="midnightblue" stroke="midnightblue" points="418.87,-800.77 424.89,-809.49 425.62,-798.92 418.87,-800.77"/>
</g>
<!-- Node24 -->
<g id="node24" class="node">
<title>Node24</title>
<g id="a_node24"><a xlink:href="structOmega__function_3_010_01_4.html#aeafdab77ef11bd7f2e3d174fa6195ea0" target="_top" xlink:title="Get the Constant Omega fonction.">
<polygon fill="none" stroke="black" points="182,-539.5 182,-569.5 311,-569.5 311,-539.5 182,-539.5"/>
<text text-anchor="start" x="190" y="-557.5" font-family="serif" font-size="10.00">Omega_function&lt; 0 &gt;</text>
<text text-anchor="middle" x="246.5" y="-546.5" font-family="serif" font-size="10.00">::getConstant</text>
</a>
</g>
</g>
<!-- Node2&#45;&gt;Node24 -->
<g id="edge35" class="edge">
<title>Node2&#45;&gt;Node24</title>
<path fill="none" stroke="midnightblue" d="M425.02,-799.21C416.89,-749.8 392.07,-640 326,-579.5 321.57,-575.44 316.48,-572.04 311.07,-569.2"/>
<polygon fill="midnightblue" stroke="midnightblue" points="421.6,-799.99 426.59,-809.34 428.52,-798.92 421.6,-799.99"/>
</g>
<!-- Node25 -->
<g id="node25" class="node">
<title>Node25</title>
<g id="a_node25"><a xlink:href="structMobility__function_3_010_01_4.html#a2e778c73c65357dadd37d9215c1783dc" target="_top" xlink:title="Get the Degenerated Mobility function.">
<polygon fill="none" stroke="black" points="183.5,-490.5 183.5,-520.5 309.5,-520.5 309.5,-490.5 183.5,-490.5"/>
<text text-anchor="start" x="191.5" y="-508.5" font-family="serif" font-size="10.00">Mobility_function&lt;</text>
<text text-anchor="middle" x="246.5" y="-497.5" font-family="serif" font-size="10.00"> 0 &gt;::getDegenerated</text>
</a>
</g>
</g>
<!-- Node2&#45;&gt;Node25 -->
<g id="edge36" class="edge">
<title>Node2&#45;&gt;Node25</title>
<path fill="none" stroke="midnightblue" d="M427.03,-799.01C422.4,-742.5 403.35,-605.78 326,-530.5 321.28,-525.91 315.73,-522.16 309.79,-519.11"/>
<polygon fill="midnightblue" stroke="midnightblue" points="423.56,-799.48 427.78,-809.2 430.54,-798.97 423.56,-799.48"/>
</g>
<!-- Node26 -->
<g id="node26" class="node">
<title>Node26</title>
<g id="a_node26"><a xlink:href="structMobility__function_3_011_01_4.html#aac43cc7df2552a25a7ac5dda455729f1" target="_top" xlink:title="Get the Degenerated Mobility function (1st derivative)">
<polygon fill="none" stroke="black" points="183.5,-441.5 183.5,-471.5 309.5,-471.5 309.5,-441.5 183.5,-441.5"/>
<text text-anchor="start" x="191.5" y="-459.5" font-family="serif" font-size="10.00">Mobility_function&lt;</text>
<text text-anchor="middle" x="246.5" y="-448.5" font-family="serif" font-size="10.00"> 1 &gt;::getDegenerated</text>
</a>
</g>
</g>
<!-- Node2&#45;&gt;Node26 -->
<g id="edge37" class="edge">
<title>Node2&#45;&gt;Node26</title>
<path fill="none" stroke="midnightblue" d="M428.53,-799.21C427.21,-736.44 414.95,-572.06 326,-481.5 321.29,-476.7 315.66,-472.83 309.61,-469.69"/>
<polygon fill="midnightblue" stroke="midnightblue" points="425.03,-799.43 428.67,-809.38 432.03,-799.33 425.03,-799.43"/>
</g>
<!-- Node27 -->
<g id="node27" class="node">
<title>Node27</title>
<g id="a_node27"><a xlink:href="structConductivity__function_3_010_01_4.html#ae9cf208a61efb9963804b726a4f75f3f" target="_top" xlink:title="Get the Linear Conductivity function.">
<polygon fill="none" stroke="black" points="182.5,-392.5 182.5,-422.5 310.5,-422.5 310.5,-392.5 182.5,-392.5"/>
<text text-anchor="start" x="190.5" y="-410.5" font-family="serif" font-size="10.00">Conductivity_function</text>
<text text-anchor="middle" x="246.5" y="-399.5" font-family="serif" font-size="10.00">&lt; 0 &gt;::getLinear</text>
</a>
</g>
</g>
<!-- Node2&#45;&gt;Node27 -->
<g id="edge38" class="edge">
<title>Node2&#45;&gt;Node27</title>
<path fill="none" stroke="midnightblue" d="M425.09,-799.14C414.12,-721.13 377.45,-486.73 326,-432.5 321.57,-427.83 316.27,-424.03 310.55,-420.94"/>
<polygon fill="midnightblue" stroke="midnightblue" points="421.68,-800.05 426.52,-809.47 428.62,-799.09 421.68,-800.05"/>
</g>
<!-- Node28 -->
<g id="node28" class="node">
<title>Node28</title>
<g id="a_node28"><a xlink:href="structConductivity__function_3_011_01_4.html#a50409603dfa580623320411ab9d60e3c" target="_top" xlink:title="Get the Linear Conductivity function (1st derivative)">
<polygon fill="none" stroke="black" points="182.5,-343.5 182.5,-373.5 310.5,-373.5 310.5,-343.5 182.5,-343.5"/>
<text text-anchor="start" x="190.5" y="-361.5" font-family="serif" font-size="10.00">Conductivity_function</text>
<text text-anchor="middle" x="246.5" y="-350.5" font-family="serif" font-size="10.00">&lt; 1 &gt;::getLinear</text>
</a>
</g>
</g>
<!-- Node2&#45;&gt;Node28 -->
<g id="edge39" class="edge">
<title>Node2&#45;&gt;Node28</title>
<path fill="none" stroke="midnightblue" d="M425.87,-799.05C416.68,-714.62 383.33,-445.61 326,-383.5 321.63,-378.77 316.38,-374.93 310.68,-371.82"/>
<polygon fill="midnightblue" stroke="midnightblue" points="422.4,-799.49 426.94,-809.06 429.36,-798.74 422.4,-799.49"/>
</g>
<!-- Node29 -->
<g id="node29" class="node">
<title>Node29</title>
<g id="a_node29"><a xlink:href="structdensity__function_3_010_01_4.html#ac866f44084c6a8dd3d35840251954a1b" target="_top" xlink:title="Get the Linear Density function.">
<polygon fill="none" stroke="black" points="187,-294.5 187,-324.5 306,-324.5 306,-294.5 187,-294.5"/>
<text text-anchor="start" x="195" y="-312.5" font-family="serif" font-size="10.00">density_function&lt; 0</text>
<text text-anchor="middle" x="246.5" y="-301.5" font-family="serif" font-size="10.00"> &gt;::getLinear</text>
</a>
</g>
</g>
<!-- Node2&#45;&gt;Node29 -->
<g id="edge40" class="edge">
<title>Node2&#45;&gt;Node29</title>
<path fill="none" stroke="midnightblue" d="M426.53,-799.26C419.02,-709.11 389.31,-404.63 326,-334.5 320.54,-328.45 313.61,-323.85 306.15,-320.36"/>
<polygon fill="midnightblue" stroke="midnightblue" points="423.06,-799.71 427.36,-809.39 430.03,-799.14 423.06,-799.71"/>
</g>
<!-- Node30 -->
<g id="node30" class="node">
<title>Node30</title>
<g id="a_node30"><a xlink:href="structdensity__function_3_011_01_4.html#aeb402a4aa2fd897aeb520e2913e20611" target="_top" xlink:title="Get the Linear Density function (1st derivative)">
<polygon fill="none" stroke="black" points="187,-245.5 187,-275.5 306,-275.5 306,-245.5 187,-245.5"/>
<text text-anchor="start" x="195" y="-263.5" font-family="serif" font-size="10.00">density_function&lt; 1</text>
<text text-anchor="middle" x="246.5" y="-252.5" font-family="serif" font-size="10.00"> &gt;::getLinear</text>
</a>
</g>
</g>
<!-- Node2&#45;&gt;Node30 -->
<g id="edge41" class="edge">
<title>Node2&#45;&gt;Node30</title>
<path fill="none" stroke="midnightblue" d="M427.06,-799.28C421.08,-703.5 395.28,-363.67 326,-285.5 320.59,-279.4 313.7,-274.78 306.26,-271.27"/>
<polygon fill="midnightblue" stroke="midnightblue" points="423.58,-799.71 427.67,-809.48 430.56,-799.29 423.58,-799.71"/>
</g>
<!-- Node31 -->
<g id="node31" class="node">
<title>Node31</title>
<g id="a_node31"><a xlink:href="structDiffusion__function_3_010_01_4.html#a5803dac7dc081ef4c511570426dd469e" target="_top" xlink:title="Get the Linear Diffusion function.">
<polygon fill="none" stroke="black" points="191.5,-196.5 191.5,-226.5 301.5,-226.5 301.5,-196.5 191.5,-196.5"/>
<text text-anchor="start" x="199.5" y="-214.5" font-family="serif" font-size="10.00">Diffusion_function</text>
<text text-anchor="middle" x="246.5" y="-203.5" font-family="serif" font-size="10.00">&lt; 0 &gt;::getLinear</text>
</a>
</g>
</g>
<!-- Node2&#45;&gt;Node31 -->
<g id="edge42" class="edge">
<title>Node2&#45;&gt;Node31</title>
<path fill="none" stroke="midnightblue" d="M427.48,-798.99C422.92,-697.37 401.2,-322.66 326,-236.5 319.51,-229.06 310.82,-223.82 301.58,-220.13"/>
<polygon fill="midnightblue" stroke="midnightblue" points="424,-799.4 427.92,-809.24 430.99,-799.1 424,-799.4"/>
</g>
<!-- Node32 -->
<g id="node32" class="node">
<title>Node32</title>
<g id="a_node32"><a xlink:href="structDiffusion__function_3_011_01_4.html#a1460eeef7dc13b5aeafefbb1ccd7336c" target="_top" xlink:title="Get the Linear Diffusion function (1st derivative)">
<polygon fill="none" stroke="black" points="191.5,-147.5 191.5,-177.5 301.5,-177.5 301.5,-147.5 191.5,-147.5"/>
<text text-anchor="start" x="199.5" y="-165.5" font-family="serif" font-size="10.00">Diffusion_function</text>
<text text-anchor="middle" x="246.5" y="-154.5" font-family="serif" font-size="10.00">&lt; 1 &gt;::getLinear</text>
</a>
</g>
</g>
<!-- Node2&#45;&gt;Node32 -->
<g id="edge43" class="edge">
<title>Node2&#45;&gt;Node32</title>
<path fill="none" stroke="midnightblue" d="M427.87,-799.31C424.69,-692.96 407.28,-281.87 326,-187.5 319.56,-180.02 310.89,-174.76 301.66,-171.06"/>
<polygon fill="midnightblue" stroke="midnightblue" points="424.37,-799.53 428.15,-809.43 431.37,-799.33 424.37,-799.53"/>
</g>
<!-- Node33 -->
<g id="node33" class="node">
<title>Node33</title>
<g id="a_node33"><a xlink:href="structHeatCapacity__function_3_010_01_4.html#ad58cc69a2432c6b271182ff90f4ecb59" target="_top" xlink:title="Get the Linear HeatCapacity function.">
<polygon fill="none" stroke="black" points="180,-98.5 180,-128.5 313,-128.5 313,-98.5 180,-98.5"/>
<text text-anchor="start" x="188" y="-116.5" font-family="serif" font-size="10.00">HeatCapacity_function</text>
<text text-anchor="middle" x="246.5" y="-105.5" font-family="serif" font-size="10.00">&lt; 0 &gt;::getLinear</text>
</a>
</g>
</g>
<!-- Node2&#45;&gt;Node33 -->
<g id="edge44" class="edge">
<title>Node2&#45;&gt;Node33</title>
<path fill="none" stroke="midnightblue" d="M428.18,-799.2C426.29,-687.68 413.27,-240.99 326,-138.5 322.38,-134.25 318.05,-130.72 313.29,-127.78"/>
<polygon fill="midnightblue" stroke="midnightblue" points="424.69,-799.53 428.34,-809.48 431.69,-799.42 424.69,-799.53"/>
</g>
<!-- Node34 -->
<g id="node34" class="node">
<title>Node34</title>
<g id="a_node34"><a xlink:href="structHeatCapacity__function_3_011_01_4.html#a7557e9b579a6d09c337d0fca11fa184d" target="_top" xlink:title="Get the Linear HeatCapacity function (1st derivative)">
<polygon fill="none" stroke="black" points="180,-49.5 180,-79.5 313,-79.5 313,-49.5 180,-49.5"/>
<text text-anchor="start" x="188" y="-67.5" font-family="serif" font-size="10.00">HeatCapacity_function</text>
<text text-anchor="middle" x="246.5" y="-56.5" font-family="serif" font-size="10.00">&lt; 1 &gt;::getLinear</text>
</a>
</g>
</g>
<!-- Node2&#45;&gt;Node34 -->
<g id="edge45" class="edge">
<title>Node2&#45;&gt;Node34</title>
<path fill="none" stroke="midnightblue" d="M428.46,-799.26C427.79,-683.03 419.33,-200.19 326,-89.5 322.4,-85.24 318.08,-81.69 313.34,-78.74"/>
<polygon fill="midnightblue" stroke="midnightblue" points="424.96,-799.36 428.51,-809.34 431.96,-799.33 424.96,-799.36"/>
</g>
<!-- Node35 -->
<g id="node35" class="node">
<title>Node35</title>
<g id="a_node35"><a xlink:href="structDiffusion__function_3_010_01_4.html#a5cd119674e65b6f208350ee6bf8c1cfa" target="_top" xlink:title="Get the Constant Diffusion fonction.">
<polygon fill="none" stroke="black" points="191.5,-0.5 191.5,-30.5 301.5,-30.5 301.5,-0.5 191.5,-0.5"/>
<text text-anchor="start" x="199.5" y="-18.5" font-family="serif" font-size="10.00">Diffusion_function</text>
<text text-anchor="middle" x="246.5" y="-7.5" font-family="serif" font-size="10.00">&lt; 0 &gt;::getLog</text>
</a>
</g>
</g>
<!-- Node2&#45;&gt;Node35 -->
<g id="edge46" class="edge">
<title>Node2&#45;&gt;Node35</title>
<path fill="none" stroke="midnightblue" d="M428.74,-799.1C429.38,-677.73 426.15,-157.93 326,-39.5 319.65,-31.99 311.02,-26.79 301.8,-23.19"/>
<polygon fill="midnightblue" stroke="midnightblue" points="425.24,-799.25 428.67,-809.27 432.24,-799.3 425.24,-799.25"/>
</g>
<!-- Node36 -->
<g id="node36" class="node">
<title>Node36</title>
<g id="a_node36"><a xlink:href="structDiffusion__function_3_011_01_4.html#a0f9d1bad4545478f2efa41395a02a04f" target="_top" xlink:title="Get the Log Diffusion function (1st derivative)">
<polygon fill="none" stroke="black" points="191.5,-882.5 191.5,-912.5 301.5,-912.5 301.5,-882.5 191.5,-882.5"/>
<text text-anchor="start" x="199.5" y="-900.5" font-family="serif" font-size="10.00">Diffusion_function</text>
<text text-anchor="middle" x="246.5" y="-889.5" font-family="serif" font-size="10.00">&lt; 1 &gt;::getLog</text>
</a>
</g>
</g>
<!-- Node2&#45;&gt;Node36 -->
<g id="edge47" class="edge">
<title>Node2&#45;&gt;Node36</title>
<path fill="none" stroke="midnightblue" d="M390.86,-844.15C371.74,-853.71 347.96,-864.95 326,-873.5 317.9,-876.65 309.2,-879.67 300.65,-882.43"/>
<polygon fill="midnightblue" stroke="midnightblue" points="392.5,-847.25 399.85,-839.62 389.35,-841 392.5,-847.25"/>
</g>
<!-- Node4 -->
<g id="node4" class="node">
<title>Node4</title>
<g id="a_node4"><a xlink:href="classSlothSolver.html#aa9c78d816c02f2d4ab70af64cb3f7791" target="_top" xlink:title="Create the linear solver depending on SolverType.">
<polygon fill="none" stroke="black" points="0,-1280 0,-1299 131,-1299 131,-1280 0,-1280"/>
<text text-anchor="middle" x="65.5" y="-1287" font-family="serif" font-size="10.00">SlothSolver::get_value</text>
</a>
</g>
</g>
<!-- Node3&#45;&gt;Node4 -->
<g id="edge3" class="edge">
<title>Node3&#45;&gt;Node4</title>
<path fill="none" stroke="midnightblue" d="M180.61,-1258.26C153.77,-1265.61 123.73,-1273.83 101.21,-1280"/>
<polygon fill="midnightblue" stroke="midnightblue" points="181.61,-1261.62 190.33,-1255.6 179.76,-1254.87 181.61,-1261.62"/>
</g>
<!-- Node5&#45;&gt;Node4 -->
<g id="edge5" class="edge">
<title>Node5&#45;&gt;Node4</title>
<path fill="none" stroke="midnightblue" d="M181.13,-1210.12C176.27,-1212.09 171.51,-1214.22 167,-1216.5 131.4,-1234.51 94.77,-1264.61 77.19,-1279.92"/>
<polygon fill="midnightblue" stroke="midnightblue" points="182.46,-1213.36 190.55,-1206.51 179.96,-1206.82 182.46,-1213.36"/>
</g>
<!-- Node6&#45;&gt;Node4 -->
<g id="edge7" class="edge">
<title>Node6&#45;&gt;Node4</title>
<path fill="none" stroke="midnightblue" d="M176.24,-1161.99C173.03,-1163.68 169.93,-1165.52 167,-1167.5 120.87,-1198.73 84.7,-1257.14 71.71,-1279.99"/>
<polygon fill="midnightblue" stroke="midnightblue" points="177.98,-1165.03 185.5,-1157.57 174.97,-1158.71 177.98,-1165.03"/>
</g>
<!-- Node7&#45;&gt;Node4 -->
<g id="edge9" class="edge">
<title>Node7&#45;&gt;Node4</title>
<path fill="none" stroke="midnightblue" d="M174.12,-1113.48C171.64,-1115.03 169.25,-1116.7 167,-1118.5 110.22,-1163.84 78.77,-1250.61 69.46,-1279.71"/>
<polygon fill="midnightblue" stroke="midnightblue" points="175.81,-1116.54 182.88,-1108.65 172.43,-1110.41 175.81,-1116.54"/>
</g>
<!-- Node8&#45;&gt;Node4 -->
<g id="edge11" class="edge">
<title>Node8&#45;&gt;Node4</title>
<path fill="none" stroke="midnightblue" d="M171.55,-967.42C169.96,-968.7 168.44,-970.06 167,-971.5 75.6,-1063.11 67.19,-1237.14 66.53,-1279.85"/>
<polygon fill="midnightblue" stroke="midnightblue" points="173.74,-970.17 180.03,-961.64 169.79,-964.38 173.74,-970.17"/>
</g>
<!-- Node9&#45;&gt;Node4 -->
<g id="edge13" class="edge">
<title>Node9&#45;&gt;Node4</title>
<path fill="none" stroke="midnightblue" d="M173.08,-1064.73C170.96,-1066.21 168.92,-1067.8 167,-1069.5 98.81,-1129.95 74.01,-1245.99 68.04,-1279.95"/>
<polygon fill="midnightblue" stroke="midnightblue" points="174.92,-1067.71 181.68,-1059.55 171.31,-1061.72 174.92,-1067.71"/>
</g>
<!-- Node10&#45;&gt;Node4 -->
<g id="edge15" class="edge">
<title>Node10&#45;&gt;Node4</title>
<path fill="none" stroke="midnightblue" d="M170.55,-1552.55C169.33,-1551.58 168.14,-1550.56 167,-1549.5 89.05,-1476.98 70.86,-1337.09 67.28,-1299.18"/>
<polygon fill="midnightblue" stroke="midnightblue" points="168.91,-1555.66 179.17,-1558.32 172.81,-1549.84 168.91,-1555.66"/>
</g>
<!-- Node11&#45;&gt;Node4 -->
<g id="edge17" class="edge">
<title>Node11&#45;&gt;Node4</title>
<path fill="none" stroke="midnightblue" d="M171.69,-1504.17C170.06,-1503.01 168.5,-1501.79 167,-1500.5 100.62,-1443.27 74.71,-1332.4 68.23,-1299.15"/>
<polygon fill="midnightblue" stroke="midnightblue" points="169.86,-1507.16 180.21,-1509.42 173.53,-1501.2 169.86,-1507.16"/>
</g>
<!-- Node12&#45;&gt;Node4 -->
<g id="edge19" class="edge">
<title>Node12&#45;&gt;Node4</title>
<path fill="none" stroke="midnightblue" d="M172.59,-1455.4C170.66,-1454.18 168.79,-1452.88 167,-1451.5 111.93,-1409.1 79.58,-1327.25 69.73,-1299.2"/>
<polygon fill="midnightblue" stroke="midnightblue" points="170.96,-1458.5 181.4,-1460.31 174.37,-1452.39 170.96,-1458.5"/>
</g>
<!-- Node13&#45;&gt;Node4 -->
<g id="edge21" class="edge">
<title>Node13&#45;&gt;Node4</title>
<path fill="none" stroke="midnightblue" d="M176.84,-1407.12C173.43,-1405.39 170.13,-1403.52 167,-1401.5 123.12,-1373.13 86.46,-1320.73 72.52,-1299.16"/>
<polygon fill="midnightblue" stroke="midnightblue" points="175.52,-1410.36 186.07,-1411.36 178.45,-1404 175.52,-1410.36"/>
</g>
<!-- Node14&#45;&gt;Node4 -->
<g id="edge23" class="edge">
<title>Node14&#45;&gt;Node4</title>
<path fill="none" stroke="midnightblue" d="M183.69,-1370.03C177.94,-1368.13 172.29,-1365.97 167,-1363.5 130.47,-1346.48 93.97,-1315.13 76.74,-1299.25"/>
<polygon fill="midnightblue" stroke="midnightblue" points="182.82,-1373.43 193.41,-1372.98 184.86,-1366.73 182.82,-1373.43"/>
</g>
<!-- Node15&#45;&gt;Node4 -->
<g id="edge25" class="edge">
<title>Node15&#45;&gt;Node4</title>
<path fill="none" stroke="midnightblue" d="M180.61,-1320.74C153.77,-1313.39 123.73,-1305.17 101.21,-1299"/>
<polygon fill="midnightblue" stroke="midnightblue" points="179.76,-1324.13 190.33,-1323.4 181.61,-1317.38 179.76,-1324.13"/>
</g>
<!-- Node17&#45;&gt;Node4 -->
<g id="edge28" class="edge">
<title>Node17&#45;&gt;Node4</title>
<path fill="none" stroke="midnightblue" d="M159.11,-1289.5C149.66,-1289.5 140.16,-1289.5 131.04,-1289.5"/>
<polygon fill="midnightblue" stroke="midnightblue" points="159.33,-1293 169.33,-1289.5 159.33,-1286 159.33,-1293"/>
</g>
<!-- Node37&#45;&gt;Node3 -->
<g id="edge49" class="edge">
<title>Node37&#45;&gt;Node3</title>
<path fill="none" stroke="midnightblue" d="M351.75,-1254.32C340.12,-1252.78 328.18,-1251.2 316.72,-1249.68"/>
<polygon fill="midnightblue" stroke="midnightblue" points="351.5,-1257.82 361.87,-1255.67 352.42,-1250.88 351.5,-1257.82"/>
</g>
<!-- Node37&#45;&gt;Node5 -->
<g id="edge50" class="edge">
<title>Node37&#45;&gt;Node5</title>
<path fill="none" stroke="midnightblue" d="M389.69,-1244.87C370.74,-1235.66 347.44,-1224.9 326,-1216.5 317.08,-1213.01 307.45,-1209.63 298.09,-1206.55"/>
<polygon fill="midnightblue" stroke="midnightblue" points="388.38,-1248.13 398.9,-1249.39 391.46,-1241.84 388.38,-1248.13"/>
</g>
<!-- Node37&#45;&gt;Node6 -->
<g id="edge51" class="edge">
<title>Node37&#45;&gt;Node6</title>
<path fill="none" stroke="midnightblue" d="M409.54,-1241.32C390.5,-1219.44 359.3,-1187.15 326,-1167.5 319.59,-1163.72 312.55,-1160.44 305.4,-1157.62"/>
<polygon fill="midnightblue" stroke="midnightblue" points="407.06,-1243.81 416.21,-1249.14 412.38,-1239.27 407.06,-1243.81"/>
</g>
<!-- Node37&#45;&gt;Node7 -->
<g id="edge52" class="edge">
<title>Node37&#45;&gt;Node7</title>
<path fill="none" stroke="midnightblue" d="M417.55,-1239.99C401.84,-1207.55 369.88,-1150.73 326,-1118.5 320.7,-1114.61 314.77,-1111.3 308.6,-1108.51"/>
<polygon fill="midnightblue" stroke="midnightblue" points="414.47,-1241.66 421.9,-1249.22 420.8,-1238.68 414.47,-1241.66"/>
</g>
<!-- Node37&#45;&gt;Node9 -->
<g id="edge53" class="edge">
<title>Node37&#45;&gt;Node9</title>
<path fill="none" stroke="midnightblue" d="M422.07,-1239.48C410.16,-1198.09 380.74,-1115.38 326,-1069.5 321.4,-1065.64 316.19,-1062.38 310.7,-1059.61"/>
<polygon fill="midnightblue" stroke="midnightblue" points="418.75,-1240.6 424.79,-1249.3 425.5,-1238.73 418.75,-1240.6"/>
</g>
<!-- Node37&#45;&gt;Node10 -->
<g id="edge54" class="edge">
<title>Node37&#45;&gt;Node10</title>
<path fill="none" stroke="midnightblue" d="M426.77,-1290.03C421.64,-1345.41 401.69,-1477.4 326,-1549.5 322.39,-1552.94 318.3,-1555.89 313.92,-1558.41"/>
<polygon fill="midnightblue" stroke="midnightblue" points="430.29,-1289.97 427.64,-1279.71 423.31,-1289.39 430.29,-1289.97"/>
</g>
<!-- Node37&#45;&gt;Node11 -->
<g id="edge55" class="edge">
<title>Node37&#45;&gt;Node11</title>
<path fill="none" stroke="midnightblue" d="M424.67,-1289.63C416.01,-1337.69 390.43,-1442.97 326,-1500.5 322.17,-1503.92 317.87,-1506.85 313.3,-1509.36"/>
<polygon fill="midnightblue" stroke="midnightblue" points="428.12,-1290.2 426.35,-1279.75 421.22,-1289.02 428.12,-1290.2"/>
</g>
<!-- Node37&#45;&gt;Node12 -->
<g id="edge56" class="edge">
<title>Node37&#45;&gt;Node12</title>
<path fill="none" stroke="midnightblue" d="M421.57,-1289.42C409.14,-1329.5 379.25,-1408.17 326,-1451.5 321.8,-1454.92 317.12,-1457.85 312.19,-1460.37"/>
<polygon fill="midnightblue" stroke="midnightblue" points="424.98,-1290.23 424.48,-1279.65 418.27,-1288.23 424.98,-1290.23"/>
</g>
<!-- Node37&#45;&gt;Node13 -->
<g id="edge57" class="edge">
<title>Node37&#45;&gt;Node13</title>
<path fill="none" stroke="midnightblue" d="M416.44,-1288.84C400.05,-1319.47 367.93,-1371.67 326,-1401.5 320.64,-1405.31 314.67,-1408.56 308.48,-1411.33"/>
<polygon fill="midnightblue" stroke="midnightblue" points="419.68,-1290.19 421.2,-1279.71 413.47,-1286.96 419.68,-1290.19"/>
</g>
<!-- Node37&#45;&gt;Node14 -->
<g id="edge58" class="edge">
<title>Node37&#45;&gt;Node14</title>
<path fill="none" stroke="midnightblue" d="M410.81,-1287.64C392.18,-1310.39 360.75,-1344.39 326,-1363.5 319,-1367.35 311.22,-1370.43 303.36,-1372.89"/>
<polygon fill="midnightblue" stroke="midnightblue" points="413.56,-1289.81 417.08,-1279.82 408.1,-1285.44 413.56,-1289.81"/>
</g>
<!-- Node37&#45;&gt;Node15 -->
<g id="edge59" class="edge">
<title>Node37&#45;&gt;Node15</title>
<path fill="none" stroke="midnightblue" d="M391.73,-1284.18C372.48,-1294.04 348.32,-1305.71 326,-1314.5 317.91,-1317.69 309.22,-1320.72 300.67,-1323.48"/>
<polygon fill="midnightblue" stroke="midnightblue" points="393.48,-1287.21 400.76,-1279.51 390.27,-1281 393.48,-1287.21"/>
</g>
<!-- Node37&#45;&gt;Node16 -->
<g id="edge60" class="edge">
<title>Node37&#45;&gt;Node16</title>
<path fill="none" stroke="midnightblue" d="M424.99,-1239.31C416.81,-1190.1 391.89,-1080.75 326,-1020.5 321.36,-1016.25 315.99,-1012.73 310.28,-1009.8"/>
<polygon fill="midnightblue" stroke="midnightblue" points="421.56,-1240.06 426.57,-1249.4 428.48,-1238.98 421.56,-1240.06"/>
</g>
<!-- Node37&#45;&gt;Node17 -->
<g id="edge61" class="edge">
<title>Node37&#45;&gt;Node17</title>
<path fill="none" stroke="midnightblue" d="M351.88,-1275.08C342.57,-1276.37 333.07,-1277.68 323.77,-1278.97"/>
<polygon fill="midnightblue" stroke="midnightblue" points="352.45,-1278.54 361.87,-1273.7 351.49,-1271.6 352.45,-1278.54"/>
</g>
</g>
</svg>
        <g id="navigator" transform="translate(0 0)" fill="#404254">
                <rect fill="#f2f5e9" fill-opacity="0.5" stroke="#606060" stroke-width=".5" x="0" y="0" width="60" height="60"/>
                <use id="zoomplus" xlink:href="#zoomPlus" x="17" y="9" onmousedown="handleZoom(evt,'in')"/>
                <use id="zoomminus" xlink:href="#zoomMin" x="42" y="9" onmousedown="handleZoom(evt,'out')"/>
                <use id="reset" xlink:href="#resetDef" x="30" y="36" onmousedown="handleReset()"/>
                <g id="arrowUp" xlink:href="#dirArrow" transform="translate(30 24)" onmousedown="handlePan(0,-1)">
                  <use xlink:href="#rim" fill="#404040">
                        <set attributeName="fill" to="#808080" begin="arrowUp.mouseover" end="arrowUp.mouseout"/>
                  </use>
                  <path fill="none" stroke="white" stroke-width="1.5" d="M0,-3.0v7 M-2.5,-0.5L0,-3.0L2.5,-0.5"/>
                </g>
                <g id="arrowRight" xlink:href="#dirArrow" transform="rotate(90) translate(36 -43)" onmousedown="handlePan(1,0)">
                  <use xlink:href="#rim" fill="#404040">
                        <set attributeName="fill" to="#808080" begin="arrowRight.mouseover" end="arrowRight.mouseout"/>
                  </use>
                  <path fill="none" stroke="white" stroke-width="1.5" d="M0,-3.0v7 M-2.5,-0.5L0,-3.0L2.5,-0.5"/>
                </g>
                <g id="arrowDown" xlink:href="#dirArrow" transform="rotate(180) translate(-30 -48)" onmousedown="handlePan(0,1)">
                  <use xlink:href="#rim" fill="#404040">
                        <set attributeName="fill" to="#808080" begin="arrowDown.mouseover" end="arrowDown.mouseout"/>
                  </use>
                  <path fill="none" stroke="white" stroke-width="1.5" d="M0,-3.0v7 M-2.5,-0.5L0,-3.0L2.5,-0.5"/>
                </g>
                <g id="arrowLeft" xlink:href="#dirArrow" transform="rotate(270) translate(-36 17)" onmousedown="handlePan(-1,0)">
                  <use xlink:href="#rim" fill="#404040">
                        <set attributeName="fill" to="#808080" begin="arrowLeft.mouseover" end="arrowLeft.mouseout"/>
                  </use>
                  <path fill="none" stroke="white" stroke-width="1.5" d="M0,-3.0v7 M-2.5,-0.5L0,-3.0L2.5,-0.5"/>
                </g>
        </g>
        <svg viewBox="0 0 15 15" width="100%" height="30px" preserveAspectRatio="xMaxYMin meet">
         <g id="arrow_out" transform="scale(0.3 0.3)">
          <a xlink:href="classParameters_aacf1a423c07aa2e63d2397fe903a1388_icgraph_org.svg" target="_base">
           <rect id="button" ry="5" rx="5" y="6" x="6" height="38" width="38"
                fill="#f2f5e9" fill-opacity="0.5" stroke="#606060" stroke-width="1.0"/>
           <path id="arrow"
             d="M 11.500037,31.436501 C 11.940474,20.09759 22.043105,11.32322 32.158766,21.979434 L 37.068811,17.246167 C 37.068811,17.246167 37.088388,32 37.088388,32 L 22.160133,31.978069 C 22.160133,31.978069 26.997745,27.140456 26.997745,27.140456 C 18.528582,18.264221 13.291696,25.230495 11.500037,31.436501 z"
             style="fill:#404040;"/>
          </a>
         </g>
        </svg>
</svg>
