<?xml version="1.0" encoding="UTF-8" standalone="no"?>
<!DOCTYPE svg PUBLIC "-//W3C//DTD SVG 1.1//EN"
 "http://www.w3.org/Graphics/SVG/1.1/DTD/svg11.dtd">
<!-- Generated by graphviz version 2.43.0 (0)
 -->
<!-- Title: MassDiffusionFluxNLFormIntegrator&lt; VARS &gt; Pages: 1 -->
<svg width="214pt" height="242pt"
 viewBox="0.00 0.00 214.00 242.00" xmlns="http://www.w3.org/2000/svg" xmlns:xlink="http://www.w3.org/1999/xlink">
<g id="graph0" class="graph" transform="scale(1 1) rotate(0) translate(4 238)">
<title>MassDiffusionFluxNLFormIntegrator&lt; VARS &gt;</title>
<!-- Node1 -->
<g id="node1" class="node">
<title>Node1</title>
<g id="a_node1"><a xlink:title="Class dedicated to the VF of diffusion flux (gradient of chemical potential) used in mass balance equ...">
<polygon fill="#bfbfbf" stroke="black" points="0,-0.5 0,-30.5 206,-30.5 206,-0.5 0,-0.5"/>
<text text-anchor="start" x="8" y="-18.5" font-family="serif" font-size="10.00">MassDiffusionFluxNLFormIntegrator</text>
<text text-anchor="middle" x="103" y="-7.5" font-family="serif" font-size="10.00">&lt; VARS &gt;</text>
</a>
</g>
</g>
<!-- Node2 -->
<g id="node2" class="node">
<title>Node2</title>
<g id="a_node2"><a xlink:href="classDiffusionFluxNLFormIntegrator.html" target="_top" xlink:title="Class dedicated to the VF of an inter&#45;diffusion equation.">
<polygon fill="none" stroke="black" points="13.5,-68.5 13.5,-98.5 192.5,-98.5 192.5,-68.5 13.5,-68.5"/>
<text text-anchor="start" x="21.5" y="-86.5" font-family="serif" font-size="10.00">DiffusionFluxNLFormIntegrator</text>
<text text-anchor="middle" x="103" y="-75.5" font-family="serif" font-size="10.00">&lt; VARS &gt;</text>
</a>
</g>
</g>
<!-- Node2&#45;&gt;Node1 -->
<g id="edge1" class="edge">
<title>Node2&#45;&gt;Node1</title>
<path fill="none" stroke="midnightblue" d="M103,-58.03C103,-48.86 103,-38.74 103,-30.79"/>
<polygon fill="midnightblue" stroke="midnightblue" points="99.5,-58.18 103,-68.18 106.5,-58.18 99.5,-58.18"/>
</g>
<!-- Node3 -->
<g id="node3" class="node">
<title>Node3</title>
<g id="a_node3"><a xlink:href="classSlothNLFormIntegrator.html" target="_top" xlink:title="Class prodiving common methods to all NLFormIntegrators.">
<polygon fill="none" stroke="black" points="34.5,-136.5 34.5,-166.5 171.5,-166.5 171.5,-136.5 34.5,-136.5"/>
<text text-anchor="start" x="42.5" y="-154.5" font-family="serif" font-size="10.00">SlothNLFormIntegrator</text>
<text text-anchor="middle" x="103" y="-143.5" font-family="serif" font-size="10.00">&lt; VARS &gt;</text>
</a>
</g>
</g>
<!-- Node3&#45;&gt;Node2 -->
<g id="edge2" class="edge">
<title>Node3&#45;&gt;Node2</title>
<path fill="none" stroke="midnightblue" d="M103,-126.03C103,-116.86 103,-106.74 103,-98.79"/>
<polygon fill="midnightblue" stroke="midnightblue" points="99.5,-126.18 103,-136.18 106.5,-126.18 99.5,-126.18"/>
</g>
<!-- Node4 -->
<g id="node4" class="node">
<title>Node4</title>
<g id="a_node4"><a xlink:href="classParameters.html" target="_top" xlink:title=" ">
<polygon fill="none" stroke="black" points="66,-214.5 66,-233.5 140,-233.5 140,-214.5 66,-214.5"/>
<text text-anchor="middle" x="103" y="-221.5" font-family="serif" font-size="10.00">Parameters</text>
</a>
</g>
</g>
<!-- Node4&#45;&gt;Node3 -->
<g id="edge3" class="edge">
<title>Node4&#45;&gt;Node3</title>
<path fill="none" stroke="#9a32cd" stroke-dasharray="5,2" d="M103,-204.24C103,-192.41 103,-177.38 103,-166.58"/>
<polygon fill="#9a32cd" stroke="#9a32cd" points="99.5,-204.36 103,-214.36 106.5,-204.36 99.5,-204.36"/>
<text text-anchor="middle" x="126.5" y="-188" font-family="serif" font-size="10.00"> params_</text>
</g>
</g>
</svg>
