<?xml version="1.0" encoding="UTF-8" standalone="no"?>
<!DOCTYPE svg PUBLIC "-//W3C//DTD SVG 1.1//EN"
 "http://www.w3.org/Graphics/SVG/1.1/DTD/svg11.dtd">
<!-- Generated by graphviz version 2.43.0 (0)
 -->
<!-- Title: OperatorBase&lt; T, DIM, NLFI, LHS_NLFI &gt; Pages: 1 -->
<svg width="801pt" height="374pt"
 viewBox="0.00 0.00 801.00 373.50" xmlns="http://www.w3.org/2000/svg" xmlns:xlink="http://www.w3.org/1999/xlink">
<g id="graph0" class="graph" transform="scale(1 1) rotate(0) translate(4 369.5)">
<title>OperatorBase&lt; T, DIM, NLFI, LHS_NLFI &gt;</title>
<!-- Node1 -->
<g id="node1" class="node">
<title>Node1</title>
<g id="a_node1"><a xlink:title="Base class for building Steady and TimeDependent PhaseFieldOperators.">
<polygon fill="#bfbfbf" stroke="black" points="0,-129 0,-159 135,-159 135,-129 0,-129"/>
<text text-anchor="start" x="8" y="-147" font-family="serif" font-size="10.00">OperatorBase&lt; T, DIM,</text>
<text text-anchor="middle" x="67.5" y="-136" font-family="serif" font-size="10.00"> NLFI, LHS_NLFI &gt;</text>
</a>
</g>
</g>
<!-- Node2 -->
<g id="node2" class="node">
<title>Node2</title>
<g id="a_node2"><a xlink:href="classSteadyOperatorBase.html" target="_top" xlink:title="SteadyOperatorBase class.">
<polygon fill="none" stroke="black" points="192.5,-219.5 192.5,-260.5 314.5,-260.5 314.5,-219.5 192.5,-219.5"/>
<text text-anchor="start" x="200.5" y="-248.5" font-family="serif" font-size="10.00">SteadyOperatorBase</text>
<text text-anchor="start" x="200.5" y="-237.5" font-family="serif" font-size="10.00">&lt; T, DIM, NLFI, LHS</text>
<text text-anchor="middle" x="253.5" y="-226.5" font-family="serif" font-size="10.00">_NLFI &gt;</text>
</a>
</g>
</g>
<!-- Node1&#45;&gt;Node2 -->
<g id="edge1" class="edge">
<title>Node1&#45;&gt;Node2</title>
<path fill="none" stroke="midnightblue" d="M106.89,-164.03C138.05,-180.29 181.81,-203.12 213.21,-219.5"/>
<polygon fill="midnightblue" stroke="midnightblue" points="108.14,-160.73 97.66,-159.21 104.9,-166.94 108.14,-160.73"/>
</g>
<!-- Node9 -->
<g id="node9" class="node">
<title>Node9</title>
<g id="a_node9"><a xlink:href="classTransientOperatorBase.html" target="_top" xlink:title="TransientOperatorBase class.">
<polygon fill="none" stroke="black" points="171,-96 171,-126 336,-126 336,-96 171,-96"/>
<text text-anchor="start" x="179" y="-114" font-family="serif" font-size="10.00">TransientOperatorBase</text>
<text text-anchor="middle" x="253.5" y="-103" font-family="serif" font-size="10.00">&lt; T, DIM, NLFI, LHS_NLFI &gt;</text>
</a>
</g>
</g>
<!-- Node1&#45;&gt;Node9 -->
<g id="edge8" class="edge">
<title>Node1&#45;&gt;Node9</title>
<path fill="none" stroke="midnightblue" d="M145.11,-130.26C153.66,-128.73 162.38,-127.16 170.98,-125.62"/>
<polygon fill="midnightblue" stroke="midnightblue" points="144.41,-126.83 135.19,-132.04 145.65,-133.72 144.41,-126.83"/>
</g>
<!-- Node3 -->
<g id="node3" class="node">
<title>Node3</title>
<g id="a_node3"><a xlink:href="classDiffusionOperatorBase.html" target="_top" xlink:title=" ">
<polygon fill="none" stroke="black" points="390,-313 390,-365 572,-365 572,-313 390,-313"/>
<text text-anchor="start" x="398" y="-353" font-family="serif" font-size="10.00">DiffusionOperatorBase</text>
<text text-anchor="start" x="398" y="-342" font-family="serif" font-size="10.00">&lt; T, DIM, NLFI, mfem</text>
<text text-anchor="start" x="398" y="-331" font-family="serif" font-size="10.00">::BlockNonlinearFormIntegrator,</text>
<text text-anchor="middle" x="481" y="-320" font-family="serif" font-size="10.00"> SteadyOperatorBase &gt;</text>
</a>
</g>
</g>
<!-- Node2&#45;&gt;Node3 -->
<g id="edge2" class="edge">
<title>Node2&#45;&gt;Node3</title>
<path fill="none" stroke="midnightblue" d="M298.19,-265.72C319.94,-277.93 346.89,-292.18 372,-303 379.99,-306.44 388.42,-309.76 396.9,-312.91"/>
<polygon fill="midnightblue" stroke="midnightblue" points="299.63,-262.52 289.2,-260.63 296.18,-268.61 299.63,-262.52"/>
</g>
<!-- Node5 -->
<g id="node5" class="node">
<title>Node5</title>
<g id="a_node5"><a xlink:href="classHeatOperatorBase.html" target="_top" xlink:title=" ">
<polygon fill="none" stroke="black" points="372,-252.5 372,-293.5 590,-293.5 590,-252.5 372,-252.5"/>
<text text-anchor="start" x="380" y="-281.5" font-family="serif" font-size="10.00">HeatOperatorBase&lt; T,</text>
<text text-anchor="start" x="380" y="-270.5" font-family="serif" font-size="10.00"> DIM, NLFI, mfem::BlockNonlinear</text>
<text text-anchor="middle" x="481" y="-259.5" font-family="serif" font-size="10.00">FormIntegrator, SteadyOperatorBase &gt;</text>
</a>
</g>
</g>
<!-- Node2&#45;&gt;Node5 -->
<g id="edge4" class="edge">
<title>Node2&#45;&gt;Node5</title>
<path fill="none" stroke="midnightblue" d="M324.76,-250.28C339.67,-252.46 355.75,-254.82 371.71,-257.15"/>
<polygon fill="midnightblue" stroke="midnightblue" points="325.04,-246.79 314.63,-248.8 324.02,-253.71 325.04,-246.79"/>
</g>
<!-- Node7 -->
<g id="node7" class="node">
<title>Node7</title>
<g id="a_node7"><a xlink:href="classPhaseFieldOperatorBase.html" target="_top" xlink:title=" ">
<polygon fill="none" stroke="black" points="393,-181 393,-233 569,-233 569,-181 393,-181"/>
<text text-anchor="start" x="401" y="-221" font-family="serif" font-size="10.00">PhaseFieldOperatorBase</text>
<text text-anchor="start" x="401" y="-210" font-family="serif" font-size="10.00">&lt; T, DIM, NLFI, mfem::</text>
<text text-anchor="start" x="401" y="-199" font-family="serif" font-size="10.00">BlockNonlinearFormIntegrator,</text>
<text text-anchor="middle" x="481" y="-188" font-family="serif" font-size="10.00"> SteadyOperatorBase &gt;</text>
</a>
</g>
</g>
<!-- Node2&#45;&gt;Node7 -->
<g id="edge6" class="edge">
<title>Node2&#45;&gt;Node7</title>
<path fill="none" stroke="midnightblue" d="M324.69,-229.73C346.29,-226.57 370.33,-223.05 392.91,-219.74"/>
<polygon fill="midnightblue" stroke="midnightblue" points="324.02,-226.29 314.63,-231.2 325.04,-233.21 324.02,-226.29"/>
</g>
<!-- Node4 -->
<g id="node4" class="node">
<title>Node4</title>
<g id="a_node4"><a xlink:href="classSteadyDiffusionOperator.html" target="_top" xlink:title="Class SteadyDiffusionOperator.">
<polygon fill="none" stroke="black" points="627,-324 627,-354 792,-354 792,-324 627,-324"/>
<text text-anchor="start" x="635" y="-342" font-family="serif" font-size="10.00">SteadyDiffusionOperator</text>
<text text-anchor="middle" x="709.5" y="-331" font-family="serif" font-size="10.00">&lt; T, DIM, NLFI, LHS_NLFI &gt;</text>
</a>
</g>
</g>
<!-- Node3&#45;&gt;Node4 -->
<g id="edge3" class="edge">
<title>Node3&#45;&gt;Node4</title>
<path fill="none" stroke="midnightblue" d="M582.37,-339C597.2,-339 612.33,-339 626.72,-339"/>
<polygon fill="midnightblue" stroke="midnightblue" points="582.17,-335.5 572.17,-339 582.17,-342.5 582.17,-335.5"/>
</g>
<!-- Node6 -->
<g id="node6" class="node">
<title>Node6</title>
<g id="a_node6"><a xlink:href="classSteadyHeatOperator.html" target="_top" xlink:title="Class SteadyHeatOperator.">
<polygon fill="none" stroke="black" points="648.5,-252.5 648.5,-293.5 770.5,-293.5 770.5,-252.5 648.5,-252.5"/>
<text text-anchor="start" x="656.5" y="-281.5" font-family="serif" font-size="10.00">SteadyHeatOperator</text>
<text text-anchor="start" x="656.5" y="-270.5" font-family="serif" font-size="10.00">&lt; T, DIM, NLFI, LHS</text>
<text text-anchor="middle" x="709.5" y="-259.5" font-family="serif" font-size="10.00">_NLFI &gt;</text>
</a>
</g>
</g>
<!-- Node5&#45;&gt;Node6 -->
<g id="edge5" class="edge">
<title>Node5&#45;&gt;Node6</title>
<path fill="none" stroke="midnightblue" d="M600.6,-273C617.18,-273 633.6,-273 648.44,-273"/>
<polygon fill="midnightblue" stroke="midnightblue" points="600.27,-269.5 590.27,-273 600.27,-276.5 600.27,-269.5"/>
</g>
<!-- Node8 -->
<g id="node8" class="node">
<title>Node8</title>
<g id="a_node8"><a xlink:href="classSteadyPhaseFieldOperator.html" target="_top" xlink:title="Class SteadyPhaseFieldOperator.">
<polygon fill="none" stroke="black" points="627,-192 627,-222 792,-222 792,-192 627,-192"/>
<text text-anchor="start" x="635" y="-210" font-family="serif" font-size="10.00">SteadyPhaseFieldOperator</text>
<text text-anchor="middle" x="709.5" y="-199" font-family="serif" font-size="10.00">&lt; T, DIM, NLFI, LHS_NLFI &gt;</text>
</a>
</g>
</g>
<!-- Node7&#45;&gt;Node8 -->
<g id="edge7" class="edge">
<title>Node7&#45;&gt;Node8</title>
<path fill="none" stroke="midnightblue" d="M579.54,-207C595.32,-207 611.52,-207 626.87,-207"/>
<polygon fill="midnightblue" stroke="midnightblue" points="579.25,-203.5 569.25,-207 579.25,-210.5 579.25,-203.5"/>
</g>
<!-- Node10 -->
<g id="node10" class="node">
<title>Node10</title>
<g id="a_node10"><a xlink:href="classDiffusionOperatorBase.html" target="_top" xlink:title=" ">
<polygon fill="none" stroke="black" points="402.5,-120.5 402.5,-161.5 559.5,-161.5 559.5,-120.5 402.5,-120.5"/>
<text text-anchor="start" x="410.5" y="-149.5" font-family="serif" font-size="10.00">DiffusionOperatorBase</text>
<text text-anchor="start" x="410.5" y="-138.5" font-family="serif" font-size="10.00">&lt; T, DIM, NLFI, LHS_NLFI,</text>
<text text-anchor="middle" x="481" y="-127.5" font-family="serif" font-size="10.00"> TransientOperatorBase &gt;</text>
</a>
</g>
</g>
<!-- Node9&#45;&gt;Node10 -->
<g id="edge9" class="edge">
<title>Node9&#45;&gt;Node10</title>
<path fill="none" stroke="midnightblue" d="M346.18,-123.2C364.81,-125.67 384.23,-128.26 402.31,-130.66"/>
<polygon fill="midnightblue" stroke="midnightblue" points="346.6,-119.72 336.23,-121.87 345.68,-126.66 346.6,-119.72"/>
</g>
<!-- Node12 -->
<g id="node12" class="node">
<title>Node12</title>
<g id="a_node12"><a xlink:href="classHeatOperatorBase.html" target="_top" xlink:title=" ">
<polygon fill="none" stroke="black" points="406,-60.5 406,-101.5 556,-101.5 556,-60.5 406,-60.5"/>
<text text-anchor="start" x="414" y="-89.5" font-family="serif" font-size="10.00">HeatOperatorBase&lt; T,</text>
<text text-anchor="start" x="414" y="-78.5" font-family="serif" font-size="10.00"> DIM, NLFI, LHS_NLFI,</text>
<text text-anchor="middle" x="481" y="-67.5" font-family="serif" font-size="10.00"> TransientOperatorBase &gt;</text>
</a>
</g>
</g>
<!-- Node9&#45;&gt;Node12 -->
<g id="edge11" class="edge">
<title>Node9&#45;&gt;Node12</title>
<path fill="none" stroke="midnightblue" d="M346.17,-98.8C365.95,-96.17 386.64,-93.42 405.66,-90.89"/>
<polygon fill="midnightblue" stroke="midnightblue" points="345.68,-95.34 336.23,-100.13 346.6,-102.28 345.68,-95.34"/>
</g>
<!-- Node14 -->
<g id="node14" class="node">
<title>Node14</title>
<g id="a_node14"><a xlink:href="classPhaseFieldOperatorBase.html" target="_top" xlink:title=" ">
<polygon fill="none" stroke="black" points="402.5,-0.5 402.5,-41.5 559.5,-41.5 559.5,-0.5 402.5,-0.5"/>
<text text-anchor="start" x="410.5" y="-29.5" font-family="serif" font-size="10.00">PhaseFieldOperatorBase</text>
<text text-anchor="start" x="410.5" y="-18.5" font-family="serif" font-size="10.00">&lt; T, DIM, NLFI, LHS_NLFI,</text>
<text text-anchor="middle" x="481" y="-7.5" font-family="serif" font-size="10.00"> TransientOperatorBase &gt;</text>
</a>
</g>
</g>
<!-- Node9&#45;&gt;Node14 -->
<g id="edge13" class="edge">
<title>Node9&#45;&gt;Node14</title>
<path fill="none" stroke="midnightblue" d="M289.39,-90.83C312.33,-78.17 343.3,-62.18 372,-51 381.7,-47.22 392.06,-43.71 402.39,-40.52"/>
<polygon fill="midnightblue" stroke="midnightblue" points="287.42,-87.93 280.4,-95.86 290.84,-94.04 287.42,-87.93"/>
</g>
<!-- Node11 -->
<g id="node11" class="node">
<title>Node11</title>
<g id="a_node11"><a xlink:href="classDiffusionOperator.html" target="_top" xlink:title="Class DiffusionOperator.">
<polygon fill="none" stroke="black" points="646.5,-120.5 646.5,-161.5 772.5,-161.5 772.5,-120.5 646.5,-120.5"/>
<text text-anchor="start" x="654.5" y="-149.5" font-family="serif" font-size="10.00">DiffusionOperator&lt;</text>
<text text-anchor="start" x="654.5" y="-138.5" font-family="serif" font-size="10.00"> T, DIM, NLFI, DENS,</text>
<text text-anchor="middle" x="709.5" y="-127.5" font-family="serif" font-size="10.00"> LHS_NLFI &gt;</text>
</a>
</g>
</g>
<!-- Node10&#45;&gt;Node11 -->
<g id="edge10" class="edge">
<title>Node10&#45;&gt;Node11</title>
<path fill="none" stroke="midnightblue" d="M569.7,-141C595.27,-141 622.68,-141 646.32,-141"/>
<polygon fill="midnightblue" stroke="midnightblue" points="569.63,-137.5 559.63,-141 569.63,-144.5 569.63,-137.5"/>
</g>
<!-- Node13 -->
<g id="node13" class="node">
<title>Node13</title>
<g id="a_node13"><a xlink:href="classHeatOperator.html" target="_top" xlink:title="Class HeatOperator.">
<polygon fill="none" stroke="black" points="626,-66 626,-96 793,-96 793,-66 626,-66"/>
<text text-anchor="start" x="634" y="-84" font-family="serif" font-size="10.00">HeatOperator&lt; T, DIM,</text>
<text text-anchor="middle" x="709.5" y="-73" font-family="serif" font-size="10.00"> NLFI, LHS_NLFI, RHO, CP &gt;</text>
</a>
</g>
</g>
<!-- Node12&#45;&gt;Node13 -->
<g id="edge12" class="edge">
<title>Node12&#45;&gt;Node13</title>
<path fill="none" stroke="midnightblue" d="M566.24,-81C585.76,-81 606.5,-81 625.94,-81"/>
<polygon fill="midnightblue" stroke="midnightblue" points="566.16,-77.5 556.16,-81 566.16,-84.5 566.16,-77.5"/>
</g>
<!-- Node15 -->
<g id="node15" class="node">
<title>Node15</title>
<g id="a_node15"><a xlink:href="classPhaseFieldOperator.html" target="_top" xlink:title="Class PhaseFieldOperator.">
<polygon fill="none" stroke="black" points="648.5,-0.5 648.5,-41.5 770.5,-41.5 770.5,-0.5 648.5,-0.5"/>
<text text-anchor="start" x="656.5" y="-29.5" font-family="serif" font-size="10.00">PhaseFieldOperator</text>
<text text-anchor="start" x="656.5" y="-18.5" font-family="serif" font-size="10.00">&lt; T, DIM, NLFI, LHS</text>
<text text-anchor="middle" x="709.5" y="-7.5" font-family="serif" font-size="10.00">_NLFI &gt;</text>
</a>
</g>
</g>
<!-- Node14&#45;&gt;Node15 -->
<g id="edge14" class="edge">
<title>Node14&#45;&gt;Node15</title>
<path fill="none" stroke="midnightblue" d="M569.63,-21C596.01,-21 624.34,-21 648.49,-21"/>
<polygon fill="midnightblue" stroke="midnightblue" points="569.63,-17.5 559.63,-21 569.63,-24.5 569.63,-17.5"/>
</g>
</g>
</svg>
