<?xml version="1.0" encoding="UTF-8" standalone="no"?>
<!DOCTYPE svg PUBLIC "-//W3C//DTD SVG 1.1//EN"
 "http://www.w3.org/Graphics/SVG/1.1/DTD/svg11.dtd">
<!-- Generated by graphviz version 2.43.0 (0)
 -->
<!-- Title: PrecondHypreBoomerAMG::create_solver Pages: 1 -->
<svg width="584pt" height="187pt"
 viewBox="0.00 0.00 584.00 186.50" xmlns="http://www.w3.org/2000/svg" xmlns:xlink="http://www.w3.org/1999/xlink">
<g id="graph0" class="graph" transform="scale(1 1) rotate(0) translate(4 182.5)">
<title>PrecondHypreBoomerAMG::create_solver</title>
<!-- Node1 -->
<g id="node1" class="node">
<title>Node1</title>
<g id="a_node1"><a xlink:title="Create preconditioner based of the PreconditionerType and a list of Parameters.">
<polygon fill="#bfbfbf" stroke="black" points="0,-76.5 0,-106.5 157,-106.5 157,-76.5 0,-76.5"/>
<text text-anchor="start" x="8" y="-94.5" font-family="serif" font-size="10.00">PrecondHypreBoomerAMG</text>
<text text-anchor="middle" x="78.5" y="-83.5" font-family="serif" font-size="10.00">::create_solver</text>
</a>
</g>
</g>
<!-- Node2 -->
<g id="node2" class="node">
<title>Node2</title>
<g id="a_node2"><a xlink:href="classSlothInfo.html#a854d3cafdb9f5a77f1063a27d2a27e04" target="_top" xlink:title="Print information on Debug mode.">
<polygon fill="none" stroke="black" points="238,-159 238,-178 340,-178 340,-159 238,-159"/>
<text text-anchor="middle" x="289" y="-166" font-family="serif" font-size="10.00">SlothInfo::debug</text>
</a>
</g>
</g>
<!-- Node1&#45;&gt;Node2 -->
<g id="edge1" class="edge">
<title>Node1&#45;&gt;Node2</title>
<path fill="none" stroke="midnightblue" d="M104.31,-106.71C126.73,-119.83 161.02,-138.37 193,-149.5 203.93,-153.31 215.86,-156.44 227.45,-158.98"/>
<polygon fill="midnightblue" stroke="midnightblue" points="227.01,-162.47 237.51,-161.07 228.43,-155.61 227.01,-162.47"/>
</g>
<!-- Node3 -->
<g id="node3" class="node">
<title>Node3</title>
<g id="a_node3"><a xlink:href="classSolverBase.html#a52edc30e08c2552f8ceb3d9ea928b059" target="_top" xlink:title=" ">
<polygon fill="none" stroke="black" points="193,-99 193,-140 385,-140 385,-99 193,-99"/>
<text text-anchor="start" x="201" y="-128" font-family="serif" font-size="10.00">SolverBase&lt; mfem::HypreBoomer</text>
<text text-anchor="start" x="201" y="-117" font-family="serif" font-size="10.00">AMG, HyprePreconditionerType</text>
<text text-anchor="middle" x="289" y="-106" font-family="serif" font-size="10.00"> &gt;::get_description</text>
</a>
</g>
</g>
<!-- Node1&#45;&gt;Node3 -->
<g id="edge2" class="edge">
<title>Node1&#45;&gt;Node3</title>
<path fill="none" stroke="midnightblue" d="M157.14,-101.93C165.46,-103.04 174.02,-104.19 182.6,-105.35"/>
<polygon fill="midnightblue" stroke="midnightblue" points="182.28,-108.83 192.65,-106.7 183.21,-101.9 182.28,-108.83"/>
</g>
<!-- Node4 -->
<g id="node4" class="node">
<title>Node4</title>
<g id="a_node4"><a xlink:href="classParameters.html#ae3b314c5ebc3fde8684b0634b2406da6" target="_top" xlink:title="Return the value of the parameter associated to the given name.">
<polygon fill="none" stroke="black" points="221.5,-49.5 221.5,-79.5 356.5,-79.5 356.5,-49.5 221.5,-49.5"/>
<text text-anchor="start" x="229.5" y="-67.5" font-family="serif" font-size="10.00">Parameters::get_param</text>
<text text-anchor="middle" x="289" y="-56.5" font-family="serif" font-size="10.00">_value</text>
</a>
</g>
</g>
<!-- Node1&#45;&gt;Node4 -->
<g id="edge3" class="edge">
<title>Node1&#45;&gt;Node4</title>
<path fill="none" stroke="midnightblue" d="M157.14,-81.45C174.75,-79.17 193.45,-76.74 211.04,-74.47"/>
<polygon fill="midnightblue" stroke="midnightblue" points="211.78,-77.9 221.25,-73.14 210.88,-70.96 211.78,-77.9"/>
</g>
<!-- Node7 -->
<g id="node7" class="node">
<title>Node7</title>
<g id="a_node7"><a xlink:href="classParameters.html#a857c53fbe60d7bd2f91e91626f85b6d2" target="_top" xlink:title="Return the value of the parameter associated to the given name or, use th edefault given,...">
<polygon fill="none" stroke="black" points="221.5,-0.5 221.5,-30.5 356.5,-30.5 356.5,-0.5 221.5,-0.5"/>
<text text-anchor="start" x="229.5" y="-18.5" font-family="serif" font-size="10.00">Parameters::get_param</text>
<text text-anchor="middle" x="289" y="-7.5" font-family="serif" font-size="10.00">_value_or_default</text>
</a>
</g>
</g>
<!-- Node1&#45;&gt;Node7 -->
<g id="edge6" class="edge">
<title>Node1&#45;&gt;Node7</title>
<path fill="none" stroke="midnightblue" d="M109.3,-76.48C131.87,-65.5 163.87,-50.8 193,-40.5 200.18,-37.96 207.74,-35.55 215.34,-33.29"/>
<polygon fill="midnightblue" stroke="midnightblue" points="216.31,-36.66 224.96,-30.53 214.38,-29.93 216.31,-36.66"/>
</g>
<!-- Node5 -->
<g id="node5" class="node">
<title>Node5</title>
<g id="a_node5"><a xlink:href="classParameters.html#aacf1a423c07aa2e63d2397fe903a1388" target="_top" xlink:title="Return the parameter associated to the given name.">
<polygon fill="none" stroke="black" points="421,-52 421,-71 576,-71 576,-52 421,-52"/>
<text text-anchor="middle" x="498.5" y="-59" font-family="serif" font-size="10.00">Parameters::get_parameter</text>
</a>
</g>
</g>
<!-- Node4&#45;&gt;Node5 -->
<g id="edge4" class="edge">
<title>Node4&#45;&gt;Node5</title>
<path fill="none" stroke="midnightblue" d="M356.51,-63.54C373.81,-63.29 392.71,-63.02 410.89,-62.75"/>
<polygon fill="midnightblue" stroke="midnightblue" points="410.95,-66.25 420.89,-62.61 410.84,-59.25 410.95,-66.25"/>
</g>
<!-- Node6 -->
<g id="node6" class="node">
<title>Node6</title>
<g id="a_node6"><a xlink:href="classParameter.html#a7874e1270fe62aecf3063a4f9edecb47" target="_top" xlink:title="Return the value of the paramter.">
<polygon fill="none" stroke="black" points="436,-11 436,-30 561,-30 561,-11 436,-11"/>
<text text-anchor="middle" x="498.5" y="-18" font-family="serif" font-size="10.00">Parameter::get_value</text>
</a>
</g>
</g>
<!-- Node4&#45;&gt;Node6 -->
<g id="edge5" class="edge">
<title>Node4&#45;&gt;Node6</title>
<path fill="none" stroke="midnightblue" d="M356.51,-50.4C384.37,-44.49 416.35,-37.71 442.81,-32.1"/>
<polygon fill="midnightblue" stroke="midnightblue" points="443.6,-35.51 452.65,-30.01 442.15,-28.66 443.6,-35.51"/>
</g>
<!-- Node7&#45;&gt;Node5 -->
<g id="edge7" class="edge">
<title>Node7&#45;&gt;Node5</title>
<path fill="none" stroke="midnightblue" d="M356.51,-30.24C385,-36.56 417.8,-43.83 444.59,-49.77"/>
<polygon fill="midnightblue" stroke="midnightblue" points="444.03,-53.23 454.55,-51.98 445.54,-46.4 444.03,-53.23"/>
</g>
<!-- Node7&#45;&gt;Node6 -->
<g id="edge8" class="edge">
<title>Node7&#45;&gt;Node6</title>
<path fill="none" stroke="midnightblue" d="M356.51,-17.1C378.61,-17.64 403.31,-18.23 425.79,-18.77"/>
<polygon fill="midnightblue" stroke="midnightblue" points="425.86,-22.27 435.94,-19.02 426.03,-15.28 425.86,-22.27"/>
</g>
</g>
</svg>
