<?xml version="1.0" encoding="UTF-8" standalone="no"?>
<!DOCTYPE svg PUBLIC "-//W3C//DTD SVG 1.1//EN"
 "http://www.w3.org/Graphics/SVG/1.1/DTD/svg11.dtd">
<!-- Generated by graphviz version 2.43.0 (0)
 -->
<!-- Title: PotentialFunctions&lt; ORDER, SCHEME, POTENTIAL &gt; Pages: 1 -->
<svg width="627pt" height="328pt"
 viewBox="0.00 0.00 627.00 328.00" xmlns="http://www.w3.org/2000/svg" xmlns:xlink="http://www.w3.org/1999/xlink">
<g id="graph0" class="graph" transform="scale(1 1) rotate(0) translate(4 324)">
<title>PotentialFunctions&lt; ORDER, SCHEME, POTENTIAL &gt;</title>
<!-- Node1 -->
<g id="node1" class="node">
<title>Node1</title>
<g id="a_node1"><a xlink:title=" ">
<polygon fill="#bfbfbf" stroke="black" points="0,-144.5 0,-174.5 202,-174.5 202,-144.5 0,-144.5"/>
<text text-anchor="start" x="8" y="-162.5" font-family="serif" font-size="10.00">PotentialFunctions</text>
<text text-anchor="middle" x="101" y="-151.5" font-family="serif" font-size="10.00">&lt; ORDER, SCHEME, POTENTIAL &gt;</text>
</a>
</g>
</g>
<!-- Node2 -->
<g id="node2" class="node">
<title>Node2</title>
<g id="a_node2"><a xlink:href="classPotentialFunctions.html" target="_top" xlink:title=" ">
<polygon fill="none" stroke="black" points="444.5,-289.5 444.5,-319.5 596.5,-319.5 596.5,-289.5 444.5,-289.5"/>
<text text-anchor="start" x="452.5" y="-307.5" font-family="serif" font-size="10.00">PotentialFunctions</text>
<text text-anchor="middle" x="520.5" y="-296.5" font-family="serif" font-size="10.00">&lt; 1, SCHEME, ENERGY &gt;</text>
</a>
</g>
</g>
<!-- Node1&#45;&gt;Node2 -->
<g id="edge1" class="edge">
<title>Node1&#45;&gt;Node2</title>
<path fill="none" stroke="orange" stroke-dasharray="5,2" d="M119.5,-182.73C140.34,-208.48 177.69,-248.96 220,-268.5 291.2,-301.39 381.58,-308.12 444.34,-308.04"/>
<polygon fill="orange" stroke="orange" points="122.03,-180.29 113.08,-174.61 116.54,-184.63 122.03,-180.29"/>
<text text-anchor="middle" x="312" y="-309.5" font-family="serif" font-size="10.00"> &lt; 1, SCHEME, ENERGY &gt;</text>
</g>
<!-- Node3 -->
<g id="node3" class="node">
<title>Node3</title>
<g id="a_node3"><a xlink:href="classPotentialFunctions.html" target="_top" xlink:title=" ">
<polygon fill="none" stroke="black" points="444.5,-240.5 444.5,-270.5 596.5,-270.5 596.5,-240.5 444.5,-240.5"/>
<text text-anchor="start" x="452.5" y="-258.5" font-family="serif" font-size="10.00">PotentialFunctions</text>
<text text-anchor="middle" x="520.5" y="-247.5" font-family="serif" font-size="10.00">&lt; 2, SCHEME, ENERGY &gt;</text>
</a>
</g>
</g>
<!-- Node1&#45;&gt;Node3 -->
<g id="edge2" class="edge">
<title>Node1&#45;&gt;Node3</title>
<path fill="none" stroke="orange" stroke-dasharray="5,2" d="M132.01,-180.47C155,-195.39 188.08,-214.51 220,-224.5 293.96,-247.65 382.7,-254.38 444.3,-255.95"/>
<polygon fill="orange" stroke="orange" points="133.69,-177.38 123.42,-174.78 129.82,-183.22 133.69,-177.38"/>
<text text-anchor="middle" x="312" y="-256.5" font-family="serif" font-size="10.00"> &lt; 2, SCHEME, ENERGY &gt;</text>
</g>
<!-- Node4 -->
<g id="node4" class="node">
<title>Node4</title>
<g id="a_node4"><a xlink:href="classPotentialFunctions.html" target="_top" xlink:title=" ">
<polygon fill="none" stroke="black" points="428.5,-169.5 428.5,-221.5 612.5,-221.5 612.5,-169.5 428.5,-169.5"/>
<text text-anchor="start" x="436.5" y="-209.5" font-family="serif" font-size="10.00">PotentialFunctions</text>
<text text-anchor="start" x="436.5" y="-198.5" font-family="serif" font-size="10.00">&lt; 0, ThermodynamicsPotential</text>
<text text-anchor="start" x="436.5" y="-187.5" font-family="serif" font-size="10.00">Discretization::Implicit,</text>
<text text-anchor="middle" x="520.5" y="-176.5" font-family="serif" font-size="10.00"> ThermodynamicsPotentials::H &gt;</text>
</a>
</g>
</g>
<!-- Node1&#45;&gt;Node4 -->
<g id="edge3" class="edge">
<title>Node1&#45;&gt;Node4</title>
<path fill="none" stroke="orange" stroke-dasharray="5,2" d="M212.24,-172.74C214.85,-173 217.44,-173.25 220,-173.5 289.8,-180.2 368.93,-185.93 428.32,-189.87"/>
<polygon fill="orange" stroke="orange" points="212.38,-169.23 202.07,-171.69 211.66,-176.2 212.38,-169.23"/>
<text text-anchor="start" x="228" y="-212.5" font-family="serif" font-size="10.00"> &lt; 0, ThermodynamicsPotential</text>
<text text-anchor="start" x="228" y="-201.5" font-family="serif" font-size="10.00">Discretization::Implicit,</text>
<text text-anchor="middle" x="312" y="-190.5" font-family="serif" font-size="10.00"> ThermodynamicsPotentials::H &gt;</text>
</g>
<!-- Node5 -->
<g id="node5" class="node">
<title>Node5</title>
<g id="a_node5"><a xlink:href="classPotentialFunctions.html" target="_top" xlink:title=" ">
<polygon fill="none" stroke="black" points="434,-98.5 434,-150.5 607,-150.5 607,-98.5 434,-98.5"/>
<text text-anchor="start" x="442" y="-138.5" font-family="serif" font-size="10.00">PotentialFunctions</text>
<text text-anchor="start" x="442" y="-127.5" font-family="serif" font-size="10.00">&lt; 0, ThermodynamicsPotential</text>
<text text-anchor="start" x="442" y="-116.5" font-family="serif" font-size="10.00">Discretization::Implicit,</text>
<text text-anchor="middle" x="520.5" y="-105.5" font-family="serif" font-size="10.00"> ENERGY &gt;</text>
</a>
</g>
</g>
<!-- Node1&#45;&gt;Node5 -->
<g id="edge4" class="edge">
<title>Node1&#45;&gt;Node5</title>
<path fill="none" stroke="orange" stroke-dasharray="5,2" d="M198.46,-143.11C205.74,-142.14 212.98,-141.25 220,-140.5 291.84,-132.82 373.79,-128.76 433.78,-126.66"/>
<polygon fill="orange" stroke="orange" points="197.96,-139.65 188.53,-144.49 198.92,-146.58 197.96,-139.65"/>
<text text-anchor="start" x="232" y="-165.5" font-family="serif" font-size="10.00"> &lt; 0, ThermodynamicsPotential</text>
<text text-anchor="start" x="232" y="-154.5" font-family="serif" font-size="10.00">Discretization::Implicit,</text>
<text text-anchor="middle" x="312" y="-143.5" font-family="serif" font-size="10.00"> ENERGY &gt;</text>
</g>
<!-- Node6 -->
<g id="node6" class="node">
<title>Node6</title>
<g id="a_node6"><a xlink:href="classPotentialFunctions.html" target="_top" xlink:title=" ">
<polygon fill="none" stroke="black" points="422,-49.5 422,-79.5 619,-79.5 619,-49.5 422,-49.5"/>
<text text-anchor="start" x="430" y="-67.5" font-family="serif" font-size="10.00">PotentialFunctions</text>
<text text-anchor="middle" x="520.5" y="-56.5" font-family="serif" font-size="10.00">&lt; 2, SCHEME, INTERPOLATION &gt;</text>
</a>
</g>
</g>
<!-- Node1&#45;&gt;Node6 -->
<g id="edge5" class="edge">
<title>Node1&#45;&gt;Node6</title>
<path fill="none" stroke="orange" stroke-dasharray="5,2" d="M143.85,-140.21C166.07,-130.65 194.07,-119.65 220,-112.5 286.25,-94.24 362.78,-82.12 421.9,-74.63"/>
<polygon fill="orange" stroke="orange" points="142.16,-137.14 134.4,-144.35 144.96,-143.55 142.16,-137.14"/>
<text text-anchor="middle" x="312" y="-115.5" font-family="serif" font-size="10.00"> &lt; 2, SCHEME, INTERPOLATION &gt;</text>
</g>
<!-- Node7 -->
<g id="node7" class="node">
<title>Node7</title>
<g id="a_node7"><a xlink:href="classPotentialFunctions.html" target="_top" xlink:title=" ">
<polygon fill="none" stroke="black" points="422,-0.5 422,-30.5 619,-30.5 619,-0.5 422,-0.5"/>
<text text-anchor="start" x="430" y="-18.5" font-family="serif" font-size="10.00">PotentialFunctions</text>
<text text-anchor="middle" x="520.5" y="-7.5" font-family="serif" font-size="10.00">&lt; 1, SCHEME, INTERPOLATION &gt;</text>
</a>
</g>
</g>
<!-- Node1&#45;&gt;Node7 -->
<g id="edge6" class="edge">
<title>Node1&#45;&gt;Node7</title>
<path fill="none" stroke="orange" stroke-dasharray="5,2" d="M122.23,-136.95C144,-114.22 180.83,-80.08 220,-62.5 283.5,-34 361.33,-22.4 421.72,-17.85"/>
<polygon fill="orange" stroke="orange" points="119.47,-134.78 115.17,-144.46 124.57,-139.57 119.47,-134.78"/>
<text text-anchor="middle" x="312" y="-65.5" font-family="serif" font-size="10.00"> &lt; 1, SCHEME, INTERPOLATION &gt;</text>
</g>
</g>
</svg>
