<?xml version="1.0" encoding="UTF-8" standalone="no"?>
<!DOCTYPE svg PUBLIC "-//W3C//DTD SVG 1.1//EN"
 "http://www.w3.org/Graphics/SVG/1.1/DTD/svg11.dtd">
<!-- Generated by graphviz version 2.43.0 (0)
 -->
<!-- Title: Parameter::get_value Pages: 1 -->
<svg width="666pt" height="1597pt"
 viewBox="0.00 0.00 666.00 1597.00" xmlns="http://www.w3.org/2000/svg" xmlns:xlink="http://www.w3.org/1999/xlink">
<g id="graph0" class="graph" transform="scale(1 1) rotate(0) translate(4 1593)">
<title>Parameter::get_value</title>
<!-- Node1 -->
<g id="node1" class="node">
<title>Node1</title>
<g id="a_node1"><a xlink:title="Return the value of the paramter.">
<polygon fill="#bfbfbf" stroke="black" points="533,-814 533,-833 658,-833 658,-814 533,-814"/>
<text text-anchor="middle" x="595.5" y="-821" font-family="serif" font-size="10.00">Parameter::get_value</text>
</a>
</g>
</g>
<!-- Node2 -->
<g id="node2" class="node">
<title>Node2</title>
<g id="a_node2"><a xlink:href="classParameters.html#ae3b314c5ebc3fde8684b0634b2406da6" target="_top" xlink:title="Return the value of the parameter associated to the given name.">
<polygon fill="none" stroke="black" points="362,-808.5 362,-838.5 497,-838.5 497,-808.5 362,-808.5"/>
<text text-anchor="start" x="370" y="-826.5" font-family="serif" font-size="10.00">Parameters::get_param</text>
<text text-anchor="middle" x="429.5" y="-815.5" font-family="serif" font-size="10.00">_value</text>
</a>
</g>
</g>
<!-- Node1&#45;&gt;Node2 -->
<g id="edge1" class="edge">
<title>Node1&#45;&gt;Node2</title>
<path fill="none" stroke="midnightblue" d="M522.95,-823.5C514.35,-823.5 505.58,-823.5 497.05,-823.5"/>
<polygon fill="midnightblue" stroke="midnightblue" points="522.97,-827 532.97,-823.5 522.97,-820 522.97,-827"/>
</g>
<!-- Node37 -->
<g id="node37" class="node">
<title>Node37</title>
<g id="a_node37"><a xlink:href="classParameters.html#a857c53fbe60d7bd2f91e91626f85b6d2" target="_top" xlink:title="Return the value of the parameter associated to the given name or, use th edefault given,...">
<polygon fill="none" stroke="black" points="362,-1249.5 362,-1279.5 497,-1279.5 497,-1249.5 362,-1249.5"/>
<text text-anchor="start" x="370" y="-1267.5" font-family="serif" font-size="10.00">Parameters::get_param</text>
<text text-anchor="middle" x="429.5" y="-1256.5" font-family="serif" font-size="10.00">_value_or_default</text>
</a>
</g>
</g>
<!-- Node1&#45;&gt;Node37 -->
<g id="edge48" class="edge">
<title>Node1&#45;&gt;Node37</title>
<path fill="none" stroke="midnightblue" d="M587.41,-842.56C559.99,-916.3 461.15,-1182.08 436.23,-1249.08"/>
<polygon fill="midnightblue" stroke="midnightblue" points="590.72,-843.71 590.92,-833.12 584.16,-841.27 590.72,-843.71"/>
</g>
<!-- Node38 -->
<g id="node38" class="node">
<title>Node38</title>
<g id="a_node38"><a xlink:href="classParameter.html#ae6657615596b148b82d8a8be223a6620" target="_top" xlink:title="Print the value of the parameter.">
<polygon fill="none" stroke="black" points="379.5,-770 379.5,-789 479.5,-789 479.5,-770 379.5,-770"/>
<text text-anchor="middle" x="429.5" y="-777" font-family="serif" font-size="10.00">Parameter::print</text>
</a>
</g>
</g>
<!-- Node1&#45;&gt;Node38 -->
<g id="edge62" class="edge">
<title>Node1&#45;&gt;Node38</title>
<path fill="none" stroke="midnightblue" d="M549.2,-811.35C522.95,-804.3 490.39,-795.57 466.02,-789.03"/>
<polygon fill="midnightblue" stroke="midnightblue" points="548.35,-814.74 558.91,-813.95 550.16,-807.98 548.35,-814.74"/>
</g>
<!-- Node3 -->
<g id="node3" class="node">
<title>Node3</title>
<g id="a_node3"><a xlink:href="classSolverUMFPACK.html#a8a0cb7f36e9e9fa812fb45b23e39ab62" target="_top" xlink:title="Create a direct solver based of the SolverType and a list of Parameters.">
<polygon fill="none" stroke="black" points="176.5,-1225.5 176.5,-1255.5 316.5,-1255.5 316.5,-1225.5 176.5,-1225.5"/>
<text text-anchor="start" x="184.5" y="-1243.5" font-family="serif" font-size="10.00">SolverUMFPACK::create</text>
<text text-anchor="middle" x="246.5" y="-1232.5" font-family="serif" font-size="10.00">_solver</text>
</a>
</g>
</g>
<!-- Node2&#45;&gt;Node3 -->
<g id="edge2" class="edge">
<title>Node2&#45;&gt;Node3</title>
<path fill="none" stroke="midnightblue" d="M425.13,-848.95C414.27,-927.23 377.87,-1162.42 326,-1216.5 322.74,-1219.89 319.02,-1222.81 315.01,-1225.32"/>
<polygon fill="midnightblue" stroke="midnightblue" points="428.66,-848.96 426.54,-838.58 421.72,-848.01 428.66,-848.96"/>
</g>
<!-- Node5 -->
<g id="node5" class="node">
<title>Node5</title>
<g id="a_node5"><a xlink:href="classPrecondHypreILU.html#a9747a2d4154f14a83fb87b1f398973ff" target="_top" xlink:title="Create preconditioner based of the PreconditionerType and a list of Parameters.">
<polygon fill="none" stroke="black" points="173.5,-1176.5 173.5,-1206.5 319.5,-1206.5 319.5,-1176.5 173.5,-1176.5"/>
<text text-anchor="start" x="181.5" y="-1194.5" font-family="serif" font-size="10.00">PrecondHypreILU::create</text>
<text text-anchor="middle" x="246.5" y="-1183.5" font-family="serif" font-size="10.00">_solver</text>
</a>
</g>
</g>
<!-- Node2&#45;&gt;Node5 -->
<g id="edge4" class="edge">
<title>Node2&#45;&gt;Node5</title>
<path fill="none" stroke="midnightblue" d="M428.62,-848.93C427.5,-912.02 415.68,-1077.18 326,-1167.5 322.59,-1170.94 318.69,-1173.89 314.51,-1176.41"/>
<polygon fill="midnightblue" stroke="midnightblue" points="432.12,-848.74 428.72,-838.7 425.12,-848.67 432.12,-848.74"/>
</g>
<!-- Node6 -->
<g id="node6" class="node">
<title>Node6</title>
<g id="a_node6"><a xlink:href="classPrecondHypreSmoother.html#a1d685276c8db4a0c7c3acd12662fffd1" target="_top" xlink:title="Create preconditioner based of the PreconditionerType and a list of Parameters.">
<polygon fill="none" stroke="black" points="176.5,-1127.5 176.5,-1157.5 316.5,-1157.5 316.5,-1127.5 176.5,-1127.5"/>
<text text-anchor="start" x="184.5" y="-1145.5" font-family="serif" font-size="10.00">PrecondHypreSmoother</text>
<text text-anchor="middle" x="246.5" y="-1134.5" font-family="serif" font-size="10.00">::create_solver</text>
</a>
</g>
</g>
<!-- Node2&#45;&gt;Node6 -->
<g id="edge6" class="edge">
<title>Node2&#45;&gt;Node6</title>
<path fill="none" stroke="midnightblue" d="M427.15,-848.74C422.76,-905.32 404.17,-1043.22 326,-1118.5 322.41,-1121.96 318.33,-1124.92 313.97,-1127.46"/>
<polygon fill="midnightblue" stroke="midnightblue" points="430.66,-848.77 427.86,-838.55 423.68,-848.29 430.66,-848.77"/>
</g>
<!-- Node7 -->
<g id="node7" class="node">
<title>Node7</title>
<g id="a_node7"><a xlink:href="classPrecondHypreBoomerAMG.html#ae9b8748901ee350584a1c8e3b33eb0a6" target="_top" xlink:title="Create preconditioner based of the PreconditionerType and a list of Parameters.">
<polygon fill="none" stroke="black" points="168,-1078.5 168,-1108.5 325,-1108.5 325,-1078.5 168,-1078.5"/>
<text text-anchor="start" x="176" y="-1096.5" font-family="serif" font-size="10.00">PrecondHypreBoomerAMG</text>
<text text-anchor="middle" x="246.5" y="-1085.5" font-family="serif" font-size="10.00">::create_solver</text>
</a>
</g>
</g>
<!-- Node2&#45;&gt;Node7 -->
<g id="edge8" class="edge">
<title>Node2&#45;&gt;Node7</title>
<path fill="none" stroke="midnightblue" d="M425.12,-848.96C417.15,-898.68 392.61,-1009.12 326,-1069.5 322.2,-1072.95 317.91,-1075.9 313.36,-1078.42"/>
<polygon fill="midnightblue" stroke="midnightblue" points="428.62,-849.17 426.65,-838.76 421.7,-848.13 428.62,-849.17"/>
</g>
<!-- Node8 -->
<g id="node8" class="node">
<title>Node8</title>
<g id="a_node8"><a xlink:href="classPrecondHypreDiagScale.html#a99a26e0ad57569f0186c286191e591cc" target="_top" xlink:title="Create preconditioner based of the PreconditionerType and a list of Parameters.">
<polygon fill="none" stroke="black" points="175.5,-931.5 175.5,-961.5 317.5,-961.5 317.5,-931.5 175.5,-931.5"/>
<text text-anchor="start" x="183.5" y="-949.5" font-family="serif" font-size="10.00">PrecondHypreDiagScale</text>
<text text-anchor="middle" x="246.5" y="-938.5" font-family="serif" font-size="10.00">::create_solver</text>
</a>
</g>
</g>
<!-- Node2&#45;&gt;Node8 -->
<g id="edge10" class="edge">
<title>Node2&#45;&gt;Node8</title>
<path fill="none" stroke="midnightblue" d="M410.32,-846.51C391.46,-868.92 360.02,-902.46 326,-922.5 320.23,-925.9 313.93,-928.86 307.49,-931.43"/>
<polygon fill="midnightblue" stroke="midnightblue" points="413.25,-848.46 416.91,-838.52 407.85,-844.01 413.25,-848.46"/>
</g>
<!-- Node9 -->
<g id="node9" class="node">
<title>Node9</title>
<g id="a_node9"><a xlink:href="classSolverHyprePCG.html#a2122f479fde910c6a27b6f74bf750324" target="_top" xlink:title="Create a iterative solver based of the SolverType and a list of Parameters.">
<polygon fill="none" stroke="black" points="176,-1029.5 176,-1059.5 317,-1059.5 317,-1029.5 176,-1029.5"/>
<text text-anchor="start" x="184" y="-1047.5" font-family="serif" font-size="10.00">SolverHyprePCG::create</text>
<text text-anchor="middle" x="246.5" y="-1036.5" font-family="serif" font-size="10.00">_solver</text>
</a>
</g>
</g>
<!-- Node2&#45;&gt;Node9 -->
<g id="edge12" class="edge">
<title>Node2&#45;&gt;Node9</title>
<path fill="none" stroke="midnightblue" d="M422.29,-848.53C410.63,-890.35 381.49,-974.34 326,-1020.5 321.84,-1023.96 317.18,-1026.93 312.27,-1029.46"/>
<polygon fill="midnightblue" stroke="midnightblue" points="425.74,-849.19 424.95,-838.63 418.98,-847.38 425.74,-849.19"/>
</g>
<!-- Node10 -->
<g id="node10" class="node">
<title>Node10</title>
<g id="a_node10"><a xlink:href="classSolverHypreGMRES.html#ae8cd627c6a9dddb56c4ac48a134de7e0" target="_top" xlink:title="Create a iterative solver based of the SolverType and a list of Parameters.">
<polygon fill="none" stroke="black" points="167,-1558.5 167,-1588.5 326,-1588.5 326,-1558.5 167,-1558.5"/>
<text text-anchor="start" x="175" y="-1576.5" font-family="serif" font-size="10.00">SolverHypreGMRES::create</text>
<text text-anchor="middle" x="246.5" y="-1565.5" font-family="serif" font-size="10.00">_solver</text>
</a>
</g>
</g>
<!-- Node2&#45;&gt;Node10 -->
<g id="edge14" class="edge">
<title>Node2&#45;&gt;Node10</title>
<path fill="none" stroke="midnightblue" d="M424.1,-848.7C412.86,-913.55 382.55,-1091.53 362,-1240.5 352.55,-1308.98 370.27,-1496.41 326,-1549.5 323.17,-1552.89 319.88,-1555.82 316.27,-1558.33"/>
<polygon fill="midnightblue" stroke="midnightblue" points="427.59,-849.06 425.85,-838.61 420.69,-847.87 427.59,-849.06"/>
</g>
<!-- Node11 -->
<g id="node11" class="node">
<title>Node11</title>
<g id="a_node11"><a xlink:href="classSolverHypreFGMRES.html#a59a039f5afb942d01777103bad40c300" target="_top" xlink:title="Create a iterative solver based of the SolverType and a list of Parameters.">
<polygon fill="none" stroke="black" points="179.5,-1509.5 179.5,-1539.5 313.5,-1539.5 313.5,-1509.5 179.5,-1509.5"/>
<text text-anchor="start" x="187.5" y="-1527.5" font-family="serif" font-size="10.00">SolverHypreFGMRES::</text>
<text text-anchor="middle" x="246.5" y="-1516.5" font-family="serif" font-size="10.00">create_solver</text>
</a>
</g>
</g>
<!-- Node2&#45;&gt;Node11 -->
<g id="edge16" class="edge">
<title>Node2&#45;&gt;Node11</title>
<path fill="none" stroke="midnightblue" d="M424.29,-848.73C413.5,-913.64 384.16,-1091.76 362,-1240.5 353.41,-1298.19 363.84,-1456.11 326,-1500.5 322.49,-1504.62 318.29,-1508.05 313.68,-1510.9"/>
<polygon fill="midnightblue" stroke="midnightblue" points="427.78,-849.07 425.97,-838.63 420.88,-847.92 427.78,-849.07"/>
</g>
<!-- Node12 -->
<g id="node12" class="node">
<title>Node12</title>
<g id="a_node12"><a xlink:href="classSolverBICGSTAB.html#a555f9875dc6d8572bfc1ff0032635c6d" target="_top" xlink:title="Create a iterative solver based of the SolverType and a list of Parameters.">
<polygon fill="none" stroke="black" points="176,-1460.5 176,-1490.5 317,-1490.5 317,-1460.5 176,-1460.5"/>
<text text-anchor="start" x="184" y="-1478.5" font-family="serif" font-size="10.00">SolverBICGSTAB::create</text>
<text text-anchor="middle" x="246.5" y="-1467.5" font-family="serif" font-size="10.00">_solver</text>
</a>
</g>
</g>
<!-- Node2&#45;&gt;Node12 -->
<g id="edge18" class="edge">
<title>Node2&#45;&gt;Node12</title>
<path fill="none" stroke="midnightblue" d="M424.47,-848.78C405.79,-965.71 328.55,-1448.58 326,-1451.5 323,-1454.93 319.52,-1457.89 315.74,-1460.42"/>
<polygon fill="midnightblue" stroke="midnightblue" points="427.96,-849.06 426.09,-838.63 421.05,-847.96 427.96,-849.06"/>
</g>
<!-- Node13 -->
<g id="node13" class="node">
<title>Node13</title>
<g id="a_node13"><a xlink:href="classSolverMINRES.html#ae0ec160e28632f6538ec16fc476cd14b" target="_top" xlink:title=" ">
<polygon fill="none" stroke="black" points="181,-1411.5 181,-1441.5 312,-1441.5 312,-1411.5 181,-1411.5"/>
<text text-anchor="start" x="189" y="-1429.5" font-family="serif" font-size="10.00">SolverMINRES::create</text>
<text text-anchor="middle" x="246.5" y="-1418.5" font-family="serif" font-size="10.00">_solver</text>
</a>
</g>
</g>
<!-- Node2&#45;&gt;Node13 -->
<g id="edge20" class="edge">
<title>Node2&#45;&gt;Node13</title>
<path fill="none" stroke="midnightblue" d="M424.38,-848.81C406.4,-958.88 335.37,-1390.8 326,-1401.5 322.04,-1406.02 317.27,-1409.73 312.06,-1412.77"/>
<polygon fill="midnightblue" stroke="midnightblue" points="427.88,-849.08 426.04,-838.64 420.97,-847.95 427.88,-849.08"/>
</g>
<!-- Node14 -->
<g id="node14" class="node">
<title>Node14</title>
<g id="a_node14"><a xlink:href="classSolverCG.html#abb8abcd3768a748ab1c4cc366799e146" target="_top" xlink:title=" ">
<polygon fill="none" stroke="black" points="177.5,-1373 177.5,-1392 315.5,-1392 315.5,-1373 177.5,-1373"/>
<text text-anchor="middle" x="246.5" y="-1380" font-family="serif" font-size="10.00">SolverCG::create_solver</text>
</a>
</g>
</g>
<!-- Node2&#45;&gt;Node14 -->
<g id="edge22" class="edge">
<title>Node2&#45;&gt;Node14</title>
<path fill="none" stroke="midnightblue" d="M424.5,-848.67C407.87,-952.68 344.24,-1344.32 326,-1363.5 322.42,-1367.26 318.24,-1370.33 313.7,-1372.83"/>
<polygon fill="midnightblue" stroke="midnightblue" points="427.96,-849.17 426.08,-838.74 421.05,-848.07 427.96,-849.17"/>
</g>
<!-- Node15 -->
<g id="node15" class="node">
<title>Node15</title>
<g id="a_node15"><a xlink:href="classSolverGMRES.html#a7416f84035ad3da9e20adbda9ffd8c22" target="_top" xlink:title=" ">
<polygon fill="none" stroke="black" points="183,-1323.5 183,-1353.5 310,-1353.5 310,-1323.5 183,-1323.5"/>
<text text-anchor="start" x="191" y="-1341.5" font-family="serif" font-size="10.00">SolverGMRES::create</text>
<text text-anchor="middle" x="246.5" y="-1330.5" font-family="serif" font-size="10.00">_solver</text>
</a>
</g>
</g>
<!-- Node2&#45;&gt;Node15 -->
<g id="edge24" class="edge">
<title>Node2&#45;&gt;Node15</title>
<path fill="none" stroke="midnightblue" d="M424.77,-848.68C410.46,-944.03 358.19,-1279.24 326,-1314.5 321.48,-1319.45 315.98,-1323.39 310,-1326.52"/>
<polygon fill="midnightblue" stroke="midnightblue" points="428.27,-848.93 426.29,-838.52 421.35,-847.89 428.27,-848.93"/>
</g>
<!-- Node16 -->
<g id="node16" class="node">
<title>Node16</title>
<g id="a_node16"><a xlink:href="classNLSolverBase.html#a6454b04a9444bb6edb36bd417c1f681e" target="_top" xlink:title="Create non linear solver based of the NLSolverType and a list of Parameters.">
<polygon fill="none" stroke="black" points="183,-980.5 183,-1010.5 310,-1010.5 310,-980.5 183,-980.5"/>
<text text-anchor="start" x="191" y="-998.5" font-family="serif" font-size="10.00">NLSolverBase::create</text>
<text text-anchor="middle" x="246.5" y="-987.5" font-family="serif" font-size="10.00">_solver</text>
</a>
</g>
</g>
<!-- Node2&#45;&gt;Node16 -->
<g id="edge26" class="edge">
<title>Node2&#45;&gt;Node16</title>
<path fill="none" stroke="midnightblue" d="M417.93,-847.92C402.47,-880.79 370.6,-938.92 326,-971.5 321.17,-975.03 315.81,-978.05 310.22,-980.63"/>
<polygon fill="midnightblue" stroke="midnightblue" points="421.22,-849.13 422.2,-838.58 414.86,-846.22 421.22,-849.13"/>
</g>
<!-- Node17 -->
<g id="node17" class="node">
<title>Node17</title>
<g id="a_node17"><a xlink:href="classPrecondDSmoother.html#a04b157c452b242897c2e7e2fbdda790c" target="_top" xlink:title="Create preconditioner based of the PreconditionerType and a list of Parameters.">
<polygon fill="none" stroke="black" points="169.5,-1274.5 169.5,-1304.5 323.5,-1304.5 323.5,-1274.5 169.5,-1274.5"/>
<text text-anchor="start" x="177.5" y="-1292.5" font-family="serif" font-size="10.00">PrecondDSmoother::create</text>
<text text-anchor="middle" x="246.5" y="-1281.5" font-family="serif" font-size="10.00">_solver</text>
</a>
</g>
</g>
<!-- Node2&#45;&gt;Node17 -->
<g id="edge27" class="edge">
<title>Node2&#45;&gt;Node17</title>
<path fill="none" stroke="midnightblue" d="M425.94,-848.73C416.91,-933.08 383.87,-1203.5 326,-1265.5 322.79,-1268.94 319.1,-1271.89 315.12,-1274.42"/>
<polygon fill="midnightblue" stroke="midnightblue" points="429.45,-848.84 427.02,-838.52 422.49,-848.1 429.45,-848.84"/>
</g>
<!-- Node18 -->
<g id="node18" class="node">
<title>Node18</title>
<g id="a_node18"><a xlink:href="structConductivity__function_3_010_01_4.html#a64894d761a9a9614d9189bfe3ccf0f8e" target="_top" xlink:title="Get the Constant Conductivity fonction.">
<polygon fill="none" stroke="black" points="182.5,-833.5 182.5,-863.5 310.5,-863.5 310.5,-833.5 182.5,-833.5"/>
<text text-anchor="start" x="190.5" y="-851.5" font-family="serif" font-size="10.00">Conductivity_function</text>
<text text-anchor="middle" x="246.5" y="-840.5" font-family="serif" font-size="10.00">&lt; 0 &gt;::getConstant</text>
</a>
</g>
</g>
<!-- Node2&#45;&gt;Node18 -->
<g id="edge29" class="edge">
<title>Node2&#45;&gt;Node18</title>
<path fill="none" stroke="midnightblue" d="M351.95,-834.07C338.2,-835.97 324,-837.93 310.68,-839.77"/>
<polygon fill="midnightblue" stroke="midnightblue" points="352.45,-837.54 361.87,-832.7 351.49,-830.6 352.45,-837.54"/>
</g>
<!-- Node19 -->
<g id="node19" class="node">
<title>Node19</title>
<g id="a_node19"><a xlink:href="structdensity__function_3_010_01_4.html#aa791768b8896b3a4df83fdd8450b1328" target="_top" xlink:title="Get the Constant Density fonction.">
<polygon fill="none" stroke="black" points="187,-784.5 187,-814.5 306,-814.5 306,-784.5 187,-784.5"/>
<text text-anchor="start" x="195" y="-802.5" font-family="serif" font-size="10.00">density_function&lt; 0</text>
<text text-anchor="middle" x="246.5" y="-791.5" font-family="serif" font-size="10.00"> &gt;::getConstant</text>
</a>
</g>
</g>
<!-- Node2&#45;&gt;Node19 -->
<g id="edge30" class="edge">
<title>Node2&#45;&gt;Node19</title>
<path fill="none" stroke="midnightblue" d="M351.92,-813.35C336.63,-811.32 320.8,-809.22 306.22,-807.29"/>
<polygon fill="midnightblue" stroke="midnightblue" points="351.5,-816.82 361.87,-814.67 352.42,-809.88 351.5,-816.82"/>
</g>
<!-- Node20 -->
<g id="node20" class="node">
<title>Node20</title>
<g id="a_node20"><a xlink:href="structDiffusion__function_3_010_01_4.html#a2bcbc21bbcc07898e9cfa08b1fdb15f6" target="_top" xlink:title="Get the Constant Diffusion fonction.">
<polygon fill="none" stroke="black" points="190,-735.5 190,-765.5 303,-765.5 303,-735.5 190,-735.5"/>
<text text-anchor="start" x="198" y="-753.5" font-family="serif" font-size="10.00">Diffusion_function</text>
<text text-anchor="middle" x="246.5" y="-742.5" font-family="serif" font-size="10.00">&lt; 0 &gt;::getConstant</text>
</a>
</g>
</g>
<!-- Node2&#45;&gt;Node20 -->
<g id="edge31" class="edge">
<title>Node2&#45;&gt;Node20</title>
<path fill="none" stroke="midnightblue" d="M374.73,-804.4C370.37,-802.52 366.08,-800.54 362,-798.5 345.02,-790 343.19,-783.56 326,-775.5 318.23,-771.86 309.79,-768.55 301.42,-765.62"/>
<polygon fill="midnightblue" stroke="midnightblue" points="373.72,-807.77 384.3,-808.37 376.4,-801.31 373.72,-807.77"/>
</g>
<!-- Node21 -->
<g id="node21" class="node">
<title>Node21</title>
<g id="a_node21"><a xlink:href="structHeatCapacity__function_3_010_01_4.html#a2cdd5d30e85ec35ed34647d423682aaa" target="_top" xlink:title="Get the Constant HeatCapacity fonction.">
<polygon fill="none" stroke="black" points="180,-686.5 180,-716.5 313,-716.5 313,-686.5 180,-686.5"/>
<text text-anchor="start" x="188" y="-704.5" font-family="serif" font-size="10.00">HeatCapacity_function</text>
<text text-anchor="middle" x="246.5" y="-693.5" font-family="serif" font-size="10.00">&lt; 0 &gt;::getConstant</text>
</a>
</g>
</g>
<!-- Node2&#45;&gt;Node21 -->
<g id="edge32" class="edge">
<title>Node2&#45;&gt;Node21</title>
<path fill="none" stroke="midnightblue" d="M367.55,-802.95C365.61,-801.56 363.75,-800.08 362,-798.5 335.42,-774.55 353.18,-749.76 326,-726.5 321.44,-722.59 316.26,-719.3 310.79,-716.51"/>
<polygon fill="midnightblue" stroke="midnightblue" points="366.16,-806.2 376.51,-808.48 369.84,-800.25 366.16,-806.2"/>
</g>
<!-- Node22 -->
<g id="node22" class="node">
<title>Node22</title>
<g id="a_node22"><a xlink:href="structLambda__function_3_010_01_4.html#adec1b719917d9699d135430a8fbd9fc9" target="_top" xlink:title="Get the Constant Lambda fonction.">
<polygon fill="none" stroke="black" points="185,-637.5 185,-667.5 308,-667.5 308,-637.5 185,-637.5"/>
<text text-anchor="start" x="193" y="-655.5" font-family="serif" font-size="10.00">Lambda_function&lt; 0</text>
<text text-anchor="middle" x="246.5" y="-644.5" font-family="serif" font-size="10.00"> &gt;::getConstant</text>
</a>
</g>
</g>
<!-- Node2&#45;&gt;Node22 -->
<g id="edge33" class="edge">
<title>Node2&#45;&gt;Node22</title>
<path fill="none" stroke="midnightblue" d="M366.33,-802.62C364.8,-801.33 363.36,-799.95 362,-798.5 323.75,-757.45 365.29,-717.55 326,-677.5 320.89,-672.29 314.7,-668.17 308.07,-664.9"/>
<polygon fill="midnightblue" stroke="midnightblue" points="364.33,-805.49 374.51,-808.44 368.39,-799.79 364.33,-805.49"/>
</g>
<!-- Node23 -->
<g id="node23" class="node">
<title>Node23</title>
<g id="a_node23"><a xlink:href="structMobility__function_3_010_01_4.html#a8cb28fadccc6ec4a8fc4b3f905a4cf03" target="_top" xlink:title="Get the Constant Mobility fonction.">
<polygon fill="none" stroke="black" points="189.5,-588.5 189.5,-618.5 303.5,-618.5 303.5,-588.5 189.5,-588.5"/>
<text text-anchor="start" x="197.5" y="-606.5" font-family="serif" font-size="10.00">Mobility_function&lt;</text>
<text text-anchor="middle" x="246.5" y="-595.5" font-family="serif" font-size="10.00"> 0 &gt;::getConstant</text>
</a>
</g>
</g>
<!-- Node2&#45;&gt;Node23 -->
<g id="edge34" class="edge">
<title>Node2&#45;&gt;Node23</title>
<path fill="none" stroke="midnightblue" d="M365.27,-801.93C364.12,-800.84 363.03,-799.7 362,-798.5 311.66,-739.93 377.82,-685.76 326,-628.5 319.95,-621.82 312.13,-616.91 303.77,-613.31"/>
<polygon fill="midnightblue" stroke="midnightblue" points="363.5,-804.98 373.55,-808.33 367.78,-799.44 363.5,-804.98"/>
</g>
<!-- Node24 -->
<g id="node24" class="node">
<title>Node24</title>
<g id="a_node24"><a xlink:href="structOmega__function_3_010_01_4.html#aeafdab77ef11bd7f2e3d174fa6195ea0" target="_top" xlink:title="Get the Constant Omega fonction.">
<polygon fill="none" stroke="black" points="182,-539.5 182,-569.5 311,-569.5 311,-539.5 182,-539.5"/>
<text text-anchor="start" x="190" y="-557.5" font-family="serif" font-size="10.00">Omega_function&lt; 0 &gt;</text>
<text text-anchor="middle" x="246.5" y="-546.5" font-family="serif" font-size="10.00">::getConstant</text>
</a>
</g>
</g>
<!-- Node2&#45;&gt;Node24 -->
<g id="edge35" class="edge">
<title>Node2&#45;&gt;Node24</title>
<path fill="none" stroke="midnightblue" d="M365.2,-801.99C364.07,-800.88 363,-799.72 362,-798.5 299.44,-722.24 390.5,-654.13 326,-579.5 321.88,-574.74 316.87,-570.88 311.37,-567.74"/>
<polygon fill="midnightblue" stroke="midnightblue" points="363.36,-805 373.36,-808.49 367.72,-799.52 363.36,-805"/>
</g>
<!-- Node25 -->
<g id="node25" class="node">
<title>Node25</title>
<g id="a_node25"><a xlink:href="structMobility__function_3_010_01_4.html#a2e778c73c65357dadd37d9215c1783dc" target="_top" xlink:title="Get the Degenerated Mobility function.">
<polygon fill="none" stroke="black" points="183.5,-490.5 183.5,-520.5 309.5,-520.5 309.5,-490.5 183.5,-490.5"/>
<text text-anchor="start" x="191.5" y="-508.5" font-family="serif" font-size="10.00">Mobility_function&lt;</text>
<text text-anchor="middle" x="246.5" y="-497.5" font-family="serif" font-size="10.00"> 0 &gt;::getDegenerated</text>
</a>
</g>
</g>
<!-- Node2&#45;&gt;Node25 -->
<g id="edge36" class="edge">
<title>Node2&#45;&gt;Node25</title>
<path fill="none" stroke="midnightblue" d="M365.07,-801.95C363.99,-800.85 362.96,-799.71 362,-798.5 287.15,-704.48 403.24,-622.57 326,-530.5 321.5,-525.13 315.84,-520.9 309.64,-517.57"/>
<polygon fill="midnightblue" stroke="midnightblue" points="362.97,-804.76 372.93,-808.38 367.41,-799.34 362.97,-804.76"/>
</g>
<!-- Node26 -->
<g id="node26" class="node">
<title>Node26</title>
<g id="a_node26"><a xlink:href="structMobility__function_3_011_01_4.html#aac43cc7df2552a25a7ac5dda455729f1" target="_top" xlink:title="Get the Degenerated Mobility function (1st derivative)">
<polygon fill="none" stroke="black" points="183.5,-441.5 183.5,-471.5 309.5,-471.5 309.5,-441.5 183.5,-441.5"/>
<text text-anchor="start" x="191.5" y="-459.5" font-family="serif" font-size="10.00">Mobility_function&lt;</text>
<text text-anchor="middle" x="246.5" y="-448.5" font-family="serif" font-size="10.00"> 1 &gt;::getDegenerated</text>
</a>
</g>
</g>
<!-- Node2&#45;&gt;Node26 -->
<g id="edge37" class="edge">
<title>Node2&#45;&gt;Node26</title>
<path fill="none" stroke="midnightblue" d="M365.03,-801.97C363.96,-800.87 362.95,-799.72 362,-798.5 274.82,-686.67 416.01,-591.06 326,-481.5 321.55,-476.08 315.93,-471.83 309.75,-468.48"/>
<polygon fill="midnightblue" stroke="midnightblue" points="362.91,-804.76 372.84,-808.45 367.38,-799.37 362.91,-804.76"/>
</g>
<!-- Node27 -->
<g id="node27" class="node">
<title>Node27</title>
<g id="a_node27"><a xlink:href="structConductivity__function_3_010_01_4.html#ae9cf208a61efb9963804b726a4f75f3f" target="_top" xlink:title="Get the Linear Conductivity function.">
<polygon fill="none" stroke="black" points="182.5,-392.5 182.5,-422.5 310.5,-422.5 310.5,-392.5 182.5,-392.5"/>
<text text-anchor="start" x="190.5" y="-410.5" font-family="serif" font-size="10.00">Conductivity_function</text>
<text text-anchor="middle" x="246.5" y="-399.5" font-family="serif" font-size="10.00">&lt; 0 &gt;::getLinear</text>
</a>
</g>
</g>
<!-- Node2&#45;&gt;Node27 -->
<g id="edge38" class="edge">
<title>Node2&#45;&gt;Node27</title>
<path fill="none" stroke="midnightblue" d="M365.01,-801.99C363.94,-800.89 362.94,-799.72 362,-798.5 262.48,-668.84 428.81,-559.57 326,-432.5 321.77,-427.27 316.45,-423.12 310.58,-419.83"/>
<polygon fill="midnightblue" stroke="midnightblue" points="362.86,-804.76 372.78,-808.5 367.36,-799.4 362.86,-804.76"/>
</g>
<!-- Node28 -->
<g id="node28" class="node">
<title>Node28</title>
<g id="a_node28"><a xlink:href="structConductivity__function_3_011_01_4.html#a50409603dfa580623320411ab9d60e3c" target="_top" xlink:title="Get the Linear Conductivity function (1st derivative)">
<polygon fill="none" stroke="black" points="182.5,-343.5 182.5,-373.5 310.5,-373.5 310.5,-343.5 182.5,-343.5"/>
<text text-anchor="start" x="190.5" y="-361.5" font-family="serif" font-size="10.00">Conductivity_function</text>
<text text-anchor="middle" x="246.5" y="-350.5" font-family="serif" font-size="10.00">&lt; 1 &gt;::getLinear</text>
</a>
</g>
</g>
<!-- Node2&#45;&gt;Node28 -->
<g id="edge39" class="edge">
<title>Node2&#45;&gt;Node28</title>
<path fill="none" stroke="midnightblue" d="M364.6,-801.6C363.69,-800.61 362.82,-799.58 362,-798.5 306.06,-724.74 383.81,-455.8 326,-383.5 321.8,-378.25 316.5,-374.08 310.64,-370.78"/>
<polygon fill="midnightblue" stroke="midnightblue" points="362.56,-804.46 372.43,-808.33 367.13,-799.15 362.56,-804.46"/>
</g>
<!-- Node29 -->
<g id="node29" class="node">
<title>Node29</title>
<g id="a_node29"><a xlink:href="structdensity__function_3_010_01_4.html#ac866f44084c6a8dd3d35840251954a1b" target="_top" xlink:title="Get the Linear Density function.">
<polygon fill="none" stroke="black" points="187,-294.5 187,-324.5 306,-324.5 306,-294.5 187,-294.5"/>
<text text-anchor="start" x="195" y="-312.5" font-family="serif" font-size="10.00">density_function&lt; 0</text>
<text text-anchor="middle" x="246.5" y="-301.5" font-family="serif" font-size="10.00"> &gt;::getLinear</text>
</a>
</g>
</g>
<!-- Node2&#45;&gt;Node29 -->
<g id="edge40" class="edge">
<title>Node2&#45;&gt;Node29</title>
<path fill="none" stroke="midnightblue" d="M364.59,-801.61C363.68,-800.62 362.81,-799.58 362,-798.5 299.88,-715.81 390.22,-415.57 326,-334.5 320.76,-327.89 313.77,-322.99 306.1,-319.38"/>
<polygon fill="midnightblue" stroke="midnightblue" points="362.54,-804.46 372.39,-808.35 367.12,-799.16 362.54,-804.46"/>
</g>
<!-- Node30 -->
<g id="node30" class="node">
<title>Node30</title>
<g id="a_node30"><a xlink:href="structdensity__function_3_011_01_4.html#aeb402a4aa2fd897aeb520e2913e20611" target="_top" xlink:title="Get the Linear Density function (1st derivative)">
<polygon fill="none" stroke="black" points="187,-245.5 187,-275.5 306,-275.5 306,-245.5 187,-245.5"/>
<text text-anchor="start" x="195" y="-263.5" font-family="serif" font-size="10.00">density_function&lt; 1</text>
<text text-anchor="middle" x="246.5" y="-252.5" font-family="serif" font-size="10.00"> &gt;::getLinear</text>
</a>
</g>
</g>
<!-- Node2&#45;&gt;Node30 -->
<g id="edge41" class="edge">
<title>Node2&#45;&gt;Node30</title>
<path fill="none" stroke="midnightblue" d="M364.58,-801.61C363.67,-800.62 362.81,-799.58 362,-798.5 293.69,-706.88 396.63,-375.34 326,-285.5 320.78,-278.87 313.8,-273.96 306.15,-270.34"/>
<polygon fill="midnightblue" stroke="midnightblue" points="362.51,-804.46 372.36,-808.38 367.11,-799.17 362.51,-804.46"/>
</g>
<!-- Node31 -->
<g id="node31" class="node">
<title>Node31</title>
<g id="a_node31"><a xlink:href="structDiffusion__function_3_010_01_4.html#a5803dac7dc081ef4c511570426dd469e" target="_top" xlink:title="Get the Linear Diffusion function.">
<polygon fill="none" stroke="black" points="191.5,-196.5 191.5,-226.5 301.5,-226.5 301.5,-196.5 191.5,-196.5"/>
<text text-anchor="start" x="199.5" y="-214.5" font-family="serif" font-size="10.00">Diffusion_function</text>
<text text-anchor="middle" x="246.5" y="-203.5" font-family="serif" font-size="10.00">&lt; 0 &gt;::getLinear</text>
</a>
</g>
</g>
<!-- Node2&#45;&gt;Node31 -->
<g id="edge42" class="edge">
<title>Node2&#45;&gt;Node31</title>
<path fill="none" stroke="midnightblue" d="M364.57,-801.62C363.66,-800.63 362.81,-799.59 362,-798.5 287.51,-697.94 403.05,-335.12 326,-236.5 319.84,-228.61 311.17,-223.17 301.84,-219.42"/>
<polygon fill="midnightblue" stroke="midnightblue" points="362.5,-804.46 372.33,-808.4 367.1,-799.18 362.5,-804.46"/>
</g>
<!-- Node32 -->
<g id="node32" class="node">
<title>Node32</title>
<g id="a_node32"><a xlink:href="structDiffusion__function_3_011_01_4.html#a1460eeef7dc13b5aeafefbb1ccd7336c" target="_top" xlink:title="Get the Linear Diffusion function (1st derivative)">
<polygon fill="none" stroke="black" points="191.5,-147.5 191.5,-177.5 301.5,-177.5 301.5,-147.5 191.5,-147.5"/>
<text text-anchor="start" x="199.5" y="-165.5" font-family="serif" font-size="10.00">Diffusion_function</text>
<text text-anchor="middle" x="246.5" y="-154.5" font-family="serif" font-size="10.00">&lt; 1 &gt;::getLinear</text>
</a>
</g>
</g>
<!-- Node2&#45;&gt;Node32 -->
<g id="edge43" class="edge">
<title>Node2&#45;&gt;Node32</title>
<path fill="none" stroke="midnightblue" d="M364.56,-801.63C363.66,-800.63 362.8,-799.59 362,-798.5 281.32,-689 409.46,-294.89 326,-187.5 319.86,-179.59 311.2,-174.14 301.87,-170.4"/>
<polygon fill="midnightblue" stroke="midnightblue" points="362.48,-804.46 372.31,-808.41 367.09,-799.19 362.48,-804.46"/>
</g>
<!-- Node33 -->
<g id="node33" class="node">
<title>Node33</title>
<g id="a_node33"><a xlink:href="structHeatCapacity__function_3_010_01_4.html#ad58cc69a2432c6b271182ff90f4ecb59" target="_top" xlink:title="Get the Linear HeatCapacity function.">
<polygon fill="none" stroke="black" points="180,-98.5 180,-128.5 313,-128.5 313,-98.5 180,-98.5"/>
<text text-anchor="start" x="188" y="-116.5" font-family="serif" font-size="10.00">HeatCapacity_function</text>
<text text-anchor="middle" x="246.5" y="-105.5" font-family="serif" font-size="10.00">&lt; 0 &gt;::getLinear</text>
</a>
</g>
</g>
<!-- Node2&#45;&gt;Node33 -->
<g id="edge44" class="edge">
<title>Node2&#45;&gt;Node33</title>
<path fill="none" stroke="midnightblue" d="M364.55,-801.63C363.65,-800.63 362.8,-799.59 362,-798.5 275.13,-680.06 415.88,-254.67 326,-138.5 322.41,-133.86 317.96,-130.07 313.01,-126.97"/>
<polygon fill="midnightblue" stroke="midnightblue" points="362.47,-804.46 372.29,-808.42 367.09,-799.2 362.47,-804.46"/>
</g>
<!-- Node34 -->
<g id="node34" class="node">
<title>Node34</title>
<g id="a_node34"><a xlink:href="structHeatCapacity__function_3_011_01_4.html#a7557e9b579a6d09c337d0fca11fa184d" target="_top" xlink:title="Get the Linear HeatCapacity function (1st derivative)">
<polygon fill="none" stroke="black" points="180,-49.5 180,-79.5 313,-79.5 313,-49.5 180,-49.5"/>
<text text-anchor="start" x="188" y="-67.5" font-family="serif" font-size="10.00">HeatCapacity_function</text>
<text text-anchor="middle" x="246.5" y="-56.5" font-family="serif" font-size="10.00">&lt; 1 &gt;::getLinear</text>
</a>
</g>
</g>
<!-- Node2&#45;&gt;Node34 -->
<g id="edge45" class="edge">
<title>Node2&#45;&gt;Node34</title>
<path fill="none" stroke="midnightblue" d="M364.55,-801.64C363.65,-800.64 362.8,-799.59 362,-798.5 268.93,-671.12 422.3,-214.46 326,-89.5 322.42,-84.86 317.97,-81.06 313.03,-77.95"/>
<polygon fill="midnightblue" stroke="midnightblue" points="362.46,-804.46 372.28,-808.44 367.08,-799.2 362.46,-804.46"/>
</g>
<!-- Node35 -->
<g id="node35" class="node">
<title>Node35</title>
<g id="a_node35"><a xlink:href="structDiffusion__function_3_010_01_4.html#a5cd119674e65b6f208350ee6bf8c1cfa" target="_top" xlink:title="Get the Constant Diffusion fonction.">
<polygon fill="none" stroke="black" points="191.5,-0.5 191.5,-30.5 301.5,-30.5 301.5,-0.5 191.5,-0.5"/>
<text text-anchor="start" x="199.5" y="-18.5" font-family="serif" font-size="10.00">Diffusion_function</text>
<text text-anchor="middle" x="246.5" y="-7.5" font-family="serif" font-size="10.00">&lt; 0 &gt;::getLog</text>
</a>
</g>
</g>
<!-- Node2&#45;&gt;Node35 -->
<g id="edge46" class="edge">
<title>Node2&#45;&gt;Node35</title>
<path fill="none" stroke="midnightblue" d="M364.54,-801.64C363.65,-800.64 362.8,-799.59 362,-798.5 262.61,-661.99 429.63,-172.82 326,-39.5 319.79,-31.51 310.99,-26.11 301.51,-22.47"/>
<polygon fill="midnightblue" stroke="midnightblue" points="362.45,-804.46 372.26,-808.45 367.08,-799.21 362.45,-804.46"/>
</g>
<!-- Node36 -->
<g id="node36" class="node">
<title>Node36</title>
<g id="a_node36"><a xlink:href="structDiffusion__function_3_011_01_4.html#a0f9d1bad4545478f2efa41395a02a04f" target="_top" xlink:title="Get the Log Diffusion function (1st derivative)">
<polygon fill="none" stroke="black" points="191.5,-882.5 191.5,-912.5 301.5,-912.5 301.5,-882.5 191.5,-882.5"/>
<text text-anchor="start" x="199.5" y="-900.5" font-family="serif" font-size="10.00">Diffusion_function</text>
<text text-anchor="middle" x="246.5" y="-889.5" font-family="serif" font-size="10.00">&lt; 1 &gt;::getLog</text>
</a>
</g>
</g>
<!-- Node2&#45;&gt;Node36 -->
<g id="edge47" class="edge">
<title>Node2&#45;&gt;Node36</title>
<path fill="none" stroke="midnightblue" d="M391.73,-843.18C372.48,-853.04 348.32,-864.71 326,-873.5 317.91,-876.69 309.22,-879.72 300.67,-882.48"/>
<polygon fill="midnightblue" stroke="midnightblue" points="393.48,-846.21 400.76,-838.51 390.27,-840 393.48,-846.21"/>
</g>
<!-- Node4 -->
<g id="node4" class="node">
<title>Node4</title>
<g id="a_node4"><a xlink:href="classSlothSolver.html#aa9c78d816c02f2d4ab70af64cb3f7791" target="_top" xlink:title="Create the linear solver depending on SolverType.">
<polygon fill="none" stroke="black" points="0,-1280 0,-1299 131,-1299 131,-1280 0,-1280"/>
<text text-anchor="middle" x="65.5" y="-1287" font-family="serif" font-size="10.00">SlothSolver::get_value</text>
</a>
</g>
</g>
<!-- Node3&#45;&gt;Node4 -->
<g id="edge3" class="edge">
<title>Node3&#45;&gt;Node4</title>
<path fill="none" stroke="midnightblue" d="M180.61,-1258.26C153.77,-1265.61 123.73,-1273.83 101.21,-1280"/>
<polygon fill="midnightblue" stroke="midnightblue" points="181.61,-1261.62 190.33,-1255.6 179.76,-1254.87 181.61,-1261.62"/>
</g>
<!-- Node5&#45;&gt;Node4 -->
<g id="edge5" class="edge">
<title>Node5&#45;&gt;Node4</title>
<path fill="none" stroke="midnightblue" d="M181.13,-1210.12C176.27,-1212.09 171.51,-1214.22 167,-1216.5 131.4,-1234.51 94.77,-1264.61 77.19,-1279.92"/>
<polygon fill="midnightblue" stroke="midnightblue" points="182.46,-1213.36 190.55,-1206.51 179.96,-1206.82 182.46,-1213.36"/>
</g>
<!-- Node6&#45;&gt;Node4 -->
<g id="edge7" class="edge">
<title>Node6&#45;&gt;Node4</title>
<path fill="none" stroke="midnightblue" d="M176.24,-1161.99C173.03,-1163.68 169.93,-1165.52 167,-1167.5 120.87,-1198.73 84.7,-1257.14 71.71,-1279.99"/>
<polygon fill="midnightblue" stroke="midnightblue" points="177.98,-1165.03 185.5,-1157.57 174.97,-1158.71 177.98,-1165.03"/>
</g>
<!-- Node7&#45;&gt;Node4 -->
<g id="edge9" class="edge">
<title>Node7&#45;&gt;Node4</title>
<path fill="none" stroke="midnightblue" d="M174.12,-1113.48C171.64,-1115.03 169.25,-1116.7 167,-1118.5 110.22,-1163.84 78.77,-1250.61 69.46,-1279.71"/>
<polygon fill="midnightblue" stroke="midnightblue" points="175.81,-1116.54 182.88,-1108.65 172.43,-1110.41 175.81,-1116.54"/>
</g>
<!-- Node8&#45;&gt;Node4 -->
<g id="edge11" class="edge">
<title>Node8&#45;&gt;Node4</title>
<path fill="none" stroke="midnightblue" d="M171.55,-967.42C169.96,-968.7 168.44,-970.06 167,-971.5 75.6,-1063.11 67.19,-1237.14 66.53,-1279.85"/>
<polygon fill="midnightblue" stroke="midnightblue" points="173.74,-970.17 180.03,-961.64 169.79,-964.38 173.74,-970.17"/>
</g>
<!-- Node9&#45;&gt;Node4 -->
<g id="edge13" class="edge">
<title>Node9&#45;&gt;Node4</title>
<path fill="none" stroke="midnightblue" d="M173.08,-1064.73C170.96,-1066.21 168.92,-1067.8 167,-1069.5 98.81,-1129.95 74.01,-1245.99 68.04,-1279.95"/>
<polygon fill="midnightblue" stroke="midnightblue" points="174.92,-1067.71 181.68,-1059.55 171.31,-1061.72 174.92,-1067.71"/>
</g>
<!-- Node10&#45;&gt;Node4 -->
<g id="edge15" class="edge">
<title>Node10&#45;&gt;Node4</title>
<path fill="none" stroke="midnightblue" d="M170.55,-1552.55C169.33,-1551.58 168.14,-1550.56 167,-1549.5 89.05,-1476.98 70.86,-1337.09 67.28,-1299.18"/>
<polygon fill="midnightblue" stroke="midnightblue" points="168.91,-1555.66 179.17,-1558.32 172.81,-1549.84 168.91,-1555.66"/>
</g>
<!-- Node11&#45;&gt;Node4 -->
<g id="edge17" class="edge">
<title>Node11&#45;&gt;Node4</title>
<path fill="none" stroke="midnightblue" d="M171.69,-1504.17C170.06,-1503.01 168.5,-1501.79 167,-1500.5 100.62,-1443.27 74.71,-1332.4 68.23,-1299.15"/>
<polygon fill="midnightblue" stroke="midnightblue" points="169.86,-1507.16 180.21,-1509.42 173.53,-1501.2 169.86,-1507.16"/>
</g>
<!-- Node12&#45;&gt;Node4 -->
<g id="edge19" class="edge">
<title>Node12&#45;&gt;Node4</title>
<path fill="none" stroke="midnightblue" d="M172.59,-1455.4C170.66,-1454.18 168.79,-1452.88 167,-1451.5 111.93,-1409.1 79.58,-1327.25 69.73,-1299.2"/>
<polygon fill="midnightblue" stroke="midnightblue" points="170.96,-1458.5 181.4,-1460.31 174.37,-1452.39 170.96,-1458.5"/>
</g>
<!-- Node13&#45;&gt;Node4 -->
<g id="edge21" class="edge">
<title>Node13&#45;&gt;Node4</title>
<path fill="none" stroke="midnightblue" d="M176.84,-1407.12C173.43,-1405.39 170.13,-1403.52 167,-1401.5 123.12,-1373.13 86.46,-1320.73 72.52,-1299.16"/>
<polygon fill="midnightblue" stroke="midnightblue" points="175.52,-1410.36 186.07,-1411.36 178.45,-1404 175.52,-1410.36"/>
</g>
<!-- Node14&#45;&gt;Node4 -->
<g id="edge23" class="edge">
<title>Node14&#45;&gt;Node4</title>
<path fill="none" stroke="midnightblue" d="M183.69,-1370.03C177.94,-1368.13 172.29,-1365.97 167,-1363.5 130.47,-1346.48 93.97,-1315.13 76.74,-1299.25"/>
<polygon fill="midnightblue" stroke="midnightblue" points="182.82,-1373.43 193.41,-1372.98 184.86,-1366.73 182.82,-1373.43"/>
</g>
<!-- Node15&#45;&gt;Node4 -->
<g id="edge25" class="edge">
<title>Node15&#45;&gt;Node4</title>
<path fill="none" stroke="midnightblue" d="M180.61,-1320.74C153.77,-1313.39 123.73,-1305.17 101.21,-1299"/>
<polygon fill="midnightblue" stroke="midnightblue" points="179.76,-1324.13 190.33,-1323.4 181.61,-1317.38 179.76,-1324.13"/>
</g>
<!-- Node17&#45;&gt;Node4 -->
<g id="edge28" class="edge">
<title>Node17&#45;&gt;Node4</title>
<path fill="none" stroke="midnightblue" d="M159.11,-1289.5C149.66,-1289.5 140.16,-1289.5 131.04,-1289.5"/>
<polygon fill="midnightblue" stroke="midnightblue" points="159.33,-1293 169.33,-1289.5 159.33,-1286 159.33,-1293"/>
</g>
<!-- Node37&#45;&gt;Node3 -->
<g id="edge49" class="edge">
<title>Node37&#45;&gt;Node3</title>
<path fill="none" stroke="midnightblue" d="M351.75,-1254.32C340.12,-1252.78 328.18,-1251.2 316.72,-1249.68"/>
<polygon fill="midnightblue" stroke="midnightblue" points="351.5,-1257.82 361.87,-1255.67 352.42,-1250.88 351.5,-1257.82"/>
</g>
<!-- Node37&#45;&gt;Node5 -->
<g id="edge50" class="edge">
<title>Node37&#45;&gt;Node5</title>
<path fill="none" stroke="midnightblue" d="M389.69,-1244.87C370.74,-1235.66 347.44,-1224.9 326,-1216.5 317.08,-1213.01 307.45,-1209.63 298.09,-1206.55"/>
<polygon fill="midnightblue" stroke="midnightblue" points="388.38,-1248.13 398.9,-1249.39 391.46,-1241.84 388.38,-1248.13"/>
</g>
<!-- Node37&#45;&gt;Node6 -->
<g id="edge51" class="edge">
<title>Node37&#45;&gt;Node6</title>
<path fill="none" stroke="midnightblue" d="M409.54,-1241.32C390.5,-1219.44 359.3,-1187.15 326,-1167.5 319.59,-1163.72 312.55,-1160.44 305.4,-1157.62"/>
<polygon fill="midnightblue" stroke="midnightblue" points="407.06,-1243.81 416.21,-1249.14 412.38,-1239.27 407.06,-1243.81"/>
</g>
<!-- Node37&#45;&gt;Node7 -->
<g id="edge52" class="edge">
<title>Node37&#45;&gt;Node7</title>
<path fill="none" stroke="midnightblue" d="M417.55,-1239.99C401.84,-1207.55 369.88,-1150.73 326,-1118.5 320.7,-1114.61 314.77,-1111.3 308.6,-1108.51"/>
<polygon fill="midnightblue" stroke="midnightblue" points="414.47,-1241.66 421.9,-1249.22 420.8,-1238.68 414.47,-1241.66"/>
</g>
<!-- Node37&#45;&gt;Node9 -->
<g id="edge53" class="edge">
<title>Node37&#45;&gt;Node9</title>
<path fill="none" stroke="midnightblue" d="M422.07,-1239.48C410.16,-1198.09 380.74,-1115.38 326,-1069.5 321.4,-1065.64 316.19,-1062.38 310.7,-1059.61"/>
<polygon fill="midnightblue" stroke="midnightblue" points="418.75,-1240.6 424.79,-1249.3 425.5,-1238.73 418.75,-1240.6"/>
</g>
<!-- Node37&#45;&gt;Node10 -->
<g id="edge54" class="edge">
<title>Node37&#45;&gt;Node10</title>
<path fill="none" stroke="midnightblue" d="M426.77,-1290.03C421.64,-1345.41 401.69,-1477.4 326,-1549.5 322.39,-1552.94 318.3,-1555.89 313.92,-1558.41"/>
<polygon fill="midnightblue" stroke="midnightblue" points="430.29,-1289.97 427.64,-1279.71 423.31,-1289.39 430.29,-1289.97"/>
</g>
<!-- Node37&#45;&gt;Node11 -->
<g id="edge55" class="edge">
<title>Node37&#45;&gt;Node11</title>
<path fill="none" stroke="midnightblue" d="M424.67,-1289.63C416.01,-1337.69 390.43,-1442.97 326,-1500.5 322.17,-1503.92 317.87,-1506.85 313.3,-1509.36"/>
<polygon fill="midnightblue" stroke="midnightblue" points="428.12,-1290.2 426.35,-1279.75 421.22,-1289.02 428.12,-1290.2"/>
</g>
<!-- Node37&#45;&gt;Node12 -->
<g id="edge56" class="edge">
<title>Node37&#45;&gt;Node12</title>
<path fill="none" stroke="midnightblue" d="M421.57,-1289.42C409.14,-1329.5 379.25,-1408.17 326,-1451.5 321.8,-1454.92 317.12,-1457.85 312.19,-1460.37"/>
<polygon fill="midnightblue" stroke="midnightblue" points="424.98,-1290.23 424.48,-1279.65 418.27,-1288.23 424.98,-1290.23"/>
</g>
<!-- Node37&#45;&gt;Node13 -->
<g id="edge57" class="edge">
<title>Node37&#45;&gt;Node13</title>
<path fill="none" stroke="midnightblue" d="M416.44,-1288.84C400.05,-1319.47 367.93,-1371.67 326,-1401.5 320.64,-1405.31 314.67,-1408.56 308.48,-1411.33"/>
<polygon fill="midnightblue" stroke="midnightblue" points="419.68,-1290.19 421.2,-1279.71 413.47,-1286.96 419.68,-1290.19"/>
</g>
<!-- Node37&#45;&gt;Node14 -->
<g id="edge58" class="edge">
<title>Node37&#45;&gt;Node14</title>
<path fill="none" stroke="midnightblue" d="M410.81,-1287.64C392.18,-1310.39 360.75,-1344.39 326,-1363.5 319,-1367.35 311.22,-1370.43 303.36,-1372.89"/>
<polygon fill="midnightblue" stroke="midnightblue" points="413.56,-1289.81 417.08,-1279.82 408.1,-1285.44 413.56,-1289.81"/>
</g>
<!-- Node37&#45;&gt;Node15 -->
<g id="edge59" class="edge">
<title>Node37&#45;&gt;Node15</title>
<path fill="none" stroke="midnightblue" d="M391.73,-1284.18C372.48,-1294.04 348.32,-1305.71 326,-1314.5 317.91,-1317.69 309.22,-1320.72 300.67,-1323.48"/>
<polygon fill="midnightblue" stroke="midnightblue" points="393.48,-1287.21 400.76,-1279.51 390.27,-1281 393.48,-1287.21"/>
</g>
<!-- Node37&#45;&gt;Node16 -->
<g id="edge60" class="edge">
<title>Node37&#45;&gt;Node16</title>
<path fill="none" stroke="midnightblue" d="M424.99,-1239.31C416.81,-1190.1 391.89,-1080.75 326,-1020.5 321.36,-1016.25 315.99,-1012.73 310.28,-1009.8"/>
<polygon fill="midnightblue" stroke="midnightblue" points="421.56,-1240.06 426.57,-1249.4 428.48,-1238.98 421.56,-1240.06"/>
</g>
<!-- Node37&#45;&gt;Node17 -->
<g id="edge61" class="edge">
<title>Node37&#45;&gt;Node17</title>
<path fill="none" stroke="midnightblue" d="M351.88,-1275.08C342.57,-1276.37 333.07,-1277.68 323.77,-1278.97"/>
<polygon fill="midnightblue" stroke="midnightblue" points="352.45,-1278.54 361.87,-1273.7 351.49,-1271.6 352.45,-1278.54"/>
</g>
</g>
</svg>
