<?xml version="1.0" encoding="UTF-8" standalone="no"?>
<!DOCTYPE svg PUBLIC "-//W3C//DTD SVG 1.1//EN"
 "http://www.w3.org/Graphics/SVG/1.1/DTD/svg11.dtd">
<!-- Generated by graphviz version 2.43.0 (0)
 -->
<!-- Title: SolverCG::create_solver Pages: 1 -->
<svg width="543pt" height="187pt"
 viewBox="0.00 0.00 543.00 186.50" xmlns="http://www.w3.org/2000/svg" xmlns:xlink="http://www.w3.org/1999/xlink">
<g id="graph0" class="graph" transform="scale(1 1) rotate(0) translate(4 182.5)">
<title>SolverCG::create_solver</title>
<!-- Node1 -->
<g id="node1" class="node">
<title>Node1</title>
<g id="a_node1"><a xlink:title=" ">
<polygon fill="#bfbfbf" stroke="black" points="0,-82 0,-101 138,-101 138,-82 0,-82"/>
<text text-anchor="middle" x="69" y="-89" font-family="serif" font-size="10.00">SolverCG::create_solver</text>
</a>
</g>
</g>
<!-- Node2 -->
<g id="node2" class="node">
<title>Node2</title>
<g id="a_node2"><a xlink:href="classSlothInfo.html#a854d3cafdb9f5a77f1063a27d2a27e04" target="_top" xlink:title="Print information on Debug mode.">
<polygon fill="none" stroke="black" points="208,-159 208,-178 310,-178 310,-159 208,-159"/>
<text text-anchor="middle" x="259" y="-166" font-family="serif" font-size="10.00">SlothInfo::debug</text>
</a>
</g>
</g>
<!-- Node1&#45;&gt;Node2 -->
<g id="edge1" class="edge">
<title>Node1&#45;&gt;Node2</title>
<path fill="none" stroke="midnightblue" d="M84.17,-101.14C103.61,-113.96 140.02,-136.49 174,-149.5 181.64,-152.43 189.86,-154.97 198.05,-157.16"/>
<polygon fill="midnightblue" stroke="midnightblue" points="197.45,-160.62 208,-159.66 199.15,-153.83 197.45,-160.62"/>
</g>
<!-- Node3 -->
<g id="node3" class="node">
<title>Node3</title>
<g id="a_node3"><a xlink:href="classSolverBase.html#a52edc30e08c2552f8ceb3d9ea928b059" target="_top" xlink:title=" ">
<polygon fill="none" stroke="black" points="174,-99 174,-140 344,-140 344,-99 174,-99"/>
<text text-anchor="start" x="182" y="-128" font-family="serif" font-size="10.00">SolverBase&lt; mfem::CGSolver,</text>
<text text-anchor="start" x="182" y="-117" font-family="serif" font-size="10.00"> IterativeSolverType &gt;::</text>
<text text-anchor="middle" x="259" y="-106" font-family="serif" font-size="10.00">get_description</text>
</a>
</g>
</g>
<!-- Node1&#45;&gt;Node3 -->
<g id="edge2" class="edge">
<title>Node1&#45;&gt;Node3</title>
<path fill="none" stroke="midnightblue" d="M133.91,-101.02C143.57,-102.46 153.7,-103.97 163.84,-105.48"/>
<polygon fill="midnightblue" stroke="midnightblue" points="163.55,-108.97 173.96,-106.98 164.59,-102.05 163.55,-108.97"/>
</g>
<!-- Node4 -->
<g id="node4" class="node">
<title>Node4</title>
<g id="a_node4"><a xlink:href="classParameters.html#ae3b314c5ebc3fde8684b0634b2406da6" target="_top" xlink:title="Return the value of the parameter associated to the given name.">
<polygon fill="none" stroke="black" points="191.5,-49.5 191.5,-79.5 326.5,-79.5 326.5,-49.5 191.5,-49.5"/>
<text text-anchor="start" x="199.5" y="-67.5" font-family="serif" font-size="10.00">Parameters::get_param</text>
<text text-anchor="middle" x="259" y="-56.5" font-family="serif" font-size="10.00">_value</text>
</a>
</g>
</g>
<!-- Node1&#45;&gt;Node4 -->
<g id="edge3" class="edge">
<title>Node1&#45;&gt;Node4</title>
<path fill="none" stroke="midnightblue" d="M136.28,-81.98C150.8,-79.9 166.28,-77.67 181.17,-75.53"/>
<polygon fill="midnightblue" stroke="midnightblue" points="181.96,-78.96 191.37,-74.07 180.97,-72.03 181.96,-78.96"/>
</g>
<!-- Node7 -->
<g id="node7" class="node">
<title>Node7</title>
<g id="a_node7"><a xlink:href="classParameters.html#a857c53fbe60d7bd2f91e91626f85b6d2" target="_top" xlink:title="Return the value of the parameter associated to the given name or, use th edefault given,...">
<polygon fill="none" stroke="black" points="191.5,-0.5 191.5,-30.5 326.5,-30.5 326.5,-0.5 191.5,-0.5"/>
<text text-anchor="start" x="199.5" y="-18.5" font-family="serif" font-size="10.00">Parameters::get_param</text>
<text text-anchor="middle" x="259" y="-7.5" font-family="serif" font-size="10.00">_value_or_default</text>
</a>
</g>
</g>
<!-- Node1&#45;&gt;Node7 -->
<g id="edge6" class="edge">
<title>Node1&#45;&gt;Node7</title>
<path fill="none" stroke="midnightblue" d="M87.26,-81.92C107.58,-70.92 142.53,-52.8 174,-40.5 179.95,-38.17 186.21,-35.94 192.52,-33.83"/>
<polygon fill="midnightblue" stroke="midnightblue" points="194,-37.03 202.43,-30.61 191.84,-30.37 194,-37.03"/>
</g>
<!-- Node5 -->
<g id="node5" class="node">
<title>Node5</title>
<g id="a_node5"><a xlink:href="classParameters.html#aacf1a423c07aa2e63d2397fe903a1388" target="_top" xlink:title="Return the parameter associated to the given name.">
<polygon fill="none" stroke="black" points="380,-52 380,-71 535,-71 535,-52 380,-52"/>
<text text-anchor="middle" x="457.5" y="-59" font-family="serif" font-size="10.00">Parameters::get_parameter</text>
</a>
</g>
</g>
<!-- Node4&#45;&gt;Node5 -->
<g id="edge4" class="edge">
<title>Node4&#45;&gt;Node5</title>
<path fill="none" stroke="midnightblue" d="M326.53,-63.48C340.32,-63.27 355.06,-63.05 369.46,-62.83"/>
<polygon fill="midnightblue" stroke="midnightblue" points="369.93,-66.32 379.88,-62.67 369.83,-59.32 369.93,-66.32"/>
</g>
<!-- Node6 -->
<g id="node6" class="node">
<title>Node6</title>
<g id="a_node6"><a xlink:href="classParameter.html#a7874e1270fe62aecf3063a4f9edecb47" target="_top" xlink:title="Return the value of the paramter.">
<polygon fill="none" stroke="black" points="395,-11 395,-30 520,-30 520,-11 395,-11"/>
<text text-anchor="middle" x="457.5" y="-18" font-family="serif" font-size="10.00">Parameter::get_value</text>
</a>
</g>
</g>
<!-- Node4&#45;&gt;Node6 -->
<g id="edge5" class="edge">
<title>Node4&#45;&gt;Node6</title>
<path fill="none" stroke="midnightblue" d="M326.53,-49.6C351.76,-43.95 380.12,-37.6 403.89,-32.28"/>
<polygon fill="midnightblue" stroke="midnightblue" points="404.79,-35.67 413.78,-30.07 403.26,-28.84 404.79,-35.67"/>
</g>
<!-- Node7&#45;&gt;Node5 -->
<g id="edge7" class="edge">
<title>Node7&#45;&gt;Node5</title>
<path fill="none" stroke="midnightblue" d="M324.34,-30.56C350.8,-36.76 381.01,-43.83 405.86,-49.64"/>
<polygon fill="midnightblue" stroke="midnightblue" points="405.26,-53.1 415.8,-51.97 406.86,-46.28 405.26,-53.1"/>
</g>
<!-- Node7&#45;&gt;Node6 -->
<g id="edge8" class="edge">
<title>Node7&#45;&gt;Node6</title>
<path fill="none" stroke="midnightblue" d="M326.53,-17.19C345.21,-17.67 365.61,-18.19 384.6,-18.67"/>
<polygon fill="midnightblue" stroke="midnightblue" points="384.59,-22.17 394.68,-18.93 384.77,-15.17 384.59,-22.17"/>
</g>
</g>
</svg>
