<?xml version="1.0" encoding="UTF-8" standalone="no"?>
<!DOCTYPE svg PUBLIC "-//W3C//DTD SVG 1.1//EN"
 "http://www.w3.org/Graphics/SVG/1.1/DTD/svg11.dtd">
<!-- Generated by graphviz version 2.43.0 (0)
 -->
<!-- Title: AnalyticalIdealSolution::AnalyticalIdealSolution Pages: 1 -->
<svg width="524pt" height="39pt"
 viewBox="0.00 0.00 524.00 39.00" xmlns="http://www.w3.org/2000/svg" xmlns:xlink="http://www.w3.org/1999/xlink">
<g id="graph0" class="graph" transform="scale(1 1) rotate(0) translate(4 35)">
<title>AnalyticalIdealSolution::AnalyticalIdealSolution</title>
<!-- Node1 -->
<g id="node1" class="node">
<title>Node1</title>
<g id="a_node1"><a xlink:title="Construct a new AnalyticalIdealSolution::AnalyticalIdealSolution object.">
<polygon fill="#bfbfbf" stroke="black" points="0,-0.5 0,-30.5 140,-30.5 140,-0.5 0,-0.5"/>
<text text-anchor="start" x="8" y="-18.5" font-family="serif" font-size="10.00">AnalyticalIdealSolution</text>
<text text-anchor="middle" x="70" y="-7.5" font-family="serif" font-size="10.00">::AnalyticalIdealSolution</text>
</a>
</g>
</g>
<!-- Node2 -->
<g id="node2" class="node">
<title>Node2</title>
<g id="a_node2"><a xlink:href="classAnalyticalIdealSolution.html#ac3a098f88d3a7889809f7118b9fcf10a" target="_top" xlink:title="Get the parameters associated with the AnalyticalIdealSolution object.">
<polygon fill="none" stroke="black" points="176,-0.5 176,-30.5 310,-30.5 310,-0.5 176,-0.5"/>
<text text-anchor="start" x="184" y="-18.5" font-family="serif" font-size="10.00">AnalyticalIdealSolution</text>
<text text-anchor="middle" x="243" y="-7.5" font-family="serif" font-size="10.00">::get_parameters</text>
</a>
</g>
</g>
<!-- Node1&#45;&gt;Node2 -->
<g id="edge1" class="edge">
<title>Node1&#45;&gt;Node2</title>
<path fill="none" stroke="midnightblue" d="M140.06,-15.5C148.43,-15.5 157.02,-15.5 165.48,-15.5"/>
<polygon fill="midnightblue" stroke="midnightblue" points="165.73,-19 175.73,-15.5 165.73,-12 165.73,-19"/>
</g>
<!-- Node3 -->
<g id="node3" class="node">
<title>Node3</title>
<g id="a_node3"><a xlink:href="classCalphadBase.html#acf1e5755a33921216777fbd78558a051" target="_top" xlink:title="Get Calphad parameters.">
<polygon fill="none" stroke="black" points="346,-6 346,-25 516,-25 516,-6 346,-6"/>
<text text-anchor="middle" x="431" y="-13" font-family="serif" font-size="10.00">CalphadBase::get_parameters</text>
</a>
</g>
</g>
<!-- Node2&#45;&gt;Node3 -->
<g id="edge2" class="edge">
<title>Node2&#45;&gt;Node3</title>
<path fill="none" stroke="midnightblue" d="M310.1,-15.5C318.43,-15.5 327.08,-15.5 335.74,-15.5"/>
<polygon fill="midnightblue" stroke="midnightblue" points="335.89,-19 345.89,-15.5 335.89,-12 335.89,-19"/>
</g>
</g>
</svg>
