<?xml version="1.0" encoding="UTF-8" standalone="no"?>
<!DOCTYPE svg PUBLIC "-//W3C//DTD SVG 1.1//EN"
 "http://www.w3.org/Graphics/SVG/1.1/DTD/svg11.dtd">
<!-- Generated by graphviz version 2.43.0 (0)
 -->
<!-- Title: Parameter::print Pages: 1 -->
<svg width="269pt" height="104pt"
 viewBox="0.00 0.00 269.00 104.00" xmlns="http://www.w3.org/2000/svg" xmlns:xlink="http://www.w3.org/1999/xlink">
<g id="graph0" class="graph" transform="scale(1 1) rotate(0) translate(4 100)">
<title>Parameter::print</title>
<!-- Node1 -->
<g id="node1" class="node">
<title>Node1</title>
<g id="a_node1"><a xlink:title="Print the value of the parameter.">
<polygon fill="#bfbfbf" stroke="black" points="0,-38.5 0,-57.5 100,-57.5 100,-38.5 0,-38.5"/>
<text text-anchor="middle" x="50" y="-45.5" font-family="serif" font-size="10.00">Parameter::print</text>
</a>
</g>
</g>
<!-- Node2 -->
<g id="node2" class="node">
<title>Node2</title>
<g id="a_node2"><a xlink:href="classParameter.html#af60811a241c71f2e9eb9e05972464e19" target="_top" xlink:title="Return the name of the parameter.">
<polygon fill="none" stroke="black" points="136,-76.5 136,-95.5 261,-95.5 261,-76.5 136,-76.5"/>
<text text-anchor="middle" x="198.5" y="-83.5" font-family="serif" font-size="10.00">Parameter::get_name</text>
</a>
</g>
</g>
<!-- Node1&#45;&gt;Node2 -->
<g id="edge1" class="edge">
<title>Node1&#45;&gt;Node2</title>
<path fill="none" stroke="midnightblue" d="M87.97,-57.59C107.13,-62.56 130.71,-68.68 151.09,-73.96"/>
<polygon fill="midnightblue" stroke="midnightblue" points="150.24,-77.36 160.8,-76.48 152,-70.58 150.24,-77.36"/>
</g>
<!-- Node3 -->
<g id="node3" class="node">
<title>Node3</title>
<g id="a_node3"><a xlink:href="classParameter.html#a7874e1270fe62aecf3063a4f9edecb47" target="_top" xlink:title="Return the value of the paramter.">
<polygon fill="none" stroke="black" points="136,-38.5 136,-57.5 261,-57.5 261,-38.5 136,-38.5"/>
<text text-anchor="middle" x="198.5" y="-45.5" font-family="serif" font-size="10.00">Parameter::get_value</text>
</a>
</g>
</g>
<!-- Node1&#45;&gt;Node3 -->
<g id="edge2" class="edge">
<title>Node1&#45;&gt;Node3</title>
<path fill="none" stroke="midnightblue" d="M100.19,-48C108.43,-48 117.14,-48 125.81,-48"/>
<polygon fill="midnightblue" stroke="midnightblue" points="125.95,-51.5 135.95,-48 125.95,-44.5 125.95,-51.5"/>
</g>
<!-- Node4 -->
<g id="node4" class="node">
<title>Node4</title>
<g id="a_node4"><a xlink:href="classSlothInfo.html#a0aeaca42d8222a8c25402f486db20193" target="_top" xlink:title="Print information on Normal mode.">
<polygon fill="none" stroke="black" points="151.5,-0.5 151.5,-19.5 245.5,-19.5 245.5,-0.5 151.5,-0.5"/>
<text text-anchor="middle" x="198.5" y="-7.5" font-family="serif" font-size="10.00">SlothInfo::print</text>
</a>
</g>
</g>
<!-- Node1&#45;&gt;Node4 -->
<g id="edge3" class="edge">
<title>Node1&#45;&gt;Node4</title>
<path fill="none" stroke="midnightblue" d="M87.97,-38.41C107.13,-33.44 130.71,-27.32 151.09,-22.04"/>
<polygon fill="midnightblue" stroke="midnightblue" points="152,-25.42 160.8,-19.52 150.24,-18.64 152,-25.42"/>
</g>
</g>
</svg>
