<?xml version="1.0" encoding="UTF-8" standalone="no"?>
<!DOCTYPE svg PUBLIC "-//W3C//DTD SVG 1.1//EN"
 "http://www.w3.org/Graphics/SVG/1.1/DTD/svg11.dtd">
<!-- Generated by graphviz version 2.43.0 (0)
 -->
<!-- Title: SlothNLFormIntegrator::get_aux_old_gf Pages: 1 -->
<svg width="344pt" height="88pt"
 viewBox="0.00 0.00 344.00 88.00" xmlns="http://www.w3.org/2000/svg" xmlns:xlink="http://www.w3.org/1999/xlink">
<g id="graph0" class="graph" transform="scale(1 1) rotate(0) translate(4 84)">
<title>SlothNLFormIntegrator::get_aux_old_gf</title>
<!-- Node1 -->
<g id="node1" class="node">
<title>Node1</title>
<g id="a_node1"><a xlink:title="Return a vector of GridFunction associated with auxiliary variables at the previous time&#45;step.">
<polygon fill="#bfbfbf" stroke="black" points="199,-24.5 199,-54.5 336,-54.5 336,-24.5 199,-24.5"/>
<text text-anchor="start" x="207" y="-42.5" font-family="serif" font-size="10.00">SlothNLFormIntegrator</text>
<text text-anchor="middle" x="267.5" y="-31.5" font-family="serif" font-size="10.00">::get_aux_old_gf</text>
</a>
</g>
</g>
<!-- Node2 -->
<g id="node2" class="node">
<title>Node2</title>
<g id="a_node2"><a xlink:href="classDiffusionNLFormIntegrator.html#a65304a9615542c2e30b8b15d22e03e8e" target="_top" xlink:title="Construct a new DiffusionNLFormIntegrator&lt;SCHEME, COEFFICIENT&gt;::DiffusionNLFormIntegrator object.">
<polygon fill="none" stroke="black" points="0,-49.5 0,-79.5 163,-79.5 163,-49.5 0,-49.5"/>
<text text-anchor="start" x="8" y="-67.5" font-family="serif" font-size="10.00">DiffusionNLFormIntegrator</text>
<text text-anchor="middle" x="81.5" y="-56.5" font-family="serif" font-size="10.00">::DiffusionNLFormIntegrator</text>
</a>
</g>
</g>
<!-- Node1&#45;&gt;Node2 -->
<g id="edge1" class="edge">
<title>Node1&#45;&gt;Node2</title>
<path fill="none" stroke="midnightblue" d="M188.61,-50.08C180.2,-51.23 171.63,-52.39 163.18,-53.54"/>
<polygon fill="midnightblue" stroke="midnightblue" points="189.33,-53.52 198.77,-48.7 188.39,-46.58 189.33,-53.52"/>
</g>
<!-- Node3 -->
<g id="node3" class="node">
<title>Node3</title>
<g id="a_node3"><a xlink:href="classHeatNLFormIntegrator.html#a681e50ad185087419e46a1dad50de7d6" target="_top" xlink:title="Construct a new HeatNLFormIntegrator&lt;SCHEME, COEFFICIENT&gt;::HeatNLFormIntegrator object.">
<polygon fill="none" stroke="black" points="10.5,-0.5 10.5,-30.5 152.5,-30.5 152.5,-0.5 10.5,-0.5"/>
<text text-anchor="start" x="18.5" y="-18.5" font-family="serif" font-size="10.00">HeatNLFormIntegrator</text>
<text text-anchor="middle" x="81.5" y="-7.5" font-family="serif" font-size="10.00">::HeatNLFormIntegrator</text>
</a>
</g>
</g>
<!-- Node1&#45;&gt;Node3 -->
<g id="edge2" class="edge">
<title>Node1&#45;&gt;Node3</title>
<path fill="none" stroke="midnightblue" d="M188.77,-29.36C176.75,-27.79 164.39,-26.18 152.55,-24.64"/>
<polygon fill="midnightblue" stroke="midnightblue" points="188.4,-32.84 198.77,-30.67 189.31,-25.9 188.4,-32.84"/>
</g>
</g>
</svg>
