<?xml version="1.0" encoding="UTF-8" standalone="no"?>
<!DOCTYPE svg PUBLIC "-//W3C//DTD SVG 1.1//EN"
 "http://www.w3.org/Graphics/SVG/1.1/DTD/svg11.dtd">
<!-- Generated by graphviz version 2.43.0 (0)
 -->
<!-- Title: SolverHypreFGMRES::create_solver Pages: 1 -->
<svg width="575pt" height="176pt"
 viewBox="0.00 0.00 575.00 175.50" xmlns="http://www.w3.org/2000/svg" xmlns:xlink="http://www.w3.org/1999/xlink">
<g id="graph0" class="graph" transform="scale(1 1) rotate(0) translate(4 171.5)">
<title>SolverHypreFGMRES::create_solver</title>
<!-- Node1 -->
<g id="node1" class="node">
<title>Node1</title>
<g id="a_node1"><a xlink:title="Create a iterative solver based of the SolverType and a list of Parameters.">
<polygon fill="#bfbfbf" stroke="black" points="0,-73.5 0,-103.5 134,-103.5 134,-73.5 0,-73.5"/>
<text text-anchor="start" x="8" y="-91.5" font-family="serif" font-size="10.00">SolverHypreFGMRES::</text>
<text text-anchor="middle" x="67" y="-80.5" font-family="serif" font-size="10.00">create_solver</text>
</a>
</g>
</g>
<!-- Node2 -->
<g id="node2" class="node">
<title>Node2</title>
<g id="a_node2"><a xlink:href="classSlothInfo.html#a854d3cafdb9f5a77f1063a27d2a27e04" target="_top" xlink:title="Print information on Debug mode.">
<polygon fill="none" stroke="black" points="222,-148 222,-167 324,-167 324,-148 222,-148"/>
<text text-anchor="middle" x="273" y="-155" font-family="serif" font-size="10.00">SlothInfo::debug</text>
</a>
</g>
</g>
<!-- Node1&#45;&gt;Node2 -->
<g id="edge1" class="edge">
<title>Node1&#45;&gt;Node2</title>
<path fill="none" stroke="midnightblue" d="M94.01,-103.71C114.14,-114.86 143.04,-129.57 170,-138.5 183.28,-142.9 197.89,-146.38 211.79,-149.09"/>
<polygon fill="midnightblue" stroke="midnightblue" points="211.3,-152.56 221.77,-150.93 212.57,-145.67 211.3,-152.56"/>
</g>
<!-- Node3 -->
<g id="node3" class="node">
<title>Node3</title>
<g id="a_node3"><a xlink:href="classSolverBase.html#a52edc30e08c2552f8ceb3d9ea928b059" target="_top" xlink:title=" ">
<polygon fill="none" stroke="black" points="170,-98.5 170,-128.5 376,-128.5 376,-98.5 170,-98.5"/>
<text text-anchor="start" x="178" y="-116.5" font-family="serif" font-size="10.00">SolverBase&lt; mfem::HypreFGMRES,</text>
<text text-anchor="middle" x="273" y="-105.5" font-family="serif" font-size="10.00"> HypreSolverType &gt;::get_description</text>
</a>
</g>
</g>
<!-- Node1&#45;&gt;Node3 -->
<g id="edge2" class="edge">
<title>Node1&#45;&gt;Node3</title>
<path fill="none" stroke="midnightblue" d="M134.23,-96.62C142.43,-97.62 150.98,-98.67 159.62,-99.73"/>
<polygon fill="midnightblue" stroke="midnightblue" points="159.45,-103.23 169.81,-100.98 160.31,-96.29 159.45,-103.23"/>
</g>
<!-- Node4 -->
<g id="node4" class="node">
<title>Node4</title>
<g id="a_node4"><a xlink:href="classParameters.html#ae3b314c5ebc3fde8684b0634b2406da6" target="_top" xlink:title="Return the value of the parameter associated to the given name.">
<polygon fill="none" stroke="black" points="205.5,-49.5 205.5,-79.5 340.5,-79.5 340.5,-49.5 205.5,-49.5"/>
<text text-anchor="start" x="213.5" y="-67.5" font-family="serif" font-size="10.00">Parameters::get_param</text>
<text text-anchor="middle" x="273" y="-56.5" font-family="serif" font-size="10.00">_value</text>
</a>
</g>
</g>
<!-- Node1&#45;&gt;Node4 -->
<g id="edge3" class="edge">
<title>Node1&#45;&gt;Node4</title>
<path fill="none" stroke="midnightblue" d="M134.23,-80.71C153.74,-78.41 175.25,-75.88 195.35,-73.52"/>
<polygon fill="midnightblue" stroke="midnightblue" points="195.88,-76.98 205.4,-72.34 195.06,-70.03 195.88,-76.98"/>
</g>
<!-- Node7 -->
<g id="node7" class="node">
<title>Node7</title>
<g id="a_node7"><a xlink:href="classParameters.html#a857c53fbe60d7bd2f91e91626f85b6d2" target="_top" xlink:title="Return the value of the parameter associated to the given name or, use th edefault given,...">
<polygon fill="none" stroke="black" points="205.5,-0.5 205.5,-30.5 340.5,-30.5 340.5,-0.5 205.5,-0.5"/>
<text text-anchor="start" x="213.5" y="-18.5" font-family="serif" font-size="10.00">Parameters::get_param</text>
<text text-anchor="middle" x="273" y="-7.5" font-family="serif" font-size="10.00">_value_or_default</text>
</a>
</g>
</g>
<!-- Node1&#45;&gt;Node7 -->
<g id="edge6" class="edge">
<title>Node1&#45;&gt;Node7</title>
<path fill="none" stroke="midnightblue" d="M95.94,-73.5C116.09,-63.14 144.17,-49.64 170,-40.5 178.18,-37.61 186.84,-34.92 195.53,-32.47"/>
<polygon fill="midnightblue" stroke="midnightblue" points="196.59,-35.81 205.32,-29.81 194.75,-29.06 196.59,-35.81"/>
</g>
<!-- Node5 -->
<g id="node5" class="node">
<title>Node5</title>
<g id="a_node5"><a xlink:href="classParameters.html#aacf1a423c07aa2e63d2397fe903a1388" target="_top" xlink:title="Return the parameter associated to the given name.">
<polygon fill="none" stroke="black" points="412,-52 412,-71 567,-71 567,-52 412,-52"/>
<text text-anchor="middle" x="489.5" y="-59" font-family="serif" font-size="10.00">Parameters::get_parameter</text>
</a>
</g>
</g>
<!-- Node4&#45;&gt;Node5 -->
<g id="edge4" class="edge">
<title>Node4&#45;&gt;Node5</title>
<path fill="none" stroke="midnightblue" d="M340.69,-63.57C359.95,-63.3 381.24,-63 401.54,-62.72"/>
<polygon fill="midnightblue" stroke="midnightblue" points="401.77,-66.21 411.72,-62.57 401.67,-59.21 401.77,-66.21"/>
</g>
<!-- Node6 -->
<g id="node6" class="node">
<title>Node6</title>
<g id="a_node6"><a xlink:href="classParameter.html#a7874e1270fe62aecf3063a4f9edecb47" target="_top" xlink:title="Return the value of the paramter.">
<polygon fill="none" stroke="black" points="427,-11 427,-30 552,-30 552,-11 427,-11"/>
<text text-anchor="middle" x="489.5" y="-18" font-family="serif" font-size="10.00">Parameter::get_value</text>
</a>
</g>
</g>
<!-- Node4&#45;&gt;Node6 -->
<g id="edge5" class="edge">
<title>Node4&#45;&gt;Node6</title>
<path fill="none" stroke="midnightblue" d="M340.69,-50.82C369.94,-44.82 403.9,-37.85 431.89,-32.11"/>
<polygon fill="midnightblue" stroke="midnightblue" points="432.82,-35.49 441.91,-30.06 431.41,-28.64 432.82,-35.49"/>
</g>
<!-- Node7&#45;&gt;Node5 -->
<g id="edge7" class="edge">
<title>Node7&#45;&gt;Node5</title>
<path fill="none" stroke="midnightblue" d="M340.69,-29.8C370.6,-36.22 405.43,-43.69 433.77,-49.76"/>
<polygon fill="midnightblue" stroke="midnightblue" points="433.38,-53.26 443.89,-51.93 434.85,-46.42 433.38,-53.26"/>
</g>
<!-- Node7&#45;&gt;Node6 -->
<g id="edge8" class="edge">
<title>Node7&#45;&gt;Node6</title>
<path fill="none" stroke="midnightblue" d="M340.69,-17.05C364.8,-17.62 392.11,-18.25 416.64,-18.82"/>
<polygon fill="midnightblue" stroke="midnightblue" points="416.88,-22.33 426.96,-19.07 417.05,-15.33 416.88,-22.33"/>
</g>
</g>
</svg>
