<?xml version="1.0" encoding="UTF-8" standalone="no"?>
<!DOCTYPE svg PUBLIC "-//W3C//DTD SVG 1.1//EN"
 "http://www.w3.org/Graphics/SVG/1.1/DTD/svg11.dtd">
<!-- Generated by graphviz version 2.43.0 (0)
 -->
<!-- Title: SteadyOperatorBase&lt; T, DIM, NLFI, LHS_NLFI &gt; Pages: 1 -->
<svg width="756pt" height="193pt"
 viewBox="0.00 0.00 756.00 193.00" xmlns="http://www.w3.org/2000/svg" xmlns:xlink="http://www.w3.org/1999/xlink">
<g id="graph0" class="graph" transform="scale(1 1) rotate(0) translate(4 189)">
<title>SteadyOperatorBase&lt; T, DIM, NLFI, LHS_NLFI &gt;</title>
<!-- Node1 -->
<g id="node1" class="node">
<title>Node1</title>
<g id="a_node1"><a xlink:title="SteadyOperatorBase class.">
<polygon fill="#bfbfbf" stroke="black" points="171,-72 171,-113 293,-113 293,-72 171,-72"/>
<text text-anchor="start" x="179" y="-101" font-family="serif" font-size="10.00">SteadyOperatorBase</text>
<text text-anchor="start" x="179" y="-90" font-family="serif" font-size="10.00">&lt; T, DIM, NLFI, LHS</text>
<text text-anchor="middle" x="232" y="-79" font-family="serif" font-size="10.00">_NLFI &gt;</text>
</a>
</g>
</g>
<!-- Node3 -->
<g id="node3" class="node">
<title>Node3</title>
<g id="a_node3"><a xlink:href="classDiffusionOperatorBase.html" target="_top" xlink:title=" ">
<polygon fill="none" stroke="black" points="347,-132.5 347,-184.5 529,-184.5 529,-132.5 347,-132.5"/>
<text text-anchor="start" x="355" y="-172.5" font-family="serif" font-size="10.00">DiffusionOperatorBase</text>
<text text-anchor="start" x="355" y="-161.5" font-family="serif" font-size="10.00">&lt; T, DIM, NLFI, mfem</text>
<text text-anchor="start" x="355" y="-150.5" font-family="serif" font-size="10.00">::BlockNonlinearFormIntegrator,</text>
<text text-anchor="middle" x="438" y="-139.5" font-family="serif" font-size="10.00"> SteadyOperatorBase &gt;</text>
</a>
</g>
</g>
<!-- Node1&#45;&gt;Node3 -->
<g id="edge2" class="edge">
<title>Node1&#45;&gt;Node3</title>
<path fill="none" stroke="midnightblue" d="M303.07,-115.17C320.29,-120.74 338.86,-126.75 356.53,-132.47"/>
<polygon fill="midnightblue" stroke="midnightblue" points="303.7,-111.69 293.1,-111.95 301.54,-118.35 303.7,-111.69"/>
</g>
<!-- Node5 -->
<g id="node5" class="node">
<title>Node5</title>
<g id="a_node5"><a xlink:href="classHeatOperatorBase.html" target="_top" xlink:title=" ">
<polygon fill="none" stroke="black" points="329,-72 329,-113 547,-113 547,-72 329,-72"/>
<text text-anchor="start" x="337" y="-101" font-family="serif" font-size="10.00">HeatOperatorBase&lt; T,</text>
<text text-anchor="start" x="337" y="-90" font-family="serif" font-size="10.00"> DIM, NLFI, mfem::BlockNonlinear</text>
<text text-anchor="middle" x="438" y="-79" font-family="serif" font-size="10.00">FormIntegrator, SteadyOperatorBase &gt;</text>
</a>
</g>
</g>
<!-- Node1&#45;&gt;Node5 -->
<g id="edge4" class="edge">
<title>Node1&#45;&gt;Node5</title>
<path fill="none" stroke="midnightblue" d="M303.35,-92.5C311.59,-92.5 320.13,-92.5 328.73,-92.5"/>
<polygon fill="midnightblue" stroke="midnightblue" points="303.1,-89 293.1,-92.5 303.1,-96 303.1,-89"/>
</g>
<!-- Node7 -->
<g id="node7" class="node">
<title>Node7</title>
<g id="a_node7"><a xlink:href="classPhaseFieldOperatorBase.html" target="_top" xlink:title=" ">
<polygon fill="none" stroke="black" points="350,-0.5 350,-52.5 526,-52.5 526,-0.5 350,-0.5"/>
<text text-anchor="start" x="358" y="-40.5" font-family="serif" font-size="10.00">PhaseFieldOperatorBase</text>
<text text-anchor="start" x="358" y="-29.5" font-family="serif" font-size="10.00">&lt; T, DIM, NLFI, mfem::</text>
<text text-anchor="start" x="358" y="-18.5" font-family="serif" font-size="10.00">BlockNonlinearFormIntegrator,</text>
<text text-anchor="middle" x="438" y="-7.5" font-family="serif" font-size="10.00"> SteadyOperatorBase &gt;</text>
</a>
</g>
</g>
<!-- Node1&#45;&gt;Node7 -->
<g id="edge6" class="edge">
<title>Node1&#45;&gt;Node7</title>
<path fill="none" stroke="midnightblue" d="M303.07,-69.83C320.29,-64.26 338.86,-58.25 356.53,-52.53"/>
<polygon fill="midnightblue" stroke="midnightblue" points="301.54,-66.65 293.1,-73.05 303.7,-73.31 301.54,-66.65"/>
</g>
<!-- Node2 -->
<g id="node2" class="node">
<title>Node2</title>
<g id="a_node2"><a xlink:href="classOperatorBase.html" target="_top" xlink:title="Base class for building Steady and TimeDependent PhaseFieldOperators.">
<polygon fill="none" stroke="black" points="0,-77.5 0,-107.5 135,-107.5 135,-77.5 0,-77.5"/>
<text text-anchor="start" x="8" y="-95.5" font-family="serif" font-size="10.00">OperatorBase&lt; T, DIM,</text>
<text text-anchor="middle" x="67.5" y="-84.5" font-family="serif" font-size="10.00"> NLFI, LHS_NLFI &gt;</text>
</a>
</g>
</g>
<!-- Node2&#45;&gt;Node1 -->
<g id="edge1" class="edge">
<title>Node2&#45;&gt;Node1</title>
<path fill="none" stroke="midnightblue" d="M145.13,-92.5C153.75,-92.5 162.43,-92.5 170.8,-92.5"/>
<polygon fill="midnightblue" stroke="midnightblue" points="145.06,-89 135.06,-92.5 145.06,-96 145.06,-89"/>
</g>
<!-- Node4 -->
<g id="node4" class="node">
<title>Node4</title>
<g id="a_node4"><a xlink:href="classSteadyDiffusionOperator.html" target="_top" xlink:title="Class SteadyDiffusionOperator.">
<polygon fill="none" stroke="black" points="583,-143.5 583,-173.5 748,-173.5 748,-143.5 583,-143.5"/>
<text text-anchor="start" x="591" y="-161.5" font-family="serif" font-size="10.00">SteadyDiffusionOperator</text>
<text text-anchor="middle" x="665.5" y="-150.5" font-family="serif" font-size="10.00">&lt; T, DIM, NLFI, LHS_NLFI &gt;</text>
</a>
</g>
</g>
<!-- Node3&#45;&gt;Node4 -->
<g id="edge3" class="edge">
<title>Node3&#45;&gt;Node4</title>
<path fill="none" stroke="midnightblue" d="M539.17,-158.5C553.81,-158.5 568.74,-158.5 582.94,-158.5"/>
<polygon fill="midnightblue" stroke="midnightblue" points="539.1,-155 529.1,-158.5 539.1,-162 539.1,-155"/>
</g>
<!-- Node6 -->
<g id="node6" class="node">
<title>Node6</title>
<g id="a_node6"><a xlink:href="classSteadyHeatOperator.html" target="_top" xlink:title="Class SteadyHeatOperator.">
<polygon fill="none" stroke="black" points="604.5,-72 604.5,-113 726.5,-113 726.5,-72 604.5,-72"/>
<text text-anchor="start" x="612.5" y="-101" font-family="serif" font-size="10.00">SteadyHeatOperator</text>
<text text-anchor="start" x="612.5" y="-90" font-family="serif" font-size="10.00">&lt; T, DIM, NLFI, LHS</text>
<text text-anchor="middle" x="665.5" y="-79" font-family="serif" font-size="10.00">_NLFI &gt;</text>
</a>
</g>
</g>
<!-- Node5&#45;&gt;Node6 -->
<g id="edge5" class="edge">
<title>Node5&#45;&gt;Node6</title>
<path fill="none" stroke="midnightblue" d="M557.27,-92.5C573.55,-92.5 589.68,-92.5 604.29,-92.5"/>
<polygon fill="midnightblue" stroke="midnightblue" points="557.13,-89 547.13,-92.5 557.13,-96 557.13,-89"/>
</g>
<!-- Node8 -->
<g id="node8" class="node">
<title>Node8</title>
<g id="a_node8"><a xlink:href="classSteadyPhaseFieldOperator.html" target="_top" xlink:title="Class SteadyPhaseFieldOperator.">
<polygon fill="none" stroke="black" points="583,-11.5 583,-41.5 748,-41.5 748,-11.5 583,-11.5"/>
<text text-anchor="start" x="591" y="-29.5" font-family="serif" font-size="10.00">SteadyPhaseFieldOperator</text>
<text text-anchor="middle" x="665.5" y="-18.5" font-family="serif" font-size="10.00">&lt; T, DIM, NLFI, LHS_NLFI &gt;</text>
</a>
</g>
</g>
<!-- Node7&#45;&gt;Node8 -->
<g id="edge7" class="edge">
<title>Node7&#45;&gt;Node8</title>
<path fill="none" stroke="midnightblue" d="M536.29,-26.5C551.77,-26.5 567.65,-26.5 582.72,-26.5"/>
<polygon fill="midnightblue" stroke="midnightblue" points="536.18,-23 526.18,-26.5 536.18,-30 536.18,-23"/>
</g>
</g>
</svg>
