<?xml version="1.0" encoding="UTF-8" standalone="no"?>
<!DOCTYPE svg PUBLIC "-//W3C//DTD SVG 1.1//EN"
 "http://www.w3.org/Graphics/SVG/1.1/DTD/svg11.dtd">
<!-- Generated by graphviz version 2.43.0 (0)
 -->
<!-- Title: SteadyHeatOperator&lt; T, DIM, NLFI, LHS_NLFI &gt; Pages: 1 -->
<svg width="896pt" height="110pt"
 viewBox="0.00 0.00 896.00 110.00" xmlns="http://www.w3.org/2000/svg" xmlns:xlink="http://www.w3.org/1999/xlink">
<g id="graph0" class="graph" transform="scale(1 1) rotate(0) translate(4 106)">
<title>SteadyHeatOperator&lt; T, DIM, NLFI, LHS_NLFI &gt;</title>
<!-- Node1 -->
<g id="node1" class="node">
<title>Node1</title>
<g id="a_node1"><a xlink:title="Class SteadyHeatOperator.">
<polygon fill="#bfbfbf" stroke="black" points="766,-24.5 766,-65.5 888,-65.5 888,-24.5 766,-24.5"/>
<text text-anchor="start" x="774" y="-53.5" font-family="serif" font-size="10.00">SteadyHeatOperator</text>
<text text-anchor="start" x="774" y="-42.5" font-family="serif" font-size="10.00">&lt; T, DIM, NLFI, LHS</text>
<text text-anchor="middle" x="827" y="-31.5" font-family="serif" font-size="10.00">_NLFI &gt;</text>
</a>
</g>
</g>
<!-- Node2 -->
<g id="node2" class="node">
<title>Node2</title>
<g id="a_node2"><a xlink:href="classHeatOperatorBase.html" target="_top" xlink:title=" ">
<polygon fill="none" stroke="black" points="511,-24.5 511,-65.5 729,-65.5 729,-24.5 511,-24.5"/>
<text text-anchor="start" x="519" y="-53.5" font-family="serif" font-size="10.00">HeatOperatorBase&lt; T,</text>
<text text-anchor="start" x="519" y="-42.5" font-family="serif" font-size="10.00"> DIM, NLFI, mfem::BlockNonlinear</text>
<text text-anchor="middle" x="620" y="-31.5" font-family="serif" font-size="10.00">FormIntegrator, SteadyOperatorBase &gt;</text>
</a>
</g>
</g>
<!-- Node2&#45;&gt;Node1 -->
<g id="edge1" class="edge">
<title>Node2&#45;&gt;Node1</title>
<path fill="none" stroke="midnightblue" d="M739.21,-45C748.39,-45 757.39,-45 765.92,-45"/>
<polygon fill="midnightblue" stroke="midnightblue" points="739.2,-41.5 729.2,-45 739.2,-48.5 739.2,-41.5"/>
</g>
<!-- Node3 -->
<g id="node3" class="node">
<title>Node3</title>
<g id="a_node3"><a xlink:href="classSteadyOperatorBase.html" target="_top" xlink:title="SteadyOperatorBase class.">
<polygon fill="none" stroke="black" points="179.5,-60.5 179.5,-101.5 301.5,-101.5 301.5,-60.5 179.5,-60.5"/>
<text text-anchor="start" x="187.5" y="-89.5" font-family="serif" font-size="10.00">SteadyOperatorBase</text>
<text text-anchor="start" x="187.5" y="-78.5" font-family="serif" font-size="10.00">&lt; T, DIM, NLFI, LHS</text>
<text text-anchor="middle" x="240.5" y="-67.5" font-family="serif" font-size="10.00">_NLFI &gt;</text>
</a>
</g>
</g>
<!-- Node3&#45;&gt;Node2 -->
<g id="edge2" class="edge">
<title>Node3&#45;&gt;Node2</title>
<path fill="none" stroke="midnightblue" d="M311.69,-76.3C362.17,-72.71 431.86,-67.31 493,-61 498.81,-60.4 504.77,-59.75 510.79,-59.07"/>
<polygon fill="midnightblue" stroke="midnightblue" points="311.26,-72.83 301.53,-77.02 311.76,-79.81 311.26,-72.83"/>
</g>
<!-- Node4 -->
<g id="node4" class="node">
<title>Node4</title>
<g id="a_node4"><a xlink:href="classOperatorBase.html" target="_top" xlink:title="Base class for building Steady and TimeDependent PhaseFieldOperators.">
<polygon fill="none" stroke="black" points="0,-66 0,-96 135,-96 135,-66 0,-66"/>
<text text-anchor="start" x="8" y="-84" font-family="serif" font-size="10.00">OperatorBase&lt; T, DIM,</text>
<text text-anchor="middle" x="67.5" y="-73" font-family="serif" font-size="10.00"> NLFI, LHS_NLFI &gt;</text>
</a>
</g>
</g>
<!-- Node4&#45;&gt;Node3 -->
<g id="edge3" class="edge">
<title>Node4&#45;&gt;Node3</title>
<path fill="none" stroke="midnightblue" d="M145.14,-81C156.66,-81 168.39,-81 179.49,-81"/>
<polygon fill="midnightblue" stroke="midnightblue" points="145.1,-77.5 135.1,-81 145.1,-84.5 145.1,-77.5"/>
</g>
<!-- Node5 -->
<g id="node5" class="node">
<title>Node5</title>
<g id="a_node5"><a xlink:href="classHeatOperatorBase.html" target="_top" xlink:title="Base class for Mass Heat.">
<polygon fill="none" stroke="black" points="172,-0.5 172,-41.5 309,-41.5 309,-0.5 172,-0.5"/>
<text text-anchor="start" x="180" y="-29.5" font-family="serif" font-size="10.00">HeatOperatorBase&lt; T,</text>
<text text-anchor="start" x="180" y="-18.5" font-family="serif" font-size="10.00"> DIM, NLFI, LHS_NLFI,</text>
<text text-anchor="middle" x="240.5" y="-7.5" font-family="serif" font-size="10.00"> OPEBASE &gt;</text>
</a>
</g>
</g>
<!-- Node5&#45;&gt;Node2 -->
<g id="edge4" class="edge">
<title>Node5&#45;&gt;Node2</title>
<path fill="none" stroke="orange" stroke-dasharray="5,2" d="M319.17,-21.03C368.93,-21.58 434.86,-23.28 493,-28 498.83,-28.47 504.8,-29.03 510.83,-29.65"/>
<polygon fill="orange" stroke="orange" points="319.16,-17.53 309.12,-20.94 319.09,-24.53 319.16,-17.53"/>
<text text-anchor="start" x="327" y="-53" font-family="serif" font-size="10.00"> &lt; T, DIM, NLFI, mfem</text>
<text text-anchor="start" x="327" y="-42" font-family="serif" font-size="10.00">::BlockNonlinearFormIntegrator,</text>
<text text-anchor="middle" x="410" y="-31" font-family="serif" font-size="10.00"> SteadyOperatorBase &gt;</text>
</g>
</g>
</svg>
