<?xml version="1.0" encoding="UTF-8" standalone="no"?>
<!DOCTYPE svg PUBLIC "-//W3C//DTD SVG 1.1//EN"
 "http://www.w3.org/Graphics/SVG/1.1/DTD/svg11.dtd">
<!-- Generated by graphviz version 2.43.0 (0)
 -->
<!-- Title: CalphadBase&lt; T &gt; Pages: 1 -->
<svg width="406pt" height="84pt"
 viewBox="0.00 0.00 405.50 84.00" xmlns="http://www.w3.org/2000/svg" xmlns:xlink="http://www.w3.org/1999/xlink">
<g id="graph0" class="graph" transform="scale(1 1) rotate(0) translate(4 80)">
<title>CalphadBase&lt; T &gt;</title>
<!-- Node1 -->
<g id="node1" class="node">
<title>Node1</title>
<g id="a_node1"><a xlink:title=" ">
<polygon fill="#bfbfbf" stroke="black" points="129.5,-56.5 129.5,-75.5 242.5,-75.5 242.5,-56.5 129.5,-56.5"/>
<text text-anchor="middle" x="186" y="-63.5" font-family="serif" font-size="10.00">CalphadBase&lt; T &gt;</text>
</a>
</g>
</g>
<!-- Node2 -->
<g id="node2" class="node">
<title>Node2</title>
<g id="a_node2"><a xlink:href="classAnalyticalIdealSolution.html" target="_top" xlink:title=" ">
<polygon fill="none" stroke="black" points="0,-0.5 0,-19.5 164,-19.5 164,-0.5 0,-0.5"/>
<text text-anchor="middle" x="82" y="-7.5" font-family="serif" font-size="10.00">AnalyticalIdealSolution&lt; T &gt;</text>
</a>
</g>
</g>
<!-- Node1&#45;&gt;Node2 -->
<g id="edge1" class="edge">
<title>Node1&#45;&gt;Node2</title>
<path fill="none" stroke="midnightblue" d="M160.17,-51.59C140.94,-41.61 115.26,-28.27 98.67,-19.65"/>
<polygon fill="midnightblue" stroke="midnightblue" points="158.8,-54.82 169.29,-56.32 162.03,-48.61 158.8,-54.82"/>
</g>
<!-- Node3 -->
<g id="node3" class="node">
<title>Node3</title>
<g id="a_node3"><a xlink:href="classCalphadInformedNeuralNetwork.html" target="_top" xlink:title="Calphad calculation performed by neural network Dedicated to simulations with multicomponent inter&#45;di...">
<polygon fill="none" stroke="black" points="182.5,-0.5 182.5,-19.5 397.5,-19.5 397.5,-0.5 182.5,-0.5"/>
<text text-anchor="middle" x="290" y="-7.5" font-family="serif" font-size="10.00">CalphadInformedNeuralNetwork&lt; T &gt;</text>
</a>
</g>
</g>
<!-- Node1&#45;&gt;Node3 -->
<g id="edge2" class="edge">
<title>Node1&#45;&gt;Node3</title>
<path fill="none" stroke="midnightblue" d="M211.83,-51.59C231.06,-41.61 256.74,-28.27 273.33,-19.65"/>
<polygon fill="midnightblue" stroke="midnightblue" points="209.97,-48.61 202.71,-56.32 213.2,-54.82 209.97,-48.61"/>
</g>
</g>
</svg>
