<?xml version="1.0" encoding="UTF-8" standalone="no"?>
<!DOCTYPE svg PUBLIC "-//W3C//DTD SVG 1.1//EN"
 "http://www.w3.org/Graphics/SVG/1.1/DTD/svg11.dtd">
<!-- Generated by graphviz version 2.43.0 (0)
 -->
<!-- Title: DiffusionFluxNLFormIntegrator::get_parameters Pages: 1 -->
<svg width="677pt" height="137pt"
 viewBox="0.00 0.00 677.00 137.00" xmlns="http://www.w3.org/2000/svg" xmlns:xlink="http://www.w3.org/1999/xlink">
<g id="graph0" class="graph" transform="scale(1 1) rotate(0) translate(4 133)">
<title>DiffusionFluxNLFormIntegrator::get_parameters</title>
<!-- Node1 -->
<g id="node1" class="node">
<title>Node1</title>
<g id="a_node1"><a xlink:title="Return parameters required by these integrators.">
<polygon fill="#bfbfbf" stroke="black" points="490,-49.5 490,-79.5 669,-79.5 669,-49.5 490,-49.5"/>
<text text-anchor="start" x="498" y="-67.5" font-family="serif" font-size="10.00">DiffusionFluxNLFormIntegrator</text>
<text text-anchor="middle" x="579.5" y="-56.5" font-family="serif" font-size="10.00">::get_parameters</text>
</a>
</g>
</g>
<!-- Node2 -->
<g id="node2" class="node">
<title>Node2</title>
<g id="a_node2"><a xlink:href="classDiffusionFluxNLFormIntegrator.html#a262dbb7e7bc201f370e0112dd7e8114f" target="_top" xlink:title="Construct a new DiffusionFluxNLFormIntegrator&lt;VARS&gt;::DiffusionFluxNLFormIntegrator object.">
<polygon fill="none" stroke="black" points="258.5,-98.5 258.5,-128.5 443.5,-128.5 443.5,-98.5 258.5,-98.5"/>
<text text-anchor="start" x="266.5" y="-116.5" font-family="serif" font-size="10.00">DiffusionFluxNLFormIntegrator</text>
<text text-anchor="middle" x="351" y="-105.5" font-family="serif" font-size="10.00">::DiffusionFluxNLFormIntegrator</text>
</a>
</g>
</g>
<!-- Node1&#45;&gt;Node2 -->
<g id="edge1" class="edge">
<title>Node1&#45;&gt;Node2</title>
<path fill="none" stroke="midnightblue" d="M499.06,-81.69C473.73,-87.16 445.92,-93.18 421.37,-98.49"/>
<polygon fill="midnightblue" stroke="midnightblue" points="499.97,-85.07 509,-79.53 498.49,-78.23 499.97,-85.07"/>
</g>
<!-- Node3 -->
<g id="node3" class="node">
<title>Node3</title>
<g id="a_node3"><a xlink:href="classMassDiffusionFluxNLFormIntegrator.html#afd3cea7834b991ceeca0bbe4968838ea" target="_top" xlink:title="Return parameters required by these integrators.">
<polygon fill="none" stroke="black" points="248,-49.5 248,-79.5 454,-79.5 454,-49.5 248,-49.5"/>
<text text-anchor="start" x="256" y="-67.5" font-family="serif" font-size="10.00">MassDiffusionFluxNLFormIntegrator</text>
<text text-anchor="middle" x="351" y="-56.5" font-family="serif" font-size="10.00">::get_parameters</text>
</a>
</g>
</g>
<!-- Node1&#45;&gt;Node3 -->
<g id="edge2" class="edge">
<title>Node1&#45;&gt;Node3</title>
<path fill="none" stroke="midnightblue" d="M479.93,-64.5C471.34,-64.5 462.63,-64.5 454.01,-64.5"/>
<polygon fill="midnightblue" stroke="midnightblue" points="479.96,-68 489.96,-64.5 479.96,-61 479.96,-68"/>
</g>
<!-- Node5 -->
<g id="node5" class="node">
<title>Node5</title>
<g id="a_node5"><a xlink:href="classThermalDiffusionFluxNLFormIntegrator.html#a39adae71e06326c81873990eec9cd5bc" target="_top" xlink:title="Return parameters required by these integrators.">
<polygon fill="none" stroke="black" points="266,-0.5 266,-30.5 436,-30.5 436,-0.5 266,-0.5"/>
<text text-anchor="start" x="274" y="-18.5" font-family="serif" font-size="10.00">ThermalDiffusionFluxNLForm</text>
<text text-anchor="middle" x="351" y="-7.5" font-family="serif" font-size="10.00">Integrator::get_parameters</text>
</a>
</g>
</g>
<!-- Node1&#45;&gt;Node5 -->
<g id="edge4" class="edge">
<title>Node1&#45;&gt;Node5</title>
<path fill="none" stroke="midnightblue" d="M499.06,-47.31C473.73,-41.84 445.92,-35.82 421.37,-30.51"/>
<polygon fill="midnightblue" stroke="midnightblue" points="498.49,-50.77 509,-49.47 499.97,-43.93 498.49,-50.77"/>
</g>
<!-- Node4 -->
<g id="node4" class="node">
<title>Node4</title>
<g id="a_node4"><a xlink:href="classMassDiffusionFluxNLFormIntegrator.html#a748cf9cd10fe729a79faf12b4697f64e" target="_top" xlink:title="Construct a new MassDiffusionFluxNLFormIntegrator&lt;VARS&gt;::MassDiffusionFluxNLFormIntegrator object.">
<polygon fill="none" stroke="black" points="0,-49.5 0,-79.5 212,-79.5 212,-49.5 0,-49.5"/>
<text text-anchor="start" x="8" y="-67.5" font-family="serif" font-size="10.00">MassDiffusionFluxNLFormIntegrator</text>
<text text-anchor="middle" x="106" y="-56.5" font-family="serif" font-size="10.00">::MassDiffusionFluxNLFormIntegrator</text>
</a>
</g>
</g>
<!-- Node3&#45;&gt;Node4 -->
<g id="edge3" class="edge">
<title>Node3&#45;&gt;Node4</title>
<path fill="none" stroke="midnightblue" d="M237.48,-64.5C229.11,-64.5 220.68,-64.5 212.35,-64.5"/>
<polygon fill="midnightblue" stroke="midnightblue" points="237.65,-68 247.65,-64.5 237.65,-61 237.65,-68"/>
</g>
</g>
</svg>
