<?xml version="1.0" encoding="UTF-8" standalone="no"?>
<!DOCTYPE svg PUBLIC "-//W3C//DTD SVG 1.1//EN"
 "http://www.w3.org/Graphics/SVG/1.1/DTD/svg11.dtd">
<!-- Generated by graphviz version 2.43.0 (0)
 -->
<!-- Title: HeatOperatorBase&lt; T, DIM, NLFI, LHS_NLFI, OPEBASE &gt; Pages: 1 -->
<svg width="772pt" height="111pt"
 viewBox="0.00 0.00 772.00 111.00" xmlns="http://www.w3.org/2000/svg" xmlns:xlink="http://www.w3.org/1999/xlink">
<g id="graph0" class="graph" transform="scale(1 1) rotate(0) translate(4 107)">
<title>HeatOperatorBase&lt; T, DIM, NLFI, LHS_NLFI, OPEBASE &gt;</title>
<!-- Node1 -->
<g id="node1" class="node">
<title>Node1</title>
<g id="a_node1"><a xlink:title="Base class for Mass Heat.">
<polygon fill="#bfbfbf" stroke="black" points="0,-29.5 0,-70.5 137,-70.5 137,-29.5 0,-29.5"/>
<text text-anchor="start" x="8" y="-58.5" font-family="serif" font-size="10.00">HeatOperatorBase&lt; T,</text>
<text text-anchor="start" x="8" y="-47.5" font-family="serif" font-size="10.00"> DIM, NLFI, LHS_NLFI,</text>
<text text-anchor="middle" x="68.5" y="-36.5" font-family="serif" font-size="10.00"> OPEBASE &gt;</text>
</a>
</g>
</g>
<!-- Node2 -->
<g id="node2" class="node">
<title>Node2</title>
<g id="a_node2"><a xlink:href="classHeatOperatorBase.html" target="_top" xlink:title=" ">
<polygon fill="none" stroke="black" points="342,-60.5 342,-101.5 560,-101.5 560,-60.5 342,-60.5"/>
<text text-anchor="start" x="350" y="-89.5" font-family="serif" font-size="10.00">HeatOperatorBase&lt; T,</text>
<text text-anchor="start" x="350" y="-78.5" font-family="serif" font-size="10.00"> DIM, NLFI, mfem::BlockNonlinear</text>
<text text-anchor="middle" x="451" y="-67.5" font-family="serif" font-size="10.00">FormIntegrator, SteadyOperatorBase &gt;</text>
</a>
</g>
</g>
<!-- Node1&#45;&gt;Node2 -->
<g id="edge1" class="edge">
<title>Node1&#45;&gt;Node2</title>
<path fill="none" stroke="orange" stroke-dasharray="5,2" d="M147.31,-56.34C203.34,-60.9 279.68,-67.12 341.68,-72.17"/>
<polygon fill="orange" stroke="orange" points="147.34,-52.83 137.09,-55.51 146.77,-59.81 147.34,-52.83"/>
<text text-anchor="start" x="156.5" y="-95" font-family="serif" font-size="10.00"> &lt; T, DIM, NLFI, mfem</text>
<text text-anchor="start" x="156.5" y="-84" font-family="serif" font-size="10.00">::BlockNonlinearFormIntegrator,</text>
<text text-anchor="middle" x="239.5" y="-73" font-family="serif" font-size="10.00"> SteadyOperatorBase &gt;</text>
</g>
<!-- Node4 -->
<g id="node4" class="node">
<title>Node4</title>
<g id="a_node4"><a xlink:href="classHeatOperatorBase.html" target="_top" xlink:title=" ">
<polygon fill="none" stroke="black" points="376,-0.5 376,-41.5 526,-41.5 526,-0.5 376,-0.5"/>
<text text-anchor="start" x="384" y="-29.5" font-family="serif" font-size="10.00">HeatOperatorBase&lt; T,</text>
<text text-anchor="start" x="384" y="-18.5" font-family="serif" font-size="10.00"> DIM, NLFI, LHS_NLFI,</text>
<text text-anchor="middle" x="451" y="-7.5" font-family="serif" font-size="10.00"> TransientOperatorBase &gt;</text>
</a>
</g>
</g>
<!-- Node1&#45;&gt;Node4 -->
<g id="edge3" class="edge">
<title>Node1&#45;&gt;Node4</title>
<path fill="none" stroke="orange" stroke-dasharray="5,2" d="M146.93,-34.05C149.65,-33.67 152.34,-33.32 155,-33 229.82,-24.09 315.98,-21.46 375.79,-20.83"/>
<polygon fill="orange" stroke="orange" points="146.37,-30.6 137.02,-35.57 147.43,-37.52 146.37,-30.6"/>
<text text-anchor="start" x="155" y="-47" font-family="serif" font-size="10.00"> &lt; T, DIM, NLFI, LHS</text>
<text text-anchor="middle" x="239.5" y="-36" font-family="serif" font-size="10.00">_NLFI, TransientOperatorBase &gt;</text>
</g>
<!-- Node3 -->
<g id="node3" class="node">
<title>Node3</title>
<g id="a_node3"><a xlink:href="classSteadyHeatOperator.html" target="_top" xlink:title="Class SteadyHeatOperator.">
<polygon fill="none" stroke="black" points="619.5,-60.5 619.5,-101.5 741.5,-101.5 741.5,-60.5 619.5,-60.5"/>
<text text-anchor="start" x="627.5" y="-89.5" font-family="serif" font-size="10.00">SteadyHeatOperator</text>
<text text-anchor="start" x="627.5" y="-78.5" font-family="serif" font-size="10.00">&lt; T, DIM, NLFI, LHS</text>
<text text-anchor="middle" x="680.5" y="-67.5" font-family="serif" font-size="10.00">_NLFI &gt;</text>
</a>
</g>
</g>
<!-- Node2&#45;&gt;Node3 -->
<g id="edge2" class="edge">
<title>Node2&#45;&gt;Node3</title>
<path fill="none" stroke="midnightblue" d="M570.14,-81C587.21,-81 604.14,-81 619.4,-81"/>
<polygon fill="midnightblue" stroke="midnightblue" points="570.09,-77.5 560.09,-81 570.09,-84.5 570.09,-77.5"/>
</g>
<!-- Node5 -->
<g id="node5" class="node">
<title>Node5</title>
<g id="a_node5"><a xlink:href="classHeatOperator.html" target="_top" xlink:title="Class HeatOperator.">
<polygon fill="none" stroke="black" points="597,-6 597,-36 764,-36 764,-6 597,-6"/>
<text text-anchor="start" x="605" y="-24" font-family="serif" font-size="10.00">HeatOperator&lt; T, DIM,</text>
<text text-anchor="middle" x="680.5" y="-13" font-family="serif" font-size="10.00"> NLFI, LHS_NLFI, RHO, CP &gt;</text>
</a>
</g>
</g>
<!-- Node4&#45;&gt;Node5 -->
<g id="edge4" class="edge">
<title>Node4&#45;&gt;Node5</title>
<path fill="none" stroke="midnightblue" d="M536.37,-21C556.1,-21 577.1,-21 596.76,-21"/>
<polygon fill="midnightblue" stroke="midnightblue" points="536.18,-17.5 526.18,-21 536.18,-24.5 536.18,-17.5"/>
</g>
</g>
</svg>
