<?xml version="1.0" encoding="UTF-8" standalone="no"?>
<!DOCTYPE svg PUBLIC "-//W3C//DTD SVG 1.1//EN"
 "http://www.w3.org/Graphics/SVG/1.1/DTD/svg11.dtd">
<!-- Generated by graphviz version 2.43.0 (0)
 -->
<!-- Title: DiffusionNLFormIntegrator&lt; VARS, SCHEME, DIFFU_NAME &gt; Pages: 1 -->
<svg width="210pt" height="174pt"
 viewBox="0.00 0.00 210.00 174.00" xmlns="http://www.w3.org/2000/svg" xmlns:xlink="http://www.w3.org/1999/xlink">
<g id="graph0" class="graph" transform="scale(1 1) rotate(0) translate(4 170)">
<title>DiffusionNLFormIntegrator&lt; VARS, SCHEME, DIFFU_NAME &gt;</title>
<!-- Node1 -->
<g id="node1" class="node">
<title>Node1</title>
<g id="a_node1"><a xlink:title="Class dedicated to the FV of the mass diffusion equation.">
<polygon fill="#bfbfbf" stroke="black" points="0,-0.5 0,-30.5 202,-30.5 202,-0.5 0,-0.5"/>
<text text-anchor="start" x="8" y="-18.5" font-family="serif" font-size="10.00">DiffusionNLFormIntegrator</text>
<text text-anchor="middle" x="101" y="-7.5" font-family="serif" font-size="10.00">&lt; VARS, SCHEME, DIFFU_NAME &gt;</text>
</a>
</g>
</g>
<!-- Node2 -->
<g id="node2" class="node">
<title>Node2</title>
<g id="a_node2"><a xlink:href="classSlothNLFormIntegrator.html" target="_top" xlink:title="Class prodiving common methods to all NLFormIntegrators.">
<polygon fill="none" stroke="black" points="32.5,-68.5 32.5,-98.5 169.5,-98.5 169.5,-68.5 32.5,-68.5"/>
<text text-anchor="start" x="40.5" y="-86.5" font-family="serif" font-size="10.00">SlothNLFormIntegrator</text>
<text text-anchor="middle" x="101" y="-75.5" font-family="serif" font-size="10.00">&lt; VARS &gt;</text>
</a>
</g>
</g>
<!-- Node2&#45;&gt;Node1 -->
<g id="edge1" class="edge">
<title>Node2&#45;&gt;Node1</title>
<path fill="none" stroke="midnightblue" d="M101,-58.03C101,-48.86 101,-38.74 101,-30.79"/>
<polygon fill="midnightblue" stroke="midnightblue" points="97.5,-58.18 101,-68.18 104.5,-58.18 97.5,-58.18"/>
</g>
<!-- Node3 -->
<g id="node3" class="node">
<title>Node3</title>
<g id="a_node3"><a xlink:href="classParameters.html" target="_top" xlink:title=" ">
<polygon fill="none" stroke="black" points="64,-146.5 64,-165.5 138,-165.5 138,-146.5 64,-146.5"/>
<text text-anchor="middle" x="101" y="-153.5" font-family="serif" font-size="10.00">Parameters</text>
</a>
</g>
</g>
<!-- Node3&#45;&gt;Node2 -->
<g id="edge2" class="edge">
<title>Node3&#45;&gt;Node2</title>
<path fill="none" stroke="#9a32cd" stroke-dasharray="5,2" d="M101,-136.24C101,-124.41 101,-109.38 101,-98.58"/>
<polygon fill="#9a32cd" stroke="#9a32cd" points="97.5,-136.36 101,-146.36 104.5,-136.36 97.5,-136.36"/>
<text text-anchor="middle" x="124.5" y="-120" font-family="serif" font-size="10.00"> params_</text>
</g>
</g>
</svg>
