<?xml version="1.0" encoding="UTF-8" standalone="no"?>
<!DOCTYPE svg PUBLIC "-//W3C//DTD SVG 1.1//EN"
 "http://www.w3.org/Graphics/SVG/1.1/DTD/svg11.dtd">
<!-- Generated by graphviz version 2.43.0 (0)
 -->
<!-- Title: HeatNLFormIntegrator::HeatNLFormIntegrator Pages: 1 -->
<svg width="323pt" height="137pt"
 viewBox="0.00 0.00 323.00 137.00" xmlns="http://www.w3.org/2000/svg" xmlns:xlink="http://www.w3.org/1999/xlink">
<g id="graph0" class="graph" transform="scale(1 1) rotate(0) translate(4 133)">
<title>HeatNLFormIntegrator::HeatNLFormIntegrator</title>
<!-- Node1 -->
<g id="node1" class="node">
<title>Node1</title>
<g id="a_node1"><a xlink:title="Construct a new HeatNLFormIntegrator&lt;SCHEME, COEFFICIENT&gt;::HeatNLFormIntegrator object.">
<polygon fill="#bfbfbf" stroke="black" points="0,-49.5 0,-79.5 142,-79.5 142,-49.5 0,-49.5"/>
<text text-anchor="start" x="8" y="-67.5" font-family="serif" font-size="10.00">HeatNLFormIntegrator</text>
<text text-anchor="middle" x="71" y="-56.5" font-family="serif" font-size="10.00">::HeatNLFormIntegrator</text>
</a>
</g>
</g>
<!-- Node2 -->
<g id="node2" class="node">
<title>Node2</title>
<g id="a_node2"><a xlink:href="classSlothNLFormIntegrator.html#a31d58b855462a8fb4e93f191b426b07c" target="_top" xlink:title="Return a vector of GridFunction associated with auxiliary variables.">
<polygon fill="none" stroke="black" points="178,-98.5 178,-128.5 315,-128.5 315,-98.5 178,-98.5"/>
<text text-anchor="start" x="186" y="-116.5" font-family="serif" font-size="10.00">SlothNLFormIntegrator</text>
<text text-anchor="middle" x="246.5" y="-105.5" font-family="serif" font-size="10.00">::get_aux_gf</text>
</a>
</g>
</g>
<!-- Node1&#45;&gt;Node2 -->
<g id="edge1" class="edge">
<title>Node1&#45;&gt;Node2</title>
<path fill="none" stroke="midnightblue" d="M125.47,-79.6C143.53,-84.7 163.86,-90.44 182.58,-95.73"/>
<polygon fill="midnightblue" stroke="midnightblue" points="181.63,-99.1 192.21,-98.45 183.53,-92.36 181.63,-99.1"/>
</g>
<!-- Node3 -->
<g id="node3" class="node">
<title>Node3</title>
<g id="a_node3"><a xlink:href="classSlothNLFormIntegrator.html#a33910e73d9230438602936dade46e458" target="_top" xlink:title="Return a vector of the additional information (vector of string) associated with auxiliary variables.">
<polygon fill="none" stroke="black" points="178,-49.5 178,-79.5 315,-79.5 315,-49.5 178,-49.5"/>
<text text-anchor="start" x="186" y="-67.5" font-family="serif" font-size="10.00">SlothNLFormIntegrator</text>
<text text-anchor="middle" x="246.5" y="-56.5" font-family="serif" font-size="10.00">::get_aux_infos</text>
</a>
</g>
</g>
<!-- Node1&#45;&gt;Node3 -->
<g id="edge2" class="edge">
<title>Node1&#45;&gt;Node3</title>
<path fill="none" stroke="midnightblue" d="M142.07,-64.5C150.59,-64.5 159.33,-64.5 167.94,-64.5"/>
<polygon fill="midnightblue" stroke="midnightblue" points="167.98,-68 177.98,-64.5 167.98,-61 167.98,-68"/>
</g>
<!-- Node4 -->
<g id="node4" class="node">
<title>Node4</title>
<g id="a_node4"><a xlink:href="classSlothNLFormIntegrator.html#abfe86f09f35b0f9b279ed0ea0e66a205" target="_top" xlink:title="Return a vector of GridFunction associated with auxiliary variables at the previous time&#45;step.">
<polygon fill="none" stroke="black" points="178,-0.5 178,-30.5 315,-30.5 315,-0.5 178,-0.5"/>
<text text-anchor="start" x="186" y="-18.5" font-family="serif" font-size="10.00">SlothNLFormIntegrator</text>
<text text-anchor="middle" x="246.5" y="-7.5" font-family="serif" font-size="10.00">::get_aux_old_gf</text>
</a>
</g>
</g>
<!-- Node1&#45;&gt;Node4 -->
<g id="edge3" class="edge">
<title>Node1&#45;&gt;Node4</title>
<path fill="none" stroke="midnightblue" d="M125.47,-49.4C143.53,-44.3 163.86,-38.56 182.58,-33.27"/>
<polygon fill="midnightblue" stroke="midnightblue" points="183.53,-36.64 192.21,-30.55 181.63,-29.9 183.53,-36.64"/>
</g>
</g>
</svg>
