<?xml version="1.0" encoding="UTF-8" standalone="no"?>
<!DOCTYPE svg PUBLIC "-//W3C//DTD SVG 1.1//EN"
 "http://www.w3.org/Graphics/SVG/1.1/DTD/svg11.dtd">
<!-- Generated by graphviz version 2.43.0 (0)
 -->
<!-- Title: AllenCahnConstantMeltingNLFormIntegrator&lt; VARS, SCHEME, ENERGY, MOBI, INTERPOLATION &gt; Pages: 1 -->
<svg width="783pt" height="61pt"
 viewBox="0.00 0.00 783.00 61.00" xmlns="http://www.w3.org/2000/svg" xmlns:xlink="http://www.w3.org/1999/xlink">
<g id="graph0" class="graph" transform="scale(1 1) rotate(0) translate(4 57)">
<title>AllenCahnConstantMeltingNLFormIntegrator&lt; VARS, SCHEME, ENERGY, MOBI, INTERPOLATION &gt;</title>
<!-- Node1 -->
<g id="node1" class="node">
<title>Node1</title>
<g id="a_node1"><a xlink:title=" ">
<polygon fill="#bfbfbf" stroke="black" points="617,-0.5 617,-52.5 775,-52.5 775,-0.5 617,-0.5"/>
<text text-anchor="start" x="625" y="-40.5" font-family="serif" font-size="10.00">AllenCahnConstantMelting</text>
<text text-anchor="start" x="625" y="-29.5" font-family="serif" font-size="10.00">NLFormIntegrator&lt; VARS,</text>
<text text-anchor="start" x="625" y="-18.5" font-family="serif" font-size="10.00"> SCHEME, ENERGY, MOBI,</text>
<text text-anchor="middle" x="696" y="-7.5" font-family="serif" font-size="10.00"> INTERPOLATION &gt;</text>
</a>
</g>
</g>
<!-- Node2 -->
<g id="node2" class="node">
<title>Node2</title>
<g id="a_node2"><a xlink:href="classAllenCahnMeltingBaseNLFormIntegrator.html" target="_top" xlink:title=" ">
<polygon fill="none" stroke="black" points="373,-6 373,-47 581,-47 581,-6 373,-6"/>
<text text-anchor="start" x="381" y="-35" font-family="serif" font-size="10.00">AllenCahnMeltingBaseNLForm</text>
<text text-anchor="start" x="381" y="-24" font-family="serif" font-size="10.00">Integrator&lt; VARS, SCHEME,</text>
<text text-anchor="middle" x="477" y="-13" font-family="serif" font-size="10.00"> ENERGY, MOBI, INTERPOLATION &gt;</text>
</a>
</g>
</g>
<!-- Node2&#45;&gt;Node1 -->
<g id="edge1" class="edge">
<title>Node2&#45;&gt;Node1</title>
<path fill="none" stroke="midnightblue" d="M591.26,-26.5C599.9,-26.5 608.51,-26.5 616.86,-26.5"/>
<polygon fill="midnightblue" stroke="midnightblue" points="591.1,-23 581.1,-26.5 591.1,-30 591.1,-23"/>
</g>
<!-- Node3 -->
<g id="node3" class="node">
<title>Node3</title>
<g id="a_node3"><a xlink:href="classAllenCahnNLFormIntegrator.html" target="_top" xlink:title="Class dedicated to the FV of the Allen Cahn equation.">
<polygon fill="none" stroke="black" points="173,-6 173,-47 337,-47 337,-6 173,-6"/>
<text text-anchor="start" x="181" y="-35" font-family="serif" font-size="10.00">AllenCahnNLFormIntegrator</text>
<text text-anchor="start" x="181" y="-24" font-family="serif" font-size="10.00">&lt; VARS, SCHEME, ENERGY,</text>
<text text-anchor="middle" x="255" y="-13" font-family="serif" font-size="10.00"> MOBI &gt;</text>
</a>
</g>
</g>
<!-- Node3&#45;&gt;Node2 -->
<g id="edge2" class="edge">
<title>Node3&#45;&gt;Node2</title>
<path fill="none" stroke="midnightblue" d="M347.48,-26.5C355.9,-26.5 364.47,-26.5 372.99,-26.5"/>
<polygon fill="midnightblue" stroke="midnightblue" points="347.29,-23 337.29,-26.5 347.29,-30 347.29,-23"/>
</g>
<!-- Node4 -->
<g id="node4" class="node">
<title>Node4</title>
<g id="a_node4"><a xlink:href="classSlothNLFormIntegrator.html" target="_top" xlink:title="Class prodiving common methods to all NLFormIntegrators.">
<polygon fill="none" stroke="black" points="0,-11.5 0,-41.5 137,-41.5 137,-11.5 0,-11.5"/>
<text text-anchor="start" x="8" y="-29.5" font-family="serif" font-size="10.00">SlothNLFormIntegrator</text>
<text text-anchor="middle" x="68.5" y="-18.5" font-family="serif" font-size="10.00">&lt; VARS &gt;</text>
</a>
</g>
</g>
<!-- Node4&#45;&gt;Node3 -->
<g id="edge3" class="edge">
<title>Node4&#45;&gt;Node3</title>
<path fill="none" stroke="midnightblue" d="M147.35,-26.5C155.8,-26.5 164.41,-26.5 172.89,-26.5"/>
<polygon fill="midnightblue" stroke="midnightblue" points="147.15,-23 137.15,-26.5 147.15,-30 147.15,-23"/>
</g>
</g>
</svg>
