<?xml version="1.0" encoding="UTF-8" standalone="no"?>
<!DOCTYPE svg PUBLIC "-//W3C//DTD SVG 1.1//EN"
 "http://www.w3.org/Graphics/SVG/1.1/DTD/svg11.dtd">
<!-- Generated by graphviz version 2.43.0 (0)
 -->
<!-- Title: ThermalDiffusionFluxNLFormIntegrator&lt; VARS &gt; Pages: 1 -->
<svg width="187pt" height="173pt"
 viewBox="0.00 0.00 187.00 173.00" xmlns="http://www.w3.org/2000/svg" xmlns:xlink="http://www.w3.org/1999/xlink">
<g id="graph0" class="graph" transform="scale(1 1) rotate(0) translate(4 169)">
<title>ThermalDiffusionFluxNLFormIntegrator&lt; VARS &gt;</title>
<!-- Node1 -->
<g id="node1" class="node">
<title>Node1</title>
<g id="a_node1"><a xlink:title="Class dedicated to the VF of thermal diffusion flux used in energy balance equation.">
<polygon fill="#bfbfbf" stroke="black" points="4.5,-0.5 4.5,-30.5 174.5,-30.5 174.5,-0.5 4.5,-0.5"/>
<text text-anchor="start" x="12.5" y="-18.5" font-family="serif" font-size="10.00">ThermalDiffusionFluxNLForm</text>
<text text-anchor="middle" x="89.5" y="-7.5" font-family="serif" font-size="10.00">Integrator&lt; VARS &gt;</text>
</a>
</g>
</g>
<!-- Node2 -->
<g id="node2" class="node">
<title>Node2</title>
<g id="a_node2"><a xlink:href="classDiffusionFluxNLFormIntegrator.html" target="_top" xlink:title="Class dedicated to the VF of an inter&#45;diffusion equation.">
<polygon fill="none" stroke="black" points="0,-67.5 0,-97.5 179,-97.5 179,-67.5 0,-67.5"/>
<text text-anchor="start" x="8" y="-85.5" font-family="serif" font-size="10.00">DiffusionFluxNLFormIntegrator</text>
<text text-anchor="middle" x="89.5" y="-74.5" font-family="serif" font-size="10.00">&lt; VARS &gt;</text>
</a>
</g>
</g>
<!-- Node2&#45;&gt;Node1 -->
<g id="edge1" class="edge">
<title>Node2&#45;&gt;Node1</title>
<path fill="none" stroke="midnightblue" d="M89.5,-57.11C89.5,-48.15 89.5,-38.32 89.5,-30.58"/>
<polygon fill="midnightblue" stroke="midnightblue" points="86,-57.4 89.5,-67.4 93,-57.4 86,-57.4"/>
</g>
<!-- Node3 -->
<g id="node3" class="node">
<title>Node3</title>
<g id="a_node3"><a xlink:href="classSlothNLFormIntegrator.html" target="_top" xlink:title="Class prodiving common methods to all NLFormIntegrators.">
<polygon fill="none" stroke="black" points="21,-134.5 21,-164.5 158,-164.5 158,-134.5 21,-134.5"/>
<text text-anchor="start" x="29" y="-152.5" font-family="serif" font-size="10.00">SlothNLFormIntegrator</text>
<text text-anchor="middle" x="89.5" y="-141.5" font-family="serif" font-size="10.00">&lt; VARS &gt;</text>
</a>
</g>
</g>
<!-- Node3&#45;&gt;Node2 -->
<g id="edge2" class="edge">
<title>Node3&#45;&gt;Node2</title>
<path fill="none" stroke="midnightblue" d="M89.5,-124.11C89.5,-115.15 89.5,-105.32 89.5,-97.58"/>
<polygon fill="midnightblue" stroke="midnightblue" points="86,-124.4 89.5,-134.4 93,-124.4 86,-124.4"/>
</g>
</g>
</svg>
