<?xml version="1.0" encoding="UTF-8" standalone="no"?>
<!DOCTYPE svg PUBLIC "-//W3C//DTD SVG 1.1//EN"
 "http://www.w3.org/Graphics/SVG/1.1/DTD/svg11.dtd">
<!-- Generated by graphviz version 2.43.0 (0)
 -->
<!-- Title: Parameters::get_param_value Pages: 1 -->
<svg width="505pt" height="1597pt"
 viewBox="0.00 0.00 505.00 1597.00" xmlns="http://www.w3.org/2000/svg" xmlns:xlink="http://www.w3.org/1999/xlink">
<g id="graph0" class="graph" transform="scale(1 1) rotate(0) translate(4 1593)">
<title>Parameters::get_param_value</title>
<!-- Node1 -->
<g id="node1" class="node">
<title>Node1</title>
<g id="a_node1"><a xlink:title="Return the value of the parameter associated to the given name.">
<polygon fill="#bfbfbf" stroke="black" points="362,-784.5 362,-814.5 497,-814.5 497,-784.5 362,-784.5"/>
<text text-anchor="start" x="370" y="-802.5" font-family="serif" font-size="10.00">Parameters::get_param</text>
<text text-anchor="middle" x="429.5" y="-791.5" font-family="serif" font-size="10.00">_value</text>
</a>
</g>
</g>
<!-- Node2 -->
<g id="node2" class="node">
<title>Node2</title>
<g id="a_node2"><a xlink:href="classSolverUMFPACK.html#a8a0cb7f36e9e9fa812fb45b23e39ab62" target="_top" xlink:title="Create a direct solver based of the SolverType and a list of Parameters.">
<polygon fill="none" stroke="black" points="176.5,-1558.5 176.5,-1588.5 316.5,-1588.5 316.5,-1558.5 176.5,-1558.5"/>
<text text-anchor="start" x="184.5" y="-1576.5" font-family="serif" font-size="10.00">SolverUMFPACK::create</text>
<text text-anchor="middle" x="246.5" y="-1565.5" font-family="serif" font-size="10.00">_solver</text>
</a>
</g>
</g>
<!-- Node1&#45;&gt;Node2 -->
<g id="edge1" class="edge">
<title>Node1&#45;&gt;Node2</title>
<path fill="none" stroke="midnightblue" d="M428.57,-824.89C428.38,-942.91 421.8,-1436.9 326,-1549.5 323.14,-1552.86 319.82,-1555.77 316.19,-1558.27"/>
<polygon fill="midnightblue" stroke="midnightblue" points="432.07,-824.67 428.57,-814.67 425.07,-824.67 432.07,-824.67"/>
</g>
<!-- Node4 -->
<g id="node4" class="node">
<title>Node4</title>
<g id="a_node4"><a xlink:href="classPrecondHypreILU.html#a9747a2d4154f14a83fb87b1f398973ff" target="_top" xlink:title="Create preconditioner based of the PreconditionerType and a list of Parameters.">
<polygon fill="none" stroke="black" points="173.5,-1509.5 173.5,-1539.5 319.5,-1539.5 319.5,-1509.5 173.5,-1509.5"/>
<text text-anchor="start" x="181.5" y="-1527.5" font-family="serif" font-size="10.00">PrecondHypreILU::create</text>
<text text-anchor="middle" x="246.5" y="-1516.5" font-family="serif" font-size="10.00">_solver</text>
</a>
</g>
</g>
<!-- Node1&#45;&gt;Node4 -->
<g id="edge3" class="edge">
<title>Node1&#45;&gt;Node4</title>
<path fill="none" stroke="midnightblue" d="M428.3,-824.66C426.92,-937.51 415.77,-1395.98 326,-1500.5 323.03,-1503.96 319.57,-1506.93 315.8,-1509.48"/>
<polygon fill="midnightblue" stroke="midnightblue" points="431.8,-824.6 428.41,-814.57 424.8,-824.53 431.8,-824.6"/>
</g>
<!-- Node5 -->
<g id="node5" class="node">
<title>Node5</title>
<g id="a_node5"><a xlink:href="classPrecondHypreSmoother.html#a1d685276c8db4a0c7c3acd12662fffd1" target="_top" xlink:title="Create preconditioner based of the PreconditionerType and a list of Parameters.">
<polygon fill="none" stroke="black" points="176.5,-1460.5 176.5,-1490.5 316.5,-1490.5 316.5,-1460.5 176.5,-1460.5"/>
<text text-anchor="start" x="184.5" y="-1478.5" font-family="serif" font-size="10.00">PrecondHypreSmoother</text>
<text text-anchor="middle" x="246.5" y="-1467.5" font-family="serif" font-size="10.00">::create_solver</text>
</a>
</g>
</g>
<!-- Node1&#45;&gt;Node5 -->
<g id="edge5" class="edge">
<title>Node1&#45;&gt;Node5</title>
<path fill="none" stroke="midnightblue" d="M427.99,-824.95C425.32,-933.32 409.62,-1355.19 326,-1451.5 323.01,-1454.94 319.54,-1457.9 315.76,-1460.44"/>
<polygon fill="midnightblue" stroke="midnightblue" points="431.5,-824.73 428.23,-814.65 424.5,-824.57 431.5,-824.73"/>
</g>
<!-- Node6 -->
<g id="node6" class="node">
<title>Node6</title>
<g id="a_node6"><a xlink:href="classPrecondHypreBoomerAMG.html#ae9b8748901ee350584a1c8e3b33eb0a6" target="_top" xlink:title="Create preconditioner based of the PreconditionerType and a list of Parameters.">
<polygon fill="none" stroke="black" points="168,-1411.5 168,-1441.5 325,-1441.5 325,-1411.5 168,-1411.5"/>
<text text-anchor="start" x="176" y="-1429.5" font-family="serif" font-size="10.00">PrecondHypreBoomerAMG</text>
<text text-anchor="middle" x="246.5" y="-1418.5" font-family="serif" font-size="10.00">::create_solver</text>
</a>
</g>
</g>
<!-- Node1&#45;&gt;Node6 -->
<g id="edge7" class="edge">
<title>Node1&#45;&gt;Node6</title>
<path fill="none" stroke="midnightblue" d="M427.64,-824.69C423.65,-927.51 403.63,-1314.21 326,-1402.5 322.99,-1405.92 319.5,-1408.87 315.71,-1411.4"/>
<polygon fill="midnightblue" stroke="midnightblue" points="431.15,-824.73 428.02,-814.6 424.15,-824.47 431.15,-824.73"/>
</g>
<!-- Node7 -->
<g id="node7" class="node">
<title>Node7</title>
<g id="a_node7"><a xlink:href="classPrecondHypreDiagScale.html#a99a26e0ad57569f0186c286191e591cc" target="_top" xlink:title="Create preconditioner based of the PreconditionerType and a list of Parameters.">
<polygon fill="none" stroke="black" points="175.5,-1362.5 175.5,-1392.5 317.5,-1392.5 317.5,-1362.5 175.5,-1362.5"/>
<text text-anchor="start" x="183.5" y="-1380.5" font-family="serif" font-size="10.00">PrecondHypreDiagScale</text>
<text text-anchor="middle" x="246.5" y="-1369.5" font-family="serif" font-size="10.00">::create_solver</text>
</a>
</g>
</g>
<!-- Node1&#45;&gt;Node7 -->
<g id="edge9" class="edge">
<title>Node1&#45;&gt;Node7</title>
<path fill="none" stroke="midnightblue" d="M427.22,-824.82C421.8,-922.48 397.56,-1273.3 326,-1353.5 322.96,-1356.9 319.46,-1359.83 315.65,-1362.35"/>
<polygon fill="midnightblue" stroke="midnightblue" points="430.73,-824.86 427.77,-814.68 423.74,-824.48 430.73,-824.86"/>
</g>
<!-- Node8 -->
<g id="node8" class="node">
<title>Node8</title>
<g id="a_node8"><a xlink:href="classSolverHyprePCG.html#a2122f479fde910c6a27b6f74bf750324" target="_top" xlink:title="Create a iterative solver based of the SolverType and a list of Parameters.">
<polygon fill="none" stroke="black" points="176,-1313.5 176,-1343.5 317,-1343.5 317,-1313.5 176,-1313.5"/>
<text text-anchor="start" x="184" y="-1331.5" font-family="serif" font-size="10.00">SolverHyprePCG::create</text>
<text text-anchor="middle" x="246.5" y="-1320.5" font-family="serif" font-size="10.00">_solver</text>
</a>
</g>
</g>
<!-- Node1&#45;&gt;Node8 -->
<g id="edge11" class="edge">
<title>Node1&#45;&gt;Node8</title>
<path fill="none" stroke="midnightblue" d="M426.74,-824.64C419.82,-916.48 391.59,-1232.26 326,-1304.5 322.93,-1307.88 319.41,-1310.78 315.59,-1313.29"/>
<polygon fill="midnightblue" stroke="midnightblue" points="430.24,-824.81 427.48,-814.58 423.26,-824.3 430.24,-824.81"/>
</g>
<!-- Node9 -->
<g id="node9" class="node">
<title>Node9</title>
<g id="a_node9"><a xlink:href="classSolverHypreGMRES.html#ae8cd627c6a9dddb56c4ac48a134de7e0" target="_top" xlink:title="Create a iterative solver based of the SolverType and a list of Parameters.">
<polygon fill="none" stroke="black" points="167,-1264.5 167,-1294.5 326,-1294.5 326,-1264.5 167,-1264.5"/>
<text text-anchor="start" x="175" y="-1282.5" font-family="serif" font-size="10.00">SolverHypreGMRES::create</text>
<text text-anchor="middle" x="246.5" y="-1271.5" font-family="serif" font-size="10.00">_solver</text>
</a>
</g>
</g>
<!-- Node1&#45;&gt;Node9 -->
<g id="edge13" class="edge">
<title>Node1&#45;&gt;Node9</title>
<path fill="none" stroke="midnightblue" d="M426.14,-824.68C417.6,-910.7 385.59,-1191.23 326,-1255.5 322.8,-1258.95 319.13,-1261.91 315.14,-1264.44"/>
<polygon fill="midnightblue" stroke="midnightblue" points="429.65,-824.81 427.13,-814.52 422.68,-824.13 429.65,-824.81"/>
</g>
<!-- Node10 -->
<g id="node10" class="node">
<title>Node10</title>
<g id="a_node10"><a xlink:href="classSolverHypreFGMRES.html#a59a039f5afb942d01777103bad40c300" target="_top" xlink:title="Create a iterative solver based of the SolverType and a list of Parameters.">
<polygon fill="none" stroke="black" points="179.5,-1215.5 179.5,-1245.5 313.5,-1245.5 313.5,-1215.5 179.5,-1215.5"/>
<text text-anchor="start" x="187.5" y="-1233.5" font-family="serif" font-size="10.00">SolverHypreFGMRES::</text>
<text text-anchor="middle" x="246.5" y="-1222.5" font-family="serif" font-size="10.00">create_solver</text>
</a>
</g>
</g>
<!-- Node1&#45;&gt;Node10 -->
<g id="edge15" class="edge">
<title>Node1&#45;&gt;Node10</title>
<path fill="none" stroke="midnightblue" d="M425.39,-824.81C415.08,-904.8 379.6,-1150.15 326,-1206.5 322.37,-1210.32 318.14,-1213.54 313.58,-1216.25"/>
<polygon fill="midnightblue" stroke="midnightblue" points="428.89,-825.02 426.68,-814.66 421.95,-824.14 428.89,-825.02"/>
</g>
<!-- Node11 -->
<g id="node11" class="node">
<title>Node11</title>
<g id="a_node11"><a xlink:href="classSolverBICGSTAB.html#a555f9875dc6d8572bfc1ff0032635c6d" target="_top" xlink:title="Create a iterative solver based of the SolverType and a list of Parameters.">
<polygon fill="none" stroke="black" points="176,-1166.5 176,-1196.5 317,-1196.5 317,-1166.5 176,-1166.5"/>
<text text-anchor="start" x="184" y="-1184.5" font-family="serif" font-size="10.00">SolverBICGSTAB::create</text>
<text text-anchor="middle" x="246.5" y="-1173.5" font-family="serif" font-size="10.00">_solver</text>
</a>
</g>
</g>
<!-- Node1&#45;&gt;Node11 -->
<g id="edge17" class="edge">
<title>Node1&#45;&gt;Node11</title>
<path fill="none" stroke="midnightblue" d="M428.98,-824.63C428.79,-889.24 419.15,-1062.67 326,-1157.5 322.6,-1160.96 318.73,-1163.92 314.55,-1166.46"/>
<polygon fill="midnightblue" stroke="midnightblue" points="432.48,-824.53 428.93,-814.55 425.48,-824.57 432.48,-824.53"/>
</g>
<!-- Node12 -->
<g id="node12" class="node">
<title>Node12</title>
<g id="a_node12"><a xlink:href="classSolverMINRES.html#ae0ec160e28632f6538ec16fc476cd14b" target="_top" xlink:title=" ">
<polygon fill="none" stroke="black" points="181,-1117.5 181,-1147.5 312,-1147.5 312,-1117.5 181,-1117.5"/>
<text text-anchor="start" x="189" y="-1135.5" font-family="serif" font-size="10.00">SolverMINRES::create</text>
<text text-anchor="middle" x="246.5" y="-1124.5" font-family="serif" font-size="10.00">_solver</text>
</a>
</g>
</g>
<!-- Node1&#45;&gt;Node12 -->
<g id="edge19" class="edge">
<title>Node1&#45;&gt;Node12</title>
<path fill="none" stroke="midnightblue" d="M427.5,-824.98C423.83,-883.37 406.63,-1027.91 326,-1107.5 321.93,-1111.52 317.21,-1114.89 312.15,-1117.72"/>
<polygon fill="midnightblue" stroke="midnightblue" points="431.01,-824.98 428.06,-814.81 424.02,-824.6 431.01,-824.98"/>
</g>
<!-- Node13 -->
<g id="node13" class="node">
<title>Node13</title>
<g id="a_node13"><a xlink:href="classSolverCG.html#abb8abcd3768a748ab1c4cc366799e146" target="_top" xlink:title=" ">
<polygon fill="none" stroke="black" points="177.5,-1079 177.5,-1098 315.5,-1098 315.5,-1079 177.5,-1079"/>
<text text-anchor="middle" x="246.5" y="-1086" font-family="serif" font-size="10.00">SolverCG::create_solver</text>
</a>
</g>
</g>
<!-- Node1&#45;&gt;Node13 -->
<g id="edge21" class="edge">
<title>Node1&#45;&gt;Node13</title>
<path fill="none" stroke="midnightblue" d="M426.55,-824.79C421.03,-878.4 400.41,-1003.88 326,-1069.5 321.69,-1073.3 316.74,-1076.37 311.48,-1078.85"/>
<polygon fill="midnightblue" stroke="midnightblue" points="430.04,-825.06 427.49,-814.78 423.08,-824.41 430.04,-825.06"/>
</g>
<!-- Node14 -->
<g id="node14" class="node">
<title>Node14</title>
<g id="a_node14"><a xlink:href="classSolverGMRES.html#a7416f84035ad3da9e20adbda9ffd8c22" target="_top" xlink:title=" ">
<polygon fill="none" stroke="black" points="183,-1029.5 183,-1059.5 310,-1059.5 310,-1029.5 183,-1029.5"/>
<text text-anchor="start" x="191" y="-1047.5" font-family="serif" font-size="10.00">SolverGMRES::create</text>
<text text-anchor="middle" x="246.5" y="-1036.5" font-family="serif" font-size="10.00">_solver</text>
</a>
</g>
</g>
<!-- Node1&#45;&gt;Node14 -->
<g id="edge23" class="edge">
<title>Node1&#45;&gt;Node14</title>
<path fill="none" stroke="midnightblue" d="M423.84,-824.62C414.04,-870.36 386.97,-967.39 326,-1020.5 321.27,-1024.62 315.85,-1028.03 310.11,-1030.86"/>
<polygon fill="midnightblue" stroke="midnightblue" points="427.3,-825.16 425.87,-814.66 420.44,-823.76 427.3,-825.16"/>
</g>
<!-- Node15 -->
<g id="node15" class="node">
<title>Node15</title>
<g id="a_node15"><a xlink:href="classNLSolverBase.html#a6454b04a9444bb6edb36bd417c1f681e" target="_top" xlink:title="Create non linear solver based of the NLSolverType and a list of Parameters.">
<polygon fill="none" stroke="black" points="183,-980.5 183,-1010.5 310,-1010.5 310,-980.5 183,-980.5"/>
<text text-anchor="start" x="191" y="-998.5" font-family="serif" font-size="10.00">NLSolverBase::create</text>
<text text-anchor="middle" x="246.5" y="-987.5" font-family="serif" font-size="10.00">_solver</text>
</a>
</g>
</g>
<!-- Node1&#45;&gt;Node15 -->
<g id="edge25" class="edge">
<title>Node1&#45;&gt;Node15</title>
<path fill="none" stroke="midnightblue" d="M420.32,-824.3C406.71,-861.72 375.88,-932.38 326,-971.5 321.18,-975.28 315.76,-978.47 310.09,-981.16"/>
<polygon fill="midnightblue" stroke="midnightblue" points="423.68,-825.28 423.7,-814.68 417.08,-822.95 423.68,-825.28"/>
</g>
<!-- Node16 -->
<g id="node16" class="node">
<title>Node16</title>
<g id="a_node16"><a xlink:href="classPrecondDSmoother.html#a04b157c452b242897c2e7e2fbdda790c" target="_top" xlink:title="Create preconditioner based of the PreconditionerType and a list of Parameters.">
<polygon fill="none" stroke="black" points="169.5,-931.5 169.5,-961.5 323.5,-961.5 323.5,-931.5 169.5,-931.5"/>
<text text-anchor="start" x="177.5" y="-949.5" font-family="serif" font-size="10.00">PrecondDSmoother::create</text>
<text text-anchor="middle" x="246.5" y="-938.5" font-family="serif" font-size="10.00">_solver</text>
</a>
</g>
</g>
<!-- Node1&#45;&gt;Node16 -->
<g id="edge26" class="edge">
<title>Node1&#45;&gt;Node16</title>
<path fill="none" stroke="midnightblue" d="M414.56,-823.5C397.23,-851.28 365.11,-896.52 326,-922.5 320.9,-925.89 315.29,-928.82 309.5,-931.35"/>
<polygon fill="midnightblue" stroke="midnightblue" points="417.65,-825.16 419.86,-814.8 411.67,-821.52 417.65,-825.16"/>
</g>
<!-- Node17 -->
<g id="node17" class="node">
<title>Node17</title>
<g id="a_node17"><a xlink:href="structConductivity__function_3_010_01_4.html#a64894d761a9a9614d9189bfe3ccf0f8e" target="_top" xlink:title="Get the Constant Conductivity fonction.">
<polygon fill="none" stroke="black" points="182.5,-882.5 182.5,-912.5 310.5,-912.5 310.5,-882.5 182.5,-882.5"/>
<text text-anchor="start" x="190.5" y="-900.5" font-family="serif" font-size="10.00">Conductivity_function</text>
<text text-anchor="middle" x="246.5" y="-889.5" font-family="serif" font-size="10.00">&lt; 0 &gt;::getConstant</text>
</a>
</g>
</g>
<!-- Node1&#45;&gt;Node17 -->
<g id="edge28" class="edge">
<title>Node1&#45;&gt;Node17</title>
<path fill="none" stroke="midnightblue" d="M403.22,-821.4C383.35,-837.67 354.38,-859.4 326,-873.5 319.24,-876.86 311.91,-879.86 304.54,-882.5"/>
<polygon fill="midnightblue" stroke="midnightblue" points="405.7,-823.89 411.15,-814.8 401.22,-818.51 405.7,-823.89"/>
</g>
<!-- Node18 -->
<g id="node18" class="node">
<title>Node18</title>
<g id="a_node18"><a xlink:href="structdensity__function_3_010_01_4.html#aa791768b8896b3a4df83fdd8450b1328" target="_top" xlink:title="Get the Constant Density fonction.">
<polygon fill="none" stroke="black" points="187,-833.5 187,-863.5 306,-863.5 306,-833.5 187,-833.5"/>
<text text-anchor="start" x="195" y="-851.5" font-family="serif" font-size="10.00">density_function&lt; 0</text>
<text text-anchor="middle" x="246.5" y="-840.5" font-family="serif" font-size="10.00"> &gt;::getConstant</text>
</a>
</g>
</g>
<!-- Node1&#45;&gt;Node18 -->
<g id="edge29" class="edge">
<title>Node1&#45;&gt;Node18</title>
<path fill="none" stroke="midnightblue" d="M362.94,-817.25C343.32,-822.56 322.01,-828.33 303.1,-833.45"/>
<polygon fill="midnightblue" stroke="midnightblue" points="363.98,-820.59 372.72,-814.6 362.15,-813.84 363.98,-820.59"/>
</g>
<!-- Node19 -->
<g id="node19" class="node">
<title>Node19</title>
<g id="a_node19"><a xlink:href="structDiffusion__function_3_010_01_4.html#a2bcbc21bbcc07898e9cfa08b1fdb15f6" target="_top" xlink:title="Get the Constant Diffusion fonction.">
<polygon fill="none" stroke="black" points="190,-784.5 190,-814.5 303,-814.5 303,-784.5 190,-784.5"/>
<text text-anchor="start" x="198" y="-802.5" font-family="serif" font-size="10.00">Diffusion_function</text>
<text text-anchor="middle" x="246.5" y="-791.5" font-family="serif" font-size="10.00">&lt; 0 &gt;::getConstant</text>
</a>
</g>
</g>
<!-- Node1&#45;&gt;Node19 -->
<g id="edge30" class="edge">
<title>Node1&#45;&gt;Node19</title>
<path fill="none" stroke="midnightblue" d="M351.78,-799.5C335.4,-799.5 318.4,-799.5 303.01,-799.5"/>
<polygon fill="midnightblue" stroke="midnightblue" points="351.87,-803 361.87,-799.5 351.87,-796 351.87,-803"/>
</g>
<!-- Node20 -->
<g id="node20" class="node">
<title>Node20</title>
<g id="a_node20"><a xlink:href="structHeatCapacity__function_3_010_01_4.html#a2cdd5d30e85ec35ed34647d423682aaa" target="_top" xlink:title="Get the Constant HeatCapacity fonction.">
<polygon fill="none" stroke="black" points="180,-735.5 180,-765.5 313,-765.5 313,-735.5 180,-735.5"/>
<text text-anchor="start" x="188" y="-753.5" font-family="serif" font-size="10.00">HeatCapacity_function</text>
<text text-anchor="middle" x="246.5" y="-742.5" font-family="serif" font-size="10.00">&lt; 0 &gt;::getConstant</text>
</a>
</g>
</g>
<!-- Node1&#45;&gt;Node20 -->
<g id="edge31" class="edge">
<title>Node1&#45;&gt;Node20</title>
<path fill="none" stroke="midnightblue" d="M362.94,-781.75C343.32,-776.44 322.01,-770.67 303.1,-765.55"/>
<polygon fill="midnightblue" stroke="midnightblue" points="362.15,-785.16 372.72,-784.4 363.98,-778.41 362.15,-785.16"/>
</g>
<!-- Node21 -->
<g id="node21" class="node">
<title>Node21</title>
<g id="a_node21"><a xlink:href="structLambda__function_3_010_01_4.html#adec1b719917d9699d135430a8fbd9fc9" target="_top" xlink:title="Get the Constant Lambda fonction.">
<polygon fill="none" stroke="black" points="185,-686.5 185,-716.5 308,-716.5 308,-686.5 185,-686.5"/>
<text text-anchor="start" x="193" y="-704.5" font-family="serif" font-size="10.00">Lambda_function&lt; 0</text>
<text text-anchor="middle" x="246.5" y="-693.5" font-family="serif" font-size="10.00"> &gt;::getConstant</text>
</a>
</g>
</g>
<!-- Node1&#45;&gt;Node21 -->
<g id="edge32" class="edge">
<title>Node1&#45;&gt;Node21</title>
<path fill="none" stroke="midnightblue" d="M403.12,-778.01C383.2,-762.02 354.21,-740.6 326,-726.5 318.58,-722.79 310.49,-719.48 302.42,-716.57"/>
<polygon fill="midnightblue" stroke="midnightblue" points="401.11,-780.89 411.08,-784.5 405.54,-775.46 401.11,-780.89"/>
</g>
<!-- Node22 -->
<g id="node22" class="node">
<title>Node22</title>
<g id="a_node22"><a xlink:href="structMobility__function_3_010_01_4.html#a8cb28fadccc6ec4a8fc4b3f905a4cf03" target="_top" xlink:title="Get the Constant Mobility fonction.">
<polygon fill="none" stroke="black" points="189.5,-637.5 189.5,-667.5 303.5,-667.5 303.5,-637.5 189.5,-637.5"/>
<text text-anchor="start" x="197.5" y="-655.5" font-family="serif" font-size="10.00">Mobility_function&lt;</text>
<text text-anchor="middle" x="246.5" y="-644.5" font-family="serif" font-size="10.00"> 0 &gt;::getConstant</text>
</a>
</g>
</g>
<!-- Node1&#45;&gt;Node22 -->
<g id="edge33" class="edge">
<title>Node1&#45;&gt;Node22</title>
<path fill="none" stroke="midnightblue" d="M414.46,-775.78C397.04,-748.3 364.82,-703.5 326,-677.5 319.23,-672.96 311.58,-669.21 303.78,-666.11"/>
<polygon fill="midnightblue" stroke="midnightblue" points="411.55,-777.72 419.79,-784.38 417.5,-774.03 411.55,-777.72"/>
</g>
<!-- Node23 -->
<g id="node23" class="node">
<title>Node23</title>
<g id="a_node23"><a xlink:href="structOmega__function_3_010_01_4.html#aeafdab77ef11bd7f2e3d174fa6195ea0" target="_top" xlink:title="Get the Constant Omega fonction.">
<polygon fill="none" stroke="black" points="182,-588.5 182,-618.5 311,-618.5 311,-588.5 182,-588.5"/>
<text text-anchor="start" x="190" y="-606.5" font-family="serif" font-size="10.00">Omega_function&lt; 0 &gt;</text>
<text text-anchor="middle" x="246.5" y="-595.5" font-family="serif" font-size="10.00">::getConstant</text>
</a>
</g>
</g>
<!-- Node1&#45;&gt;Node23 -->
<g id="edge34" class="edge">
<title>Node1&#45;&gt;Node23</title>
<path fill="none" stroke="midnightblue" d="M420.22,-774.91C406.48,-737.81 375.49,-667.67 326,-628.5 321.07,-624.59 315.51,-621.29 309.69,-618.5"/>
<polygon fill="midnightblue" stroke="midnightblue" points="416.97,-776.22 423.64,-784.45 423.56,-773.86 416.97,-776.22"/>
</g>
<!-- Node24 -->
<g id="node24" class="node">
<title>Node24</title>
<g id="a_node24"><a xlink:href="structMobility__function_3_010_01_4.html#a2e778c73c65357dadd37d9215c1783dc" target="_top" xlink:title="Get the Degenerated Mobility function.">
<polygon fill="none" stroke="black" points="183.5,-539.5 183.5,-569.5 309.5,-569.5 309.5,-539.5 183.5,-539.5"/>
<text text-anchor="start" x="191.5" y="-557.5" font-family="serif" font-size="10.00">Mobility_function&lt;</text>
<text text-anchor="middle" x="246.5" y="-546.5" font-family="serif" font-size="10.00"> 0 &gt;::getDegenerated</text>
</a>
</g>
</g>
<!-- Node1&#45;&gt;Node24 -->
<g id="edge35" class="edge">
<title>Node1&#45;&gt;Node24</title>
<path fill="none" stroke="midnightblue" d="M423.74,-774.56C413.79,-729.14 386.48,-632.71 326,-579.5 321.17,-575.25 315.61,-571.72 309.73,-568.79"/>
<polygon fill="midnightblue" stroke="midnightblue" points="420.34,-775.38 425.81,-784.45 427.19,-773.95 420.34,-775.38"/>
</g>
<!-- Node25 -->
<g id="node25" class="node">
<title>Node25</title>
<g id="a_node25"><a xlink:href="structMobility__function_3_011_01_4.html#aac43cc7df2552a25a7ac5dda455729f1" target="_top" xlink:title="Get the Degenerated Mobility function (1st derivative)">
<polygon fill="none" stroke="black" points="183.5,-490.5 183.5,-520.5 309.5,-520.5 309.5,-490.5 183.5,-490.5"/>
<text text-anchor="start" x="191.5" y="-508.5" font-family="serif" font-size="10.00">Mobility_function&lt;</text>
<text text-anchor="middle" x="246.5" y="-497.5" font-family="serif" font-size="10.00"> 1 &gt;::getDegenerated</text>
</a>
</g>
</g>
<!-- Node1&#45;&gt;Node25 -->
<g id="edge36" class="edge">
<title>Node1&#45;&gt;Node25</title>
<path fill="none" stroke="midnightblue" d="M426.07,-773.99C419.67,-720.96 397.53,-598.15 326,-530.5 321.22,-525.98 315.62,-522.28 309.66,-519.24"/>
<polygon fill="midnightblue" stroke="midnightblue" points="422.63,-774.65 427.21,-784.2 429.58,-773.88 422.63,-774.65"/>
</g>
<!-- Node26 -->
<g id="node26" class="node">
<title>Node26</title>
<g id="a_node26"><a xlink:href="structConductivity__function_3_010_01_4.html#ae9cf208a61efb9963804b726a4f75f3f" target="_top" xlink:title="Get the Linear Conductivity function.">
<polygon fill="none" stroke="black" points="182.5,-441.5 182.5,-471.5 310.5,-471.5 310.5,-441.5 182.5,-441.5"/>
<text text-anchor="start" x="190.5" y="-459.5" font-family="serif" font-size="10.00">Conductivity_function</text>
<text text-anchor="middle" x="246.5" y="-448.5" font-family="serif" font-size="10.00">&lt; 0 &gt;::getLinear</text>
</a>
</g>
</g>
<!-- Node1&#45;&gt;Node26 -->
<g id="edge37" class="edge">
<title>Node1&#45;&gt;Node26</title>
<path fill="none" stroke="midnightblue" d="M427.84,-774.42C424.9,-714.98 409.16,-564.37 326,-481.5 321.54,-477.06 316.3,-473.4 310.67,-470.4"/>
<polygon fill="midnightblue" stroke="midnightblue" points="424.34,-774.57 428.25,-784.42 431.34,-774.28 424.34,-774.57"/>
</g>
<!-- Node27 -->
<g id="node27" class="node">
<title>Node27</title>
<g id="a_node27"><a xlink:href="structConductivity__function_3_011_01_4.html#a50409603dfa580623320411ab9d60e3c" target="_top" xlink:title="Get the Linear Conductivity function (1st derivative)">
<polygon fill="none" stroke="black" points="182.5,-392.5 182.5,-422.5 310.5,-422.5 310.5,-392.5 182.5,-392.5"/>
<text text-anchor="start" x="190.5" y="-410.5" font-family="serif" font-size="10.00">Conductivity_function</text>
<text text-anchor="middle" x="246.5" y="-399.5" font-family="serif" font-size="10.00">&lt; 1 &gt;::getLinear</text>
</a>
</g>
</g>
<!-- Node1&#45;&gt;Node27 -->
<g id="edge38" class="edge">
<title>Node1&#45;&gt;Node27</title>
<path fill="none" stroke="midnightblue" d="M429.13,-773.81C429.3,-707.77 420.43,-530.39 326,-432.5 321.63,-427.97 316.44,-424.26 310.85,-421.22"/>
<polygon fill="midnightblue" stroke="midnightblue" points="425.62,-774.09 429.02,-784.12 432.62,-774.16 425.62,-774.09"/>
</g>
<!-- Node28 -->
<g id="node28" class="node">
<title>Node28</title>
<g id="a_node28"><a xlink:href="structdensity__function_3_010_01_4.html#ac866f44084c6a8dd3d35840251954a1b" target="_top" xlink:title="Get the Linear Density function.">
<polygon fill="none" stroke="black" points="187,-343.5 187,-373.5 306,-373.5 306,-343.5 187,-343.5"/>
<text text-anchor="start" x="195" y="-361.5" font-family="serif" font-size="10.00">density_function&lt; 0</text>
<text text-anchor="middle" x="246.5" y="-350.5" font-family="serif" font-size="10.00"> &gt;::getLinear</text>
</a>
</g>
</g>
<!-- Node1&#45;&gt;Node28 -->
<g id="edge39" class="edge">
<title>Node1&#45;&gt;Node28</title>
<path fill="none" stroke="midnightblue" d="M425.51,-774.2C415.45,-693.12 380.35,-441.61 326,-383.5 320.53,-377.65 313.69,-373.16 306.36,-369.72"/>
<polygon fill="midnightblue" stroke="midnightblue" points="422.08,-774.97 426.76,-784.48 429.03,-774.13 422.08,-774.97"/>
</g>
<!-- Node29 -->
<g id="node29" class="node">
<title>Node29</title>
<g id="a_node29"><a xlink:href="structdensity__function_3_011_01_4.html#aeb402a4aa2fd897aeb520e2913e20611" target="_top" xlink:title="Get the Linear Density function (1st derivative)">
<polygon fill="none" stroke="black" points="187,-294.5 187,-324.5 306,-324.5 306,-294.5 187,-294.5"/>
<text text-anchor="start" x="195" y="-312.5" font-family="serif" font-size="10.00">density_function&lt; 1</text>
<text text-anchor="middle" x="246.5" y="-301.5" font-family="serif" font-size="10.00"> &gt;::getLinear</text>
</a>
</g>
</g>
<!-- Node1&#45;&gt;Node29 -->
<g id="edge40" class="edge">
<title>Node1&#45;&gt;Node29</title>
<path fill="none" stroke="midnightblue" d="M426.21,-774.13C417.85,-686.81 386.25,-400.52 326,-334.5 320.5,-328.48 313.56,-323.9 306.1,-320.42"/>
<polygon fill="midnightblue" stroke="midnightblue" points="422.74,-774.57 427.16,-784.2 429.71,-773.92 422.74,-774.57"/>
</g>
<!-- Node30 -->
<g id="node30" class="node">
<title>Node30</title>
<g id="a_node30"><a xlink:href="structDiffusion__function_3_010_01_4.html#a5803dac7dc081ef4c511570426dd469e" target="_top" xlink:title="Get the Linear Diffusion function.">
<polygon fill="none" stroke="black" points="191.5,-245.5 191.5,-275.5 301.5,-275.5 301.5,-245.5 191.5,-245.5"/>
<text text-anchor="start" x="199.5" y="-263.5" font-family="serif" font-size="10.00">Diffusion_function</text>
<text text-anchor="middle" x="246.5" y="-252.5" font-family="serif" font-size="10.00">&lt; 0 &gt;::getLinear</text>
</a>
</g>
</g>
<!-- Node1&#45;&gt;Node30 -->
<g id="edge41" class="edge">
<title>Node1&#45;&gt;Node30</title>
<path fill="none" stroke="midnightblue" d="M426.8,-774.25C420.05,-681.28 392.23,-359.56 326,-285.5 319.52,-278.25 310.94,-273.09 301.84,-269.42"/>
<polygon fill="midnightblue" stroke="midnightblue" points="423.32,-774.7 427.52,-784.42 430.31,-774.2 423.32,-774.7"/>
</g>
<!-- Node31 -->
<g id="node31" class="node">
<title>Node31</title>
<g id="a_node31"><a xlink:href="structDiffusion__function_3_011_01_4.html#a1460eeef7dc13b5aeafefbb1ccd7336c" target="_top" xlink:title="Get the Linear Diffusion function (1st derivative)">
<polygon fill="none" stroke="black" points="191.5,-196.5 191.5,-226.5 301.5,-226.5 301.5,-196.5 191.5,-196.5"/>
<text text-anchor="start" x="199.5" y="-214.5" font-family="serif" font-size="10.00">Diffusion_function</text>
<text text-anchor="middle" x="246.5" y="-203.5" font-family="serif" font-size="10.00">&lt; 1 &gt;::getLinear</text>
</a>
</g>
</g>
<!-- Node1&#45;&gt;Node31 -->
<g id="edge42" class="edge">
<title>Node1&#45;&gt;Node31</title>
<path fill="none" stroke="midnightblue" d="M427.27,-774.13C422,-675.44 398.17,-318.58 326,-236.5 319.48,-229.09 310.78,-223.86 301.53,-220.17"/>
<polygon fill="midnightblue" stroke="midnightblue" points="423.79,-774.55 427.8,-784.36 430.78,-774.19 423.79,-774.55"/>
</g>
<!-- Node32 -->
<g id="node32" class="node">
<title>Node32</title>
<g id="a_node32"><a xlink:href="structHeatCapacity__function_3_010_01_4.html#ad58cc69a2432c6b271182ff90f4ecb59" target="_top" xlink:title="Get the Linear HeatCapacity function.">
<polygon fill="none" stroke="black" points="180,-147.5 180,-177.5 313,-177.5 313,-147.5 180,-147.5"/>
<text text-anchor="start" x="188" y="-165.5" font-family="serif" font-size="10.00">HeatCapacity_function</text>
<text text-anchor="middle" x="246.5" y="-154.5" font-family="serif" font-size="10.00">&lt; 0 &gt;::getLinear</text>
</a>
</g>
</g>
<!-- Node1&#45;&gt;Node32 -->
<g id="edge43" class="edge">
<title>Node1&#45;&gt;Node32</title>
<path fill="none" stroke="midnightblue" d="M427.68,-774.31C423.83,-670.57 404.21,-277.72 326,-187.5 322.35,-183.29 317.98,-179.77 313.21,-176.85"/>
<polygon fill="midnightblue" stroke="midnightblue" points="424.19,-774.6 428.04,-784.47 431.19,-774.35 424.19,-774.6"/>
</g>
<!-- Node33 -->
<g id="node33" class="node">
<title>Node33</title>
<g id="a_node33"><a xlink:href="structHeatCapacity__function_3_011_01_4.html#a7557e9b579a6d09c337d0fca11fa184d" target="_top" xlink:title="Get the Linear HeatCapacity function (1st derivative)">
<polygon fill="none" stroke="black" points="180,-98.5 180,-128.5 313,-128.5 313,-98.5 180,-98.5"/>
<text text-anchor="start" x="188" y="-116.5" font-family="serif" font-size="10.00">HeatCapacity_function</text>
<text text-anchor="middle" x="246.5" y="-105.5" font-family="serif" font-size="10.00">&lt; 1 &gt;::getLinear</text>
</a>
</g>
</g>
<!-- Node1&#45;&gt;Node33 -->
<g id="edge44" class="edge">
<title>Node1&#45;&gt;Node33</title>
<path fill="none" stroke="midnightblue" d="M428.03,-774.41C425.5,-665.77 410.25,-236.89 326,-138.5 322.37,-134.26 318.03,-130.74 313.27,-127.8"/>
<polygon fill="midnightblue" stroke="midnightblue" points="424.53,-774.53 428.25,-784.45 431.53,-774.37 424.53,-774.53"/>
</g>
<!-- Node34 -->
<g id="node34" class="node">
<title>Node34</title>
<g id="a_node34"><a xlink:href="structDiffusion__function_3_010_01_4.html#a5cd119674e65b6f208350ee6bf8c1cfa" target="_top" xlink:title="Get the Constant Diffusion fonction.">
<polygon fill="none" stroke="black" points="191.5,-49.5 191.5,-79.5 301.5,-79.5 301.5,-49.5 191.5,-49.5"/>
<text text-anchor="start" x="199.5" y="-67.5" font-family="serif" font-size="10.00">Diffusion_function</text>
<text text-anchor="middle" x="246.5" y="-56.5" font-family="serif" font-size="10.00">&lt; 0 &gt;::getLog</text>
</a>
</g>
</g>
<!-- Node1&#45;&gt;Node34 -->
<g id="edge45" class="edge">
<title>Node1&#45;&gt;Node34</title>
<path fill="none" stroke="midnightblue" d="M428.32,-774.04C427.02,-659.86 416.19,-195.94 326,-89.5 319.62,-81.97 310.98,-76.68 301.75,-72.98"/>
<polygon fill="midnightblue" stroke="midnightblue" points="424.83,-774.29 428.42,-784.26 431.83,-774.22 424.83,-774.29"/>
</g>
<!-- Node35 -->
<g id="node35" class="node">
<title>Node35</title>
<g id="a_node35"><a xlink:href="structDiffusion__function_3_011_01_4.html#a0f9d1bad4545478f2efa41395a02a04f" target="_top" xlink:title="Get the Log Diffusion function (1st derivative)">
<polygon fill="none" stroke="black" points="191.5,-0.5 191.5,-30.5 301.5,-30.5 301.5,-0.5 191.5,-0.5"/>
<text text-anchor="start" x="199.5" y="-18.5" font-family="serif" font-size="10.00">Diffusion_function</text>
<text text-anchor="middle" x="246.5" y="-7.5" font-family="serif" font-size="10.00">&lt; 1 &gt;::getLog</text>
</a>
</g>
</g>
<!-- Node1&#45;&gt;Node35 -->
<g id="edge46" class="edge">
<title>Node1&#45;&gt;Node35</title>
<path fill="none" stroke="midnightblue" d="M428.59,-774.22C428.49,-655.6 422.28,-155.19 326,-40.5 319.65,-32.94 311.03,-27.64 301.81,-23.93"/>
<polygon fill="midnightblue" stroke="midnightblue" points="425.09,-774.48 428.58,-784.48 432.09,-774.48 425.09,-774.48"/>
</g>
<!-- Node3 -->
<g id="node3" class="node">
<title>Node3</title>
<g id="a_node3"><a xlink:href="classSlothSolver.html#aa9c78d816c02f2d4ab70af64cb3f7791" target="_top" xlink:title="Create the linear solver depending on SolverType.">
<polygon fill="none" stroke="black" points="0,-1270 0,-1289 131,-1289 131,-1270 0,-1270"/>
<text text-anchor="middle" x="65.5" y="-1277" font-family="serif" font-size="10.00">SlothSolver::get_value</text>
</a>
</g>
</g>
<!-- Node2&#45;&gt;Node3 -->
<g id="edge2" class="edge">
<title>Node2&#45;&gt;Node3</title>
<path fill="none" stroke="midnightblue" d="M170.54,-1552.57C169.32,-1551.59 168.13,-1550.57 167,-1549.5 86.54,-1473.7 70.1,-1327.56 67.11,-1289.01"/>
<polygon fill="midnightblue" stroke="midnightblue" points="168.87,-1555.67 179.12,-1558.37 172.8,-1549.87 168.87,-1555.67"/>
</g>
<!-- Node4&#45;&gt;Node3 -->
<g id="edge4" class="edge">
<title>Node4&#45;&gt;Node3</title>
<path fill="none" stroke="midnightblue" d="M171.65,-1504.2C170.04,-1503.04 168.49,-1501.8 167,-1500.5 98.26,-1440.17 73.84,-1323.32 68,-1289.12"/>
<polygon fill="midnightblue" stroke="midnightblue" points="169.81,-1507.18 180.15,-1509.5 173.51,-1501.24 169.81,-1507.18"/>
</g>
<!-- Node5&#45;&gt;Node3 -->
<g id="edge6" class="edge">
<title>Node5&#45;&gt;Node3</title>
<path fill="none" stroke="midnightblue" d="M172.54,-1455.46C170.62,-1454.22 168.77,-1452.9 167,-1451.5 109.77,-1406.22 78.61,-1318.74 69.42,-1289.38"/>
<polygon fill="midnightblue" stroke="midnightblue" points="170.88,-1458.55 181.31,-1460.43 174.33,-1452.46 170.88,-1458.55"/>
</g>
<!-- Node6&#45;&gt;Node3 -->
<g id="edge8" class="edge">
<title>Node6&#45;&gt;Node3</title>
<path fill="none" stroke="midnightblue" d="M174.46,-1407C171.88,-1405.6 169.38,-1404.1 167,-1402.5 120.52,-1371.3 84.56,-1312.24 71.66,-1289.12"/>
<polygon fill="midnightblue" stroke="midnightblue" points="172.94,-1410.16 183.47,-1411.4 176.02,-1403.87 172.94,-1410.16"/>
</g>
<!-- Node7&#45;&gt;Node3 -->
<g id="edge10" class="edge">
<title>Node7&#45;&gt;Node3</title>
<path fill="none" stroke="midnightblue" d="M178.61,-1358.77C174.62,-1357.13 170.72,-1355.37 167,-1353.5 130.99,-1335.4 94.25,-1304.54 76.86,-1289.01"/>
<polygon fill="midnightblue" stroke="midnightblue" points="177.43,-1362.07 188.01,-1362.41 179.95,-1355.54 177.43,-1362.07"/>
</g>
<!-- Node8&#45;&gt;Node3 -->
<g id="edge12" class="edge">
<title>Node8&#45;&gt;Node3</title>
<path fill="none" stroke="midnightblue" d="M180.61,-1310.74C153.77,-1303.39 123.73,-1295.17 101.21,-1289"/>
<polygon fill="midnightblue" stroke="midnightblue" points="179.76,-1314.13 190.33,-1313.4 181.61,-1307.38 179.76,-1314.13"/>
</g>
<!-- Node9&#45;&gt;Node3 -->
<g id="edge14" class="edge">
<title>Node9&#45;&gt;Node3</title>
<path fill="none" stroke="midnightblue" d="M156.88,-1279.5C148.25,-1279.5 139.6,-1279.5 131.27,-1279.5"/>
<polygon fill="midnightblue" stroke="midnightblue" points="156.99,-1283 166.99,-1279.5 156.99,-1276 156.99,-1283"/>
</g>
<!-- Node10&#45;&gt;Node3 -->
<g id="edge16" class="edge">
<title>Node10&#45;&gt;Node3</title>
<path fill="none" stroke="midnightblue" d="M180.61,-1248.26C153.77,-1255.61 123.73,-1263.83 101.21,-1270"/>
<polygon fill="midnightblue" stroke="midnightblue" points="181.61,-1251.62 190.33,-1245.6 179.76,-1244.87 181.61,-1251.62"/>
</g>
<!-- Node11&#45;&gt;Node3 -->
<g id="edge18" class="edge">
<title>Node11&#45;&gt;Node3</title>
<path fill="none" stroke="midnightblue" d="M181.13,-1200.12C176.27,-1202.09 171.51,-1204.22 167,-1206.5 131.4,-1224.51 94.77,-1254.61 77.19,-1269.92"/>
<polygon fill="midnightblue" stroke="midnightblue" points="182.46,-1203.36 190.55,-1196.51 179.96,-1196.82 182.46,-1203.36"/>
</g>
<!-- Node12&#45;&gt;Node3 -->
<g id="edge20" class="edge">
<title>Node12&#45;&gt;Node3</title>
<path fill="none" stroke="midnightblue" d="M176.24,-1151.99C173.03,-1153.68 169.93,-1155.52 167,-1157.5 120.87,-1188.73 84.7,-1247.14 71.71,-1269.99"/>
<polygon fill="midnightblue" stroke="midnightblue" points="177.98,-1155.03 185.5,-1147.57 174.97,-1148.71 177.98,-1155.03"/>
</g>
<!-- Node13&#45;&gt;Node3 -->
<g id="edge22" class="edge">
<title>Node13&#45;&gt;Node3</title>
<path fill="none" stroke="midnightblue" d="M176.76,-1102.38C173.33,-1104.18 170.05,-1106.21 167,-1108.5 108.64,-1152.36 78.02,-1240.85 69.21,-1269.97"/>
<polygon fill="midnightblue" stroke="midnightblue" points="178.47,-1105.45 186.14,-1098.15 175.58,-1099.08 178.47,-1105.45"/>
</g>
<!-- Node14&#45;&gt;Node3 -->
<g id="edge24" class="edge">
<title>Node14&#45;&gt;Node3</title>
<path fill="none" stroke="midnightblue" d="M174.09,-1064.13C171.6,-1065.78 169.22,-1067.56 167,-1069.5 101.16,-1126.83 74.88,-1236.92 68.27,-1269.92"/>
<polygon fill="midnightblue" stroke="midnightblue" points="176.01,-1067.06 182.92,-1059.04 172.51,-1061 176.01,-1067.06"/>
</g>
<!-- Node16&#45;&gt;Node3 -->
<g id="edge27" class="edge">
<title>Node16&#45;&gt;Node3</title>
<path fill="none" stroke="midnightblue" d="M171.57,-967.43C169.97,-968.71 168.45,-970.06 167,-971.5 77.99,-1059.88 67.79,-1228 66.64,-1269.87"/>
<polygon fill="midnightblue" stroke="midnightblue" points="173.75,-970.19 180.07,-961.68 169.82,-964.39 173.75,-970.19"/>
</g>
</g>
</svg>
