<?xml version="1.0" encoding="UTF-8" standalone="no"?>
<!DOCTYPE svg PUBLIC "-//W3C//DTD SVG 1.1//EN"
 "http://www.w3.org/Graphics/SVG/1.1/DTD/svg11.dtd">
<!-- Generated by graphviz version 2.43.0 (0)
 -->
<!-- Title: SpatialDiscretization::GMSHReaderSplitFiles Pages: 1 -->
<svg width="304pt" height="170pt"
 viewBox="0.00 0.00 304.00 170.00" xmlns="http://www.w3.org/2000/svg" xmlns:xlink="http://www.w3.org/1999/xlink">
<g id="graph0" class="graph" transform="scale(1 1) rotate(0) translate(4 166)">
<title>SpatialDiscretization::GMSHReaderSplitFiles</title>
<!-- Node1 -->
<g id="node1" class="node">
<title>Node1</title>
<g id="a_node1"><a xlink:title=" ">
<polygon fill="#bfbfbf" stroke="black" points="155,-66 155,-96 296,-96 296,-66 155,-66"/>
<text text-anchor="start" x="163" y="-84" font-family="serif" font-size="10.00">SpatialDiscretization</text>
<text text-anchor="middle" x="225.5" y="-73" font-family="serif" font-size="10.00">::GMSHReaderSplitFiles</text>
</a>
</g>
</g>
<!-- Node2 -->
<g id="node2" class="node">
<title>Node2</title>
<g id="a_node2"><a xlink:href="structspecialized__spatial__constructor_3_01T_00_011_01_4.html#a9d28d9d2735b1b9d2ca88de45cfda15b" target="_top" xlink:title="operator() specialized for a mesh built from GMSH file">
<polygon fill="none" stroke="black" points="0,-120.5 0,-161.5 119,-161.5 119,-120.5 0,-120.5"/>
<text text-anchor="start" x="8" y="-149.5" font-family="serif" font-size="10.00">specialized_spatial</text>
<text text-anchor="start" x="8" y="-138.5" font-family="serif" font-size="10.00">_constructor&lt; T, 1 &gt;</text>
<text text-anchor="middle" x="59.5" y="-127.5" font-family="serif" font-size="10.00">::operator()</text>
</a>
</g>
</g>
<!-- Node1&#45;&gt;Node2 -->
<g id="edge1" class="edge">
<title>Node1&#45;&gt;Node2</title>
<path fill="none" stroke="midnightblue" d="M173.39,-99.7C155.42,-106.27 135.12,-113.7 116.74,-120.42"/>
<polygon fill="midnightblue" stroke="midnightblue" points="174.93,-102.86 183.12,-96.14 172.52,-96.29 174.93,-102.86"/>
</g>
<!-- Node3 -->
<g id="node3" class="node">
<title>Node3</title>
<g id="a_node3"><a xlink:href="structspecialized__spatial__constructor_3_01T_00_012_01_4.html#a367e7535f528d675144feb9ec420a28b" target="_top" xlink:title="operator() specialized for a mesh built from GMSH file">
<polygon fill="none" stroke="black" points="0,-60.5 0,-101.5 119,-101.5 119,-60.5 0,-60.5"/>
<text text-anchor="start" x="8" y="-89.5" font-family="serif" font-size="10.00">specialized_spatial</text>
<text text-anchor="start" x="8" y="-78.5" font-family="serif" font-size="10.00">_constructor&lt; T, 2 &gt;</text>
<text text-anchor="middle" x="59.5" y="-67.5" font-family="serif" font-size="10.00">::operator()</text>
</a>
</g>
</g>
<!-- Node1&#45;&gt;Node3 -->
<g id="edge2" class="edge">
<title>Node1&#45;&gt;Node3</title>
<path fill="none" stroke="midnightblue" d="M144.8,-81C136.11,-81 127.39,-81 119.03,-81"/>
<polygon fill="midnightblue" stroke="midnightblue" points="144.95,-84.5 154.95,-81 144.95,-77.5 144.95,-84.5"/>
</g>
<!-- Node4 -->
<g id="node4" class="node">
<title>Node4</title>
<g id="a_node4"><a xlink:href="structspecialized__spatial__constructor_3_01T_00_013_01_4.html#ac2e4126ca21896e53bd7800cf989d462" target="_top" xlink:title="operator() specialized for a mesh built from GMSH file">
<polygon fill="none" stroke="black" points="0,-0.5 0,-41.5 119,-41.5 119,-0.5 0,-0.5"/>
<text text-anchor="start" x="8" y="-29.5" font-family="serif" font-size="10.00">specialized_spatial</text>
<text text-anchor="start" x="8" y="-18.5" font-family="serif" font-size="10.00">_constructor&lt; T, 3 &gt;</text>
<text text-anchor="middle" x="59.5" y="-7.5" font-family="serif" font-size="10.00">::operator()</text>
</a>
</g>
</g>
<!-- Node1&#45;&gt;Node4 -->
<g id="edge3" class="edge">
<title>Node1&#45;&gt;Node4</title>
<path fill="none" stroke="midnightblue" d="M173.39,-62.3C155.42,-55.73 135.12,-48.3 116.74,-41.58"/>
<polygon fill="midnightblue" stroke="midnightblue" points="172.52,-65.71 183.12,-65.86 174.93,-59.14 172.52,-65.71"/>
</g>
</g>
</svg>
