<?xml version="1.0" encoding="UTF-8" standalone="no"?>
<!DOCTYPE svg PUBLIC "-//W3C//DTD SVG 1.1//EN"
 "http://www.w3.org/Graphics/SVG/1.1/DTD/svg11.dtd">
<!-- Generated by graphviz version 2.43.0 (0)
 -->
<!-- Title: DiffusionOperator&lt; T, DIM, NLFI, DENS, LHS_NLFI &gt; Pages: 1 -->
<!--zoomable 186 -->
<svg id="main" version="1.1" xmlns="http://www.w3.org/2000/svg" xmlns:xlink="http://www.w3.org/1999/xlink" xml:space="preserve" onload="init(evt)">
<style type="text/css"><![CDATA[
.edge:hover path { stroke: red; }
.edge:hover polygon { stroke: red; fill: red; }
]]></style>
<script type="text/javascript"><![CDATA[
var edges = document.getElementsByTagName('g');
if (edges && edges.length) {
  for (var i=0;i<edges.length;i++) {
    if (edges[i].id.substr(0,4)=='edge') {
      edges[i].setAttribute('class','edge');
    }
  }
}
]]></script>
        <defs>
                <circle id="rim" cx="0" cy="0" r="7"/>
                <circle id="rim2" cx="0" cy="0" r="3.5"/>
                <g id="zoomPlus">
                        <use xlink:href="#rim" fill="#404040">
                                <set attributeName="fill" to="#808080" begin="zoomplus.mouseover" end="zoomplus.mouseout"/>
                        </use>
                        <path d="M-4,0h8M0,-4v8" fill="none" stroke="white" stroke-width="1.5" pointer-events="none"/>
                </g>
                <g id="zoomMin">
                        <use xlink:href="#rim" fill="#404040">
                                <set attributeName="fill" to="#808080" begin="zoomminus.mouseover" end="zoomminus.mouseout"/>
                        </use>
                        <path d="M-4,0h8" fill="none" stroke="white" stroke-width="1.5" pointer-events="none"/>
                </g>
                <g id="dirArrow">
                        <path fill="none" stroke="white" stroke-width="1.5" d="M0,-3.0v7 M-2.5,-0.5L0,-3.0L2.5,-0.5"/>
                </g>
               <g id="resetDef">
                       <use xlink:href="#rim2" fill="#404040">
                               <set attributeName="fill" to="#808080" begin="reset.mouseover" end="reset.mouseout"/>
                       </use>
               </g>
        </defs>

<script type="text/javascript">
var viewWidth = 1098;
var viewHeight = 186;
var sectionId = 'dynsection-1';
</script>
<script xlink:href="svgpan.js"/>
<svg id="graph" class="graph">
<g id="viewport">
<title>DiffusionOperator&lt; T, DIM, NLFI, DENS, LHS_NLFI &gt;</title>
<!-- Node1 -->
<g id="node1" class="node">
<title>Node1</title>
<g id="a_node1"><a xlink:title="Class DiffusionOperator.">
<polygon fill="#bfbfbf" stroke="black" points="964,-117.5 964,-158.5 1090,-158.5 1090,-117.5 964,-117.5"/>
<text text-anchor="start" x="972" y="-146.5" font-family="serif" font-size="10.00">DiffusionOperator&lt;</text>
<text text-anchor="start" x="972" y="-135.5" font-family="serif" font-size="10.00"> T, DIM, NLFI, DENS,</text>
<text text-anchor="middle" x="1027" y="-124.5" font-family="serif" font-size="10.00"> LHS_NLFI &gt;</text>
</a>
</g>
</g>
<!-- Node2 -->
<g id="node2" class="node">
<title>Node2</title>
<g id="a_node2"><a xlink:href="classDiffusionOperatorBase.html" target="_top" xlink:title=" ">
<polygon fill="none" stroke="black" points="770,-88.5 770,-129.5 927,-129.5 927,-88.5 770,-88.5"/>
<text text-anchor="start" x="778" y="-117.5" font-family="serif" font-size="10.00">DiffusionOperatorBase</text>
<text text-anchor="start" x="778" y="-106.5" font-family="serif" font-size="10.00">&lt; T, DIM, NLFI, LHS_NLFI,</text>
<text text-anchor="middle" x="848.5" y="-95.5" font-family="serif" font-size="10.00"> TransientOperatorBase &gt;</text>
</a>
</g>
</g>
<!-- Node2&#45;&gt;Node1 -->
<g id="edge1" class="edge">
<title>Node2&#45;&gt;Node1</title>
<path fill="none" stroke="midnightblue" d="M937.31,-123.43C946.3,-124.9 955.3,-126.38 963.93,-127.8"/>
<polygon fill="midnightblue" stroke="midnightblue" points="937.61,-119.93 927.17,-121.76 936.47,-126.84 937.61,-119.93"/>
</g>
<!-- Node3 -->
<g id="node3" class="node">
<title>Node3</title>
<g id="a_node3"><a xlink:href="classTransientOperatorBase.html" target="_top" xlink:title="TransientOperatorBase class.">
<polygon fill="none" stroke="black" points="566,-39 566,-69 731,-69 731,-39 566,-39"/>
<text text-anchor="start" x="574" y="-57" font-family="serif" font-size="10.00">TransientOperatorBase</text>
<text text-anchor="middle" x="648.5" y="-46" font-family="serif" font-size="10.00">&lt; T, DIM, NLFI, LHS_NLFI &gt;</text>
</a>
</g>
</g>
<!-- Node3&#45;&gt;Node2 -->
<g id="edge2" class="edge">
<title>Node3&#45;&gt;Node2</title>
<path fill="none" stroke="midnightblue" d="M713.41,-71.75C732.54,-77.07 753.69,-82.94 773.42,-88.42"/>
<polygon fill="midnightblue" stroke="midnightblue" points="714.18,-68.33 703.6,-69.03 712.3,-75.08 714.18,-68.33"/>
</g>
<!-- Node4 -->
<g id="node4" class="node">
<title>Node4</title>
<g id="a_node4"><a xlink:href="classOperatorBase.html" target="_top" xlink:title="Base class for building Steady and TimeDependent PhaseFieldOperators.">
<polygon fill="none" stroke="black" points="221.5,-39 221.5,-69 356.5,-69 356.5,-39 221.5,-39"/>
<text text-anchor="start" x="229.5" y="-57" font-family="serif" font-size="10.00">OperatorBase&lt; T, DIM,</text>
<text text-anchor="middle" x="289" y="-46" font-family="serif" font-size="10.00"> NLFI, LHS_NLFI &gt;</text>
</a>
</g>
</g>
<!-- Node4&#45;&gt;Node3 -->
<g id="edge3" class="edge">
<title>Node4&#45;&gt;Node3</title>
<path fill="none" stroke="midnightblue" d="M367.14,-54C425.78,-54 506.26,-54 565.95,-54"/>
<polygon fill="midnightblue" stroke="midnightblue" points="366.82,-50.5 356.82,-54 366.82,-57.5 366.82,-50.5"/>
</g>
<!-- Node5 -->
<g id="node5" class="node">
<title>Node5</title>
<g id="a_node5"><a xlink:href="classParameter.html" target="_top" xlink:title=" ">
<polygon fill="none" stroke="black" points="2.5,-40.5 2.5,-59.5 71.5,-59.5 71.5,-40.5 2.5,-40.5"/>
<text text-anchor="middle" x="37" y="-47.5" font-family="serif" font-size="10.00">Parameter</text>
</a>
</g>
</g>
<!-- Node5&#45;&gt;Node4 -->
<g id="edge4" class="edge">
<title>Node5&#45;&gt;Node4</title>
<path fill="none" stroke="#9a32cd" stroke-dasharray="5,2" d="M81.77,-50.02C111.92,-50.09 152.89,-50.33 189,-51 199.49,-51.19 210.6,-51.47 221.44,-51.77"/>
<polygon fill="#9a32cd" stroke="#9a32cd" points="81.6,-46.52 71.59,-49.99 81.58,-53.52 81.6,-46.52"/>
<text text-anchor="middle" x="140.5" y="-54" font-family="serif" font-size="10.00"> default_p_</text>
</g>
<!-- Node6 -->
<g id="node6" class="node">
<title>Node6</title>
<g id="a_node6"><a xlink:href="classNLSolver.html" target="_top" xlink:title=" ">
<polygon fill="none" stroke="black" points="4.5,-2.5 4.5,-21.5 69.5,-21.5 69.5,-2.5 4.5,-2.5"/>
<text text-anchor="middle" x="37" y="-9.5" font-family="serif" font-size="10.00">NLSolver</text>
</a>
</g>
</g>
<!-- Node6&#45;&gt;Node4 -->
<g id="edge5" class="edge">
<title>Node6&#45;&gt;Node4</title>
<path fill="none" stroke="#9a32cd" stroke-dasharray="5,2" d="M79.8,-17.93C110.15,-22.34 152.18,-28.67 189,-35 199.52,-36.81 210.65,-38.84 221.5,-40.87"/>
<polygon fill="#9a32cd" stroke="#9a32cd" points="79.98,-14.42 69.58,-16.45 78.98,-21.34 79.98,-14.42"/>
<text text-anchor="middle" x="140.5" y="-38" font-family="serif" font-size="10.00"> rhs_solver_</text>
</g>
<!-- Node7 -->
<g id="node7" class="node">
<title>Node7</title>
<g id="a_node7"><a xlink:href="classParameters.html" target="_top" xlink:title=" ">
<polygon fill="none" stroke="black" points="0,-119.5 0,-138.5 74,-138.5 74,-119.5 0,-119.5"/>
<text text-anchor="middle" x="37" y="-126.5" font-family="serif" font-size="10.00">Parameters</text>
</a>
</g>
</g>
<!-- Node7&#45;&gt;Node1 -->
<g id="edge10" class="edge">
<title>Node7&#45;&gt;Node1</title>
<path fill="none" stroke="#9a32cd" stroke-dasharray="5,2" d="M84.02,-140.25C133.93,-151.46 216.12,-167 288,-167 288,-167 288,-167 849.5,-167 887.85,-167 930.28,-160.25 963.92,-153.26"/>
<polygon fill="#9a32cd" stroke="#9a32cd" points="84.7,-136.82 74.17,-138.01 83.14,-143.64 84.7,-136.82"/>
<text text-anchor="middle" x="648.5" y="-170" font-family="serif" font-size="10.00"> density_params_</text>
</g>
<!-- Node7&#45;&gt;Node4 -->
<g id="edge6" class="edge">
<title>Node7&#45;&gt;Node4</title>
<path fill="none" stroke="#9a32cd" stroke-dasharray="5,2" d="M54.07,-112.05C64.07,-102.56 77.71,-91.39 92,-85 114.65,-74.88 173.83,-66.34 221.28,-60.8"/>
<polygon fill="#9a32cd" stroke="#9a32cd" points="51.53,-109.64 46.89,-119.17 56.46,-114.61 51.53,-109.64"/>
<text text-anchor="middle" x="140.5" y="-99" font-family="serif" font-size="10.00"> default_params_</text>
<text text-anchor="middle" x="140.5" y="-88" font-family="serif" font-size="10.00">params_</text>
</g>
<!-- Node9 -->
<g id="node9" class="node">
<title>Node9</title>
<g id="a_node9"><a xlink:href="classDiffusionOperatorBase.html" target="_top" xlink:title="Base class for Mass Diffusion.">
<polygon fill="none" stroke="black" points="389,-98.5 389,-139.5 546,-139.5 546,-98.5 389,-98.5"/>
<text text-anchor="start" x="397" y="-127.5" font-family="serif" font-size="10.00">DiffusionOperatorBase</text>
<text text-anchor="start" x="397" y="-116.5" font-family="serif" font-size="10.00">&lt; T, DIM, NLFI, LHS_NLFI,</text>
<text text-anchor="middle" x="467.5" y="-105.5" font-family="serif" font-size="10.00"> OPEBASE &gt;</text>
</a>
</g>
</g>
<!-- Node7&#45;&gt;Node9 -->
<g id="edge9" class="edge">
<title>Node7&#45;&gt;Node9</title>
<path fill="none" stroke="#9a32cd" stroke-dasharray="5,2" d="M84.42,-127.92C157.41,-126.21 299.85,-122.89 388.69,-120.82"/>
<polygon fill="#9a32cd" stroke="#9a32cd" points="84.08,-124.42 74.16,-128.16 84.24,-131.42 84.08,-124.42"/>
<text text-anchor="middle" x="140.5" y="-130" font-family="serif" font-size="10.00"> diffusion_params_</text>
</g>
<!-- Node8 -->
<g id="node8" class="node">
<title>Node8</title>
<g id="a_node8"><a xlink:href="classPhaseFieldReducedOperator.html" target="_top" xlink:title=" ">
<polygon fill="none" stroke="black" points="207,-0.5 207,-19.5 371,-19.5 371,-0.5 207,-0.5"/>
<text text-anchor="middle" x="289" y="-7.5" font-family="serif" font-size="10.00">PhaseFieldReducedOperator</text>
</a>
</g>
</g>
<!-- Node8&#45;&gt;Node3 -->
<g id="edge7" class="edge">
<title>Node8&#45;&gt;Node3</title>
<path fill="none" stroke="#9a32cd" stroke-dasharray="5,2" d="M381.32,-19.58C430.22,-24.91 491.45,-31.88 546,-39 552.45,-39.84 559.12,-40.75 565.82,-41.68"/>
<polygon fill="#9a32cd" stroke="#9a32cd" points="381.4,-16.07 371.08,-18.47 380.65,-23.03 381.4,-16.07"/>
<text text-anchor="middle" x="467.5" y="-42" font-family="serif" font-size="10.00"> reduced_oper</text>
</g>
<!-- Node9&#45;&gt;Node2 -->
<g id="edge8" class="edge">
<title>Node9&#45;&gt;Node2</title>
<path fill="none" stroke="orange" stroke-dasharray="5,2" d="M556.28,-116.68C620.9,-114.98 707.94,-112.68 769.99,-111.05"/>
<polygon fill="orange" stroke="orange" points="556.02,-113.19 546.11,-116.95 556.2,-120.19 556.02,-113.19"/>
<text text-anchor="start" x="564" y="-130" font-family="serif" font-size="10.00"> &lt; T, DIM, NLFI, LHS</text>
<text text-anchor="middle" x="648.5" y="-119" font-family="serif" font-size="10.00">_NLFI, TransientOperatorBase &gt;</text>
</g>
</g>
</svg>
        <g id="navigator" transform="translate(0 0)" fill="#404254">
                <rect fill="#f2f5e9" fill-opacity="0.5" stroke="#606060" stroke-width=".5" x="0" y="0" width="60" height="60"/>
                <use id="zoomplus" xlink:href="#zoomPlus" x="17" y="9" onmousedown="handleZoom(evt,'in')"/>
                <use id="zoomminus" xlink:href="#zoomMin" x="42" y="9" onmousedown="handleZoom(evt,'out')"/>
                <use id="reset" xlink:href="#resetDef" x="30" y="36" onmousedown="handleReset()"/>
                <g id="arrowUp" xlink:href="#dirArrow" transform="translate(30 24)" onmousedown="handlePan(0,-1)">
                  <use xlink:href="#rim" fill="#404040">
                        <set attributeName="fill" to="#808080" begin="arrowUp.mouseover" end="arrowUp.mouseout"/>
                  </use>
                  <path fill="none" stroke="white" stroke-width="1.5" d="M0,-3.0v7 M-2.5,-0.5L0,-3.0L2.5,-0.5"/>
                </g>
                <g id="arrowRight" xlink:href="#dirArrow" transform="rotate(90) translate(36 -43)" onmousedown="handlePan(1,0)">
                  <use xlink:href="#rim" fill="#404040">
                        <set attributeName="fill" to="#808080" begin="arrowRight.mouseover" end="arrowRight.mouseout"/>
                  </use>
                  <path fill="none" stroke="white" stroke-width="1.5" d="M0,-3.0v7 M-2.5,-0.5L0,-3.0L2.5,-0.5"/>
                </g>
                <g id="arrowDown" xlink:href="#dirArrow" transform="rotate(180) translate(-30 -48)" onmousedown="handlePan(0,1)">
                  <use xlink:href="#rim" fill="#404040">
                        <set attributeName="fill" to="#808080" begin="arrowDown.mouseover" end="arrowDown.mouseout"/>
                  </use>
                  <path fill="none" stroke="white" stroke-width="1.5" d="M0,-3.0v7 M-2.5,-0.5L0,-3.0L2.5,-0.5"/>
                </g>
                <g id="arrowLeft" xlink:href="#dirArrow" transform="rotate(270) translate(-36 17)" onmousedown="handlePan(-1,0)">
                  <use xlink:href="#rim" fill="#404040">
                        <set attributeName="fill" to="#808080" begin="arrowLeft.mouseover" end="arrowLeft.mouseout"/>
                  </use>
                  <path fill="none" stroke="white" stroke-width="1.5" d="M0,-3.0v7 M-2.5,-0.5L0,-3.0L2.5,-0.5"/>
                </g>
        </g>
        <svg viewBox="0 0 15 15" width="100%" height="30px" preserveAspectRatio="xMaxYMin meet">
         <g id="arrow_out" transform="scale(0.3 0.3)">
          <a xlink:href="classDiffusionOperator__coll__graph_org.svg" target="_base">
           <rect id="button" ry="5" rx="5" y="6" x="6" height="38" width="38"
                fill="#f2f5e9" fill-opacity="0.5" stroke="#606060" stroke-width="1.0"/>
           <path id="arrow"
             d="M 11.500037,31.436501 C 11.940474,20.09759 22.043105,11.32322 32.158766,21.979434 L 37.068811,17.246167 C 37.068811,17.246167 37.088388,32 37.088388,32 L 22.160133,31.978069 C 22.160133,31.978069 26.997745,27.140456 26.997745,27.140456 C 18.528582,18.264221 13.291696,25.230495 11.500037,31.436501 z"
             style="fill:#404040;"/>
          </a>
         </g>
        </svg>
</svg>
