<?xml version="1.0" encoding="UTF-8" standalone="no"?>
<!DOCTYPE svg PUBLIC "-//W3C//DTD SVG 1.1//EN"
 "http://www.w3.org/Graphics/SVG/1.1/DTD/svg11.dtd">
<!-- Generated by graphviz version 2.43.0 (0)
 -->
<!-- Title: SolverHyprePCG::create_solver Pages: 1 -->
<!--zoomable 187 -->
<svg id="main" version="1.1" xmlns="http://www.w3.org/2000/svg" xmlns:xlink="http://www.w3.org/1999/xlink" xml:space="preserve" onload="init(evt)">
<style type="text/css"><![CDATA[
.edge:hover path { stroke: red; }
.edge:hover polygon { stroke: red; fill: red; }
]]></style>
<script type="text/javascript"><![CDATA[
var edges = document.getElementsByTagName('g');
if (edges && edges.length) {
  for (var i=0;i<edges.length;i++) {
    if (edges[i].id.substr(0,4)=='edge') {
      edges[i].setAttribute('class','edge');
    }
  }
}
]]></script>
        <defs>
                <circle id="rim" cx="0" cy="0" r="7"/>
                <circle id="rim2" cx="0" cy="0" r="3.5"/>
                <g id="zoomPlus">
                        <use xlink:href="#rim" fill="#404040">
                                <set attributeName="fill" to="#808080" begin="zoomplus.mouseover" end="zoomplus.mouseout"/>
                        </use>
                        <path d="M-4,0h8M0,-4v8" fill="none" stroke="white" stroke-width="1.5" pointer-events="none"/>
                </g>
                <g id="zoomMin">
                        <use xlink:href="#rim" fill="#404040">
                                <set attributeName="fill" to="#808080" begin="zoomminus.mouseover" end="zoomminus.mouseout"/>
                        </use>
                        <path d="M-4,0h8" fill="none" stroke="white" stroke-width="1.5" pointer-events="none"/>
                </g>
                <g id="dirArrow">
                        <path fill="none" stroke="white" stroke-width="1.5" d="M0,-3.0v7 M-2.5,-0.5L0,-3.0L2.5,-0.5"/>
                </g>
               <g id="resetDef">
                       <use xlink:href="#rim2" fill="#404040">
                               <set attributeName="fill" to="#808080" begin="reset.mouseover" end="reset.mouseout"/>
                       </use>
               </g>
        </defs>

<script type="text/javascript">
var viewWidth = 553;
var viewHeight = 187;
var sectionId = 'dynsection-2';
</script>
<script xlink:href="svgpan.js"/>
<svg id="graph" class="graph">
<g id="viewport">
<title>SolverHyprePCG::create_solver</title>
<!-- Node1 -->
<g id="node1" class="node">
<title>Node1</title>
<g id="a_node1"><a xlink:title="Create a iterative solver based of the SolverType and a list of Parameters.">
<polygon fill="#bfbfbf" stroke="black" points="0,-76.5 0,-106.5 141,-106.5 141,-76.5 0,-76.5"/>
<text text-anchor="start" x="8" y="-94.5" font-family="serif" font-size="10.00">SolverHyprePCG::create</text>
<text text-anchor="middle" x="70.5" y="-83.5" font-family="serif" font-size="10.00">_solver</text>
</a>
</g>
</g>
<!-- Node2 -->
<g id="node2" class="node">
<title>Node2</title>
<g id="a_node2"><a xlink:href="classSlothInfo.html#a854d3cafdb9f5a77f1063a27d2a27e04" target="_top" xlink:title="Print information on Debug mode.">
<polygon fill="none" stroke="black" points="214.5,-159 214.5,-178 316.5,-178 316.5,-159 214.5,-159"/>
<text text-anchor="middle" x="265.5" y="-166" font-family="serif" font-size="10.00">SlothInfo::debug</text>
</a>
</g>
</g>
<!-- Node1&#45;&gt;Node2 -->
<g id="edge1" class="edge">
<title>Node1&#45;&gt;Node2</title>
<path fill="none" stroke="midnightblue" d="M94.45,-106.67C115.22,-119.76 147.05,-138.29 177,-149.5 185.66,-152.74 195.02,-155.5 204.29,-157.83"/>
<polygon fill="midnightblue" stroke="midnightblue" points="203.73,-161.3 214.27,-160.19 205.34,-154.49 203.73,-161.3"/>
</g>
<!-- Node3 -->
<g id="node3" class="node">
<title>Node3</title>
<g id="a_node3"><a xlink:href="classSolverBase.html#a52edc30e08c2552f8ceb3d9ea928b059" target="_top" xlink:title=" ">
<polygon fill="none" stroke="black" points="177,-99 177,-140 354,-140 354,-99 177,-99"/>
<text text-anchor="start" x="185" y="-128" font-family="serif" font-size="10.00">SolverBase&lt; mfem::HyprePCG,</text>
<text text-anchor="start" x="185" y="-117" font-family="serif" font-size="10.00"> HypreSolverType &gt;::get</text>
<text text-anchor="middle" x="265.5" y="-106" font-family="serif" font-size="10.00">_description</text>
</a>
</g>
</g>
<!-- Node1&#45;&gt;Node3 -->
<g id="edge2" class="edge">
<title>Node1&#45;&gt;Node3</title>
<path fill="none" stroke="midnightblue" d="M141.18,-101.61C149.48,-102.81 158.07,-104.06 166.68,-105.31"/>
<polygon fill="midnightblue" stroke="midnightblue" points="166.37,-108.8 176.77,-106.77 167.38,-101.87 166.37,-108.8"/>
</g>
<!-- Node4 -->
<g id="node4" class="node">
<title>Node4</title>
<g id="a_node4"><a xlink:href="classParameters.html#ae3b314c5ebc3fde8684b0634b2406da6" target="_top" xlink:title="Return the value of the parameter associated to the given name.">
<polygon fill="none" stroke="black" points="198,-49.5 198,-79.5 333,-79.5 333,-49.5 198,-49.5"/>
<text text-anchor="start" x="206" y="-67.5" font-family="serif" font-size="10.00">Parameters::get_param</text>
<text text-anchor="middle" x="265.5" y="-56.5" font-family="serif" font-size="10.00">_value</text>
</a>
</g>
</g>
<!-- Node1&#45;&gt;Node4 -->
<g id="edge3" class="edge">
<title>Node1&#45;&gt;Node4</title>
<path fill="none" stroke="midnightblue" d="M141.18,-81.75C156.32,-79.63 172.43,-77.38 187.83,-75.23"/>
<polygon fill="midnightblue" stroke="midnightblue" points="188.41,-78.68 197.83,-73.83 187.44,-71.75 188.41,-78.68"/>
</g>
<!-- Node7 -->
<g id="node7" class="node">
<title>Node7</title>
<g id="a_node7"><a xlink:href="classParameters.html#a857c53fbe60d7bd2f91e91626f85b6d2" target="_top" xlink:title="Return the value of the parameter associated to the given name or, use th edefault given,...">
<polygon fill="none" stroke="black" points="198,-0.5 198,-30.5 333,-30.5 333,-0.5 198,-0.5"/>
<text text-anchor="start" x="206" y="-18.5" font-family="serif" font-size="10.00">Parameters::get_param</text>
<text text-anchor="middle" x="265.5" y="-7.5" font-family="serif" font-size="10.00">_value_or_default</text>
</a>
</g>
</g>
<!-- Node1&#45;&gt;Node7 -->
<g id="edge6" class="edge">
<title>Node1&#45;&gt;Node7</title>
<path fill="none" stroke="midnightblue" d="M99.57,-76.29C120.5,-65.36 150.01,-50.79 177,-40.5 183.35,-38.08 190.03,-35.77 196.76,-33.59"/>
<polygon fill="midnightblue" stroke="midnightblue" points="198.11,-36.84 206.61,-30.51 196.03,-30.16 198.11,-36.84"/>
</g>
<!-- Node5 -->
<g id="node5" class="node">
<title>Node5</title>
<g id="a_node5"><a xlink:href="classParameters.html#aacf1a423c07aa2e63d2397fe903a1388" target="_top" xlink:title="Return the parameter associated to the given name.">
<polygon fill="none" stroke="black" points="390,-52 390,-71 545,-71 545,-52 390,-52"/>
<text text-anchor="middle" x="467.5" y="-59" font-family="serif" font-size="10.00">Parameters::get_parameter</text>
</a>
</g>
</g>
<!-- Node4&#45;&gt;Node5 -->
<g id="edge4" class="edge">
<title>Node4&#45;&gt;Node5</title>
<path fill="none" stroke="midnightblue" d="M333.1,-63.5C348.01,-63.28 364.05,-63.04 379.65,-62.8"/>
<polygon fill="midnightblue" stroke="midnightblue" points="379.87,-66.3 389.82,-62.65 379.77,-59.3 379.87,-66.3"/>
</g>
<!-- Node6 -->
<g id="node6" class="node">
<title>Node6</title>
<g id="a_node6"><a xlink:href="classParameter.html#a7874e1270fe62aecf3063a4f9edecb47" target="_top" xlink:title="Return the value of the paramter.">
<polygon fill="none" stroke="black" points="405,-11 405,-30 530,-30 530,-11 405,-11"/>
<text text-anchor="middle" x="467.5" y="-18" font-family="serif" font-size="10.00">Parameter::get_value</text>
</a>
</g>
</g>
<!-- Node4&#45;&gt;Node6 -->
<g id="edge5" class="edge">
<title>Node4&#45;&gt;Node6</title>
<path fill="none" stroke="midnightblue" d="M333.1,-49.85C359.16,-44.11 388.65,-37.63 413.26,-32.21"/>
<polygon fill="midnightblue" stroke="midnightblue" points="414.12,-35.61 423.14,-30.04 412.62,-28.77 414.12,-35.61"/>
</g>
<!-- Node7&#45;&gt;Node5 -->
<g id="edge7" class="edge">
<title>Node7&#45;&gt;Node5</title>
<path fill="none" stroke="midnightblue" d="M331.99,-30.56C359.04,-36.78 389.94,-43.89 415.29,-49.72"/>
<polygon fill="midnightblue" stroke="midnightblue" points="414.54,-53.14 425.07,-51.97 416.11,-46.32 414.54,-53.14"/>
</g>
<!-- Node7&#45;&gt;Node6 -->
<g id="edge8" class="edge">
<title>Node7&#45;&gt;Node6</title>
<path fill="none" stroke="midnightblue" d="M333.1,-17.16C352.93,-17.66 374.74,-18.21 394.88,-18.71"/>
<polygon fill="midnightblue" stroke="midnightblue" points="394.84,-22.21 404.92,-18.96 395.01,-15.21 394.84,-22.21"/>
</g>
</g>
</svg>
        <g id="navigator" transform="translate(0 0)" fill="#404254">
                <rect fill="#f2f5e9" fill-opacity="0.5" stroke="#606060" stroke-width=".5" x="0" y="0" width="60" height="60"/>
                <use id="zoomplus" xlink:href="#zoomPlus" x="17" y="9" onmousedown="handleZoom(evt,'in')"/>
                <use id="zoomminus" xlink:href="#zoomMin" x="42" y="9" onmousedown="handleZoom(evt,'out')"/>
                <use id="reset" xlink:href="#resetDef" x="30" y="36" onmousedown="handleReset()"/>
                <g id="arrowUp" xlink:href="#dirArrow" transform="translate(30 24)" onmousedown="handlePan(0,-1)">
                  <use xlink:href="#rim" fill="#404040">
                        <set attributeName="fill" to="#808080" begin="arrowUp.mouseover" end="arrowUp.mouseout"/>
                  </use>
                  <path fill="none" stroke="white" stroke-width="1.5" d="M0,-3.0v7 M-2.5,-0.5L0,-3.0L2.5,-0.5"/>
                </g>
                <g id="arrowRight" xlink:href="#dirArrow" transform="rotate(90) translate(36 -43)" onmousedown="handlePan(1,0)">
                  <use xlink:href="#rim" fill="#404040">
                        <set attributeName="fill" to="#808080" begin="arrowRight.mouseover" end="arrowRight.mouseout"/>
                  </use>
                  <path fill="none" stroke="white" stroke-width="1.5" d="M0,-3.0v7 M-2.5,-0.5L0,-3.0L2.5,-0.5"/>
                </g>
                <g id="arrowDown" xlink:href="#dirArrow" transform="rotate(180) translate(-30 -48)" onmousedown="handlePan(0,1)">
                  <use xlink:href="#rim" fill="#404040">
                        <set attributeName="fill" to="#808080" begin="arrowDown.mouseover" end="arrowDown.mouseout"/>
                  </use>
                  <path fill="none" stroke="white" stroke-width="1.5" d="M0,-3.0v7 M-2.5,-0.5L0,-3.0L2.5,-0.5"/>
                </g>
                <g id="arrowLeft" xlink:href="#dirArrow" transform="rotate(270) translate(-36 17)" onmousedown="handlePan(-1,0)">
                  <use xlink:href="#rim" fill="#404040">
                        <set attributeName="fill" to="#808080" begin="arrowLeft.mouseover" end="arrowLeft.mouseout"/>
                  </use>
                  <path fill="none" stroke="white" stroke-width="1.5" d="M0,-3.0v7 M-2.5,-0.5L0,-3.0L2.5,-0.5"/>
                </g>
        </g>
        <svg viewBox="0 0 15 15" width="100%" height="30px" preserveAspectRatio="xMaxYMin meet">
         <g id="arrow_out" transform="scale(0.3 0.3)">
          <a xlink:href="classSolverHyprePCG_a2122f479fde910c6a27b6f74bf750324_cgraph_org.svg" target="_base">
           <rect id="button" ry="5" rx="5" y="6" x="6" height="38" width="38"
                fill="#f2f5e9" fill-opacity="0.5" stroke="#606060" stroke-width="1.0"/>
           <path id="arrow"
             d="M 11.500037,31.436501 C 11.940474,20.09759 22.043105,11.32322 32.158766,21.979434 L 37.068811,17.246167 C 37.068811,17.246167 37.088388,32 37.088388,32 L 22.160133,31.978069 C 22.160133,31.978069 26.997745,27.140456 26.997745,27.140456 C 18.528582,18.264221 13.291696,25.230495 11.500037,31.436501 z"
             style="fill:#404040;"/>
          </a>
         </g>
        </svg>
</svg>
