<?xml version="1.0" encoding="UTF-8" standalone="no"?>
<!DOCTYPE svg PUBLIC "-//W3C//DTD SVG 1.1//EN"
 "http://www.w3.org/Graphics/SVG/1.1/DTD/svg11.dtd">
<!-- Generated by graphviz version 2.43.0 (0)
 -->
<!-- Title: TransientOperatorBase&lt; T, DIM, NLFI, LHS_NLFI &gt; Pages: 1 -->
<svg width="378pt" height="195pt"
 viewBox="0.00 0.00 377.50 195.00" xmlns="http://www.w3.org/2000/svg" xmlns:xlink="http://www.w3.org/1999/xlink">
<g id="graph0" class="graph" transform="scale(1 1) rotate(0) translate(4 191)">
<title>TransientOperatorBase&lt; T, DIM, NLFI, LHS_NLFI &gt;</title>
<!-- Node1 -->
<g id="node1" class="node">
<title>Node1</title>
<g id="a_node1"><a xlink:title="TransientOperatorBase class.">
<polygon fill="#bfbfbf" stroke="black" points="121,-0.5 121,-30.5 286,-30.5 286,-0.5 121,-0.5"/>
<text text-anchor="start" x="129" y="-18.5" font-family="serif" font-size="10.00">TransientOperatorBase</text>
<text text-anchor="middle" x="203.5" y="-7.5" font-family="serif" font-size="10.00">&lt; T, DIM, NLFI, LHS_NLFI &gt;</text>
</a>
</g>
</g>
<!-- Node2 -->
<g id="node2" class="node">
<title>Node2</title>
<g id="a_node2"><a xlink:href="classOperatorBase.html" target="_top" xlink:title="Base class for building Steady and TimeDependent PhaseFieldOperators.">
<polygon fill="none" stroke="black" points="52,-78.5 52,-108.5 187,-108.5 187,-78.5 52,-78.5"/>
<text text-anchor="start" x="60" y="-96.5" font-family="serif" font-size="10.00">OperatorBase&lt; T, DIM,</text>
<text text-anchor="middle" x="119.5" y="-85.5" font-family="serif" font-size="10.00"> NLFI, LHS_NLFI &gt;</text>
</a>
</g>
</g>
<!-- Node2&#45;&gt;Node1 -->
<g id="edge1" class="edge">
<title>Node2&#45;&gt;Node1</title>
<path fill="none" stroke="midnightblue" d="M142.83,-71.39C157.15,-58.43 175.12,-42.18 187.77,-30.73"/>
<polygon fill="midnightblue" stroke="midnightblue" points="140.37,-68.9 135.3,-78.2 145.06,-74.09 140.37,-68.9"/>
</g>
<!-- Node3 -->
<g id="node3" class="node">
<title>Node3</title>
<g id="a_node3"><a xlink:href="classParameter.html" target="_top" xlink:title=" ">
<polygon fill="none" stroke="black" points="0,-167.5 0,-186.5 69,-186.5 69,-167.5 0,-167.5"/>
<text text-anchor="middle" x="34.5" y="-174.5" font-family="serif" font-size="10.00">Parameter</text>
</a>
</g>
</g>
<!-- Node3&#45;&gt;Node2 -->
<g id="edge2" class="edge">
<title>Node3&#45;&gt;Node2</title>
<path fill="none" stroke="#9a32cd" stroke-dasharray="5,2" d="M40.21,-157.96C44.11,-147.9 50.1,-135.7 58.5,-127 65.67,-119.58 74.91,-113.48 84.01,-108.64"/>
<polygon fill="#9a32cd" stroke="#9a32cd" points="36.9,-156.82 36.9,-167.42 43.51,-159.14 36.9,-156.82"/>
<text text-anchor="middle" x="87" y="-135.5" font-family="serif" font-size="10.00"> default_p_</text>
</g>
<!-- Node4 -->
<g id="node4" class="node">
<title>Node4</title>
<g id="a_node4"><a xlink:href="classNLSolver.html" target="_top" xlink:title=" ">
<polygon fill="none" stroke="black" points="87,-167.5 87,-186.5 152,-186.5 152,-167.5 87,-167.5"/>
<text text-anchor="middle" x="119.5" y="-174.5" font-family="serif" font-size="10.00">NLSolver</text>
</a>
</g>
</g>
<!-- Node4&#45;&gt;Node2 -->
<g id="edge3" class="edge">
<title>Node4&#45;&gt;Node2</title>
<path fill="none" stroke="#9a32cd" stroke-dasharray="5,2" d="M119.5,-157.23C119.5,-142.41 119.5,-122.05 119.5,-108.6"/>
<polygon fill="#9a32cd" stroke="#9a32cd" points="116,-157.28 119.5,-167.28 123,-157.28 116,-157.28"/>
<text text-anchor="middle" x="150" y="-135.5" font-family="serif" font-size="10.00"> rhs_solver_</text>
</g>
<!-- Node5 -->
<g id="node5" class="node">
<title>Node5</title>
<g id="a_node5"><a xlink:href="classParameters.html" target="_top" xlink:title=" ">
<polygon fill="none" stroke="black" points="170.5,-167.5 170.5,-186.5 244.5,-186.5 244.5,-167.5 170.5,-167.5"/>
<text text-anchor="middle" x="207.5" y="-174.5" font-family="serif" font-size="10.00">Parameters</text>
</a>
</g>
</g>
<!-- Node5&#45;&gt;Node2 -->
<g id="edge4" class="edge">
<title>Node5&#45;&gt;Node2</title>
<path fill="none" stroke="#9a32cd" stroke-dasharray="5,2" d="M202.15,-157.56C198.5,-147.54 192.79,-135.5 184.5,-127 177.1,-119.41 167.56,-113.31 158.08,-108.53"/>
<polygon fill="#9a32cd" stroke="#9a32cd" points="198.92,-158.94 205.34,-167.37 205.58,-156.78 198.92,-158.94"/>
<text text-anchor="middle" x="242.5" y="-141" font-family="serif" font-size="10.00"> default_params_</text>
<text text-anchor="middle" x="242.5" y="-130" font-family="serif" font-size="10.00">params_</text>
</g>
<!-- Node6 -->
<g id="node6" class="node">
<title>Node6</title>
<g id="a_node6"><a xlink:href="classPhaseFieldReducedOperator.html" target="_top" xlink:title=" ">
<polygon fill="none" stroke="black" points="205.5,-84 205.5,-103 369.5,-103 369.5,-84 205.5,-84"/>
<text text-anchor="middle" x="287.5" y="-91" font-family="serif" font-size="10.00">PhaseFieldReducedOperator</text>
</a>
</g>
</g>
<!-- Node6&#45;&gt;Node1 -->
<g id="edge5" class="edge">
<title>Node6&#45;&gt;Node1</title>
<path fill="none" stroke="#9a32cd" stroke-dasharray="5,2" d="M270.26,-76.9C255.2,-63.27 233.52,-43.66 219,-30.52"/>
<polygon fill="#9a32cd" stroke="#9a32cd" points="268.1,-79.67 277.86,-83.78 272.8,-74.48 268.1,-79.67"/>
<text text-anchor="middle" x="288.5" y="-52" font-family="serif" font-size="10.00"> reduced_oper</text>
</g>
</g>
</svg>
