<?xml version="1.0" encoding="UTF-8" standalone="no"?>
<!DOCTYPE svg PUBLIC "-//W3C//DTD SVG 1.1//EN"
 "http://www.w3.org/Graphics/SVG/1.1/DTD/svg11.dtd">
<!-- Generated by graphviz version 2.43.0 (0)
 -->
<!-- Title: ThermalDiffusionFluxNLFormIntegrator&lt; VARS &gt; Pages: 1 -->
<svg width="187pt" height="242pt"
 viewBox="0.00 0.00 187.00 242.00" xmlns="http://www.w3.org/2000/svg" xmlns:xlink="http://www.w3.org/1999/xlink">
<g id="graph0" class="graph" transform="scale(1 1) rotate(0) translate(4 238)">
<title>ThermalDiffusionFluxNLFormIntegrator&lt; VARS &gt;</title>
<!-- Node1 -->
<g id="node1" class="node">
<title>Node1</title>
<g id="a_node1"><a xlink:title="Class dedicated to the VF of thermal diffusion flux used in energy balance equation.">
<polygon fill="#bfbfbf" stroke="black" points="4.5,-0.5 4.5,-30.5 174.5,-30.5 174.5,-0.5 4.5,-0.5"/>
<text text-anchor="start" x="12.5" y="-18.5" font-family="serif" font-size="10.00">ThermalDiffusionFluxNLForm</text>
<text text-anchor="middle" x="89.5" y="-7.5" font-family="serif" font-size="10.00">Integrator&lt; VARS &gt;</text>
</a>
</g>
</g>
<!-- Node2 -->
<g id="node2" class="node">
<title>Node2</title>
<g id="a_node2"><a xlink:href="classDiffusionFluxNLFormIntegrator.html" target="_top" xlink:title="Class dedicated to the VF of an inter&#45;diffusion equation.">
<polygon fill="none" stroke="black" points="0,-68.5 0,-98.5 179,-98.5 179,-68.5 0,-68.5"/>
<text text-anchor="start" x="8" y="-86.5" font-family="serif" font-size="10.00">DiffusionFluxNLFormIntegrator</text>
<text text-anchor="middle" x="89.5" y="-75.5" font-family="serif" font-size="10.00">&lt; VARS &gt;</text>
</a>
</g>
</g>
<!-- Node2&#45;&gt;Node1 -->
<g id="edge1" class="edge">
<title>Node2&#45;&gt;Node1</title>
<path fill="none" stroke="midnightblue" d="M89.5,-58.03C89.5,-48.86 89.5,-38.74 89.5,-30.79"/>
<polygon fill="midnightblue" stroke="midnightblue" points="86,-58.18 89.5,-68.18 93,-58.18 86,-58.18"/>
</g>
<!-- Node3 -->
<g id="node3" class="node">
<title>Node3</title>
<g id="a_node3"><a xlink:href="classSlothNLFormIntegrator.html" target="_top" xlink:title="Class prodiving common methods to all NLFormIntegrators.">
<polygon fill="none" stroke="black" points="21,-136.5 21,-166.5 158,-166.5 158,-136.5 21,-136.5"/>
<text text-anchor="start" x="29" y="-154.5" font-family="serif" font-size="10.00">SlothNLFormIntegrator</text>
<text text-anchor="middle" x="89.5" y="-143.5" font-family="serif" font-size="10.00">&lt; VARS &gt;</text>
</a>
</g>
</g>
<!-- Node3&#45;&gt;Node2 -->
<g id="edge2" class="edge">
<title>Node3&#45;&gt;Node2</title>
<path fill="none" stroke="midnightblue" d="M89.5,-126.03C89.5,-116.86 89.5,-106.74 89.5,-98.79"/>
<polygon fill="midnightblue" stroke="midnightblue" points="86,-126.18 89.5,-136.18 93,-126.18 86,-126.18"/>
</g>
<!-- Node4 -->
<g id="node4" class="node">
<title>Node4</title>
<g id="a_node4"><a xlink:href="classParameters.html" target="_top" xlink:title=" ">
<polygon fill="none" stroke="black" points="52.5,-214.5 52.5,-233.5 126.5,-233.5 126.5,-214.5 52.5,-214.5"/>
<text text-anchor="middle" x="89.5" y="-221.5" font-family="serif" font-size="10.00">Parameters</text>
</a>
</g>
</g>
<!-- Node4&#45;&gt;Node3 -->
<g id="edge3" class="edge">
<title>Node4&#45;&gt;Node3</title>
<path fill="none" stroke="#9a32cd" stroke-dasharray="5,2" d="M89.5,-204.24C89.5,-192.41 89.5,-177.38 89.5,-166.58"/>
<polygon fill="#9a32cd" stroke="#9a32cd" points="86,-204.36 89.5,-214.36 93,-204.36 86,-204.36"/>
<text text-anchor="middle" x="113" y="-188" font-family="serif" font-size="10.00"> params_</text>
</g>
</g>
</svg>
