<?xml version="1.0" encoding="UTF-8" standalone="no"?>
<!DOCTYPE svg PUBLIC "-//W3C//DTD SVG 1.1//EN"
 "http://www.w3.org/Graphics/SVG/1.1/DTD/svg11.dtd">
<!-- Generated by graphviz version 2.43.0 (0)
 -->
<!-- Title: AllenCahnConstantMeltingNLFormIntegrator&lt; VARS, SCHEME, ENERGY, MOBI, INTERPOLATION &gt; Pages: 1 -->
<svg width="943pt" height="61pt"
 viewBox="0.00 0.00 943.00 61.00" xmlns="http://www.w3.org/2000/svg" xmlns:xlink="http://www.w3.org/1999/xlink">
<g id="graph0" class="graph" transform="scale(1 1) rotate(0) translate(4 57)">
<title>AllenCahnConstantMeltingNLFormIntegrator&lt; VARS, SCHEME, ENERGY, MOBI, INTERPOLATION &gt;</title>
<!-- Node1 -->
<g id="node1" class="node">
<title>Node1</title>
<g id="a_node1"><a xlink:title=" ">
<polygon fill="#bfbfbf" stroke="black" points="777,-0.5 777,-52.5 935,-52.5 935,-0.5 777,-0.5"/>
<text text-anchor="start" x="785" y="-40.5" font-family="serif" font-size="10.00">AllenCahnConstantMelting</text>
<text text-anchor="start" x="785" y="-29.5" font-family="serif" font-size="10.00">NLFormIntegrator&lt; VARS,</text>
<text text-anchor="start" x="785" y="-18.5" font-family="serif" font-size="10.00"> SCHEME, ENERGY, MOBI,</text>
<text text-anchor="middle" x="856" y="-7.5" font-family="serif" font-size="10.00"> INTERPOLATION &gt;</text>
</a>
</g>
</g>
<!-- Node2 -->
<g id="node2" class="node">
<title>Node2</title>
<g id="a_node2"><a xlink:href="classAllenCahnMeltingBaseNLFormIntegrator.html" target="_top" xlink:title=" ">
<polygon fill="none" stroke="black" points="532,-6 532,-47 740,-47 740,-6 532,-6"/>
<text text-anchor="start" x="540" y="-35" font-family="serif" font-size="10.00">AllenCahnMeltingBaseNLForm</text>
<text text-anchor="start" x="540" y="-24" font-family="serif" font-size="10.00">Integrator&lt; VARS, SCHEME,</text>
<text text-anchor="middle" x="636" y="-13" font-family="serif" font-size="10.00"> ENERGY, MOBI, INTERPOLATION &gt;</text>
</a>
</g>
</g>
<!-- Node2&#45;&gt;Node1 -->
<g id="edge1" class="edge">
<title>Node2&#45;&gt;Node1</title>
<path fill="none" stroke="midnightblue" d="M750.37,-26.5C759.33,-26.5 768.26,-26.5 776.89,-26.5"/>
<polygon fill="midnightblue" stroke="midnightblue" points="750.25,-23 740.25,-26.5 750.25,-30 750.25,-23"/>
</g>
<!-- Node3 -->
<g id="node3" class="node">
<title>Node3</title>
<g id="a_node3"><a xlink:href="classAllenCahnNLFormIntegrator.html" target="_top" xlink:title="Class dedicated to the FV of the Allen Cahn equation.">
<polygon fill="none" stroke="black" points="331,-6 331,-47 495,-47 495,-6 331,-6"/>
<text text-anchor="start" x="339" y="-35" font-family="serif" font-size="10.00">AllenCahnNLFormIntegrator</text>
<text text-anchor="start" x="339" y="-24" font-family="serif" font-size="10.00">&lt; VARS, SCHEME, ENERGY,</text>
<text text-anchor="middle" x="413" y="-13" font-family="serif" font-size="10.00"> MOBI &gt;</text>
</a>
</g>
</g>
<!-- Node3&#45;&gt;Node2 -->
<g id="edge2" class="edge">
<title>Node3&#45;&gt;Node2</title>
<path fill="none" stroke="midnightblue" d="M505.22,-26.5C513.98,-26.5 522.9,-26.5 531.76,-26.5"/>
<polygon fill="midnightblue" stroke="midnightblue" points="505.04,-23 495.04,-26.5 505.04,-30 505.04,-23"/>
</g>
<!-- Node4 -->
<g id="node4" class="node">
<title>Node4</title>
<g id="a_node4"><a xlink:href="classSlothNLFormIntegrator.html" target="_top" xlink:title="Class prodiving common methods to all NLFormIntegrators.">
<polygon fill="none" stroke="black" points="157,-11.5 157,-41.5 294,-41.5 294,-11.5 157,-11.5"/>
<text text-anchor="start" x="165" y="-29.5" font-family="serif" font-size="10.00">SlothNLFormIntegrator</text>
<text text-anchor="middle" x="225.5" y="-18.5" font-family="serif" font-size="10.00">&lt; VARS &gt;</text>
</a>
</g>
</g>
<!-- Node4&#45;&gt;Node3 -->
<g id="edge3" class="edge">
<title>Node4&#45;&gt;Node3</title>
<path fill="none" stroke="midnightblue" d="M304.42,-26.5C313.17,-26.5 322.09,-26.5 330.88,-26.5"/>
<polygon fill="midnightblue" stroke="midnightblue" points="304.26,-23 294.26,-26.5 304.26,-30 304.26,-23"/>
</g>
<!-- Node5 -->
<g id="node5" class="node">
<title>Node5</title>
<g id="a_node5"><a xlink:href="classParameters.html" target="_top" xlink:title=" ">
<polygon fill="none" stroke="black" points="0,-17 0,-36 74,-36 74,-17 0,-17"/>
<text text-anchor="middle" x="37" y="-24" font-family="serif" font-size="10.00">Parameters</text>
</a>
</g>
</g>
<!-- Node5&#45;&gt;Node4 -->
<g id="edge4" class="edge">
<title>Node5&#45;&gt;Node4</title>
<path fill="none" stroke="#9a32cd" stroke-dasharray="5,2" d="M84.42,-26.5C106.29,-26.5 132.81,-26.5 156.86,-26.5"/>
<polygon fill="#9a32cd" stroke="#9a32cd" points="84.4,-23 74.4,-26.5 84.4,-30 84.4,-23"/>
<text text-anchor="middle" x="115.5" y="-29.5" font-family="serif" font-size="10.00"> params_</text>
</g>
</g>
</svg>
