<?xml version="1.0" encoding="UTF-8" standalone="no"?>
<!DOCTYPE svg PUBLIC "-//W3C//DTD SVG 1.1//EN"
 "http://www.w3.org/Graphics/SVG/1.1/DTD/svg11.dtd">
<!-- Generated by graphviz version 2.43.0 (0)
 -->
<!-- Title: BoundaryConditions::BoundaryConditions Pages: 1 -->
<svg width="324pt" height="137pt"
 viewBox="0.00 0.00 324.00 137.00" xmlns="http://www.w3.org/2000/svg" xmlns:xlink="http://www.w3.org/1999/xlink">
<g id="graph0" class="graph" transform="scale(1 1) rotate(0) translate(4 133)">
<title>BoundaryConditions::BoundaryConditions</title>
<!-- Node1 -->
<g id="node1" class="node">
<title>Node1</title>
<g id="a_node1"><a xlink:title="Construct a new Boundary Conditions:: Boundary Conditions object.">
<polygon fill="#bfbfbf" stroke="black" points="0,-49.5 0,-79.5 128,-79.5 128,-49.5 0,-49.5"/>
<text text-anchor="start" x="8" y="-67.5" font-family="serif" font-size="10.00">BoundaryConditions</text>
<text text-anchor="middle" x="64" y="-56.5" font-family="serif" font-size="10.00">::BoundaryConditions</text>
</a>
</g>
</g>
<!-- Node2 -->
<g id="node2" class="node">
<title>Node2</title>
<g id="a_node2"><a xlink:href="classSpatialDiscretization.html#a1f29ce5ce231196955f27214bff5b15b" target="_top" xlink:title="return a pointer toward the finite element space">
<polygon fill="none" stroke="black" points="164,-98.5 164,-128.5 316,-128.5 316,-98.5 164,-98.5"/>
<text text-anchor="start" x="172" y="-116.5" font-family="serif" font-size="10.00">SpatialDiscretization</text>
<text text-anchor="middle" x="240" y="-105.5" font-family="serif" font-size="10.00">::get_finite_element_space</text>
</a>
</g>
</g>
<!-- Node1&#45;&gt;Node2 -->
<g id="edge1" class="edge">
<title>Node1&#45;&gt;Node2</title>
<path fill="none" stroke="midnightblue" d="M118.63,-79.6C136.74,-84.7 157.12,-90.44 175.9,-95.73"/>
<polygon fill="midnightblue" stroke="midnightblue" points="174.98,-99.11 185.55,-98.45 176.87,-92.37 174.98,-99.11"/>
</g>
<!-- Node3 -->
<g id="node3" class="node">
<title>Node3</title>
<g id="a_node3"><a xlink:href="classSpatialDiscretization.html#a12e288f4b49c651150f0efbe0b717b07" target="_top" xlink:title="get the maximum number of boundaries">
<polygon fill="none" stroke="black" points="168,-49.5 168,-79.5 312,-79.5 312,-49.5 168,-49.5"/>
<text text-anchor="start" x="176" y="-67.5" font-family="serif" font-size="10.00">SpatialDiscretization</text>
<text text-anchor="middle" x="240" y="-56.5" font-family="serif" font-size="10.00">::get_max_bdr_attributes</text>
</a>
</g>
</g>
<!-- Node1&#45;&gt;Node3 -->
<g id="edge2" class="edge">
<title>Node1&#45;&gt;Node3</title>
<path fill="none" stroke="midnightblue" d="M128.31,-64.5C137.83,-64.5 147.76,-64.5 157.59,-64.5"/>
<polygon fill="midnightblue" stroke="midnightblue" points="157.78,-68 167.78,-64.5 157.78,-61 157.78,-68"/>
</g>
<!-- Node4 -->
<g id="node4" class="node">
<title>Node4</title>
<g id="a_node4"><a xlink:href="classSpatialDiscretization.html#a503f95d7a41ea96afcc31413320995e6" target="_top" xlink:title="Return the flag to know whether the mesh is periodic or not.">
<polygon fill="none" stroke="black" points="179,-0.5 179,-30.5 301,-30.5 301,-0.5 179,-0.5"/>
<text text-anchor="start" x="187" y="-18.5" font-family="serif" font-size="10.00">SpatialDiscretization</text>
<text text-anchor="middle" x="240" y="-7.5" font-family="serif" font-size="10.00">::is_periodic</text>
</a>
</g>
</g>
<!-- Node1&#45;&gt;Node4 -->
<g id="edge3" class="edge">
<title>Node1&#45;&gt;Node4</title>
<path fill="none" stroke="midnightblue" d="M118.63,-49.4C136.74,-44.3 157.12,-38.56 175.9,-33.27"/>
<polygon fill="midnightblue" stroke="midnightblue" points="176.87,-36.63 185.55,-30.55 174.98,-29.89 176.87,-36.63"/>
</g>
</g>
</svg>
