<?xml version="1.0" encoding="UTF-8" standalone="no"?>
<!DOCTYPE svg PUBLIC "-//W3C//DTD SVG 1.1//EN"
 "http://www.w3.org/Graphics/SVG/1.1/DTD/svg11.dtd">
<!-- Generated by graphviz version 2.43.0 (0)
 -->
<!-- Title: SlothSolver::get_value Pages: 1 -->
<svg width="730pt" height="617pt"
 viewBox="0.00 0.00 730.00 617.00" xmlns="http://www.w3.org/2000/svg" xmlns:xlink="http://www.w3.org/1999/xlink">
<g id="graph0" class="graph" transform="scale(1 1) rotate(0) translate(4 613)">
<title>SlothSolver::get_value</title>
<!-- Node1 -->
<g id="node1" class="node">
<title>Node1</title>
<g id="a_node1"><a xlink:title="Create the linear solver depending on SolverType.">
<polygon fill="#bfbfbf" stroke="black" points="0,-290 0,-309 131,-309 131,-290 0,-290"/>
<text text-anchor="middle" x="65.5" y="-297" font-family="serif" font-size="10.00">SlothSolver::get_value</text>
</a>
</g>
</g>
<!-- Node2 -->
<g id="node2" class="node">
<title>Node2</title>
<g id="a_node2"><a xlink:href="classSolverUMFPACK.html#a8a0cb7f36e9e9fa812fb45b23e39ab62" target="_top" xlink:title="Create a direct solver based of the SolverType and a list of Parameters.">
<polygon fill="none" stroke="black" points="176.5,-98.5 176.5,-128.5 316.5,-128.5 316.5,-98.5 176.5,-98.5"/>
<text text-anchor="start" x="184.5" y="-116.5" font-family="serif" font-size="10.00">SolverUMFPACK::create</text>
<text text-anchor="middle" x="246.5" y="-105.5" font-family="serif" font-size="10.00">_solver</text>
</a>
</g>
</g>
<!-- Node1&#45;&gt;Node2 -->
<g id="edge1" class="edge">
<title>Node1&#45;&gt;Node2</title>
<path fill="none" stroke="midnightblue" d="M69.73,-289.8C79.58,-261.75 111.93,-179.9 167,-137.5 168.79,-136.12 170.66,-134.82 172.59,-133.6"/>
<polygon fill="midnightblue" stroke="midnightblue" points="174.37,-136.61 181.4,-128.69 170.96,-130.5 174.37,-136.61"/>
</g>
<!-- Node9 -->
<g id="node9" class="node">
<title>Node9</title>
<g id="a_node9"><a xlink:href="classPrecondHypreILU.html#a9747a2d4154f14a83fb87b1f398973ff" target="_top" xlink:title="Create preconditioner based of the PreconditionerType and a list of Parameters.">
<polygon fill="none" stroke="black" points="173.5,-49.5 173.5,-79.5 319.5,-79.5 319.5,-49.5 173.5,-49.5"/>
<text text-anchor="start" x="181.5" y="-67.5" font-family="serif" font-size="10.00">PrecondHypreILU::create</text>
<text text-anchor="middle" x="246.5" y="-56.5" font-family="serif" font-size="10.00">_solver</text>
</a>
</g>
</g>
<!-- Node1&#45;&gt;Node9 -->
<g id="edge10" class="edge">
<title>Node1&#45;&gt;Node9</title>
<path fill="none" stroke="midnightblue" d="M68.23,-289.85C74.71,-256.6 100.62,-145.73 167,-88.5 168.5,-87.21 170.06,-85.99 171.69,-84.83"/>
<polygon fill="midnightblue" stroke="midnightblue" points="173.53,-87.8 180.21,-79.58 169.86,-81.84 173.53,-87.8"/>
</g>
<!-- Node10 -->
<g id="node10" class="node">
<title>Node10</title>
<g id="a_node10"><a xlink:href="classPrecondHypreSmoother.html#a1d685276c8db4a0c7c3acd12662fffd1" target="_top" xlink:title="Create preconditioner based of the PreconditionerType and a list of Parameters.">
<polygon fill="none" stroke="black" points="176.5,-0.5 176.5,-30.5 316.5,-30.5 316.5,-0.5 176.5,-0.5"/>
<text text-anchor="start" x="184.5" y="-18.5" font-family="serif" font-size="10.00">PrecondHypreSmoother</text>
<text text-anchor="middle" x="246.5" y="-7.5" font-family="serif" font-size="10.00">::create_solver</text>
</a>
</g>
</g>
<!-- Node1&#45;&gt;Node10 -->
<g id="edge15" class="edge">
<title>Node1&#45;&gt;Node10</title>
<path fill="none" stroke="midnightblue" d="M67.28,-289.82C70.86,-251.91 89.05,-112.02 167,-39.5 168.14,-38.44 169.33,-37.42 170.55,-36.45"/>
<polygon fill="midnightblue" stroke="midnightblue" points="172.81,-39.16 179.17,-30.68 168.91,-33.34 172.81,-39.16"/>
</g>
<!-- Node11 -->
<g id="node11" class="node">
<title>Node11</title>
<g id="a_node11"><a xlink:href="classPrecondHypreBoomerAMG.html#ae9b8748901ee350584a1c8e3b33eb0a6" target="_top" xlink:title="Create preconditioner based of the PreconditionerType and a list of Parameters.">
<polygon fill="none" stroke="black" points="168,-529.5 168,-559.5 325,-559.5 325,-529.5 168,-529.5"/>
<text text-anchor="start" x="176" y="-547.5" font-family="serif" font-size="10.00">PrecondHypreBoomerAMG</text>
<text text-anchor="middle" x="246.5" y="-536.5" font-family="serif" font-size="10.00">::create_solver</text>
</a>
</g>
</g>
<!-- Node1&#45;&gt;Node11 -->
<g id="edge20" class="edge">
<title>Node1&#45;&gt;Node11</title>
<path fill="none" stroke="midnightblue" d="M68,-309.12C73.84,-343.32 98.26,-460.17 167,-520.5 168.49,-521.8 170.04,-523.04 171.65,-524.2"/>
<polygon fill="midnightblue" stroke="midnightblue" points="169.81,-527.18 180.15,-529.5 173.51,-521.24 169.81,-527.18"/>
</g>
<!-- Node12 -->
<g id="node12" class="node">
<title>Node12</title>
<g id="a_node12"><a xlink:href="classPrecondHypreDiagScale.html#a99a26e0ad57569f0186c286191e591cc" target="_top" xlink:title="Create preconditioner based of the PreconditionerType and a list of Parameters.">
<polygon fill="none" stroke="black" points="175.5,-578.5 175.5,-608.5 317.5,-608.5 317.5,-578.5 175.5,-578.5"/>
<text text-anchor="start" x="183.5" y="-596.5" font-family="serif" font-size="10.00">PrecondHypreDiagScale</text>
<text text-anchor="middle" x="246.5" y="-585.5" font-family="serif" font-size="10.00">::create_solver</text>
</a>
</g>
</g>
<!-- Node1&#45;&gt;Node12 -->
<g id="edge25" class="edge">
<title>Node1&#45;&gt;Node12</title>
<path fill="none" stroke="midnightblue" d="M67.11,-309.01C70.1,-347.56 86.54,-493.7 167,-569.5 168.13,-570.57 169.32,-571.59 170.54,-572.57"/>
<polygon fill="midnightblue" stroke="midnightblue" points="168.87,-575.67 179.12,-578.37 172.8,-569.87 168.87,-575.67"/>
</g>
<!-- Node13 -->
<g id="node13" class="node">
<title>Node13</title>
<g id="a_node13"><a xlink:href="classSolverHyprePCG.html#a2122f479fde910c6a27b6f74bf750324" target="_top" xlink:title="Create a iterative solver based of the SolverType and a list of Parameters.">
<polygon fill="none" stroke="black" points="176,-480.5 176,-510.5 317,-510.5 317,-480.5 176,-480.5"/>
<text text-anchor="start" x="184" y="-498.5" font-family="serif" font-size="10.00">SolverHyprePCG::create</text>
<text text-anchor="middle" x="246.5" y="-487.5" font-family="serif" font-size="10.00">_solver</text>
</a>
</g>
</g>
<!-- Node1&#45;&gt;Node13 -->
<g id="edge29" class="edge">
<title>Node1&#45;&gt;Node13</title>
<path fill="none" stroke="midnightblue" d="M69.42,-309.38C78.61,-338.74 109.77,-426.22 167,-471.5 168.77,-472.9 170.62,-474.22 172.54,-475.46"/>
<polygon fill="midnightblue" stroke="midnightblue" points="170.88,-478.55 181.31,-480.43 174.33,-472.46 170.88,-478.55"/>
</g>
<!-- Node14 -->
<g id="node14" class="node">
<title>Node14</title>
<g id="a_node14"><a xlink:href="classSolverHypreGMRES.html#ae8cd627c6a9dddb56c4ac48a134de7e0" target="_top" xlink:title="Create a iterative solver based of the SolverType and a list of Parameters.">
<polygon fill="none" stroke="black" points="167,-431.5 167,-461.5 326,-461.5 326,-431.5 167,-431.5"/>
<text text-anchor="start" x="175" y="-449.5" font-family="serif" font-size="10.00">SolverHypreGMRES::create</text>
<text text-anchor="middle" x="246.5" y="-438.5" font-family="serif" font-size="10.00">_solver</text>
</a>
</g>
</g>
<!-- Node1&#45;&gt;Node14 -->
<g id="edge34" class="edge">
<title>Node1&#45;&gt;Node14</title>
<path fill="none" stroke="midnightblue" d="M71.66,-309.12C84.56,-332.24 120.52,-391.3 167,-422.5 169.38,-424.1 171.88,-425.6 174.46,-427"/>
<polygon fill="midnightblue" stroke="midnightblue" points="172.94,-430.16 183.47,-431.4 176.02,-423.87 172.94,-430.16"/>
</g>
<!-- Node15 -->
<g id="node15" class="node">
<title>Node15</title>
<g id="a_node15"><a xlink:href="classSolverHypreFGMRES.html#a59a039f5afb942d01777103bad40c300" target="_top" xlink:title="Create a iterative solver based of the SolverType and a list of Parameters.">
<polygon fill="none" stroke="black" points="179.5,-382.5 179.5,-412.5 313.5,-412.5 313.5,-382.5 179.5,-382.5"/>
<text text-anchor="start" x="187.5" y="-400.5" font-family="serif" font-size="10.00">SolverHypreFGMRES::</text>
<text text-anchor="middle" x="246.5" y="-389.5" font-family="serif" font-size="10.00">create_solver</text>
</a>
</g>
</g>
<!-- Node1&#45;&gt;Node15 -->
<g id="edge39" class="edge">
<title>Node1&#45;&gt;Node15</title>
<path fill="none" stroke="midnightblue" d="M76.86,-309.01C94.25,-324.54 130.99,-355.4 167,-373.5 170.72,-375.37 174.62,-377.13 178.61,-378.77"/>
<polygon fill="midnightblue" stroke="midnightblue" points="177.43,-382.07 188.01,-382.41 179.95,-375.54 177.43,-382.07"/>
</g>
<!-- Node16 -->
<g id="node16" class="node">
<title>Node16</title>
<g id="a_node16"><a xlink:href="classSolverBICGSTAB.html#a555f9875dc6d8572bfc1ff0032635c6d" target="_top" xlink:title="Create a iterative solver based of the SolverType and a list of Parameters.">
<polygon fill="none" stroke="black" points="176,-333.5 176,-363.5 317,-363.5 317,-333.5 176,-333.5"/>
<text text-anchor="start" x="184" y="-351.5" font-family="serif" font-size="10.00">SolverBICGSTAB::create</text>
<text text-anchor="middle" x="246.5" y="-340.5" font-family="serif" font-size="10.00">_solver</text>
</a>
</g>
</g>
<!-- Node1&#45;&gt;Node16 -->
<g id="edge44" class="edge">
<title>Node1&#45;&gt;Node16</title>
<path fill="none" stroke="midnightblue" d="M101.44,-309.06C124,-315.24 154.05,-323.46 180.86,-330.8"/>
<polygon fill="midnightblue" stroke="midnightblue" points="180,-334.2 190.57,-333.46 181.85,-327.45 180,-334.2"/>
</g>
<!-- Node17 -->
<g id="node17" class="node">
<title>Node17</title>
<g id="a_node17"><a xlink:href="classSolverMINRES.html#ae0ec160e28632f6538ec16fc476cd14b" target="_top" xlink:title=" ">
<polygon fill="none" stroke="black" points="181,-284.5 181,-314.5 312,-314.5 312,-284.5 181,-284.5"/>
<text text-anchor="start" x="189" y="-302.5" font-family="serif" font-size="10.00">SolverMINRES::create</text>
<text text-anchor="middle" x="246.5" y="-291.5" font-family="serif" font-size="10.00">_solver</text>
</a>
</g>
</g>
<!-- Node1&#45;&gt;Node17 -->
<g id="edge49" class="edge">
<title>Node1&#45;&gt;Node17</title>
<path fill="none" stroke="midnightblue" d="M131.12,-299.5C144.05,-299.5 157.73,-299.5 170.96,-299.5"/>
<polygon fill="midnightblue" stroke="midnightblue" points="170.97,-303 180.97,-299.5 170.97,-296 170.97,-303"/>
</g>
<!-- Node18 -->
<g id="node18" class="node">
<title>Node18</title>
<g id="a_node18"><a xlink:href="classSolverCG.html#abb8abcd3768a748ab1c4cc366799e146" target="_top" xlink:title=" ">
<polygon fill="none" stroke="black" points="177.5,-246 177.5,-265 315.5,-265 315.5,-246 177.5,-246"/>
<text text-anchor="middle" x="246.5" y="-253" font-family="serif" font-size="10.00">SolverCG::create_solver</text>
</a>
</g>
</g>
<!-- Node1&#45;&gt;Node18 -->
<g id="edge54" class="edge">
<title>Node1&#45;&gt;Node18</title>
<path fill="none" stroke="midnightblue" d="M104.66,-289.95C123.43,-285.26 146.4,-279.56 167,-274.5 176.4,-272.19 186.44,-269.75 196.09,-267.41"/>
<polygon fill="midnightblue" stroke="midnightblue" points="197.06,-270.77 205.96,-265.02 195.41,-263.97 197.06,-270.77"/>
</g>
<!-- Node19 -->
<g id="node19" class="node">
<title>Node19</title>
<g id="a_node19"><a xlink:href="classSolverGMRES.html#a7416f84035ad3da9e20adbda9ffd8c22" target="_top" xlink:title=" ">
<polygon fill="none" stroke="black" points="183,-196.5 183,-226.5 310,-226.5 310,-196.5 183,-196.5"/>
<text text-anchor="start" x="191" y="-214.5" font-family="serif" font-size="10.00">SolverGMRES::create</text>
<text text-anchor="middle" x="246.5" y="-203.5" font-family="serif" font-size="10.00">_solver</text>
</a>
</g>
</g>
<!-- Node1&#45;&gt;Node19 -->
<g id="edge59" class="edge">
<title>Node1&#45;&gt;Node19</title>
<path fill="none" stroke="midnightblue" d="M79.54,-289.81C98.15,-276.35 133.75,-251.92 167,-236.5 171.95,-234.21 177.16,-232.04 182.45,-230.02"/>
<polygon fill="midnightblue" stroke="midnightblue" points="183.83,-233.24 192.03,-226.53 181.43,-226.67 183.83,-233.24"/>
</g>
<!-- Node20 -->
<g id="node20" class="node">
<title>Node20</title>
<g id="a_node20"><a xlink:href="classPrecondDSmoother.html#a04b157c452b242897c2e7e2fbdda790c" target="_top" xlink:title="Create preconditioner based of the PreconditionerType and a list of Parameters.">
<polygon fill="none" stroke="black" points="169.5,-147.5 169.5,-177.5 323.5,-177.5 323.5,-147.5 169.5,-147.5"/>
<text text-anchor="start" x="177.5" y="-165.5" font-family="serif" font-size="10.00">PrecondDSmoother::create</text>
<text text-anchor="middle" x="246.5" y="-154.5" font-family="serif" font-size="10.00">_solver</text>
</a>
</g>
</g>
<!-- Node1&#45;&gt;Node20 -->
<g id="edge64" class="edge">
<title>Node1&#45;&gt;Node20</title>
<path fill="none" stroke="midnightblue" d="M72.48,-289.71C86.32,-267.87 122.8,-214.85 167,-186.5 169.47,-184.91 172.06,-183.43 174.72,-182.03"/>
<polygon fill="midnightblue" stroke="midnightblue" points="176.46,-185.08 184.02,-177.65 173.48,-178.75 176.46,-185.08"/>
</g>
<!-- Node3 -->
<g id="node3" class="node">
<title>Node3</title>
<g id="a_node3"><a xlink:href="classSlothInfo.html#a854d3cafdb9f5a77f1063a27d2a27e04" target="_top" xlink:title="Print information on Debug mode.">
<polygon fill="none" stroke="black" points="395.5,-355 395.5,-374 497.5,-374 497.5,-355 395.5,-355"/>
<text text-anchor="middle" x="446.5" y="-362" font-family="serif" font-size="10.00">SlothInfo::debug</text>
</a>
</g>
</g>
<!-- Node2&#45;&gt;Node3 -->
<g id="edge2" class="edge">
<title>Node2&#45;&gt;Node3</title>
<path fill="none" stroke="midnightblue" d="M315.7,-128.61C319.49,-131.14 322.98,-134.08 326,-137.5 388.06,-207.86 297.42,-277.45 362,-345.5 368.39,-352.23 376.63,-356.81 385.43,-359.89"/>
<polygon fill="midnightblue" stroke="midnightblue" points="384.57,-363.28 395.15,-362.66 386.49,-356.55 384.57,-363.28"/>
</g>
<!-- Node4 -->
<g id="node4" class="node">
<title>Node4</title>
<g id="a_node4"><a xlink:href="classSolverBase.html#a52edc30e08c2552f8ceb3d9ea928b059" target="_top" xlink:title=" ">
<polygon fill="none" stroke="black" points="362,-295 362,-336 531,-336 531,-295 362,-295"/>
<text text-anchor="start" x="370" y="-324" font-family="serif" font-size="10.00">SolverBase&lt; mfem::UMFPack</text>
<text text-anchor="start" x="370" y="-313" font-family="serif" font-size="10.00">Solver, DirectSolverType</text>
<text text-anchor="middle" x="446.5" y="-302" font-family="serif" font-size="10.00"> &gt;::get_description</text>
</a>
</g>
</g>
<!-- Node2&#45;&gt;Node4 -->
<g id="edge3" class="edge">
<title>Node2&#45;&gt;Node4</title>
<path fill="none" stroke="midnightblue" d="M315.07,-128.63C319.07,-131.15 322.77,-134.08 326,-137.5 372.2,-186.39 317.26,-234.28 362,-284.5 363.2,-285.85 364.47,-287.14 365.79,-288.38"/>
<polygon fill="midnightblue" stroke="midnightblue" points="363.92,-291.36 373.92,-294.85 368.28,-285.88 363.92,-291.36"/>
</g>
<!-- Node5 -->
<g id="node5" class="node">
<title>Node5</title>
<g id="a_node5"><a xlink:href="classParameters.html#ae3b314c5ebc3fde8684b0634b2406da6" target="_top" xlink:title="Return the value of the parameter associated to the given name.">
<polygon fill="none" stroke="black" points="379,-245.5 379,-275.5 514,-275.5 514,-245.5 379,-245.5"/>
<text text-anchor="start" x="387" y="-263.5" font-family="serif" font-size="10.00">Parameters::get_param</text>
<text text-anchor="middle" x="446.5" y="-252.5" font-family="serif" font-size="10.00">_value</text>
</a>
</g>
</g>
<!-- Node2&#45;&gt;Node5 -->
<g id="edge4" class="edge">
<title>Node2&#45;&gt;Node5</title>
<path fill="none" stroke="midnightblue" d="M313.9,-128.61C318.28,-131.13 322.38,-134.07 326,-137.5 359.71,-169.39 328.2,-203.71 362,-235.5 364.56,-237.91 367.34,-240.08 370.28,-242.05"/>
<polygon fill="midnightblue" stroke="midnightblue" points="368.53,-245.08 378.94,-247.05 372.04,-239.02 368.53,-245.08"/>
</g>
<!-- Node8 -->
<g id="node8" class="node">
<title>Node8</title>
<g id="a_node8"><a xlink:href="classParameters.html#a857c53fbe60d7bd2f91e91626f85b6d2" target="_top" xlink:title="Return the value of the parameter associated to the given name or, use th edefault given,...">
<polygon fill="none" stroke="black" points="379,-196.5 379,-226.5 514,-226.5 514,-196.5 379,-196.5"/>
<text text-anchor="start" x="387" y="-214.5" font-family="serif" font-size="10.00">Parameters::get_param</text>
<text text-anchor="middle" x="446.5" y="-203.5" font-family="serif" font-size="10.00">_value_or_default</text>
</a>
</g>
</g>
<!-- Node2&#45;&gt;Node8 -->
<g id="edge7" class="edge">
<title>Node2&#45;&gt;Node8</title>
<path fill="none" stroke="midnightblue" d="M303.06,-128.52C310.89,-131.2 318.73,-134.21 326,-137.5 358.52,-152.24 392.9,-174.3 416.39,-190.5"/>
<polygon fill="midnightblue" stroke="midnightblue" points="414.63,-193.54 424.84,-196.4 418.64,-187.8 414.63,-193.54"/>
</g>
<!-- Node6 -->
<g id="node6" class="node">
<title>Node6</title>
<g id="a_node6"><a xlink:href="classParameters.html#aacf1a423c07aa2e63d2397fe903a1388" target="_top" xlink:title="Return the parameter associated to the given name.">
<polygon fill="none" stroke="black" points="567,-248 567,-267 722,-267 722,-248 567,-248"/>
<text text-anchor="middle" x="644.5" y="-255" font-family="serif" font-size="10.00">Parameters::get_parameter</text>
</a>
</g>
</g>
<!-- Node5&#45;&gt;Node6 -->
<g id="edge5" class="edge">
<title>Node5&#45;&gt;Node6</title>
<path fill="none" stroke="midnightblue" d="M514.13,-259.48C527.79,-259.27 542.37,-259.05 556.62,-258.83"/>
<polygon fill="midnightblue" stroke="midnightblue" points="556.98,-262.32 566.93,-258.67 556.87,-255.33 556.98,-262.32"/>
</g>
<!-- Node7 -->
<g id="node7" class="node">
<title>Node7</title>
<g id="a_node7"><a xlink:href="classParameter.html#a7874e1270fe62aecf3063a4f9edecb47" target="_top" xlink:title="Return the value of the paramter.">
<polygon fill="none" stroke="black" points="582,-207 582,-226 707,-226 707,-207 582,-207"/>
<text text-anchor="middle" x="644.5" y="-214" font-family="serif" font-size="10.00">Parameter::get_value</text>
</a>
</g>
</g>
<!-- Node5&#45;&gt;Node7 -->
<g id="edge6" class="edge">
<title>Node5&#45;&gt;Node7</title>
<path fill="none" stroke="midnightblue" d="M514.13,-245.54C539.28,-239.9 567.51,-233.56 591.17,-228.25"/>
<polygon fill="midnightblue" stroke="midnightblue" points="592.02,-231.64 601.01,-226.04 590.48,-224.81 592.02,-231.64"/>
</g>
<!-- Node8&#45;&gt;Node6 -->
<g id="edge8" class="edge">
<title>Node8&#45;&gt;Node6</title>
<path fill="none" stroke="midnightblue" d="M511.68,-226.56C538.07,-232.76 568.2,-239.83 592.98,-245.64"/>
<polygon fill="midnightblue" stroke="midnightblue" points="592.36,-249.09 602.9,-247.97 593.96,-242.28 592.36,-249.09"/>
</g>
<!-- Node8&#45;&gt;Node7 -->
<g id="edge9" class="edge">
<title>Node8&#45;&gt;Node7</title>
<path fill="none" stroke="midnightblue" d="M514.13,-213.2C532.58,-213.67 552.68,-214.18 571.42,-214.66"/>
<polygon fill="midnightblue" stroke="midnightblue" points="571.59,-218.17 581.68,-214.92 571.77,-211.17 571.59,-218.17"/>
</g>
<!-- Node9&#45;&gt;Node3 -->
<g id="edge11" class="edge">
<title>Node9&#45;&gt;Node3</title>
<path fill="none" stroke="midnightblue" d="M315.83,-79.5C319.59,-82.06 323.04,-85.03 326,-88.5 400.89,-176.22 283.96,-260.57 362,-345.5 368.35,-352.41 376.65,-357.07 385.55,-360.17"/>
<polygon fill="midnightblue" stroke="midnightblue" points="384.81,-363.6 395.38,-362.95 386.71,-356.86 384.81,-363.6"/>
</g>
<!-- Node9&#45;&gt;Node4 -->
<g id="edge12" class="edge">
<title>Node9&#45;&gt;Node4</title>
<path fill="none" stroke="midnightblue" d="M315.66,-79.65C319.46,-82.17 322.97,-85.1 326,-88.5 384.92,-154.62 305.05,-216.67 362,-284.5 363.13,-285.84 364.32,-287.13 365.57,-288.36"/>
<polygon fill="midnightblue" stroke="midnightblue" points="363.36,-291.07 373.27,-294.81 367.85,-285.71 363.36,-291.07"/>
</g>
<!-- Node9&#45;&gt;Node5 -->
<g id="edge13" class="edge">
<title>Node9&#45;&gt;Node5</title>
<path fill="none" stroke="midnightblue" d="M315.07,-79.63C319.07,-82.15 322.77,-85.08 326,-88.5 372.2,-137.39 315.66,-186.75 362,-235.5 364.47,-238.1 367.2,-240.44 370.12,-242.53"/>
<polygon fill="midnightblue" stroke="midnightblue" points="368.44,-245.6 378.8,-247.82 372.08,-239.62 368.44,-245.6"/>
</g>
<!-- Node9&#45;&gt;Node8 -->
<g id="edge14" class="edge">
<title>Node9&#45;&gt;Node8</title>
<path fill="none" stroke="midnightblue" d="M308.01,-79.56C314.29,-82.12 320.41,-85.08 326,-88.5 369.1,-114.82 407.56,-160.27 428.59,-187.94"/>
<polygon fill="midnightblue" stroke="midnightblue" points="426.01,-190.33 434.8,-196.25 431.62,-186.14 426.01,-190.33"/>
</g>
<!-- Node10&#45;&gt;Node3 -->
<g id="edge16" class="edge">
<title>Node10&#45;&gt;Node3</title>
<path fill="none" stroke="midnightblue" d="M316.26,-30.67C319.87,-33.19 323.17,-36.11 326,-39.5 413.76,-144.62 270.47,-243.65 362,-345.5 368.28,-352.48 376.54,-357.18 385.42,-360.29"/>
<polygon fill="midnightblue" stroke="midnightblue" points="384.67,-363.71 395.24,-363.07 386.58,-356.98 384.67,-363.71"/>
</g>
<!-- Node10&#45;&gt;Node4 -->
<g id="edge17" class="edge">
<title>Node10&#45;&gt;Node4</title>
<path fill="none" stroke="midnightblue" d="M315.8,-30.53C319.57,-33.07 323.03,-36.04 326,-39.5 397.74,-122.96 292.74,-198.96 362,-284.5 363.1,-285.86 364.27,-287.17 365.5,-288.41"/>
<polygon fill="midnightblue" stroke="midnightblue" points="363.24,-291.09 373.11,-294.94 367.8,-285.77 363.24,-291.09"/>
</g>
<!-- Node10&#45;&gt;Node5 -->
<g id="edge18" class="edge">
<title>Node10&#45;&gt;Node5</title>
<path fill="none" stroke="midnightblue" d="M315.66,-30.65C319.46,-33.17 322.97,-36.1 326,-39.5 384.92,-105.62 302.89,-169.55 362,-235.5 364.52,-238.31 367.35,-240.82 370.39,-243.04"/>
<polygon fill="midnightblue" stroke="midnightblue" points="368.56,-246.02 378.9,-248.31 372.24,-240.07 368.56,-246.02"/>
</g>
<!-- Node10&#45;&gt;Node8 -->
<g id="edge19" class="edge">
<title>Node10&#45;&gt;Node8</title>
<path fill="none" stroke="midnightblue" d="M310.62,-30.56C316.06,-33.1 321.28,-36.06 326,-39.5 379.8,-78.74 417.78,-149.86 435.04,-187.17"/>
<polygon fill="midnightblue" stroke="midnightblue" points="431.87,-188.64 439.17,-196.31 438.25,-185.76 431.87,-188.64"/>
</g>
<!-- Node11&#45;&gt;Node3 -->
<g id="edge21" class="edge">
<title>Node11&#45;&gt;Node3</title>
<path fill="none" stroke="midnightblue" d="M310.05,-529.38C315.67,-526.85 321.08,-523.91 326,-520.5 379.08,-483.65 419.03,-415.93 436.22,-383.2"/>
<polygon fill="midnightblue" stroke="midnightblue" points="439.37,-384.73 440.82,-374.23 433.14,-381.53 439.37,-384.73"/>
</g>
<!-- Node11&#45;&gt;Node4 -->
<g id="edge22" class="edge">
<title>Node11&#45;&gt;Node4</title>
<path fill="none" stroke="midnightblue" d="M315.58,-529.28C319.4,-526.78 322.93,-523.87 326,-520.5 379.45,-461.78 309.98,-405.49 362,-345.5 362.76,-344.63 363.54,-343.78 364.35,-342.96"/>
<polygon fill="midnightblue" stroke="midnightblue" points="366.93,-345.36 372.25,-336.2 362.38,-340.04 366.93,-345.36"/>
</g>
<!-- Node11&#45;&gt;Node5 -->
<g id="edge23" class="edge">
<title>Node11&#45;&gt;Node5</title>
<path fill="none" stroke="midnightblue" d="M315.78,-529.45C319.55,-526.91 323.02,-523.95 326,-520.5 395.12,-440.58 292.65,-365.22 362,-285.5 364.41,-282.73 367.11,-280.27 370.02,-278.07"/>
<polygon fill="midnightblue" stroke="midnightblue" points="372.16,-280.85 378.74,-272.55 368.42,-274.94 372.16,-280.85"/>
</g>
<!-- Node11&#45;&gt;Node8 -->
<g id="edge24" class="edge">
<title>Node11&#45;&gt;Node8</title>
<path fill="none" stroke="midnightblue" d="M316.23,-529.3C319.85,-526.79 323.15,-523.88 326,-520.5 408.24,-422.84 278.94,-332.47 362,-235.5 364.38,-232.72 367.05,-230.26 369.95,-228.07"/>
<polygon fill="midnightblue" stroke="midnightblue" points="372.03,-230.89 378.63,-222.6 368.3,-224.97 372.03,-230.89"/>
</g>
<!-- Node12&#45;&gt;Node3 -->
<g id="edge26" class="edge">
<title>Node12&#45;&gt;Node3</title>
<path fill="none" stroke="midnightblue" d="M311.7,-578.44C316.79,-575.91 321.64,-572.95 326,-569.5 389.74,-519.02 426.22,-424.53 439.6,-383.89"/>
<polygon fill="midnightblue" stroke="midnightblue" points="442.93,-384.95 442.63,-374.36 436.26,-382.83 442.93,-384.95"/>
</g>
<!-- Node12&#45;&gt;Node4 -->
<g id="edge27" class="edge">
<title>Node12&#45;&gt;Node4</title>
<path fill="none" stroke="midnightblue" d="M315.75,-578.43C319.53,-575.89 323,-572.94 326,-569.5 392.24,-493.48 297.61,-423.1 362,-345.5 362.74,-344.61 363.5,-343.75 364.3,-342.91"/>
<polygon fill="midnightblue" stroke="midnightblue" points="366.89,-345.29 372.07,-336.05 362.26,-340.04 366.89,-345.29"/>
</g>
<!-- Node12&#45;&gt;Node5 -->
<g id="edge28" class="edge">
<title>Node12&#45;&gt;Node5</title>
<path fill="none" stroke="midnightblue" d="M316.23,-578.3C319.85,-575.79 323.15,-572.88 326,-569.5 407.97,-472.19 279.74,-382.57 362,-285.5 364.37,-282.7 367.04,-280.21 369.93,-277.99"/>
<polygon fill="midnightblue" stroke="midnightblue" points="372.07,-280.78 378.6,-272.43 368.3,-274.88 372.07,-280.78"/>
</g>
<!-- Node13&#45;&gt;Node3 -->
<g id="edge30" class="edge">
<title>Node13&#45;&gt;Node3</title>
<path fill="none" stroke="midnightblue" d="M306.96,-480.37C313.56,-477.8 320.04,-474.86 326,-471.5 368.99,-447.26 409.73,-405.29 430.73,-381.77"/>
<polygon fill="midnightblue" stroke="midnightblue" points="433.58,-383.83 437.54,-374 428.32,-379.21 433.58,-383.83"/>
</g>
<!-- Node13&#45;&gt;Node4 -->
<g id="edge31" class="edge">
<title>Node13&#45;&gt;Node4</title>
<path fill="none" stroke="midnightblue" d="M314.56,-480.46C318.73,-477.92 322.61,-474.96 326,-471.5 366.8,-429.94 322.21,-388.03 362,-345.5 362.92,-344.52 363.87,-343.57 364.85,-342.65"/>
<polygon fill="midnightblue" stroke="midnightblue" points="367.3,-345.18 372.94,-336.21 362.94,-339.7 367.3,-345.18"/>
</g>
<!-- Node13&#45;&gt;Node5 -->
<g id="edge32" class="edge">
<title>Node13&#45;&gt;Node5</title>
<path fill="none" stroke="midnightblue" d="M315.62,-480.32C319.44,-477.81 322.95,-474.89 326,-471.5 382.32,-408.9 305.5,-347.93 362,-285.5 364.54,-282.7 367.37,-280.21 370.42,-277.99"/>
<polygon fill="midnightblue" stroke="midnightblue" points="372.27,-280.96 378.95,-272.74 368.6,-275 372.27,-280.96"/>
</g>
<!-- Node13&#45;&gt;Node8 -->
<g id="edge33" class="edge">
<title>Node13&#45;&gt;Node8</title>
<path fill="none" stroke="midnightblue" d="M315.78,-480.46C319.55,-477.91 323.02,-474.95 326,-471.5 395.38,-391.23 291.95,-315.19 362,-235.5 364.41,-232.75 367.12,-230.31 370.04,-228.14"/>
<polygon fill="midnightblue" stroke="midnightblue" points="372.12,-230.97 378.77,-222.72 368.43,-225.02 372.12,-230.97"/>
</g>
<!-- Node14&#45;&gt;Node3 -->
<g id="edge35" class="edge">
<title>Node14&#45;&gt;Node3</title>
<path fill="none" stroke="midnightblue" d="M300.67,-431.47C309.22,-428.7 317.91,-425.68 326,-422.5 358.83,-409.61 395.08,-391.42 418.95,-378.86"/>
<polygon fill="midnightblue" stroke="midnightblue" points="420.88,-381.8 428.07,-374.02 417.59,-375.62 420.88,-381.8"/>
</g>
<!-- Node14&#45;&gt;Node4 -->
<g id="edge36" class="edge">
<title>Node14&#45;&gt;Node4</title>
<path fill="none" stroke="midnightblue" d="M312.81,-431.45C317.55,-428.92 322.02,-425.96 326,-422.5 354.52,-397.73 334.08,-370.95 362,-345.5 363.33,-344.29 364.71,-343.12 366.14,-342"/>
<polygon fill="midnightblue" stroke="midnightblue" points="368.49,-344.64 374.76,-336.09 364.53,-338.86 368.49,-344.64"/>
</g>
<!-- Node14&#45;&gt;Node5 -->
<g id="edge37" class="edge">
<title>Node14&#45;&gt;Node5</title>
<path fill="none" stroke="midnightblue" d="M315,-431.31C319.02,-428.81 322.74,-425.89 326,-422.5 369.62,-377.11 318.25,-330.77 362,-285.5 364.49,-282.92 367.24,-280.6 370.18,-278.52"/>
<polygon fill="midnightblue" stroke="midnightblue" points="372.13,-281.43 378.89,-273.26 368.52,-275.44 372.13,-281.43"/>
</g>
<!-- Node14&#45;&gt;Node8 -->
<g id="edge38" class="edge">
<title>Node14&#45;&gt;Node8</title>
<path fill="none" stroke="midnightblue" d="M315.63,-431.32C319.44,-428.81 322.95,-425.89 326,-422.5 382.58,-359.55 304.9,-297.97 362,-235.5 364.47,-232.8 367.21,-230.4 370.17,-228.26"/>
<polygon fill="midnightblue" stroke="midnightblue" points="372.25,-231.09 378.97,-222.91 368.61,-225.11 372.25,-231.09"/>
</g>
<!-- Node15&#45;&gt;Node3 -->
<g id="edge40" class="edge">
<title>Node15&#45;&gt;Node3</title>
<path fill="none" stroke="midnightblue" d="M313.71,-386.47C336.81,-382.61 362.6,-378.32 385.2,-374.55"/>
<polygon fill="midnightblue" stroke="midnightblue" points="386.05,-377.96 395.34,-372.86 384.9,-371.05 386.05,-377.96"/>
</g>
<!-- Node15&#45;&gt;Node4 -->
<g id="edge41" class="edge">
<title>Node15&#45;&gt;Node4</title>
<path fill="none" stroke="midnightblue" d="M305.49,-382.42C312.55,-379.82 319.55,-376.85 326,-373.5 343.99,-364.16 344.24,-355.27 362,-345.5 365.3,-343.69 368.73,-341.94 372.23,-340.28"/>
<polygon fill="midnightblue" stroke="midnightblue" points="373.96,-343.34 381.65,-336.05 371.1,-336.95 373.96,-343.34"/>
</g>
<!-- Node15&#45;&gt;Node5 -->
<g id="edge42" class="edge">
<title>Node15&#45;&gt;Node5</title>
<path fill="none" stroke="midnightblue" d="M313.38,-382.45C317.93,-379.92 322.21,-376.96 326,-373.5 357.22,-345.02 330.7,-313.89 362,-285.5 364.47,-283.26 367.12,-281.23 369.92,-279.37"/>
<polygon fill="midnightblue" stroke="midnightblue" points="371.77,-282.35 378.7,-274.34 368.28,-276.28 371.77,-282.35"/>
</g>
<!-- Node15&#45;&gt;Node8 -->
<g id="edge43" class="edge">
<title>Node15&#45;&gt;Node8</title>
<path fill="none" stroke="midnightblue" d="M313.54,-383.21C318.11,-380.51 322.35,-377.31 326,-373.5 369.88,-327.76 317.74,-280.87 362,-235.5 364.5,-232.94 367.25,-230.65 370.19,-228.6"/>
<polygon fill="midnightblue" stroke="midnightblue" points="372.08,-231.54 378.9,-223.43 368.51,-225.52 372.08,-231.54"/>
</g>
<!-- Node16&#45;&gt;Node3 -->
<g id="edge45" class="edge">
<title>Node16&#45;&gt;Node3</title>
<path fill="none" stroke="midnightblue" d="M317.03,-354.12C339.35,-355.92 363.86,-357.9 385.44,-359.65"/>
<polygon fill="midnightblue" stroke="midnightblue" points="385.2,-363.14 395.45,-360.46 385.77,-356.16 385.2,-363.14"/>
</g>
<!-- Node16&#45;&gt;Node4 -->
<g id="edge46" class="edge">
<title>Node16&#45;&gt;Node4</title>
<path fill="none" stroke="midnightblue" d="M317.03,-336.91C328.23,-335.04 339.99,-333.08 351.65,-331.14"/>
<polygon fill="midnightblue" stroke="midnightblue" points="352.57,-334.54 361.86,-329.44 351.42,-327.63 352.57,-334.54"/>
</g>
<!-- Node16&#45;&gt;Node5 -->
<g id="edge47" class="edge">
<title>Node16&#45;&gt;Node5</title>
<path fill="none" stroke="midnightblue" d="M306.42,-333.37C313.26,-330.57 319.94,-327.3 326,-323.5 345.71,-311.14 342.19,-297.69 362,-285.5 365.38,-283.42 368.95,-281.5 372.63,-279.73"/>
<polygon fill="midnightblue" stroke="midnightblue" points="374.2,-282.87 381.96,-275.65 371.39,-276.46 374.2,-282.87"/>
</g>
<!-- Node16&#45;&gt;Node8 -->
<g id="edge48" class="edge">
<title>Node16&#45;&gt;Node8</title>
<path fill="none" stroke="midnightblue" d="M311.87,-333.43C316.99,-330.66 321.8,-327.38 326,-323.5 357.05,-294.84 330.54,-263.72 362,-235.5 364.47,-233.28 367.13,-231.27 369.94,-229.44"/>
<polygon fill="midnightblue" stroke="midnightblue" points="371.72,-232.46 378.72,-224.5 368.29,-226.36 371.72,-232.46"/>
</g>
<!-- Node17&#45;&gt;Node3 -->
<g id="edge50" class="edge">
<title>Node17&#45;&gt;Node3</title>
<path fill="none" stroke="midnightblue" d="M300.46,-314.61C309.11,-317.58 317.9,-320.9 326,-324.5 342.93,-332.02 344.77,-338.7 362,-345.5 369.47,-348.45 377.51,-351 385.54,-353.19"/>
<polygon fill="midnightblue" stroke="midnightblue" points="384.74,-356.6 395.3,-355.68 386.47,-349.81 384.74,-356.6"/>
</g>
<!-- Node17&#45;&gt;Node4 -->
<g id="edge51" class="edge">
<title>Node17&#45;&gt;Node4</title>
<path fill="none" stroke="midnightblue" d="M312.06,-304.72C324.74,-305.74 338.28,-306.84 351.69,-307.92"/>
<polygon fill="midnightblue" stroke="midnightblue" points="351.66,-311.43 361.91,-308.75 352.22,-304.45 351.66,-311.43"/>
</g>
<!-- Node17&#45;&gt;Node5 -->
<g id="edge52" class="edge">
<title>Node17&#45;&gt;Node5</title>
<path fill="none" stroke="midnightblue" d="M312.06,-286.78C330.23,-283.2 350.18,-279.28 368.98,-275.57"/>
<polygon fill="midnightblue" stroke="midnightblue" points="369.86,-278.97 378.99,-273.6 368.5,-272.1 369.86,-278.97"/>
</g>
<!-- Node17&#45;&gt;Node8 -->
<g id="edge53" class="edge">
<title>Node17&#45;&gt;Node8</title>
<path fill="none" stroke="midnightblue" d="M306.47,-284.45C313.3,-281.63 319.97,-278.34 326,-274.5 345.9,-261.83 341.92,-247.88 362,-235.5 364.76,-233.8 367.65,-232.21 370.62,-230.74"/>
<polygon fill="midnightblue" stroke="midnightblue" points="372.06,-233.92 379.74,-226.63 369.19,-227.54 372.06,-233.92"/>
</g>
<!-- Node18&#45;&gt;Node3 -->
<g id="edge55" class="edge">
<title>Node18&#45;&gt;Node3</title>
<path fill="none" stroke="midnightblue" d="M309.89,-265.13C315.67,-267.6 321.16,-270.67 326,-274.5 353.74,-296.46 334.11,-323.73 362,-345.5 368.9,-350.88 377.04,-354.79 385.48,-357.63"/>
<polygon fill="midnightblue" stroke="midnightblue" points="384.52,-360.99 395.1,-360.39 386.45,-354.26 384.52,-360.99"/>
</g>
<!-- Node18&#45;&gt;Node4 -->
<g id="edge56" class="edge">
<title>Node18&#45;&gt;Node4</title>
<path fill="none" stroke="midnightblue" d="M290.06,-265.04C301.77,-267.87 314.42,-271.12 326,-274.5 343.5,-279.61 362.23,-285.72 379.55,-291.65"/>
<polygon fill="midnightblue" stroke="midnightblue" points="378.42,-294.96 389.01,-294.91 380.7,-288.34 378.42,-294.96"/>
</g>
<!-- Node18&#45;&gt;Node5 -->
<g id="edge57" class="edge">
<title>Node18&#45;&gt;Node5</title>
<path fill="none" stroke="midnightblue" d="M315.64,-257.22C332.75,-257.65 351.23,-258.12 368.73,-258.56"/>
<polygon fill="midnightblue" stroke="midnightblue" points="368.82,-262.06 378.91,-258.82 369,-255.07 368.82,-262.06"/>
</g>
<!-- Node18&#45;&gt;Node8 -->
<g id="edge58" class="edge">
<title>Node18&#45;&gt;Node8</title>
<path fill="none" stroke="midnightblue" d="M290.46,-245.95C313.36,-240.87 342.21,-234.45 368.8,-228.54"/>
<polygon fill="midnightblue" stroke="midnightblue" points="369.86,-231.89 378.87,-226.31 368.34,-225.06 369.86,-231.89"/>
</g>
<!-- Node19&#45;&gt;Node3 -->
<g id="edge60" class="edge">
<title>Node19&#45;&gt;Node3</title>
<path fill="none" stroke="midnightblue" d="M310.25,-225.23C316.03,-228.27 321.42,-231.97 326,-236.5 362.27,-272.38 324.25,-311.18 362,-345.5 368.63,-351.53 376.78,-355.77 385.35,-358.74"/>
<polygon fill="midnightblue" stroke="midnightblue" points="384.57,-362.16 395.15,-361.57 386.51,-355.43 384.57,-362.16"/>
</g>
<!-- Node19&#45;&gt;Node4 -->
<g id="edge61" class="edge">
<title>Node19&#45;&gt;Node4</title>
<path fill="none" stroke="midnightblue" d="M308.48,-226.67C314.67,-229.44 320.64,-232.69 326,-236.5 347.74,-251.95 340.63,-268.55 362,-284.5 364.6,-286.44 367.34,-288.28 370.17,-290"/>
<polygon fill="midnightblue" stroke="midnightblue" points="368.48,-293.06 378.91,-294.88 371.88,-286.95 368.48,-293.06"/>
</g>
<!-- Node19&#45;&gt;Node5 -->
<g id="edge62" class="edge">
<title>Node19&#45;&gt;Node5</title>
<path fill="none" stroke="midnightblue" d="M308.25,-226.53C329.35,-231.76 353.18,-237.65 375,-243.05"/>
<polygon fill="midnightblue" stroke="midnightblue" points="374.31,-246.49 384.86,-245.49 376,-239.69 374.31,-246.49"/>
</g>
<!-- Node19&#45;&gt;Node8 -->
<g id="edge63" class="edge">
<title>Node19&#45;&gt;Node8</title>
<path fill="none" stroke="midnightblue" d="M310.15,-211.5C328.77,-211.5 349.38,-211.5 368.79,-211.5"/>
<polygon fill="midnightblue" stroke="midnightblue" points="368.81,-215 378.81,-211.5 368.81,-208 368.81,-215"/>
</g>
<!-- Node20&#45;&gt;Node3 -->
<g id="edge65" class="edge">
<title>Node20&#45;&gt;Node3</title>
<path fill="none" stroke="midnightblue" d="M315.14,-177.56C319.12,-180.1 322.8,-183.05 326,-186.5 375.3,-239.59 310.79,-294.24 362,-345.5 368.56,-352.07 376.88,-356.56 385.72,-359.6"/>
<polygon fill="midnightblue" stroke="midnightblue" points="384.88,-363 395.46,-362.36 386.79,-356.27 384.88,-363"/>
</g>
<!-- Node20&#45;&gt;Node4 -->
<g id="edge66" class="edge">
<title>Node20&#45;&gt;Node4</title>
<path fill="none" stroke="midnightblue" d="M313.9,-177.61C318.28,-180.13 322.38,-183.07 326,-186.5 359.71,-218.39 329.25,-251.63 362,-284.5 363.6,-286.1 365.28,-287.62 367.04,-289.06"/>
<polygon fill="midnightblue" stroke="midnightblue" points="365.03,-291.93 375.2,-294.9 369.1,-286.23 365.03,-291.93"/>
</g>
<!-- Node20&#45;&gt;Node5 -->
<g id="edge67" class="edge">
<title>Node20&#45;&gt;Node5</title>
<path fill="none" stroke="midnightblue" d="M310.12,-177.51C315.72,-180.06 321.12,-183.04 326,-186.5 348.04,-202.13 339.91,-219.93 362,-235.5 364.72,-237.42 367.59,-239.19 370.56,-240.83"/>
<polygon fill="midnightblue" stroke="midnightblue" points="369.23,-244.07 379.75,-245.35 372.32,-237.8 369.23,-244.07"/>
</g>
<!-- Node20&#45;&gt;Node8 -->
<g id="edge68" class="edge">
<title>Node20&#45;&gt;Node8</title>
<path fill="none" stroke="midnightblue" d="M308.25,-177.53C329.35,-182.76 353.18,-188.65 375,-194.05"/>
<polygon fill="midnightblue" stroke="midnightblue" points="374.31,-197.49 384.86,-196.49 376,-190.69 374.31,-197.49"/>
</g>
</g>
</svg>
