<?xml version="1.0" encoding="UTF-8" standalone="no"?>
<!DOCTYPE svg PUBLIC "-//W3C//DTD SVG 1.1//EN"
 "http://www.w3.org/Graphics/SVG/1.1/DTD/svg11.dtd">
<!-- Generated by graphviz version 2.43.0 (0)
 -->
<!-- Title: CalphadBase::get_parameters Pages: 1 -->
<svg width="626pt" height="127pt"
 viewBox="0.00 0.00 626.00 126.50" xmlns="http://www.w3.org/2000/svg" xmlns:xlink="http://www.w3.org/1999/xlink">
<g id="graph0" class="graph" transform="scale(1 1) rotate(0) translate(4 122.5)">
<title>CalphadBase::get_parameters</title>
<!-- Node1 -->
<g id="node1" class="node">
<title>Node1</title>
<g id="a_node1"><a xlink:title="Get Calphad parameters.">
<polygon fill="#bfbfbf" stroke="black" points="448,-55 448,-74 618,-74 618,-55 448,-55"/>
<text text-anchor="middle" x="533" y="-62" font-family="serif" font-size="10.00">CalphadBase::get_parameters</text>
</a>
</g>
</g>
<!-- Node2 -->
<g id="node2" class="node">
<title>Node2</title>
<g id="a_node2"><a xlink:href="classCalphadBase.html#aa1952e5548a0cbe9ffc68d86ef678a51" target="_top" xlink:title="Construct a new CalphadBase object.">
<polygon fill="none" stroke="black" points="240.5,-99 240.5,-118 398.5,-118 398.5,-99 240.5,-99"/>
<text text-anchor="middle" x="319.5" y="-106" font-family="serif" font-size="10.00">CalphadBase::CalphadBase</text>
</a>
</g>
</g>
<!-- Node1&#45;&gt;Node2 -->
<g id="edge1" class="edge">
<title>Node1&#45;&gt;Node2</title>
<path fill="none" stroke="midnightblue" d="M476.41,-76.09C456.14,-80.31 433.03,-85.13 412,-89.5 397.23,-92.57 381.11,-95.92 366.58,-98.94"/>
<polygon fill="midnightblue" stroke="midnightblue" points="477.34,-79.47 486.42,-74 475.91,-72.62 477.34,-79.47"/>
</g>
<!-- Node3 -->
<g id="node3" class="node">
<title>Node3</title>
<g id="a_node3"><a xlink:href="classAnalyticalIdealSolution.html#ac3a098f88d3a7889809f7118b9fcf10a" target="_top" xlink:title="Get the parameters associated with the AnalyticalIdealSolution object.">
<polygon fill="none" stroke="black" points="252.5,-49.5 252.5,-79.5 386.5,-79.5 386.5,-49.5 252.5,-49.5"/>
<text text-anchor="start" x="260.5" y="-67.5" font-family="serif" font-size="10.00">AnalyticalIdealSolution</text>
<text text-anchor="middle" x="319.5" y="-56.5" font-family="serif" font-size="10.00">::get_parameters</text>
</a>
</g>
</g>
<!-- Node1&#45;&gt;Node3 -->
<g id="edge2" class="edge">
<title>Node1&#45;&gt;Node3</title>
<path fill="none" stroke="midnightblue" d="M437.75,-64.5C420.57,-64.5 402.98,-64.5 386.82,-64.5"/>
<polygon fill="midnightblue" stroke="midnightblue" points="437.8,-68 447.8,-64.5 437.8,-61 437.8,-68"/>
</g>
<!-- Node5 -->
<g id="node5" class="node">
<title>Node5</title>
<g id="a_node5"><a xlink:href="classCalphadInformedNeuralNetwork.html#a65455151b7486c06d1b346c377468800" target="_top" xlink:title="Get the parameters associated with the CalphadInformedNeuralNetwork object.">
<polygon fill="none" stroke="black" points="227,-0.5 227,-30.5 412,-30.5 412,-0.5 227,-0.5"/>
<text text-anchor="start" x="235" y="-18.5" font-family="serif" font-size="10.00">CalphadInformedNeuralNetwork</text>
<text text-anchor="middle" x="319.5" y="-7.5" font-family="serif" font-size="10.00">::get_parameters</text>
</a>
</g>
</g>
<!-- Node1&#45;&gt;Node5 -->
<g id="edge4" class="edge">
<title>Node1&#45;&gt;Node5</title>
<path fill="none" stroke="midnightblue" d="M481.15,-52.72C452.46,-46.07 416.3,-37.69 385.55,-30.57"/>
<polygon fill="midnightblue" stroke="midnightblue" points="480.44,-56.15 490.97,-54.99 482.02,-49.33 480.44,-56.15"/>
</g>
<!-- Node4 -->
<g id="node4" class="node">
<title>Node4</title>
<g id="a_node4"><a xlink:href="classAnalyticalIdealSolution.html#a9401722422b269f076357392f4919f92" target="_top" xlink:title="Construct a new AnalyticalIdealSolution::AnalyticalIdealSolution object.">
<polygon fill="none" stroke="black" points="25.5,-49.5 25.5,-79.5 165.5,-79.5 165.5,-49.5 25.5,-49.5"/>
<text text-anchor="start" x="33.5" y="-67.5" font-family="serif" font-size="10.00">AnalyticalIdealSolution</text>
<text text-anchor="middle" x="95.5" y="-56.5" font-family="serif" font-size="10.00">::AnalyticalIdealSolution</text>
</a>
</g>
</g>
<!-- Node3&#45;&gt;Node4 -->
<g id="edge3" class="edge">
<title>Node3&#45;&gt;Node4</title>
<path fill="none" stroke="midnightblue" d="M242.38,-64.5C217.51,-64.5 190.05,-64.5 165.72,-64.5"/>
<polygon fill="midnightblue" stroke="midnightblue" points="242.49,-68 252.49,-64.5 242.49,-61 242.49,-68"/>
</g>
<!-- Node6 -->
<g id="node6" class="node">
<title>Node6</title>
<g id="a_node6"><a xlink:href="classCalphadInformedNeuralNetwork.html#a36b758dd30a42967cc6c46910e3ca9ae" target="_top" xlink:title="Construct a new CalphadInformedNeuralNetwork::CalphadInformedNeuralNetwork object.">
<polygon fill="none" stroke="black" points="0,-0.5 0,-30.5 191,-30.5 191,-0.5 0,-0.5"/>
<text text-anchor="start" x="8" y="-18.5" font-family="serif" font-size="10.00">CalphadInformedNeuralNetwork</text>
<text text-anchor="middle" x="95.5" y="-7.5" font-family="serif" font-size="10.00">::CalphadInformedNeuralNetwork</text>
</a>
</g>
</g>
<!-- Node5&#45;&gt;Node6 -->
<g id="edge5" class="edge">
<title>Node5&#45;&gt;Node6</title>
<path fill="none" stroke="midnightblue" d="M216.89,-15.5C208.3,-15.5 199.63,-15.5 191.1,-15.5"/>
<polygon fill="midnightblue" stroke="midnightblue" points="216.92,-19 226.92,-15.5 216.92,-12 216.92,-19"/>
</g>
</g>
</svg>
