<?xml version="1.0" encoding="UTF-8" standalone="no"?>
<!DOCTYPE svg PUBLIC "-//W3C//DTD SVG 1.1//EN"
 "http://www.w3.org/Graphics/SVG/1.1/DTD/svg11.dtd">
<!-- Generated by graphviz version 2.43.0 (0)
 -->
<!-- Title: OperatorBase::initialize Pages: 1 -->
<svg width="317pt" height="78pt"
 viewBox="0.00 0.00 317.00 77.50" xmlns="http://www.w3.org/2000/svg" xmlns:xlink="http://www.w3.org/1999/xlink">
<g id="graph0" class="graph" transform="scale(1 1) rotate(0) translate(4 73.5)">
<title>OperatorBase::initialize</title>
<!-- Node1 -->
<g id="node1" class="node">
<title>Node1</title>
<g id="a_node1"><a xlink:title="Initialization stage (call by imeDiscretization&lt;PST, OPE, VAR&gt;::initialize())">
<polygon fill="#bfbfbf" stroke="black" points="0,-22.5 0,-41.5 136,-41.5 136,-22.5 0,-22.5"/>
<text text-anchor="middle" x="68" y="-29.5" font-family="serif" font-size="10.00">OperatorBase::initialize</text>
</a>
</g>
</g>
<!-- Node2 -->
<g id="node2" class="node">
<title>Node2</title>
<g id="a_node2"><a xlink:href="classVariables.html#aadf815b64b6a43387f7f393d06b45887" target="_top" xlink:title="Return the number of variables.">
<polygon fill="none" stroke="black" points="172,-39 172,-69 309,-69 309,-39 172,-39"/>
<text text-anchor="start" x="180" y="-57" font-family="serif" font-size="10.00">Variables::get_variables</text>
<text text-anchor="middle" x="240.5" y="-46" font-family="serif" font-size="10.00">_number</text>
</a>
</g>
</g>
<!-- Node1&#45;&gt;Node2 -->
<g id="edge1" class="edge">
<title>Node1&#45;&gt;Node2</title>
<path fill="none" stroke="midnightblue" d="M136.39,-40.69C144.66,-41.76 153.16,-42.86 161.58,-43.95"/>
<polygon fill="midnightblue" stroke="midnightblue" points="161.4,-47.45 171.77,-45.26 162.3,-40.51 161.4,-47.45"/>
</g>
<!-- Node3 -->
<g id="node3" class="node">
<title>Node3</title>
<g id="a_node3"><a xlink:href="classVariables.html#a0fb59f4145974f7d284a5b6f906285a9" target="_top" xlink:title="get i&#45;th variable">
<polygon fill="none" stroke="black" points="175,-0.5 175,-19.5 306,-19.5 306,-0.5 175,-0.5"/>
<text text-anchor="middle" x="240.5" y="-7.5" font-family="serif" font-size="10.00">Variables::getIVariable</text>
</a>
</g>
</g>
<!-- Node1&#45;&gt;Node3 -->
<g id="edge2" class="edge">
<title>Node1&#45;&gt;Node3</title>
<path fill="none" stroke="midnightblue" d="M136.39,-23.31C145.68,-22.11 155.28,-20.87 164.7,-19.65"/>
<polygon fill="midnightblue" stroke="midnightblue" points="165.36,-23.1 174.83,-18.34 164.46,-16.15 165.36,-23.1"/>
</g>
</g>
</svg>
