<?xml version="1.0" encoding="UTF-8" standalone="no"?>
<!DOCTYPE svg PUBLIC "-//W3C//DTD SVG 1.1//EN"
 "http://www.w3.org/Graphics/SVG/1.1/DTD/svg11.dtd">
<!-- Generated by graphviz version 2.43.0 (0)
 -->
<!-- Title: SolverHypreGMRES Pages: 1 -->
<svg width="232pt" height="174pt"
 viewBox="0.00 0.00 232.00 174.00" xmlns="http://www.w3.org/2000/svg" xmlns:xlink="http://www.w3.org/1999/xlink">
<g id="graph0" class="graph" transform="scale(1 1) rotate(0) translate(4 170)">
<title>SolverHypreGMRES</title>
<!-- Node1 -->
<g id="node1" class="node">
<title>Node1</title>
<g id="a_node1"><a xlink:title=" ">
<polygon fill="#bfbfbf" stroke="black" points="37,-0.5 37,-19.5 159,-19.5 159,-0.5 37,-0.5"/>
<text text-anchor="middle" x="98" y="-7.5" font-family="serif" font-size="10.00">SolverHypreGMRES</text>
</a>
</g>
</g>
<!-- Node2 -->
<g id="node2" class="node">
<title>Node2</title>
<g id="a_node2"><a xlink:href="classSolverBase.html" target="_top" xlink:title=" ">
<polygon fill="none" stroke="black" points="0,-57.5 0,-87.5 196,-87.5 196,-57.5 0,-57.5"/>
<text text-anchor="start" x="8" y="-75.5" font-family="serif" font-size="10.00">SolverBase&lt; mfem::HypreGMRES,</text>
<text text-anchor="middle" x="98" y="-64.5" font-family="serif" font-size="10.00"> HypreSolverType &gt;</text>
</a>
</g>
</g>
<!-- Node2&#45;&gt;Node1 -->
<g id="edge1" class="edge">
<title>Node2&#45;&gt;Node1</title>
<path fill="none" stroke="midnightblue" d="M98,-47.35C98,-37.51 98,-26.78 98,-19.54"/>
<polygon fill="midnightblue" stroke="midnightblue" points="94.5,-47.47 98,-57.47 101.5,-47.47 94.5,-47.47"/>
</g>
<!-- Node3 -->
<g id="node3" class="node">
<title>Node3</title>
<g id="a_node3"><a xlink:href="classSolverBase.html" target="_top" xlink:title=" ">
<polygon fill="none" stroke="black" points="41,-146.5 41,-165.5 155,-165.5 155,-146.5 41,-146.5"/>
<text text-anchor="middle" x="98" y="-153.5" font-family="serif" font-size="10.00">SolverBase&lt; T, S &gt;</text>
</a>
</g>
</g>
<!-- Node3&#45;&gt;Node2 -->
<g id="edge2" class="edge">
<title>Node3&#45;&gt;Node2</title>
<path fill="none" stroke="orange" stroke-dasharray="5,2" d="M98,-136.23C98,-121.41 98,-101.05 98,-87.6"/>
<polygon fill="orange" stroke="orange" points="94.5,-136.28 98,-146.28 101.5,-136.28 94.5,-136.28"/>
<text text-anchor="start" x="98" y="-120" font-family="serif" font-size="10.00"> &lt; mfem::HypreGMRES,</text>
<text text-anchor="middle" x="161" y="-109" font-family="serif" font-size="10.00"> HypreSolverType &gt;</text>
</g>
</g>
</svg>
