<?xml version="1.0" encoding="UTF-8" standalone="no"?>
<!DOCTYPE svg PUBLIC "-//W3C//DTD SVG 1.1//EN"
 "http://www.w3.org/Graphics/SVG/1.1/DTD/svg11.dtd">
<!-- Generated by graphviz version 2.43.0 (0)
 -->
<!-- Title: SlothInfo::debug Pages: 1 -->
<svg width="505pt" height="1046pt"
 viewBox="0.00 0.00 505.00 1045.50" xmlns="http://www.w3.org/2000/svg" xmlns:xlink="http://www.w3.org/1999/xlink">
<g id="graph0" class="graph" transform="scale(1 1) rotate(0) translate(4 1041.5)">
<title>SlothInfo::debug</title>
<!-- Node1 -->
<g id="node1" class="node">
<title>Node1</title>
<g id="a_node1"><a xlink:title="Print information on Debug mode.">
<polygon fill="#bfbfbf" stroke="black" points="395,-532.5 395,-551.5 497,-551.5 497,-532.5 395,-532.5"/>
<text text-anchor="middle" x="446" y="-539.5" font-family="serif" font-size="10.00">SlothInfo::debug</text>
</a>
</g>
</g>
<!-- Node2 -->
<g id="node2" class="node">
<title>Node2</title>
<g id="a_node2"><a xlink:href="classSolverUMFPACK.html#a8a0cb7f36e9e9fa812fb45b23e39ab62" target="_top" xlink:title="Create a direct solver based of the SolverType and a list of Parameters.">
<polygon fill="none" stroke="black" points="209.5,-478 209.5,-508 349.5,-508 349.5,-478 209.5,-478"/>
<text text-anchor="start" x="217.5" y="-496" font-family="serif" font-size="10.00">SolverUMFPACK::create</text>
<text text-anchor="middle" x="279.5" y="-485" font-family="serif" font-size="10.00">_solver</text>
</a>
</g>
</g>
<!-- Node1&#45;&gt;Node2 -->
<g id="edge1" class="edge">
<title>Node1&#45;&gt;Node2</title>
<path fill="none" stroke="midnightblue" d="M403.19,-529.55C381.22,-523 354.12,-514.93 330.98,-508.04"/>
<polygon fill="midnightblue" stroke="midnightblue" points="402.31,-532.94 412.89,-532.44 404.31,-526.23 402.31,-532.94"/>
</g>
<!-- Node4 -->
<g id="node4" class="node">
<title>Node4</title>
<g id="a_node4"><a xlink:href="classPrecondHypreILU.html#a9747a2d4154f14a83fb87b1f398973ff" target="_top" xlink:title="Create preconditioner based of the PreconditionerType and a list of Parameters.">
<polygon fill="none" stroke="black" points="206.5,-429 206.5,-459 352.5,-459 352.5,-429 206.5,-429"/>
<text text-anchor="start" x="214.5" y="-447" font-family="serif" font-size="10.00">PrecondHypreILU::create</text>
<text text-anchor="middle" x="279.5" y="-436" font-family="serif" font-size="10.00">_solver</text>
</a>
</g>
</g>
<!-- Node1&#45;&gt;Node4 -->
<g id="edge3" class="edge">
<title>Node1&#45;&gt;Node4</title>
<path fill="none" stroke="midnightblue" d="M428.78,-524.73C412.52,-508.33 386.09,-484.01 359,-469 352.24,-465.26 344.85,-461.98 337.38,-459.14"/>
<polygon fill="midnightblue" stroke="midnightblue" points="426.42,-527.33 435.9,-532.07 431.45,-522.46 426.42,-527.33"/>
</g>
<!-- Node5 -->
<g id="node5" class="node">
<title>Node5</title>
<g id="a_node5"><a xlink:href="classPrecondHypreSmoother.html#a1d685276c8db4a0c7c3acd12662fffd1" target="_top" xlink:title="Create preconditioner based of the PreconditionerType and a list of Parameters.">
<polygon fill="none" stroke="black" points="209.5,-1007 209.5,-1037 349.5,-1037 349.5,-1007 209.5,-1007"/>
<text text-anchor="start" x="217.5" y="-1025" font-family="serif" font-size="10.00">PrecondHypreSmoother</text>
<text text-anchor="middle" x="279.5" y="-1014" font-family="serif" font-size="10.00">::create_solver</text>
</a>
</g>
</g>
<!-- Node1&#45;&gt;Node5 -->
<g id="edge5" class="edge">
<title>Node1&#45;&gt;Node5</title>
<path fill="none" stroke="midnightblue" d="M443.92,-561.9C439.26,-640.96 418.29,-931.78 359,-998 355.96,-1001.4 352.45,-1004.32 348.64,-1006.83"/>
<polygon fill="midnightblue" stroke="midnightblue" points="447.42,-562 444.5,-551.82 440.44,-561.61 447.42,-562"/>
</g>
<!-- Node6 -->
<g id="node6" class="node">
<title>Node6</title>
<g id="a_node6"><a xlink:href="classPrecondHypreBoomerAMG.html#ae9b8748901ee350584a1c8e3b33eb0a6" target="_top" xlink:title="Create preconditioner based of the PreconditionerType and a list of Parameters.">
<polygon fill="none" stroke="black" points="201,-958 201,-988 358,-988 358,-958 201,-958"/>
<text text-anchor="start" x="209" y="-976" font-family="serif" font-size="10.00">PrecondHypreBoomerAMG</text>
<text text-anchor="middle" x="279.5" y="-965" font-family="serif" font-size="10.00">::create_solver</text>
</a>
</g>
</g>
<!-- Node1&#45;&gt;Node6 -->
<g id="edge7" class="edge">
<title>Node1&#45;&gt;Node6</title>
<path fill="none" stroke="midnightblue" d="M443.42,-562.08C437.22,-635.87 412.23,-890.84 359,-949 355.82,-952.47 352.16,-955.44 348.2,-957.99"/>
<polygon fill="midnightblue" stroke="midnightblue" points="446.93,-562.1 444.25,-551.85 439.95,-561.53 446.93,-562.1"/>
</g>
<!-- Node7 -->
<g id="node7" class="node">
<title>Node7</title>
<g id="a_node7"><a xlink:href="classPrecondHypreDiagScale.html#a99a26e0ad57569f0186c286191e591cc" target="_top" xlink:title="Create preconditioner based of the PreconditionerType and a list of Parameters.">
<polygon fill="none" stroke="black" points="208.5,-909 208.5,-939 350.5,-939 350.5,-909 208.5,-909"/>
<text text-anchor="start" x="216.5" y="-927" font-family="serif" font-size="10.00">PrecondHypreDiagScale</text>
<text text-anchor="middle" x="279.5" y="-916" font-family="serif" font-size="10.00">::create_solver</text>
</a>
</g>
</g>
<!-- Node1&#45;&gt;Node7 -->
<g id="edge9" class="edge">
<title>Node1&#45;&gt;Node7</title>
<path fill="none" stroke="midnightblue" d="M442.82,-561.8C435.01,-629.41 406.31,-849.72 359,-900 355.78,-903.43 352.08,-906.37 348.09,-908.89"/>
<polygon fill="midnightblue" stroke="midnightblue" points="446.32,-561.99 443.97,-551.66 439.37,-561.21 446.32,-561.99"/>
</g>
<!-- Node8 -->
<g id="node8" class="node">
<title>Node8</title>
<g id="a_node8"><a xlink:href="classSolverHyprePCG.html#a2122f479fde910c6a27b6f74bf750324" target="_top" xlink:title="Create a iterative solver based of the SolverType and a list of Parameters.">
<polygon fill="none" stroke="black" points="209,-860 209,-890 350,-890 350,-860 209,-860"/>
<text text-anchor="start" x="217" y="-878" font-family="serif" font-size="10.00">SolverHyprePCG::create</text>
<text text-anchor="middle" x="279.5" y="-867" font-family="serif" font-size="10.00">_solver</text>
</a>
</g>
</g>
<!-- Node1&#45;&gt;Node8 -->
<g id="edge11" class="edge">
<title>Node1&#45;&gt;Node8</title>
<path fill="none" stroke="midnightblue" d="M445.59,-561.96C446.08,-616.27 439.76,-768.17 359,-851 355.62,-854.47 351.75,-857.44 347.58,-859.98"/>
<polygon fill="midnightblue" stroke="midnightblue" points="449.09,-561.58 445.4,-551.65 442.09,-561.71 449.09,-561.58"/>
</g>
<!-- Node9 -->
<g id="node9" class="node">
<title>Node9</title>
<g id="a_node9"><a xlink:href="classSolverHypreGMRES.html#ae8cd627c6a9dddb56c4ac48a134de7e0" target="_top" xlink:title="Create a iterative solver based of the SolverType and a list of Parameters.">
<polygon fill="none" stroke="black" points="200,-811 200,-841 359,-841 359,-811 200,-811"/>
<text text-anchor="start" x="208" y="-829" font-family="serif" font-size="10.00">SolverHypreGMRES::create</text>
<text text-anchor="middle" x="279.5" y="-818" font-family="serif" font-size="10.00">_solver</text>
</a>
</g>
</g>
<!-- Node1&#45;&gt;Node9 -->
<g id="edge13" class="edge">
<title>Node1&#45;&gt;Node9</title>
<path fill="none" stroke="midnightblue" d="M444.37,-561.66C441.74,-609.76 428.25,-734.31 359,-802 355.54,-805.39 351.61,-808.3 347.4,-810.8"/>
<polygon fill="midnightblue" stroke="midnightblue" points="447.87,-561.79 444.81,-551.64 440.87,-561.48 447.87,-561.79"/>
</g>
<!-- Node10 -->
<g id="node10" class="node">
<title>Node10</title>
<g id="a_node10"><a xlink:href="classSolverHypreFGMRES.html#a59a039f5afb942d01777103bad40c300" target="_top" xlink:title="Create a iterative solver based of the SolverType and a list of Parameters.">
<polygon fill="none" stroke="black" points="212.5,-762 212.5,-792 346.5,-792 346.5,-762 212.5,-762"/>
<text text-anchor="start" x="220.5" y="-780" font-family="serif" font-size="10.00">SolverHypreFGMRES::</text>
<text text-anchor="middle" x="279.5" y="-769" font-family="serif" font-size="10.00">create_solver</text>
</a>
</g>
</g>
<!-- Node1&#45;&gt;Node10 -->
<g id="edge15" class="edge">
<title>Node1&#45;&gt;Node10</title>
<path fill="none" stroke="midnightblue" d="M442.65,-561.54C436.62,-602.98 416.79,-700.21 359,-753 355.21,-756.46 350.94,-759.42 346.39,-761.96"/>
<polygon fill="midnightblue" stroke="midnightblue" points="446.12,-562 443.98,-551.62 439.18,-561.07 446.12,-562"/>
</g>
<!-- Node11 -->
<g id="node11" class="node">
<title>Node11</title>
<g id="a_node11"><a xlink:href="classSolverBICGSTAB.html#a555f9875dc6d8572bfc1ff0032635c6d" target="_top" xlink:title="Create a iterative solver based of the SolverType and a list of Parameters.">
<polygon fill="none" stroke="black" points="209,-713 209,-743 350,-743 350,-713 209,-713"/>
<text text-anchor="start" x="217" y="-731" font-family="serif" font-size="10.00">SolverBICGSTAB::create</text>
<text text-anchor="middle" x="279.5" y="-720" font-family="serif" font-size="10.00">_solver</text>
</a>
</g>
</g>
<!-- Node1&#45;&gt;Node11 -->
<g id="edge17" class="edge">
<title>Node1&#45;&gt;Node11</title>
<path fill="none" stroke="midnightblue" d="M440.03,-561.35C430.3,-595.29 405.55,-665.6 359,-704 354.82,-707.45 350.16,-710.4 345.24,-712.93"/>
<polygon fill="midnightblue" stroke="midnightblue" points="443.41,-562.26 442.66,-551.69 436.65,-560.42 443.41,-562.26"/>
</g>
<!-- Node12 -->
<g id="node12" class="node">
<title>Node12</title>
<g id="a_node12"><a xlink:href="classSolverMINRES.html#ae0ec160e28632f6538ec16fc476cd14b" target="_top" xlink:title=" ">
<polygon fill="none" stroke="black" points="214,-664 214,-694 345,-694 345,-664 214,-664"/>
<text text-anchor="start" x="222" y="-682" font-family="serif" font-size="10.00">SolverMINRES::create</text>
<text text-anchor="middle" x="279.5" y="-671" font-family="serif" font-size="10.00">_solver</text>
</a>
</g>
</g>
<!-- Node1&#45;&gt;Node12 -->
<g id="edge19" class="edge">
<title>Node1&#45;&gt;Node12</title>
<path fill="none" stroke="midnightblue" d="M435.35,-560.81C421.65,-585.68 394.27,-629.24 359,-654 353.5,-657.86 347.37,-661.15 341.03,-663.94"/>
<polygon fill="midnightblue" stroke="midnightblue" points="438.59,-562.16 440.22,-551.69 432.42,-558.86 438.59,-562.16"/>
</g>
<!-- Node13 -->
<g id="node13" class="node">
<title>Node13</title>
<g id="a_node13"><a xlink:href="classSolverCG.html#abb8abcd3768a748ab1c4cc366799e146" target="_top" xlink:title=" ">
<polygon fill="none" stroke="black" points="210.5,-625.5 210.5,-644.5 348.5,-644.5 348.5,-625.5 210.5,-625.5"/>
<text text-anchor="middle" x="279.5" y="-632.5" font-family="serif" font-size="10.00">SolverCG::create_solver</text>
</a>
</g>
</g>
<!-- Node1&#45;&gt;Node13 -->
<g id="edge21" class="edge">
<title>Node1&#45;&gt;Node13</title>
<path fill="none" stroke="midnightblue" d="M429.83,-559.12C413.86,-576.08 387.16,-601.55 359,-616 351.51,-619.84 343.23,-622.92 334.92,-625.4"/>
<polygon fill="midnightblue" stroke="midnightblue" points="432.58,-561.3 436.77,-551.57 427.43,-556.56 432.58,-561.3"/>
</g>
<!-- Node14 -->
<g id="node14" class="node">
<title>Node14</title>
<g id="a_node14"><a xlink:href="classSolverGMRES.html#a7416f84035ad3da9e20adbda9ffd8c22" target="_top" xlink:title=" ">
<polygon fill="none" stroke="black" points="216,-576 216,-606 343,-606 343,-576 216,-576"/>
<text text-anchor="start" x="224" y="-594" font-family="serif" font-size="10.00">SolverGMRES::create</text>
<text text-anchor="middle" x="279.5" y="-583" font-family="serif" font-size="10.00">_solver</text>
</a>
</g>
</g>
<!-- Node1&#45;&gt;Node14 -->
<g id="edge23" class="edge">
<title>Node1&#45;&gt;Node14</title>
<path fill="none" stroke="midnightblue" d="M403.19,-554.45C381.22,-561 354.12,-569.07 330.98,-575.96"/>
<polygon fill="midnightblue" stroke="midnightblue" points="404.31,-557.77 412.89,-551.56 402.31,-551.06 404.31,-557.77"/>
</g>
<!-- Node15 -->
<g id="node15" class="node">
<title>Node15</title>
<g id="a_node15"><a xlink:href="classPrecondDSmoother.html#a04b157c452b242897c2e7e2fbdda790c" target="_top" xlink:title="Create preconditioner based of the PreconditionerType and a list of Parameters.">
<polygon fill="none" stroke="black" points="202.5,-527 202.5,-557 356.5,-557 356.5,-527 202.5,-527"/>
<text text-anchor="start" x="210.5" y="-545" font-family="serif" font-size="10.00">PrecondDSmoother::create</text>
<text text-anchor="middle" x="279.5" y="-534" font-family="serif" font-size="10.00">_solver</text>
</a>
</g>
</g>
<!-- Node1&#45;&gt;Node15 -->
<g id="edge25" class="edge">
<title>Node1&#45;&gt;Node15</title>
<path fill="none" stroke="midnightblue" d="M384.69,-542C375.61,-542 366.15,-542 356.79,-542"/>
<polygon fill="midnightblue" stroke="midnightblue" points="384.75,-545.5 394.75,-542 384.75,-538.5 384.75,-545.5"/>
</g>
<!-- Node16 -->
<g id="node16" class="node">
<title>Node16</title>
<g id="a_node16"><a xlink:href="classKKS.html#adb4477c43ac2d3cef4abecf5d7a31c46" target="_top" xlink:title="Compute Calphad contributions needed by KKS resolution.">
<polygon fill="none" stroke="black" points="203.5,-390.5 203.5,-409.5 355.5,-409.5 355.5,-390.5 203.5,-390.5"/>
<text text-anchor="middle" x="279.5" y="-397.5" font-family="serif" font-size="10.00">KKS::execute_linearization</text>
</a>
</g>
</g>
<!-- Node1&#45;&gt;Node16 -->
<g id="edge27" class="edge">
<title>Node1&#45;&gt;Node16</title>
<path fill="none" stroke="midnightblue" d="M436.92,-523.12C424.33,-496.03 397.42,-446.46 359,-420 352.63,-415.61 345.37,-412.19 337.91,-409.51"/>
<polygon fill="midnightblue" stroke="midnightblue" points="433.75,-524.62 441.04,-532.31 440.14,-521.76 433.75,-524.62"/>
</g>
<!-- Node17 -->
<g id="node17" class="node">
<title>Node17</title>
<g id="a_node17"><a xlink:href="classLSolver.html#aea68e9ca2bd547b8eb0ebf98c428aa9a" target="_top" xlink:title="Construct a new LSolver::LSolver object with a preconditionner.">
<polygon fill="none" stroke="black" points="229,-352.5 229,-371.5 330,-371.5 330,-352.5 229,-352.5"/>
<text text-anchor="middle" x="279.5" y="-359.5" font-family="serif" font-size="10.00">LSolver::LSolver</text>
</a>
</g>
</g>
<!-- Node1&#45;&gt;Node17 -->
<g id="edge28" class="edge">
<title>Node1&#45;&gt;Node17</title>
<path fill="none" stroke="midnightblue" d="M440.22,-522.49C430.79,-488.31 406.48,-417.76 359,-381 350.68,-374.56 340.5,-370.27 330.26,-367.41"/>
<polygon fill="midnightblue" stroke="midnightblue" points="436.85,-523.43 442.76,-532.22 443.62,-521.66 436.85,-523.43"/>
</g>
<!-- Node18 -->
<g id="node18" class="node">
<title>Node18</title>
<g id="a_node18"><a xlink:href="classNLSolver.html#a6edb14f7b1e99a6c0c9b37350738a10f" target="_top" xlink:title="Construct a new NLSolver::NLSolver object.">
<polygon fill="none" stroke="black" points="220,-314.5 220,-333.5 339,-333.5 339,-314.5 220,-314.5"/>
<text text-anchor="middle" x="279.5" y="-321.5" font-family="serif" font-size="10.00">NLSolver::NLSolver</text>
</a>
</g>
</g>
<!-- Node1&#45;&gt;Node18 -->
<g id="edge29" class="edge">
<title>Node1&#45;&gt;Node18</title>
<path fill="none" stroke="midnightblue" d="M442.35,-522.23C435.88,-482.03 415.44,-390.56 359,-343 353.21,-338.12 346.37,-334.46 339.18,-331.71"/>
<polygon fill="midnightblue" stroke="midnightblue" points="438.92,-522.96 443.85,-532.33 445.84,-521.93 438.92,-522.96"/>
</g>
<!-- Node19 -->
<g id="node19" class="node">
<title>Node19</title>
<g id="a_node19"><a xlink:href="structSetPrecondSolver.html#aa4e37e62a935fea0c1926352c0ecd1d2" target="_top" xlink:title="Main function.">
<polygon fill="none" stroke="black" points="0,-232.5 0,-251.5 164,-251.5 164,-232.5 0,-232.5"/>
<text text-anchor="middle" x="82" y="-239.5" font-family="serif" font-size="10.00">SetPrecondSolver::operator()</text>
</a>
</g>
</g>
<!-- Node1&#45;&gt;Node19 -->
<g id="edge30" class="edge">
<title>Node1&#45;&gt;Node19</title>
<path fill="none" stroke="midnightblue" d="M443.93,-521.93C440.34,-476.1 424.93,-363.24 359,-305 354.61,-301.13 203.92,-268.13 127.1,-251.5"/>
<polygon fill="midnightblue" stroke="midnightblue" points="440.44,-522.32 444.6,-532.06 447.43,-521.85 440.44,-522.32"/>
</g>
<!-- Node20 -->
<g id="node20" class="node">
<title>Node20</title>
<g id="a_node20"><a xlink:href="structSetPrecondNLSolver.html#a3579c089c95ed6ddc8ee6678327d2712" target="_top" xlink:title="Main function.">
<polygon fill="none" stroke="black" points="20.5,-181 20.5,-211 143.5,-211 143.5,-181 20.5,-181"/>
<text text-anchor="start" x="28.5" y="-199" font-family="serif" font-size="10.00">SetPrecondNLSolver</text>
<text text-anchor="middle" x="82" y="-188" font-family="serif" font-size="10.00">::operator()</text>
</a>
</g>
</g>
<!-- Node1&#45;&gt;Node20 -->
<g id="edge31" class="edge">
<title>Node1&#45;&gt;Node20</title>
<path fill="none" stroke="midnightblue" d="M443.58,-522.18C438.07,-451.56 415.53,-213.98 359,-169 326.55,-143.18 212.82,-164.33 141.87,-180.93"/>
<polygon fill="midnightblue" stroke="midnightblue" points="440.1,-522.65 444.34,-532.36 447.09,-522.13 440.1,-522.65"/>
</g>
<!-- Node21 -->
<g id="node21" class="node">
<title>Node21</title>
<g id="a_node21"><a xlink:href="structUtilsSolvers.html#a840e1af50b97b7df296c16477f372d3d" target="_top" xlink:title="Print the name of the Preconditioner.">
<polygon fill="none" stroke="black" points="225.5,-178 225.5,-208 333.5,-208 333.5,-178 225.5,-178"/>
<text text-anchor="start" x="233.5" y="-196" font-family="serif" font-size="10.00">UtilsSolvers::print</text>
<text text-anchor="middle" x="279.5" y="-185" font-family="serif" font-size="10.00">_prec_name</text>
</a>
</g>
</g>
<!-- Node1&#45;&gt;Node21 -->
<g id="edge32" class="edge">
<title>Node1&#45;&gt;Node21</title>
<path fill="none" stroke="midnightblue" d="M442.24,-522.07C433.1,-458.65 401.88,-263.03 359,-218 352.1,-210.75 343.1,-205.6 333.67,-201.93"/>
<polygon fill="midnightblue" stroke="midnightblue" points="438.83,-522.9 443.69,-532.31 445.76,-521.92 438.83,-522.9"/>
</g>
<!-- Node22 -->
<g id="node22" class="node">
<title>Node22</title>
<g id="a_node22"><a xlink:href="structUtilsSolvers.html#ad4e84303433eca9ff539ea48b744d9d4" target="_top" xlink:title="Print the name of the Solver.">
<polygon fill="none" stroke="black" points="225.5,-227 225.5,-257 333.5,-257 333.5,-227 225.5,-227"/>
<text text-anchor="start" x="233.5" y="-245" font-family="serif" font-size="10.00">UtilsSolvers::print</text>
<text text-anchor="middle" x="279.5" y="-234" font-family="serif" font-size="10.00">_solver_name</text>
</a>
</g>
</g>
<!-- Node1&#45;&gt;Node22 -->
<g id="edge35" class="edge">
<title>Node1&#45;&gt;Node22</title>
<path fill="none" stroke="midnightblue" d="M444.33,-522.23C441.63,-473.26 427.97,-344.99 359,-272 352.09,-264.68 343.2,-259.13 333.9,-254.92"/>
<polygon fill="midnightblue" stroke="midnightblue" points="440.85,-522.58 444.8,-532.41 447.84,-522.26 440.85,-522.58"/>
</g>
<!-- Node23 -->
<g id="node23" class="node">
<title>Node23</title>
<g id="a_node23"><a xlink:href="classSpatialDiscretization.html#a8400a265a094312b4d57708d44f9d627" target="_top" xlink:title="Set the FE_Collection, the FE_Space and associated size.">
<polygon fill="none" stroke="black" points="204.5,-79 204.5,-109 354.5,-109 354.5,-79 204.5,-79"/>
<text text-anchor="start" x="212.5" y="-97" font-family="serif" font-size="10.00">SpatialDiscretization</text>
<text text-anchor="middle" x="279.5" y="-86" font-family="serif" font-size="10.00">::set_finite_element_space</text>
</a>
</g>
</g>
<!-- Node1&#45;&gt;Node23 -->
<g id="edge38" class="edge">
<title>Node1&#45;&gt;Node23</title>
<path fill="none" stroke="midnightblue" d="M443.06,-522.23C435.57,-449.5 406.64,-197.81 359,-135 350.45,-123.73 337.91,-115.26 325.35,-109.04"/>
<polygon fill="midnightblue" stroke="midnightblue" points="439.59,-522.71 444.07,-532.31 446.55,-522.01 439.59,-522.71"/>
</g>
<!-- Node3 -->
<g id="node3" class="node">
<title>Node3</title>
<g id="a_node3"><a xlink:href="classSlothSolver.html#aa9c78d816c02f2d4ab70af64cb3f7791" target="_top" xlink:title="Create the linear solver depending on SolverType.">
<polygon fill="none" stroke="black" points="16.5,-718.5 16.5,-737.5 147.5,-737.5 147.5,-718.5 16.5,-718.5"/>
<text text-anchor="middle" x="82" y="-725.5" font-family="serif" font-size="10.00">SlothSolver::get_value</text>
</a>
</g>
</g>
<!-- Node2&#45;&gt;Node3 -->
<g id="edge2" class="edge">
<title>Node2&#45;&gt;Node3</title>
<path fill="none" stroke="midnightblue" d="M206.57,-513.23C204.28,-514.71 202.08,-516.3 200,-518 130.21,-575.06 94.9,-685.33 85.57,-718.4"/>
<polygon fill="midnightblue" stroke="midnightblue" points="208.8,-515.99 215.79,-508.04 205.36,-509.9 208.8,-515.99"/>
</g>
<!-- Node4&#45;&gt;Node3 -->
<g id="edge4" class="edge">
<title>Node4&#45;&gt;Node3</title>
<path fill="none" stroke="midnightblue" d="M206.07,-464.22C203.95,-465.7 201.92,-467.29 200,-469 118.92,-541.18 90.79,-680.58 84.48,-718.36"/>
<polygon fill="midnightblue" stroke="midnightblue" points="207.92,-467.2 214.66,-459.03 204.3,-461.21 207.92,-467.2"/>
</g>
<!-- Node5&#45;&gt;Node3 -->
<g id="edge6" class="edge">
<title>Node5&#45;&gt;Node3</title>
<path fill="none" stroke="midnightblue" d="M204.11,-1001.36C202.69,-1000.29 201.32,-999.18 200,-998 115.82,-922.77 89.79,-776.21 84.24,-737.54"/>
<polygon fill="midnightblue" stroke="midnightblue" points="202.39,-1004.41 212.7,-1006.86 206.17,-998.52 202.39,-1004.41"/>
</g>
<!-- Node6&#45;&gt;Node3 -->
<g id="edge8" class="edge">
<title>Node6&#45;&gt;Node3</title>
<path fill="none" stroke="midnightblue" d="M204.89,-952.67C203.2,-951.52 201.57,-950.29 200,-949 127.36,-889.01 93.8,-771.93 85.26,-737.65"/>
<polygon fill="midnightblue" stroke="midnightblue" points="203.37,-955.84 213.76,-957.93 206.94,-949.82 203.37,-955.84"/>
</g>
<!-- Node7&#45;&gt;Node3 -->
<g id="edge10" class="edge">
<title>Node7&#45;&gt;Node3</title>
<path fill="none" stroke="midnightblue" d="M206.44,-904.27C204.21,-902.94 202.06,-901.52 200,-900 138.66,-854.79 98.95,-767.26 86.89,-737.88"/>
<polygon fill="midnightblue" stroke="midnightblue" points="204.87,-907.4 215.35,-908.98 208.15,-901.21 204.87,-907.4"/>
</g>
<!-- Node8&#45;&gt;Node3 -->
<g id="edge12" class="edge">
<title>Node8&#45;&gt;Node3</title>
<path fill="none" stroke="midnightblue" d="M208.25,-855.59C205.4,-854.16 202.64,-852.63 200,-851 149.11,-819.55 105.36,-760.63 89.42,-737.59"/>
<polygon fill="midnightblue" stroke="midnightblue" points="206.99,-858.87 217.54,-859.83 209.9,-852.5 206.99,-858.87"/>
</g>
<!-- Node9&#45;&gt;Node3 -->
<g id="edge14" class="edge">
<title>Node9&#45;&gt;Node3</title>
<path fill="none" stroke="midnightblue" d="M212.81,-807.37C208.42,-805.68 204.12,-803.89 200,-802 159.59,-783.45 116.48,-753.07 95.68,-737.64"/>
<polygon fill="midnightblue" stroke="midnightblue" points="211.89,-810.76 222.49,-810.89 214.29,-804.18 211.89,-810.76"/>
</g>
<!-- Node10&#45;&gt;Node3 -->
<g id="edge16" class="edge">
<title>Node10&#45;&gt;Node3</title>
<path fill="none" stroke="midnightblue" d="M208.66,-759.5C179.13,-752.09 145.89,-743.76 121.01,-737.53"/>
<polygon fill="midnightblue" stroke="midnightblue" points="207.96,-762.93 218.51,-761.97 209.67,-756.14 207.96,-762.93"/>
</g>
<!-- Node11&#45;&gt;Node3 -->
<g id="edge18" class="edge">
<title>Node11&#45;&gt;Node3</title>
<path fill="none" stroke="midnightblue" d="M198.33,-728C181.41,-728 163.76,-728 147.5,-728"/>
<polygon fill="midnightblue" stroke="midnightblue" points="198.75,-731.5 208.75,-728 198.75,-724.5 198.75,-731.5"/>
</g>
<!-- Node12&#45;&gt;Node3 -->
<g id="edge20" class="edge">
<title>Node12&#45;&gt;Node3</title>
<path fill="none" stroke="midnightblue" d="M208.66,-696.5C179.13,-703.91 145.89,-712.24 121.01,-718.47"/>
<polygon fill="midnightblue" stroke="midnightblue" points="209.67,-699.86 218.51,-694.03 207.96,-693.07 209.67,-699.86"/>
</g>
<!-- Node13&#45;&gt;Node3 -->
<g id="edge22" class="edge">
<title>Node13&#45;&gt;Node3</title>
<path fill="none" stroke="midnightblue" d="M221.32,-647.36C214.03,-649.57 206.76,-652.11 200,-655 159.27,-672.4 116.3,-702.77 95.61,-718.28"/>
<polygon fill="midnightblue" stroke="midnightblue" points="222.57,-650.64 231.23,-644.53 220.65,-643.91 222.57,-650.64"/>
</g>
<!-- Node14&#45;&gt;Node3 -->
<g id="edge24" class="edge">
<title>Node14&#45;&gt;Node3</title>
<path fill="none" stroke="midnightblue" d="M211.31,-610.07C207.4,-611.89 203.6,-613.86 200,-616 151.65,-644.72 107.43,-696.92 90.41,-718.39"/>
<polygon fill="midnightblue" stroke="midnightblue" points="212.77,-613.25 220.58,-606.09 210.01,-606.81 212.77,-613.25"/>
</g>
<!-- Node15&#45;&gt;Node3 -->
<g id="edge26" class="edge">
<title>Node15&#45;&gt;Node3</title>
<path fill="none" stroke="midnightblue" d="M208.42,-561.65C205.49,-563.29 202.67,-565.07 200,-567 141.17,-609.48 100.13,-690.6 87.28,-718.39"/>
<polygon fill="midnightblue" stroke="midnightblue" points="210.1,-564.71 217.46,-557.09 206.96,-558.46 210.1,-564.71"/>
</g>
<!-- Node21&#45;&gt;Node19 -->
<g id="edge33" class="edge">
<title>Node21&#45;&gt;Node19</title>
<path fill="none" stroke="midnightblue" d="M215.44,-208.81C184.3,-216.61 147.77,-225.77 120.97,-232.48"/>
<polygon fill="midnightblue" stroke="midnightblue" points="216.49,-212.15 225.34,-206.32 214.79,-205.36 216.49,-212.15"/>
</g>
<!-- Node21&#45;&gt;Node20 -->
<g id="edge34" class="edge">
<title>Node21&#45;&gt;Node20</title>
<path fill="none" stroke="midnightblue" d="M215.05,-193.97C192.16,-194.32 166.4,-194.72 143.75,-195.07"/>
<polygon fill="midnightblue" stroke="midnightblue" points="215.39,-197.47 225.34,-193.82 215.28,-190.47 215.39,-197.47"/>
</g>
<!-- Node22&#45;&gt;Node19 -->
<g id="edge36" class="edge">
<title>Node22&#45;&gt;Node19</title>
<path fill="none" stroke="midnightblue" d="M214.91,-242C198.69,-242 181.03,-242 164.07,-242"/>
<polygon fill="midnightblue" stroke="midnightblue" points="215.34,-245.5 225.34,-242 215.34,-238.5 215.34,-245.5"/>
</g>
<!-- Node22&#45;&gt;Node20 -->
<g id="edge37" class="edge">
<title>Node22&#45;&gt;Node20</title>
<path fill="none" stroke="midnightblue" d="M215.35,-227.14C192.39,-221.74 166.5,-215.65 143.75,-210.29"/>
<polygon fill="midnightblue" stroke="midnightblue" points="214.8,-230.61 225.34,-229.49 216.4,-223.79 214.8,-230.61"/>
</g>
<!-- Node24 -->
<g id="node24" class="node">
<title>Node24</title>
<g id="a_node24"><a xlink:href="structspecialized__spatial__constructor_3_01T_00_011_01_4.html#a9d28d9d2735b1b9d2ca88de45cfda15b" target="_top" xlink:title="operator() specialized for a mesh built from GMSH file">
<polygon fill="none" stroke="black" points="22.5,-120.5 22.5,-161.5 141.5,-161.5 141.5,-120.5 22.5,-120.5"/>
<text text-anchor="start" x="30.5" y="-149.5" font-family="serif" font-size="10.00">specialized_spatial</text>
<text text-anchor="start" x="30.5" y="-138.5" font-family="serif" font-size="10.00">_constructor&lt; T, 1 &gt;</text>
<text text-anchor="middle" x="82" y="-127.5" font-family="serif" font-size="10.00">::operator()</text>
</a>
</g>
</g>
<!-- Node23&#45;&gt;Node24 -->
<g id="edge39" class="edge">
<title>Node23&#45;&gt;Node24</title>
<path fill="none" stroke="midnightblue" d="M206.18,-111.39C184.98,-116.48 162.06,-121.99 141.81,-126.86"/>
<polygon fill="midnightblue" stroke="midnightblue" points="207.2,-114.74 216.11,-109 205.56,-107.93 207.2,-114.74"/>
</g>
<!-- Node25 -->
<g id="node25" class="node">
<title>Node25</title>
<g id="a_node25"><a xlink:href="structspecialized__spatial__constructor_3_01T_00_012_01_4.html#a367e7535f528d675144feb9ec420a28b" target="_top" xlink:title="operator() specialized for a mesh built from GMSH file">
<polygon fill="none" stroke="black" points="22.5,-60.5 22.5,-101.5 141.5,-101.5 141.5,-60.5 22.5,-60.5"/>
<text text-anchor="start" x="30.5" y="-89.5" font-family="serif" font-size="10.00">specialized_spatial</text>
<text text-anchor="start" x="30.5" y="-78.5" font-family="serif" font-size="10.00">_constructor&lt; T, 2 &gt;</text>
<text text-anchor="middle" x="82" y="-67.5" font-family="serif" font-size="10.00">::operator()</text>
</a>
</g>
</g>
<!-- Node23&#45;&gt;Node25 -->
<g id="edge40" class="edge">
<title>Node23&#45;&gt;Node25</title>
<path fill="none" stroke="midnightblue" d="M194,-88.38C176.34,-87.21 158.09,-85.99 141.62,-84.9"/>
<polygon fill="midnightblue" stroke="midnightblue" points="194.1,-91.9 204.31,-89.07 194.57,-84.91 194.1,-91.9"/>
</g>
<!-- Node26 -->
<g id="node26" class="node">
<title>Node26</title>
<g id="a_node26"><a xlink:href="structspecialized__spatial__constructor_3_01T_00_013_01_4.html#ac2e4126ca21896e53bd7800cf989d462" target="_top" xlink:title="operator() specialized for a mesh built from GMSH file">
<polygon fill="none" stroke="black" points="22.5,-0.5 22.5,-41.5 141.5,-41.5 141.5,-0.5 22.5,-0.5"/>
<text text-anchor="start" x="30.5" y="-29.5" font-family="serif" font-size="10.00">specialized_spatial</text>
<text text-anchor="start" x="30.5" y="-18.5" font-family="serif" font-size="10.00">_constructor&lt; T, 3 &gt;</text>
<text text-anchor="middle" x="82" y="-7.5" font-family="serif" font-size="10.00">::operator()</text>
</a>
</g>
</g>
<!-- Node23&#45;&gt;Node26 -->
<g id="edge41" class="edge">
<title>Node23&#45;&gt;Node26</title>
<path fill="none" stroke="midnightblue" d="M228.92,-75.32C208.78,-67.75 185.29,-58.94 164,-51 155.85,-47.96 147.24,-44.76 138.79,-41.62"/>
<polygon fill="midnightblue" stroke="midnightblue" points="227.92,-78.69 238.51,-78.93 230.38,-72.13 227.92,-78.69"/>
</g>
</g>
</svg>
