<?xml version="1.0" encoding="UTF-8" standalone="no"?>
<!DOCTYPE svg PUBLIC "-//W3C//DTD SVG 1.1//EN"
 "http://www.w3.org/Graphics/SVG/1.1/DTD/svg11.dtd">
<!-- Generated by graphviz version 2.43.0 (0)
 -->
<!-- Title: DiffusionOperator&lt; T, DIM, NLFI, DENS, LHS_NLFI &gt; Pages: 1 -->
<svg width="870pt" height="100pt"
 viewBox="0.00 0.00 870.00 99.50" xmlns="http://www.w3.org/2000/svg" xmlns:xlink="http://www.w3.org/1999/xlink">
<g id="graph0" class="graph" transform="scale(1 1) rotate(0) translate(4 95.5)">
<title>DiffusionOperator&lt; T, DIM, NLFI, DENS, LHS_NLFI &gt;</title>
<!-- Node1 -->
<g id="node1" class="node">
<title>Node1</title>
<g id="a_node1"><a xlink:title="Class DiffusionOperator.">
<polygon fill="#bfbfbf" stroke="black" points="736,-18.5 736,-59.5 862,-59.5 862,-18.5 736,-18.5"/>
<text text-anchor="start" x="744" y="-47.5" font-family="serif" font-size="10.00">DiffusionOperator&lt;</text>
<text text-anchor="start" x="744" y="-36.5" font-family="serif" font-size="10.00"> T, DIM, NLFI, DENS,</text>
<text text-anchor="middle" x="799" y="-25.5" font-family="serif" font-size="10.00"> LHS_NLFI &gt;</text>
</a>
</g>
</g>
<!-- Node2 -->
<g id="node2" class="node">
<title>Node2</title>
<g id="a_node2"><a xlink:href="classDiffusionOperatorBase.html" target="_top" xlink:title=" ">
<polygon fill="none" stroke="black" points="542,-18.5 542,-59.5 699,-59.5 699,-18.5 542,-18.5"/>
<text text-anchor="start" x="550" y="-47.5" font-family="serif" font-size="10.00">DiffusionOperatorBase</text>
<text text-anchor="start" x="550" y="-36.5" font-family="serif" font-size="10.00">&lt; T, DIM, NLFI, LHS_NLFI,</text>
<text text-anchor="middle" x="620.5" y="-25.5" font-family="serif" font-size="10.00"> TransientOperatorBase &gt;</text>
</a>
</g>
</g>
<!-- Node2&#45;&gt;Node1 -->
<g id="edge1" class="edge">
<title>Node2&#45;&gt;Node1</title>
<path fill="none" stroke="midnightblue" d="M709.31,-39C718.3,-39 727.3,-39 735.93,-39"/>
<polygon fill="midnightblue" stroke="midnightblue" points="709.17,-35.5 699.17,-39 709.17,-42.5 709.17,-35.5"/>
</g>
<!-- Node3 -->
<g id="node3" class="node">
<title>Node3</title>
<g id="a_node3"><a xlink:href="classTransientOperatorBase.html" target="_top" xlink:title="TransientOperatorBase class.">
<polygon fill="none" stroke="black" points="172,-61 172,-91 337,-91 337,-61 172,-61"/>
<text text-anchor="start" x="180" y="-79" font-family="serif" font-size="10.00">TransientOperatorBase</text>
<text text-anchor="middle" x="254.5" y="-68" font-family="serif" font-size="10.00">&lt; T, DIM, NLFI, LHS_NLFI &gt;</text>
</a>
</g>
</g>
<!-- Node3&#45;&gt;Node2 -->
<g id="edge2" class="edge">
<title>Node3&#45;&gt;Node2</title>
<path fill="none" stroke="midnightblue" d="M347.48,-69.5C399.39,-65.48 465.4,-59.8 524,-53 529.83,-52.32 535.84,-51.57 541.89,-50.78"/>
<polygon fill="midnightblue" stroke="midnightblue" points="347,-66.02 337.29,-70.28 347.53,-73 347,-66.02"/>
</g>
<!-- Node4 -->
<g id="node4" class="node">
<title>Node4</title>
<g id="a_node4"><a xlink:href="classOperatorBase.html" target="_top" xlink:title="Base class for building Steady and TimeDependent PhaseFieldOperators.">
<polygon fill="none" stroke="black" points="0,-61 0,-91 135,-91 135,-61 0,-61"/>
<text text-anchor="start" x="8" y="-79" font-family="serif" font-size="10.00">OperatorBase&lt; T, DIM,</text>
<text text-anchor="middle" x="67.5" y="-68" font-family="serif" font-size="10.00"> NLFI, LHS_NLFI &gt;</text>
</a>
</g>
</g>
<!-- Node4&#45;&gt;Node3 -->
<g id="edge3" class="edge">
<title>Node4&#45;&gt;Node3</title>
<path fill="none" stroke="midnightblue" d="M145.21,-76C153.97,-76 162.93,-76 171.76,-76"/>
<polygon fill="midnightblue" stroke="midnightblue" points="145.03,-72.5 135.03,-76 145.03,-79.5 145.03,-72.5"/>
</g>
<!-- Node5 -->
<g id="node5" class="node">
<title>Node5</title>
<g id="a_node5"><a xlink:href="classDiffusionOperatorBase.html" target="_top" xlink:title="Base class for Mass Diffusion.">
<polygon fill="none" stroke="black" points="176,-0.5 176,-41.5 333,-41.5 333,-0.5 176,-0.5"/>
<text text-anchor="start" x="184" y="-29.5" font-family="serif" font-size="10.00">DiffusionOperatorBase</text>
<text text-anchor="start" x="184" y="-18.5" font-family="serif" font-size="10.00">&lt; T, DIM, NLFI, LHS_NLFI,</text>
<text text-anchor="middle" x="254.5" y="-7.5" font-family="serif" font-size="10.00"> OPEBASE &gt;</text>
</a>
</g>
</g>
<!-- Node5&#45;&gt;Node2 -->
<g id="edge4" class="edge">
<title>Node5&#45;&gt;Node2</title>
<path fill="none" stroke="orange" stroke-dasharray="5,2" d="M343.37,-23.25C395.83,-24.84 463.76,-27.36 524,-31 529.81,-31.35 535.82,-31.76 541.86,-32.19"/>
<polygon fill="orange" stroke="orange" points="343.19,-19.74 333.09,-22.94 342.98,-26.74 343.19,-19.74"/>
<text text-anchor="start" x="355" y="-45" font-family="serif" font-size="10.00"> &lt; T, DIM, NLFI, LHS</text>
<text text-anchor="middle" x="439.5" y="-34" font-family="serif" font-size="10.00">_NLFI, TransientOperatorBase &gt;</text>
</g>
</g>
</svg>
