<?xml version="1.0" encoding="UTF-8" standalone="no"?>
<!DOCTYPE svg PUBLIC "-//W3C//DTD SVG 1.1//EN"
 "http://www.w3.org/Graphics/SVG/1.1/DTD/svg11.dtd">
<!-- Generated by graphviz version 2.43.0 (0)
 -->
<!-- Title: Variable::Variable Pages: 1 -->
<svg width="301pt" height="88pt"
 viewBox="0.00 0.00 301.00 88.00" xmlns="http://www.w3.org/2000/svg" xmlns:xlink="http://www.w3.org/1999/xlink">
<g id="graph0" class="graph" transform="scale(1 1) rotate(0) translate(4 84)">
<title>Variable::Variable</title>
<!-- Node1 -->
<g id="node1" class="node">
<title>Node1</title>
<g id="a_node1"><a xlink:title="Construct a new Variable&lt;T&gt;:: Variable object.">
<polygon fill="#bfbfbf" stroke="black" points="0,-30 0,-49 105,-49 105,-30 0,-30"/>
<text text-anchor="middle" x="52.5" y="-37" font-family="serif" font-size="10.00">Variable::Variable</text>
</a>
</g>
</g>
<!-- Node2 -->
<g id="node2" class="node">
<title>Node2</title>
<g id="a_node2"><a xlink:href="classSpatialDiscretization.html#a785f5fc5d0d3b48fc13b78ffa2404876" target="_top" xlink:title="get the dimension of the problem">
<polygon fill="none" stroke="black" points="156,-49.5 156,-79.5 278,-79.5 278,-49.5 156,-49.5"/>
<text text-anchor="start" x="164" y="-67.5" font-family="serif" font-size="10.00">SpatialDiscretization</text>
<text text-anchor="middle" x="217" y="-56.5" font-family="serif" font-size="10.00">::get_dimension</text>
</a>
</g>
</g>
<!-- Node1&#45;&gt;Node2 -->
<g id="edge1" class="edge">
<title>Node1&#45;&gt;Node2</title>
<path fill="none" stroke="midnightblue" d="M105.36,-47.48C118.17,-49.45 132.1,-51.59 145.62,-53.67"/>
<polygon fill="midnightblue" stroke="midnightblue" points="145.44,-57.19 155.85,-55.25 146.5,-50.27 145.44,-57.19"/>
</g>
<!-- Node3 -->
<g id="node3" class="node">
<title>Node3</title>
<g id="a_node3"><a xlink:href="classSpatialDiscretization.html#a1f29ce5ce231196955f27214bff5b15b" target="_top" xlink:title="return a pointer toward the finite element space">
<polygon fill="none" stroke="black" points="141,-0.5 141,-30.5 293,-30.5 293,-0.5 141,-0.5"/>
<text text-anchor="start" x="149" y="-18.5" font-family="serif" font-size="10.00">SpatialDiscretization</text>
<text text-anchor="middle" x="217" y="-7.5" font-family="serif" font-size="10.00">::get_finite_element_space</text>
</a>
</g>
</g>
<!-- Node1&#45;&gt;Node3 -->
<g id="edge2" class="edge">
<title>Node1&#45;&gt;Node3</title>
<path fill="none" stroke="midnightblue" d="M105.36,-31.84C113.51,-30.64 122.11,-29.37 130.77,-28.09"/>
<polygon fill="midnightblue" stroke="midnightblue" points="131.56,-31.51 140.94,-26.59 130.54,-24.58 131.56,-31.51"/>
</g>
</g>
</svg>
