<?xml version="1.0" encoding="UTF-8" standalone="no"?>
<!DOCTYPE svg PUBLIC "-//W3C//DTD SVG 1.1//EN"
 "http://www.w3.org/Graphics/SVG/1.1/DTD/svg11.dtd">
<!-- Generated by graphviz version 2.43.0 (0)
 -->
<!-- Title: ProblemBase&lt; VAR, PST &gt; Pages: 1 -->
<svg width="378pt" height="176pt"
 viewBox="0.00 0.00 378.00 176.00" xmlns="http://www.w3.org/2000/svg" xmlns:xlink="http://www.w3.org/1999/xlink">
<g id="graph0" class="graph" transform="scale(1 1) rotate(0) translate(4 172)">
<title>ProblemBase&lt; VAR, PST &gt;</title>
<!-- Node1 -->
<g id="node1" class="node">
<title>Node1</title>
<g id="a_node1"><a xlink:title=" ">
<polygon fill="#bfbfbf" stroke="black" points="0,-77 0,-96 155,-96 155,-77 0,-77"/>
<text text-anchor="middle" x="77.5" y="-84" font-family="serif" font-size="10.00">ProblemBase&lt; VAR, PST &gt;</text>
</a>
</g>
</g>
<!-- Node2 -->
<g id="node2" class="node">
<title>Node2</title>
<g id="a_node2"><a xlink:href="classCalphad__Problem.html" target="_top" xlink:title=" ">
<polygon fill="none" stroke="black" points="193.5,-137.5 193.5,-167.5 367.5,-167.5 367.5,-137.5 193.5,-137.5"/>
<text text-anchor="start" x="201.5" y="-155.5" font-family="serif" font-size="10.00">Calphad_Problem&lt; CALPHAD,</text>
<text text-anchor="middle" x="280.5" y="-144.5" font-family="serif" font-size="10.00"> VAR, PST &gt;</text>
</a>
</g>
</g>
<!-- Node1&#45;&gt;Node2 -->
<g id="edge1" class="edge">
<title>Node1&#45;&gt;Node2</title>
<path fill="none" stroke="midnightblue" d="M112.96,-99.81C135.11,-108.18 164.58,-118.97 191,-127.5 201.48,-130.89 212.74,-134.26 223.6,-137.39"/>
<polygon fill="midnightblue" stroke="midnightblue" points="113.93,-96.43 103.34,-96.15 111.44,-102.98 113.93,-96.43"/>
</g>
<!-- Node3 -->
<g id="node3" class="node">
<title>Node3</title>
<g id="a_node3"><a xlink:href="classMPI__Problem.html" target="_top" xlink:title=" ">
<polygon fill="none" stroke="black" points="202.5,-99 202.5,-118 358.5,-118 358.5,-99 202.5,-99"/>
<text text-anchor="middle" x="280.5" y="-106" font-family="serif" font-size="10.00">MPI_Problem&lt; VAR, PST &gt;</text>
</a>
</g>
</g>
<!-- Node1&#45;&gt;Node3 -->
<g id="edge2" class="edge">
<title>Node1&#45;&gt;Node3</title>
<path fill="none" stroke="midnightblue" d="M165.36,-96.01C177.71,-97.36 190.34,-98.74 202.48,-100.07"/>
<polygon fill="midnightblue" stroke="midnightblue" points="165.38,-92.49 155.06,-94.88 164.62,-99.45 165.38,-92.49"/>
</g>
<!-- Node4 -->
<g id="node4" class="node">
<title>Node4</title>
<g id="a_node4"><a xlink:href="classProblem.html" target="_top" xlink:title=" ">
<polygon fill="none" stroke="black" points="218.5,-49.5 218.5,-79.5 342.5,-79.5 342.5,-49.5 218.5,-49.5"/>
<text text-anchor="start" x="226.5" y="-67.5" font-family="serif" font-size="10.00">Problem&lt; OPE, VAR,</text>
<text text-anchor="middle" x="280.5" y="-56.5" font-family="serif" font-size="10.00"> PST &gt;</text>
</a>
</g>
</g>
<!-- Node1&#45;&gt;Node4 -->
<g id="edge3" class="edge">
<title>Node1&#45;&gt;Node4</title>
<path fill="none" stroke="midnightblue" d="M165.23,-77.01C183.16,-75.05 201.67,-73.02 218.45,-71.18"/>
<polygon fill="midnightblue" stroke="midnightblue" points="164.62,-73.55 155.06,-78.12 165.38,-80.51 164.62,-73.55"/>
</g>
<!-- Node5 -->
<g id="node5" class="node">
<title>Node5</title>
<g id="a_node5"><a xlink:href="classProperty__problem.html" target="_top" xlink:title=" ">
<polygon fill="none" stroke="black" points="191,-0.5 191,-30.5 370,-30.5 370,-0.5 191,-0.5"/>
<text text-anchor="start" x="199" y="-18.5" font-family="serif" font-size="10.00">Property_problem&lt; PROPERTY,</text>
<text text-anchor="middle" x="280.5" y="-7.5" font-family="serif" font-size="10.00"> VAR, PST &gt;</text>
</a>
</g>
</g>
<!-- Node1&#45;&gt;Node5 -->
<g id="edge4" class="edge">
<title>Node1&#45;&gt;Node5</title>
<path fill="none" stroke="midnightblue" d="M109.12,-72.88C131.55,-63.18 162.85,-50.2 191,-40.5 201.11,-37.02 212,-33.64 222.55,-30.56"/>
<polygon fill="midnightblue" stroke="midnightblue" points="107.56,-69.75 99.79,-76.95 110.36,-76.16 107.56,-69.75"/>
</g>
</g>
</svg>
