<?xml version="1.0" encoding="UTF-8" standalone="no"?>
<!DOCTYPE svg PUBLIC "-//W3C//DTD SVG 1.1//EN"
 "http://www.w3.org/Graphics/SVG/1.1/DTD/svg11.dtd">
<!-- Generated by graphviz version 2.43.0 (0)
 -->
<!-- Title: DiffusionOperatorBase&lt; T, DIM, NLFI, LHS_NLFI, OPEBASE &gt; Pages: 1 -->
<svg width="754pt" height="122pt"
 viewBox="0.00 0.00 754.00 121.50" xmlns="http://www.w3.org/2000/svg" xmlns:xlink="http://www.w3.org/1999/xlink">
<g id="graph0" class="graph" transform="scale(1 1) rotate(0) translate(4 117.5)">
<title>DiffusionOperatorBase&lt; T, DIM, NLFI, LHS_NLFI, OPEBASE &gt;</title>
<!-- Node1 -->
<g id="node1" class="node">
<title>Node1</title>
<g id="a_node1"><a xlink:title="Base class for Mass Diffusion.">
<polygon fill="#bfbfbf" stroke="black" points="0,-32.5 0,-73.5 157,-73.5 157,-32.5 0,-32.5"/>
<text text-anchor="start" x="8" y="-61.5" font-family="serif" font-size="10.00">DiffusionOperatorBase</text>
<text text-anchor="start" x="8" y="-50.5" font-family="serif" font-size="10.00">&lt; T, DIM, NLFI, LHS_NLFI,</text>
<text text-anchor="middle" x="78.5" y="-39.5" font-family="serif" font-size="10.00"> OPEBASE &gt;</text>
</a>
</g>
</g>
<!-- Node2 -->
<g id="node2" class="node">
<title>Node2</title>
<g id="a_node2"><a xlink:href="classDiffusionOperatorBase.html" target="_top" xlink:title=" ">
<polygon fill="none" stroke="black" points="362,-61 362,-113 544,-113 544,-61 362,-61"/>
<text text-anchor="start" x="370" y="-101" font-family="serif" font-size="10.00">DiffusionOperatorBase</text>
<text text-anchor="start" x="370" y="-90" font-family="serif" font-size="10.00">&lt; T, DIM, NLFI, mfem</text>
<text text-anchor="start" x="370" y="-79" font-family="serif" font-size="10.00">::BlockNonlinearFormIntegrator,</text>
<text text-anchor="middle" x="453" y="-68" font-family="serif" font-size="10.00"> SteadyOperatorBase &gt;</text>
</a>
</g>
</g>
<!-- Node1&#45;&gt;Node2 -->
<g id="edge1" class="edge">
<title>Node1&#45;&gt;Node2</title>
<path fill="none" stroke="orange" stroke-dasharray="5,2" d="M167.11,-61C225.68,-66.34 302.55,-73.36 361.68,-78.76"/>
<polygon fill="orange" stroke="orange" points="167.41,-57.51 157.13,-60.09 166.78,-64.48 167.41,-57.51"/>
<text text-anchor="start" x="176.5" y="-101" font-family="serif" font-size="10.00"> &lt; T, DIM, NLFI, mfem</text>
<text text-anchor="start" x="176.5" y="-90" font-family="serif" font-size="10.00">::BlockNonlinearFormIntegrator,</text>
<text text-anchor="middle" x="259.5" y="-79" font-family="serif" font-size="10.00"> SteadyOperatorBase &gt;</text>
</g>
<!-- Node4 -->
<g id="node4" class="node">
<title>Node4</title>
<g id="a_node4"><a xlink:href="classDiffusionOperatorBase.html" target="_top" xlink:title=" ">
<polygon fill="none" stroke="black" points="374.5,-0.5 374.5,-41.5 531.5,-41.5 531.5,-0.5 374.5,-0.5"/>
<text text-anchor="start" x="382.5" y="-29.5" font-family="serif" font-size="10.00">DiffusionOperatorBase</text>
<text text-anchor="start" x="382.5" y="-18.5" font-family="serif" font-size="10.00">&lt; T, DIM, NLFI, LHS_NLFI,</text>
<text text-anchor="middle" x="453" y="-7.5" font-family="serif" font-size="10.00"> TransientOperatorBase &gt;</text>
</a>
</g>
</g>
<!-- Node1&#45;&gt;Node4 -->
<g id="edge3" class="edge">
<title>Node1&#45;&gt;Node4</title>
<path fill="none" stroke="orange" stroke-dasharray="5,2" d="M167.23,-37.93C169.85,-37.6 172.44,-37.29 175,-37 242.14,-29.46 318.85,-25.38 374.5,-23.23"/>
<polygon fill="orange" stroke="orange" points="166.51,-34.49 157.06,-39.28 167.44,-41.43 166.51,-34.49"/>
<text text-anchor="start" x="175" y="-51" font-family="serif" font-size="10.00"> &lt; T, DIM, NLFI, LHS</text>
<text text-anchor="middle" x="259.5" y="-40" font-family="serif" font-size="10.00">_NLFI, TransientOperatorBase &gt;</text>
</g>
<!-- Node3 -->
<g id="node3" class="node">
<title>Node3</title>
<g id="a_node3"><a xlink:href="classSteadyDiffusionOperator.html" target="_top" xlink:title="Class SteadyDiffusionOperator.">
<polygon fill="none" stroke="black" points="581,-72 581,-102 746,-102 746,-72 581,-72"/>
<text text-anchor="start" x="589" y="-90" font-family="serif" font-size="10.00">SteadyDiffusionOperator</text>
<text text-anchor="middle" x="663.5" y="-79" font-family="serif" font-size="10.00">&lt; T, DIM, NLFI, LHS_NLFI &gt;</text>
</a>
</g>
</g>
<!-- Node2&#45;&gt;Node3 -->
<g id="edge2" class="edge">
<title>Node2&#45;&gt;Node3</title>
<path fill="none" stroke="midnightblue" d="M554.3,-87C563.25,-87 572.23,-87 580.98,-87"/>
<polygon fill="midnightblue" stroke="midnightblue" points="554.24,-83.5 544.24,-87 554.24,-90.5 554.24,-83.5"/>
</g>
<!-- Node5 -->
<g id="node5" class="node">
<title>Node5</title>
<g id="a_node5"><a xlink:href="classDiffusionOperator.html" target="_top" xlink:title="Class DiffusionOperator.">
<polygon fill="none" stroke="black" points="600.5,-0.5 600.5,-41.5 726.5,-41.5 726.5,-0.5 600.5,-0.5"/>
<text text-anchor="start" x="608.5" y="-29.5" font-family="serif" font-size="10.00">DiffusionOperator&lt;</text>
<text text-anchor="start" x="608.5" y="-18.5" font-family="serif" font-size="10.00"> T, DIM, NLFI, DENS,</text>
<text text-anchor="middle" x="663.5" y="-7.5" font-family="serif" font-size="10.00"> LHS_NLFI &gt;</text>
</a>
</g>
</g>
<!-- Node4&#45;&gt;Node5 -->
<g id="edge4" class="edge">
<title>Node4&#45;&gt;Node5</title>
<path fill="none" stroke="midnightblue" d="M541.85,-21C561.54,-21 582.03,-21 600.42,-21"/>
<polygon fill="midnightblue" stroke="midnightblue" points="541.64,-17.5 531.64,-21 541.64,-24.5 541.64,-17.5"/>
</g>
</g>
</svg>
