<?xml version="1.0" encoding="UTF-8" standalone="no"?>
<!DOCTYPE svg PUBLIC "-//W3C//DTD SVG 1.1//EN"
 "http://www.w3.org/Graphics/SVG/1.1/DTD/svg11.dtd">
<!-- Generated by graphviz version 2.43.0 (0)
 -->
<!-- Title: SolverUMFPACK::create_solver Pages: 1 -->
<svg width="544pt" height="187pt"
 viewBox="0.00 0.00 544.00 186.50" xmlns="http://www.w3.org/2000/svg" xmlns:xlink="http://www.w3.org/1999/xlink">
<g id="graph0" class="graph" transform="scale(1 1) rotate(0) translate(4 182.5)">
<title>SolverUMFPACK::create_solver</title>
<!-- Node1 -->
<g id="node1" class="node">
<title>Node1</title>
<g id="a_node1"><a xlink:title="Create a direct solver based of the SolverType and a list of Parameters.">
<polygon fill="#bfbfbf" stroke="black" points="0,-76.5 0,-106.5 140,-106.5 140,-76.5 0,-76.5"/>
<text text-anchor="start" x="8" y="-94.5" font-family="serif" font-size="10.00">SolverUMFPACK::create</text>
<text text-anchor="middle" x="70" y="-83.5" font-family="serif" font-size="10.00">_solver</text>
</a>
</g>
</g>
<!-- Node2 -->
<g id="node2" class="node">
<title>Node2</title>
<g id="a_node2"><a xlink:href="classSlothInfo.html#a854d3cafdb9f5a77f1063a27d2a27e04" target="_top" xlink:title="Print information on Debug mode.">
<polygon fill="none" stroke="black" points="209.5,-159 209.5,-178 311.5,-178 311.5,-159 209.5,-159"/>
<text text-anchor="middle" x="260.5" y="-166" font-family="serif" font-size="10.00">SlothInfo::debug</text>
</a>
</g>
</g>
<!-- Node1&#45;&gt;Node2 -->
<g id="edge1" class="edge">
<title>Node1&#45;&gt;Node2</title>
<path fill="none" stroke="midnightblue" d="M93.86,-106.6C114.54,-119.65 146.23,-138.15 176,-149.5 183.51,-152.36 191.56,-154.86 199.6,-157.02"/>
<polygon fill="midnightblue" stroke="midnightblue" points="198.81,-160.43 209.37,-159.5 200.53,-153.65 198.81,-160.43"/>
</g>
<!-- Node3 -->
<g id="node3" class="node">
<title>Node3</title>
<g id="a_node3"><a xlink:href="classSolverBase.html#a52edc30e08c2552f8ceb3d9ea928b059" target="_top" xlink:title=" ">
<polygon fill="none" stroke="black" points="176,-99 176,-140 345,-140 345,-99 176,-99"/>
<text text-anchor="start" x="184" y="-128" font-family="serif" font-size="10.00">SolverBase&lt; mfem::UMFPack</text>
<text text-anchor="start" x="184" y="-117" font-family="serif" font-size="10.00">Solver, DirectSolverType</text>
<text text-anchor="middle" x="260.5" y="-106" font-family="serif" font-size="10.00"> &gt;::get_description</text>
</a>
</g>
</g>
<!-- Node1&#45;&gt;Node3 -->
<g id="edge2" class="edge">
<title>Node1&#45;&gt;Node3</title>
<path fill="none" stroke="midnightblue" d="M140.12,-101.77C148.5,-103.01 157.17,-104.3 165.83,-105.59"/>
<polygon fill="midnightblue" stroke="midnightblue" points="165.58,-109.09 175.98,-107.09 166.61,-102.16 165.58,-109.09"/>
</g>
<!-- Node4 -->
<g id="node4" class="node">
<title>Node4</title>
<g id="a_node4"><a xlink:href="classParameters.html#ae3b314c5ebc3fde8684b0634b2406da6" target="_top" xlink:title="Return the value of the parameter associated to the given name.">
<polygon fill="none" stroke="black" points="193,-49.5 193,-79.5 328,-79.5 328,-49.5 193,-49.5"/>
<text text-anchor="start" x="201" y="-67.5" font-family="serif" font-size="10.00">Parameters::get_param</text>
<text text-anchor="middle" x="260.5" y="-56.5" font-family="serif" font-size="10.00">_value</text>
</a>
</g>
</g>
<!-- Node1&#45;&gt;Node4 -->
<g id="edge3" class="edge">
<title>Node1&#45;&gt;Node4</title>
<path fill="none" stroke="midnightblue" d="M140.12,-81.6C153.99,-79.61 168.64,-77.52 182.74,-75.49"/>
<polygon fill="midnightblue" stroke="midnightblue" points="183.5,-78.92 192.9,-74.04 182.51,-71.99 183.5,-78.92"/>
</g>
<!-- Node7 -->
<g id="node7" class="node">
<title>Node7</title>
<g id="a_node7"><a xlink:href="classParameters.html#a857c53fbe60d7bd2f91e91626f85b6d2" target="_top" xlink:title="Return the value of the parameter associated to the given name or, use th edefault given,...">
<polygon fill="none" stroke="black" points="193,-0.5 193,-30.5 328,-30.5 328,-0.5 193,-0.5"/>
<text text-anchor="start" x="201" y="-18.5" font-family="serif" font-size="10.00">Parameters::get_param</text>
<text text-anchor="middle" x="260.5" y="-7.5" font-family="serif" font-size="10.00">_value_or_default</text>
</a>
</g>
</g>
<!-- Node1&#45;&gt;Node7 -->
<g id="edge6" class="edge">
<title>Node1&#45;&gt;Node7</title>
<path fill="none" stroke="midnightblue" d="M98.97,-76.38C119.81,-65.5 149.19,-50.95 176,-40.5 182.16,-38.1 188.64,-35.79 195.17,-33.61"/>
<polygon fill="midnightblue" stroke="midnightblue" points="196.29,-36.93 204.72,-30.52 194.13,-30.27 196.29,-36.93"/>
</g>
<!-- Node5 -->
<g id="node5" class="node">
<title>Node5</title>
<g id="a_node5"><a xlink:href="classParameters.html#aacf1a423c07aa2e63d2397fe903a1388" target="_top" xlink:title="Return the parameter associated to the given name.">
<polygon fill="none" stroke="black" points="381,-52 381,-71 536,-71 536,-52 381,-52"/>
<text text-anchor="middle" x="458.5" y="-59" font-family="serif" font-size="10.00">Parameters::get_parameter</text>
</a>
</g>
</g>
<!-- Node4&#45;&gt;Node5 -->
<g id="edge4" class="edge">
<title>Node4&#45;&gt;Node5</title>
<path fill="none" stroke="midnightblue" d="M328.13,-63.48C341.79,-63.27 356.37,-63.05 370.62,-62.83"/>
<polygon fill="midnightblue" stroke="midnightblue" points="370.98,-66.32 380.93,-62.67 370.87,-59.33 370.98,-66.32"/>
</g>
<!-- Node6 -->
<g id="node6" class="node">
<title>Node6</title>
<g id="a_node6"><a xlink:href="classParameter.html#a7874e1270fe62aecf3063a4f9edecb47" target="_top" xlink:title="Return the value of the paramter.">
<polygon fill="none" stroke="black" points="396,-11 396,-30 521,-30 521,-11 396,-11"/>
<text text-anchor="middle" x="458.5" y="-18" font-family="serif" font-size="10.00">Parameter::get_value</text>
</a>
</g>
</g>
<!-- Node4&#45;&gt;Node6 -->
<g id="edge5" class="edge">
<title>Node4&#45;&gt;Node6</title>
<path fill="none" stroke="midnightblue" d="M328.13,-49.54C353.28,-43.9 381.51,-37.56 405.17,-32.25"/>
<polygon fill="midnightblue" stroke="midnightblue" points="406.02,-35.64 415.01,-30.04 404.48,-28.81 406.02,-35.64"/>
</g>
<!-- Node7&#45;&gt;Node5 -->
<g id="edge7" class="edge">
<title>Node7&#45;&gt;Node5</title>
<path fill="none" stroke="midnightblue" d="M325.68,-30.56C352.07,-36.76 382.2,-43.83 406.98,-49.64"/>
<polygon fill="midnightblue" stroke="midnightblue" points="406.36,-53.09 416.9,-51.97 407.96,-46.28 406.36,-53.09"/>
</g>
<!-- Node7&#45;&gt;Node6 -->
<g id="edge8" class="edge">
<title>Node7&#45;&gt;Node6</title>
<path fill="none" stroke="midnightblue" d="M328.13,-17.2C346.58,-17.67 366.68,-18.18 385.42,-18.66"/>
<polygon fill="midnightblue" stroke="midnightblue" points="385.59,-22.17 395.68,-18.92 385.77,-15.17 385.59,-22.17"/>
</g>
</g>
</svg>
