<?xml version="1.0" encoding="UTF-8" standalone="no"?>
<!DOCTYPE svg PUBLIC "-//W3C//DTD SVG 1.1//EN"
 "http://www.w3.org/Graphics/SVG/1.1/DTD/svg11.dtd">
<!-- Generated by graphviz version 2.43.0 (0)
 -->
<!-- Title: SolverHyprePCG Pages: 1 -->
<svg width="272pt" height="174pt"
 viewBox="0.00 0.00 271.50 174.00" xmlns="http://www.w3.org/2000/svg" xmlns:xlink="http://www.w3.org/1999/xlink">
<g id="graph0" class="graph" transform="scale(1 1) rotate(0) translate(4 170)">
<title>SolverHyprePCG</title>
<!-- Node1 -->
<g id="node1" class="node">
<title>Node1</title>
<g id="a_node1"><a xlink:title=" ">
<polygon fill="#bfbfbf" stroke="black" points="36.5,-0.5 36.5,-19.5 140.5,-19.5 140.5,-0.5 36.5,-0.5"/>
<text text-anchor="middle" x="88.5" y="-7.5" font-family="serif" font-size="10.00">SolverHyprePCG</text>
</a>
</g>
</g>
<!-- Node2 -->
<g id="node2" class="node">
<title>Node2</title>
<g id="a_node2"><a xlink:href="classSolverBase.html" target="_top" xlink:title=" ">
<polygon fill="none" stroke="black" points="0,-57.5 0,-87.5 177,-87.5 177,-57.5 0,-57.5"/>
<text text-anchor="start" x="8" y="-75.5" font-family="serif" font-size="10.00">SolverBase&lt; mfem::HyprePCG,</text>
<text text-anchor="middle" x="88.5" y="-64.5" font-family="serif" font-size="10.00"> HypreSolverType &gt;</text>
</a>
</g>
</g>
<!-- Node2&#45;&gt;Node1 -->
<g id="edge1" class="edge">
<title>Node2&#45;&gt;Node1</title>
<path fill="none" stroke="midnightblue" d="M88.5,-47.35C88.5,-37.51 88.5,-26.78 88.5,-19.54"/>
<polygon fill="midnightblue" stroke="midnightblue" points="85,-47.47 88.5,-57.47 92,-47.47 85,-47.47"/>
</g>
<!-- Node3 -->
<g id="node3" class="node">
<title>Node3</title>
<g id="a_node3"><a xlink:href="classSolverBase.html" target="_top" xlink:title=" ">
<polygon fill="none" stroke="black" points="31.5,-146.5 31.5,-165.5 145.5,-165.5 145.5,-146.5 31.5,-146.5"/>
<text text-anchor="middle" x="88.5" y="-153.5" font-family="serif" font-size="10.00">SolverBase&lt; T, S &gt;</text>
</a>
</g>
</g>
<!-- Node3&#45;&gt;Node2 -->
<g id="edge2" class="edge">
<title>Node3&#45;&gt;Node2</title>
<path fill="none" stroke="orange" stroke-dasharray="5,2" d="M88.5,-136.23C88.5,-121.41 88.5,-101.05 88.5,-87.6"/>
<polygon fill="orange" stroke="orange" points="85,-136.28 88.5,-146.28 92,-136.28 85,-136.28"/>
<text text-anchor="start" x="88.5" y="-120" font-family="serif" font-size="10.00"> &lt; mfem::HyprePCG, HypreSolver</text>
<text text-anchor="middle" x="176" y="-109" font-family="serif" font-size="10.00">Type &gt;</text>
</g>
</g>
</svg>
