<?xml version="1.0" encoding="UTF-8" standalone="no"?>
<!DOCTYPE svg PUBLIC "-//W3C//DTD SVG 1.1//EN"
 "http://www.w3.org/Graphics/SVG/1.1/DTD/svg11.dtd">
<!-- Generated by graphviz version 2.43.0 (0)
 -->
<!-- Title: PhaseFieldOperator&lt; T, DIM, NLFI, LHS_NLFI &gt; Pages: 1 -->
<svg width="1091pt" height="153pt"
 viewBox="0.00 0.00 1091.00 153.00" xmlns="http://www.w3.org/2000/svg" xmlns:xlink="http://www.w3.org/1999/xlink">
<g id="graph0" class="graph" transform="scale(1 1) rotate(0) translate(4 149)">
<title>PhaseFieldOperator&lt; T, DIM, NLFI, LHS_NLFI &gt;</title>
<!-- Node1 -->
<g id="node1" class="node">
<title>Node1</title>
<g id="a_node1"><a xlink:title="Class PhaseFieldOperator.">
<polygon fill="#bfbfbf" stroke="black" points="961,-32.5 961,-73.5 1083,-73.5 1083,-32.5 961,-32.5"/>
<text text-anchor="start" x="969" y="-61.5" font-family="serif" font-size="10.00">PhaseFieldOperator</text>
<text text-anchor="start" x="969" y="-50.5" font-family="serif" font-size="10.00">&lt; T, DIM, NLFI, LHS</text>
<text text-anchor="middle" x="1022" y="-39.5" font-family="serif" font-size="10.00">_NLFI &gt;</text>
</a>
</g>
</g>
<!-- Node2 -->
<g id="node2" class="node">
<title>Node2</title>
<g id="a_node2"><a xlink:href="classPhaseFieldOperatorBase.html" target="_top" xlink:title=" ">
<polygon fill="none" stroke="black" points="767,-32.5 767,-73.5 924,-73.5 924,-32.5 767,-32.5"/>
<text text-anchor="start" x="775" y="-61.5" font-family="serif" font-size="10.00">PhaseFieldOperatorBase</text>
<text text-anchor="start" x="775" y="-50.5" font-family="serif" font-size="10.00">&lt; T, DIM, NLFI, LHS_NLFI,</text>
<text text-anchor="middle" x="845.5" y="-39.5" font-family="serif" font-size="10.00"> TransientOperatorBase &gt;</text>
</a>
</g>
</g>
<!-- Node2&#45;&gt;Node1 -->
<g id="edge1" class="edge">
<title>Node2&#45;&gt;Node1</title>
<path fill="none" stroke="midnightblue" d="M934.25,-53C943.29,-53 952.33,-53 960.97,-53"/>
<polygon fill="midnightblue" stroke="midnightblue" points="934.05,-49.5 924.05,-53 934.05,-56.5 934.05,-49.5"/>
</g>
<!-- Node3 -->
<g id="node3" class="node">
<title>Node3</title>
<g id="a_node3"><a xlink:href="classTransientOperatorBase.html" target="_top" xlink:title="TransientOperatorBase class.">
<polygon fill="none" stroke="black" points="563,-76 563,-106 728,-106 728,-76 563,-76"/>
<text text-anchor="start" x="571" y="-94" font-family="serif" font-size="10.00">TransientOperatorBase</text>
<text text-anchor="middle" x="645.5" y="-83" font-family="serif" font-size="10.00">&lt; T, DIM, NLFI, LHS_NLFI &gt;</text>
</a>
</g>
</g>
<!-- Node3&#45;&gt;Node2 -->
<g id="edge2" class="edge">
<title>Node3&#45;&gt;Node2</title>
<path fill="none" stroke="midnightblue" d="M734.89,-74.04C745.53,-71.99 756.34,-69.92 766.81,-67.91"/>
<polygon fill="midnightblue" stroke="midnightblue" points="733.92,-70.66 724.75,-75.98 735.24,-77.53 733.92,-70.66"/>
</g>
<!-- Node4 -->
<g id="node4" class="node">
<title>Node4</title>
<g id="a_node4"><a xlink:href="classOperatorBase.html" target="_top" xlink:title="Base class for building Steady and TimeDependent PhaseFieldOperators.">
<polygon fill="none" stroke="black" points="218.5,-76 218.5,-106 353.5,-106 353.5,-76 218.5,-76"/>
<text text-anchor="start" x="226.5" y="-94" font-family="serif" font-size="10.00">OperatorBase&lt; T, DIM,</text>
<text text-anchor="middle" x="286" y="-83" font-family="serif" font-size="10.00"> NLFI, LHS_NLFI &gt;</text>
</a>
</g>
</g>
<!-- Node4&#45;&gt;Node3 -->
<g id="edge3" class="edge">
<title>Node4&#45;&gt;Node3</title>
<path fill="none" stroke="midnightblue" d="M364.14,-91C422.78,-91 503.26,-91 562.95,-91"/>
<polygon fill="midnightblue" stroke="midnightblue" points="363.82,-87.5 353.82,-91 363.82,-94.5 363.82,-87.5"/>
</g>
<!-- Node5 -->
<g id="node5" class="node">
<title>Node5</title>
<g id="a_node5"><a xlink:href="classParameter.html" target="_top" xlink:title=" ">
<polygon fill="none" stroke="black" points="2.5,-122.5 2.5,-141.5 71.5,-141.5 71.5,-122.5 2.5,-122.5"/>
<text text-anchor="middle" x="37" y="-129.5" font-family="serif" font-size="10.00">Parameter</text>
</a>
</g>
</g>
<!-- Node5&#45;&gt;Node4 -->
<g id="edge4" class="edge">
<title>Node5&#45;&gt;Node4</title>
<path fill="none" stroke="#9a32cd" stroke-dasharray="5,2" d="M81.53,-125.54C111.04,-121.08 150.91,-114.92 186,-109 196.51,-107.23 207.63,-105.28 218.47,-103.34"/>
<polygon fill="#9a32cd" stroke="#9a32cd" points="80.91,-122.09 71.54,-127.04 81.95,-129.01 80.91,-122.09"/>
<text text-anchor="middle" x="139" y="-126" font-family="serif" font-size="10.00"> default_p_</text>
</g>
<!-- Node6 -->
<g id="node6" class="node">
<title>Node6</title>
<g id="a_node6"><a xlink:href="classNLSolver.html" target="_top" xlink:title=" ">
<polygon fill="none" stroke="black" points="4.5,-84.5 4.5,-103.5 69.5,-103.5 69.5,-84.5 4.5,-84.5"/>
<text text-anchor="middle" x="37" y="-91.5" font-family="serif" font-size="10.00">NLSolver</text>
</a>
</g>
</g>
<!-- Node6&#45;&gt;Node4 -->
<g id="edge5" class="edge">
<title>Node6&#45;&gt;Node4</title>
<path fill="none" stroke="#9a32cd" stroke-dasharray="5,2" d="M79.7,-93.49C117.61,-93.03 174.19,-92.35 218.36,-91.81"/>
<polygon fill="#9a32cd" stroke="#9a32cd" points="79.49,-90 69.53,-93.62 79.58,-97 79.49,-90"/>
<text text-anchor="middle" x="139" y="-97" font-family="serif" font-size="10.00"> rhs_solver_</text>
</g>
<!-- Node7 -->
<g id="node7" class="node">
<title>Node7</title>
<g id="a_node7"><a xlink:href="classParameters.html" target="_top" xlink:title=" ">
<polygon fill="none" stroke="black" points="0,-22.5 0,-41.5 74,-41.5 74,-22.5 0,-22.5"/>
<text text-anchor="middle" x="37" y="-29.5" font-family="serif" font-size="10.00">Parameters</text>
</a>
</g>
</g>
<!-- Node7&#45;&gt;Node4 -->
<g id="edge6" class="edge">
<title>Node7&#45;&gt;Node4</title>
<path fill="none" stroke="#9a32cd" stroke-dasharray="5,2" d="M84.12,-42.84C113.33,-49.72 151.89,-58.83 186,-67 198.04,-69.88 210.9,-72.98 223.22,-75.97"/>
<polygon fill="#9a32cd" stroke="#9a32cd" points="84.74,-39.39 74.2,-40.5 83.14,-46.2 84.74,-39.39"/>
<text text-anchor="middle" x="139" y="-81" font-family="serif" font-size="10.00"> default_params_</text>
<text text-anchor="middle" x="139" y="-70" font-family="serif" font-size="10.00">params_</text>
</g>
<!-- Node9 -->
<g id="node9" class="node">
<title>Node9</title>
<g id="a_node9"><a xlink:href="classPhaseFieldOperatorBase.html" target="_top" xlink:title="Base class for AllenCahn.">
<polygon fill="none" stroke="black" points="386,-0.5 386,-41.5 543,-41.5 543,-0.5 386,-0.5"/>
<text text-anchor="start" x="394" y="-29.5" font-family="serif" font-size="10.00">PhaseFieldOperatorBase</text>
<text text-anchor="start" x="394" y="-18.5" font-family="serif" font-size="10.00">&lt; T, DIM, NLFI, LHS_NLFI,</text>
<text text-anchor="middle" x="464.5" y="-7.5" font-family="serif" font-size="10.00"> OPEBASE &gt;</text>
</a>
</g>
</g>
<!-- Node7&#45;&gt;Node9 -->
<g id="edge9" class="edge">
<title>Node7&#45;&gt;Node9</title>
<path fill="none" stroke="#9a32cd" stroke-dasharray="5,2" d="M84.47,-30.8C157,-28.92 297.92,-25.28 386,-23"/>
<polygon fill="#9a32cd" stroke="#9a32cd" points="84.18,-27.3 74.28,-31.06 84.37,-34.3 84.18,-27.3"/>
<text text-anchor="middle" x="139" y="-34" font-family="serif" font-size="10.00"> mobility_params_</text>
</g>
<!-- Node8 -->
<g id="node8" class="node">
<title>Node8</title>
<g id="a_node8"><a xlink:href="classPhaseFieldReducedOperator.html" target="_top" xlink:title=" ">
<polygon fill="none" stroke="black" points="204,-125.5 204,-144.5 368,-144.5 368,-125.5 204,-125.5"/>
<text text-anchor="middle" x="286" y="-132.5" font-family="serif" font-size="10.00">PhaseFieldReducedOperator</text>
</a>
</g>
</g>
<!-- Node8&#45;&gt;Node3 -->
<g id="edge7" class="edge">
<title>Node8&#45;&gt;Node3</title>
<path fill="none" stroke="#9a32cd" stroke-dasharray="5,2" d="M378.28,-124.76C427.17,-119.16 488.4,-111.96 543,-105 549.44,-104.18 556.11,-103.31 562.81,-102.42"/>
<polygon fill="#9a32cd" stroke="#9a32cd" points="377.59,-121.32 368.05,-125.93 378.38,-128.27 377.59,-121.32"/>
<text text-anchor="middle" x="464.5" y="-126" font-family="serif" font-size="10.00"> reduced_oper</text>
</g>
<!-- Node9&#45;&gt;Node2 -->
<g id="edge8" class="edge">
<title>Node9&#45;&gt;Node2</title>
<path fill="none" stroke="orange" stroke-dasharray="5,2" d="M553.28,-28.41C617.9,-33.87 704.94,-41.22 766.99,-46.46"/>
<polygon fill="orange" stroke="orange" points="553.37,-24.91 543.11,-27.55 552.78,-31.88 553.37,-24.91"/>
<text text-anchor="start" x="561" y="-58" font-family="serif" font-size="10.00"> &lt; T, DIM, NLFI, LHS</text>
<text text-anchor="middle" x="645.5" y="-47" font-family="serif" font-size="10.00">_NLFI, TransientOperatorBase &gt;</text>
</g>
</g>
</svg>
