<?xml version="1.0" encoding="UTF-8" standalone="no"?>
<!DOCTYPE svg PUBLIC "-//W3C//DTD SVG 1.1//EN"
 "http://www.w3.org/Graphics/SVG/1.1/DTD/svg11.dtd">
<!-- Generated by graphviz version 2.43.0 (0)
 -->
<!-- Title: Parameters::operator&#45; Pages: 1 -->
<svg width="310pt" height="66pt"
 viewBox="0.00 0.00 310.00 66.00" xmlns="http://www.w3.org/2000/svg" xmlns:xlink="http://www.w3.org/1999/xlink">
<g id="graph0" class="graph" transform="scale(1 1) rotate(0) translate(4 62)">
<title>Parameters::operator&#45;</title>
<!-- Node1 -->
<g id="node1" class="node">
<title>Node1</title>
<g id="a_node1"><a xlink:title="Remove a parameter inside a Parameters if exists.">
<polygon fill="#bfbfbf" stroke="black" points="0,-19.5 0,-38.5 128,-38.5 128,-19.5 0,-19.5"/>
<text text-anchor="middle" x="64" y="-26.5" font-family="serif" font-size="10.00">Parameters::operator&#45;</text>
</a>
</g>
</g>
<!-- Node2 -->
<g id="node2" class="node">
<title>Node2</title>
<g id="a_node2"><a xlink:href="classParameters.html#af00467aef4a7926ef1ec8cb8af35a11b" target="_top" xlink:title="Return a vector of Parameter.">
<polygon fill="none" stroke="black" points="166,-38.5 166,-57.5 300,-57.5 300,-38.5 166,-38.5"/>
<text text-anchor="middle" x="233" y="-45.5" font-family="serif" font-size="10.00">Parameters::get_vector</text>
</a>
</g>
</g>
<!-- Node1&#45;&gt;Node2 -->
<g id="edge1" class="edge">
<title>Node1&#45;&gt;Node2</title>
<path fill="none" stroke="midnightblue" d="M128.14,-36.18C137.22,-37.22 146.66,-38.29 155.96,-39.35"/>
<polygon fill="midnightblue" stroke="midnightblue" points="155.66,-42.84 165.99,-40.49 156.45,-35.88 155.66,-42.84"/>
</g>
<!-- Node3 -->
<g id="node3" class="node">
<title>Node3</title>
<g id="a_node3"><a xlink:href="classParameters.html#ab225509d2205e6fb8a8a5a2b2ed47baf" target="_top" xlink:title="Construct a new Parameters:: Parameters object.">
<polygon fill="none" stroke="black" points="164,-0.5 164,-19.5 302,-19.5 302,-0.5 164,-0.5"/>
<text text-anchor="middle" x="233" y="-7.5" font-family="serif" font-size="10.00">Parameters::Parameters</text>
</a>
</g>
</g>
<!-- Node1&#45;&gt;Node3 -->
<g id="edge2" class="edge">
<title>Node1&#45;&gt;Node3</title>
<path fill="none" stroke="midnightblue" d="M128.14,-21.82C136.5,-20.87 145.16,-19.88 153.74,-18.9"/>
<polygon fill="midnightblue" stroke="midnightblue" points="154.21,-22.37 163.75,-17.76 153.42,-15.42 154.21,-22.37"/>
</g>
</g>
</svg>
