<?xml version="1.0" encoding="UTF-8" standalone="no"?>
<!DOCTYPE svg PUBLIC "-//W3C//DTD SVG 1.1//EN"
 "http://www.w3.org/Graphics/SVG/1.1/DTD/svg11.dtd">
<!-- Generated by graphviz version 2.43.0 (0)
 -->
<!-- Title: AllenCahnMeltingBaseNLFormIntegrator&lt; VARS, SCHEME, ENERGY, MOBI, INTERPOLATION &gt; Pages: 1 -->
<svg width="216pt" height="264pt"
 viewBox="0.00 0.00 216.00 264.00" xmlns="http://www.w3.org/2000/svg" xmlns:xlink="http://www.w3.org/1999/xlink">
<g id="graph0" class="graph" transform="scale(1 1) rotate(0) translate(4 260)">
<title>AllenCahnMeltingBaseNLFormIntegrator&lt; VARS, SCHEME, ENERGY, MOBI, INTERPOLATION &gt;</title>
<!-- Node1 -->
<g id="node1" class="node">
<title>Node1</title>
<g id="a_node1"><a xlink:title=" ">
<polygon fill="#bfbfbf" stroke="black" points="0,-0.5 0,-41.5 208,-41.5 208,-0.5 0,-0.5"/>
<text text-anchor="start" x="8" y="-29.5" font-family="serif" font-size="10.00">AllenCahnMeltingBaseNLForm</text>
<text text-anchor="start" x="8" y="-18.5" font-family="serif" font-size="10.00">Integrator&lt; VARS, SCHEME,</text>
<text text-anchor="middle" x="104" y="-7.5" font-family="serif" font-size="10.00"> ENERGY, MOBI, INTERPOLATION &gt;</text>
</a>
</g>
</g>
<!-- Node2 -->
<g id="node2" class="node">
<title>Node2</title>
<g id="a_node2"><a xlink:href="classAllenCahnNLFormIntegrator.html" target="_top" xlink:title="Class dedicated to the FV of the Allen Cahn equation.">
<polygon fill="none" stroke="black" points="22,-79.5 22,-120.5 186,-120.5 186,-79.5 22,-79.5"/>
<text text-anchor="start" x="30" y="-108.5" font-family="serif" font-size="10.00">AllenCahnNLFormIntegrator</text>
<text text-anchor="start" x="30" y="-97.5" font-family="serif" font-size="10.00">&lt; VARS, SCHEME, ENERGY,</text>
<text text-anchor="middle" x="104" y="-86.5" font-family="serif" font-size="10.00"> MOBI &gt;</text>
</a>
</g>
</g>
<!-- Node2&#45;&gt;Node1 -->
<g id="edge1" class="edge">
<title>Node2&#45;&gt;Node1</title>
<path fill="none" stroke="midnightblue" d="M104,-68.91C104,-59.79 104,-50.02 104,-41.76"/>
<polygon fill="midnightblue" stroke="midnightblue" points="100.5,-69.17 104,-79.17 107.5,-69.17 100.5,-69.17"/>
</g>
<!-- Node3 -->
<g id="node3" class="node">
<title>Node3</title>
<g id="a_node3"><a xlink:href="classSlothNLFormIntegrator.html" target="_top" xlink:title="Class prodiving common methods to all NLFormIntegrators.">
<polygon fill="none" stroke="black" points="35.5,-158.5 35.5,-188.5 172.5,-188.5 172.5,-158.5 35.5,-158.5"/>
<text text-anchor="start" x="43.5" y="-176.5" font-family="serif" font-size="10.00">SlothNLFormIntegrator</text>
<text text-anchor="middle" x="104" y="-165.5" font-family="serif" font-size="10.00">&lt; VARS &gt;</text>
</a>
</g>
</g>
<!-- Node3&#45;&gt;Node2 -->
<g id="edge2" class="edge">
<title>Node3&#45;&gt;Node2</title>
<path fill="none" stroke="midnightblue" d="M104,-148.1C104,-139.1 104,-129.02 104,-120.51"/>
<polygon fill="midnightblue" stroke="midnightblue" points="100.5,-148.37 104,-158.37 107.5,-148.37 100.5,-148.37"/>
</g>
<!-- Node4 -->
<g id="node4" class="node">
<title>Node4</title>
<g id="a_node4"><a xlink:href="classParameters.html" target="_top" xlink:title=" ">
<polygon fill="none" stroke="black" points="67,-236.5 67,-255.5 141,-255.5 141,-236.5 67,-236.5"/>
<text text-anchor="middle" x="104" y="-243.5" font-family="serif" font-size="10.00">Parameters</text>
</a>
</g>
</g>
<!-- Node4&#45;&gt;Node3 -->
<g id="edge3" class="edge">
<title>Node4&#45;&gt;Node3</title>
<path fill="none" stroke="#9a32cd" stroke-dasharray="5,2" d="M104,-226.24C104,-214.41 104,-199.38 104,-188.58"/>
<polygon fill="#9a32cd" stroke="#9a32cd" points="100.5,-226.36 104,-236.36 107.5,-226.36 100.5,-226.36"/>
<text text-anchor="middle" x="127.5" y="-210" font-family="serif" font-size="10.00"> params_</text>
</g>
</g>
</svg>
