<?xml version="1.0" encoding="UTF-8" standalone="no"?>
<!DOCTYPE svg PUBLIC "-//W3C//DTD SVG 1.1//EN"
 "http://www.w3.org/Graphics/SVG/1.1/DTD/svg11.dtd">
<!-- Generated by graphviz version 2.43.0 (0)
 -->
<!-- Title: Parameters::Parameters Pages: 1 -->
<svg width="314pt" height="66pt"
 viewBox="0.00 0.00 314.00 66.00" xmlns="http://www.w3.org/2000/svg" xmlns:xlink="http://www.w3.org/1999/xlink">
<g id="graph0" class="graph" transform="scale(1 1) rotate(0) translate(4 62)">
<title>Parameters::Parameters</title>
<!-- Node1 -->
<g id="node1" class="node">
<title>Node1</title>
<g id="a_node1"><a xlink:title="Construct a new Parameters:: Parameters object.">
<polygon fill="#bfbfbf" stroke="black" points="168,-19.5 168,-38.5 306,-38.5 306,-19.5 168,-19.5"/>
<text text-anchor="middle" x="237" y="-26.5" font-family="serif" font-size="10.00">Parameters::Parameters</text>
</a>
</g>
</g>
<!-- Node2 -->
<g id="node2" class="node">
<title>Node2</title>
<g id="a_node2"><a xlink:href="classParameters.html#acbdca27088ed24bd41b70c7773e44050" target="_top" xlink:title="Add two Parameters with a priority given to the second Parameters to overwrite Parameter objets in th...">
<polygon fill="none" stroke="black" points="0,-38.5 0,-57.5 132,-57.5 132,-38.5 0,-38.5"/>
<text text-anchor="middle" x="66" y="-45.5" font-family="serif" font-size="10.00">Parameters::operator+</text>
</a>
</g>
</g>
<!-- Node1&#45;&gt;Node2 -->
<g id="edge1" class="edge">
<title>Node1&#45;&gt;Node2</title>
<path fill="none" stroke="midnightblue" d="M157.77,-37.79C149.22,-38.76 140.59,-39.73 132.22,-40.67"/>
<polygon fill="midnightblue" stroke="midnightblue" points="158.2,-41.27 167.75,-36.67 157.42,-34.31 158.2,-41.27"/>
</g>
<!-- Node3 -->
<g id="node3" class="node">
<title>Node3</title>
<g id="a_node3"><a xlink:href="classParameters.html#ac6fe41c4d864f6e68216e9cd62506c70" target="_top" xlink:title="Remove a parameter inside a Parameters if exists.">
<polygon fill="none" stroke="black" points="2,-0.5 2,-19.5 130,-19.5 130,-0.5 2,-0.5"/>
<text text-anchor="middle" x="66" y="-7.5" font-family="serif" font-size="10.00">Parameters::operator&#45;</text>
</a>
</g>
</g>
<!-- Node1&#45;&gt;Node3 -->
<g id="edge2" class="edge">
<title>Node1&#45;&gt;Node3</title>
<path fill="none" stroke="midnightblue" d="M157.74,-20.2C148.46,-19.16 139.07,-18.1 130.04,-17.09"/>
<polygon fill="midnightblue" stroke="midnightblue" points="157.42,-23.69 167.75,-21.33 158.2,-16.73 157.42,-23.69"/>
</g>
</g>
</svg>
