<?xml version="1.0" encoding="UTF-8" standalone="no"?>
<!DOCTYPE svg PUBLIC "-//W3C//DTD SVG 1.1//EN"
 "http://www.w3.org/Graphics/SVG/1.1/DTD/svg11.dtd">
<!-- Generated by graphviz version 2.43.0 (0)
 -->
<!-- Title: Variables::get_variables_number Pages: 1 -->
<svg width="489pt" height="88pt"
 viewBox="0.00 0.00 489.00 88.00" xmlns="http://www.w3.org/2000/svg" xmlns:xlink="http://www.w3.org/1999/xlink">
<g id="graph0" class="graph" transform="scale(1 1) rotate(0) translate(4 84)">
<title>Variables::get_variables_number</title>
<!-- Node1 -->
<g id="node1" class="node">
<title>Node1</title>
<g id="a_node1"><a xlink:title="Return the number of variables.">
<polygon fill="#bfbfbf" stroke="black" points="344,-24.5 344,-54.5 481,-54.5 481,-24.5 344,-24.5"/>
<text text-anchor="start" x="352" y="-42.5" font-family="serif" font-size="10.00">Variables::get_variables</text>
<text text-anchor="middle" x="412.5" y="-31.5" font-family="serif" font-size="10.00">_number</text>
</a>
</g>
</g>
<!-- Node2 -->
<g id="node2" class="node">
<title>Node2</title>
<g id="a_node2"><a xlink:href="classOperatorBase.html#ab610e1c53fc27ec56ecab45c226be49c" target="_top" xlink:title="Initialization stage (call by imeDiscretization&lt;PST, OPE, VAR&gt;::initialize())">
<polygon fill="none" stroke="black" points="172,-30 172,-49 308,-49 308,-30 172,-30"/>
<text text-anchor="middle" x="240" y="-37" font-family="serif" font-size="10.00">OperatorBase::initialize</text>
</a>
</g>
</g>
<!-- Node1&#45;&gt;Node2 -->
<g id="edge1" class="edge">
<title>Node1&#45;&gt;Node2</title>
<path fill="none" stroke="midnightblue" d="M333.39,-39.5C324.93,-39.5 316.39,-39.5 308.09,-39.5"/>
<polygon fill="midnightblue" stroke="midnightblue" points="333.62,-43 343.62,-39.5 333.62,-36 333.62,-43"/>
</g>
<!-- Node3 -->
<g id="node3" class="node">
<title>Node3</title>
<g id="a_node3"><a xlink:href="classSteadyOperatorBase.html#a73bf80a16acb0b54cdd94a91ed1bd6c4" target="_top" xlink:title="Initialization stage (call by imeDiscretization&lt;PST, OPE, VAR&gt;::initialize())">
<polygon fill="none" stroke="black" points="7,-49.5 7,-79.5 129,-79.5 129,-49.5 7,-49.5"/>
<text text-anchor="start" x="15" y="-67.5" font-family="serif" font-size="10.00">SteadyOperatorBase</text>
<text text-anchor="middle" x="68" y="-56.5" font-family="serif" font-size="10.00">::initialize</text>
</a>
</g>
</g>
<!-- Node2&#45;&gt;Node3 -->
<g id="edge2" class="edge">
<title>Node2&#45;&gt;Node3</title>
<path fill="none" stroke="midnightblue" d="M164.06,-50.52C152.36,-52.24 140.41,-54 129.1,-55.66"/>
<polygon fill="midnightblue" stroke="midnightblue" points="164.86,-53.94 174.25,-49.02 163.84,-47.02 164.86,-53.94"/>
</g>
<!-- Node4 -->
<g id="node4" class="node">
<title>Node4</title>
<g id="a_node4"><a xlink:href="classTransientOperatorBase.html#a3cf55d9efdfe06f6f5bd29b282b6b34b" target="_top" xlink:title="Initialization stage (call by imeDiscretization&lt;PST, OPE, VAR&gt;::initialize())">
<polygon fill="none" stroke="black" points="0,-0.5 0,-30.5 136,-30.5 136,-0.5 0,-0.5"/>
<text text-anchor="start" x="8" y="-18.5" font-family="serif" font-size="10.00">TransientOperatorBase</text>
<text text-anchor="middle" x="68" y="-7.5" font-family="serif" font-size="10.00">::initialize</text>
</a>
</g>
</g>
<!-- Node2&#45;&gt;Node4 -->
<g id="edge3" class="edge">
<title>Node2&#45;&gt;Node4</title>
<path fill="none" stroke="midnightblue" d="M161.85,-28.61C153.31,-27.4 144.66,-26.18 136.26,-25"/>
<polygon fill="midnightblue" stroke="midnightblue" points="161.42,-32.08 171.81,-30.01 162.4,-25.15 161.42,-32.08"/>
</g>
</g>
</svg>
