<?xml version="1.0" encoding="UTF-8" standalone="no"?>
<!DOCTYPE svg PUBLIC "-//W3C//DTD SVG 1.1//EN"
 "http://www.w3.org/Graphics/SVG/1.1/DTD/svg11.dtd">
<!-- Generated by graphviz version 2.43.0 (0)
 -->
<!-- Title: SteadyDiffusionOperator&lt; T, DIM, NLFI, LHS_NLFI &gt; Pages: 1 -->
<!--zoomable 110 -->
<svg id="main" version="1.1" xmlns="http://www.w3.org/2000/svg" xmlns:xlink="http://www.w3.org/1999/xlink" xml:space="preserve" onload="init(evt)">
<style type="text/css"><![CDATA[
.edge:hover path { stroke: red; }
.edge:hover polygon { stroke: red; fill: red; }
]]></style>
<script type="text/javascript"><![CDATA[
var edges = document.getElementsByTagName('g');
if (edges && edges.length) {
  for (var i=0;i<edges.length;i++) {
    if (edges[i].id.substr(0,4)=='edge') {
      edges[i].setAttribute('class','edge');
    }
  }
}
]]></script>
        <defs>
                <circle id="rim" cx="0" cy="0" r="7"/>
                <circle id="rim2" cx="0" cy="0" r="3.5"/>
                <g id="zoomPlus">
                        <use xlink:href="#rim" fill="#404040">
                                <set attributeName="fill" to="#808080" begin="zoomplus.mouseover" end="zoomplus.mouseout"/>
                        </use>
                        <path d="M-4,0h8M0,-4v8" fill="none" stroke="white" stroke-width="1.5" pointer-events="none"/>
                </g>
                <g id="zoomMin">
                        <use xlink:href="#rim" fill="#404040">
                                <set attributeName="fill" to="#808080" begin="zoomminus.mouseover" end="zoomminus.mouseout"/>
                        </use>
                        <path d="M-4,0h8" fill="none" stroke="white" stroke-width="1.5" pointer-events="none"/>
                </g>
                <g id="dirArrow">
                        <path fill="none" stroke="white" stroke-width="1.5" d="M0,-3.0v7 M-2.5,-0.5L0,-3.0L2.5,-0.5"/>
                </g>
               <g id="resetDef">
                       <use xlink:href="#rim2" fill="#404040">
                               <set attributeName="fill" to="#808080" begin="reset.mouseover" end="reset.mouseout"/>
                       </use>
               </g>
        </defs>

<script type="text/javascript">
var viewWidth = 923;
var viewHeight = 110;
var sectionId = 'dynsection-0';
</script>
<script xlink:href="svgpan.js"/>
<svg id="graph" class="graph">
<g id="viewport">
<title>SteadyDiffusionOperator&lt; T, DIM, NLFI, LHS_NLFI &gt;</title>
<!-- Node1 -->
<g id="node1" class="node">
<title>Node1</title>
<g id="a_node1"><a xlink:title="Class SteadyDiffusionOperator.">
<polygon fill="#bfbfbf" stroke="black" points="750,-30 750,-60 915,-60 915,-30 750,-30"/>
<text text-anchor="start" x="758" y="-48" font-family="serif" font-size="10.00">SteadyDiffusionOperator</text>
<text text-anchor="middle" x="832.5" y="-37" font-family="serif" font-size="10.00">&lt; T, DIM, NLFI, LHS_NLFI &gt;</text>
</a>
</g>
</g>
<!-- Node2 -->
<g id="node2" class="node">
<title>Node2</title>
<g id="a_node2"><a xlink:href="classDiffusionOperatorBase.html" target="_top" xlink:title=" ">
<polygon fill="none" stroke="black" points="531,-19 531,-71 713,-71 713,-19 531,-19"/>
<text text-anchor="start" x="539" y="-59" font-family="serif" font-size="10.00">DiffusionOperatorBase</text>
<text text-anchor="start" x="539" y="-48" font-family="serif" font-size="10.00">&lt; T, DIM, NLFI, mfem</text>
<text text-anchor="start" x="539" y="-37" font-family="serif" font-size="10.00">::BlockNonlinearFormIntegrator,</text>
<text text-anchor="middle" x="622" y="-26" font-family="serif" font-size="10.00"> SteadyOperatorBase &gt;</text>
</a>
</g>
</g>
<!-- Node2&#45;&gt;Node1 -->
<g id="edge1" class="edge">
<title>Node2&#45;&gt;Node1</title>
<path fill="none" stroke="midnightblue" d="M723.3,-45C732.25,-45 741.23,-45 749.98,-45"/>
<polygon fill="midnightblue" stroke="midnightblue" points="723.24,-41.5 713.24,-45 723.24,-48.5 723.24,-41.5"/>
</g>
<!-- Node3 -->
<g id="node3" class="node">
<title>Node3</title>
<g id="a_node3"><a xlink:href="classSteadyOperatorBase.html" target="_top" xlink:title="SteadyOperatorBase class.">
<polygon fill="none" stroke="black" points="189.5,-60.5 189.5,-101.5 311.5,-101.5 311.5,-60.5 189.5,-60.5"/>
<text text-anchor="start" x="197.5" y="-89.5" font-family="serif" font-size="10.00">SteadyOperatorBase</text>
<text text-anchor="start" x="197.5" y="-78.5" font-family="serif" font-size="10.00">&lt; T, DIM, NLFI, LHS</text>
<text text-anchor="middle" x="250.5" y="-67.5" font-family="serif" font-size="10.00">_NLFI &gt;</text>
</a>
</g>
</g>
<!-- Node3&#45;&gt;Node2 -->
<g id="edge2" class="edge">
<title>Node3&#45;&gt;Node2</title>
<path fill="none" stroke="midnightblue" d="M321.84,-76.97C374.56,-73.63 448.42,-68.24 513,-61 518.84,-60.34 524.85,-59.61 530.9,-58.84"/>
<polygon fill="midnightblue" stroke="midnightblue" points="321.35,-73.5 311.59,-77.62 321.79,-80.48 321.35,-73.5"/>
</g>
<!-- Node4 -->
<g id="node4" class="node">
<title>Node4</title>
<g id="a_node4"><a xlink:href="classOperatorBase.html" target="_top" xlink:title="Base class for building Steady and TimeDependent PhaseFieldOperators.">
<polygon fill="none" stroke="black" points="0,-66 0,-96 135,-96 135,-66 0,-66"/>
<text text-anchor="start" x="8" y="-84" font-family="serif" font-size="10.00">OperatorBase&lt; T, DIM,</text>
<text text-anchor="middle" x="67.5" y="-73" font-family="serif" font-size="10.00"> NLFI, LHS_NLFI &gt;</text>
</a>
</g>
</g>
<!-- Node4&#45;&gt;Node3 -->
<g id="edge3" class="edge">
<title>Node4&#45;&gt;Node3</title>
<path fill="none" stroke="midnightblue" d="M145.22,-81C159.96,-81 175.18,-81 189.3,-81"/>
<polygon fill="midnightblue" stroke="midnightblue" points="145.13,-77.5 135.13,-81 145.13,-84.5 145.13,-77.5"/>
</g>
<!-- Node5 -->
<g id="node5" class="node">
<title>Node5</title>
<g id="a_node5"><a xlink:href="classDiffusionOperatorBase.html" target="_top" xlink:title="Base class for Mass Diffusion.">
<polygon fill="none" stroke="black" points="172,-0.5 172,-41.5 329,-41.5 329,-0.5 172,-0.5"/>
<text text-anchor="start" x="180" y="-29.5" font-family="serif" font-size="10.00">DiffusionOperatorBase</text>
<text text-anchor="start" x="180" y="-18.5" font-family="serif" font-size="10.00">&lt; T, DIM, NLFI, LHS_NLFI,</text>
<text text-anchor="middle" x="250.5" y="-7.5" font-family="serif" font-size="10.00"> OPEBASE &gt;</text>
</a>
</g>
</g>
<!-- Node5&#45;&gt;Node2 -->
<g id="edge4" class="edge">
<title>Node5&#45;&gt;Node2</title>
<path fill="none" stroke="orange" stroke-dasharray="5,2" d="M339.47,-20.52C390.28,-20.96 455.35,-22.71 513,-28 518.86,-28.54 524.88,-29.19 530.95,-29.93"/>
<polygon fill="orange" stroke="orange" points="339.2,-17.02 329.18,-20.45 339.15,-24.02 339.2,-17.02"/>
<text text-anchor="start" x="347" y="-53" font-family="serif" font-size="10.00"> &lt; T, DIM, NLFI, mfem</text>
<text text-anchor="start" x="347" y="-42" font-family="serif" font-size="10.00">::BlockNonlinearFormIntegrator,</text>
<text text-anchor="middle" x="430" y="-31" font-family="serif" font-size="10.00"> SteadyOperatorBase &gt;</text>
</g>
</g>
</svg>
        <g id="navigator" transform="translate(0 0)" fill="#404254">
                <rect fill="#f2f5e9" fill-opacity="0.5" stroke="#606060" stroke-width=".5" x="0" y="0" width="60" height="60"/>
                <use id="zoomplus" xlink:href="#zoomPlus" x="17" y="9" onmousedown="handleZoom(evt,'in')"/>
                <use id="zoomminus" xlink:href="#zoomMin" x="42" y="9" onmousedown="handleZoom(evt,'out')"/>
                <use id="reset" xlink:href="#resetDef" x="30" y="36" onmousedown="handleReset()"/>
                <g id="arrowUp" xlink:href="#dirArrow" transform="translate(30 24)" onmousedown="handlePan(0,-1)">
                  <use xlink:href="#rim" fill="#404040">
                        <set attributeName="fill" to="#808080" begin="arrowUp.mouseover" end="arrowUp.mouseout"/>
                  </use>
                  <path fill="none" stroke="white" stroke-width="1.5" d="M0,-3.0v7 M-2.5,-0.5L0,-3.0L2.5,-0.5"/>
                </g>
                <g id="arrowRight" xlink:href="#dirArrow" transform="rotate(90) translate(36 -43)" onmousedown="handlePan(1,0)">
                  <use xlink:href="#rim" fill="#404040">
                        <set attributeName="fill" to="#808080" begin="arrowRight.mouseover" end="arrowRight.mouseout"/>
                  </use>
                  <path fill="none" stroke="white" stroke-width="1.5" d="M0,-3.0v7 M-2.5,-0.5L0,-3.0L2.5,-0.5"/>
                </g>
                <g id="arrowDown" xlink:href="#dirArrow" transform="rotate(180) translate(-30 -48)" onmousedown="handlePan(0,1)">
                  <use xlink:href="#rim" fill="#404040">
                        <set attributeName="fill" to="#808080" begin="arrowDown.mouseover" end="arrowDown.mouseout"/>
                  </use>
                  <path fill="none" stroke="white" stroke-width="1.5" d="M0,-3.0v7 M-2.5,-0.5L0,-3.0L2.5,-0.5"/>
                </g>
                <g id="arrowLeft" xlink:href="#dirArrow" transform="rotate(270) translate(-36 17)" onmousedown="handlePan(-1,0)">
                  <use xlink:href="#rim" fill="#404040">
                        <set attributeName="fill" to="#808080" begin="arrowLeft.mouseover" end="arrowLeft.mouseout"/>
                  </use>
                  <path fill="none" stroke="white" stroke-width="1.5" d="M0,-3.0v7 M-2.5,-0.5L0,-3.0L2.5,-0.5"/>
                </g>
        </g>
        <svg viewBox="0 0 15 15" width="100%" height="30px" preserveAspectRatio="xMaxYMin meet">
         <g id="arrow_out" transform="scale(0.3 0.3)">
          <a xlink:href="classSteadyDiffusionOperator__inherit__graph_org.svg" target="_base">
           <rect id="button" ry="5" rx="5" y="6" x="6" height="38" width="38"
                fill="#f2f5e9" fill-opacity="0.5" stroke="#606060" stroke-width="1.0"/>
           <path id="arrow"
             d="M 11.500037,31.436501 C 11.940474,20.09759 22.043105,11.32322 32.158766,21.979434 L 37.068811,17.246167 C 37.068811,17.246167 37.088388,32 37.088388,32 L 22.160133,31.978069 C 22.160133,31.978069 26.997745,27.140456 26.997745,27.140456 C 18.528582,18.264221 13.291696,25.230495 11.500037,31.436501 z"
             style="fill:#404040;"/>
          </a>
         </g>
        </svg>
</svg>
