<?xml version="1.0" encoding="UTF-8" standalone="no"?>
<!DOCTYPE svg PUBLIC "-//W3C//DTD SVG 1.1//EN"
 "http://www.w3.org/Graphics/SVG/1.1/DTD/svg11.dtd">
<!-- Generated by graphviz version 2.43.0 (0)
 -->
<!-- Title: Parameters::operator+ Pages: 1 -->
<svg width="314pt" height="66pt"
 viewBox="0.00 0.00 314.00 66.00" xmlns="http://www.w3.org/2000/svg" xmlns:xlink="http://www.w3.org/1999/xlink">
<g id="graph0" class="graph" transform="scale(1 1) rotate(0) translate(4 62)">
<title>Parameters::operator+</title>
<!-- Node1 -->
<g id="node1" class="node">
<title>Node1</title>
<g id="a_node1"><a xlink:title="Add a parameter inside a Parameters. If param already exists, the given parameters overwrites the exi...">
<polygon fill="#bfbfbf" stroke="black" points="0,-19.5 0,-38.5 132,-38.5 132,-19.5 0,-19.5"/>
<text text-anchor="middle" x="66" y="-26.5" font-family="serif" font-size="10.00">Parameters::operator+</text>
</a>
</g>
</g>
<!-- Node2 -->
<g id="node2" class="node">
<title>Node2</title>
<g id="a_node2"><a xlink:href="classParameters.html#af00467aef4a7926ef1ec8cb8af35a11b" target="_top" xlink:title="Return a vector of Parameter.">
<polygon fill="none" stroke="black" points="170,-38.5 170,-57.5 304,-57.5 304,-38.5 170,-38.5"/>
<text text-anchor="middle" x="237" y="-45.5" font-family="serif" font-size="10.00">Parameters::get_vector</text>
</a>
</g>
</g>
<!-- Node1&#45;&gt;Node2 -->
<g id="edge1" class="edge">
<title>Node1&#45;&gt;Node2</title>
<path fill="none" stroke="midnightblue" d="M132.34,-36.35C141.41,-37.37 150.8,-38.42 160.04,-39.46"/>
<polygon fill="midnightblue" stroke="midnightblue" points="159.67,-42.94 170,-40.58 160.45,-35.98 159.67,-42.94"/>
</g>
<!-- Node3 -->
<g id="node3" class="node">
<title>Node3</title>
<g id="a_node3"><a xlink:href="classParameters.html#ab225509d2205e6fb8a8a5a2b2ed47baf" target="_top" xlink:title="Construct a new Parameters:: Parameters object.">
<polygon fill="none" stroke="black" points="168,-0.5 168,-19.5 306,-19.5 306,-0.5 168,-0.5"/>
<text text-anchor="middle" x="237" y="-7.5" font-family="serif" font-size="10.00">Parameters::Parameters</text>
</a>
</g>
</g>
<!-- Node1&#45;&gt;Node3 -->
<g id="edge2" class="edge">
<title>Node1&#45;&gt;Node3</title>
<path fill="none" stroke="midnightblue" d="M132.34,-21.65C140.68,-20.72 149.29,-19.75 157.82,-18.79"/>
<polygon fill="midnightblue" stroke="midnightblue" points="158.21,-22.27 167.76,-17.67 157.43,-15.31 158.21,-22.27"/>
</g>
</g>
</svg>
