<?xml version="1.0" encoding="UTF-8" standalone="no"?>
<!DOCTYPE svg PUBLIC "-//W3C//DTD SVG 1.1//EN"
 "http://www.w3.org/Graphics/SVG/1.1/DTD/svg11.dtd">
<!-- Generated by graphviz version 2.43.0 (0)
 -->
<!-- Title: AllenCahnNLFormIntegrator&lt; VARS, SCHEME, ENERGY, MOBI &gt; Pages: 1 -->
<svg width="172pt" height="185pt"
 viewBox="0.00 0.00 172.00 185.00" xmlns="http://www.w3.org/2000/svg" xmlns:xlink="http://www.w3.org/1999/xlink">
<g id="graph0" class="graph" transform="scale(1 1) rotate(0) translate(4 181)">
<title>AllenCahnNLFormIntegrator&lt; VARS, SCHEME, ENERGY, MOBI &gt;</title>
<!-- Node1 -->
<g id="node1" class="node">
<title>Node1</title>
<g id="a_node1"><a xlink:title="Class dedicated to the FV of the Allen Cahn equation.">
<polygon fill="#bfbfbf" stroke="black" points="0,-0.5 0,-41.5 164,-41.5 164,-0.5 0,-0.5"/>
<text text-anchor="start" x="8" y="-29.5" font-family="serif" font-size="10.00">AllenCahnNLFormIntegrator</text>
<text text-anchor="start" x="8" y="-18.5" font-family="serif" font-size="10.00">&lt; VARS, SCHEME, ENERGY,</text>
<text text-anchor="middle" x="82" y="-7.5" font-family="serif" font-size="10.00"> MOBI &gt;</text>
</a>
</g>
</g>
<!-- Node2 -->
<g id="node2" class="node">
<title>Node2</title>
<g id="a_node2"><a xlink:href="classSlothNLFormIntegrator.html" target="_top" xlink:title="Class prodiving common methods to all NLFormIntegrators.">
<polygon fill="none" stroke="black" points="13.5,-79.5 13.5,-109.5 150.5,-109.5 150.5,-79.5 13.5,-79.5"/>
<text text-anchor="start" x="21.5" y="-97.5" font-family="serif" font-size="10.00">SlothNLFormIntegrator</text>
<text text-anchor="middle" x="82" y="-86.5" font-family="serif" font-size="10.00">&lt; VARS &gt;</text>
</a>
</g>
</g>
<!-- Node2&#45;&gt;Node1 -->
<g id="edge1" class="edge">
<title>Node2&#45;&gt;Node1</title>
<path fill="none" stroke="midnightblue" d="M82,-69.1C82,-60.1 82,-50.02 82,-41.51"/>
<polygon fill="midnightblue" stroke="midnightblue" points="78.5,-69.37 82,-79.37 85.5,-69.37 78.5,-69.37"/>
</g>
<!-- Node3 -->
<g id="node3" class="node">
<title>Node3</title>
<g id="a_node3"><a xlink:href="classParameters.html" target="_top" xlink:title=" ">
<polygon fill="none" stroke="black" points="45,-157.5 45,-176.5 119,-176.5 119,-157.5 45,-157.5"/>
<text text-anchor="middle" x="82" y="-164.5" font-family="serif" font-size="10.00">Parameters</text>
</a>
</g>
</g>
<!-- Node3&#45;&gt;Node2 -->
<g id="edge2" class="edge">
<title>Node3&#45;&gt;Node2</title>
<path fill="none" stroke="#9a32cd" stroke-dasharray="5,2" d="M82,-147.24C82,-135.41 82,-120.38 82,-109.58"/>
<polygon fill="#9a32cd" stroke="#9a32cd" points="78.5,-147.36 82,-157.36 85.5,-147.36 78.5,-147.36"/>
<text text-anchor="middle" x="105.5" y="-131" font-family="serif" font-size="10.00"> params_</text>
</g>
</g>
</svg>
