<?xml version="1.0" encoding="UTF-8" standalone="no"?>
<!DOCTYPE svg PUBLIC "-//W3C//DTD SVG 1.1//EN"
 "http://www.w3.org/Graphics/SVG/1.1/DTD/svg11.dtd">
<!-- Generated by graphviz version 2.43.0 (0)
 -->
<!-- Title: CalphadInformedNeuralNetwork::get_parameters Pages: 1 -->
<svg width="399pt" height="66pt"
 viewBox="0.00 0.00 399.00 66.00" xmlns="http://www.w3.org/2000/svg" xmlns:xlink="http://www.w3.org/1999/xlink">
<g id="graph0" class="graph" transform="scale(1 1) rotate(0) translate(4 62)">
<title>CalphadInformedNeuralNetwork::get_parameters</title>
<!-- Node1 -->
<g id="node1" class="node">
<title>Node1</title>
<g id="a_node1"><a xlink:title="Get the parameters associated with the CalphadInformedNeuralNetwork object.">
<polygon fill="#bfbfbf" stroke="black" points="0,-14 0,-44 185,-44 185,-14 0,-14"/>
<text text-anchor="start" x="8" y="-32" font-family="serif" font-size="10.00">CalphadInformedNeuralNetwork</text>
<text text-anchor="middle" x="92.5" y="-21" font-family="serif" font-size="10.00">::get_parameters</text>
</a>
</g>
</g>
<!-- Node2 -->
<g id="node2" class="node">
<title>Node2</title>
<g id="a_node2"><a xlink:href="UtilsForData_8hpp.html#a00c16f753cc7812a3a97fb5a5ddd11d2" target="_top" xlink:title="Check existence of a file.">
<polygon fill="none" stroke="black" points="246,-38.5 246,-57.5 366,-57.5 366,-38.5 246,-38.5"/>
<text text-anchor="middle" x="306" y="-45.5" font-family="serif" font-size="10.00">check_file_existence</text>
</a>
</g>
</g>
<!-- Node1&#45;&gt;Node2 -->
<g id="edge1" class="edge">
<title>Node1&#45;&gt;Node2</title>
<path fill="none" stroke="midnightblue" d="M185.04,-37.22C201.98,-38.75 219.42,-40.31 235.57,-41.76"/>
<polygon fill="midnightblue" stroke="midnightblue" points="235.71,-45.29 245.98,-42.7 236.33,-38.32 235.71,-45.29"/>
</g>
<!-- Node3 -->
<g id="node3" class="node">
<title>Node3</title>
<g id="a_node3"><a xlink:href="classCalphadBase.html#acf1e5755a33921216777fbd78558a051" target="_top" xlink:title="Get Calphad parameters.">
<polygon fill="none" stroke="black" points="221,-0.5 221,-19.5 391,-19.5 391,-0.5 221,-0.5"/>
<text text-anchor="middle" x="306" y="-7.5" font-family="serif" font-size="10.00">CalphadBase::get_parameters</text>
</a>
</g>
</g>
<!-- Node1&#45;&gt;Node3 -->
<g id="edge2" class="edge">
<title>Node1&#45;&gt;Node3</title>
<path fill="none" stroke="midnightblue" d="M185.04,-20.78C193.62,-20.01 202.34,-19.22 210.94,-18.45"/>
<polygon fill="midnightblue" stroke="midnightblue" points="211.34,-21.93 220.99,-17.55 210.72,-14.96 211.34,-21.93"/>
</g>
</g>
</svg>
