<?xml version="1.0" encoding="UTF-8" standalone="no"?>
<!DOCTYPE svg PUBLIC "-//W3C//DTD SVG 1.1//EN"
 "http://www.w3.org/Graphics/SVG/1.1/DTD/svg11.dtd">
<!-- Generated by graphviz version 2.43.0 (0)
 -->
<!-- Title: SpatialDiscretization::get_finite_element_space Pages: 1 -->
<svg width="324pt" height="78pt"
 viewBox="0.00 0.00 324.00 77.50" xmlns="http://www.w3.org/2000/svg" xmlns:xlink="http://www.w3.org/1999/xlink">
<g id="graph0" class="graph" transform="scale(1 1) rotate(0) translate(4 73.5)">
<title>SpatialDiscretization::get_finite_element_space</title>
<!-- Node1 -->
<g id="node1" class="node">
<title>Node1</title>
<g id="a_node1"><a xlink:title="return a pointer toward the finite element space">
<polygon fill="#bfbfbf" stroke="black" points="164,-17 164,-47 316,-47 316,-17 164,-17"/>
<text text-anchor="start" x="172" y="-35" font-family="serif" font-size="10.00">SpatialDiscretization</text>
<text text-anchor="middle" x="240" y="-24" font-family="serif" font-size="10.00">::get_finite_element_space</text>
</a>
</g>
</g>
<!-- Node2 -->
<g id="node2" class="node">
<title>Node2</title>
<g id="a_node2"><a xlink:href="classBoundaryConditions.html#aac17dc96feda7fc3c08c0f0308493693" target="_top" xlink:title="Construct a new Boundary Conditions:: Boundary Conditions object.">
<polygon fill="none" stroke="black" points="0,-39 0,-69 128,-69 128,-39 0,-39"/>
<text text-anchor="start" x="8" y="-57" font-family="serif" font-size="10.00">BoundaryConditions</text>
<text text-anchor="middle" x="64" y="-46" font-family="serif" font-size="10.00">::BoundaryConditions</text>
</a>
</g>
</g>
<!-- Node1&#45;&gt;Node2 -->
<g id="edge1" class="edge">
<title>Node1&#45;&gt;Node2</title>
<path fill="none" stroke="midnightblue" d="M153.8,-42.77C145.14,-43.87 136.45,-44.97 128.08,-46.02"/>
<polygon fill="midnightblue" stroke="midnightblue" points="154.46,-46.22 163.95,-41.49 153.59,-39.27 154.46,-46.22"/>
</g>
<!-- Node3 -->
<g id="node3" class="node">
<title>Node3</title>
<g id="a_node3"><a xlink:href="classVariable.html#ae6ccb444b073d7b81927a0b17b8b4763" target="_top" xlink:title="Construct a new Variable:: Variable object.">
<polygon fill="none" stroke="black" points="11.5,-0.5 11.5,-19.5 116.5,-19.5 116.5,-0.5 11.5,-0.5"/>
<text text-anchor="middle" x="64" y="-7.5" font-family="serif" font-size="10.00">Variable::Variable</text>
</a>
</g>
</g>
<!-- Node1&#45;&gt;Node3 -->
<g id="edge2" class="edge">
<title>Node1&#45;&gt;Node3</title>
<path fill="none" stroke="midnightblue" d="M153.77,-21.22C141.03,-19.61 128.25,-18 116.51,-16.51"/>
<polygon fill="midnightblue" stroke="midnightblue" points="153.59,-24.73 163.95,-22.51 154.46,-17.78 153.59,-24.73"/>
</g>
</g>
</svg>
