<?xml version="1.0" encoding="UTF-8" standalone="no"?>
<!DOCTYPE svg PUBLIC "-//W3C//DTD SVG 1.1//EN"
 "http://www.w3.org/Graphics/SVG/1.1/DTD/svg11.dtd">
<!-- Generated by graphviz version 2.43.0 (0)
 -->
<!-- Title: HeatNLFormIntegrator&lt; VARS, SCHEME, COND_NAME &gt; Pages: 1 -->
<svg width="158pt" height="185pt"
 viewBox="0.00 0.00 158.00 185.00" xmlns="http://www.w3.org/2000/svg" xmlns:xlink="http://www.w3.org/1999/xlink">
<g id="graph0" class="graph" transform="scale(1 1) rotate(0) translate(4 181)">
<title>HeatNLFormIntegrator&lt; VARS, SCHEME, COND_NAME &gt;</title>
<!-- Node1 -->
<g id="node1" class="node">
<title>Node1</title>
<g id="a_node1"><a xlink:title="Class dedicated to the FV of the heat transfer equation.">
<polygon fill="#bfbfbf" stroke="black" points="0,-0.5 0,-41.5 150,-41.5 150,-0.5 0,-0.5"/>
<text text-anchor="start" x="8" y="-29.5" font-family="serif" font-size="10.00">HeatNLFormIntegrator</text>
<text text-anchor="start" x="8" y="-18.5" font-family="serif" font-size="10.00">&lt; VARS, SCHEME, COND</text>
<text text-anchor="middle" x="75" y="-7.5" font-family="serif" font-size="10.00">_NAME &gt;</text>
</a>
</g>
</g>
<!-- Node2 -->
<g id="node2" class="node">
<title>Node2</title>
<g id="a_node2"><a xlink:href="classSlothNLFormIntegrator.html" target="_top" xlink:title="Class prodiving common methods to all NLFormIntegrators.">
<polygon fill="none" stroke="black" points="6.5,-79.5 6.5,-109.5 143.5,-109.5 143.5,-79.5 6.5,-79.5"/>
<text text-anchor="start" x="14.5" y="-97.5" font-family="serif" font-size="10.00">SlothNLFormIntegrator</text>
<text text-anchor="middle" x="75" y="-86.5" font-family="serif" font-size="10.00">&lt; VARS &gt;</text>
</a>
</g>
</g>
<!-- Node2&#45;&gt;Node1 -->
<g id="edge1" class="edge">
<title>Node2&#45;&gt;Node1</title>
<path fill="none" stroke="midnightblue" d="M75,-69.1C75,-60.1 75,-50.02 75,-41.51"/>
<polygon fill="midnightblue" stroke="midnightblue" points="71.5,-69.37 75,-79.37 78.5,-69.37 71.5,-69.37"/>
</g>
<!-- Node3 -->
<g id="node3" class="node">
<title>Node3</title>
<g id="a_node3"><a xlink:href="classParameters.html" target="_top" xlink:title=" ">
<polygon fill="none" stroke="black" points="38,-157.5 38,-176.5 112,-176.5 112,-157.5 38,-157.5"/>
<text text-anchor="middle" x="75" y="-164.5" font-family="serif" font-size="10.00">Parameters</text>
</a>
</g>
</g>
<!-- Node3&#45;&gt;Node2 -->
<g id="edge2" class="edge">
<title>Node3&#45;&gt;Node2</title>
<path fill="none" stroke="#9a32cd" stroke-dasharray="5,2" d="M75,-147.24C75,-135.41 75,-120.38 75,-109.58"/>
<polygon fill="#9a32cd" stroke="#9a32cd" points="71.5,-147.36 75,-157.36 78.5,-147.36 71.5,-147.36"/>
<text text-anchor="middle" x="98.5" y="-131" font-family="serif" font-size="10.00"> params_</text>
</g>
</g>
</svg>
