<?xml version="1.0" encoding="UTF-8" standalone="no"?>
<!DOCTYPE svg PUBLIC "-//W3C//DTD SVG 1.1//EN"
 "http://www.w3.org/Graphics/SVG/1.1/DTD/svg11.dtd">
<!-- Generated by graphviz version 2.43.0 (0)
 -->
<!-- Title: SolverMINRES Pages: 1 -->
<svg width="238pt" height="174pt"
 viewBox="0.00 0.00 238.00 174.00" xmlns="http://www.w3.org/2000/svg" xmlns:xlink="http://www.w3.org/1999/xlink">
<g id="graph0" class="graph" transform="scale(1 1) rotate(0) translate(4 170)">
<title>SolverMINRES</title>
<!-- Node1 -->
<g id="node1" class="node">
<title>Node1</title>
<g id="a_node1"><a xlink:title=" ">
<polygon fill="#bfbfbf" stroke="black" points="53,-0.5 53,-19.5 147,-19.5 147,-0.5 53,-0.5"/>
<text text-anchor="middle" x="100" y="-7.5" font-family="serif" font-size="10.00">SolverMINRES</text>
</a>
</g>
</g>
<!-- Node2 -->
<g id="node2" class="node">
<title>Node2</title>
<g id="a_node2"><a xlink:href="classSolverBase.html" target="_top" xlink:title=" ">
<polygon fill="none" stroke="black" points="0,-57.5 0,-87.5 200,-87.5 200,-57.5 0,-57.5"/>
<text text-anchor="start" x="8" y="-75.5" font-family="serif" font-size="10.00">SolverBase&lt; mfem::MINRESSolver,</text>
<text text-anchor="middle" x="100" y="-64.5" font-family="serif" font-size="10.00"> IterativeSolverType &gt;</text>
</a>
</g>
</g>
<!-- Node2&#45;&gt;Node1 -->
<g id="edge1" class="edge">
<title>Node2&#45;&gt;Node1</title>
<path fill="none" stroke="midnightblue" d="M100,-47.35C100,-37.51 100,-26.78 100,-19.54"/>
<polygon fill="midnightblue" stroke="midnightblue" points="96.5,-47.47 100,-57.47 103.5,-47.47 96.5,-47.47"/>
</g>
<!-- Node3 -->
<g id="node3" class="node">
<title>Node3</title>
<g id="a_node3"><a xlink:href="classSolverBase.html" target="_top" xlink:title=" ">
<polygon fill="none" stroke="black" points="43,-146.5 43,-165.5 157,-165.5 157,-146.5 43,-146.5"/>
<text text-anchor="middle" x="100" y="-153.5" font-family="serif" font-size="10.00">SolverBase&lt; T, S &gt;</text>
</a>
</g>
</g>
<!-- Node3&#45;&gt;Node2 -->
<g id="edge2" class="edge">
<title>Node3&#45;&gt;Node2</title>
<path fill="none" stroke="orange" stroke-dasharray="5,2" d="M100,-136.23C100,-121.41 100,-101.05 100,-87.6"/>
<polygon fill="orange" stroke="orange" points="96.5,-136.28 100,-146.28 103.5,-136.28 96.5,-136.28"/>
<text text-anchor="start" x="100" y="-120" font-family="serif" font-size="10.00"> &lt; mfem::MINRESSolver,</text>
<text text-anchor="middle" x="165" y="-109" font-family="serif" font-size="10.00"> IterativeSolverType &gt;</text>
</g>
</g>
</svg>
