<?xml version="1.0" encoding="UTF-8" standalone="no"?>
<!DOCTYPE svg PUBLIC "-//W3C//DTD SVG 1.1//EN"
 "http://www.w3.org/Graphics/SVG/1.1/DTD/svg11.dtd">
<!-- Generated by graphviz version 2.43.0 (0)
 -->
<!-- Title: SolverBICGSTAB Pages: 1 -->
<svg width="252pt" height="174pt"
 viewBox="0.00 0.00 251.50 174.00" xmlns="http://www.w3.org/2000/svg" xmlns:xlink="http://www.w3.org/1999/xlink">
<g id="graph0" class="graph" transform="scale(1 1) rotate(0) translate(4 170)">
<title>SolverBICGSTAB</title>
<!-- Node1 -->
<g id="node1" class="node">
<title>Node1</title>
<g id="a_node1"><a xlink:title=" ">
<polygon fill="#bfbfbf" stroke="black" points="52.5,-0.5 52.5,-19.5 156.5,-19.5 156.5,-0.5 52.5,-0.5"/>
<text text-anchor="middle" x="104.5" y="-7.5" font-family="serif" font-size="10.00">SolverBICGSTAB</text>
</a>
</g>
</g>
<!-- Node2 -->
<g id="node2" class="node">
<title>Node2</title>
<g id="a_node2"><a xlink:href="classSolverBase.html" target="_top" xlink:title=" ">
<polygon fill="none" stroke="black" points="0,-57.5 0,-87.5 209,-87.5 209,-57.5 0,-57.5"/>
<text text-anchor="start" x="8" y="-75.5" font-family="serif" font-size="10.00">SolverBase&lt; mfem::BiCGSTABSolver,</text>
<text text-anchor="middle" x="104.5" y="-64.5" font-family="serif" font-size="10.00"> IterativeSolverType &gt;</text>
</a>
</g>
</g>
<!-- Node2&#45;&gt;Node1 -->
<g id="edge1" class="edge">
<title>Node2&#45;&gt;Node1</title>
<path fill="none" stroke="midnightblue" d="M104.5,-47.35C104.5,-37.51 104.5,-26.78 104.5,-19.54"/>
<polygon fill="midnightblue" stroke="midnightblue" points="101,-47.47 104.5,-57.47 108,-47.47 101,-47.47"/>
</g>
<!-- Node3 -->
<g id="node3" class="node">
<title>Node3</title>
<g id="a_node3"><a xlink:href="classSolverBase.html" target="_top" xlink:title=" ">
<polygon fill="none" stroke="black" points="47.5,-146.5 47.5,-165.5 161.5,-165.5 161.5,-146.5 47.5,-146.5"/>
<text text-anchor="middle" x="104.5" y="-153.5" font-family="serif" font-size="10.00">SolverBase&lt; T, S &gt;</text>
</a>
</g>
</g>
<!-- Node3&#45;&gt;Node2 -->
<g id="edge2" class="edge">
<title>Node3&#45;&gt;Node2</title>
<path fill="none" stroke="orange" stroke-dasharray="5,2" d="M104.5,-136.23C104.5,-121.41 104.5,-101.05 104.5,-87.6"/>
<polygon fill="orange" stroke="orange" points="101,-136.28 104.5,-146.28 108,-136.28 101,-136.28"/>
<text text-anchor="start" x="104.5" y="-120" font-family="serif" font-size="10.00"> &lt; mfem::BiCGSTABSolver,</text>
<text text-anchor="middle" x="174" y="-109" font-family="serif" font-size="10.00"> IterativeSolverType &gt;</text>
</g>
</g>
</svg>
