<?xml version="1.0" encoding="UTF-8" standalone="no"?>
<!DOCTYPE svg PUBLIC "-//W3C//DTD SVG 1.1//EN"
 "http://www.w3.org/Graphics/SVG/1.1/DTD/svg11.dtd">
<!-- Generated by graphviz version 2.43.0 (0)
 -->
<!-- Title: KKS::execute_linearization Pages: 1 -->
<svg width="340pt" height="154pt"
 viewBox="0.00 0.00 340.00 154.00" xmlns="http://www.w3.org/2000/svg" xmlns:xlink="http://www.w3.org/1999/xlink">
<g id="graph0" class="graph" transform="scale(1 1) rotate(0) translate(4 150)">
<title>KKS::execute_linearization</title>
<!-- Node1 -->
<g id="node1" class="node">
<title>Node1</title>
<g id="a_node1"><a xlink:title="Compute Calphad contributions needed by KKS resolution.">
<polygon fill="#bfbfbf" stroke="black" points="0,-66.5 0,-85.5 152,-85.5 152,-66.5 0,-66.5"/>
<text text-anchor="middle" x="76" y="-73.5" font-family="serif" font-size="10.00">KKS::execute_linearization</text>
</a>
</g>
</g>
<!-- Node2 -->
<g id="node2" class="node">
<title>Node2</title>
<g id="a_node2"><a xlink:href="classSlothInfo.html#a854d3cafdb9f5a77f1063a27d2a27e04" target="_top" xlink:title="Print information on Debug mode.">
<polygon fill="none" stroke="black" points="209,-126.5 209,-145.5 311,-145.5 311,-126.5 209,-126.5"/>
<text text-anchor="middle" x="260" y="-133.5" font-family="serif" font-size="10.00">SlothInfo::debug</text>
</a>
</g>
</g>
<!-- Node1&#45;&gt;Node2 -->
<g id="edge1" class="edge">
<title>Node1&#45;&gt;Node2</title>
<path fill="none" stroke="midnightblue" d="M101.03,-85.61C123.36,-94.36 157.65,-107.36 188,-117 195.44,-119.36 203.38,-121.68 211.15,-123.84"/>
<polygon fill="midnightblue" stroke="midnightblue" points="210.29,-127.24 220.86,-126.49 212.13,-120.48 210.29,-127.24"/>
</g>
<!-- Node3 -->
<g id="node3" class="node">
<title>Node3</title>
<g id="a_node3"><a xlink:href="classCalphadBase.html#a1c26c89e3cdc44b737f91aad07d42b25" target="_top" xlink:title=" ">
<polygon fill="none" stroke="black" points="195,-88.5 195,-107.5 325,-107.5 325,-88.5 195,-88.5"/>
<text text-anchor="middle" x="260" y="-95.5" font-family="serif" font-size="10.00">CalphadBase::execute</text>
</a>
</g>
</g>
<!-- Node1&#45;&gt;Node3 -->
<g id="edge2" class="edge">
<title>Node1&#45;&gt;Node3</title>
<path fill="none" stroke="midnightblue" d="M152.08,-85.08C162.84,-86.38 173.9,-87.71 184.65,-89.01"/>
<polygon fill="midnightblue" stroke="midnightblue" points="184.48,-92.52 194.83,-90.24 185.32,-85.57 184.48,-92.52"/>
</g>
<!-- Node4 -->
<g id="node4" class="node">
<title>Node4</title>
<g id="a_node4"><a xlink:href="structKKS__nucleation__strategy.html#a9ced3346807daab7cef579de52e64602" target="_top" xlink:title=" ">
<polygon fill="none" stroke="black" points="188,-39 188,-69 332,-69 332,-39 188,-39"/>
<text text-anchor="start" x="196" y="-57" font-family="serif" font-size="10.00">KKS_nucleation_strategy</text>
<text text-anchor="middle" x="260" y="-46" font-family="serif" font-size="10.00">::from</text>
</a>
</g>
</g>
<!-- Node1&#45;&gt;Node4 -->
<g id="edge3" class="edge">
<title>Node1&#45;&gt;Node4</title>
<path fill="none" stroke="midnightblue" d="M152.08,-66.92C160.59,-65.9 169.3,-64.84 177.89,-63.8"/>
<polygon fill="midnightblue" stroke="midnightblue" points="178.39,-67.27 187.9,-62.59 177.55,-60.32 178.39,-67.27"/>
</g>
<!-- Node5 -->
<g id="node5" class="node">
<title>Node5</title>
<g id="a_node5"><a xlink:href="classSlothInfo.html#a0aeaca42d8222a8c25402f486db20193" target="_top" xlink:title="Print information on Normal mode.">
<polygon fill="none" stroke="black" points="213,-0.5 213,-19.5 307,-19.5 307,-0.5 213,-0.5"/>
<text text-anchor="middle" x="260" y="-7.5" font-family="serif" font-size="10.00">SlothInfo::print</text>
</a>
</g>
</g>
<!-- Node1&#45;&gt;Node5 -->
<g id="edge4" class="edge">
<title>Node1&#45;&gt;Node5</title>
<path fill="none" stroke="midnightblue" d="M97.99,-66.43C120.1,-56.55 156.07,-41.07 188,-30 195.74,-27.32 204.05,-24.72 212.16,-22.35"/>
<polygon fill="midnightblue" stroke="midnightblue" points="213.24,-25.68 221.89,-19.56 211.32,-18.95 213.24,-25.68"/>
</g>
</g>
</svg>
