<?xml version="1.0" encoding="UTF-8" standalone="no"?>
<!DOCTYPE svg PUBLIC "-//W3C//DTD SVG 1.1//EN"
 "http://www.w3.org/Graphics/SVG/1.1/DTD/svg11.dtd">
<!-- Generated by graphviz version 2.43.0 (0)
 -->
<!-- Title: SlothInfo::print Pages: 1 -->
<svg width="290pt" height="66pt"
 viewBox="0.00 0.00 290.00 66.00" xmlns="http://www.w3.org/2000/svg" xmlns:xlink="http://www.w3.org/1999/xlink">
<g id="graph0" class="graph" transform="scale(1 1) rotate(0) translate(4 62)">
<title>SlothInfo::print</title>
<!-- Node1 -->
<g id="node1" class="node">
<title>Node1</title>
<g id="a_node1"><a xlink:title="Print information on Normal mode.">
<polygon fill="#bfbfbf" stroke="black" points="188,-19.5 188,-38.5 282,-38.5 282,-19.5 188,-19.5"/>
<text text-anchor="middle" x="235" y="-26.5" font-family="serif" font-size="10.00">SlothInfo::print</text>
</a>
</g>
</g>
<!-- Node2 -->
<g id="node2" class="node">
<title>Node2</title>
<g id="a_node2"><a xlink:href="classKKS.html#adb4477c43ac2d3cef4abecf5d7a31c46" target="_top" xlink:title="Compute Calphad contributions needed by KKS resolution.">
<polygon fill="none" stroke="black" points="0,-38.5 0,-57.5 152,-57.5 152,-38.5 0,-38.5"/>
<text text-anchor="middle" x="76" y="-45.5" font-family="serif" font-size="10.00">KKS::execute_linearization</text>
</a>
</g>
</g>
<!-- Node1&#45;&gt;Node2 -->
<g id="edge1" class="edge">
<title>Node1&#45;&gt;Node2</title>
<path fill="none" stroke="midnightblue" d="M177.78,-35.8C169.44,-36.81 160.73,-37.87 152.08,-38.91"/>
<polygon fill="midnightblue" stroke="midnightblue" points="178.24,-39.27 187.74,-34.6 177.4,-32.32 178.24,-39.27"/>
</g>
<!-- Node3 -->
<g id="node3" class="node">
<title>Node3</title>
<g id="a_node3"><a xlink:href="classParameter.html#ae6657615596b148b82d8a8be223a6620" target="_top" xlink:title="Print the value of the parameter.">
<polygon fill="none" stroke="black" points="26,-0.5 26,-19.5 126,-19.5 126,-0.5 26,-0.5"/>
<text text-anchor="middle" x="76" y="-7.5" font-family="serif" font-size="10.00">Parameter::print</text>
</a>
</g>
</g>
<!-- Node1&#45;&gt;Node3 -->
<g id="edge2" class="edge">
<title>Node1&#45;&gt;Node3</title>
<path fill="none" stroke="midnightblue" d="M177.51,-22.16C160.73,-20.13 142.49,-17.93 126.2,-15.95"/>
<polygon fill="midnightblue" stroke="midnightblue" points="177.4,-25.68 187.74,-23.4 178.24,-18.73 177.4,-25.68"/>
</g>
</g>
</svg>
