<?xml version="1.0" encoding="UTF-8" standalone="no"?>
<!DOCTYPE svg PUBLIC "-//W3C//DTD SVG 1.1//EN"
 "http://www.w3.org/Graphics/SVG/1.1/DTD/svg11.dtd">
<!-- Generated by graphviz version 2.43.0 (0)
 -->
<!-- Title: SlothInfo::verbose Pages: 1 -->
<svg width="284pt" height="334pt"
 viewBox="0.00 0.00 284.00 334.00" xmlns="http://www.w3.org/2000/svg" xmlns:xlink="http://www.w3.org/1999/xlink">
<g id="graph0" class="graph" transform="scale(1 1) rotate(0) translate(4 330)">
<title>SlothInfo::verbose</title>
<!-- Node1 -->
<g id="node1" class="node">
<title>Node1</title>
<g id="a_node1"><a xlink:title="Print information on Normal mode.">
<polygon fill="#bfbfbf" stroke="black" points="166,-186.5 166,-205.5 276,-205.5 276,-186.5 166,-186.5"/>
<text text-anchor="middle" x="221" y="-193.5" font-family="serif" font-size="10.00">SlothInfo::verbose</text>
</a>
</g>
</g>
<!-- Node2 -->
<g id="node2" class="node">
<title>Node2</title>
<g id="a_node2"><a xlink:href="classCoupling.html#a5cb62986cc60f8503d9e8c8e34191a32" target="_top" xlink:title="Solve all the problems inside the coupling.">
<polygon fill="none" stroke="black" points="10.5,-306.5 10.5,-325.5 119.5,-325.5 119.5,-306.5 10.5,-306.5"/>
<text text-anchor="middle" x="65" y="-313.5" font-family="serif" font-size="10.00">Coupling::execute</text>
</a>
</g>
</g>
<!-- Node1&#45;&gt;Node2 -->
<g id="edge1" class="edge">
<title>Node1&#45;&gt;Node2</title>
<path fill="none" stroke="midnightblue" d="M208.61,-214.04C193.39,-236.69 164.33,-275.2 130,-297 123.93,-300.85 117.05,-303.95 110.11,-306.44"/>
<polygon fill="midnightblue" stroke="midnightblue" points="211.54,-215.95 214.09,-205.67 205.68,-212.12 211.54,-215.95"/>
</g>
<!-- Node3 -->
<g id="node3" class="node">
<title>Node3</title>
<g id="a_node3"><a xlink:href="classProblemBase.html#a82f574d928a831f87374b8f16b9e4934" target="_top" xlink:title="Execute step.">
<polygon fill="none" stroke="black" points="0,-268.5 0,-287.5 130,-287.5 130,-268.5 0,-268.5"/>
<text text-anchor="middle" x="65" y="-275.5" font-family="serif" font-size="10.00">ProblemBase::execute</text>
</a>
</g>
</g>
<!-- Node1&#45;&gt;Node3 -->
<g id="edge2" class="edge">
<title>Node1&#45;&gt;Node3</title>
<path fill="none" stroke="midnightblue" d="M201.06,-212C183.59,-226.07 156.42,-246.25 130,-259 122.28,-262.73 113.67,-265.89 105.34,-268.5"/>
<polygon fill="midnightblue" stroke="midnightblue" points="203.3,-214.69 208.82,-205.64 198.86,-209.28 203.3,-214.69"/>
</g>
<!-- Node4 -->
<g id="node4" class="node">
<title>Node4</title>
<g id="a_node4"><a xlink:href="classCoupling.html#a87f0f74fff4c34b98aa8885908db73f0" target="_top" xlink:title="List all problems involved in the coupling.">
<polygon fill="none" stroke="black" points="9.5,-230.5 9.5,-249.5 120.5,-249.5 120.5,-230.5 9.5,-230.5"/>
<text text-anchor="middle" x="65" y="-237.5" font-family="serif" font-size="10.00">Coupling::get_tree</text>
</a>
</g>
</g>
<!-- Node1&#45;&gt;Node4 -->
<g id="edge3" class="edge">
<title>Node1&#45;&gt;Node4</title>
<path fill="none" stroke="midnightblue" d="M176.81,-208.34C152.28,-215.35 122.04,-223.99 99.35,-230.47"/>
<polygon fill="midnightblue" stroke="midnightblue" points="177.93,-211.66 186.58,-205.55 176.01,-204.93 177.93,-211.66"/>
</g>
<!-- Node5 -->
<g id="node5" class="node">
<title>Node5</title>
<g id="a_node5"><a xlink:href="classTimeDiscretization.html#a6dd4097034fb80b0e725f468ce6d6010" target="_top" xlink:title="Return the numerical coupling tree (recursively over the couplings and the problems)">
<polygon fill="none" stroke="black" points="9,-181 9,-211 121,-211 121,-181 9,-181"/>
<text text-anchor="start" x="17" y="-199" font-family="serif" font-size="10.00">TimeDiscretization</text>
<text text-anchor="middle" x="65" y="-188" font-family="serif" font-size="10.00">::get_tree</text>
</a>
</g>
</g>
<!-- Node1&#45;&gt;Node5 -->
<g id="edge4" class="edge">
<title>Node1&#45;&gt;Node5</title>
<path fill="none" stroke="midnightblue" d="M155.37,-196C143.98,-196 132.21,-196 121.1,-196"/>
<polygon fill="midnightblue" stroke="midnightblue" points="155.71,-199.5 165.71,-196 155.71,-192.5 155.71,-199.5"/>
</g>
<!-- Node6 -->
<g id="node6" class="node">
<title>Node6</title>
<g id="a_node6"><a xlink:href="structspecialized__spatial__constructor_3_01T_00_011_01_4.html#a9d28d9d2735b1b9d2ca88de45cfda15b" target="_top" xlink:title="operator() specialized for a mesh built from GMSH file">
<polygon fill="none" stroke="black" points="5.5,-120.5 5.5,-161.5 124.5,-161.5 124.5,-120.5 5.5,-120.5"/>
<text text-anchor="start" x="13.5" y="-149.5" font-family="serif" font-size="10.00">specialized_spatial</text>
<text text-anchor="start" x="13.5" y="-138.5" font-family="serif" font-size="10.00">_constructor&lt; T, 1 &gt;</text>
<text text-anchor="middle" x="65" y="-127.5" font-family="serif" font-size="10.00">::operator()</text>
</a>
</g>
</g>
<!-- Node1&#45;&gt;Node6 -->
<g id="edge5" class="edge">
<title>Node1&#45;&gt;Node6</title>
<path fill="none" stroke="midnightblue" d="M183.66,-183.02C165.71,-176.61 143.62,-168.72 123.45,-161.52"/>
<polygon fill="midnightblue" stroke="midnightblue" points="182.58,-186.35 193.18,-186.42 184.94,-179.76 182.58,-186.35"/>
</g>
<!-- Node7 -->
<g id="node7" class="node">
<title>Node7</title>
<g id="a_node7"><a xlink:href="structspecialized__spatial__constructor_3_01T_00_012_01_4.html#a367e7535f528d675144feb9ec420a28b" target="_top" xlink:title="operator() specialized for a mesh built from GMSH file">
<polygon fill="none" stroke="black" points="5.5,-60.5 5.5,-101.5 124.5,-101.5 124.5,-60.5 5.5,-60.5"/>
<text text-anchor="start" x="13.5" y="-89.5" font-family="serif" font-size="10.00">specialized_spatial</text>
<text text-anchor="start" x="13.5" y="-78.5" font-family="serif" font-size="10.00">_constructor&lt; T, 2 &gt;</text>
<text text-anchor="middle" x="65" y="-67.5" font-family="serif" font-size="10.00">::operator()</text>
</a>
</g>
</g>
<!-- Node1&#45;&gt;Node7 -->
<g id="edge6" class="edge">
<title>Node1&#45;&gt;Node7</title>
<path fill="none" stroke="midnightblue" d="M204.74,-178.61C187.84,-160.1 159.12,-130.82 130,-111 125.13,-107.69 119.84,-104.56 114.45,-101.67"/>
<polygon fill="midnightblue" stroke="midnightblue" points="202.35,-181.18 211.63,-186.28 207.55,-176.5 202.35,-181.18"/>
</g>
<!-- Node8 -->
<g id="node8" class="node">
<title>Node8</title>
<g id="a_node8"><a xlink:href="structspecialized__spatial__constructor_3_01T_00_013_01_4.html#ac2e4126ca21896e53bd7800cf989d462" target="_top" xlink:title="operator() specialized for a mesh built from GMSH file">
<polygon fill="none" stroke="black" points="5.5,-0.5 5.5,-41.5 124.5,-41.5 124.5,-0.5 5.5,-0.5"/>
<text text-anchor="start" x="13.5" y="-29.5" font-family="serif" font-size="10.00">specialized_spatial</text>
<text text-anchor="start" x="13.5" y="-18.5" font-family="serif" font-size="10.00">_constructor&lt; T, 3 &gt;</text>
<text text-anchor="middle" x="65" y="-7.5" font-family="serif" font-size="10.00">::operator()</text>
</a>
</g>
</g>
<!-- Node1&#45;&gt;Node8 -->
<g id="edge7" class="edge">
<title>Node1&#45;&gt;Node8</title>
<path fill="none" stroke="midnightblue" d="M212.37,-176.77C199.5,-146.46 170.8,-87.28 130,-51 126.15,-47.58 121.84,-44.47 117.32,-41.66"/>
<polygon fill="midnightblue" stroke="midnightblue" points="209.21,-178.3 216.26,-186.21 215.69,-175.63 209.21,-178.3"/>
</g>
</g>
</svg>
