<?xml version="1.0" encoding="UTF-8" standalone="no"?>
<!DOCTYPE svg PUBLIC "-//W3C//DTD SVG 1.1//EN"
 "http://www.w3.org/Graphics/SVG/1.1/DTD/svg11.dtd">
<!-- Generated by graphviz version 2.43.0 (0)
 -->
<!-- Title: SteadyDiffusionOperator&lt; T, DIM, NLFI, LHS_NLFI &gt; Pages: 1 -->
<!--zoomable 154 -->
<svg id="main" version="1.1" xmlns="http://www.w3.org/2000/svg" xmlns:xlink="http://www.w3.org/1999/xlink" xml:space="preserve" onload="init(evt)">
<style type="text/css"><![CDATA[
.edge:hover path { stroke: red; }
.edge:hover polygon { stroke: red; fill: red; }
]]></style>
<script type="text/javascript"><![CDATA[
var edges = document.getElementsByTagName('g');
if (edges && edges.length) {
  for (var i=0;i<edges.length;i++) {
    if (edges[i].id.substr(0,4)=='edge') {
      edges[i].setAttribute('class','edge');
    }
  }
}
]]></script>
        <defs>
                <circle id="rim" cx="0" cy="0" r="7"/>
                <circle id="rim2" cx="0" cy="0" r="3.5"/>
                <g id="zoomPlus">
                        <use xlink:href="#rim" fill="#404040">
                                <set attributeName="fill" to="#808080" begin="zoomplus.mouseover" end="zoomplus.mouseout"/>
                        </use>
                        <path d="M-4,0h8M0,-4v8" fill="none" stroke="white" stroke-width="1.5" pointer-events="none"/>
                </g>
                <g id="zoomMin">
                        <use xlink:href="#rim" fill="#404040">
                                <set attributeName="fill" to="#808080" begin="zoomminus.mouseover" end="zoomminus.mouseout"/>
                        </use>
                        <path d="M-4,0h8" fill="none" stroke="white" stroke-width="1.5" pointer-events="none"/>
                </g>
                <g id="dirArrow">
                        <path fill="none" stroke="white" stroke-width="1.5" d="M0,-3.0v7 M-2.5,-0.5L0,-3.0L2.5,-0.5"/>
                </g>
               <g id="resetDef">
                       <use xlink:href="#rim2" fill="#404040">
                               <set attributeName="fill" to="#808080" begin="reset.mouseover" end="reset.mouseout"/>
                       </use>
               </g>
        </defs>

<script type="text/javascript">
var viewWidth = 1130;
var viewHeight = 154;
var sectionId = 'dynsection-1';
</script>
<script xlink:href="svgpan.js"/>
<svg id="graph" class="graph">
<g id="viewport">
<title>SteadyDiffusionOperator&lt; T, DIM, NLFI, LHS_NLFI &gt;</title>
<!-- Node1 -->
<g id="node1" class="node">
<title>Node1</title>
<g id="a_node1"><a xlink:title="Class SteadyDiffusionOperator.">
<polygon fill="#bfbfbf" stroke="black" points="957,-33 957,-63 1122,-63 1122,-33 957,-33"/>
<text text-anchor="start" x="965" y="-51" font-family="serif" font-size="10.00">SteadyDiffusionOperator</text>
<text text-anchor="middle" x="1039.5" y="-40" font-family="serif" font-size="10.00">&lt; T, DIM, NLFI, LHS_NLFI &gt;</text>
</a>
</g>
</g>
<!-- Node2 -->
<g id="node2" class="node">
<title>Node2</title>
<g id="a_node2"><a xlink:href="classDiffusionOperatorBase.html" target="_top" xlink:title=" ">
<polygon fill="none" stroke="black" points="738,-22 738,-74 920,-74 920,-22 738,-22"/>
<text text-anchor="start" x="746" y="-62" font-family="serif" font-size="10.00">DiffusionOperatorBase</text>
<text text-anchor="start" x="746" y="-51" font-family="serif" font-size="10.00">&lt; T, DIM, NLFI, mfem</text>
<text text-anchor="start" x="746" y="-40" font-family="serif" font-size="10.00">::BlockNonlinearFormIntegrator,</text>
<text text-anchor="middle" x="829" y="-29" font-family="serif" font-size="10.00"> SteadyOperatorBase &gt;</text>
</a>
</g>
</g>
<!-- Node2&#45;&gt;Node1 -->
<g id="edge1" class="edge">
<title>Node2&#45;&gt;Node1</title>
<path fill="none" stroke="midnightblue" d="M930.3,-48C939.25,-48 948.23,-48 956.98,-48"/>
<polygon fill="midnightblue" stroke="midnightblue" points="930.24,-44.5 920.24,-48 930.24,-51.5 930.24,-44.5"/>
</g>
<!-- Node3 -->
<g id="node3" class="node">
<title>Node3</title>
<g id="a_node3"><a xlink:href="classSteadyOperatorBase.html" target="_top" xlink:title="SteadyOperatorBase class.">
<polygon fill="none" stroke="black" points="557,-75.5 557,-116.5 679,-116.5 679,-75.5 557,-75.5"/>
<text text-anchor="start" x="565" y="-104.5" font-family="serif" font-size="10.00">SteadyOperatorBase</text>
<text text-anchor="start" x="565" y="-93.5" font-family="serif" font-size="10.00">&lt; T, DIM, NLFI, LHS</text>
<text text-anchor="middle" x="618" y="-82.5" font-family="serif" font-size="10.00">_NLFI &gt;</text>
</a>
</g>
</g>
<!-- Node3&#45;&gt;Node2 -->
<g id="edge2" class="edge">
<title>Node3&#45;&gt;Node2</title>
<path fill="none" stroke="midnightblue" d="M689.25,-79.87C704.87,-76.28 721.63,-72.43 737.92,-68.69"/>
<polygon fill="midnightblue" stroke="midnightblue" points="688.13,-76.53 679.17,-82.18 689.7,-83.35 688.13,-76.53"/>
</g>
<!-- Node4 -->
<g id="node4" class="node">
<title>Node4</title>
<g id="a_node4"><a xlink:href="classOperatorBase.html" target="_top" xlink:title="Base class for building Steady and TimeDependent PhaseFieldOperators.">
<polygon fill="none" stroke="black" points="207,-82 207,-112 342,-112 342,-82 207,-82"/>
<text text-anchor="start" x="215" y="-100" font-family="serif" font-size="10.00">OperatorBase&lt; T, DIM,</text>
<text text-anchor="middle" x="274.5" y="-89" font-family="serif" font-size="10.00"> NLFI, LHS_NLFI &gt;</text>
</a>
</g>
</g>
<!-- Node4&#45;&gt;Node3 -->
<g id="edge3" class="edge">
<title>Node4&#45;&gt;Node3</title>
<path fill="none" stroke="midnightblue" d="M352.25,-96.78C414.1,-96.59 499.85,-96.34 556.8,-96.18"/>
<polygon fill="midnightblue" stroke="midnightblue" points="352.15,-93.28 342.16,-96.8 352.17,-100.28 352.15,-93.28"/>
</g>
<!-- Node5 -->
<g id="node5" class="node">
<title>Node5</title>
<g id="a_node5"><a xlink:href="classParameter.html" target="_top" xlink:title=" ">
<polygon fill="none" stroke="black" points="2.5,-126.5 2.5,-145.5 71.5,-145.5 71.5,-126.5 2.5,-126.5"/>
<text text-anchor="middle" x="37" y="-133.5" font-family="serif" font-size="10.00">Parameter</text>
</a>
</g>
</g>
<!-- Node5&#45;&gt;Node4 -->
<g id="edge4" class="edge">
<title>Node5&#45;&gt;Node4</title>
<path fill="none" stroke="#9a32cd" stroke-dasharray="5,2" d="M81.8,-129.25C111.96,-124.55 152.94,-118.07 189,-112 194.73,-111.04 200.68,-110.02 206.64,-108.98"/>
<polygon fill="#9a32cd" stroke="#9a32cd" points="80.96,-125.84 71.61,-130.84 82.03,-132.76 80.96,-125.84"/>
<text text-anchor="middle" x="140.5" y="-130" font-family="serif" font-size="10.00"> default_p_</text>
</g>
<!-- Node6 -->
<g id="node6" class="node">
<title>Node6</title>
<g id="a_node6"><a xlink:href="classNLSolver.html" target="_top" xlink:title=" ">
<polygon fill="none" stroke="black" points="4.5,-88.5 4.5,-107.5 69.5,-107.5 69.5,-88.5 4.5,-88.5"/>
<text text-anchor="middle" x="37" y="-95.5" font-family="serif" font-size="10.00">NLSolver</text>
</a>
</g>
</g>
<!-- Node6&#45;&gt;Node4 -->
<g id="edge5" class="edge">
<title>Node6&#45;&gt;Node4</title>
<path fill="none" stroke="#9a32cd" stroke-dasharray="5,2" d="M80.13,-97.82C115.26,-97.67 165.94,-97.46 206.6,-97.28"/>
<polygon fill="#9a32cd" stroke="#9a32cd" points="79.75,-94.32 69.76,-97.87 79.78,-101.32 79.75,-94.32"/>
<text text-anchor="middle" x="140.5" y="-100" font-family="serif" font-size="10.00"> rhs_solver_</text>
</g>
<!-- Node7 -->
<g id="node7" class="node">
<title>Node7</title>
<g id="a_node7"><a xlink:href="classParameters.html" target="_top" xlink:title=" ">
<polygon fill="none" stroke="black" points="0,-26.5 0,-45.5 74,-45.5 74,-26.5 0,-26.5"/>
<text text-anchor="middle" x="37" y="-33.5" font-family="serif" font-size="10.00">Parameters</text>
</a>
</g>
</g>
<!-- Node7&#45;&gt;Node4 -->
<g id="edge6" class="edge">
<title>Node7&#45;&gt;Node4</title>
<path fill="none" stroke="#9a32cd" stroke-dasharray="5,2" d="M83.96,-45.77C113.99,-52.37 153.98,-61.57 189,-71 201.3,-74.31 214.51,-78.21 226.74,-81.97"/>
<polygon fill="#9a32cd" stroke="#9a32cd" points="84.7,-42.35 74.18,-43.63 83.2,-49.18 84.7,-42.35"/>
<text text-anchor="middle" x="140.5" y="-85" font-family="serif" font-size="10.00"> default_params_</text>
<text text-anchor="middle" x="140.5" y="-74" font-family="serif" font-size="10.00">params_</text>
</g>
<!-- Node8 -->
<g id="node8" class="node">
<title>Node8</title>
<g id="a_node8"><a xlink:href="classDiffusionOperatorBase.html" target="_top" xlink:title="Base class for Mass Diffusion.">
<polygon fill="none" stroke="black" points="360,-0.5 360,-41.5 517,-41.5 517,-0.5 360,-0.5"/>
<text text-anchor="start" x="368" y="-29.5" font-family="serif" font-size="10.00">DiffusionOperatorBase</text>
<text text-anchor="start" x="368" y="-18.5" font-family="serif" font-size="10.00">&lt; T, DIM, NLFI, LHS_NLFI,</text>
<text text-anchor="middle" x="438.5" y="-7.5" font-family="serif" font-size="10.00"> OPEBASE &gt;</text>
</a>
</g>
</g>
<!-- Node7&#45;&gt;Node8 -->
<g id="edge8" class="edge">
<title>Node7&#45;&gt;Node8</title>
<path fill="none" stroke="#9a32cd" stroke-dasharray="5,2" d="M84.21,-33.37C86.84,-33.24 89.46,-33.11 92,-33 184.04,-28.85 289.92,-25.36 359.95,-23.23"/>
<polygon fill="#9a32cd" stroke="#9a32cd" points="83.82,-29.88 74.01,-33.89 84.18,-36.88 83.82,-29.88"/>
<text text-anchor="middle" x="140.5" y="-36" font-family="serif" font-size="10.00"> diffusion_params_</text>
</g>
<!-- Node8&#45;&gt;Node2 -->
<g id="edge7" class="edge">
<title>Node8&#45;&gt;Node2</title>
<path fill="none" stroke="orange" stroke-dasharray="5,2" d="M527.4,-23.46C578.19,-25.28 643.26,-28.27 701,-33 712.95,-33.98 725.51,-35.21 737.89,-36.55"/>
<polygon fill="orange" stroke="orange" points="527.23,-19.95 517.11,-23.1 526.99,-26.95 527.23,-19.95"/>
<text text-anchor="start" x="535" y="-58" font-family="serif" font-size="10.00"> &lt; T, DIM, NLFI, mfem</text>
<text text-anchor="start" x="535" y="-47" font-family="serif" font-size="10.00">::BlockNonlinearFormIntegrator,</text>
<text text-anchor="middle" x="618" y="-36" font-family="serif" font-size="10.00"> SteadyOperatorBase &gt;</text>
</g>
</g>
</svg>
        <g id="navigator" transform="translate(0 0)" fill="#404254">
                <rect fill="#f2f5e9" fill-opacity="0.5" stroke="#606060" stroke-width=".5" x="0" y="0" width="60" height="60"/>
                <use id="zoomplus" xlink:href="#zoomPlus" x="17" y="9" onmousedown="handleZoom(evt,'in')"/>
                <use id="zoomminus" xlink:href="#zoomMin" x="42" y="9" onmousedown="handleZoom(evt,'out')"/>
                <use id="reset" xlink:href="#resetDef" x="30" y="36" onmousedown="handleReset()"/>
                <g id="arrowUp" xlink:href="#dirArrow" transform="translate(30 24)" onmousedown="handlePan(0,-1)">
                  <use xlink:href="#rim" fill="#404040">
                        <set attributeName="fill" to="#808080" begin="arrowUp.mouseover" end="arrowUp.mouseout"/>
                  </use>
                  <path fill="none" stroke="white" stroke-width="1.5" d="M0,-3.0v7 M-2.5,-0.5L0,-3.0L2.5,-0.5"/>
                </g>
                <g id="arrowRight" xlink:href="#dirArrow" transform="rotate(90) translate(36 -43)" onmousedown="handlePan(1,0)">
                  <use xlink:href="#rim" fill="#404040">
                        <set attributeName="fill" to="#808080" begin="arrowRight.mouseover" end="arrowRight.mouseout"/>
                  </use>
                  <path fill="none" stroke="white" stroke-width="1.5" d="M0,-3.0v7 M-2.5,-0.5L0,-3.0L2.5,-0.5"/>
                </g>
                <g id="arrowDown" xlink:href="#dirArrow" transform="rotate(180) translate(-30 -48)" onmousedown="handlePan(0,1)">
                  <use xlink:href="#rim" fill="#404040">
                        <set attributeName="fill" to="#808080" begin="arrowDown.mouseover" end="arrowDown.mouseout"/>
                  </use>
                  <path fill="none" stroke="white" stroke-width="1.5" d="M0,-3.0v7 M-2.5,-0.5L0,-3.0L2.5,-0.5"/>
                </g>
                <g id="arrowLeft" xlink:href="#dirArrow" transform="rotate(270) translate(-36 17)" onmousedown="handlePan(-1,0)">
                  <use xlink:href="#rim" fill="#404040">
                        <set attributeName="fill" to="#808080" begin="arrowLeft.mouseover" end="arrowLeft.mouseout"/>
                  </use>
                  <path fill="none" stroke="white" stroke-width="1.5" d="M0,-3.0v7 M-2.5,-0.5L0,-3.0L2.5,-0.5"/>
                </g>
        </g>
        <svg viewBox="0 0 15 15" width="100%" height="30px" preserveAspectRatio="xMaxYMin meet">
         <g id="arrow_out" transform="scale(0.3 0.3)">
          <a xlink:href="classSteadyDiffusionOperator__coll__graph_org.svg" target="_base">
           <rect id="button" ry="5" rx="5" y="6" x="6" height="38" width="38"
                fill="#f2f5e9" fill-opacity="0.5" stroke="#606060" stroke-width="1.0"/>
           <path id="arrow"
             d="M 11.500037,31.436501 C 11.940474,20.09759 22.043105,11.32322 32.158766,21.979434 L 37.068811,17.246167 C 37.068811,17.246167 37.088388,32 37.088388,32 L 22.160133,31.978069 C 22.160133,31.978069 26.997745,27.140456 26.997745,27.140456 C 18.528582,18.264221 13.291696,25.230495 11.500037,31.436501 z"
             style="fill:#404040;"/>
          </a>
         </g>
        </svg>
</svg>
