<?xml version="1.0" encoding="UTF-8" standalone="no"?>
<!DOCTYPE svg PUBLIC "-//W3C//DTD SVG 1.1//EN"
 "http://www.w3.org/Graphics/SVG/1.1/DTD/svg11.dtd">
<!-- Generated by graphviz version 2.43.0 (0)
 -->
<!-- Title: NLSolverBase::create_solver Pages: 1 -->
<svg width="497pt" height="88pt"
 viewBox="0.00 0.00 497.00 88.00" xmlns="http://www.w3.org/2000/svg" xmlns:xlink="http://www.w3.org/1999/xlink">
<g id="graph0" class="graph" transform="scale(1 1) rotate(0) translate(4 84)">
<title>NLSolverBase::create_solver</title>
<!-- Node1 -->
<g id="node1" class="node">
<title>Node1</title>
<g id="a_node1"><a xlink:title="Create non linear solver based of the NLSolverType and a list of Parameters.">
<polygon fill="#bfbfbf" stroke="black" points="0,-24.5 0,-54.5 127,-54.5 127,-24.5 0,-24.5"/>
<text text-anchor="start" x="8" y="-42.5" font-family="serif" font-size="10.00">NLSolverBase::create</text>
<text text-anchor="middle" x="63.5" y="-31.5" font-family="serif" font-size="10.00">_solver</text>
</a>
</g>
</g>
<!-- Node2 -->
<g id="node2" class="node">
<title>Node2</title>
<g id="a_node2"><a xlink:href="classParameters.html#ae3b314c5ebc3fde8684b0634b2406da6" target="_top" xlink:title="Return the value of the parameter associated to the given name.">
<polygon fill="none" stroke="black" points="163,-49.5 163,-79.5 298,-79.5 298,-49.5 163,-49.5"/>
<text text-anchor="start" x="171" y="-67.5" font-family="serif" font-size="10.00">Parameters::get_param</text>
<text text-anchor="middle" x="230.5" y="-56.5" font-family="serif" font-size="10.00">_value</text>
</a>
</g>
</g>
<!-- Node1&#45;&gt;Node2 -->
<g id="edge1" class="edge">
<title>Node1&#45;&gt;Node2</title>
<path fill="none" stroke="midnightblue" d="M127.35,-49.02C135.73,-50.29 144.39,-51.61 152.97,-52.91"/>
<polygon fill="midnightblue" stroke="midnightblue" points="152.57,-56.38 162.98,-54.42 153.62,-49.46 152.57,-56.38"/>
</g>
<!-- Node5 -->
<g id="node5" class="node">
<title>Node5</title>
<g id="a_node5"><a xlink:href="classParameters.html#a857c53fbe60d7bd2f91e91626f85b6d2" target="_top" xlink:title="Return the value of the parameter associated to the given name or, use th edefault given,...">
<polygon fill="none" stroke="black" points="163,-0.5 163,-30.5 298,-30.5 298,-0.5 163,-0.5"/>
<text text-anchor="start" x="171" y="-18.5" font-family="serif" font-size="10.00">Parameters::get_param</text>
<text text-anchor="middle" x="230.5" y="-7.5" font-family="serif" font-size="10.00">_value_or_default</text>
</a>
</g>
</g>
<!-- Node1&#45;&gt;Node5 -->
<g id="edge4" class="edge">
<title>Node1&#45;&gt;Node5</title>
<path fill="none" stroke="midnightblue" d="M127.35,-30.36C135.73,-29.14 144.39,-27.88 152.97,-26.63"/>
<polygon fill="midnightblue" stroke="midnightblue" points="153.59,-30.08 162.98,-25.18 152.58,-23.15 153.59,-30.08"/>
</g>
<!-- Node3 -->
<g id="node3" class="node">
<title>Node3</title>
<g id="a_node3"><a xlink:href="classParameters.html#aacf1a423c07aa2e63d2397fe903a1388" target="_top" xlink:title="Return the parameter associated to the given name.">
<polygon fill="none" stroke="black" points="334,-52 334,-71 489,-71 489,-52 334,-52"/>
<text text-anchor="middle" x="411.5" y="-59" font-family="serif" font-size="10.00">Parameters::get_parameter</text>
</a>
</g>
</g>
<!-- Node2&#45;&gt;Node3 -->
<g id="edge2" class="edge">
<title>Node2&#45;&gt;Node3</title>
<path fill="none" stroke="midnightblue" d="M298.15,-63.38C306.51,-63.24 315.16,-63.1 323.77,-62.95"/>
<polygon fill="midnightblue" stroke="midnightblue" points="323.9,-66.45 333.84,-62.78 323.78,-59.45 323.9,-66.45"/>
</g>
<!-- Node4 -->
<g id="node4" class="node">
<title>Node4</title>
<g id="a_node4"><a xlink:href="classParameter.html#a7874e1270fe62aecf3063a4f9edecb47" target="_top" xlink:title="Return the value of the paramter.">
<polygon fill="none" stroke="black" points="349,-11 349,-30 474,-30 474,-11 349,-11"/>
<text text-anchor="middle" x="411.5" y="-18" font-family="serif" font-size="10.00">Parameter::get_value</text>
</a>
</g>
</g>
<!-- Node2&#45;&gt;Node4 -->
<g id="edge3" class="edge">
<title>Node2&#45;&gt;Node4</title>
<path fill="none" stroke="midnightblue" d="M292.6,-49.48C315.25,-43.91 340.6,-37.68 361.97,-32.43"/>
<polygon fill="midnightblue" stroke="midnightblue" points="362.93,-35.8 371.8,-30.01 361.26,-29 362.93,-35.8"/>
</g>
<!-- Node5&#45;&gt;Node3 -->
<g id="edge5" class="edge">
<title>Node5&#45;&gt;Node3</title>
<path fill="none" stroke="midnightblue" d="M290.11,-30.56C313.9,-36.67 341,-43.64 363.46,-49.41"/>
<polygon fill="midnightblue" stroke="midnightblue" points="362.86,-52.87 373.42,-51.97 364.61,-46.09 362.86,-52.87"/>
</g>
<!-- Node5&#45;&gt;Node4 -->
<g id="edge6" class="edge">
<title>Node5&#45;&gt;Node4</title>
<path fill="none" stroke="midnightblue" d="M298.15,-17.36C311.38,-17.73 325.32,-18.12 338.71,-18.49"/>
<polygon fill="midnightblue" stroke="midnightblue" points="338.73,-22 348.82,-18.78 338.93,-15 338.73,-22"/>
</g>
</g>
</svg>
