<?xml version="1.0" encoding="UTF-8" standalone="no"?>
<!DOCTYPE svg PUBLIC "-//W3C//DTD SVG 1.1//EN"
 "http://www.w3.org/Graphics/SVG/1.1/DTD/svg11.dtd">
<!-- Generated by graphviz version 2.43.0 (0)
 -->
<!-- Title: OperatorBase&lt; T, DIM, NLFI, LHS_NLFI &gt; Pages: 1 -->
<svg width="294pt" height="117pt"
 viewBox="0.00 0.00 293.50 117.00" xmlns="http://www.w3.org/2000/svg" xmlns:xlink="http://www.w3.org/1999/xlink">
<g id="graph0" class="graph" transform="scale(1 1) rotate(0) translate(4 113)">
<title>OperatorBase&lt; T, DIM, NLFI, LHS_NLFI &gt;</title>
<!-- Node1 -->
<g id="node1" class="node">
<title>Node1</title>
<g id="a_node1"><a xlink:title="Base class for building Steady and TimeDependent PhaseFieldOperators.">
<polygon fill="#bfbfbf" stroke="black" points="52,-0.5 52,-30.5 187,-30.5 187,-0.5 52,-0.5"/>
<text text-anchor="start" x="60" y="-18.5" font-family="serif" font-size="10.00">OperatorBase&lt; T, DIM,</text>
<text text-anchor="middle" x="119.5" y="-7.5" font-family="serif" font-size="10.00"> NLFI, LHS_NLFI &gt;</text>
</a>
</g>
</g>
<!-- Node2 -->
<g id="node2" class="node">
<title>Node2</title>
<g id="a_node2"><a xlink:href="classParameter.html" target="_top" xlink:title=" ">
<polygon fill="none" stroke="black" points="0,-89.5 0,-108.5 69,-108.5 69,-89.5 0,-89.5"/>
<text text-anchor="middle" x="34.5" y="-96.5" font-family="serif" font-size="10.00">Parameter</text>
</a>
</g>
</g>
<!-- Node2&#45;&gt;Node1 -->
<g id="edge1" class="edge">
<title>Node2&#45;&gt;Node1</title>
<path fill="none" stroke="#9a32cd" stroke-dasharray="5,2" d="M40.21,-79.96C44.11,-69.9 50.1,-57.7 58.5,-49 65.67,-41.58 74.91,-35.48 84.01,-30.64"/>
<polygon fill="#9a32cd" stroke="#9a32cd" points="36.9,-78.82 36.9,-89.42 43.51,-81.14 36.9,-78.82"/>
<text text-anchor="middle" x="87" y="-57.5" font-family="serif" font-size="10.00"> default_p_</text>
</g>
<!-- Node3 -->
<g id="node3" class="node">
<title>Node3</title>
<g id="a_node3"><a xlink:href="classNLSolver.html" target="_top" xlink:title=" ">
<polygon fill="none" stroke="black" points="87,-89.5 87,-108.5 152,-108.5 152,-89.5 87,-89.5"/>
<text text-anchor="middle" x="119.5" y="-96.5" font-family="serif" font-size="10.00">NLSolver</text>
</a>
</g>
</g>
<!-- Node3&#45;&gt;Node1 -->
<g id="edge2" class="edge">
<title>Node3&#45;&gt;Node1</title>
<path fill="none" stroke="#9a32cd" stroke-dasharray="5,2" d="M119.5,-79.23C119.5,-64.41 119.5,-44.05 119.5,-30.6"/>
<polygon fill="#9a32cd" stroke="#9a32cd" points="116,-79.28 119.5,-89.28 123,-79.28 116,-79.28"/>
<text text-anchor="middle" x="150" y="-57.5" font-family="serif" font-size="10.00"> rhs_solver_</text>
</g>
<!-- Node4 -->
<g id="node4" class="node">
<title>Node4</title>
<g id="a_node4"><a xlink:href="classParameters.html" target="_top" xlink:title=" ">
<polygon fill="none" stroke="black" points="170.5,-89.5 170.5,-108.5 244.5,-108.5 244.5,-89.5 170.5,-89.5"/>
<text text-anchor="middle" x="207.5" y="-96.5" font-family="serif" font-size="10.00">Parameters</text>
</a>
</g>
</g>
<!-- Node4&#45;&gt;Node1 -->
<g id="edge3" class="edge">
<title>Node4&#45;&gt;Node1</title>
<path fill="none" stroke="#9a32cd" stroke-dasharray="5,2" d="M202.15,-79.56C198.5,-69.54 192.79,-57.5 184.5,-49 177.1,-41.41 167.56,-35.31 158.08,-30.53"/>
<polygon fill="#9a32cd" stroke="#9a32cd" points="198.92,-80.94 205.34,-89.37 205.58,-78.78 198.92,-80.94"/>
<text text-anchor="middle" x="241.5" y="-63" font-family="serif" font-size="10.00"> default_params_</text>
<text text-anchor="middle" x="241.5" y="-52" font-family="serif" font-size="10.00">params_</text>
</g>
</g>
</svg>
