<?xml version="1.0" encoding="UTF-8" standalone="no"?>
<!DOCTYPE svg PUBLIC "-//W3C//DTD SVG 1.1//EN"
 "http://www.w3.org/Graphics/SVG/1.1/DTD/svg11.dtd">
<!-- Generated by graphviz version 2.43.0 (0)
 -->
<!-- Title: AllenCahnMeltingBaseNLFormIntegrator&lt; VARS, SCHEME, ENERGY, MOBI, INTERPOLATION &gt; Pages: 1 -->
<svg width="888pt" height="182pt"
 viewBox="0.00 0.00 888.00 182.00" xmlns="http://www.w3.org/2000/svg" xmlns:xlink="http://www.w3.org/1999/xlink">
<g id="graph0" class="graph" transform="scale(1 1) rotate(0) translate(4 178)">
<title>AllenCahnMeltingBaseNLFormIntegrator&lt; VARS, SCHEME, ENERGY, MOBI, INTERPOLATION &gt;</title>
<!-- Node1 -->
<g id="node1" class="node">
<title>Node1</title>
<g id="a_node1"><a xlink:title=" ">
<polygon fill="#bfbfbf" stroke="black" points="373,-66.5 373,-107.5 581,-107.5 581,-66.5 373,-66.5"/>
<text text-anchor="start" x="381" y="-95.5" font-family="serif" font-size="10.00">AllenCahnMeltingBaseNLForm</text>
<text text-anchor="start" x="381" y="-84.5" font-family="serif" font-size="10.00">Integrator&lt; VARS, SCHEME,</text>
<text text-anchor="middle" x="477" y="-73.5" font-family="serif" font-size="10.00"> ENERGY, MOBI, INTERPOLATION &gt;</text>
</a>
</g>
</g>
<!-- Node4 -->
<g id="node4" class="node">
<title>Node4</title>
<g id="a_node4"><a xlink:href="classAllenCahnCalphadMeltingNLFormIntegrator.html" target="_top" xlink:title=" ">
<polygon fill="none" stroke="black" points="644.5,-132.5 644.5,-173.5 852.5,-173.5 852.5,-132.5 644.5,-132.5"/>
<text text-anchor="start" x="652.5" y="-161.5" font-family="serif" font-size="10.00">AllenCahnCalphadMeltingNLForm</text>
<text text-anchor="start" x="652.5" y="-150.5" font-family="serif" font-size="10.00">Integrator&lt; VARS, SCHEME,</text>
<text text-anchor="middle" x="748.5" y="-139.5" font-family="serif" font-size="10.00"> ENERGY, MOBI, INTERPOLATION &gt;</text>
</a>
</g>
</g>
<!-- Node1&#45;&gt;Node4 -->
<g id="edge3" class="edge">
<title>Node1&#45;&gt;Node4</title>
<path fill="none" stroke="midnightblue" d="M565.74,-110.11C582.73,-114.48 600.4,-118.94 617,-123 629.76,-126.12 643.24,-129.32 656.51,-132.42"/>
<polygon fill="midnightblue" stroke="midnightblue" points="566.39,-106.67 555.83,-107.56 564.64,-113.45 566.39,-106.67"/>
</g>
<!-- Node5 -->
<g id="node5" class="node">
<title>Node5</title>
<g id="a_node5"><a xlink:href="classAllenCahnConstantMeltingNLFormIntegrator.html" target="_top" xlink:title=" ">
<polygon fill="none" stroke="black" points="669.5,-61 669.5,-113 827.5,-113 827.5,-61 669.5,-61"/>
<text text-anchor="start" x="677.5" y="-101" font-family="serif" font-size="10.00">AllenCahnConstantMelting</text>
<text text-anchor="start" x="677.5" y="-90" font-family="serif" font-size="10.00">NLFormIntegrator&lt; VARS,</text>
<text text-anchor="start" x="677.5" y="-79" font-family="serif" font-size="10.00"> SCHEME, ENERGY, MOBI,</text>
<text text-anchor="middle" x="748.5" y="-68" font-family="serif" font-size="10.00"> INTERPOLATION &gt;</text>
</a>
</g>
</g>
<!-- Node1&#45;&gt;Node5 -->
<g id="edge4" class="edge">
<title>Node1&#45;&gt;Node5</title>
<path fill="none" stroke="midnightblue" d="M591.06,-87C617.38,-87 644.82,-87 669.25,-87"/>
<polygon fill="midnightblue" stroke="midnightblue" points="591.04,-83.5 581.04,-87 591.04,-90.5 591.04,-83.5"/>
</g>
<!-- Node6 -->
<g id="node6" class="node">
<title>Node6</title>
<g id="a_node6"><a xlink:href="classAllenCahnTemperatureMeltingNLFormIntegrator.html" target="_top" xlink:title=" ">
<polygon fill="none" stroke="black" points="617,-0.5 617,-41.5 880,-41.5 880,-0.5 617,-0.5"/>
<text text-anchor="start" x="625" y="-29.5" font-family="serif" font-size="10.00">AllenCahnTemperatureMelting</text>
<text text-anchor="start" x="625" y="-18.5" font-family="serif" font-size="10.00">NLFormIntegrator&lt; VARS,</text>
<text text-anchor="middle" x="748.5" y="-7.5" font-family="serif" font-size="10.00"> SCHEME, ENERGY, MOBI, INTERPOLATION &gt;</text>
</a>
</g>
</g>
<!-- Node1&#45;&gt;Node6 -->
<g id="edge5" class="edge">
<title>Node1&#45;&gt;Node6</title>
<path fill="none" stroke="midnightblue" d="M565.74,-63.89C582.73,-59.52 600.4,-55.06 617,-51 629.76,-47.88 643.24,-44.68 656.51,-41.58"/>
<polygon fill="midnightblue" stroke="midnightblue" points="564.64,-60.55 555.83,-66.44 566.39,-67.33 564.64,-60.55"/>
</g>
<!-- Node2 -->
<g id="node2" class="node">
<title>Node2</title>
<g id="a_node2"><a xlink:href="classAllenCahnNLFormIntegrator.html" target="_top" xlink:title="Class dedicated to the FV of the Allen Cahn equation.">
<polygon fill="none" stroke="black" points="173,-66.5 173,-107.5 337,-107.5 337,-66.5 173,-66.5"/>
<text text-anchor="start" x="181" y="-95.5" font-family="serif" font-size="10.00">AllenCahnNLFormIntegrator</text>
<text text-anchor="start" x="181" y="-84.5" font-family="serif" font-size="10.00">&lt; VARS, SCHEME, ENERGY,</text>
<text text-anchor="middle" x="255" y="-73.5" font-family="serif" font-size="10.00"> MOBI &gt;</text>
</a>
</g>
</g>
<!-- Node2&#45;&gt;Node1 -->
<g id="edge1" class="edge">
<title>Node2&#45;&gt;Node1</title>
<path fill="none" stroke="midnightblue" d="M347.48,-87C355.9,-87 364.47,-87 372.99,-87"/>
<polygon fill="midnightblue" stroke="midnightblue" points="347.29,-83.5 337.29,-87 347.29,-90.5 347.29,-83.5"/>
</g>
<!-- Node3 -->
<g id="node3" class="node">
<title>Node3</title>
<g id="a_node3"><a xlink:href="classSlothNLFormIntegrator.html" target="_top" xlink:title="Class prodiving common methods to all NLFormIntegrators.">
<polygon fill="none" stroke="black" points="0,-72 0,-102 137,-102 137,-72 0,-72"/>
<text text-anchor="start" x="8" y="-90" font-family="serif" font-size="10.00">SlothNLFormIntegrator</text>
<text text-anchor="middle" x="68.5" y="-79" font-family="serif" font-size="10.00">&lt; VARS &gt;</text>
</a>
</g>
</g>
<!-- Node3&#45;&gt;Node2 -->
<g id="edge2" class="edge">
<title>Node3&#45;&gt;Node2</title>
<path fill="none" stroke="midnightblue" d="M147.35,-87C155.8,-87 164.41,-87 172.89,-87"/>
<polygon fill="midnightblue" stroke="midnightblue" points="147.15,-83.5 137.15,-87 147.15,-90.5 147.15,-83.5"/>
</g>
</g>
</svg>
