<?xml version="1.0" encoding="UTF-8" standalone="no"?>
<!DOCTYPE svg PUBLIC "-//W3C//DTD SVG 1.1//EN"
 "http://www.w3.org/Graphics/SVG/1.1/DTD/svg11.dtd">
<!-- Generated by graphviz version 2.43.0 (0)
 -->
<!-- Title: AllenCahnCalphadMeltingNLFormIntegrator&lt; VARS, SCHEME, ENERGY, MOBI, INTERPOLATION &gt; Pages: 1 -->
<svg width="993pt" height="50pt"
 viewBox="0.00 0.00 993.00 50.00" xmlns="http://www.w3.org/2000/svg" xmlns:xlink="http://www.w3.org/1999/xlink">
<g id="graph0" class="graph" transform="scale(1 1) rotate(0) translate(4 46)">
<title>AllenCahnCalphadMeltingNLFormIntegrator&lt; VARS, SCHEME, ENERGY, MOBI, INTERPOLATION &gt;</title>
<!-- Node1 -->
<g id="node1" class="node">
<title>Node1</title>
<g id="a_node1"><a xlink:title=" ">
<polygon fill="#bfbfbf" stroke="black" points="777,-0.5 777,-41.5 985,-41.5 985,-0.5 777,-0.5"/>
<text text-anchor="start" x="785" y="-29.5" font-family="serif" font-size="10.00">AllenCahnCalphadMeltingNLForm</text>
<text text-anchor="start" x="785" y="-18.5" font-family="serif" font-size="10.00">Integrator&lt; VARS, SCHEME,</text>
<text text-anchor="middle" x="881" y="-7.5" font-family="serif" font-size="10.00"> ENERGY, MOBI, INTERPOLATION &gt;</text>
</a>
</g>
</g>
<!-- Node2 -->
<g id="node2" class="node">
<title>Node2</title>
<g id="a_node2"><a xlink:href="classAllenCahnMeltingBaseNLFormIntegrator.html" target="_top" xlink:title=" ">
<polygon fill="none" stroke="black" points="532,-0.5 532,-41.5 740,-41.5 740,-0.5 532,-0.5"/>
<text text-anchor="start" x="540" y="-29.5" font-family="serif" font-size="10.00">AllenCahnMeltingBaseNLForm</text>
<text text-anchor="start" x="540" y="-18.5" font-family="serif" font-size="10.00">Integrator&lt; VARS, SCHEME,</text>
<text text-anchor="middle" x="636" y="-7.5" font-family="serif" font-size="10.00"> ENERGY, MOBI, INTERPOLATION &gt;</text>
</a>
</g>
</g>
<!-- Node2&#45;&gt;Node1 -->
<g id="edge1" class="edge">
<title>Node2&#45;&gt;Node1</title>
<path fill="none" stroke="midnightblue" d="M750.07,-21C758.98,-21 767.95,-21 776.79,-21"/>
<polygon fill="midnightblue" stroke="midnightblue" points="750.05,-17.5 740.05,-21 750.05,-24.5 750.05,-17.5"/>
</g>
<!-- Node3 -->
<g id="node3" class="node">
<title>Node3</title>
<g id="a_node3"><a xlink:href="classAllenCahnNLFormIntegrator.html" target="_top" xlink:title="Class dedicated to the FV of the Allen Cahn equation.">
<polygon fill="none" stroke="black" points="331,-0.5 331,-41.5 495,-41.5 495,-0.5 331,-0.5"/>
<text text-anchor="start" x="339" y="-29.5" font-family="serif" font-size="10.00">AllenCahnNLFormIntegrator</text>
<text text-anchor="start" x="339" y="-18.5" font-family="serif" font-size="10.00">&lt; VARS, SCHEME, ENERGY,</text>
<text text-anchor="middle" x="413" y="-7.5" font-family="serif" font-size="10.00"> MOBI &gt;</text>
</a>
</g>
</g>
<!-- Node3&#45;&gt;Node2 -->
<g id="edge2" class="edge">
<title>Node3&#45;&gt;Node2</title>
<path fill="none" stroke="midnightblue" d="M505.22,-21C513.98,-21 522.9,-21 531.76,-21"/>
<polygon fill="midnightblue" stroke="midnightblue" points="505.04,-17.5 495.04,-21 505.04,-24.5 505.04,-17.5"/>
</g>
<!-- Node4 -->
<g id="node4" class="node">
<title>Node4</title>
<g id="a_node4"><a xlink:href="classSlothNLFormIntegrator.html" target="_top" xlink:title="Class prodiving common methods to all NLFormIntegrators.">
<polygon fill="none" stroke="black" points="157,-6 157,-36 294,-36 294,-6 157,-6"/>
<text text-anchor="start" x="165" y="-24" font-family="serif" font-size="10.00">SlothNLFormIntegrator</text>
<text text-anchor="middle" x="225.5" y="-13" font-family="serif" font-size="10.00">&lt; VARS &gt;</text>
</a>
</g>
</g>
<!-- Node4&#45;&gt;Node3 -->
<g id="edge3" class="edge">
<title>Node4&#45;&gt;Node3</title>
<path fill="none" stroke="midnightblue" d="M304.42,-21C313.17,-21 322.09,-21 330.88,-21"/>
<polygon fill="midnightblue" stroke="midnightblue" points="304.26,-17.5 294.26,-21 304.26,-24.5 304.26,-17.5"/>
</g>
<!-- Node5 -->
<g id="node5" class="node">
<title>Node5</title>
<g id="a_node5"><a xlink:href="classParameters.html" target="_top" xlink:title=" ">
<polygon fill="none" stroke="black" points="0,-11.5 0,-30.5 74,-30.5 74,-11.5 0,-11.5"/>
<text text-anchor="middle" x="37" y="-18.5" font-family="serif" font-size="10.00">Parameters</text>
</a>
</g>
</g>
<!-- Node5&#45;&gt;Node4 -->
<g id="edge4" class="edge">
<title>Node5&#45;&gt;Node4</title>
<path fill="none" stroke="#9a32cd" stroke-dasharray="5,2" d="M84.42,-21C106.29,-21 132.81,-21 156.86,-21"/>
<polygon fill="#9a32cd" stroke="#9a32cd" points="84.4,-17.5 74.4,-21 84.4,-24.5 84.4,-17.5"/>
<text text-anchor="middle" x="115.5" y="-24" font-family="serif" font-size="10.00"> params_</text>
</g>
</g>
</svg>
