<?xml version="1.0" encoding="UTF-8" standalone="no"?>
<!DOCTYPE svg PUBLIC "-//W3C//DTD SVG 1.1//EN"
 "http://www.w3.org/Graphics/SVG/1.1/DTD/svg11.dtd">
<!-- Generated by graphviz version 2.43.0 (0)
 -->
<!-- Title: MassDiffusionFluxNLFormIntegrator::MassDiffusionFluxNLFormIntegrator Pages: 1 -->
<svg width="677pt" height="39pt"
 viewBox="0.00 0.00 677.00 39.00" xmlns="http://www.w3.org/2000/svg" xmlns:xlink="http://www.w3.org/1999/xlink">
<g id="graph0" class="graph" transform="scale(1 1) rotate(0) translate(4 35)">
<title>MassDiffusionFluxNLFormIntegrator::MassDiffusionFluxNLFormIntegrator</title>
<!-- Node1 -->
<g id="node1" class="node">
<title>Node1</title>
<g id="a_node1"><a xlink:title="Construct a new MassDiffusionFluxNLFormIntegrator&lt;VARS&gt;::MassDiffusionFluxNLFormIntegrator object.">
<polygon fill="#bfbfbf" stroke="black" points="0,-0.5 0,-30.5 212,-30.5 212,-0.5 0,-0.5"/>
<text text-anchor="start" x="8" y="-18.5" font-family="serif" font-size="10.00">MassDiffusionFluxNLFormIntegrator</text>
<text text-anchor="middle" x="106" y="-7.5" font-family="serif" font-size="10.00">::MassDiffusionFluxNLFormIntegrator</text>
</a>
</g>
</g>
<!-- Node2 -->
<g id="node2" class="node">
<title>Node2</title>
<g id="a_node2"><a xlink:href="classMassDiffusionFluxNLFormIntegrator.html#afd3cea7834b991ceeca0bbe4968838ea" target="_top" xlink:title="Return parameters required by these integrators.">
<polygon fill="none" stroke="black" points="248,-0.5 248,-30.5 454,-30.5 454,-0.5 248,-0.5"/>
<text text-anchor="start" x="256" y="-18.5" font-family="serif" font-size="10.00">MassDiffusionFluxNLFormIntegrator</text>
<text text-anchor="middle" x="351" y="-7.5" font-family="serif" font-size="10.00">::get_parameters</text>
</a>
</g>
</g>
<!-- Node1&#45;&gt;Node2 -->
<g id="edge1" class="edge">
<title>Node1&#45;&gt;Node2</title>
<path fill="none" stroke="midnightblue" d="M212.17,-15.5C220.56,-15.5 229.05,-15.5 237.49,-15.5"/>
<polygon fill="midnightblue" stroke="midnightblue" points="237.74,-19 247.74,-15.5 237.74,-12 237.74,-19"/>
</g>
<!-- Node3 -->
<g id="node3" class="node">
<title>Node3</title>
<g id="a_node3"><a xlink:href="classDiffusionFluxNLFormIntegrator.html#a5027621500f571e2661507036f13edf5" target="_top" xlink:title="Return parameters required by these integrators.">
<polygon fill="none" stroke="black" points="490,-0.5 490,-30.5 669,-30.5 669,-0.5 490,-0.5"/>
<text text-anchor="start" x="498" y="-18.5" font-family="serif" font-size="10.00">DiffusionFluxNLFormIntegrator</text>
<text text-anchor="middle" x="579.5" y="-7.5" font-family="serif" font-size="10.00">::get_parameters</text>
</a>
</g>
</g>
<!-- Node2&#45;&gt;Node3 -->
<g id="edge2" class="edge">
<title>Node2&#45;&gt;Node3</title>
<path fill="none" stroke="midnightblue" d="M454.32,-15.5C462.73,-15.5 471.23,-15.5 479.63,-15.5"/>
<polygon fill="midnightblue" stroke="midnightblue" points="479.8,-19 489.8,-15.5 479.8,-12 479.8,-19"/>
</g>
</g>
</svg>
