<?xml version="1.0" encoding="UTF-8" standalone="no"?>
<!DOCTYPE svg PUBLIC "-//W3C//DTD SVG 1.1//EN"
 "http://www.w3.org/Graphics/SVG/1.1/DTD/svg11.dtd">
<!-- Generated by graphviz version 2.43.0 (0)
 -->
<!-- Title: ConductivityFunctions.hpp Pages: 1 -->
<svg width="256pt" height="196pt"
 viewBox="0.00 0.00 255.50 196.00" xmlns="http://www.w3.org/2000/svg" xmlns:xlink="http://www.w3.org/1999/xlink">
<g id="graph0" class="graph" transform="scale(1 1) rotate(0) translate(4 192)">
<title>ConductivityFunctions.hpp</title>
<!-- Node1 -->
<g id="node1" class="node">
<title>Node1</title>
<g id="a_node1"><a xlink:title="Conductivity functions.">
<polygon fill="#bfbfbf" stroke="black" points="92.5,-168.5 92.5,-187.5 247.5,-187.5 247.5,-168.5 92.5,-168.5"/>
<text text-anchor="middle" x="170" y="-175.5" font-family="serif" font-size="10.00">ConductivityFunctions.hpp</text>
</a>
</g>
</g>
<!-- Node2 -->
<g id="node2" class="node">
<title>Node2</title>
<g id="a_node2"><a xlink:href="ConductivityCoefficient_8hpp.html" target="_top" xlink:title="Class dedicated to Conductivity coefficient.">
<polygon fill="none" stroke="black" points="38,-112.5 38,-131.5 196,-131.5 196,-112.5 38,-112.5"/>
<text text-anchor="middle" x="117" y="-119.5" font-family="serif" font-size="10.00">ConductivityCoefficient.hpp</text>
</a>
</g>
</g>
<!-- Node1&#45;&gt;Node2 -->
<g id="edge1" class="edge">
<title>Node1&#45;&gt;Node2</title>
<path fill="none" stroke="midnightblue" d="M154.02,-160.72C144.68,-151.2 133.25,-139.56 125.59,-131.75"/>
<polygon fill="midnightblue" stroke="midnightblue" points="151.75,-163.4 161.25,-168.08 156.74,-158.49 151.75,-163.4"/>
</g>
<!-- Node4 -->
<g id="node4" class="node">
<title>Node4</title>
<g id="a_node4"><a xlink:href="sloth_8hpp.html" target="_top" xlink:title="List of all header files contained in the kernel directory.">
<polygon fill="none" stroke="black" points="153.5,-0.5 153.5,-19.5 218.5,-19.5 218.5,-0.5 153.5,-0.5"/>
<text text-anchor="middle" x="186" y="-7.5" font-family="serif" font-size="10.00">sloth.hpp</text>
</a>
</g>
</g>
<!-- Node1&#45;&gt;Node4 -->
<g id="edge5" class="edge">
<title>Node1&#45;&gt;Node4</title>
<path fill="none" stroke="midnightblue" d="M186.65,-161.04C193.77,-153.08 201.28,-142.84 205,-132 218.87,-91.57 199.25,-40.04 190.17,-19.76"/>
<polygon fill="midnightblue" stroke="midnightblue" points="183.95,-158.81 179.56,-168.45 189,-163.65 183.95,-158.81"/>
</g>
<!-- Node3 -->
<g id="node3" class="node">
<title>Node3</title>
<g id="a_node3"><a xlink:href="HeatNLFormIntegrator_8hpp.html" target="_top" xlink:title="FV for the heat transfer equation.">
<polygon fill="none" stroke="black" points="0,-56.5 0,-75.5 158,-75.5 158,-56.5 0,-56.5"/>
<text text-anchor="middle" x="79" y="-63.5" font-family="serif" font-size="10.00">HeatNLFormIntegrator.hpp</text>
</a>
</g>
</g>
<!-- Node2&#45;&gt;Node3 -->
<g id="edge2" class="edge">
<title>Node2&#45;&gt;Node3</title>
<path fill="none" stroke="midnightblue" d="M104.94,-103.86C98.36,-94.5 90.49,-83.33 85.16,-75.75"/>
<polygon fill="midnightblue" stroke="midnightblue" points="102.11,-105.92 110.73,-112.08 107.83,-101.89 102.11,-105.92"/>
</g>
<!-- Node2&#45;&gt;Node4 -->
<g id="edge4" class="edge">
<title>Node2&#45;&gt;Node4</title>
<path fill="none" stroke="midnightblue" d="M138.64,-105.95C148.55,-98.06 159.69,-87.62 167,-76 178.39,-57.88 183.19,-32.67 185.01,-19.61"/>
<polygon fill="midnightblue" stroke="midnightblue" points="136.24,-103.38 130.37,-112.19 140.46,-108.96 136.24,-103.38"/>
</g>
<!-- Node3&#45;&gt;Node4 -->
<g id="edge3" class="edge">
<title>Node3&#45;&gt;Node4</title>
<path fill="none" stroke="midnightblue" d="M105.3,-51.73C125.11,-41.73 151.71,-28.31 168.85,-19.65"/>
<polygon fill="midnightblue" stroke="midnightblue" points="103.54,-48.69 96.19,-56.32 106.7,-54.94 103.54,-48.69"/>
</g>
</g>
</svg>
