<?xml version="1.0" encoding="UTF-8" standalone="no"?>
<!DOCTYPE svg PUBLIC "-//W3C//DTD SVG 1.1//EN"
 "http://www.w3.org/Graphics/SVG/1.1/DTD/svg11.dtd">
<!-- Generated by graphviz version 2.43.0 (0)
 -->
<!-- Title: ConductivityCoefficient.hpp Pages: 1 -->
<svg width="219pt" height="140pt"
 viewBox="0.00 0.00 219.00 140.00" xmlns="http://www.w3.org/2000/svg" xmlns:xlink="http://www.w3.org/1999/xlink">
<g id="graph0" class="graph" transform="scale(1 1) rotate(0) translate(4 136)">
<title>ConductivityCoefficient.hpp</title>
<!-- Node1 -->
<g id="node1" class="node">
<title>Node1</title>
<g id="a_node1"><a xlink:title="Class dedicated to Conductivity coefficient.">
<polygon fill="#bfbfbf" stroke="black" points="53,-112.5 53,-131.5 211,-131.5 211,-112.5 53,-112.5"/>
<text text-anchor="middle" x="132" y="-119.5" font-family="serif" font-size="10.00">ConductivityCoefficient.hpp</text>
</a>
</g>
</g>
<!-- Node2 -->
<g id="node2" class="node">
<title>Node2</title>
<g id="a_node2"><a xlink:href="HeatNLFormIntegrator_8hpp.html" target="_top" xlink:title="FV for the heat transfer equation.">
<polygon fill="none" stroke="black" points="0,-56.5 0,-75.5 158,-75.5 158,-56.5 0,-56.5"/>
<text text-anchor="middle" x="79" y="-63.5" font-family="serif" font-size="10.00">HeatNLFormIntegrator.hpp</text>
</a>
</g>
</g>
<!-- Node1&#45;&gt;Node2 -->
<g id="edge1" class="edge">
<title>Node1&#45;&gt;Node2</title>
<path fill="none" stroke="midnightblue" d="M116.02,-104.72C106.68,-95.2 95.25,-83.56 87.59,-75.75"/>
<polygon fill="midnightblue" stroke="midnightblue" points="113.75,-107.4 123.25,-112.08 118.74,-102.49 113.75,-107.4"/>
</g>
<!-- Node3 -->
<g id="node3" class="node">
<title>Node3</title>
<g id="a_node3"><a xlink:href="sloth_8hpp.html" target="_top" xlink:title="List of all header files contained in the kernel directory.">
<polygon fill="none" stroke="black" points="99.5,-0.5 99.5,-19.5 164.5,-19.5 164.5,-0.5 99.5,-0.5"/>
<text text-anchor="middle" x="132" y="-7.5" font-family="serif" font-size="10.00">sloth.hpp</text>
</a>
</g>
</g>
<!-- Node1&#45;&gt;Node3 -->
<g id="edge3" class="edge">
<title>Node1&#45;&gt;Node3</title>
<path fill="none" stroke="midnightblue" d="M148.65,-105.04C155.77,-97.08 163.28,-86.84 167,-76 174.32,-54.66 155.03,-31.94 142.26,-19.82"/>
<polygon fill="midnightblue" stroke="midnightblue" points="145.95,-102.81 141.56,-112.45 151,-107.65 145.95,-102.81"/>
</g>
<!-- Node2&#45;&gt;Node3 -->
<g id="edge2" class="edge">
<title>Node2&#45;&gt;Node3</title>
<path fill="none" stroke="midnightblue" d="M94.98,-48.72C104.32,-39.2 115.75,-27.56 123.41,-19.75"/>
<polygon fill="midnightblue" stroke="midnightblue" points="92.26,-46.49 87.75,-56.08 97.25,-51.4 92.26,-46.49"/>
</g>
</g>
</svg>
