<?xml version="1.0" encoding="UTF-8" standalone="no"?>
<!DOCTYPE svg PUBLIC "-//W3C//DTD SVG 1.1//EN"
 "http://www.w3.org/Graphics/SVG/1.1/DTD/svg11.dtd">
<!-- Generated by graphviz version 2.43.0 (0)
 -->
<!-- Title: Convergence.hpp Pages: 1 -->
<svg width="424pt" height="196pt"
 viewBox="0.00 0.00 424.00 196.00" xmlns="http://www.w3.org/2000/svg" xmlns:xlink="http://www.w3.org/1999/xlink">
<g id="graph0" class="graph" transform="scale(1 1) rotate(0) translate(4 192)">
<title>Convergence.hpp</title>
<!-- Node1 -->
<g id="node1" class="node">
<title>Node1</title>
<g id="a_node1"><a xlink:title="Class used to build and manage PhysicalConvergence.">
<polygon fill="#bfbfbf" stroke="black" points="141,-168.5 141,-187.5 248,-187.5 248,-168.5 141,-168.5"/>
<text text-anchor="middle" x="194.5" y="-175.5" font-family="serif" font-size="10.00">Convergence.hpp</text>
</a>
</g>
</g>
<!-- Node2 -->
<g id="node2" class="node">
<title>Node2</title>
<g id="a_node2"><a xlink:href="Calphad__problem_8hpp.html" target="_top" xlink:title="Class used to defined a Calphad_Problem objet.">
<polygon fill="none" stroke="black" points="0,-56.5 0,-75.5 131,-75.5 131,-56.5 0,-56.5"/>
<text text-anchor="middle" x="65.5" y="-63.5" font-family="serif" font-size="10.00">Calphad_problem.hpp</text>
</a>
</g>
</g>
<!-- Node1&#45;&gt;Node2 -->
<g id="edge1" class="edge">
<title>Node1&#45;&gt;Node2</title>
<path fill="none" stroke="midnightblue" d="M176.69,-161.82C149.22,-138.39 97.39,-94.19 75.58,-75.59"/>
<polygon fill="midnightblue" stroke="midnightblue" points="174.5,-164.54 184.38,-168.37 179.04,-159.22 174.5,-164.54"/>
</g>
<!-- Node3 -->
<g id="node3" class="node">
<title>Node3</title>
<g id="a_node3"><a xlink:href="sloth_8hpp.html" target="_top" xlink:title="List of all header files contained in the kernel directory.">
<polygon fill="none" stroke="black" points="165,-0.5 165,-19.5 230,-19.5 230,-0.5 165,-0.5"/>
<text text-anchor="middle" x="197.5" y="-7.5" font-family="serif" font-size="10.00">sloth.hpp</text>
</a>
</g>
</g>
<!-- Node1&#45;&gt;Node3 -->
<g id="edge9" class="edge">
<title>Node1&#45;&gt;Node3</title>
<path fill="none" stroke="midnightblue" d="M186.94,-158.78C183.99,-150.72 180.97,-141.04 179.5,-132 172.66,-89.86 187.66,-39.3 194.42,-19.52"/>
<polygon fill="midnightblue" stroke="midnightblue" points="183.74,-160.21 190.64,-168.25 190.26,-157.66 183.74,-160.21"/>
</g>
<!-- Node4 -->
<g id="node4" class="node">
<title>Node4</title>
<g id="a_node4"><a xlink:href="Problem_8hpp.html" target="_top" xlink:title="Class used to defined a Problem objet.">
<polygon fill="none" stroke="black" points="188,-112.5 188,-131.5 271,-131.5 271,-112.5 188,-112.5"/>
<text text-anchor="middle" x="229.5" y="-119.5" font-family="serif" font-size="10.00">Problem.hpp</text>
</a>
</g>
</g>
<!-- Node1&#45;&gt;Node4 -->
<g id="edge3" class="edge">
<title>Node1&#45;&gt;Node4</title>
<path fill="none" stroke="midnightblue" d="M205.8,-159.57C211.82,-150.27 218.97,-139.25 223.83,-131.75"/>
<polygon fill="midnightblue" stroke="midnightblue" points="202.78,-157.79 200.28,-168.08 208.66,-161.6 202.78,-157.79"/>
</g>
<!-- Node6 -->
<g id="node6" class="node">
<title>Node6</title>
<g id="a_node6"><a xlink:href="PropertyProblem_8hpp.html" target="_top" xlink:title="Class used to compute primary variables as a function of auxialiary variables.">
<polygon fill="none" stroke="black" points="289,-112.5 289,-131.5 416,-131.5 416,-112.5 289,-112.5"/>
<text text-anchor="middle" x="352.5" y="-119.5" font-family="serif" font-size="10.00">PropertyProblem.hpp</text>
</a>
</g>
</g>
<!-- Node1&#45;&gt;Node6 -->
<g id="edge7" class="edge">
<title>Node1&#45;&gt;Node6</title>
<path fill="none" stroke="midnightblue" d="M229.11,-165.17C258.86,-155 301.05,-140.59 327.58,-131.52"/>
<polygon fill="midnightblue" stroke="midnightblue" points="227.87,-161.9 219.54,-168.44 230.13,-168.52 227.87,-161.9"/>
</g>
<!-- Node2&#45;&gt;Node3 -->
<g id="edge2" class="edge">
<title>Node2&#45;&gt;Node3</title>
<path fill="none" stroke="midnightblue" d="M95.72,-52.64C120.49,-42.5 154.9,-28.43 176.68,-19.52"/>
<polygon fill="midnightblue" stroke="midnightblue" points="94.35,-49.42 86.42,-56.44 97,-55.9 94.35,-49.42"/>
</g>
<!-- Node4&#45;&gt;Node3 -->
<g id="edge4" class="edge">
<title>Node4&#45;&gt;Node3</title>
<path fill="none" stroke="midnightblue" d="M224.17,-102.67C217.17,-78.62 205.18,-37.39 200,-19.59"/>
<polygon fill="midnightblue" stroke="midnightblue" points="220.83,-103.74 226.99,-112.37 227.56,-101.79 220.83,-103.74"/>
</g>
<!-- Node5 -->
<g id="node5" class="node">
<title>Node5</title>
<g id="a_node5"><a xlink:href="Time_8hpp.html" target="_top" xlink:title="Main time loop.">
<polygon fill="none" stroke="black" points="226,-56.5 226,-75.5 291,-75.5 291,-56.5 226,-56.5"/>
<text text-anchor="middle" x="258.5" y="-63.5" font-family="serif" font-size="10.00">Time.hpp</text>
</a>
</g>
</g>
<!-- Node4&#45;&gt;Node5 -->
<g id="edge5" class="edge">
<title>Node4&#45;&gt;Node5</title>
<path fill="none" stroke="midnightblue" d="M239.18,-102.98C244.1,-93.82 249.86,-83.09 253.8,-75.75"/>
<polygon fill="midnightblue" stroke="midnightblue" points="235.94,-101.62 234.29,-112.08 242.1,-104.93 235.94,-101.62"/>
</g>
<!-- Node5&#45;&gt;Node3 -->
<g id="edge6" class="edge">
<title>Node5&#45;&gt;Node3</title>
<path fill="none" stroke="midnightblue" d="M241.03,-49.54C230.16,-39.91 216.56,-27.87 207.48,-19.83"/>
<polygon fill="midnightblue" stroke="midnightblue" points="238.89,-52.32 248.7,-56.32 243.53,-47.07 238.89,-52.32"/>
</g>
<!-- Node6&#45;&gt;Node3 -->
<g id="edge8" class="edge">
<title>Node6&#45;&gt;Node3</title>
<path fill="none" stroke="midnightblue" d="M341.89,-103.44C332.5,-89.1 317.65,-69.14 300.5,-56 278.35,-39.02 248.81,-26.97 227.04,-19.64"/>
<polygon fill="midnightblue" stroke="midnightblue" points="339.19,-105.71 347.48,-112.31 345.11,-101.98 339.19,-105.71"/>
</g>
</g>
</svg>
