<?xml version="1.0" encoding="UTF-8" standalone="no"?>
<!DOCTYPE svg PUBLIC "-//W3C//DTD SVG 1.1//EN"
 "http://www.w3.org/Graphics/SVG/1.1/DTD/svg11.dtd">
<!-- Generated by graphviz version 2.43.0 (0)
 -->
<!-- Title: Convergence.hpp Pages: 1 -->
<!--zoomable 252 -->
<svg id="main" version="1.1" xmlns="http://www.w3.org/2000/svg" xmlns:xlink="http://www.w3.org/1999/xlink" xml:space="preserve" onload="init(evt)">
<style type="text/css"><![CDATA[
.edge:hover path { stroke: red; }
.edge:hover polygon { stroke: red; fill: red; }
]]></style>
<script type="text/javascript"><![CDATA[
var edges = document.getElementsByTagName('g');
if (edges && edges.length) {
  for (var i=0;i<edges.length;i++) {
    if (edges[i].id.substr(0,4)=='edge') {
      edges[i].setAttribute('class','edge');
    }
  }
}
]]></script>
        <defs>
                <circle id="rim" cx="0" cy="0" r="7"/>
                <circle id="rim2" cx="0" cy="0" r="3.5"/>
                <g id="zoomPlus">
                        <use xlink:href="#rim" fill="#404040">
                                <set attributeName="fill" to="#808080" begin="zoomplus.mouseover" end="zoomplus.mouseout"/>
                        </use>
                        <path d="M-4,0h8M0,-4v8" fill="none" stroke="white" stroke-width="1.5" pointer-events="none"/>
                </g>
                <g id="zoomMin">
                        <use xlink:href="#rim" fill="#404040">
                                <set attributeName="fill" to="#808080" begin="zoomminus.mouseover" end="zoomminus.mouseout"/>
                        </use>
                        <path d="M-4,0h8" fill="none" stroke="white" stroke-width="1.5" pointer-events="none"/>
                </g>
                <g id="dirArrow">
                        <path fill="none" stroke="white" stroke-width="1.5" d="M0,-3.0v7 M-2.5,-0.5L0,-3.0L2.5,-0.5"/>
                </g>
               <g id="resetDef">
                       <use xlink:href="#rim2" fill="#404040">
                               <set attributeName="fill" to="#808080" begin="reset.mouseover" end="reset.mouseout"/>
                       </use>
               </g>
        </defs>

<script type="text/javascript">
var viewWidth = 1465;
var viewHeight = 252;
var sectionId = 'dynsection-0';
</script>
<script xlink:href="svgpan.js"/>
<svg id="graph" class="graph">
<g id="viewport">
<title>Convergence.hpp</title>
<!-- Node1 -->
<g id="node1" class="node">
<title>Node1</title>
<g id="a_node1"><a xlink:title="Class used to build and manage PhysicalConvergence.">
<polygon fill="#bfbfbf" stroke="black" points="448,-224.5 448,-243.5 555,-243.5 555,-224.5 448,-224.5"/>
<text text-anchor="middle" x="501.5" y="-231.5" font-family="serif" font-size="10.00">Convergence.hpp</text>
</a>
</g>
</g>
<!-- Node2 -->
<g id="node2" class="node">
<title>Node2</title>
<g id="a_node2"><a xlink:title=" ">
<polygon fill="none" stroke="#bfbfbf" points="404.5,-0.5 404.5,-19.5 470.5,-19.5 470.5,-0.5 404.5,-0.5"/>
<text text-anchor="middle" x="437.5" y="-7.5" font-family="serif" font-size="10.00">algorithm</text>
</a>
</g>
</g>
<!-- Node1&#45;&gt;Node2 -->
<g id="edge1" class="edge">
<title>Node1&#45;&gt;Node2</title>
<path fill="none" stroke="midnightblue" d="M447.96,-226.56C423.76,-220.68 397.32,-209.44 382.5,-188 346.73,-136.24 397.69,-60.29 423.76,-27.3"/>
<polygon fill="midnightblue" stroke="midnightblue" points="426.48,-29.5 430.07,-19.53 421.05,-25.08 426.48,-29.5"/>
</g>
<!-- Node3 -->
<g id="node3" class="node">
<title>Node3</title>
<g id="a_node3"><a xlink:title=" ">
<polygon fill="none" stroke="#bfbfbf" points="271.5,-0.5 271.5,-19.5 315.5,-19.5 315.5,-0.5 271.5,-0.5"/>
<text text-anchor="middle" x="293.5" y="-7.5" font-family="serif" font-size="10.00">limits</text>
</a>
</g>
</g>
<!-- Node1&#45;&gt;Node3 -->
<g id="edge2" class="edge">
<title>Node1&#45;&gt;Node3</title>
<path fill="none" stroke="midnightblue" d="M447.82,-228.74C416.64,-223.6 378.67,-212.39 353.5,-188 308.5,-144.4 297.25,-65.87 294.44,-29.91"/>
<polygon fill="midnightblue" stroke="midnightblue" points="297.92,-29.58 293.79,-19.83 290.94,-30.03 297.92,-29.58"/>
</g>
<!-- Node4 -->
<g id="node4" class="node">
<title>Node4</title>
<g id="a_node4"><a xlink:title=" ">
<polygon fill="none" stroke="#bfbfbf" points="340,-0.5 340,-19.5 383,-19.5 383,-0.5 340,-0.5"/>
<text text-anchor="middle" x="361.5" y="-7.5" font-family="serif" font-size="10.00">tuple</text>
</a>
</g>
</g>
<!-- Node1&#45;&gt;Node4 -->
<g id="edge3" class="edge">
<title>Node1&#45;&gt;Node4</title>
<path fill="none" stroke="midnightblue" d="M447.67,-229C419.4,-223.88 386.89,-212.6 368.5,-188 333.1,-140.66 346.91,-64.64 355.99,-29.68"/>
<polygon fill="midnightblue" stroke="midnightblue" points="359.42,-30.43 358.71,-19.86 352.67,-28.57 359.42,-30.43"/>
</g>
<!-- Node5 -->
<g id="node5" class="node">
<title>Node5</title>
<g id="a_node5"><a xlink:title=" ">
<polygon fill="none" stroke="#bfbfbf" points="488.5,-0.5 488.5,-19.5 536.5,-19.5 536.5,-0.5 488.5,-0.5"/>
<text text-anchor="middle" x="512.5" y="-7.5" font-family="serif" font-size="10.00">vector</text>
</a>
</g>
</g>
<!-- Node1&#45;&gt;Node5 -->
<g id="edge4" class="edge">
<title>Node1&#45;&gt;Node5</title>
<path fill="none" stroke="midnightblue" d="M555.04,-226.56C579.24,-220.68 605.68,-209.44 620.5,-188 625.55,-180.69 624.5,-175.94 620.5,-168 589.65,-106.7 527.35,-137.3 496.5,-76 488.93,-60.96 495.05,-42.13 501.79,-28.62"/>
<polygon fill="midnightblue" stroke="midnightblue" points="504.86,-30.29 506.62,-19.84 498.73,-26.92 504.86,-30.29"/>
</g>
<!-- Node6 -->
<g id="node6" class="node">
<title>Node6</title>
<g id="a_node6"><a xlink:href="PhysicalConvergence_8hpp.html" target="_top" xlink:title="Class used to define a PhysicalConvergence criterion (physical increment allowed per time&#45;step)">
<polygon fill="none" stroke="black" points="391.5,-168.5 391.5,-187.5 611.5,-187.5 611.5,-168.5 391.5,-168.5"/>
<text text-anchor="middle" x="501.5" y="-175.5" font-family="serif" font-size="10.00">Convergence/PhysicalConvergence.hpp</text>
</a>
</g>
</g>
<!-- Node1&#45;&gt;Node6 -->
<g id="edge5" class="edge">
<title>Node1&#45;&gt;Node6</title>
<path fill="none" stroke="midnightblue" d="M501.5,-224.08C501.5,-217.01 501.5,-206.86 501.5,-197.99"/>
<polygon fill="midnightblue" stroke="midnightblue" points="505,-197.75 501.5,-187.75 498,-197.75 505,-197.75"/>
</g>
<!-- Node7 -->
<g id="node7" class="node">
<title>Node7</title>
<g id="a_node7"><a xlink:href="Utils_8hpp.html" target="_top" xlink:title="List of all Utils files.">
<polygon fill="none" stroke="black" points="633,-112.5 633,-131.5 722,-131.5 722,-112.5 633,-112.5"/>
<text text-anchor="middle" x="677.5" y="-119.5" font-family="serif" font-size="10.00">Utils/Utils.hpp</text>
</a>
</g>
</g>
<!-- Node1&#45;&gt;Node7 -->
<g id="edge57" class="edge">
<title>Node1&#45;&gt;Node7</title>
<path fill="none" stroke="midnightblue" d="M555.27,-229.03C587.4,-224.02 626.98,-212.83 653.5,-188 666.38,-175.95 672.38,-156.38 675.15,-141.86"/>
<polygon fill="midnightblue" stroke="midnightblue" points="678.61,-142.36 676.71,-131.94 671.7,-141.28 678.61,-142.36"/>
</g>
<!-- Node18 -->
<g id="node18" class="node">
<title>Node18</title>
<g id="a_node18"><a xlink:title=" ">
<polygon fill="none" stroke="#bfbfbf" points="1388,-0.5 1388,-19.5 1457,-19.5 1457,-0.5 1388,-0.5"/>
<text text-anchor="middle" x="1422.5" y="-7.5" font-family="serif" font-size="10.00">mfem.hpp</text>
</a>
</g>
</g>
<!-- Node1&#45;&gt;Node18 -->
<g id="edge58" class="edge">
<title>Node1&#45;&gt;Node18</title>
<path fill="none" stroke="midnightblue" d="M539.35,-224.45C641.52,-201.32 931.39,-135.21 1171.5,-76 1245.3,-57.8 1330.95,-35.33 1380.71,-22.14"/>
<polygon fill="midnightblue" stroke="midnightblue" points="1381.7,-25.5 1390.47,-19.55 1379.9,-18.73 1381.7,-25.5"/>
</g>
<!-- Node6&#45;&gt;Node2 -->
<g id="edge6" class="edge">
<title>Node6&#45;&gt;Node2</title>
<path fill="none" stroke="midnightblue" d="M490.62,-168.2C481.13,-159.89 467.78,-146.56 460.5,-132 443.83,-98.64 439.2,-54.59 437.94,-29.88"/>
<polygon fill="midnightblue" stroke="midnightblue" points="441.43,-29.59 437.56,-19.72 434.44,-29.85 441.43,-29.59"/>
</g>
<!-- Node6&#45;&gt;Node3 -->
<g id="edge7" class="edge">
<title>Node6&#45;&gt;Node3</title>
<path fill="none" stroke="midnightblue" d="M484.87,-168.45C469.04,-160.02 444.83,-146.34 425.5,-132 379.96,-98.22 332.31,-51.16 308.67,-26.88"/>
<polygon fill="midnightblue" stroke="midnightblue" points="311.08,-24.34 301.61,-19.58 306.04,-29.2 311.08,-24.34"/>
</g>
<!-- Node6&#45;&gt;Node4 -->
<g id="edge8" class="edge">
<title>Node6&#45;&gt;Node4</title>
<path fill="none" stroke="midnightblue" d="M489.58,-168.49C478.1,-159.97 460.6,-146.15 447.5,-132 416.27,-98.28 386.82,-52.82 371.82,-28.34"/>
<polygon fill="midnightblue" stroke="midnightblue" points="374.81,-26.53 366.64,-19.78 368.82,-30.15 374.81,-26.53"/>
</g>
<!-- Node6&#45;&gt;Node5 -->
<g id="edge9" class="edge">
<title>Node6&#45;&gt;Node5</title>
<path fill="none" stroke="midnightblue" d="M494.53,-168.26C479.28,-148 445.7,-96.52 463.5,-56 468.89,-43.73 479.46,-33.34 489.4,-25.65"/>
<polygon fill="midnightblue" stroke="midnightblue" points="491.75,-28.27 497.84,-19.6 487.67,-22.58 491.75,-28.27"/>
</g>
<!-- Node6&#45;&gt;Node7 -->
<g id="edge10" class="edge">
<title>Node6&#45;&gt;Node7</title>
<path fill="none" stroke="midnightblue" d="M529.39,-168.44C559.25,-159.28 606.81,-144.69 639.96,-134.52"/>
<polygon fill="midnightblue" stroke="midnightblue" points="641.21,-137.8 649.74,-131.52 639.16,-131.1 641.21,-137.8"/>
</g>
<!-- Node6&#45;&gt;Node18 -->
<g id="edge56" class="edge">
<title>Node6&#45;&gt;Node18</title>
<path fill="none" stroke="midnightblue" d="M574.81,-168.48C698.51,-153.54 956.26,-119.97 1171.5,-76 1247.26,-60.52 1334.36,-36.55 1383.48,-22.45"/>
<polygon fill="midnightblue" stroke="midnightblue" points="1384.72,-25.73 1393.36,-19.6 1382.78,-19.01 1384.72,-25.73"/>
</g>
<!-- Node8 -->
<g id="node8" class="node">
<title>Node8</title>
<g id="a_node8"><a xlink:href="UtilsForData_8hpp.html" target="_top" xlink:title="Usefull methods for data.">
<polygon fill="none" stroke="black" points="871,-56.5 871,-75.5 1002,-75.5 1002,-56.5 871,-56.5"/>
<text text-anchor="middle" x="936.5" y="-63.5" font-family="serif" font-size="10.00">Utils/UtilsForData.hpp</text>
</a>
</g>
</g>
<!-- Node7&#45;&gt;Node8 -->
<g id="edge11" class="edge">
<title>Node7&#45;&gt;Node8</title>
<path fill="none" stroke="midnightblue" d="M718.54,-112.44C763.82,-103 836.73,-87.8 885.61,-77.61"/>
<polygon fill="midnightblue" stroke="midnightblue" points="886.58,-80.98 895.65,-75.52 885.15,-74.13 886.58,-80.98"/>
</g>
<!-- Node19 -->
<g id="node19" class="node">
<title>Node19</title>
<g id="a_node19"><a xlink:href="UtilsForDebug_8hpp.html" target="_top" xlink:title="Usefull methods for debug.">
<polygon fill="none" stroke="black" points="1021,-56.5 1021,-75.5 1162,-75.5 1162,-56.5 1021,-56.5"/>
<text text-anchor="middle" x="1091.5" y="-63.5" font-family="serif" font-size="10.00">Utils/UtilsForDebug.hpp</text>
</a>
</g>
</g>
<!-- Node7&#45;&gt;Node19 -->
<g id="edge25" class="edge">
<title>Node7&#45;&gt;Node19</title>
<path fill="none" stroke="midnightblue" d="M722.2,-115.17C792.69,-105.98 930.48,-88 1016.37,-76.8"/>
<polygon fill="midnightblue" stroke="midnightblue" points="1016.86,-80.27 1026.32,-75.5 1015.95,-73.32 1016.86,-80.27"/>
</g>
<!-- Node22 -->
<g id="node22" class="node">
<title>Node22</title>
<g id="a_node22"><a xlink:href="UtilsForOptions_8hpp.html" target="_top" xlink:title="Usefull methods for Options.">
<polygon fill="none" stroke="black" points="505.5,-56.5 505.5,-75.5 651.5,-75.5 651.5,-56.5 505.5,-56.5"/>
<text text-anchor="middle" x="578.5" y="-63.5" font-family="serif" font-size="10.00">Utils/UtilsForOptions.hpp</text>
</a>
</g>
</g>
<!-- Node7&#45;&gt;Node22 -->
<g id="edge35" class="edge">
<title>Node7&#45;&gt;Node22</title>
<path fill="none" stroke="midnightblue" d="M661.59,-112.32C645.86,-103.74 621.56,-90.49 603.29,-80.52"/>
<polygon fill="midnightblue" stroke="midnightblue" points="604.82,-77.37 594.37,-75.65 601.47,-83.52 604.82,-77.37"/>
</g>
<!-- Node24 -->
<g id="node24" class="node">
<title>Node24</title>
<g id="a_node24"><a xlink:href="UtilsForPostProcessing_8hpp.html" target="_top" xlink:title="Usefull methods for post&#45;processing.">
<polygon fill="none" stroke="black" points="670,-56.5 670,-75.5 853,-75.5 853,-56.5 670,-56.5"/>
<text text-anchor="middle" x="761.5" y="-63.5" font-family="serif" font-size="10.00">Utils/UtilsForPostProcessing.hpp</text>
</a>
</g>
</g>
<!-- Node7&#45;&gt;Node24 -->
<g id="edge45" class="edge">
<title>Node7&#45;&gt;Node24</title>
<path fill="none" stroke="midnightblue" d="M691,-112.32C704.1,-103.9 724.21,-90.97 739.61,-81.07"/>
<polygon fill="midnightblue" stroke="midnightblue" points="741.52,-84.01 748.04,-75.65 737.73,-78.12 741.52,-84.01"/>
</g>
<!-- Node25 -->
<g id="node25" class="node">
<title>Node25</title>
<g id="a_node25"><a xlink:href="UtilsForVariants_8hpp.html" target="_top" xlink:title="manage std::Variants">
<polygon fill="none" stroke="black" points="35.5,-56.5 35.5,-75.5 183.5,-75.5 183.5,-56.5 35.5,-56.5"/>
<text text-anchor="middle" x="109.5" y="-63.5" font-family="serif" font-size="10.00">Utils/UtilsForVariants.hpp</text>
</a>
</g>
</g>
<!-- Node7&#45;&gt;Node25 -->
<g id="edge52" class="edge">
<title>Node7&#45;&gt;Node25</title>
<path fill="none" stroke="midnightblue" d="M632.93,-116.76C538.3,-107.77 316.01,-86.63 193.75,-75.01"/>
<polygon fill="midnightblue" stroke="midnightblue" points="193.97,-71.51 183.68,-74.05 193.31,-78.48 193.97,-71.51"/>
</g>
<!-- Node8&#45;&gt;Node2 -->
<g id="edge15" class="edge">
<title>Node8&#45;&gt;Node2</title>
<path fill="none" stroke="midnightblue" d="M870.74,-56.91C867.96,-56.6 865.2,-56.29 862.5,-56 695.75,-38.03 650.21,-45.65 480.91,-20.06"/>
<polygon fill="midnightblue" stroke="midnightblue" points="481.32,-16.58 470.91,-18.53 480.26,-23.5 481.32,-16.58"/>
</g>
<!-- Node8&#45;&gt;Node4 -->
<g id="edge21" class="edge">
<title>Node8&#45;&gt;Node4</title>
<path fill="none" stroke="midnightblue" d="M870.75,-56.85C867.96,-56.55 865.2,-56.27 862.5,-56 655.35,-35.43 600.75,-54.78 395.5,-20 394.75,-19.87 394,-19.74 393.25,-19.6"/>
<polygon fill="midnightblue" stroke="midnightblue" points="393.84,-16.14 383.32,-17.4 392.33,-22.98 393.84,-16.14"/>
</g>
<!-- Node8&#45;&gt;Node5 -->
<g id="edge23" class="edge">
<title>Node8&#45;&gt;Node5</title>
<path fill="none" stroke="midnightblue" d="M870.74,-56.98C867.95,-56.64 865.2,-56.32 862.5,-56 722.12,-39.47 685.41,-46.15 546.5,-20 546.4,-19.98 546.3,-19.96 546.2,-19.94"/>
<polygon fill="midnightblue" stroke="midnightblue" points="547.06,-16.55 536.55,-17.83 545.57,-23.39 547.06,-16.55"/>
</g>
<!-- Node9 -->
<g id="node9" class="node">
<title>Node9</title>
<g id="a_node9"><a xlink:title=" ">
<polygon fill="none" stroke="#bfbfbf" points="1063,-0.5 1063,-19.5 1122,-19.5 1122,-0.5 1063,-0.5"/>
<text text-anchor="middle" x="1092.5" y="-7.5" font-family="serif" font-size="10.00">unistd.h</text>
</a>
</g>
</g>
<!-- Node8&#45;&gt;Node9 -->
<g id="edge12" class="edge">
<title>Node8&#45;&gt;Node9</title>
<path fill="none" stroke="midnightblue" d="M961.22,-56.44C987.35,-47.4 1028.76,-33.06 1058.08,-22.92"/>
<polygon fill="midnightblue" stroke="midnightblue" points="1059.59,-26.1 1067.9,-19.52 1057.3,-19.48 1059.59,-26.1"/>
</g>
<!-- Node10 -->
<g id="node10" class="node">
<title>Node10</title>
<g id="a_node10"><a xlink:title=" ">
<polygon fill="none" stroke="#bfbfbf" points="994.5,-0.5 994.5,-19.5 1044.5,-19.5 1044.5,-0.5 994.5,-0.5"/>
<text text-anchor="middle" x="1019.5" y="-7.5" font-family="serif" font-size="10.00">cctype</text>
</a>
</g>
</g>
<!-- Node8&#45;&gt;Node10 -->
<g id="edge13" class="edge">
<title>Node8&#45;&gt;Node10</title>
<path fill="none" stroke="midnightblue" d="M949.84,-56.32C962.66,-47.98 982.28,-35.21 997.44,-25.35"/>
<polygon fill="midnightblue" stroke="midnightblue" points="999.72,-28.04 1006.2,-19.65 995.91,-22.17 999.72,-28.04"/>
</g>
<!-- Node11 -->
<g id="node11" class="node">
<title>Node11</title>
<g id="a_node11"><a xlink:title=" ">
<polygon fill="none" stroke="#bfbfbf" points="1140,-0.5 1140,-19.5 1187,-19.5 1187,-0.5 1140,-0.5"/>
<text text-anchor="middle" x="1163.5" y="-7.5" font-family="serif" font-size="10.00">cstdio</text>
</a>
</g>
</g>
<!-- Node8&#45;&gt;Node11 -->
<g id="edge14" class="edge">
<title>Node8&#45;&gt;Node11</title>
<path fill="none" stroke="midnightblue" d="M975.85,-56.49C1013.25,-48.28 1071.29,-35.21 1129.97,-20.31"/>
<polygon fill="midnightblue" stroke="midnightblue" points="1130.95,-23.68 1139.77,-17.81 1129.21,-16.89 1130.95,-23.68"/>
</g>
<!-- Node12 -->
<g id="node12" class="node">
<title>Node12</title>
<g id="a_node12"><a xlink:title=" ">
<polygon fill="none" stroke="#bfbfbf" points="850.5,-0.5 850.5,-19.5 918.5,-19.5 918.5,-0.5 850.5,-0.5"/>
<text text-anchor="middle" x="884.5" y="-7.5" font-family="serif" font-size="10.00">filesystem</text>
</a>
</g>
</g>
<!-- Node8&#45;&gt;Node12 -->
<g id="edge16" class="edge">
<title>Node8&#45;&gt;Node12</title>
<path fill="none" stroke="midnightblue" d="M927.91,-56.08C920.34,-48.22 909.12,-36.57 899.99,-27.08"/>
<polygon fill="midnightblue" stroke="midnightblue" points="902.38,-24.53 892.93,-19.75 897.34,-29.38 902.38,-24.53"/>
</g>
<!-- Node13 -->
<g id="node13" class="node">
<title>Node13</title>
<g id="a_node13"><a xlink:title=" ">
<polygon fill="none" stroke="#bfbfbf" points="764.5,-0.5 764.5,-19.5 832.5,-19.5 832.5,-0.5 764.5,-0.5"/>
<text text-anchor="middle" x="798.5" y="-7.5" font-family="serif" font-size="10.00">functional</text>
</a>
</g>
</g>
<!-- Node8&#45;&gt;Node13 -->
<g id="edge17" class="edge">
<title>Node8&#45;&gt;Node13</title>
<path fill="none" stroke="midnightblue" d="M914.63,-56.44C891.72,-47.48 855.52,-33.31 829.63,-23.18"/>
<polygon fill="midnightblue" stroke="midnightblue" points="830.85,-19.9 820.26,-19.52 828.3,-26.42 830.85,-19.9"/>
</g>
<!-- Node14 -->
<g id="node14" class="node">
<title>Node14</title>
<g id="a_node14"><a xlink:title=" ">
<polygon fill="none" stroke="#bfbfbf" points="685,-0.5 685,-19.5 746,-19.5 746,-0.5 685,-0.5"/>
<text text-anchor="middle" x="715.5" y="-7.5" font-family="serif" font-size="10.00">iostream</text>
</a>
</g>
</g>
<!-- Node8&#45;&gt;Node14 -->
<g id="edge18" class="edge">
<title>Node8&#45;&gt;Node14</title>
<path fill="none" stroke="midnightblue" d="M901.48,-56.44C861.9,-46.77 797.58,-31.05 755.9,-20.87"/>
<polygon fill="midnightblue" stroke="midnightblue" points="756.63,-17.45 746.08,-18.47 754.97,-24.25 756.63,-17.45"/>
</g>
<!-- Node15 -->
<g id="node15" class="node">
<title>Node15</title>
<g id="a_node15"><a xlink:title=" ">
<polygon fill="none" stroke="#bfbfbf" points="937,-0.5 937,-19.5 976,-19.5 976,-0.5 937,-0.5"/>
<text text-anchor="middle" x="956.5" y="-7.5" font-family="serif" font-size="10.00">map</text>
</a>
</g>
</g>
<!-- Node8&#45;&gt;Node15 -->
<g id="edge19" class="edge">
<title>Node8&#45;&gt;Node15</title>
<path fill="none" stroke="midnightblue" d="M939.8,-56.08C942.48,-48.85 946.35,-38.41 949.69,-29.4"/>
<polygon fill="midnightblue" stroke="midnightblue" points="953.07,-30.34 953.26,-19.75 946.5,-27.91 953.07,-30.34"/>
</g>
<!-- Node16 -->
<g id="node16" class="node">
<title>Node16</title>
<g id="a_node16"><a xlink:title=" ">
<polygon fill="none" stroke="#bfbfbf" points="555,-0.5 555,-19.5 602,-19.5 602,-0.5 555,-0.5"/>
<text text-anchor="middle" x="578.5" y="-7.5" font-family="serif" font-size="10.00">string</text>
</a>
</g>
</g>
<!-- Node8&#45;&gt;Node16 -->
<g id="edge20" class="edge">
<title>Node8&#45;&gt;Node16</title>
<path fill="none" stroke="midnightblue" d="M870.69,-56.91C794.85,-47.41 673.79,-31.69 612.27,-19.87"/>
<polygon fill="midnightblue" stroke="midnightblue" points="612.7,-16.39 602.21,-17.86 611.33,-23.25 612.7,-16.39"/>
</g>
<!-- Node17 -->
<g id="node17" class="node">
<title>Node17</title>
<g id="a_node17"><a xlink:title=" ">
<polygon fill="none" stroke="#bfbfbf" points="620.5,-0.5 620.5,-19.5 666.5,-19.5 666.5,-0.5 620.5,-0.5"/>
<text text-anchor="middle" x="643.5" y="-7.5" font-family="serif" font-size="10.00">utility</text>
</a>
</g>
</g>
<!-- Node8&#45;&gt;Node17 -->
<g id="edge22" class="edge">
<title>Node8&#45;&gt;Node17</title>
<path fill="none" stroke="midnightblue" d="M877.85,-56.48C824.95,-48.4 745.14,-35.26 676.5,-20 676.4,-19.98 676.3,-19.95 676.2,-19.93"/>
<polygon fill="midnightblue" stroke="midnightblue" points="677.05,-16.54 666.51,-17.57 675.4,-23.34 677.05,-16.54"/>
</g>
<!-- Node8&#45;&gt;Node18 -->
<g id="edge24" class="edge">
<title>Node8&#45;&gt;Node18</title>
<path fill="none" stroke="midnightblue" d="M1002.4,-57.11C1005.82,-56.73 1009.2,-56.36 1012.5,-56 1171.67,-38.75 1215.11,-44.17 1377.61,-19.97"/>
<polygon fill="midnightblue" stroke="midnightblue" points="1378.61,-23.36 1387.97,-18.41 1377.56,-16.44 1378.61,-23.36"/>
</g>
<!-- Node19&#45;&gt;Node9 -->
<g id="edge27" class="edge">
<title>Node19&#45;&gt;Node9</title>
<path fill="none" stroke="midnightblue" d="M1091.67,-56.08C1091.8,-49.01 1091.98,-38.86 1092.15,-29.99"/>
<polygon fill="midnightblue" stroke="midnightblue" points="1095.65,-29.81 1092.34,-19.75 1088.65,-29.68 1095.65,-29.81"/>
</g>
<!-- Node19&#45;&gt;Node11 -->
<g id="edge28" class="edge">
<title>Node19&#45;&gt;Node11</title>
<path fill="none" stroke="midnightblue" d="M1103.07,-56.32C1113.92,-48.18 1130.38,-35.84 1143.38,-26.09"/>
<polygon fill="midnightblue" stroke="midnightblue" points="1145.82,-28.63 1151.72,-19.83 1141.62,-23.03 1145.82,-28.63"/>
</g>
<!-- Node19&#45;&gt;Node13 -->
<g id="edge30" class="edge">
<title>Node19&#45;&gt;Node13</title>
<path fill="none" stroke="midnightblue" d="M1041.62,-56.45C993.27,-48.06 917.61,-34.69 842.82,-20.22"/>
<polygon fill="midnightblue" stroke="midnightblue" points="843.23,-16.73 832.75,-18.26 841.9,-23.6 843.23,-16.73"/>
</g>
<!-- Node19&#45;&gt;Node14 -->
<g id="edge31" class="edge">
<title>Node19&#45;&gt;Node14</title>
<path fill="none" stroke="midnightblue" d="M1022.44,-56.48C943.86,-46.67 819.26,-30.71 756,-19.91"/>
<polygon fill="midnightblue" stroke="midnightblue" points="756.47,-16.44 746.02,-18.16 755.26,-23.34 756.47,-16.44"/>
</g>
<!-- Node19&#45;&gt;Node16 -->
<g id="edge32" class="edge">
<title>Node19&#45;&gt;Node16</title>
<path fill="none" stroke="midnightblue" d="M1020.84,-56.96C1017.68,-56.63 1014.56,-56.31 1011.5,-56 837.12,-38.35 788.91,-51.13 612.07,-19.77"/>
<polygon fill="midnightblue" stroke="midnightblue" points="612.64,-16.32 602.18,-18 611.4,-23.21 612.64,-16.32"/>
</g>
<!-- Node19&#45;&gt;Node17 -->
<g id="edge33" class="edge">
<title>Node19&#45;&gt;Node17</title>
<path fill="none" stroke="midnightblue" d="M1020.83,-57.03C1017.68,-56.68 1014.56,-56.34 1011.5,-56 865.85,-39.98 825.37,-47.45 676.78,-19.73"/>
<polygon fill="midnightblue" stroke="midnightblue" points="677.3,-16.27 666.83,-17.86 676.01,-23.15 677.3,-16.27"/>
</g>
<!-- Node19&#45;&gt;Node18 -->
<g id="edge34" class="edge">
<title>Node19&#45;&gt;Node18</title>
<path fill="none" stroke="midnightblue" d="M1151,-56.49C1206.92,-48.31 1293.2,-35.21 1377.89,-20.04"/>
<polygon fill="midnightblue" stroke="midnightblue" points="1378.72,-23.44 1387.94,-18.23 1377.48,-16.56 1378.72,-23.44"/>
</g>
<!-- Node20 -->
<g id="node20" class="node">
<title>Node20</title>
<g id="a_node20"><a xlink:title=" ">
<polygon fill="none" stroke="#bfbfbf" points="1205.5,-0.5 1205.5,-19.5 1295.5,-19.5 1295.5,-0.5 1205.5,-0.5"/>
<text text-anchor="middle" x="1250.5" y="-7.5" font-family="serif" font-size="10.00">sys/resource.h</text>
</a>
</g>
</g>
<!-- Node19&#45;&gt;Node20 -->
<g id="edge26" class="edge">
<title>Node19&#45;&gt;Node20</title>
<path fill="none" stroke="midnightblue" d="M1116.69,-56.44C1143.44,-47.36 1185.9,-32.94 1215.81,-22.78"/>
<polygon fill="midnightblue" stroke="midnightblue" points="1217.08,-26.05 1225.42,-19.52 1214.83,-19.42 1217.08,-26.05"/>
</g>
<!-- Node21 -->
<g id="node21" class="node">
<title>Node21</title>
<g id="a_node21"><a xlink:title=" ">
<polygon fill="none" stroke="#bfbfbf" points="1313.5,-0.5 1313.5,-19.5 1369.5,-19.5 1369.5,-0.5 1313.5,-0.5"/>
<text text-anchor="middle" x="1341.5" y="-7.5" font-family="serif" font-size="10.00">fstream</text>
</a>
</g>
</g>
<!-- Node19&#45;&gt;Node21 -->
<g id="edge29" class="edge">
<title>Node19&#45;&gt;Node21</title>
<path fill="none" stroke="midnightblue" d="M1133.61,-56.5C1174.54,-48.14 1238.7,-34.82 1303.29,-20.23"/>
<polygon fill="midnightblue" stroke="midnightblue" points="1304.26,-23.59 1313.24,-17.97 1302.71,-16.77 1304.26,-23.59"/>
</g>
<!-- Node22&#45;&gt;Node2 -->
<g id="edge36" class="edge">
<title>Node22&#45;&gt;Node2</title>
<path fill="none" stroke="midnightblue" d="M556.16,-56.44C532.75,-47.48 495.76,-33.31 469.31,-23.18"/>
<polygon fill="midnightblue" stroke="midnightblue" points="470.33,-19.82 459.74,-19.52 467.82,-26.36 470.33,-19.82"/>
</g>
<!-- Node22&#45;&gt;Node3 -->
<g id="edge39" class="edge">
<title>Node22&#45;&gt;Node3</title>
<path fill="none" stroke="midnightblue" d="M527.26,-56.47C477.2,-47.95 398.91,-34.11 331.5,-20 329.56,-19.59 327.57,-19.16 325.56,-18.72"/>
<polygon fill="midnightblue" stroke="midnightblue" points="326.09,-15.25 315.56,-16.43 324.53,-22.07 326.09,-15.25"/>
</g>
<!-- Node22&#45;&gt;Node4 -->
<g id="edge41" class="edge">
<title>Node22&#45;&gt;Node4</title>
<path fill="none" stroke="midnightblue" d="M543.03,-56.47C506.13,-47.56 446.7,-33.07 395.5,-20 394.62,-19.78 393.73,-19.55 392.83,-19.31"/>
<polygon fill="midnightblue" stroke="midnightblue" points="393.63,-15.91 383.07,-16.77 391.86,-22.68 393.63,-15.91"/>
</g>
<!-- Node22&#45;&gt;Node5 -->
<g id="edge44" class="edge">
<title>Node22&#45;&gt;Node5</title>
<path fill="none" stroke="midnightblue" d="M567.9,-56.32C558.04,-48.26 543.15,-36.08 531.28,-26.37"/>
<polygon fill="midnightblue" stroke="midnightblue" points="533.25,-23.46 523.3,-19.83 528.82,-28.88 533.25,-23.46"/>
</g>
<!-- Node22&#45;&gt;Node13 -->
<g id="edge37" class="edge">
<title>Node22&#45;&gt;Node13</title>
<path fill="none" stroke="midnightblue" d="M613.36,-56.44C651.53,-47.07 712.82,-32.03 754.33,-21.84"/>
<polygon fill="midnightblue" stroke="midnightblue" points="755.29,-25.21 764.17,-19.43 753.62,-18.41 755.29,-25.21"/>
</g>
<!-- Node22&#45;&gt;Node14 -->
<g id="edge38" class="edge">
<title>Node22&#45;&gt;Node14</title>
<path fill="none" stroke="midnightblue" d="M600.21,-56.44C622.85,-47.52 658.57,-33.44 684.25,-23.32"/>
<polygon fill="midnightblue" stroke="midnightblue" points="685.87,-26.44 693.89,-19.52 683.31,-19.93 685.87,-26.44"/>
</g>
<!-- Node22&#45;&gt;Node16 -->
<g id="edge40" class="edge">
<title>Node22&#45;&gt;Node16</title>
<path fill="none" stroke="midnightblue" d="M578.5,-56.08C578.5,-49.01 578.5,-38.86 578.5,-29.99"/>
<polygon fill="midnightblue" stroke="midnightblue" points="582,-29.75 578.5,-19.75 575,-29.75 582,-29.75"/>
</g>
<!-- Node22&#45;&gt;Node17 -->
<g id="edge42" class="edge">
<title>Node22&#45;&gt;Node17</title>
<path fill="none" stroke="midnightblue" d="M588.94,-56.32C598.65,-48.26 613.32,-36.08 625,-26.37"/>
<polygon fill="midnightblue" stroke="midnightblue" points="627.41,-28.92 632.87,-19.83 622.94,-23.53 627.41,-28.92"/>
</g>
<!-- Node23 -->
<g id="node23" class="node">
<title>Node23</title>
<g id="a_node23"><a xlink:title=" ">
<polygon fill="none" stroke="#bfbfbf" points="189,-0.5 189,-19.5 242,-19.5 242,-0.5 189,-0.5"/>
<text text-anchor="middle" x="215.5" y="-7.5" font-family="serif" font-size="10.00">variant</text>
</a>
</g>
</g>
<!-- Node22&#45;&gt;Node23 -->
<g id="edge43" class="edge">
<title>Node22&#45;&gt;Node23</title>
<path fill="none" stroke="midnightblue" d="M512.08,-56.48C448.04,-48.04 348.45,-34.34 262.5,-20 259.22,-19.45 255.82,-18.86 252.42,-18.24"/>
<polygon fill="midnightblue" stroke="midnightblue" points="252.77,-14.75 242.3,-16.36 251.5,-21.63 252.77,-14.75"/>
</g>
<!-- Node24&#45;&gt;Node2 -->
<g id="edge46" class="edge">
<title>Node24&#45;&gt;Node2</title>
<path fill="none" stroke="midnightblue" d="M702.2,-56.47C647.26,-48.35 563.03,-35.38 480.94,-20.19"/>
<polygon fill="midnightblue" stroke="midnightblue" points="481.41,-16.72 470.94,-18.33 480.13,-23.6 481.41,-16.72"/>
</g>
<!-- Node24&#45;&gt;Node3 -->
<g id="edge48" class="edge">
<title>Node24&#45;&gt;Node3</title>
<path fill="none" stroke="midnightblue" d="M669.82,-56.8C563.38,-47.03 394.4,-30.69 331.5,-20 329.54,-19.67 327.54,-19.29 325.52,-18.89"/>
<polygon fill="midnightblue" stroke="midnightblue" points="326.02,-15.42 315.51,-16.72 324.53,-22.26 326.02,-15.42"/>
</g>
<!-- Node24&#45;&gt;Node5 -->
<g id="edge51" class="edge">
<title>Node24&#45;&gt;Node5</title>
<path fill="none" stroke="midnightblue" d="M717.29,-56.45C673.72,-47.86 605.32,-33.93 546.5,-20 546.4,-19.98 546.3,-19.95 546.2,-19.93"/>
<polygon fill="midnightblue" stroke="midnightblue" points="547.16,-16.56 536.61,-17.55 545.47,-23.35 547.16,-16.56"/>
</g>
<!-- Node24&#45;&gt;Node14 -->
<g id="edge47" class="edge">
<title>Node24&#45;&gt;Node14</title>
<path fill="none" stroke="midnightblue" d="M753.9,-56.08C747.27,-48.3 737.48,-36.8 729.44,-27.37"/>
<polygon fill="midnightblue" stroke="midnightblue" points="732.1,-25.09 722.95,-19.75 726.77,-29.63 732.1,-25.09"/>
</g>
<!-- Node24&#45;&gt;Node16 -->
<g id="edge49" class="edge">
<title>Node24&#45;&gt;Node16</title>
<path fill="none" stroke="midnightblue" d="M732.5,-56.44C699.66,-46.75 646.25,-30.99 611.75,-20.81"/>
<polygon fill="midnightblue" stroke="midnightblue" points="612.71,-17.44 602.12,-17.97 610.72,-24.16 612.71,-17.44"/>
</g>
<!-- Node24&#45;&gt;Node17 -->
<g id="edge50" class="edge">
<title>Node24&#45;&gt;Node17</title>
<path fill="none" stroke="midnightblue" d="M742.8,-56.44C723.56,-47.64 693.35,-33.81 671.3,-23.72"/>
<polygon fill="midnightblue" stroke="midnightblue" points="672.66,-20.5 662.11,-19.52 669.75,-26.86 672.66,-20.5"/>
</g>
<!-- Node25&#45;&gt;Node23 -->
<g id="edge55" class="edge">
<title>Node25&#45;&gt;Node23</title>
<path fill="none" stroke="midnightblue" d="M126.53,-56.32C143.53,-47.66 169.88,-34.24 189.49,-24.25"/>
<polygon fill="midnightblue" stroke="midnightblue" points="191.19,-27.31 198.51,-19.65 188.01,-21.08 191.19,-27.31"/>
</g>
<!-- Node26 -->
<g id="node26" class="node">
<title>Node26</title>
<g id="a_node26"><a xlink:title=" ">
<polygon fill="none" stroke="#bfbfbf" points="0,-0.5 0,-19.5 59,-19.5 59,-0.5 0,-0.5"/>
<text text-anchor="middle" x="29.5" y="-7.5" font-family="serif" font-size="10.00">memory</text>
</a>
</g>
</g>
<!-- Node25&#45;&gt;Node26 -->
<g id="edge53" class="edge">
<title>Node25&#45;&gt;Node26</title>
<path fill="none" stroke="midnightblue" d="M96.65,-56.32C84.28,-47.98 65.37,-35.21 50.76,-25.35"/>
<polygon fill="midnightblue" stroke="midnightblue" points="52.57,-22.35 42.32,-19.65 48.65,-28.15 52.57,-22.35"/>
</g>
<!-- Node27 -->
<g id="node27" class="node">
<title>Node27</title>
<g id="a_node27"><a xlink:title=" ">
<polygon fill="none" stroke="#bfbfbf" points="77,-0.5 77,-19.5 148,-19.5 148,-0.5 77,-0.5"/>
<text text-anchor="middle" x="112.5" y="-7.5" font-family="serif" font-size="10.00">type_traits</text>
</a>
</g>
</g>
<!-- Node25&#45;&gt;Node27 -->
<g id="edge54" class="edge">
<title>Node25&#45;&gt;Node27</title>
<path fill="none" stroke="midnightblue" d="M110,-56.08C110.39,-49.01 110.95,-38.86 111.45,-29.99"/>
<polygon fill="midnightblue" stroke="midnightblue" points="114.95,-29.93 112.01,-19.75 107.96,-29.54 114.95,-29.93"/>
</g>
</g>
</svg>
        <g id="navigator" transform="translate(0 0)" fill="#404254">
                <rect fill="#f2f5e9" fill-opacity="0.5" stroke="#606060" stroke-width=".5" x="0" y="0" width="60" height="60"/>
                <use id="zoomplus" xlink:href="#zoomPlus" x="17" y="9" onmousedown="handleZoom(evt,'in')"/>
                <use id="zoomminus" xlink:href="#zoomMin" x="42" y="9" onmousedown="handleZoom(evt,'out')"/>
                <use id="reset" xlink:href="#resetDef" x="30" y="36" onmousedown="handleReset()"/>
                <g id="arrowUp" xlink:href="#dirArrow" transform="translate(30 24)" onmousedown="handlePan(0,-1)">
                  <use xlink:href="#rim" fill="#404040">
                        <set attributeName="fill" to="#808080" begin="arrowUp.mouseover" end="arrowUp.mouseout"/>
                  </use>
                  <path fill="none" stroke="white" stroke-width="1.5" d="M0,-3.0v7 M-2.5,-0.5L0,-3.0L2.5,-0.5"/>
                </g>
                <g id="arrowRight" xlink:href="#dirArrow" transform="rotate(90) translate(36 -43)" onmousedown="handlePan(1,0)">
                  <use xlink:href="#rim" fill="#404040">
                        <set attributeName="fill" to="#808080" begin="arrowRight.mouseover" end="arrowRight.mouseout"/>
                  </use>
                  <path fill="none" stroke="white" stroke-width="1.5" d="M0,-3.0v7 M-2.5,-0.5L0,-3.0L2.5,-0.5"/>
                </g>
                <g id="arrowDown" xlink:href="#dirArrow" transform="rotate(180) translate(-30 -48)" onmousedown="handlePan(0,1)">
                  <use xlink:href="#rim" fill="#404040">
                        <set attributeName="fill" to="#808080" begin="arrowDown.mouseover" end="arrowDown.mouseout"/>
                  </use>
                  <path fill="none" stroke="white" stroke-width="1.5" d="M0,-3.0v7 M-2.5,-0.5L0,-3.0L2.5,-0.5"/>
                </g>
                <g id="arrowLeft" xlink:href="#dirArrow" transform="rotate(270) translate(-36 17)" onmousedown="handlePan(-1,0)">
                  <use xlink:href="#rim" fill="#404040">
                        <set attributeName="fill" to="#808080" begin="arrowLeft.mouseover" end="arrowLeft.mouseout"/>
                  </use>
                  <path fill="none" stroke="white" stroke-width="1.5" d="M0,-3.0v7 M-2.5,-0.5L0,-3.0L2.5,-0.5"/>
                </g>
        </g>
        <svg viewBox="0 0 15 15" width="100%" height="30px" preserveAspectRatio="xMaxYMin meet">
         <g id="arrow_out" transform="scale(0.3 0.3)">
          <a xlink:href="Convergence_8hpp__incl_org.svg" target="_base">
           <rect id="button" ry="5" rx="5" y="6" x="6" height="38" width="38"
                fill="#f2f5e9" fill-opacity="0.5" stroke="#606060" stroke-width="1.0"/>
           <path id="arrow"
             d="M 11.500037,31.436501 C 11.940474,20.09759 22.043105,11.32322 32.158766,21.979434 L 37.068811,17.246167 C 37.068811,17.246167 37.088388,32 37.088388,32 L 22.160133,31.978069 C 22.160133,31.978069 26.997745,27.140456 26.997745,27.140456 C 18.528582,18.264221 13.291696,25.230495 11.500037,31.436501 z"
             style="fill:#404040;"/>
          </a>
         </g>
        </svg>
</svg>
