<?xml version="1.0" encoding="UTF-8" standalone="no"?>
<!DOCTYPE svg PUBLIC "-//W3C//DTD SVG 1.1//EN"
 "http://www.w3.org/Graphics/SVG/1.1/DTD/svg11.dtd">
<!-- Generated by graphviz version 2.43.0 (0)
 -->
<!-- Title: Coupling.hpp Pages: 1 -->
<svg width="697pt" height="140pt"
 viewBox="0.00 0.00 697.00 140.00" xmlns="http://www.w3.org/2000/svg" xmlns:xlink="http://www.w3.org/1999/xlink">
<g id="graph0" class="graph" transform="scale(1 1) rotate(0) translate(4 136)">
<title>Coupling.hpp</title>
<!-- Node1 -->
<g id="node1" class="node">
<title>Node1</title>
<g id="a_node1"><a xlink:title="Class to define a Coupling object.">
<polygon fill="#bfbfbf" stroke="black" points="284.5,-112.5 284.5,-131.5 370.5,-131.5 370.5,-112.5 284.5,-112.5"/>
<text text-anchor="middle" x="327.5" y="-119.5" font-family="serif" font-size="10.00">Coupling.hpp</text>
</a>
</g>
</g>
<!-- Node2 -->
<g id="node2" class="node">
<title>Node2</title>
<g id="a_node2"><a xlink:title=" ">
<polygon fill="none" stroke="#bfbfbf" points="0,-0.5 0,-19.5 47,-19.5 47,-0.5 0,-0.5"/>
<text text-anchor="middle" x="23.5" y="-7.5" font-family="serif" font-size="10.00">string</text>
</a>
</g>
</g>
<!-- Node1&#45;&gt;Node2 -->
<g id="edge1" class="edge">
<title>Node1&#45;&gt;Node2</title>
<path fill="none" stroke="midnightblue" d="M286.89,-112.45C252.23,-104.63 201.35,-91.86 158.5,-76 118.52,-61.2 74.41,-38.72 47.83,-24.45"/>
<polygon fill="midnightblue" stroke="midnightblue" points="49.34,-21.28 38.88,-19.59 46,-27.43 49.34,-21.28"/>
</g>
<!-- Node3 -->
<g id="node3" class="node">
<title>Node3</title>
<g id="a_node3"><a xlink:title=" ">
<polygon fill="none" stroke="#bfbfbf" points="406,-56.5 406,-75.5 449,-75.5 449,-56.5 406,-56.5"/>
<text text-anchor="middle" x="427.5" y="-63.5" font-family="serif" font-size="10.00">tuple</text>
</a>
</g>
</g>
<!-- Node1&#45;&gt;Node3 -->
<g id="edge2" class="edge">
<title>Node1&#45;&gt;Node3</title>
<path fill="none" stroke="midnightblue" d="M343.57,-112.32C359.46,-103.74 384.01,-90.49 402.46,-80.52"/>
<polygon fill="midnightblue" stroke="midnightblue" points="404.34,-83.49 411.47,-75.65 401.01,-77.33 404.34,-83.49"/>
</g>
<!-- Node4 -->
<g id="node4" class="node">
<title>Node4</title>
<g id="a_node4"><a xlink:title=" ">
<polygon fill="none" stroke="#bfbfbf" points="65.5,-0.5 65.5,-19.5 111.5,-19.5 111.5,-0.5 65.5,-0.5"/>
<text text-anchor="middle" x="88.5" y="-7.5" font-family="serif" font-size="10.00">utility</text>
</a>
</g>
</g>
<!-- Node1&#45;&gt;Node4 -->
<g id="edge3" class="edge">
<title>Node1&#45;&gt;Node4</title>
<path fill="none" stroke="midnightblue" d="M298.15,-112.45C271.79,-104.35 232.31,-91.2 199.5,-76 167.05,-60.97 131.77,-39.31 109.89,-25.2"/>
<polygon fill="midnightblue" stroke="midnightblue" points="111.67,-22.18 101.38,-19.65 107.85,-28.04 111.67,-22.18"/>
</g>
<!-- Node5 -->
<g id="node5" class="node">
<title>Node5</title>
<g id="a_node5"><a xlink:title=" ">
<polygon fill="none" stroke="#bfbfbf" points="467.5,-56.5 467.5,-75.5 515.5,-75.5 515.5,-56.5 467.5,-56.5"/>
<text text-anchor="middle" x="491.5" y="-63.5" font-family="serif" font-size="10.00">vector</text>
</a>
</g>
</g>
<!-- Node1&#45;&gt;Node5 -->
<g id="edge4" class="edge">
<title>Node1&#45;&gt;Node5</title>
<path fill="none" stroke="midnightblue" d="M353.49,-112.44C381.69,-103.16 426.81,-88.3 457.74,-78.12"/>
<polygon fill="midnightblue" stroke="midnightblue" points="458.84,-81.44 467.24,-74.99 456.65,-74.79 458.84,-81.44"/>
</g>
<!-- Node6 -->
<g id="node6" class="node">
<title>Node6</title>
<g id="a_node6"><a xlink:href="UtilsForDebug_8hpp.html" target="_top" xlink:title="Usefull methods for debug.">
<polygon fill="none" stroke="black" points="208,-56.5 208,-75.5 349,-75.5 349,-56.5 208,-56.5"/>
<text text-anchor="middle" x="278.5" y="-63.5" font-family="serif" font-size="10.00">Utils/UtilsForDebug.hpp</text>
</a>
</g>
</g>
<!-- Node1&#45;&gt;Node6 -->
<g id="edge5" class="edge">
<title>Node1&#45;&gt;Node6</title>
<path fill="none" stroke="midnightblue" d="M319.41,-112.08C312.34,-104.3 301.91,-92.8 293.35,-83.37"/>
<polygon fill="midnightblue" stroke="midnightblue" points="295.75,-80.8 286.44,-75.75 290.57,-85.51 295.75,-80.8"/>
</g>
<!-- Node13 -->
<g id="node13" class="node">
<title>Node13</title>
<g id="a_node13"><a xlink:title=" ">
<polygon fill="none" stroke="#bfbfbf" points="620,-0.5 620,-19.5 689,-19.5 689,-0.5 620,-0.5"/>
<text text-anchor="middle" x="654.5" y="-7.5" font-family="serif" font-size="10.00">mfem.hpp</text>
</a>
</g>
</g>
<!-- Node1&#45;&gt;Node13 -->
<g id="edge15" class="edge">
<title>Node1&#45;&gt;Node13</title>
<path fill="none" stroke="midnightblue" d="M334.13,-112.13C345.41,-97.76 369.83,-69.63 397.5,-56 481.15,-14.81 514.49,-36.33 609.75,-20.19"/>
<polygon fill="midnightblue" stroke="midnightblue" points="610.56,-23.6 619.79,-18.39 609.33,-16.71 610.56,-23.6"/>
</g>
<!-- Node6&#45;&gt;Node2 -->
<g id="edge12" class="edge">
<title>Node6&#45;&gt;Node2</title>
<path fill="none" stroke="midnightblue" d="M231.96,-56.5C189.02,-48.44 123.28,-35.58 57.02,-20"/>
<polygon fill="midnightblue" stroke="midnightblue" points="57.78,-16.58 47.24,-17.68 56.17,-23.39 57.78,-16.58"/>
</g>
<!-- Node6&#45;&gt;Node4 -->
<g id="edge13" class="edge">
<title>Node6&#45;&gt;Node4</title>
<path fill="none" stroke="midnightblue" d="M248.39,-56.44C213.82,-46.62 157.29,-30.55 121.53,-20.39"/>
<polygon fill="midnightblue" stroke="midnightblue" points="122.17,-16.93 111.59,-17.56 120.25,-23.66 122.17,-16.93"/>
</g>
<!-- Node7 -->
<g id="node7" class="node">
<title>Node7</title>
<g id="a_node7"><a xlink:title=" ">
<polygon fill="none" stroke="#bfbfbf" points="369.5,-0.5 369.5,-19.5 459.5,-19.5 459.5,-0.5 369.5,-0.5"/>
<text text-anchor="middle" x="414.5" y="-7.5" font-family="serif" font-size="10.00">sys/resource.h</text>
</a>
</g>
</g>
<!-- Node6&#45;&gt;Node7 -->
<g id="edge6" class="edge">
<title>Node6&#45;&gt;Node7</title>
<path fill="none" stroke="midnightblue" d="M300.05,-56.44C322.53,-47.52 357.99,-33.44 383.48,-23.32"/>
<polygon fill="midnightblue" stroke="midnightblue" points="385.05,-26.46 393.05,-19.52 382.47,-19.95 385.05,-26.46"/>
</g>
<!-- Node8 -->
<g id="node8" class="node">
<title>Node8</title>
<g id="a_node8"><a xlink:title=" ">
<polygon fill="none" stroke="#bfbfbf" points="478,-0.5 478,-19.5 537,-19.5 537,-0.5 478,-0.5"/>
<text text-anchor="middle" x="507.5" y="-7.5" font-family="serif" font-size="10.00">unistd.h</text>
</a>
</g>
</g>
<!-- Node6&#45;&gt;Node8 -->
<g id="edge7" class="edge">
<title>Node6&#45;&gt;Node8</title>
<path fill="none" stroke="midnightblue" d="M314.79,-56.44C356.58,-46.59 425.02,-30.45 468.09,-20.29"/>
<polygon fill="midnightblue" stroke="midnightblue" points="469.01,-23.67 477.94,-17.97 467.4,-16.86 469.01,-23.67"/>
</g>
<!-- Node9 -->
<g id="node9" class="node">
<title>Node9</title>
<g id="a_node9"><a xlink:title=" ">
<polygon fill="none" stroke="#bfbfbf" points="555,-0.5 555,-19.5 602,-19.5 602,-0.5 555,-0.5"/>
<text text-anchor="middle" x="578.5" y="-7.5" font-family="serif" font-size="10.00">cstdio</text>
</a>
</g>
</g>
<!-- Node6&#45;&gt;Node9 -->
<g id="edge8" class="edge">
<title>Node6&#45;&gt;Node9</title>
<path fill="none" stroke="midnightblue" d="M340.88,-56.47C393.08,-48.89 469.71,-36.74 544.72,-20.22"/>
<polygon fill="midnightblue" stroke="midnightblue" points="545.81,-23.56 554.81,-17.97 544.28,-16.73 545.81,-23.56"/>
</g>
<!-- Node10 -->
<g id="node10" class="node">
<title>Node10</title>
<g id="a_node10"><a xlink:title=" ">
<polygon fill="none" stroke="#bfbfbf" points="129.5,-0.5 129.5,-19.5 185.5,-19.5 185.5,-0.5 129.5,-0.5"/>
<text text-anchor="middle" x="157.5" y="-7.5" font-family="serif" font-size="10.00">fstream</text>
</a>
</g>
</g>
<!-- Node6&#45;&gt;Node10 -->
<g id="edge9" class="edge">
<title>Node6&#45;&gt;Node10</title>
<path fill="none" stroke="midnightblue" d="M259.33,-56.44C239.59,-47.64 208.61,-33.81 186.01,-23.72"/>
<polygon fill="midnightblue" stroke="midnightblue" points="187.14,-20.4 176.58,-19.52 184.29,-26.79 187.14,-20.4"/>
</g>
<!-- Node11 -->
<g id="node11" class="node">
<title>Node11</title>
<g id="a_node11"><a xlink:title=" ">
<polygon fill="none" stroke="#bfbfbf" points="203.5,-0.5 203.5,-19.5 271.5,-19.5 271.5,-0.5 203.5,-0.5"/>
<text text-anchor="middle" x="237.5" y="-7.5" font-family="serif" font-size="10.00">functional</text>
</a>
</g>
</g>
<!-- Node6&#45;&gt;Node11 -->
<g id="edge10" class="edge">
<title>Node6&#45;&gt;Node11</title>
<path fill="none" stroke="midnightblue" d="M271.73,-56.08C265.94,-48.46 257.44,-37.26 250.36,-27.94"/>
<polygon fill="midnightblue" stroke="midnightblue" points="252.98,-25.6 244.14,-19.75 247.4,-29.83 252.98,-25.6"/>
</g>
<!-- Node12 -->
<g id="node12" class="node">
<title>Node12</title>
<g id="a_node12"><a xlink:title=" ">
<polygon fill="none" stroke="#bfbfbf" points="290,-0.5 290,-19.5 351,-19.5 351,-0.5 290,-0.5"/>
<text text-anchor="middle" x="320.5" y="-7.5" font-family="serif" font-size="10.00">iostream</text>
</a>
</g>
</g>
<!-- Node6&#45;&gt;Node12 -->
<g id="edge11" class="edge">
<title>Node6&#45;&gt;Node12</title>
<path fill="none" stroke="midnightblue" d="M285.44,-56.08C291.43,-48.38 300.25,-37.03 307.55,-27.65"/>
<polygon fill="midnightblue" stroke="midnightblue" points="310.32,-29.79 313.69,-19.75 304.79,-25.5 310.32,-29.79"/>
</g>
<!-- Node6&#45;&gt;Node13 -->
<g id="edge14" class="edge">
<title>Node6&#45;&gt;Node13</title>
<path fill="none" stroke="midnightblue" d="M349.21,-56.94C414.46,-49.16 514.27,-36.41 609.69,-20.22"/>
<polygon fill="midnightblue" stroke="midnightblue" points="610.54,-23.62 619.81,-18.48 609.36,-16.72 610.54,-23.62"/>
</g>
</g>
</svg>
