<?xml version="1.0" encoding="UTF-8" standalone="no"?>
<!DOCTYPE svg PUBLIC "-//W3C//DTD SVG 1.1//EN"
 "http://www.w3.org/Graphics/SVG/1.1/DTD/svg11.dtd">
<!-- Generated by graphviz version 2.43.0 (0)
 -->
<!-- Title: DensityFunctions.hpp Pages: 1 -->
<svg width="222pt" height="196pt"
 viewBox="0.00 0.00 222.00 196.00" xmlns="http://www.w3.org/2000/svg" xmlns:xlink="http://www.w3.org/1999/xlink">
<g id="graph0" class="graph" transform="scale(1 1) rotate(0) translate(4 192)">
<title>DensityFunctions.hpp</title>
<!-- Node1 -->
<g id="node1" class="node">
<title>Node1</title>
<g id="a_node1"><a xlink:title="Density functions.">
<polygon fill="#bfbfbf" stroke="black" points="85,-168.5 85,-187.5 214,-187.5 214,-168.5 85,-168.5"/>
<text text-anchor="middle" x="149.5" y="-175.5" font-family="serif" font-size="10.00">DensityFunctions.hpp</text>
</a>
</g>
</g>
<!-- Node2 -->
<g id="node2" class="node">
<title>Node2</title>
<g id="a_node2"><a xlink:href="DensityCoefficient_8hpp.html" target="_top" xlink:title="Class dedicated to Density coefficient.">
<polygon fill="none" stroke="black" points="36,-112.5 36,-131.5 169,-131.5 169,-112.5 36,-112.5"/>
<text text-anchor="middle" x="102.5" y="-119.5" font-family="serif" font-size="10.00">DensityCoefficient.hpp</text>
</a>
</g>
</g>
<!-- Node1&#45;&gt;Node2 -->
<g id="edge1" class="edge">
<title>Node1&#45;&gt;Node2</title>
<path fill="none" stroke="midnightblue" d="M135.08,-160.43C126.84,-150.97 116.85,-139.48 110.12,-131.75"/>
<polygon fill="midnightblue" stroke="midnightblue" points="132.53,-162.84 141.74,-168.08 137.81,-158.24 132.53,-162.84"/>
</g>
<!-- Node4 -->
<g id="node4" class="node">
<title>Node4</title>
<g id="a_node4"><a xlink:href="sloth_8hpp.html" target="_top" xlink:title="List of all header files contained in the kernel directory.">
<polygon fill="none" stroke="black" points="127,-0.5 127,-19.5 192,-19.5 192,-0.5 127,-0.5"/>
<text text-anchor="middle" x="159.5" y="-7.5" font-family="serif" font-size="10.00">sloth.hpp</text>
</a>
</g>
</g>
<!-- Node1&#45;&gt;Node4 -->
<g id="edge5" class="edge">
<title>Node1&#45;&gt;Node4</title>
<path fill="none" stroke="midnightblue" d="M163.01,-160.3C168.67,-152.25 174.6,-142.16 177.5,-132 189.23,-90.95 171.44,-39.77 163.26,-19.67"/>
<polygon fill="midnightblue" stroke="midnightblue" points="160.12,-158.31 156.91,-168.41 165.72,-162.52 160.12,-158.31"/>
</g>
<!-- Node3 -->
<g id="node3" class="node">
<title>Node3</title>
<g id="a_node3"><a xlink:href="DiffusionOperator_8hpp.html" target="_top" xlink:title="Diffusion operator (Base, Steady and TimeDependent)">
<polygon fill="none" stroke="black" points="0,-56.5 0,-75.5 131,-75.5 131,-56.5 0,-56.5"/>
<text text-anchor="middle" x="65.5" y="-63.5" font-family="serif" font-size="10.00">DiffusionOperator.hpp</text>
</a>
</g>
</g>
<!-- Node2&#45;&gt;Node3 -->
<g id="edge2" class="edge">
<title>Node2&#45;&gt;Node3</title>
<path fill="none" stroke="midnightblue" d="M90.55,-103.57C84.19,-94.27 76.63,-83.25 71.5,-75.75"/>
<polygon fill="midnightblue" stroke="midnightblue" points="87.85,-105.81 96.39,-112.08 93.63,-101.86 87.85,-105.81"/>
</g>
<!-- Node2&#45;&gt;Node4 -->
<g id="edge4" class="edge">
<title>Node2&#45;&gt;Node4</title>
<path fill="none" stroke="midnightblue" d="M118.14,-105.14C125.48,-96.98 133.82,-86.56 139.5,-76 149.56,-57.28 155.36,-32.75 157.92,-19.84"/>
<polygon fill="midnightblue" stroke="midnightblue" points="115.57,-102.76 111.29,-112.45 120.68,-107.55 115.57,-102.76"/>
</g>
<!-- Node3&#45;&gt;Node4 -->
<g id="edge3" class="edge">
<title>Node3&#45;&gt;Node4</title>
<path fill="none" stroke="midnightblue" d="M89.56,-51.18C106.86,-41.24 129.65,-28.15 144.43,-19.65"/>
<polygon fill="midnightblue" stroke="midnightblue" points="87.53,-48.31 80.6,-56.32 91.02,-54.38 87.53,-48.31"/>
</g>
</g>
</svg>
