<?xml version="1.0" encoding="UTF-8" standalone="no"?>
<!DOCTYPE svg PUBLIC "-//W3C//DTD SVG 1.1//EN"
 "http://www.w3.org/Graphics/SVG/1.1/DTD/svg11.dtd">
<!-- Generated by graphviz version 2.43.0 (0)
 -->
<!-- Title: DensityCoefficient.hpp Pages: 1 -->
<svg width="187pt" height="140pt"
 viewBox="0.00 0.00 187.00 140.00" xmlns="http://www.w3.org/2000/svg" xmlns:xlink="http://www.w3.org/1999/xlink">
<g id="graph0" class="graph" transform="scale(1 1) rotate(0) translate(4 136)">
<title>DensityCoefficient.hpp</title>
<!-- Node1 -->
<g id="node1" class="node">
<title>Node1</title>
<g id="a_node1"><a xlink:title="Class dedicated to Density coefficient.">
<polygon fill="#bfbfbf" stroke="black" points="46,-112.5 46,-131.5 179,-131.5 179,-112.5 46,-112.5"/>
<text text-anchor="middle" x="112.5" y="-119.5" font-family="serif" font-size="10.00">DensityCoefficient.hpp</text>
</a>
</g>
</g>
<!-- Node2 -->
<g id="node2" class="node">
<title>Node2</title>
<g id="a_node2"><a xlink:href="DiffusionOperator_8hpp.html" target="_top" xlink:title="Diffusion operator (Base, Steady and TimeDependent)">
<polygon fill="none" stroke="black" points="0,-56.5 0,-75.5 131,-75.5 131,-56.5 0,-56.5"/>
<text text-anchor="middle" x="65.5" y="-63.5" font-family="serif" font-size="10.00">DiffusionOperator.hpp</text>
</a>
</g>
</g>
<!-- Node1&#45;&gt;Node2 -->
<g id="edge1" class="edge">
<title>Node1&#45;&gt;Node2</title>
<path fill="none" stroke="midnightblue" d="M98.08,-104.43C89.84,-94.97 79.85,-83.48 73.12,-75.75"/>
<polygon fill="midnightblue" stroke="midnightblue" points="95.53,-106.84 104.74,-112.08 100.81,-102.24 95.53,-106.84"/>
</g>
<!-- Node3 -->
<g id="node3" class="node">
<title>Node3</title>
<g id="a_node3"><a xlink:href="sloth_8hpp.html" target="_top" xlink:title="List of all header files contained in the kernel directory.">
<polygon fill="none" stroke="black" points="80,-0.5 80,-19.5 145,-19.5 145,-0.5 80,-0.5"/>
<text text-anchor="middle" x="112.5" y="-7.5" font-family="serif" font-size="10.00">sloth.hpp</text>
</a>
</g>
</g>
<!-- Node1&#45;&gt;Node3 -->
<g id="edge3" class="edge">
<title>Node1&#45;&gt;Node3</title>
<path fill="none" stroke="midnightblue" d="M126.56,-104.5C135.81,-91.61 145.38,-73.09 140.5,-56 136.51,-42.02 126.78,-28.16 119.91,-19.59"/>
<polygon fill="midnightblue" stroke="midnightblue" points="123.77,-102.39 120.39,-112.43 129.29,-106.69 123.77,-102.39"/>
</g>
<!-- Node2&#45;&gt;Node3 -->
<g id="edge2" class="edge">
<title>Node2&#45;&gt;Node3</title>
<path fill="none" stroke="midnightblue" d="M79.92,-48.43C88.16,-38.97 98.15,-27.48 104.88,-19.75"/>
<polygon fill="midnightblue" stroke="midnightblue" points="77.19,-46.24 73.26,-56.08 82.47,-50.84 77.19,-46.24"/>
</g>
</g>
</svg>
