<?xml version="1.0" encoding="UTF-8" standalone="no"?>
<!DOCTYPE svg PUBLIC "-//W3C//DTD SVG 1.1//EN"
 "http://www.w3.org/Graphics/SVG/1.1/DTD/svg11.dtd">
<!-- Generated by graphviz version 2.43.0 (0)
 -->
<!-- Title: DiffusionCoefficient.hpp Pages: 1 -->
<svg width="227pt" height="140pt"
 viewBox="0.00 0.00 226.50 140.00" xmlns="http://www.w3.org/2000/svg" xmlns:xlink="http://www.w3.org/1999/xlink">
<g id="graph0" class="graph" transform="scale(1 1) rotate(0) translate(4 136)">
<title>DiffusionCoefficient.hpp</title>
<!-- Node1 -->
<g id="node1" class="node">
<title>Node1</title>
<g id="a_node1"><a xlink:title="Class dedicated to Diffusion coefficient.">
<polygon fill="#bfbfbf" stroke="black" points="78.5,-112.5 78.5,-131.5 218.5,-131.5 218.5,-112.5 78.5,-112.5"/>
<text text-anchor="middle" x="148.5" y="-119.5" font-family="serif" font-size="10.00">DiffusionCoefficient.hpp</text>
</a>
</g>
</g>
<!-- Node2 -->
<g id="node2" class="node">
<title>Node2</title>
<g id="a_node2"><a xlink:href="DiffusionNLFormIntegrator_8hpp.html" target="_top" xlink:title="FV for the mass diffusion equation.">
<polygon fill="none" stroke="black" points="0,-56.5 0,-75.5 179,-75.5 179,-56.5 0,-56.5"/>
<text text-anchor="middle" x="89.5" y="-63.5" font-family="serif" font-size="10.00">DiffusionNLFormIntegrator.hpp</text>
</a>
</g>
</g>
<!-- Node1&#45;&gt;Node2 -->
<g id="edge1" class="edge">
<title>Node1&#45;&gt;Node2</title>
<path fill="none" stroke="midnightblue" d="M131.61,-105.54C121.09,-95.91 107.93,-83.87 99.15,-75.83"/>
<polygon fill="midnightblue" stroke="midnightblue" points="129.28,-108.15 139.02,-112.32 134.01,-102.99 129.28,-108.15"/>
</g>
<!-- Node3 -->
<g id="node3" class="node">
<title>Node3</title>
<g id="a_node3"><a xlink:href="sloth_8hpp.html" target="_top" xlink:title="List of all header files contained in the kernel directory.">
<polygon fill="none" stroke="black" points="116,-0.5 116,-19.5 181,-19.5 181,-0.5 116,-0.5"/>
<text text-anchor="middle" x="148.5" y="-7.5" font-family="serif" font-size="10.00">sloth.hpp</text>
</a>
</g>
</g>
<!-- Node1&#45;&gt;Node3 -->
<g id="edge3" class="edge">
<title>Node1&#45;&gt;Node3</title>
<path fill="none" stroke="midnightblue" d="M167.81,-105.62C181.18,-92.97 195.43,-74.22 188.5,-56 182.78,-40.95 169.47,-27.73 159.77,-19.57"/>
<polygon fill="midnightblue" stroke="midnightblue" points="165.4,-103.08 160.21,-112.31 170.02,-108.33 165.4,-103.08"/>
</g>
<!-- Node2&#45;&gt;Node3 -->
<g id="edge2" class="edge">
<title>Node2&#45;&gt;Node3</title>
<path fill="none" stroke="midnightblue" d="M106.39,-49.54C116.91,-39.91 130.07,-27.87 138.85,-19.83"/>
<polygon fill="midnightblue" stroke="midnightblue" points="103.99,-46.99 98.98,-56.32 108.72,-52.15 103.99,-46.99"/>
</g>
</g>
</svg>
