<?xml version="1.0" encoding="UTF-8" standalone="no"?>
<!DOCTYPE svg PUBLIC "-//W3C//DTD SVG 1.1//EN"
 "http://www.w3.org/Graphics/SVG/1.1/DTD/svg11.dtd">
<!-- Generated by graphviz version 2.43.0 (0)
 -->
<!-- Title: DiffusionFunctions.hpp Pages: 1 -->
<svg width="273pt" height="196pt"
 viewBox="0.00 0.00 272.50 196.00" xmlns="http://www.w3.org/2000/svg" xmlns:xlink="http://www.w3.org/1999/xlink">
<g id="graph0" class="graph" transform="scale(1 1) rotate(0) translate(4 192)">
<title>DiffusionFunctions.hpp</title>
<!-- Node1 -->
<g id="node1" class="node">
<title>Node1</title>
<g id="a_node1"><a xlink:title="Diffusion functions.">
<polygon fill="#bfbfbf" stroke="black" points="128.5,-168.5 128.5,-187.5 264.5,-187.5 264.5,-168.5 128.5,-168.5"/>
<text text-anchor="middle" x="196.5" y="-175.5" font-family="serif" font-size="10.00">DiffusionFunctions.hpp</text>
</a>
</g>
</g>
<!-- Node2 -->
<g id="node2" class="node">
<title>Node2</title>
<g id="a_node2"><a xlink:href="DiffusionCoefficient_8hpp.html" target="_top" xlink:title="Class dedicated to Diffusion coefficient.">
<polygon fill="none" stroke="black" points="77.5,-112.5 77.5,-131.5 217.5,-131.5 217.5,-112.5 77.5,-112.5"/>
<text text-anchor="middle" x="147.5" y="-119.5" font-family="serif" font-size="10.00">DiffusionCoefficient.hpp</text>
</a>
</g>
</g>
<!-- Node1&#45;&gt;Node2 -->
<g id="edge1" class="edge">
<title>Node1&#45;&gt;Node2</title>
<path fill="none" stroke="midnightblue" d="M181.47,-160.43C172.88,-150.97 162.46,-139.48 155.44,-131.75"/>
<polygon fill="midnightblue" stroke="midnightblue" points="179.1,-163.03 188.41,-168.08 184.28,-158.33 179.1,-163.03"/>
</g>
<!-- Node4 -->
<g id="node4" class="node">
<title>Node4</title>
<g id="a_node4"><a xlink:href="sloth_8hpp.html" target="_top" xlink:title="List of all header files contained in the kernel directory.">
<polygon fill="none" stroke="black" points="175,-0.5 175,-19.5 240,-19.5 240,-0.5 175,-0.5"/>
<text text-anchor="middle" x="207.5" y="-7.5" font-family="serif" font-size="10.00">sloth.hpp</text>
</a>
</g>
</g>
<!-- Node1&#45;&gt;Node4 -->
<g id="edge5" class="edge">
<title>Node1&#45;&gt;Node4</title>
<path fill="none" stroke="midnightblue" d="M211,-160.4C217.05,-152.39 223.38,-142.3 226.5,-132 238.89,-91.09 220.11,-39.83 211.47,-19.69"/>
<polygon fill="midnightblue" stroke="midnightblue" points="208.27,-158.2 204.71,-168.18 213.72,-162.6 208.27,-158.2"/>
</g>
<!-- Node3 -->
<g id="node3" class="node">
<title>Node3</title>
<g id="a_node3"><a xlink:href="DiffusionNLFormIntegrator_8hpp.html" target="_top" xlink:title="FV for the mass diffusion equation.">
<polygon fill="none" stroke="black" points="0,-56.5 0,-75.5 179,-75.5 179,-56.5 0,-56.5"/>
<text text-anchor="middle" x="89.5" y="-63.5" font-family="serif" font-size="10.00">DiffusionNLFormIntegrator.hpp</text>
</a>
</g>
</g>
<!-- Node2&#45;&gt;Node3 -->
<g id="edge2" class="edge">
<title>Node2&#45;&gt;Node3</title>
<path fill="none" stroke="midnightblue" d="M130.59,-105.25C120.3,-95.67 107.53,-83.79 98.99,-75.83"/>
<polygon fill="midnightblue" stroke="midnightblue" points="128.48,-108.07 138.18,-112.32 133.25,-102.95 128.48,-108.07"/>
</g>
<!-- Node2&#45;&gt;Node4 -->
<g id="edge4" class="edge">
<title>Node2&#45;&gt;Node4</title>
<path fill="none" stroke="midnightblue" d="M164.77,-105.03C172.63,-96.97 181.5,-86.66 187.5,-76 197.92,-57.48 203.58,-32.87 206.01,-19.89"/>
<polygon fill="midnightblue" stroke="midnightblue" points="162.07,-102.77 157.38,-112.27 166.97,-107.77 162.07,-102.77"/>
</g>
<!-- Node3&#45;&gt;Node4 -->
<g id="edge3" class="edge">
<title>Node3&#45;&gt;Node4</title>
<path fill="none" stroke="midnightblue" d="M117.4,-52.23C139.47,-42.13 169.68,-28.31 188.89,-19.52"/>
<polygon fill="midnightblue" stroke="midnightblue" points="115.83,-49.1 108.2,-56.44 118.75,-55.46 115.83,-49.1"/>
</g>
</g>
</svg>
