<?xml version="1.0" encoding="UTF-8" standalone="no"?>
<!DOCTYPE svg PUBLIC "-//W3C//DTD SVG 1.1//EN"
 "http://www.w3.org/Graphics/SVG/1.1/DTD/svg11.dtd">
<!-- Generated by graphviz version 2.43.0 (0)
 -->
<!-- Title: Operators Pages: 1 -->
<svg width="482pt" height="455pt"
 viewBox="0.00 0.00 482.00 455.00" xmlns="http://www.w3.org/2000/svg" xmlns:xlink="http://www.w3.org/1999/xlink">
<g id="graph0" class="graph" transform="scale(1 1) rotate(0) translate(4 451)">
<title>Operators</title>
<g id="clust1" class="cluster">
<title>clusterdir_dc43877d82dd332f9fb2071fcca799d6</title>
<g id="a_clust1"><a xlink:href="dir_dc43877d82dd332f9fb2071fcca799d6.html" target="_top" xlink:title="kernel">
<polygon fill="#ddddee" stroke="black" points="8,-8 8,-439 466,-439 466,-8 8,-8"/>
<text text-anchor="middle" x="237" y="-427" font-family="serif" font-size="10.00">kernel</text>
</a>
</g>
</g>
<!-- dir_38b1b3d1f25295a5f9f47bc1a8a0b9db -->
<g id="node1" class="node">
<title>dir_38b1b3d1f25295a5f9f47bc1a8a0b9db</title>
<g id="a_node1"><a xlink:href="dir_38b1b3d1f25295a5f9f47bc1a8a0b9db.html" target="_top" xlink:title="Options">
<polygon fill="none" stroke="black" points="170,-124 114,-124 114,-88 170,-88 170,-124"/>
<text text-anchor="middle" x="142" y="-103.5" font-family="serif" font-size="10.00">Options</text>
</a>
</g>
</g>
<!-- dir_776fdf42423b0a1b81b2a68528f2db8d -->
<g id="node4" class="node">
<title>dir_776fdf42423b0a1b81b2a68528f2db8d</title>
<g id="a_node4"><a xlink:href="dir_776fdf42423b0a1b81b2a68528f2db8d.html" target="_top" xlink:title="Utils">
<polygon fill="none" stroke="black" points="260,-52 206,-52 206,-16 260,-16 260,-52"/>
<text text-anchor="middle" x="233" y="-31.5" font-family="serif" font-size="10.00">Utils</text>
</a>
</g>
</g>
<!-- dir_38b1b3d1f25295a5f9f47bc1a8a0b9db&#45;&gt;dir_776fdf42423b0a1b81b2a68528f2db8d -->
<g id="edge14" class="edge">
<title>dir_38b1b3d1f25295a5f9f47bc1a8a0b9db&#45;&gt;dir_776fdf42423b0a1b81b2a68528f2db8d</title>
<path fill="none" stroke="black" d="M164.49,-87.7C175.96,-78.88 190.06,-68.03 202.48,-58.47"/>
<polygon fill="black" stroke="black" points="204.97,-60.98 210.76,-52.1 200.7,-55.43 204.97,-60.98"/>
<g id="a_edge14&#45;headlabel"><a xlink:href="dir_000002_000017.html" target="_top" xlink:title="11">
<text text-anchor="middle" x="203.85" y="-62.92" font-family="serif" font-size="10.00">11</text>
</a>
</g>
</g>
<!-- dir_4ba7ab9c59ce2588972867e4ae609232 -->
<g id="node2" class="node">
<title>dir_4ba7ab9c59ce2588972867e4ae609232</title>
<g id="a_node2"><a xlink:href="dir_4ba7ab9c59ce2588972867e4ae609232.html" target="_top" xlink:title="Parameters">
<polygon fill="none" stroke="black" points="150,-196 76,-196 76,-160 150,-160 150,-196"/>
<text text-anchor="middle" x="113" y="-175.5" font-family="serif" font-size="10.00">Parameters</text>
</a>
</g>
</g>
<!-- dir_4ba7ab9c59ce2588972867e4ae609232&#45;&gt;dir_38b1b3d1f25295a5f9f47bc1a8a0b9db -->
<g id="edge10" class="edge">
<title>dir_4ba7ab9c59ce2588972867e4ae609232&#45;&gt;dir_38b1b3d1f25295a5f9f47bc1a8a0b9db</title>
<path fill="none" stroke="black" d="M120.17,-159.7C123.43,-151.81 127.37,-142.3 131,-133.55"/>
<polygon fill="black" stroke="black" points="134.32,-134.68 134.91,-124.1 127.85,-132 134.32,-134.68"/>
<g id="a_edge10&#45;headlabel"><a xlink:href="dir_000013_000002.html" target="_top" xlink:title="1">
<text text-anchor="middle" x="135.57" y="-136.59" font-family="serif" font-size="10.00">1</text>
</a>
</g>
</g>
<!-- dir_571606a76e1ff5501c4a901dcb6dfdb9 -->
<g id="node3" class="node">
<title>dir_571606a76e1ff5501c4a901dcb6dfdb9</title>
<g id="a_node3"><a xlink:href="dir_571606a76e1ff5501c4a901dcb6dfdb9.html" target="_top" xlink:title="Coefficients">
<polygon fill="none" stroke="black" points="112,-268 36,-268 36,-232 112,-232 112,-268"/>
<text text-anchor="middle" x="74" y="-247.5" font-family="serif" font-size="10.00">Coefficients</text>
</a>
</g>
</g>
<!-- dir_571606a76e1ff5501c4a901dcb6dfdb9&#45;&gt;dir_38b1b3d1f25295a5f9f47bc1a8a0b9db -->
<g id="edge25" class="edge">
<title>dir_571606a76e1ff5501c4a901dcb6dfdb9&#45;&gt;dir_38b1b3d1f25295a5f9f47bc1a8a0b9db</title>
<path fill="none" stroke="black" d="M67.52,-231.87C61.55,-213.12 55.24,-182.71 67,-160 75.14,-144.29 90.31,-132.24 104.89,-123.63"/>
<polygon fill="black" stroke="black" points="106.76,-126.6 113.83,-118.71 103.38,-120.47 106.76,-126.6"/>
<g id="a_edge25&#45;headlabel"><a xlink:href="dir_000007_000002.html" target="_top" xlink:title="13">
<text text-anchor="middle" x="104.98" y="-128.32" font-family="serif" font-size="10.00">13</text>
</a>
</g>
</g>
<!-- dir_571606a76e1ff5501c4a901dcb6dfdb9&#45;&gt;dir_4ba7ab9c59ce2588972867e4ae609232 -->
<g id="edge26" class="edge">
<title>dir_571606a76e1ff5501c4a901dcb6dfdb9&#45;&gt;dir_4ba7ab9c59ce2588972867e4ae609232</title>
<path fill="none" stroke="black" d="M83.64,-231.7C88.13,-223.64 93.56,-213.89 98.52,-204.98"/>
<polygon fill="black" stroke="black" points="101.66,-206.54 103.47,-196.1 95.55,-203.14 101.66,-206.54"/>
<g id="a_edge26&#45;headlabel"><a xlink:href="dir_000007_000013.html" target="_top" xlink:title="27">
<text text-anchor="middle" x="102.39" y="-208.57" font-family="serif" font-size="10.00">27</text>
</a>
</g>
</g>
<!-- dir_571606a76e1ff5501c4a901dcb6dfdb9&#45;&gt;dir_776fdf42423b0a1b81b2a68528f2db8d -->
<g id="edge27" class="edge">
<title>dir_571606a76e1ff5501c4a901dcb6dfdb9&#45;&gt;dir_776fdf42423b0a1b81b2a68528f2db8d</title>
<path fill="none" stroke="black" d="M65.46,-231.69C57.69,-213.56 48.48,-184.41 56,-160 67.39,-123.01 74.97,-112.43 105,-88 131.72,-66.26 168.6,-52.26 195.91,-44.14"/>
<polygon fill="black" stroke="black" points="197.21,-47.41 205.87,-41.31 195.29,-40.68 197.21,-47.41"/>
<g id="a_edge27&#45;headlabel"><a xlink:href="dir_000007_000017.html" target="_top" xlink:title="9">
<text text-anchor="middle" x="194.52" y="-48.63" font-family="serif" font-size="10.00">9</text>
</a>
</g>
</g>
<!-- dir_8001dd73971afb1c11a9a71f4e6085a3 -->
<g id="node5" class="node">
<title>dir_8001dd73971afb1c11a9a71f4e6085a3</title>
<g id="a_node5"><a xlink:href="dir_8001dd73971afb1c11a9a71f4e6085a3.html" target="_top" xlink:title="BCs">
<polygon fill="none" stroke="black" points="458,-268 404,-268 404,-232 458,-232 458,-268"/>
<text text-anchor="middle" x="431" y="-247.5" font-family="serif" font-size="10.00">BCs</text>
</a>
</g>
</g>
<!-- dir_8001dd73971afb1c11a9a71f4e6085a3&#45;&gt;dir_776fdf42423b0a1b81b2a68528f2db8d -->
<g id="edge17" class="edge">
<title>dir_8001dd73971afb1c11a9a71f4e6085a3&#45;&gt;dir_776fdf42423b0a1b81b2a68528f2db8d</title>
<path fill="none" stroke="black" d="M438.91,-231.8C452.33,-199.79 475.03,-130.45 442,-88 421.11,-61.15 324.5,-45.71 270.24,-39.01"/>
<polygon fill="black" stroke="black" points="270.66,-35.53 260.31,-37.82 269.83,-42.49 270.66,-35.53"/>
<g id="a_edge17&#45;headlabel"><a xlink:href="dir_000005_000017.html" target="_top" xlink:title="2">
<text text-anchor="middle" x="274.56" y="-30.64" font-family="serif" font-size="10.00">2</text>
</a>
</g>
</g>
<!-- dir_ec5bade8156e6ef7be92e1dbd9276067 -->
<g id="node8" class="node">
<title>dir_ec5bade8156e6ef7be92e1dbd9276067</title>
<g id="a_node8"><a xlink:href="dir_ec5bade8156e6ef7be92e1dbd9276067.html" target="_top" xlink:title="Spatial">
<polygon fill="none" stroke="black" points="418,-196 364,-196 364,-160 418,-160 418,-196"/>
<text text-anchor="middle" x="391" y="-175.5" font-family="serif" font-size="10.00">Spatial</text>
</a>
</g>
</g>
<!-- dir_8001dd73971afb1c11a9a71f4e6085a3&#45;&gt;dir_ec5bade8156e6ef7be92e1dbd9276067 -->
<g id="edge18" class="edge">
<title>dir_8001dd73971afb1c11a9a71f4e6085a3&#45;&gt;dir_ec5bade8156e6ef7be92e1dbd9276067</title>
<path fill="none" stroke="black" d="M421.11,-231.7C416.51,-223.64 410.94,-213.89 405.85,-204.98"/>
<polygon fill="black" stroke="black" points="408.77,-203.05 400.77,-196.1 402.7,-206.52 408.77,-203.05"/>
<g id="a_edge18&#45;headlabel"><a xlink:href="dir_000005_000015.html" target="_top" xlink:title="2">
<text text-anchor="middle" x="413.02" y="-202.26" font-family="serif" font-size="10.00">2</text>
</a>
</g>
</g>
<!-- dir_86d408188003db5635ae8618c79a3489 -->
<g id="node6" class="node">
<title>dir_86d408188003db5635ae8618c79a3489</title>
<g id="a_node6"><a xlink:href="dir_86d408188003db5635ae8618c79a3489.html" target="_top" xlink:title="AnalyticalFunctions">
<polygon fill="none" stroke="black" points="345.5,-196 228.5,-196 228.5,-160 345.5,-160 345.5,-196"/>
<text text-anchor="middle" x="287" y="-175.5" font-family="serif" font-size="10.00">AnalyticalFunctions</text>
</a>
</g>
</g>
<!-- dir_86d408188003db5635ae8618c79a3489&#45;&gt;dir_38b1b3d1f25295a5f9f47bc1a8a0b9db -->
<g id="edge23" class="edge">
<title>dir_86d408188003db5635ae8618c79a3489&#45;&gt;dir_38b1b3d1f25295a5f9f47bc1a8a0b9db</title>
<path fill="none" stroke="black" d="M251.53,-159.88C229.67,-149.32 201.67,-135.8 179.45,-125.08"/>
<polygon fill="black" stroke="black" points="180.84,-121.86 170.31,-120.67 177.8,-128.17 180.84,-121.86"/>
<g id="a_edge23&#45;headlabel"><a xlink:href="dir_000003_000002.html" target="_top" xlink:title="1">
<text text-anchor="middle" x="185.31" y="-118.37" font-family="serif" font-size="10.00">1</text>
</a>
</g>
</g>
<!-- dir_86d408188003db5635ae8618c79a3489&#45;&gt;dir_776fdf42423b0a1b81b2a68528f2db8d -->
<g id="edge24" class="edge">
<title>dir_86d408188003db5635ae8618c79a3489&#45;&gt;dir_776fdf42423b0a1b81b2a68528f2db8d</title>
<path fill="none" stroke="black" d="M280.49,-159.87C271.2,-135.46 254.08,-90.43 243.13,-61.64"/>
<polygon fill="black" stroke="black" points="246.36,-60.29 239.54,-52.19 239.82,-62.78 246.36,-60.29"/>
<g id="a_edge24&#45;headlabel"><a xlink:href="dir_000003_000017.html" target="_top" xlink:title="1">
<text text-anchor="middle" x="250.29" y="-60.14" font-family="serif" font-size="10.00">1</text>
</a>
</g>
</g>
<!-- dir_ebf79b7b9044af4b885e087222b947e5 -->
<g id="node7" class="node">
<title>dir_ebf79b7b9044af4b885e087222b947e5</title>
<g id="a_node7"><a xlink:href="dir_ebf79b7b9044af4b885e087222b947e5.html" target="_top" xlink:title="Solvers">
<polygon fill="none" stroke="black" points="204,-268 150,-268 150,-232 204,-232 204,-268"/>
<text text-anchor="middle" x="177" y="-247.5" font-family="serif" font-size="10.00">Solvers</text>
</a>
</g>
</g>
<!-- dir_ebf79b7b9044af4b885e087222b947e5&#45;&gt;dir_38b1b3d1f25295a5f9f47bc1a8a0b9db -->
<g id="edge11" class="edge">
<title>dir_ebf79b7b9044af4b885e087222b947e5&#45;&gt;dir_38b1b3d1f25295a5f9f47bc1a8a0b9db</title>
<path fill="none" stroke="black" d="M174.11,-231.81C170.94,-213.79 165.44,-184.71 159,-160 156.75,-151.36 153.91,-142.05 151.19,-133.68"/>
<polygon fill="black" stroke="black" points="154.47,-132.43 148,-124.04 147.82,-134.64 154.47,-132.43"/>
<g id="a_edge11&#45;headlabel"><a xlink:href="dir_000011_000002.html" target="_top" xlink:title="10">
<text text-anchor="middle" x="158.29" y="-132.45" font-family="serif" font-size="10.00">10</text>
</a>
</g>
</g>
<!-- dir_ebf79b7b9044af4b885e087222b947e5&#45;&gt;dir_4ba7ab9c59ce2588972867e4ae609232 -->
<g id="edge12" class="edge">
<title>dir_ebf79b7b9044af4b885e087222b947e5&#45;&gt;dir_4ba7ab9c59ce2588972867e4ae609232</title>
<path fill="none" stroke="black" d="M161.18,-231.7C153.43,-223.22 143.96,-212.86 135.48,-203.58"/>
<polygon fill="black" stroke="black" points="137.97,-201.12 128.64,-196.1 132.8,-205.85 137.97,-201.12"/>
<g id="a_edge12&#45;headlabel"><a xlink:href="dir_000011_000013.html" target="_top" xlink:title="4">
<text text-anchor="middle" x="142.49" y="-199.36" font-family="serif" font-size="10.00">4</text>
</a>
</g>
</g>
<!-- dir_ebf79b7b9044af4b885e087222b947e5&#45;&gt;dir_776fdf42423b0a1b81b2a68528f2db8d -->
<g id="edge13" class="edge">
<title>dir_ebf79b7b9044af4b885e087222b947e5&#45;&gt;dir_776fdf42423b0a1b81b2a68528f2db8d</title>
<path fill="none" stroke="black" d="M178.01,-231.61C180.17,-201.58 186.56,-138.35 204,-88 207.14,-78.93 211.75,-69.56 216.36,-61.28"/>
<polygon fill="black" stroke="black" points="219.49,-62.86 221.51,-52.46 213.45,-59.34 219.49,-62.86"/>
<g id="a_edge13&#45;headlabel"><a xlink:href="dir_000011_000017.html" target="_top" xlink:title="10">
<text text-anchor="middle" x="220.14" y="-64.9" font-family="serif" font-size="10.00">10</text>
</a>
</g>
</g>
<!-- dir_ec5bade8156e6ef7be92e1dbd9276067&#45;&gt;dir_38b1b3d1f25295a5f9f47bc1a8a0b9db -->
<g id="edge15" class="edge">
<title>dir_ec5bade8156e6ef7be92e1dbd9276067&#45;&gt;dir_38b1b3d1f25295a5f9f47bc1a8a0b9db</title>
<path fill="none" stroke="black" d="M363.72,-163.44C360.81,-162.19 357.86,-161.02 355,-160 295.31,-138.72 223.3,-122.72 180.15,-114.12"/>
<polygon fill="black" stroke="black" points="180.58,-110.64 170.09,-112.15 179.23,-117.51 180.58,-110.64"/>
<g id="a_edge15&#45;headlabel"><a xlink:href="dir_000015_000002.html" target="_top" xlink:title="1">
<text text-anchor="middle" x="184.65" y="-106.05" font-family="serif" font-size="10.00">1</text>
</a>
</g>
</g>
<!-- dir_ec5bade8156e6ef7be92e1dbd9276067&#45;&gt;dir_776fdf42423b0a1b81b2a68528f2db8d -->
<g id="edge16" class="edge">
<title>dir_ec5bade8156e6ef7be92e1dbd9276067&#45;&gt;dir_776fdf42423b0a1b81b2a68528f2db8d</title>
<path fill="none" stroke="black" d="M371.94,-159.87C343.95,-134.71 291.59,-87.65 259.75,-59.04"/>
<polygon fill="black" stroke="black" points="261.9,-56.27 252.13,-52.19 257.22,-61.48 261.9,-56.27"/>
<g id="a_edge16&#45;headlabel"><a xlink:href="dir_000015_000017.html" target="_top" xlink:title="1">
<text text-anchor="middle" x="266.47" y="-54.06" font-family="serif" font-size="10.00">1</text>
</a>
</g>
</g>
<!-- dir_fbbaed38a74dbb8ddeae68bdf4e08e5a -->
<g id="node9" class="node">
<title>dir_fbbaed38a74dbb8ddeae68bdf4e08e5a</title>
<g id="a_node9"><a xlink:href="dir_fbbaed38a74dbb8ddeae68bdf4e08e5a.html" target="_top" xlink:title="Variables">
<polygon fill="none" stroke="black" points="396.5,-340 333.5,-340 333.5,-304 396.5,-304 396.5,-340"/>
<text text-anchor="middle" x="365" y="-319.5" font-family="serif" font-size="10.00">Variables</text>
</a>
</g>
</g>
<!-- dir_fbbaed38a74dbb8ddeae68bdf4e08e5a&#45;&gt;dir_776fdf42423b0a1b81b2a68528f2db8d -->
<g id="edge19" class="edge">
<title>dir_fbbaed38a74dbb8ddeae68bdf4e08e5a&#45;&gt;dir_776fdf42423b0a1b81b2a68528f2db8d</title>
<path fill="none" stroke="black" d="M369.85,-303.99C376.32,-281.82 387.8,-244.41 395,-232 405.75,-213.49 419.39,-216.01 427,-196 432.69,-181.04 434.61,-174.07 427,-160 393.89,-98.76 316.36,-63.07 269.96,-46.45"/>
<polygon fill="black" stroke="black" points="270.87,-43.07 260.27,-43.1 268.58,-49.68 270.87,-43.07"/>
<g id="a_edge19&#45;headlabel"><a xlink:href="dir_000018_000017.html" target="_top" xlink:title="1">
<text text-anchor="middle" x="275.19" y="-39.06" font-family="serif" font-size="10.00">1</text>
</a>
</g>
</g>
<!-- dir_fbbaed38a74dbb8ddeae68bdf4e08e5a&#45;&gt;dir_8001dd73971afb1c11a9a71f4e6085a3 -->
<g id="edge20" class="edge">
<title>dir_fbbaed38a74dbb8ddeae68bdf4e08e5a&#45;&gt;dir_8001dd73971afb1c11a9a71f4e6085a3</title>
<path fill="none" stroke="black" d="M381.31,-303.7C389.31,-295.22 399.07,-284.86 407.82,-275.58"/>
<polygon fill="black" stroke="black" points="410.56,-277.78 414.87,-268.1 405.47,-272.98 410.56,-277.78"/>
<g id="a_edge20&#45;headlabel"><a xlink:href="dir_000018_000005.html" target="_top" xlink:title="1">
<text text-anchor="middle" x="410.16" y="-279.84" font-family="serif" font-size="10.00">1</text>
</a>
</g>
</g>
<!-- dir_fbbaed38a74dbb8ddeae68bdf4e08e5a&#45;&gt;dir_86d408188003db5635ae8618c79a3489 -->
<g id="edge21" class="edge">
<title>dir_fbbaed38a74dbb8ddeae68bdf4e08e5a&#45;&gt;dir_86d408188003db5635ae8618c79a3489</title>
<path fill="none" stroke="black" d="M355.59,-303.87C342.12,-279.35 317.23,-234.03 301.42,-205.26"/>
<polygon fill="black" stroke="black" points="304.32,-203.27 296.44,-196.19 298.19,-206.64 304.32,-203.27"/>
<g id="a_edge21&#45;headlabel"><a xlink:href="dir_000018_000003.html" target="_top" xlink:title="1">
<text text-anchor="middle" x="308.54" y="-202.55" font-family="serif" font-size="10.00">1</text>
</a>
</g>
</g>
<!-- dir_fbbaed38a74dbb8ddeae68bdf4e08e5a&#45;&gt;dir_ec5bade8156e6ef7be92e1dbd9276067 -->
<g id="edge22" class="edge">
<title>dir_fbbaed38a74dbb8ddeae68bdf4e08e5a&#45;&gt;dir_ec5bade8156e6ef7be92e1dbd9276067</title>
<path fill="none" stroke="black" d="M367.69,-303.9C370.55,-285.96 375.31,-256.95 380,-232 381.59,-223.56 383.44,-214.39 385.17,-206.09"/>
<polygon fill="black" stroke="black" points="388.63,-206.66 387.27,-196.15 381.78,-205.22 388.63,-206.66"/>
<g id="a_edge22&#45;headlabel"><a xlink:href="dir_000018_000015.html" target="_top" xlink:title="1">
<text text-anchor="middle" x="390.67" y="-208.26" font-family="serif" font-size="10.00">1</text>
</a>
</g>
</g>
<!-- dir_72da18c13f436691e9c601a019ee3b23 -->
<g id="node10" class="node">
<title>dir_72da18c13f436691e9c601a019ee3b23</title>
<g id="a_node10"><a xlink:href="dir_72da18c13f436691e9c601a019ee3b23.html" target="_top" xlink:title="Operators">
<polygon fill="#eeeeff" stroke="black" points="257,-412 189,-412 189,-376 257,-376 257,-412"/>
<text text-anchor="middle" x="223" y="-391.5" font-family="serif" font-size="10.00">Operators</text>
</a>
</g>
</g>
<!-- dir_72da18c13f436691e9c601a019ee3b23&#45;&gt;dir_38b1b3d1f25295a5f9f47bc1a8a0b9db -->
<g id="edge1" class="edge">
<title>dir_72da18c13f436691e9c601a019ee3b23&#45;&gt;dir_38b1b3d1f25295a5f9f47bc1a8a0b9db</title>
<path fill="none" stroke="black" d="M188.87,-384.49C140.17,-370.13 53.66,-335.79 27,-268 8.81,-221.75 23.96,-197.99 56,-160 69.17,-144.39 88.15,-132.02 104.93,-123.16"/>
<polygon fill="black" stroke="black" points="106.62,-126.23 113.98,-118.61 103.47,-119.98 106.62,-126.23"/>
<g id="a_edge1&#45;headlabel"><a xlink:href="dir_000010_000002.html" target="_top" xlink:title="6">
<text text-anchor="middle" x="104.68" y="-127.88" font-family="serif" font-size="10.00">6</text>
</a>
</g>
</g>
<!-- dir_72da18c13f436691e9c601a019ee3b23&#45;&gt;dir_4ba7ab9c59ce2588972867e4ae609232 -->
<g id="edge2" class="edge">
<title>dir_72da18c13f436691e9c601a019ee3b23&#45;&gt;dir_4ba7ab9c59ce2588972867e4ae609232</title>
<path fill="none" stroke="black" d="M209.41,-375.7C191.63,-352.38 160.46,-309.04 141,-268 131.55,-248.06 124.22,-224.13 119.44,-206.11"/>
<polygon fill="black" stroke="black" points="122.79,-205.08 116.92,-196.26 116.01,-206.81 122.79,-205.08"/>
<g id="a_edge2&#45;headlabel"><a xlink:href="dir_000010_000013.html" target="_top" xlink:title="7">
<text text-anchor="middle" x="126.43" y="-205.36" font-family="serif" font-size="10.00">7</text>
</a>
</g>
</g>
<!-- dir_72da18c13f436691e9c601a019ee3b23&#45;&gt;dir_571606a76e1ff5501c4a901dcb6dfdb9 -->
<g id="edge3" class="edge">
<title>dir_72da18c13f436691e9c601a019ee3b23&#45;&gt;dir_571606a76e1ff5501c4a901dcb6dfdb9</title>
<path fill="none" stroke="black" d="M188.64,-379.76C168.63,-370.78 143.89,-357.39 126,-340 107.75,-322.26 93.73,-296.77 84.87,-277.61"/>
<polygon fill="black" stroke="black" points="87.97,-275.96 80.71,-268.24 81.57,-278.8 87.97,-275.96"/>
<g id="a_edge3&#45;headlabel"><a xlink:href="dir_000010_000007.html" target="_top" xlink:title="1">
<text text-anchor="middle" x="92.02" y="-275.6" font-family="serif" font-size="10.00">1</text>
</a>
</g>
</g>
<!-- dir_72da18c13f436691e9c601a019ee3b23&#45;&gt;dir_776fdf42423b0a1b81b2a68528f2db8d -->
<g id="edge4" class="edge">
<title>dir_72da18c13f436691e9c601a019ee3b23&#45;&gt;dir_776fdf42423b0a1b81b2a68528f2db8d</title>
<path fill="none" stroke="black" d="M222.02,-375.74C219.98,-337.08 215.82,-240.6 220,-160 221.75,-126.25 226.14,-87.59 229.34,-62.31"/>
<polygon fill="black" stroke="black" points="232.81,-62.71 230.62,-52.35 225.87,-61.82 232.81,-62.71"/>
<g id="a_edge4&#45;headlabel"><a xlink:href="dir_000010_000017.html" target="_top" xlink:title="6">
<text text-anchor="middle" x="235.17" y="-64.14" font-family="serif" font-size="10.00">6</text>
</a>
</g>
</g>
<!-- dir_72da18c13f436691e9c601a019ee3b23&#45;&gt;dir_8001dd73971afb1c11a9a71f4e6085a3 -->
<g id="edge5" class="edge">
<title>dir_72da18c13f436691e9c601a019ee3b23&#45;&gt;dir_8001dd73971afb1c11a9a71f4e6085a3</title>
<path fill="none" stroke="black" d="M257.31,-392.61C298.3,-390.25 366.28,-380.04 406,-340 422.12,-323.75 428.04,-297.99 430.12,-278.36"/>
<polygon fill="black" stroke="black" points="433.62,-278.42 430.92,-268.18 426.64,-277.87 433.62,-278.42"/>
<g id="a_edge5&#45;headlabel"><a xlink:href="dir_000010_000005.html" target="_top" xlink:title="1">
<text text-anchor="middle" x="436.17" y="-279.73" font-family="serif" font-size="10.00">1</text>
</a>
</g>
</g>
<!-- dir_72da18c13f436691e9c601a019ee3b23&#45;&gt;dir_86d408188003db5635ae8618c79a3489 -->
<g id="edge6" class="edge">
<title>dir_72da18c13f436691e9c601a019ee3b23&#45;&gt;dir_86d408188003db5635ae8618c79a3489</title>
<path fill="none" stroke="black" d="M228.13,-375.85C239.25,-338.68 265.64,-250.44 278.98,-205.82"/>
<polygon fill="black" stroke="black" points="282.33,-206.82 281.85,-196.23 275.63,-204.81 282.33,-206.82"/>
<g id="a_edge6&#45;headlabel"><a xlink:href="dir_000010_000003.html" target="_top" xlink:title="3">
<text text-anchor="middle" x="284.02" y="-208.57" font-family="serif" font-size="10.00">3</text>
</a>
</g>
</g>
<!-- dir_72da18c13f436691e9c601a019ee3b23&#45;&gt;dir_ebf79b7b9044af4b885e087222b947e5 -->
<g id="edge7" class="edge">
<title>dir_72da18c13f436691e9c601a019ee3b23&#45;&gt;dir_ebf79b7b9044af4b885e087222b947e5</title>
<path fill="none" stroke="black" d="M217.45,-375.87C209.58,-351.56 195.08,-306.82 185.75,-278.01"/>
<polygon fill="black" stroke="black" points="188.98,-276.62 182.57,-268.19 182.32,-278.78 188.98,-276.62"/>
<g id="a_edge7&#45;headlabel"><a xlink:href="dir_000010_000011.html" target="_top" xlink:title="5">
<text text-anchor="middle" x="192.79" y="-276.67" font-family="serif" font-size="10.00">5</text>
</a>
</g>
</g>
<!-- dir_72da18c13f436691e9c601a019ee3b23&#45;&gt;dir_ec5bade8156e6ef7be92e1dbd9276067 -->
<g id="edge8" class="edge">
<title>dir_72da18c13f436691e9c601a019ee3b23&#45;&gt;dir_ec5bade8156e6ef7be92e1dbd9276067</title>
<path fill="none" stroke="black" d="M236.46,-375.85C266.02,-338.21 336.67,-248.2 371.26,-204.15"/>
<polygon fill="black" stroke="black" points="374.05,-206.26 377.47,-196.23 368.54,-201.94 374.05,-206.26"/>
<g id="a_edge8&#45;headlabel"><a xlink:href="dir_000010_000015.html" target="_top" xlink:title="6">
<text text-anchor="middle" x="374.06" y="-208.34" font-family="serif" font-size="10.00">6</text>
</a>
</g>
</g>
<!-- dir_72da18c13f436691e9c601a019ee3b23&#45;&gt;dir_fbbaed38a74dbb8ddeae68bdf4e08e5a -->
<g id="edge9" class="edge">
<title>dir_72da18c13f436691e9c601a019ee3b23&#45;&gt;dir_fbbaed38a74dbb8ddeae68bdf4e08e5a</title>
<path fill="none" stroke="black" d="M257.01,-376.23C277.17,-366.3 302.84,-353.64 324.1,-343.16"/>
<polygon fill="black" stroke="black" points="325.79,-346.23 333.21,-338.67 322.69,-339.95 325.79,-346.23"/>
<g id="a_edge9&#45;headlabel"><a xlink:href="dir_000010_000018.html" target="_top" xlink:title="3">
<text text-anchor="middle" x="323.82" y="-347.87" font-family="serif" font-size="10.00">3</text>
</a>
</g>
</g>
</g>
</svg>
