<?xml version="1.0" encoding="UTF-8" standalone="no"?>
<!DOCTYPE svg PUBLIC "-//W3C//DTD SVG 1.1//EN"
 "http://www.w3.org/Graphics/SVG/1.1/DTD/svg11.dtd">
<!-- Generated by graphviz version 2.43.0 (0)
 -->
<!-- Title: PostProcessing Pages: 1 -->
<svg width="144pt" height="311pt"
 viewBox="0.00 0.00 144.00 311.00" xmlns="http://www.w3.org/2000/svg" xmlns:xlink="http://www.w3.org/1999/xlink">
<g id="graph0" class="graph" transform="scale(1 1) rotate(0) translate(4 307)">
<title>PostProcessing</title>
<g id="clust1" class="cluster">
<title>clusterdir_dc43877d82dd332f9fb2071fcca799d6</title>
<g id="a_clust1"><a xlink:href="dir_dc43877d82dd332f9fb2071fcca799d6.html" target="_top" xlink:title="kernel">
<polygon fill="#ddddee" stroke="black" points="8,-8 8,-295 128,-295 128,-8 8,-8"/>
<text text-anchor="middle" x="68" y="-283" font-family="serif" font-size="10.00">kernel</text>
</a>
</g>
</g>
<!-- dir_776fdf42423b0a1b81b2a68528f2db8d -->
<g id="node1" class="node">
<title>dir_776fdf42423b0a1b81b2a68528f2db8d</title>
<g id="a_node1"><a xlink:href="dir_776fdf42423b0a1b81b2a68528f2db8d.html" target="_top" xlink:title="Utils">
<polygon fill="none" stroke="black" points="90,-52 36,-52 36,-16 90,-16 90,-52"/>
<text text-anchor="middle" x="63" y="-31.5" font-family="serif" font-size="10.00">Utils</text>
</a>
</g>
</g>
<!-- dir_ec5bade8156e6ef7be92e1dbd9276067 -->
<g id="node2" class="node">
<title>dir_ec5bade8156e6ef7be92e1dbd9276067</title>
<g id="a_node2"><a xlink:href="dir_ec5bade8156e6ef7be92e1dbd9276067.html" target="_top" xlink:title="Spatial">
<polygon fill="none" stroke="black" points="90,-124 36,-124 36,-88 90,-88 90,-124"/>
<text text-anchor="middle" x="63" y="-103.5" font-family="serif" font-size="10.00">Spatial</text>
</a>
</g>
</g>
<!-- dir_ec5bade8156e6ef7be92e1dbd9276067&#45;&gt;dir_776fdf42423b0a1b81b2a68528f2db8d -->
<g id="edge1" class="edge">
<title>dir_ec5bade8156e6ef7be92e1dbd9276067&#45;&gt;dir_776fdf42423b0a1b81b2a68528f2db8d</title>
<path fill="none" stroke="black" d="M63,-87.7C63,-79.98 63,-70.71 63,-62.11"/>
<polygon fill="black" stroke="black" points="66.5,-62.1 63,-52.1 59.5,-62.1 66.5,-62.1"/>
<g id="a_edge1&#45;headlabel"><a xlink:href="dir_000015_000017.html" target="_top" xlink:title="1">
<text text-anchor="middle" x="69.34" y="-63.2" font-family="serif" font-size="10.00">1</text>
</a>
</g>
</g>
<!-- dir_fbbaed38a74dbb8ddeae68bdf4e08e5a -->
<g id="node3" class="node">
<title>dir_fbbaed38a74dbb8ddeae68bdf4e08e5a</title>
<g id="a_node3"><a xlink:href="dir_fbbaed38a74dbb8ddeae68bdf4e08e5a.html" target="_top" xlink:title="Variables">
<polygon fill="none" stroke="black" points="119.5,-196 56.5,-196 56.5,-160 119.5,-160 119.5,-196"/>
<text text-anchor="middle" x="88" y="-175.5" font-family="serif" font-size="10.00">Variables</text>
</a>
</g>
</g>
<!-- dir_fbbaed38a74dbb8ddeae68bdf4e08e5a&#45;&gt;dir_776fdf42423b0a1b81b2a68528f2db8d -->
<g id="edge2" class="edge">
<title>dir_fbbaed38a74dbb8ddeae68bdf4e08e5a&#45;&gt;dir_776fdf42423b0a1b81b2a68528f2db8d</title>
<path fill="none" stroke="black" d="M94.25,-159.9C99.96,-141.71 106.46,-112.26 99,-88 95.99,-78.22 90.49,-68.62 84.68,-60.33"/>
<polygon fill="black" stroke="black" points="87.41,-58.13 78.61,-52.23 81.81,-62.33 87.41,-58.13"/>
<g id="a_edge2&#45;headlabel"><a xlink:href="dir_000018_000017.html" target="_top" xlink:title="1">
<text text-anchor="middle" x="91.83" y="-56.8" font-family="serif" font-size="10.00">1</text>
</a>
</g>
</g>
<!-- dir_fbbaed38a74dbb8ddeae68bdf4e08e5a&#45;&gt;dir_ec5bade8156e6ef7be92e1dbd9276067 -->
<g id="edge3" class="edge">
<title>dir_fbbaed38a74dbb8ddeae68bdf4e08e5a&#45;&gt;dir_ec5bade8156e6ef7be92e1dbd9276067</title>
<path fill="none" stroke="black" d="M81.82,-159.7C79,-151.81 75.61,-142.3 72.48,-133.55"/>
<polygon fill="black" stroke="black" points="75.77,-132.34 69.11,-124.1 69.18,-134.7 75.77,-132.34"/>
<g id="a_edge3&#45;headlabel"><a xlink:href="dir_000018_000015.html" target="_top" xlink:title="1">
<text text-anchor="middle" x="79.65" y="-132.27" font-family="serif" font-size="10.00">1</text>
</a>
</g>
</g>
<!-- dir_24fccc6540dc0b48a48e320524a2940f -->
<g id="node4" class="node">
<title>dir_24fccc6540dc0b48a48e320524a2940f</title>
<g id="a_node4"><a xlink:href="dir_24fccc6540dc0b48a48e320524a2940f.html" target="_top" xlink:title="PostProcessing">
<polygon fill="#eeeeff" stroke="black" points="108.5,-268 15.5,-268 15.5,-232 108.5,-232 108.5,-268"/>
<text text-anchor="middle" x="62" y="-247.5" font-family="serif" font-size="10.00">PostProcessing</text>
</a>
</g>
</g>
<!-- dir_24fccc6540dc0b48a48e320524a2940f&#45;&gt;dir_776fdf42423b0a1b81b2a68528f2db8d -->
<g id="edge4" class="edge">
<title>dir_24fccc6540dc0b48a48e320524a2940f&#45;&gt;dir_776fdf42423b0a1b81b2a68528f2db8d</title>
<path fill="none" stroke="black" d="M52.56,-231.84C37.48,-202.13 11.19,-139.4 27,-88 30.01,-78.22 35.51,-68.62 41.32,-60.33"/>
<polygon fill="black" stroke="black" points="44.19,-62.33 47.39,-52.23 38.59,-58.13 44.19,-62.33"/>
<g id="a_edge4&#45;headlabel"><a xlink:href="dir_000014_000017.html" target="_top" xlink:title="1">
<text text-anchor="middle" x="44.31" y="-64.41" font-family="serif" font-size="10.00">1</text>
</a>
</g>
</g>
<!-- dir_24fccc6540dc0b48a48e320524a2940f&#45;&gt;dir_ec5bade8156e6ef7be92e1dbd9276067 -->
<g id="edge5" class="edge">
<title>dir_24fccc6540dc0b48a48e320524a2940f&#45;&gt;dir_ec5bade8156e6ef7be92e1dbd9276067</title>
<path fill="none" stroke="black" d="M55.76,-231.59C52.43,-221.37 48.68,-208.12 47,-196 44.8,-180.15 44.66,-175.83 47,-160 48.28,-151.35 50.67,-142.15 53.22,-133.89"/>
<polygon fill="black" stroke="black" points="56.55,-134.96 56.35,-124.37 49.9,-132.78 56.55,-134.96"/>
<g id="a_edge5&#45;headlabel"><a xlink:href="dir_000014_000015.html" target="_top" xlink:title="1">
<text text-anchor="middle" x="58.12" y="-136.77" font-family="serif" font-size="10.00">1</text>
</a>
</g>
</g>
<!-- dir_24fccc6540dc0b48a48e320524a2940f&#45;&gt;dir_fbbaed38a74dbb8ddeae68bdf4e08e5a -->
<g id="edge6" class="edge">
<title>dir_24fccc6540dc0b48a48e320524a2940f&#45;&gt;dir_fbbaed38a74dbb8ddeae68bdf4e08e5a</title>
<path fill="none" stroke="black" d="M68.43,-231.7C71.36,-223.81 74.89,-214.3 78.14,-205.55"/>
<polygon fill="black" stroke="black" points="81.45,-206.7 81.65,-196.1 74.88,-204.26 81.45,-206.7"/>
<g id="a_edge6&#45;headlabel"><a xlink:href="dir_000014_000018.html" target="_top" xlink:title="1">
<text text-anchor="middle" x="82.86" y="-208.56" font-family="serif" font-size="10.00">1</text>
</a>
</g>
</g>
</g>
</svg>
