<?xml version="1.0" encoding="UTF-8" standalone="no"?>
<!DOCTYPE svg PUBLIC "-//W3C//DTD SVG 1.1//EN"
 "http://www.w3.org/Graphics/SVG/1.1/DTD/svg11.dtd">
<!-- Generated by graphviz version 2.43.0 (0)
 -->
<!-- Title: Integrators Pages: 1 -->
<svg width="194pt" height="383pt"
 viewBox="0.00 0.00 194.00 383.00" xmlns="http://www.w3.org/2000/svg" xmlns:xlink="http://www.w3.org/1999/xlink">
<g id="graph0" class="graph" transform="scale(1 1) rotate(0) translate(4 379)">
<title>Integrators</title>
<g id="clust1" class="cluster">
<title>clusterdir_dc43877d82dd332f9fb2071fcca799d6</title>
<g id="a_clust1"><a xlink:href="dir_dc43877d82dd332f9fb2071fcca799d6.html" target="_top" xlink:title="kernel">
<polygon fill="#ddddee" stroke="black" points="8,-8 8,-367 178,-367 178,-8 8,-8"/>
<text text-anchor="middle" x="93" y="-355" font-family="serif" font-size="10.00">kernel</text>
</a>
</g>
</g>
<!-- dir_38b1b3d1f25295a5f9f47bc1a8a0b9db -->
<g id="node1" class="node">
<title>dir_38b1b3d1f25295a5f9f47bc1a8a0b9db</title>
<g id="a_node1"><a xlink:href="dir_38b1b3d1f25295a5f9f47bc1a8a0b9db.html" target="_top" xlink:title="Options">
<polygon fill="none" stroke="black" points="115,-124 59,-124 59,-88 115,-88 115,-124"/>
<text text-anchor="middle" x="87" y="-103.5" font-family="serif" font-size="10.00">Options</text>
</a>
</g>
</g>
<!-- dir_776fdf42423b0a1b81b2a68528f2db8d -->
<g id="node4" class="node">
<title>dir_776fdf42423b0a1b81b2a68528f2db8d</title>
<g id="a_node4"><a xlink:href="dir_776fdf42423b0a1b81b2a68528f2db8d.html" target="_top" xlink:title="Utils">
<polygon fill="none" stroke="black" points="170,-52 116,-52 116,-16 170,-16 170,-52"/>
<text text-anchor="middle" x="143" y="-31.5" font-family="serif" font-size="10.00">Utils</text>
</a>
</g>
</g>
<!-- dir_38b1b3d1f25295a5f9f47bc1a8a0b9db&#45;&gt;dir_776fdf42423b0a1b81b2a68528f2db8d -->
<g id="edge2" class="edge">
<title>dir_38b1b3d1f25295a5f9f47bc1a8a0b9db&#45;&gt;dir_776fdf42423b0a1b81b2a68528f2db8d</title>
<path fill="none" stroke="black" d="M100.84,-87.7C107.49,-79.39 115.58,-69.28 122.89,-60.14"/>
<polygon fill="black" stroke="black" points="125.8,-62.1 129.32,-52.1 120.34,-57.73 125.8,-62.1"/>
<g id="a_edge2&#45;headlabel"><a xlink:href="dir_000002_000017.html" target="_top" xlink:title="11">
<text text-anchor="middle" x="125.77" y="-64.18" font-family="serif" font-size="10.00">11</text>
</a>
</g>
</g>
<!-- dir_4ba7ab9c59ce2588972867e4ae609232 -->
<g id="node2" class="node">
<title>dir_4ba7ab9c59ce2588972867e4ae609232</title>
<g id="a_node2"><a xlink:href="dir_4ba7ab9c59ce2588972867e4ae609232.html" target="_top" xlink:title="Parameters">
<polygon fill="none" stroke="black" points="110,-196 36,-196 36,-160 110,-160 110,-196"/>
<text text-anchor="middle" x="73" y="-175.5" font-family="serif" font-size="10.00">Parameters</text>
</a>
</g>
</g>
<!-- dir_4ba7ab9c59ce2588972867e4ae609232&#45;&gt;dir_38b1b3d1f25295a5f9f47bc1a8a0b9db -->
<g id="edge1" class="edge">
<title>dir_4ba7ab9c59ce2588972867e4ae609232&#45;&gt;dir_38b1b3d1f25295a5f9f47bc1a8a0b9db</title>
<path fill="none" stroke="black" d="M76.46,-159.7C78,-151.98 79.86,-142.71 81.58,-134.11"/>
<polygon fill="black" stroke="black" points="85.05,-134.6 83.58,-124.1 78.19,-133.22 85.05,-134.6"/>
<g id="a_edge1&#45;headlabel"><a xlink:href="dir_000013_000002.html" target="_top" xlink:title="1">
<text text-anchor="middle" x="87.13" y="-136.18" font-family="serif" font-size="10.00">1</text>
</a>
</g>
</g>
<!-- dir_571606a76e1ff5501c4a901dcb6dfdb9 -->
<g id="node3" class="node">
<title>dir_571606a76e1ff5501c4a901dcb6dfdb9</title>
<g id="a_node3"><a xlink:href="dir_571606a76e1ff5501c4a901dcb6dfdb9.html" target="_top" xlink:title="Coefficients">
<polygon fill="none" stroke="black" points="150,-268 74,-268 74,-232 150,-232 150,-268"/>
<text text-anchor="middle" x="112" y="-247.5" font-family="serif" font-size="10.00">Coefficients</text>
</a>
</g>
</g>
<!-- dir_571606a76e1ff5501c4a901dcb6dfdb9&#45;&gt;dir_38b1b3d1f25295a5f9f47bc1a8a0b9db -->
<g id="edge7" class="edge">
<title>dir_571606a76e1ff5501c4a901dcb6dfdb9&#45;&gt;dir_38b1b3d1f25295a5f9f47bc1a8a0b9db</title>
<path fill="none" stroke="black" d="M116.78,-231.93C121.09,-213.76 125.78,-184.34 119,-160 116.33,-150.42 111.41,-140.84 106.22,-132.51"/>
<polygon fill="black" stroke="black" points="109.02,-130.41 100.56,-124.03 103.2,-134.29 109.02,-130.41"/>
<g id="a_edge7&#45;headlabel"><a xlink:href="dir_000007_000002.html" target="_top" xlink:title="13">
<text text-anchor="middle" x="113.38" y="-129.33" font-family="serif" font-size="10.00">13</text>
</a>
</g>
</g>
<!-- dir_571606a76e1ff5501c4a901dcb6dfdb9&#45;&gt;dir_4ba7ab9c59ce2588972867e4ae609232 -->
<g id="edge8" class="edge">
<title>dir_571606a76e1ff5501c4a901dcb6dfdb9&#45;&gt;dir_4ba7ab9c59ce2588972867e4ae609232</title>
<path fill="none" stroke="black" d="M102.36,-231.7C97.87,-223.64 92.44,-213.89 87.48,-204.98"/>
<polygon fill="black" stroke="black" points="90.45,-203.14 82.53,-196.1 84.34,-206.54 90.45,-203.14"/>
<g id="a_edge8&#45;headlabel"><a xlink:href="dir_000007_000013.html" target="_top" xlink:title="27">
<text text-anchor="middle" x="94.68" y="-202.39" font-family="serif" font-size="10.00">27</text>
</a>
</g>
</g>
<!-- dir_571606a76e1ff5501c4a901dcb6dfdb9&#45;&gt;dir_776fdf42423b0a1b81b2a68528f2db8d -->
<g id="edge9" class="edge">
<title>dir_571606a76e1ff5501c4a901dcb6dfdb9&#45;&gt;dir_776fdf42423b0a1b81b2a68528f2db8d</title>
<path fill="none" stroke="black" d="M116.78,-231.93C119.53,-221.6 122.84,-208.13 125,-196 133.28,-149.43 138.45,-94.57 141.02,-62.4"/>
<polygon fill="black" stroke="black" points="144.54,-62.26 141.82,-52.02 137.56,-61.72 144.54,-62.26"/>
<g id="a_edge9&#45;headlabel"><a xlink:href="dir_000007_000017.html" target="_top" xlink:title="9">
<text text-anchor="middle" x="147.1" y="-63.57" font-family="serif" font-size="10.00">9</text>
</a>
</g>
</g>
<!-- dir_aa860df32fe53af435ace18132a49cae -->
<g id="node5" class="node">
<title>dir_aa860df32fe53af435ace18132a49cae</title>
<g id="a_node5"><a xlink:href="dir_aa860df32fe53af435ace18132a49cae.html" target="_top" xlink:title="Integrators">
<polygon fill="#eeeeff" stroke="black" points="120,-340 46,-340 46,-304 120,-304 120,-340"/>
<text text-anchor="middle" x="83" y="-319.5" font-family="serif" font-size="10.00">Integrators</text>
</a>
</g>
</g>
<!-- dir_aa860df32fe53af435ace18132a49cae&#45;&gt;dir_38b1b3d1f25295a5f9f47bc1a8a0b9db -->
<g id="edge3" class="edge">
<title>dir_aa860df32fe53af435ace18132a49cae&#45;&gt;dir_38b1b3d1f25295a5f9f47bc1a8a0b9db</title>
<path fill="none" stroke="black" d="M68.4,-303.69C45.05,-273.77 4.13,-210.72 27,-160 32.18,-148.52 41.21,-138.52 50.72,-130.4"/>
<polygon fill="black" stroke="black" points="53.09,-132.99 58.74,-124.03 48.73,-127.51 53.09,-132.99"/>
<g id="a_edge3&#45;headlabel"><a xlink:href="dir_000001_000002.html" target="_top" xlink:title="3">
<text text-anchor="middle" x="52.04" y="-134.95" font-family="serif" font-size="10.00">3</text>
</a>
</g>
</g>
<!-- dir_aa860df32fe53af435ace18132a49cae&#45;&gt;dir_4ba7ab9c59ce2588972867e4ae609232 -->
<g id="edge4" class="edge">
<title>dir_aa860df32fe53af435ace18132a49cae&#45;&gt;dir_4ba7ab9c59ce2588972867e4ae609232</title>
<path fill="none" stroke="black" d="M75.52,-303.7C71.53,-293.52 67.03,-280.27 65,-268 61.61,-247.47 63.97,-224.01 66.98,-206.34"/>
<polygon fill="black" stroke="black" points="70.49,-206.63 68.9,-196.16 63.61,-205.34 70.49,-206.63"/>
<g id="a_edge4&#45;headlabel"><a xlink:href="dir_000001_000013.html" target="_top" xlink:title="14">
<text text-anchor="middle" x="72.61" y="-208.19" font-family="serif" font-size="10.00">14</text>
</a>
</g>
</g>
<!-- dir_aa860df32fe53af435ace18132a49cae&#45;&gt;dir_571606a76e1ff5501c4a901dcb6dfdb9 -->
<g id="edge5" class="edge">
<title>dir_aa860df32fe53af435ace18132a49cae&#45;&gt;dir_571606a76e1ff5501c4a901dcb6dfdb9</title>
<path fill="none" stroke="black" d="M90.17,-303.7C93.43,-295.81 97.37,-286.3 101,-277.55"/>
<polygon fill="black" stroke="black" points="104.32,-278.68 104.91,-268.1 97.85,-276 104.32,-278.68"/>
<g id="a_edge5&#45;headlabel"><a xlink:href="dir_000001_000007.html" target="_top" xlink:title="21">
<text text-anchor="middle" x="105.57" y="-280.59" font-family="serif" font-size="10.00">21</text>
</a>
</g>
</g>
<!-- dir_aa860df32fe53af435ace18132a49cae&#45;&gt;dir_776fdf42423b0a1b81b2a68528f2db8d -->
<g id="edge6" class="edge">
<title>dir_aa860df32fe53af435ace18132a49cae&#45;&gt;dir_776fdf42423b0a1b81b2a68528f2db8d</title>
<path fill="none" stroke="black" d="M120.18,-304.72C135.08,-296.11 150.67,-283.97 159,-268 194.15,-200.63 169.26,-107.04 153.4,-61.71"/>
<polygon fill="black" stroke="black" points="156.59,-60.24 149.89,-52.04 150.01,-62.63 156.59,-60.24"/>
<g id="a_edge6&#45;headlabel"><a xlink:href="dir_000001_000017.html" target="_top" xlink:title="13">
<text text-anchor="middle" x="160.49" y="-60.15" font-family="serif" font-size="10.00">13</text>
</a>
</g>
</g>
</g>
</svg>
