<?xml version="1.0" encoding="UTF-8" standalone="no"?>
<!DOCTYPE svg PUBLIC "-//W3C//DTD SVG 1.1//EN"
 "http://www.w3.org/Graphics/SVG/1.1/DTD/svg11.dtd">
<!-- Generated by graphviz version 2.43.0 (0)
 -->
<!-- Title: Parameters Pages: 1 -->
<svg width="114pt" height="167pt"
 viewBox="0.00 0.00 114.00 167.00" xmlns="http://www.w3.org/2000/svg" xmlns:xlink="http://www.w3.org/1999/xlink">
<g id="graph0" class="graph" transform="scale(1 1) rotate(0) translate(4 163)">
<title>Parameters</title>
<g id="clust1" class="cluster">
<title>clusterdir_dc43877d82dd332f9fb2071fcca799d6</title>
<g id="a_clust1"><a xlink:href="dir_dc43877d82dd332f9fb2071fcca799d6.html" target="_top" xlink:title="kernel">
<polygon fill="#ddddee" stroke="black" points="8,-8 8,-151 98,-151 98,-8 8,-8"/>
<text text-anchor="middle" x="53" y="-139" font-family="serif" font-size="10.00">kernel</text>
</a>
</g>
</g>
<!-- dir_38b1b3d1f25295a5f9f47bc1a8a0b9db -->
<g id="node1" class="node">
<title>dir_38b1b3d1f25295a5f9f47bc1a8a0b9db</title>
<g id="a_node1"><a xlink:href="dir_38b1b3d1f25295a5f9f47bc1a8a0b9db.html" target="_top" xlink:title="Options">
<polygon fill="none" stroke="black" points="81,-52 25,-52 25,-16 81,-16 81,-52"/>
<text text-anchor="middle" x="53" y="-31.5" font-family="serif" font-size="10.00">Options</text>
</a>
</g>
</g>
<!-- dir_4ba7ab9c59ce2588972867e4ae609232 -->
<g id="node2" class="node">
<title>dir_4ba7ab9c59ce2588972867e4ae609232</title>
<g id="a_node2"><a xlink:href="dir_4ba7ab9c59ce2588972867e4ae609232.html" target="_top" xlink:title="Parameters">
<polygon fill="#eeeeff" stroke="black" points="90,-124 16,-124 16,-88 90,-88 90,-124"/>
<text text-anchor="middle" x="53" y="-103.5" font-family="serif" font-size="10.00">Parameters</text>
</a>
</g>
</g>
<!-- dir_4ba7ab9c59ce2588972867e4ae609232&#45;&gt;dir_38b1b3d1f25295a5f9f47bc1a8a0b9db -->
<g id="edge1" class="edge">
<title>dir_4ba7ab9c59ce2588972867e4ae609232&#45;&gt;dir_38b1b3d1f25295a5f9f47bc1a8a0b9db</title>
<path fill="none" stroke="black" d="M53,-87.7C53,-79.98 53,-70.71 53,-62.11"/>
<polygon fill="black" stroke="black" points="56.5,-62.1 53,-52.1 49.5,-62.1 56.5,-62.1"/>
<g id="a_edge1&#45;headlabel"><a xlink:href="dir_000013_000002.html" target="_top" xlink:title="1">
<text text-anchor="middle" x="59.34" y="-63.2" font-family="serif" font-size="10.00">1</text>
</a>
</g>
</g>
</g>
</svg>
