<?xml version="1.0" encoding="UTF-8" standalone="no"?>
<!DOCTYPE svg PUBLIC "-//W3C//DTD SVG 1.1//EN"
 "http://www.w3.org/Graphics/SVG/1.1/DTD/svg11.dtd">
<!-- Generated by graphviz version 2.43.0 (0)
 -->
<!-- Title: Variables Pages: 1 -->
<svg width="270pt" height="311pt"
 viewBox="0.00 0.00 270.00 311.00" xmlns="http://www.w3.org/2000/svg" xmlns:xlink="http://www.w3.org/1999/xlink">
<g id="graph0" class="graph" transform="scale(1 1) rotate(0) translate(4 307)">
<title>Variables</title>
<g id="clust1" class="cluster">
<title>clusterdir_dc43877d82dd332f9fb2071fcca799d6</title>
<g id="a_clust1"><a xlink:href="dir_dc43877d82dd332f9fb2071fcca799d6.html" target="_top" xlink:title="kernel">
<polygon fill="#ddddee" stroke="black" points="8,-8 8,-295 254,-295 254,-8 8,-8"/>
<text text-anchor="middle" x="131" y="-283" font-family="serif" font-size="10.00">kernel</text>
</a>
</g>
</g>
<!-- dir_776fdf42423b0a1b81b2a68528f2db8d -->
<g id="node1" class="node">
<title>dir_776fdf42423b0a1b81b2a68528f2db8d</title>
<g id="a_node1"><a xlink:href="dir_776fdf42423b0a1b81b2a68528f2db8d.html" target="_top" xlink:title="Utils">
<polygon fill="none" stroke="black" points="90,-52 36,-52 36,-16 90,-16 90,-52"/>
<text text-anchor="middle" x="63" y="-31.5" font-family="serif" font-size="10.00">Utils</text>
</a>
</g>
</g>
<!-- dir_8001dd73971afb1c11a9a71f4e6085a3 -->
<g id="node2" class="node">
<title>dir_8001dd73971afb1c11a9a71f4e6085a3</title>
<g id="a_node2"><a xlink:href="dir_8001dd73971afb1c11a9a71f4e6085a3.html" target="_top" xlink:title="BCs">
<polygon fill="none" stroke="black" points="90,-196 36,-196 36,-160 90,-160 90,-196"/>
<text text-anchor="middle" x="63" y="-175.5" font-family="serif" font-size="10.00">BCs</text>
</a>
</g>
</g>
<!-- dir_8001dd73971afb1c11a9a71f4e6085a3&#45;&gt;dir_776fdf42423b0a1b81b2a68528f2db8d -->
<g id="edge2" class="edge">
<title>dir_8001dd73971afb1c11a9a71f4e6085a3&#45;&gt;dir_776fdf42423b0a1b81b2a68528f2db8d</title>
<path fill="none" stroke="black" d="M56.35,-159.63C52.8,-149.42 48.8,-136.17 47,-124 44.66,-108.17 44.66,-103.83 47,-88 48.28,-79.35 50.67,-70.15 53.22,-61.89"/>
<polygon fill="black" stroke="black" points="56.55,-62.96 56.35,-52.37 49.9,-60.78 56.55,-62.96"/>
<g id="a_edge2&#45;headlabel"><a xlink:href="dir_000005_000017.html" target="_top" xlink:title="2">
<text text-anchor="middle" x="58.12" y="-64.77" font-family="serif" font-size="10.00">2</text>
</a>
</g>
</g>
<!-- dir_ec5bade8156e6ef7be92e1dbd9276067 -->
<g id="node4" class="node">
<title>dir_ec5bade8156e6ef7be92e1dbd9276067</title>
<g id="a_node4"><a xlink:href="dir_ec5bade8156e6ef7be92e1dbd9276067.html" target="_top" xlink:title="Spatial">
<polygon fill="none" stroke="black" points="110,-124 56,-124 56,-88 110,-88 110,-124"/>
<text text-anchor="middle" x="83" y="-103.5" font-family="serif" font-size="10.00">Spatial</text>
</a>
</g>
</g>
<!-- dir_8001dd73971afb1c11a9a71f4e6085a3&#45;&gt;dir_ec5bade8156e6ef7be92e1dbd9276067 -->
<g id="edge3" class="edge">
<title>dir_8001dd73971afb1c11a9a71f4e6085a3&#45;&gt;dir_ec5bade8156e6ef7be92e1dbd9276067</title>
<path fill="none" stroke="black" d="M67.94,-159.7C70.17,-151.9 72.85,-142.51 75.33,-133.83"/>
<polygon fill="black" stroke="black" points="78.73,-134.68 78.11,-124.1 72,-132.76 78.73,-134.68"/>
<g id="a_edge3&#45;headlabel"><a xlink:href="dir_000005_000015.html" target="_top" xlink:title="2">
<text text-anchor="middle" x="80.47" y="-136.42" font-family="serif" font-size="10.00">2</text>
</a>
</g>
</g>
<!-- dir_86d408188003db5635ae8618c79a3489 -->
<g id="node3" class="node">
<title>dir_86d408188003db5635ae8618c79a3489</title>
<g id="a_node3"><a xlink:href="dir_86d408188003db5635ae8618c79a3489.html" target="_top" xlink:title="AnalyticalFunctions">
<polygon fill="none" stroke="black" points="245.5,-124 128.5,-124 128.5,-88 245.5,-88 245.5,-124"/>
<text text-anchor="middle" x="187" y="-103.5" font-family="serif" font-size="10.00">AnalyticalFunctions</text>
</a>
</g>
</g>
<!-- dir_86d408188003db5635ae8618c79a3489&#45;&gt;dir_776fdf42423b0a1b81b2a68528f2db8d -->
<g id="edge8" class="edge">
<title>dir_86d408188003db5635ae8618c79a3489&#45;&gt;dir_776fdf42423b0a1b81b2a68528f2db8d</title>
<path fill="none" stroke="black" d="M156.67,-87.88C139.25,-78.04 117.27,-65.64 98.98,-55.31"/>
<polygon fill="black" stroke="black" points="100.5,-52.15 90.07,-50.28 97.05,-58.24 100.5,-52.15"/>
<g id="a_edge8&#45;headlabel"><a xlink:href="dir_000003_000017.html" target="_top" xlink:title="1">
<text text-anchor="middle" x="105.02" y="-48.94" font-family="serif" font-size="10.00">1</text>
</a>
</g>
</g>
<!-- dir_ec5bade8156e6ef7be92e1dbd9276067&#45;&gt;dir_776fdf42423b0a1b81b2a68528f2db8d -->
<g id="edge1" class="edge">
<title>dir_ec5bade8156e6ef7be92e1dbd9276067&#45;&gt;dir_776fdf42423b0a1b81b2a68528f2db8d</title>
<path fill="none" stroke="black" d="M78.06,-87.7C75.83,-79.9 73.15,-70.51 70.67,-61.83"/>
<polygon fill="black" stroke="black" points="74,-60.76 67.89,-52.1 67.27,-62.68 74,-60.76"/>
<g id="a_edge1&#45;headlabel"><a xlink:href="dir_000015_000017.html" target="_top" xlink:title="1">
<text text-anchor="middle" x="77.72" y="-60.93" font-family="serif" font-size="10.00">1</text>
</a>
</g>
</g>
<!-- dir_fbbaed38a74dbb8ddeae68bdf4e08e5a -->
<g id="node5" class="node">
<title>dir_fbbaed38a74dbb8ddeae68bdf4e08e5a</title>
<g id="a_node5"><a xlink:href="dir_fbbaed38a74dbb8ddeae68bdf4e08e5a.html" target="_top" xlink:title="Variables">
<polygon fill="#eeeeff" stroke="black" points="117.5,-268 54.5,-268 54.5,-232 117.5,-232 117.5,-268"/>
<text text-anchor="middle" x="86" y="-247.5" font-family="serif" font-size="10.00">Variables</text>
</a>
</g>
</g>
<!-- dir_fbbaed38a74dbb8ddeae68bdf4e08e5a&#45;&gt;dir_776fdf42423b0a1b81b2a68528f2db8d -->
<g id="edge4" class="edge">
<title>dir_fbbaed38a74dbb8ddeae68bdf4e08e5a&#45;&gt;dir_776fdf42423b0a1b81b2a68528f2db8d</title>
<path fill="none" stroke="black" d="M58.2,-231.87C46.23,-222.84 33.5,-210.59 27,-196 6.93,-151 30.09,-93.78 47.44,-61.08"/>
<polygon fill="black" stroke="black" points="50.6,-62.6 52.36,-52.15 44.47,-59.22 50.6,-62.6"/>
<g id="a_edge4&#45;headlabel"><a xlink:href="dir_000018_000017.html" target="_top" xlink:title="1">
<text text-anchor="middle" x="51.35" y="-64.62" font-family="serif" font-size="10.00">1</text>
</a>
</g>
</g>
<!-- dir_fbbaed38a74dbb8ddeae68bdf4e08e5a&#45;&gt;dir_8001dd73971afb1c11a9a71f4e6085a3 -->
<g id="edge5" class="edge">
<title>dir_fbbaed38a74dbb8ddeae68bdf4e08e5a&#45;&gt;dir_8001dd73971afb1c11a9a71f4e6085a3</title>
<path fill="none" stroke="black" d="M80.31,-231.7C77.75,-223.9 74.67,-214.51 71.82,-205.83"/>
<polygon fill="black" stroke="black" points="75.07,-204.51 68.62,-196.1 68.42,-206.7 75.07,-204.51"/>
<g id="a_edge5&#45;headlabel"><a xlink:href="dir_000018_000005.html" target="_top" xlink:title="1">
<text text-anchor="middle" x="78.89" y="-204.54" font-family="serif" font-size="10.00">1</text>
</a>
</g>
</g>
<!-- dir_fbbaed38a74dbb8ddeae68bdf4e08e5a&#45;&gt;dir_86d408188003db5635ae8618c79a3489 -->
<g id="edge6" class="edge">
<title>dir_fbbaed38a74dbb8ddeae68bdf4e08e5a&#45;&gt;dir_86d408188003db5635ae8618c79a3489</title>
<path fill="none" stroke="black" d="M98.18,-231.87C115.78,-207.14 148.42,-161.24 168.85,-132.51"/>
<polygon fill="black" stroke="black" points="171.83,-134.37 174.77,-124.19 166.13,-130.31 171.83,-134.37"/>
<g id="a_edge6&#45;headlabel"><a xlink:href="dir_000018_000003.html" target="_top" xlink:title="1">
<text text-anchor="middle" x="172.06" y="-136.44" font-family="serif" font-size="10.00">1</text>
</a>
</g>
</g>
<!-- dir_fbbaed38a74dbb8ddeae68bdf4e08e5a&#45;&gt;dir_ec5bade8156e6ef7be92e1dbd9276067 -->
<g id="edge7" class="edge">
<title>dir_fbbaed38a74dbb8ddeae68bdf4e08e5a&#45;&gt;dir_ec5bade8156e6ef7be92e1dbd9276067</title>
<path fill="none" stroke="black" d="M91.41,-231.53C94.3,-221.29 97.55,-208.04 99,-196 100.92,-180.12 101.34,-175.83 99,-160 97.72,-151.35 95.33,-142.15 92.78,-133.89"/>
<polygon fill="black" stroke="black" points="96.1,-132.78 89.65,-124.37 89.45,-134.96 96.1,-132.78"/>
<g id="a_edge7&#45;headlabel"><a xlink:href="dir_000018_000015.html" target="_top" xlink:title="1">
<text text-anchor="middle" x="99.92" y="-132.81" font-family="serif" font-size="10.00">1</text>
</a>
</g>
</g>
</g>
</svg>
