<?xml version="1.0" encoding="UTF-8" standalone="no"?>
<!DOCTYPE svg PUBLIC "-//W3C//DTD SVG 1.1//EN"
 "http://www.w3.org/Graphics/SVG/1.1/DTD/svg11.dtd">
<!-- Generated by graphviz version 2.43.0 (0)
 -->
<!-- Title: Property Pages: 1 -->
<svg width="134pt" height="239pt"
 viewBox="0.00 0.00 134.00 239.00" xmlns="http://www.w3.org/2000/svg" xmlns:xlink="http://www.w3.org/1999/xlink">
<g id="graph0" class="graph" transform="scale(1 1) rotate(0) translate(4 235)">
<title>Property</title>
<g id="clust1" class="cluster">
<title>clusterdir_dc43877d82dd332f9fb2071fcca799d6</title>
<g id="a_clust1"><a xlink:href="dir_dc43877d82dd332f9fb2071fcca799d6.html" target="_top" xlink:title="kernel">
<polygon fill="#ddddee" stroke="black" points="8,-8 8,-223 118,-223 118,-8 8,-8"/>
<text text-anchor="middle" x="63" y="-211" font-family="serif" font-size="10.00">kernel</text>
</a>
</g>
</g>
<!-- dir_38b1b3d1f25295a5f9f47bc1a8a0b9db -->
<g id="node1" class="node">
<title>dir_38b1b3d1f25295a5f9f47bc1a8a0b9db</title>
<g id="a_node1"><a xlink:href="dir_38b1b3d1f25295a5f9f47bc1a8a0b9db.html" target="_top" xlink:title="Options">
<polygon fill="none" stroke="black" points="86,-52 30,-52 30,-16 86,-16 86,-52"/>
<text text-anchor="middle" x="58" y="-31.5" font-family="serif" font-size="10.00">Options</text>
</a>
</g>
</g>
<!-- dir_4ba7ab9c59ce2588972867e4ae609232 -->
<g id="node2" class="node">
<title>dir_4ba7ab9c59ce2588972867e4ae609232</title>
<g id="a_node2"><a xlink:href="dir_4ba7ab9c59ce2588972867e4ae609232.html" target="_top" xlink:title="Parameters">
<polygon fill="none" stroke="black" points="110,-124 36,-124 36,-88 110,-88 110,-124"/>
<text text-anchor="middle" x="73" y="-103.5" font-family="serif" font-size="10.00">Parameters</text>
</a>
</g>
</g>
<!-- dir_4ba7ab9c59ce2588972867e4ae609232&#45;&gt;dir_38b1b3d1f25295a5f9f47bc1a8a0b9db -->
<g id="edge1" class="edge">
<title>dir_4ba7ab9c59ce2588972867e4ae609232&#45;&gt;dir_38b1b3d1f25295a5f9f47bc1a8a0b9db</title>
<path fill="none" stroke="black" d="M69.29,-87.7C67.64,-79.98 65.65,-70.71 63.81,-62.11"/>
<polygon fill="black" stroke="black" points="67.18,-61.15 61.67,-52.1 60.34,-62.62 67.18,-61.15"/>
<g id="a_edge1&#45;headlabel"><a xlink:href="dir_000013_000002.html" target="_top" xlink:title="1">
<text text-anchor="middle" x="70.71" y="-61.57" font-family="serif" font-size="10.00">1</text>
</a>
</g>
</g>
<!-- dir_ec4177cd03787638d8727ed95e43a565 -->
<g id="node3" class="node">
<title>dir_ec4177cd03787638d8727ed95e43a565</title>
<g id="a_node3"><a xlink:href="dir_ec4177cd03787638d8727ed95e43a565.html" target="_top" xlink:title="Property">
<polygon fill="#eeeeff" stroke="black" points="90.5,-196 29.5,-196 29.5,-160 90.5,-160 90.5,-196"/>
<text text-anchor="middle" x="60" y="-175.5" font-family="serif" font-size="10.00">Property</text>
</a>
</g>
</g>
<!-- dir_ec4177cd03787638d8727ed95e43a565&#45;&gt;dir_38b1b3d1f25295a5f9f47bc1a8a0b9db -->
<g id="edge2" class="edge">
<title>dir_ec4177cd03787638d8727ed95e43a565&#45;&gt;dir_38b1b3d1f25295a5f9f47bc1a8a0b9db</title>
<path fill="none" stroke="black" d="M45.67,-159.57C38.55,-149.76 30.69,-136.92 27,-124 22.6,-108.62 22.82,-103.44 27,-88 29.58,-78.48 34.34,-68.92 39.38,-60.59"/>
<polygon fill="black" stroke="black" points="42.38,-62.39 44.85,-52.09 36.49,-58.6 42.38,-62.39"/>
<g id="a_edge2&#45;headlabel"><a xlink:href="dir_000012_000002.html" target="_top" xlink:title="2">
<text text-anchor="middle" x="42.82" y="-64.45" font-family="serif" font-size="10.00">2</text>
</a>
</g>
</g>
<!-- dir_ec4177cd03787638d8727ed95e43a565&#45;&gt;dir_4ba7ab9c59ce2588972867e4ae609232 -->
<g id="edge3" class="edge">
<title>dir_ec4177cd03787638d8727ed95e43a565&#45;&gt;dir_4ba7ab9c59ce2588972867e4ae609232</title>
<path fill="none" stroke="black" d="M63.21,-159.7C64.65,-151.98 66.37,-142.71 67.96,-134.11"/>
<polygon fill="black" stroke="black" points="71.44,-134.58 69.82,-124.1 64.56,-133.3 71.44,-134.58"/>
<g id="a_edge3&#45;headlabel"><a xlink:href="dir_000012_000013.html" target="_top" xlink:title="4">
<text text-anchor="middle" x="73.57" y="-136.13" font-family="serif" font-size="10.00">4</text>
</a>
</g>
</g>
</g>
</svg>
