<?xml version="1.0" encoding="UTF-8" standalone="no"?>
<!DOCTYPE svg PUBLIC "-//W3C//DTD SVG 1.1//EN"
 "http://www.w3.org/Graphics/SVG/1.1/DTD/svg11.dtd">
<!-- Generated by graphviz version 2.43.0 (0)
 -->
<!-- Title: Spatial Pages: 1 -->
<svg width="116pt" height="239pt"
 viewBox="0.00 0.00 116.00 239.00" xmlns="http://www.w3.org/2000/svg" xmlns:xlink="http://www.w3.org/1999/xlink">
<g id="graph0" class="graph" transform="scale(1 1) rotate(0) translate(4 235)">
<title>Spatial</title>
<g id="clust1" class="cluster">
<title>clusterdir_dc43877d82dd332f9fb2071fcca799d6</title>
<g id="a_clust1"><a xlink:href="dir_dc43877d82dd332f9fb2071fcca799d6.html" target="_top" xlink:title="kernel">
<polygon fill="#ddddee" stroke="black" points="8,-8 8,-223 100,-223 100,-8 8,-8"/>
<text text-anchor="middle" x="54" y="-211" font-family="serif" font-size="10.00">kernel</text>
</a>
</g>
</g>
<!-- dir_38b1b3d1f25295a5f9f47bc1a8a0b9db -->
<g id="node1" class="node">
<title>dir_38b1b3d1f25295a5f9f47bc1a8a0b9db</title>
<g id="a_node1"><a xlink:href="dir_38b1b3d1f25295a5f9f47bc1a8a0b9db.html" target="_top" xlink:title="Options">
<polygon fill="none" stroke="black" points="72,-124 16,-124 16,-88 72,-88 72,-124"/>
<text text-anchor="middle" x="44" y="-103.5" font-family="serif" font-size="10.00">Options</text>
</a>
</g>
</g>
<!-- dir_776fdf42423b0a1b81b2a68528f2db8d -->
<g id="node2" class="node">
<title>dir_776fdf42423b0a1b81b2a68528f2db8d</title>
<g id="a_node2"><a xlink:href="dir_776fdf42423b0a1b81b2a68528f2db8d.html" target="_top" xlink:title="Utils">
<polygon fill="none" stroke="black" points="81,-52 27,-52 27,-16 81,-16 81,-52"/>
<text text-anchor="middle" x="54" y="-31.5" font-family="serif" font-size="10.00">Utils</text>
</a>
</g>
</g>
<!-- dir_38b1b3d1f25295a5f9f47bc1a8a0b9db&#45;&gt;dir_776fdf42423b0a1b81b2a68528f2db8d -->
<g id="edge1" class="edge">
<title>dir_38b1b3d1f25295a5f9f47bc1a8a0b9db&#45;&gt;dir_776fdf42423b0a1b81b2a68528f2db8d</title>
<path fill="none" stroke="black" d="M46.47,-87.7C47.57,-79.98 48.9,-70.71 50.13,-62.11"/>
<polygon fill="black" stroke="black" points="53.61,-62.5 51.56,-52.1 46.68,-61.51 53.61,-62.5"/>
<g id="a_edge1&#45;headlabel"><a xlink:href="dir_000002_000017.html" target="_top" xlink:title="11">
<text text-anchor="middle" x="55.91" y="-63.96" font-family="serif" font-size="10.00">11</text>
</a>
</g>
</g>
<!-- dir_ec5bade8156e6ef7be92e1dbd9276067 -->
<g id="node3" class="node">
<title>dir_ec5bade8156e6ef7be92e1dbd9276067</title>
<g id="a_node3"><a xlink:href="dir_ec5bade8156e6ef7be92e1dbd9276067.html" target="_top" xlink:title="Spatial">
<polygon fill="#eeeeff" stroke="black" points="81,-196 27,-196 27,-160 81,-160 81,-196"/>
<text text-anchor="middle" x="54" y="-175.5" font-family="serif" font-size="10.00">Spatial</text>
</a>
</g>
</g>
<!-- dir_ec5bade8156e6ef7be92e1dbd9276067&#45;&gt;dir_38b1b3d1f25295a5f9f47bc1a8a0b9db -->
<g id="edge2" class="edge">
<title>dir_ec5bade8156e6ef7be92e1dbd9276067&#45;&gt;dir_38b1b3d1f25295a5f9f47bc1a8a0b9db</title>
<path fill="none" stroke="black" d="M51.53,-159.7C50.43,-151.98 49.1,-142.71 47.87,-134.11"/>
<polygon fill="black" stroke="black" points="51.32,-133.51 46.44,-124.1 44.39,-134.5 51.32,-133.51"/>
<g id="a_edge2&#45;headlabel"><a xlink:href="dir_000015_000002.html" target="_top" xlink:title="1">
<text text-anchor="middle" x="54.64" y="-134.17" font-family="serif" font-size="10.00">1</text>
</a>
</g>
</g>
<!-- dir_ec5bade8156e6ef7be92e1dbd9276067&#45;&gt;dir_776fdf42423b0a1b81b2a68528f2db8d -->
<g id="edge3" class="edge">
<title>dir_ec5bade8156e6ef7be92e1dbd9276067&#45;&gt;dir_776fdf42423b0a1b81b2a68528f2db8d</title>
<path fill="none" stroke="black" d="M65.47,-159.67C71.37,-149.69 77.96,-136.65 81,-124 84.73,-108.44 84.73,-103.56 81,-88 78.79,-78.81 74.71,-69.41 70.38,-61.13"/>
<polygon fill="black" stroke="black" points="73.4,-59.36 65.47,-52.33 67.28,-62.77 73.4,-59.36"/>
<g id="a_edge3&#45;headlabel"><a xlink:href="dir_000015_000017.html" target="_top" xlink:title="1">
<text text-anchor="middle" x="77.63" y="-58.61" font-family="serif" font-size="10.00">1</text>
</a>
</g>
</g>
</g>
</svg>
