<?xml version="1.0" encoding="UTF-8" standalone="no"?>
<!DOCTYPE svg PUBLIC "-//W3C//DTD SVG 1.1//EN"
 "http://www.w3.org/Graphics/SVG/1.1/DTD/svg11.dtd">
<!-- Generated by graphviz version 2.43.0 (0)
 -->
<!-- Title: Time Pages: 1 -->
<svg width="178pt" height="167pt"
 viewBox="0.00 0.00 178.00 167.00" xmlns="http://www.w3.org/2000/svg" xmlns:xlink="http://www.w3.org/1999/xlink">
<g id="graph0" class="graph" transform="scale(1 1) rotate(0) translate(4 163)">
<title>Time</title>
<g id="clust1" class="cluster">
<title>clusterdir_dc43877d82dd332f9fb2071fcca799d6</title>
<g id="a_clust1"><a xlink:href="dir_dc43877d82dd332f9fb2071fcca799d6.html" target="_top" xlink:title="kernel">
<polygon fill="#ddddee" stroke="black" points="8,-8 8,-151 162,-151 162,-8 8,-8"/>
<text text-anchor="middle" x="85" y="-139" font-family="serif" font-size="10.00">kernel</text>
</a>
</g>
</g>
<!-- dir_40d523f69030cd312e56865939dc94d8 -->
<g id="node1" class="node">
<title>dir_40d523f69030cd312e56865939dc94d8</title>
<g id="a_node1"><a xlink:href="dir_40d523f69030cd312e56865939dc94d8.html" target="_top" xlink:title="Problems">
<polygon fill="none" stroke="black" points="81.5,-52 16.5,-52 16.5,-16 81.5,-16 81.5,-52"/>
<text text-anchor="middle" x="49" y="-31.5" font-family="serif" font-size="10.00">Problems</text>
</a>
</g>
</g>
<!-- dir_776fdf42423b0a1b81b2a68528f2db8d -->
<g id="node2" class="node">
<title>dir_776fdf42423b0a1b81b2a68528f2db8d</title>
<g id="a_node2"><a xlink:href="dir_776fdf42423b0a1b81b2a68528f2db8d.html" target="_top" xlink:title="Utils">
<polygon fill="none" stroke="black" points="154,-52 100,-52 100,-16 154,-16 154,-52"/>
<text text-anchor="middle" x="127" y="-31.5" font-family="serif" font-size="10.00">Utils</text>
</a>
</g>
</g>
<!-- dir_ed933fff649efb5e97fdaf04ad0e9cca -->
<g id="node3" class="node">
<title>dir_ed933fff649efb5e97fdaf04ad0e9cca</title>
<g id="a_node3"><a xlink:href="dir_ed933fff649efb5e97fdaf04ad0e9cca.html" target="_top" xlink:title="Time">
<polygon fill="#eeeeff" stroke="black" points="115,-124 61,-124 61,-88 115,-88 115,-124"/>
<text text-anchor="middle" x="88" y="-103.5" font-family="serif" font-size="10.00">Time</text>
</a>
</g>
</g>
<!-- dir_ed933fff649efb5e97fdaf04ad0e9cca&#45;&gt;dir_40d523f69030cd312e56865939dc94d8 -->
<g id="edge1" class="edge">
<title>dir_ed933fff649efb5e97fdaf04ad0e9cca&#45;&gt;dir_40d523f69030cd312e56865939dc94d8</title>
<path fill="none" stroke="black" d="M78.36,-87.7C73.87,-79.64 68.44,-69.89 63.48,-60.98"/>
<polygon fill="black" stroke="black" points="66.45,-59.14 58.53,-52.1 60.34,-62.54 66.45,-59.14"/>
<g id="a_edge1&#45;headlabel"><a xlink:href="dir_000016_000006.html" target="_top" xlink:title="1">
<text text-anchor="middle" x="70.68" y="-58.39" font-family="serif" font-size="10.00">1</text>
</a>
</g>
</g>
<!-- dir_ed933fff649efb5e97fdaf04ad0e9cca&#45;&gt;dir_776fdf42423b0a1b81b2a68528f2db8d -->
<g id="edge2" class="edge">
<title>dir_ed933fff649efb5e97fdaf04ad0e9cca&#45;&gt;dir_776fdf42423b0a1b81b2a68528f2db8d</title>
<path fill="none" stroke="black" d="M97.64,-87.7C102.13,-79.64 107.56,-69.89 112.52,-60.98"/>
<polygon fill="black" stroke="black" points="115.66,-62.54 117.47,-52.1 109.55,-59.14 115.66,-62.54"/>
<g id="a_edge2&#45;headlabel"><a xlink:href="dir_000016_000017.html" target="_top" xlink:title="1">
<text text-anchor="middle" x="116.39" y="-64.57" font-family="serif" font-size="10.00">1</text>
</a>
</g>
</g>
</g>
</svg>
