<?xml version="1.0" encoding="UTF-8" standalone="no"?>
<!DOCTYPE svg PUBLIC "-//W3C//DTD SVG 1.1//EN"
 "http://www.w3.org/Graphics/SVG/1.1/DTD/svg11.dtd">
<!-- Generated by graphviz version 2.43.0 (0)
 -->
<!-- Title: Problems Pages: 1 -->
<svg width="347pt" height="239pt"
 viewBox="0.00 0.00 347.00 239.00" xmlns="http://www.w3.org/2000/svg" xmlns:xlink="http://www.w3.org/1999/xlink">
<g id="graph0" class="graph" transform="scale(1 1) rotate(0) translate(4 235)">
<title>Problems</title>
<g id="clust1" class="cluster">
<title>clusterdir_dc43877d82dd332f9fb2071fcca799d6</title>
<g id="a_clust1"><a xlink:href="dir_dc43877d82dd332f9fb2071fcca799d6.html" target="_top" xlink:title="kernel">
<polygon fill="#ddddee" stroke="black" points="8,-8 8,-223 331,-223 331,-8 8,-8"/>
<text text-anchor="middle" x="169.5" y="-211" font-family="serif" font-size="10.00">kernel</text>
</a>
</g>
</g>
<!-- dir_24fccc6540dc0b48a48e320524a2940f -->
<g id="node1" class="node">
<title>dir_24fccc6540dc0b48a48e320524a2940f</title>
<g id="a_node1"><a xlink:href="dir_24fccc6540dc0b48a48e320524a2940f.html" target="_top" xlink:title="PostProcessing">
<polygon fill="none" stroke="black" points="108.5,-124 15.5,-124 15.5,-88 108.5,-88 108.5,-124"/>
<text text-anchor="middle" x="62" y="-103.5" font-family="serif" font-size="10.00">PostProcessing</text>
</a>
</g>
</g>
<!-- dir_fbbaed38a74dbb8ddeae68bdf4e08e5a -->
<g id="node4" class="node">
<title>dir_fbbaed38a74dbb8ddeae68bdf4e08e5a</title>
<g id="a_node4"><a xlink:href="dir_fbbaed38a74dbb8ddeae68bdf4e08e5a.html" target="_top" xlink:title="Variables">
<polygon fill="none" stroke="black" points="207.5,-52 144.5,-52 144.5,-16 207.5,-16 207.5,-52"/>
<text text-anchor="middle" x="176" y="-31.5" font-family="serif" font-size="10.00">Variables</text>
</a>
</g>
</g>
<!-- dir_24fccc6540dc0b48a48e320524a2940f&#45;&gt;dir_fbbaed38a74dbb8ddeae68bdf4e08e5a -->
<g id="edge1" class="edge">
<title>dir_24fccc6540dc0b48a48e320524a2940f&#45;&gt;dir_fbbaed38a74dbb8ddeae68bdf4e08e5a</title>
<path fill="none" stroke="black" d="M89.89,-87.88C104.79,-78.72 123.33,-67.34 139.38,-57.48"/>
<polygon fill="black" stroke="black" points="141.31,-60.41 148.01,-52.19 137.65,-54.44 141.31,-60.41"/>
<g id="a_edge1&#45;headlabel"><a xlink:href="dir_000014_000018.html" target="_top" xlink:title="1">
<text text-anchor="middle" x="139.74" y="-62.21" font-family="serif" font-size="10.00">1</text>
</a>
</g>
</g>
<!-- dir_4ba7ab9c59ce2588972867e4ae609232 -->
<g id="node2" class="node">
<title>dir_4ba7ab9c59ce2588972867e4ae609232</title>
<g id="a_node2"><a xlink:href="dir_4ba7ab9c59ce2588972867e4ae609232.html" target="_top" xlink:title="Parameters">
<polygon fill="none" stroke="black" points="201,-124 127,-124 127,-88 201,-88 201,-124"/>
<text text-anchor="middle" x="164" y="-103.5" font-family="serif" font-size="10.00">Parameters</text>
</a>
</g>
</g>
<!-- dir_73d572eb1d8a4486ab5f1d106a965d63 -->
<g id="node3" class="node">
<title>dir_73d572eb1d8a4486ab5f1d106a965d63</title>
<g id="a_node3"><a xlink:href="dir_73d572eb1d8a4486ab5f1d106a965d63.html" target="_top" xlink:title="Convergence">
<polygon fill="none" stroke="black" points="303,-124 219,-124 219,-88 303,-88 303,-124"/>
<text text-anchor="middle" x="261" y="-103.5" font-family="serif" font-size="10.00">Convergence</text>
</a>
</g>
</g>
<!-- dir_40d523f69030cd312e56865939dc94d8 -->
<g id="node5" class="node">
<title>dir_40d523f69030cd312e56865939dc94d8</title>
<g id="a_node5"><a xlink:href="dir_40d523f69030cd312e56865939dc94d8.html" target="_top" xlink:title="Problems">
<polygon fill="#eeeeff" stroke="black" points="244.5,-196 179.5,-196 179.5,-160 244.5,-160 244.5,-196"/>
<text text-anchor="middle" x="212" y="-175.5" font-family="serif" font-size="10.00">Problems</text>
</a>
</g>
</g>
<!-- dir_40d523f69030cd312e56865939dc94d8&#45;&gt;dir_24fccc6540dc0b48a48e320524a2940f -->
<g id="edge2" class="edge">
<title>dir_40d523f69030cd312e56865939dc94d8&#45;&gt;dir_24fccc6540dc0b48a48e320524a2940f</title>
<path fill="none" stroke="black" d="M179.45,-161.81C158.47,-152.02 130.89,-139.15 107.73,-128.34"/>
<polygon fill="black" stroke="black" points="108.97,-125.06 98.43,-124 106.01,-131.4 108.97,-125.06"/>
<g id="a_edge2&#45;headlabel"><a xlink:href="dir_000006_000014.html" target="_top" xlink:title="3">
<text text-anchor="middle" x="113.43" y="-121.51" font-family="serif" font-size="10.00">3</text>
</a>
</g>
</g>
<!-- dir_40d523f69030cd312e56865939dc94d8&#45;&gt;dir_4ba7ab9c59ce2588972867e4ae609232 -->
<g id="edge3" class="edge">
<title>dir_40d523f69030cd312e56865939dc94d8&#45;&gt;dir_4ba7ab9c59ce2588972867e4ae609232</title>
<path fill="none" stroke="black" d="M200.13,-159.7C194.5,-151.47 187.65,-141.48 181.43,-132.42"/>
<polygon fill="black" stroke="black" points="184.27,-130.37 175.73,-124.1 178.5,-134.33 184.27,-130.37"/>
<g id="a_edge3&#45;headlabel"><a xlink:href="dir_000006_000013.html" target="_top" xlink:title="5">
<text text-anchor="middle" x="188.65" y="-129.23" font-family="serif" font-size="10.00">5</text>
</a>
</g>
</g>
<!-- dir_40d523f69030cd312e56865939dc94d8&#45;&gt;dir_73d572eb1d8a4486ab5f1d106a965d63 -->
<g id="edge4" class="edge">
<title>dir_40d523f69030cd312e56865939dc94d8&#45;&gt;dir_73d572eb1d8a4486ab5f1d106a965d63</title>
<path fill="none" stroke="black" d="M224.11,-159.7C229.87,-151.47 236.86,-141.48 243.21,-132.42"/>
<polygon fill="black" stroke="black" points="246.16,-134.3 249.03,-124.1 240.42,-130.29 246.16,-134.3"/>
<g id="a_edge4&#45;headlabel"><a xlink:href="dir_000006_000008.html" target="_top" xlink:title="7">
<text text-anchor="middle" x="246.42" y="-136.38" font-family="serif" font-size="10.00">7</text>
</a>
</g>
</g>
<!-- dir_40d523f69030cd312e56865939dc94d8&#45;&gt;dir_fbbaed38a74dbb8ddeae68bdf4e08e5a -->
<g id="edge5" class="edge">
<title>dir_40d523f69030cd312e56865939dc94d8&#45;&gt;dir_fbbaed38a74dbb8ddeae68bdf4e08e5a</title>
<path fill="none" stroke="black" d="M244.78,-169.21C268.01,-161.79 297.51,-148.07 312,-124 320.25,-110.29 321.03,-101.21 312,-88 290.97,-57.23 249.21,-44.32 217.48,-38.91"/>
<polygon fill="black" stroke="black" points="217.99,-35.44 207.58,-37.4 216.94,-42.37 217.99,-35.44"/>
<g id="a_edge5&#45;headlabel"><a xlink:href="dir_000006_000018.html" target="_top" xlink:title="3">
<text text-anchor="middle" x="221.97" y="-30.68" font-family="serif" font-size="10.00">3</text>
</a>
</g>
</g>
</g>
</svg>
