<?xml version="1.0" encoding="UTF-8" standalone="no"?>
<!DOCTYPE svg PUBLIC "-//W3C//DTD SVG 1.1//EN"
 "http://www.w3.org/Graphics/SVG/1.1/DTD/svg11.dtd">
<!-- Generated by graphviz version 2.43.0 (0)
 -->
<!-- Title: Coefficients Pages: 1 -->
<svg width="154pt" height="311pt"
 viewBox="0.00 0.00 154.00 311.00" xmlns="http://www.w3.org/2000/svg" xmlns:xlink="http://www.w3.org/1999/xlink">
<g id="graph0" class="graph" transform="scale(1 1) rotate(0) translate(4 307)">
<title>Coefficients</title>
<g id="clust1" class="cluster">
<title>clusterdir_dc43877d82dd332f9fb2071fcca799d6</title>
<g id="a_clust1"><a xlink:href="dir_dc43877d82dd332f9fb2071fcca799d6.html" target="_top" xlink:title="kernel">
<polygon fill="#ddddee" stroke="black" points="8,-8 8,-295 138,-295 138,-8 8,-8"/>
<text text-anchor="middle" x="73" y="-283" font-family="serif" font-size="10.00">kernel</text>
</a>
</g>
</g>
<!-- dir_38b1b3d1f25295a5f9f47bc1a8a0b9db -->
<g id="node1" class="node">
<title>dir_38b1b3d1f25295a5f9f47bc1a8a0b9db</title>
<g id="a_node1"><a xlink:href="dir_38b1b3d1f25295a5f9f47bc1a8a0b9db.html" target="_top" xlink:title="Options">
<polygon fill="none" stroke="black" points="101,-124 45,-124 45,-88 101,-88 101,-124"/>
<text text-anchor="middle" x="73" y="-103.5" font-family="serif" font-size="10.00">Options</text>
</a>
</g>
</g>
<!-- dir_776fdf42423b0a1b81b2a68528f2db8d -->
<g id="node3" class="node">
<title>dir_776fdf42423b0a1b81b2a68528f2db8d</title>
<g id="a_node3"><a xlink:href="dir_776fdf42423b0a1b81b2a68528f2db8d.html" target="_top" xlink:title="Utils">
<polygon fill="none" stroke="black" points="115,-52 61,-52 61,-16 115,-16 115,-52"/>
<text text-anchor="middle" x="88" y="-31.5" font-family="serif" font-size="10.00">Utils</text>
</a>
</g>
</g>
<!-- dir_38b1b3d1f25295a5f9f47bc1a8a0b9db&#45;&gt;dir_776fdf42423b0a1b81b2a68528f2db8d -->
<g id="edge2" class="edge">
<title>dir_38b1b3d1f25295a5f9f47bc1a8a0b9db&#45;&gt;dir_776fdf42423b0a1b81b2a68528f2db8d</title>
<path fill="none" stroke="black" d="M76.71,-87.7C78.36,-79.98 80.35,-70.71 82.19,-62.11"/>
<polygon fill="black" stroke="black" points="85.66,-62.62 84.33,-52.1 78.82,-61.15 85.66,-62.62"/>
<g id="a_edge2&#45;headlabel"><a xlink:href="dir_000002_000017.html" target="_top" xlink:title="11">
<text text-anchor="middle" x="87.68" y="-64.23" font-family="serif" font-size="10.00">11</text>
</a>
</g>
</g>
<!-- dir_4ba7ab9c59ce2588972867e4ae609232 -->
<g id="node2" class="node">
<title>dir_4ba7ab9c59ce2588972867e4ae609232</title>
<g id="a_node2"><a xlink:href="dir_4ba7ab9c59ce2588972867e4ae609232.html" target="_top" xlink:title="Parameters">
<polygon fill="none" stroke="black" points="110,-196 36,-196 36,-160 110,-160 110,-196"/>
<text text-anchor="middle" x="73" y="-175.5" font-family="serif" font-size="10.00">Parameters</text>
</a>
</g>
</g>
<!-- dir_4ba7ab9c59ce2588972867e4ae609232&#45;&gt;dir_38b1b3d1f25295a5f9f47bc1a8a0b9db -->
<g id="edge1" class="edge">
<title>dir_4ba7ab9c59ce2588972867e4ae609232&#45;&gt;dir_38b1b3d1f25295a5f9f47bc1a8a0b9db</title>
<path fill="none" stroke="black" d="M73,-159.7C73,-151.98 73,-142.71 73,-134.11"/>
<polygon fill="black" stroke="black" points="76.5,-134.1 73,-124.1 69.5,-134.1 76.5,-134.1"/>
<g id="a_edge1&#45;headlabel"><a xlink:href="dir_000013_000002.html" target="_top" xlink:title="1">
<text text-anchor="middle" x="79.34" y="-135.2" font-family="serif" font-size="10.00">1</text>
</a>
</g>
</g>
<!-- dir_571606a76e1ff5501c4a901dcb6dfdb9 -->
<g id="node4" class="node">
<title>dir_571606a76e1ff5501c4a901dcb6dfdb9</title>
<g id="a_node4"><a xlink:href="dir_571606a76e1ff5501c4a901dcb6dfdb9.html" target="_top" xlink:title="Coefficients">
<polygon fill="#eeeeff" stroke="black" points="111,-268 35,-268 35,-232 111,-232 111,-268"/>
<text text-anchor="middle" x="73" y="-247.5" font-family="serif" font-size="10.00">Coefficients</text>
</a>
</g>
</g>
<!-- dir_571606a76e1ff5501c4a901dcb6dfdb9&#45;&gt;dir_38b1b3d1f25295a5f9f47bc1a8a0b9db -->
<g id="edge3" class="edge">
<title>dir_571606a76e1ff5501c4a901dcb6dfdb9&#45;&gt;dir_38b1b3d1f25295a5f9f47bc1a8a0b9db</title>
<path fill="none" stroke="black" d="M52.18,-231.62C42.54,-222.2 32.11,-209.7 27,-196 21.4,-181.01 21.4,-174.99 27,-160 30.88,-149.62 37.8,-139.93 45.12,-131.74"/>
<polygon fill="black" stroke="black" points="47.78,-134.03 52.18,-124.38 42.73,-129.18 47.78,-134.03"/>
<g id="a_edge3&#45;headlabel"><a xlink:href="dir_000007_000002.html" target="_top" xlink:title="13">
<text text-anchor="middle" x="47.35" y="-136.09" font-family="serif" font-size="10.00">13</text>
</a>
</g>
</g>
<!-- dir_571606a76e1ff5501c4a901dcb6dfdb9&#45;&gt;dir_4ba7ab9c59ce2588972867e4ae609232 -->
<g id="edge4" class="edge">
<title>dir_571606a76e1ff5501c4a901dcb6dfdb9&#45;&gt;dir_4ba7ab9c59ce2588972867e4ae609232</title>
<path fill="none" stroke="black" d="M73,-231.7C73,-223.98 73,-214.71 73,-206.11"/>
<polygon fill="black" stroke="black" points="76.5,-206.1 73,-196.1 69.5,-206.1 76.5,-206.1"/>
<g id="a_edge4&#45;headlabel"><a xlink:href="dir_000007_000013.html" target="_top" xlink:title="27">
<text text-anchor="middle" x="79.34" y="-207.2" font-family="serif" font-size="10.00">27</text>
</a>
</g>
</g>
<!-- dir_571606a76e1ff5501c4a901dcb6dfdb9&#45;&gt;dir_776fdf42423b0a1b81b2a68528f2db8d -->
<g id="edge5" class="edge">
<title>dir_571606a76e1ff5501c4a901dcb6dfdb9&#45;&gt;dir_776fdf42423b0a1b81b2a68528f2db8d</title>
<path fill="none" stroke="black" d="M93.82,-231.62C103.46,-222.2 113.89,-209.7 119,-196 135.97,-150.57 116.62,-94.3 101.78,-61.74"/>
<polygon fill="black" stroke="black" points="104.81,-59.97 97.36,-52.43 98.49,-62.97 104.81,-59.97"/>
<g id="a_edge5&#45;headlabel"><a xlink:href="dir_000007_000017.html" target="_top" xlink:title="9">
<text text-anchor="middle" x="108.92" y="-59.5" font-family="serif" font-size="10.00">9</text>
</a>
</g>
</g>
</g>
</svg>
