<?xml version="1.0" encoding="UTF-8" standalone="no"?>
<!DOCTYPE svg PUBLIC "-//W3C//DTD SVG 1.1//EN"
 "http://www.w3.org/Graphics/SVG/1.1/DTD/svg11.dtd">
<!-- Generated by graphviz version 2.43.0 (0)
 -->
<!-- Title: kernel Pages: 1 -->
<svg width="816pt" height="652pt"
 viewBox="0.00 0.00 816.00 652.00" xmlns="http://www.w3.org/2000/svg" xmlns:xlink="http://www.w3.org/1999/xlink">
<g id="graph0" class="graph" transform="scale(1 1) rotate(0) translate(4 648)">
<title>kernel</title>
<g id="clust1" class="cluster">
<title>clusterdir_dc43877d82dd332f9fb2071fcca799d6</title>
<g id="a_clust1"><a xlink:href="dir_dc43877d82dd332f9fb2071fcca799d6.html" target="_top">
<polygon fill="#eeeeff" stroke="black" points="8,-8 8,-636 800,-636 800,-8 8,-8"/>
</a>
</g>
</g>
<!-- dir_dc43877d82dd332f9fb2071fcca799d6 -->
<g id="node1" class="node">
<title>dir_dc43877d82dd332f9fb2071fcca799d6</title>
<text text-anchor="middle" x="464" y="-607.5" font-family="serif" font-size="10.00">kernel</text>
</g>
<!-- dir_86d408188003db5635ae8618c79a3489 -->
<g id="node2" class="node">
<title>dir_86d408188003db5635ae8618c79a3489</title>
<g id="a_node2"><a xlink:href="dir_86d408188003db5635ae8618c79a3489.html" target="_top" xlink:title="AnalyticalFunctions">
<polygon fill="white" stroke="black" points="559.5,-268 442.5,-268 442.5,-232 559.5,-232 559.5,-268"/>
<text text-anchor="middle" x="501" y="-247.5" font-family="serif" font-size="10.00">AnalyticalFunctions</text>
</a>
</g>
</g>
<!-- dir_dc43877d82dd332f9fb2071fcca799d6&#45;&gt;dir_86d408188003db5635ae8618c79a3489 -->
<g id="edge21" class="edge">
<title>dir_dc43877d82dd332f9fb2071fcca799d6&#45;&gt;dir_86d408188003db5635ae8618c79a3489</title>
<path fill="none" stroke="black" d="M455.41,-591.76C437.14,-552.76 397.9,-454.96 421,-376 432.26,-337.51 459.4,-299.62 478.95,-275.82"/>
<polygon fill="black" stroke="black" points="481.76,-277.92 485.51,-268.02 476.4,-273.42 481.76,-277.92"/>
<g id="a_edge21&#45;headlabel"><a xlink:href="dir_000000_000003.html" target="_top" xlink:title="5">
<text text-anchor="middle" x="481.62" y="-280" font-family="serif" font-size="10.00">5</text>
</a>
</g>
</g>
<!-- dir_8001dd73971afb1c11a9a71f4e6085a3 -->
<g id="node3" class="node">
<title>dir_8001dd73971afb1c11a9a71f4e6085a3</title>
<g id="a_node3"><a xlink:href="dir_8001dd73971afb1c11a9a71f4e6085a3.html" target="_top" xlink:title="BCs">
<polygon fill="white" stroke="black" points="692,-268 638,-268 638,-232 692,-232 692,-268"/>
<text text-anchor="middle" x="665" y="-247.5" font-family="serif" font-size="10.00">BCs</text>
</a>
</g>
</g>
<!-- dir_dc43877d82dd332f9fb2071fcca799d6&#45;&gt;dir_8001dd73971afb1c11a9a71f4e6085a3 -->
<g id="edge20" class="edge">
<title>dir_dc43877d82dd332f9fb2071fcca799d6&#45;&gt;dir_8001dd73971afb1c11a9a71f4e6085a3</title>
<path fill="none" stroke="black" d="M491.12,-605.41C539.39,-598.43 637.21,-581.45 659,-556 685.17,-525.43 665.97,-414.08 679,-376 685.07,-358.26 695.92,-358.05 701,-340 705.33,-324.6 705.7,-319.29 701,-304 697.99,-294.22 692.49,-284.62 686.68,-276.33"/>
<polygon fill="black" stroke="black" points="689.41,-274.13 680.61,-268.23 683.81,-278.33 689.41,-274.13"/>
<g id="a_edge20&#45;headlabel"><a xlink:href="dir_000000_000005.html" target="_top" xlink:title="4">
<text text-anchor="middle" x="693.83" y="-272.8" font-family="serif" font-size="10.00">4</text>
</a>
</g>
</g>
<!-- dir_0dd0051337f539fbf390499a7a2ef9d8 -->
<g id="node4" class="node">
<title>dir_0dd0051337f539fbf390499a7a2ef9d8</title>
<g id="a_node4"><a xlink:href="dir_0dd0051337f539fbf390499a7a2ef9d8.html" target="_top" xlink:title="Calphad">
<polygon fill="white" stroke="black" points="262.5,-340 203.5,-340 203.5,-304 262.5,-304 262.5,-340"/>
<text text-anchor="middle" x="233" y="-319.5" font-family="serif" font-size="10.00">Calphad</text>
</a>
</g>
</g>
<!-- dir_dc43877d82dd332f9fb2071fcca799d6&#45;&gt;dir_0dd0051337f539fbf390499a7a2ef9d8 -->
<g id="edge15" class="edge">
<title>dir_dc43877d82dd332f9fb2071fcca799d6&#45;&gt;dir_0dd0051337f539fbf390499a7a2ef9d8</title>
<path fill="none" stroke="black" d="M436.88,-609.2C397.12,-607.93 323.34,-599.42 283,-556 229.7,-498.64 227.88,-398.74 230.56,-350.56"/>
<polygon fill="black" stroke="black" points="234.07,-350.49 231.24,-340.28 227.08,-350.03 234.07,-350.49"/>
<g id="a_edge15&#45;headlabel"><a xlink:href="dir_000000_000004.html" target="_top" xlink:title="5">
<text text-anchor="middle" x="236.66" y="-351.77" font-family="serif" font-size="10.00">5</text>
</a>
</g>
</g>
<!-- dir_73d572eb1d8a4486ab5f1d106a965d63 -->
<g id="node6" class="node">
<title>dir_73d572eb1d8a4486ab5f1d106a965d63</title>
<g id="a_node6"><a xlink:href="dir_73d572eb1d8a4486ab5f1d106a965d63.html" target="_top" xlink:title="Convergence">
<polygon fill="white" stroke="black" points="772,-412 688,-412 688,-376 772,-376 772,-412"/>
<text text-anchor="middle" x="730" y="-391.5" font-family="serif" font-size="10.00">Convergence</text>
</a>
</g>
</g>
<!-- dir_dc43877d82dd332f9fb2071fcca799d6&#45;&gt;dir_73d572eb1d8a4486ab5f1d106a965d63 -->
<g id="edge19" class="edge">
<title>dir_dc43877d82dd332f9fb2071fcca799d6&#45;&gt;dir_73d572eb1d8a4486ab5f1d106a965d63</title>
<path fill="none" stroke="black" d="M491.31,-609.88C535.41,-609.78 622.57,-603.12 674,-556 712.27,-520.94 724.38,-458.37 728.22,-422.43"/>
<polygon fill="black" stroke="black" points="731.73,-422.47 729.17,-412.19 724.76,-421.82 731.73,-422.47"/>
<g id="a_edge19&#45;headlabel"><a xlink:href="dir_000000_000008.html" target="_top" xlink:title="9">
<text text-anchor="middle" x="734.23" y="-423.81" font-family="serif" font-size="10.00">9</text>
</a>
</g>
</g>
<!-- dir_ea0dbb743b6aff4596412acd6093a1ab -->
<g id="node7" class="node">
<title>dir_ea0dbb743b6aff4596412acd6093a1ab</title>
<g id="a_node7"><a xlink:href="dir_ea0dbb743b6aff4596412acd6093a1ab.html" target="_top" xlink:title="Couplings">
<polygon fill="white" stroke="black" points="107,-484 39,-484 39,-448 107,-448 107,-484"/>
<text text-anchor="middle" x="73" y="-463.5" font-family="serif" font-size="10.00">Couplings</text>
</a>
</g>
</g>
<!-- dir_dc43877d82dd332f9fb2071fcca799d6&#45;&gt;dir_ea0dbb743b6aff4596412acd6093a1ab -->
<g id="edge23" class="edge">
<title>dir_dc43877d82dd332f9fb2071fcca799d6&#45;&gt;dir_ea0dbb743b6aff4596412acd6093a1ab</title>
<path fill="none" stroke="black" d="M436.77,-608C385.62,-605.23 272.61,-594.84 187,-556 152.18,-540.2 118.44,-511.7 96.82,-491.2"/>
<polygon fill="black" stroke="black" points="99.05,-488.49 89.43,-484.05 94.18,-493.52 99.05,-488.49"/>
<g id="a_edge23&#45;headlabel"><a xlink:href="dir_000000_000009.html" target="_top" xlink:title="1">
<text text-anchor="middle" x="103.61" y="-486.44" font-family="serif" font-size="10.00">1</text>
</a>
</g>
</g>
<!-- dir_aa860df32fe53af435ace18132a49cae -->
<g id="node8" class="node">
<title>dir_aa860df32fe53af435ace18132a49cae</title>
<g id="a_node8"><a xlink:href="dir_aa860df32fe53af435ace18132a49cae.html" target="_top" xlink:title="Integrators">
<polygon fill="white" stroke="black" points="151,-340 77,-340 77,-304 151,-304 151,-340"/>
<text text-anchor="middle" x="114" y="-319.5" font-family="serif" font-size="10.00">Integrators</text>
</a>
</g>
</g>
<!-- dir_dc43877d82dd332f9fb2071fcca799d6&#45;&gt;dir_aa860df32fe53af435ace18132a49cae -->
<g id="edge22" class="edge">
<title>dir_dc43877d82dd332f9fb2071fcca799d6&#45;&gt;dir_aa860df32fe53af435ace18132a49cae</title>
<path fill="none" stroke="black" d="M436.69,-608.57C393.74,-606.57 309.56,-597.23 254,-556 181.47,-502.17 139.14,-398.6 122.39,-349.75"/>
<polygon fill="black" stroke="black" points="125.69,-348.57 119.21,-340.19 119.05,-350.79 125.69,-348.57"/>
<g id="a_edge22&#45;headlabel"><a xlink:href="dir_000000_000001.html" target="_top" xlink:title="17">
<text text-anchor="middle" x="129.52" y="-348.58" font-family="serif" font-size="10.00">17</text>
</a>
</g>
</g>
<!-- dir_72da18c13f436691e9c601a019ee3b23 -->
<g id="node9" class="node">
<title>dir_72da18c13f436691e9c601a019ee3b23</title>
<g id="a_node9"><a xlink:href="dir_72da18c13f436691e9c601a019ee3b23.html" target="_top" xlink:title="Operators">
<polygon fill="white" stroke="black" points="498,-412 430,-412 430,-376 498,-376 498,-412"/>
<text text-anchor="middle" x="464" y="-391.5" font-family="serif" font-size="10.00">Operators</text>
</a>
</g>
</g>
<!-- dir_dc43877d82dd332f9fb2071fcca799d6&#45;&gt;dir_72da18c13f436691e9c601a019ee3b23 -->
<g id="edge18" class="edge">
<title>dir_dc43877d82dd332f9fb2071fcca799d6&#45;&gt;dir_72da18c13f436691e9c601a019ee3b23</title>
<path fill="none" stroke="black" d="M464,-591.85C464,-554.83 464,-467.18 464,-422.39"/>
<polygon fill="black" stroke="black" points="467.5,-422.23 464,-412.23 460.5,-422.23 467.5,-422.23"/>
<g id="a_edge18&#45;headlabel"><a xlink:href="dir_000000_000010.html" target="_top" xlink:title="8">
<text text-anchor="middle" x="470.34" y="-423.33" font-family="serif" font-size="10.00">8</text>
</a>
</g>
</g>
<!-- dir_24fccc6540dc0b48a48e320524a2940f -->
<g id="node12" class="node">
<title>dir_24fccc6540dc0b48a48e320524a2940f</title>
<g id="a_node12"><a xlink:href="dir_24fccc6540dc0b48a48e320524a2940f.html" target="_top" xlink:title="PostProcessing">
<polygon fill="white" stroke="black" points="649.5,-412 556.5,-412 556.5,-376 649.5,-376 649.5,-412"/>
<text text-anchor="middle" x="603" y="-391.5" font-family="serif" font-size="10.00">PostProcessing</text>
</a>
</g>
</g>
<!-- dir_dc43877d82dd332f9fb2071fcca799d6&#45;&gt;dir_24fccc6540dc0b48a48e320524a2940f -->
<g id="edge16" class="edge">
<title>dir_dc43877d82dd332f9fb2071fcca799d6&#45;&gt;dir_24fccc6540dc0b48a48e320524a2940f</title>
<path fill="none" stroke="black" d="M487.98,-591.63C516.18,-569.83 562.15,-529.7 586,-484 596.04,-464.76 600.19,-440.42 601.89,-422.06"/>
<polygon fill="black" stroke="black" points="605.39,-422.25 602.64,-412.02 598.41,-421.73 605.39,-422.25"/>
<g id="a_edge16&#45;headlabel"><a xlink:href="dir_000000_000014.html" target="_top" xlink:title="4">
<text text-anchor="middle" x="607.96" y="-423.54" font-family="serif" font-size="10.00">4</text>
</a>
</g>
</g>
<!-- dir_40d523f69030cd312e56865939dc94d8 -->
<g id="node13" class="node">
<title>dir_40d523f69030cd312e56865939dc94d8</title>
<g id="a_node13"><a xlink:href="dir_40d523f69030cd312e56865939dc94d8.html" target="_top" xlink:title="Problems">
<polygon fill="white" stroke="black" points="576.5,-484 511.5,-484 511.5,-448 576.5,-448 576.5,-484"/>
<text text-anchor="middle" x="544" y="-463.5" font-family="serif" font-size="10.00">Problems</text>
</a>
</g>
</g>
<!-- dir_dc43877d82dd332f9fb2071fcca799d6&#45;&gt;dir_40d523f69030cd312e56865939dc94d8 -->
<g id="edge17" class="edge">
<title>dir_dc43877d82dd332f9fb2071fcca799d6&#45;&gt;dir_40d523f69030cd312e56865939dc94d8</title>
<path fill="none" stroke="black" d="M475.32,-591.52C481.84,-581.28 490.09,-568.03 497,-556 508.9,-535.29 521.49,-511.32 530.64,-493.48"/>
<polygon fill="black" stroke="black" points="533.92,-494.76 535.35,-484.26 527.68,-491.58 533.92,-494.76"/>
<g id="a_edge17&#45;headlabel"><a xlink:href="dir_000000_000006.html" target="_top" xlink:title="6">
<text text-anchor="middle" x="534.81" y="-496.75" font-family="serif" font-size="10.00">6</text>
</a>
</g>
</g>
<!-- dir_ec4177cd03787638d8727ed95e43a565 -->
<g id="node14" class="node">
<title>dir_ec4177cd03787638d8727ed95e43a565</title>
<g id="a_node14"><a xlink:href="dir_ec4177cd03787638d8727ed95e43a565.html" target="_top" xlink:title="Property">
<polygon fill="white" stroke="black" points="271.5,-268 210.5,-268 210.5,-232 271.5,-232 271.5,-268"/>
<text text-anchor="middle" x="241" y="-247.5" font-family="serif" font-size="10.00">Property</text>
</a>
</g>
</g>
<!-- dir_dc43877d82dd332f9fb2071fcca799d6&#45;&gt;dir_ec4177cd03787638d8727ed95e43a565 -->
<g id="edge25" class="edge">
<title>dir_dc43877d82dd332f9fb2071fcca799d6&#45;&gt;dir_ec4177cd03787638d8727ed95e43a565</title>
<path fill="none" stroke="black" d="M436.89,-601.07C387.52,-584.78 288,-542.58 288,-467 288,-467 288,-467 288,-393 288,-352.81 285.92,-341.7 272,-304 268.58,-294.75 263.59,-285.26 258.6,-276.91"/>
<polygon fill="black" stroke="black" points="261.53,-275 253.27,-268.37 255.59,-278.71 261.53,-275"/>
<g id="a_edge25&#45;headlabel"><a xlink:href="dir_000000_000012.html" target="_top" xlink:title="2">
<text text-anchor="middle" x="265.84" y="-274.04" font-family="serif" font-size="10.00">2</text>
</a>
</g>
</g>
<!-- dir_ebf79b7b9044af4b885e087222b947e5 -->
<g id="node15" class="node">
<title>dir_ebf79b7b9044af4b885e087222b947e5</title>
<g id="a_node15"><a xlink:href="dir_ebf79b7b9044af4b885e087222b947e5.html" target="_top" xlink:title="Solvers">
<polygon fill="white" stroke="black" points="404,-268 350,-268 350,-232 404,-232 404,-268"/>
<text text-anchor="middle" x="377" y="-247.5" font-family="serif" font-size="10.00">Solvers</text>
</a>
</g>
</g>
<!-- dir_dc43877d82dd332f9fb2071fcca799d6&#45;&gt;dir_ebf79b7b9044af4b885e087222b947e5 -->
<g id="edge24" class="edge">
<title>dir_dc43877d82dd332f9fb2071fcca799d6&#45;&gt;dir_ebf79b7b9044af4b885e087222b947e5</title>
<path fill="none" stroke="black" d="M442.9,-591.68C415.46,-567.08 371,-519.16 371,-467 371,-467 371,-467 371,-393 371,-352.96 373.41,-306.63 375.18,-278.07"/>
<polygon fill="black" stroke="black" points="378.67,-278.24 375.81,-268.04 371.69,-277.8 378.67,-278.24"/>
<g id="a_edge24&#45;headlabel"><a xlink:href="dir_000000_000011.html" target="_top" xlink:title="15">
<text text-anchor="middle" x="381.28" y="-279.51" font-family="serif" font-size="10.00">15</text>
</a>
</g>
</g>
<!-- dir_ed933fff649efb5e97fdaf04ad0e9cca -->
<g id="node17" class="node">
<title>dir_ed933fff649efb5e97fdaf04ad0e9cca</title>
<g id="a_node17"><a xlink:href="dir_ed933fff649efb5e97fdaf04ad0e9cca.html" target="_top" xlink:title="Time">
<polygon fill="white" stroke="black" points="650,-556 596,-556 596,-520 650,-520 650,-556"/>
<text text-anchor="middle" x="623" y="-535.5" font-family="serif" font-size="10.00">Time</text>
</a>
</g>
</g>
<!-- dir_dc43877d82dd332f9fb2071fcca799d6&#45;&gt;dir_ed933fff649efb5e97fdaf04ad0e9cca -->
<g id="edge26" class="edge">
<title>dir_dc43877d82dd332f9fb2071fcca799d6&#45;&gt;dir_ed933fff649efb5e97fdaf04ad0e9cca</title>
<path fill="none" stroke="black" d="M491.33,-596.97C517.58,-585.41 557.4,-567.88 586.38,-555.12"/>
<polygon fill="black" stroke="black" points="588.02,-558.23 595.76,-550.99 585.2,-551.82 588.02,-558.23"/>
<g id="a_edge26&#45;headlabel"><a xlink:href="dir_000000_000016.html" target="_top" xlink:title="1">
<text text-anchor="middle" x="585.87" y="-559.77" font-family="serif" font-size="10.00">1</text>
</a>
</g>
</g>
<!-- dir_fbbaed38a74dbb8ddeae68bdf4e08e5a -->
<g id="node19" class="node">
<title>dir_fbbaed38a74dbb8ddeae68bdf4e08e5a</title>
<g id="a_node19"><a xlink:href="dir_fbbaed38a74dbb8ddeae68bdf4e08e5a.html" target="_top" xlink:title="Variables">
<polygon fill="white" stroke="black" points="691.5,-340 628.5,-340 628.5,-304 691.5,-304 691.5,-340"/>
<text text-anchor="middle" x="660" y="-319.5" font-family="serif" font-size="10.00">Variables</text>
</a>
</g>
</g>
<!-- dir_dc43877d82dd332f9fb2071fcca799d6&#45;&gt;dir_fbbaed38a74dbb8ddeae68bdf4e08e5a -->
<g id="edge27" class="edge">
<title>dir_dc43877d82dd332f9fb2071fcca799d6&#45;&gt;dir_fbbaed38a74dbb8ddeae68bdf4e08e5a</title>
<path fill="none" stroke="black" d="M466.91,-591.82C475.44,-543.4 501.76,-407.26 533,-376 539.52,-369.47 584.42,-351.53 619,-338.32"/>
<polygon fill="black" stroke="black" points="620.33,-341.55 628.44,-334.73 617.85,-335.01 620.33,-341.55"/>
<g id="a_edge27&#45;headlabel"><a xlink:href="dir_000000_000018.html" target="_top" xlink:title="9">
<text text-anchor="middle" x="617.98" y="-342.98" font-family="serif" font-size="10.00">9</text>
</a>
</g>
</g>
<!-- dir_38b1b3d1f25295a5f9f47bc1a8a0b9db -->
<g id="node10" class="node">
<title>dir_38b1b3d1f25295a5f9f47bc1a8a0b9db</title>
<g id="a_node10"><a xlink:href="dir_38b1b3d1f25295a5f9f47bc1a8a0b9db.html" target="_top" xlink:title="Options">
<polygon fill="white" stroke="black" points="367,-124 311,-124 311,-88 367,-88 367,-124"/>
<text text-anchor="middle" x="339" y="-103.5" font-family="serif" font-size="10.00">Options</text>
</a>
</g>
</g>
<!-- dir_86d408188003db5635ae8618c79a3489&#45;&gt;dir_38b1b3d1f25295a5f9f47bc1a8a0b9db -->
<g id="edge56" class="edge">
<title>dir_86d408188003db5635ae8618c79a3489&#45;&gt;dir_38b1b3d1f25295a5f9f47bc1a8a0b9db</title>
<path fill="none" stroke="black" d="M489.6,-231.76C476.38,-212.63 453.15,-181.64 428,-160 412.36,-146.54 392.86,-134.5 376.1,-125.31"/>
<polygon fill="black" stroke="black" points="377.58,-122.13 367.11,-120.5 374.28,-128.31 377.58,-122.13"/>
<g id="a_edge56&#45;headlabel"><a xlink:href="dir_000003_000002.html" target="_top" xlink:title="1">
<text text-anchor="middle" x="382.09" y="-118.82" font-family="serif" font-size="10.00">1</text>
</a>
</g>
</g>
<!-- dir_776fdf42423b0a1b81b2a68528f2db8d -->
<g id="node18" class="node">
<title>dir_776fdf42423b0a1b81b2a68528f2db8d</title>
<g id="a_node18"><a xlink:href="dir_776fdf42423b0a1b81b2a68528f2db8d.html" target="_top" xlink:title="Utils">
<polygon fill="white" stroke="black" points="603,-52 549,-52 549,-16 603,-16 603,-52"/>
<text text-anchor="middle" x="576" y="-31.5" font-family="serif" font-size="10.00">Utils</text>
</a>
</g>
</g>
<!-- dir_86d408188003db5635ae8618c79a3489&#45;&gt;dir_776fdf42423b0a1b81b2a68528f2db8d -->
<g id="edge57" class="edge">
<title>dir_86d408188003db5635ae8618c79a3489&#45;&gt;dir_776fdf42423b0a1b81b2a68528f2db8d</title>
<path fill="none" stroke="black" d="M507.01,-231.85C520.04,-194.68 550.96,-106.44 566.6,-61.82"/>
<polygon fill="black" stroke="black" points="569.96,-62.83 569.96,-52.23 563.35,-60.51 569.96,-62.83"/>
<g id="a_edge57&#45;headlabel"><a xlink:href="dir_000003_000017.html" target="_top" xlink:title="1">
<text text-anchor="middle" x="571.45" y="-64.66" font-family="serif" font-size="10.00">1</text>
</a>
</g>
</g>
<!-- dir_ec5bade8156e6ef7be92e1dbd9276067 -->
<g id="node16" class="node">
<title>dir_ec5bade8156e6ef7be92e1dbd9276067</title>
<g id="a_node16"><a xlink:href="dir_ec5bade8156e6ef7be92e1dbd9276067.html" target="_top" xlink:title="Spatial">
<polygon fill="white" stroke="black" points="649,-196 595,-196 595,-160 649,-160 649,-196"/>
<text text-anchor="middle" x="622" y="-175.5" font-family="serif" font-size="10.00">Spatial</text>
</a>
</g>
</g>
<!-- dir_8001dd73971afb1c11a9a71f4e6085a3&#45;&gt;dir_ec5bade8156e6ef7be92e1dbd9276067 -->
<g id="edge33" class="edge">
<title>dir_8001dd73971afb1c11a9a71f4e6085a3&#45;&gt;dir_ec5bade8156e6ef7be92e1dbd9276067</title>
<path fill="none" stroke="black" d="M654.37,-231.7C649.37,-223.56 643.31,-213.69 637.79,-204.7"/>
<polygon fill="black" stroke="black" points="640.72,-202.79 632.51,-196.1 634.76,-206.46 640.72,-202.79"/>
<g id="a_edge33&#45;headlabel"><a xlink:href="dir_000005_000015.html" target="_top" xlink:title="2">
<text text-anchor="middle" x="645.02" y="-201.87" font-family="serif" font-size="10.00">2</text>
</a>
</g>
</g>
<!-- dir_8001dd73971afb1c11a9a71f4e6085a3&#45;&gt;dir_776fdf42423b0a1b81b2a68528f2db8d -->
<g id="edge32" class="edge">
<title>dir_8001dd73971afb1c11a9a71f4e6085a3&#45;&gt;dir_776fdf42423b0a1b81b2a68528f2db8d</title>
<path fill="none" stroke="black" d="M666.14,-231.76C666.78,-213.45 666.18,-183.9 658,-160 644.93,-121.78 617.44,-83.82 597.9,-59.94"/>
<polygon fill="black" stroke="black" points="600.45,-57.54 591.35,-52.11 595.07,-62.03 600.45,-57.54"/>
<g id="a_edge32&#45;headlabel"><a xlink:href="dir_000005_000017.html" target="_top" xlink:title="2">
<text text-anchor="middle" x="604.93" y="-55.98" font-family="serif" font-size="10.00">2</text>
</a>
</g>
</g>
<!-- dir_571606a76e1ff5501c4a901dcb6dfdb9 -->
<g id="node5" class="node">
<title>dir_571606a76e1ff5501c4a901dcb6dfdb9</title>
<g id="a_node5"><a xlink:href="dir_571606a76e1ff5501c4a901dcb6dfdb9.html" target="_top" xlink:title="Coefficients">
<polygon fill="white" stroke="black" points="152,-268 76,-268 76,-232 152,-232 152,-268"/>
<text text-anchor="middle" x="114" y="-247.5" font-family="serif" font-size="10.00">Coefficients</text>
</a>
</g>
</g>
<!-- dir_0dd0051337f539fbf390499a7a2ef9d8&#45;&gt;dir_571606a76e1ff5501c4a901dcb6dfdb9 -->
<g id="edge48" class="edge">
<title>dir_0dd0051337f539fbf390499a7a2ef9d8&#45;&gt;dir_571606a76e1ff5501c4a901dcb6dfdb9</title>
<path fill="none" stroke="black" d="M203.89,-303.88C188.33,-294.72 168.98,-283.34 152.22,-273.48"/>
<polygon fill="black" stroke="black" points="153.62,-270.24 143.22,-268.19 150.07,-276.28 153.62,-270.24"/>
<g id="a_edge48&#45;headlabel"><a xlink:href="dir_000004_000007.html" target="_top" xlink:title="2">
<text text-anchor="middle" x="158.15" y="-267.12" font-family="serif" font-size="10.00">2</text>
</a>
</g>
</g>
<!-- dir_0dd0051337f539fbf390499a7a2ef9d8&#45;&gt;dir_38b1b3d1f25295a5f9f47bc1a8a0b9db -->
<g id="edge46" class="edge">
<title>dir_0dd0051337f539fbf390499a7a2ef9d8&#45;&gt;dir_38b1b3d1f25295a5f9f47bc1a8a0b9db</title>
<path fill="none" stroke="black" d="M219.85,-303.91C213.08,-294.01 205.51,-280.96 202,-268 197.82,-252.56 197.99,-247.49 202,-232 211.18,-196.56 216.02,-185.79 242,-160 258.85,-143.27 282.08,-130.33 301.58,-121.42"/>
<polygon fill="black" stroke="black" points="303.05,-124.6 310.81,-117.38 300.24,-118.19 303.05,-124.6"/>
<g id="a_edge46&#45;headlabel"><a xlink:href="dir_000004_000002.html" target="_top" xlink:title="4">
<text text-anchor="middle" x="300.9" y="-126.14" font-family="serif" font-size="10.00">4</text>
</a>
</g>
</g>
<!-- dir_4ba7ab9c59ce2588972867e4ae609232 -->
<g id="node11" class="node">
<title>dir_4ba7ab9c59ce2588972867e4ae609232</title>
<g id="a_node11"><a xlink:href="dir_4ba7ab9c59ce2588972867e4ae609232.html" target="_top" xlink:title="Parameters">
<polygon fill="white" stroke="black" points="344,-196 270,-196 270,-160 344,-160 344,-196"/>
<text text-anchor="middle" x="307" y="-175.5" font-family="serif" font-size="10.00">Parameters</text>
</a>
</g>
</g>
<!-- dir_0dd0051337f539fbf390499a7a2ef9d8&#45;&gt;dir_4ba7ab9c59ce2588972867e4ae609232 -->
<g id="edge47" class="edge">
<title>dir_0dd0051337f539fbf390499a7a2ef9d8&#45;&gt;dir_4ba7ab9c59ce2588972867e4ae609232</title>
<path fill="none" stroke="black" d="M252.13,-303.97C261.99,-294.29 273.48,-281.43 281,-268 291.77,-248.74 298.47,-224.59 302.36,-206.3"/>
<polygon fill="black" stroke="black" points="305.83,-206.78 304.33,-196.3 298.96,-205.43 305.83,-206.78"/>
<g id="a_edge47&#45;headlabel"><a xlink:href="dir_000004_000013.html" target="_top" xlink:title="8">
<text text-anchor="middle" x="307.92" y="-208.36" font-family="serif" font-size="10.00">8</text>
</a>
</g>
</g>
<!-- dir_571606a76e1ff5501c4a901dcb6dfdb9&#45;&gt;dir_38b1b3d1f25295a5f9f47bc1a8a0b9db -->
<g id="edge53" class="edge">
<title>dir_571606a76e1ff5501c4a901dcb6dfdb9&#45;&gt;dir_38b1b3d1f25295a5f9f47bc1a8a0b9db</title>
<path fill="none" stroke="black" d="M119.72,-231.65C127.22,-211.55 142.29,-178.77 166,-160 205.4,-128.81 263.1,-115.91 300.86,-110.61"/>
<polygon fill="black" stroke="black" points="301.48,-114.06 310.95,-109.31 300.58,-107.12 301.48,-114.06"/>
<g id="a_edge53&#45;headlabel"><a xlink:href="dir_000007_000002.html" target="_top" xlink:title="13">
<text text-anchor="middle" x="298.27" y="-114.84" font-family="serif" font-size="10.00">13</text>
</a>
</g>
</g>
<!-- dir_571606a76e1ff5501c4a901dcb6dfdb9&#45;&gt;dir_4ba7ab9c59ce2588972867e4ae609232 -->
<g id="edge54" class="edge">
<title>dir_571606a76e1ff5501c4a901dcb6dfdb9&#45;&gt;dir_4ba7ab9c59ce2588972867e4ae609232</title>
<path fill="none" stroke="black" d="M152.13,-235.17C183.23,-223.89 227.27,-207.92 260.45,-195.88"/>
<polygon fill="black" stroke="black" points="261.72,-199.14 269.93,-192.44 259.34,-192.56 261.72,-199.14"/>
<g id="a_edge54&#45;headlabel"><a xlink:href="dir_000007_000013.html" target="_top" xlink:title="27">
<text text-anchor="middle" x="259.31" y="-200.54" font-family="serif" font-size="10.00">27</text>
</a>
</g>
</g>
<!-- dir_571606a76e1ff5501c4a901dcb6dfdb9&#45;&gt;dir_776fdf42423b0a1b81b2a68528f2db8d -->
<g id="edge55" class="edge">
<title>dir_571606a76e1ff5501c4a901dcb6dfdb9&#45;&gt;dir_776fdf42423b0a1b81b2a68528f2db8d</title>
<path fill="none" stroke="black" d="M113.21,-231.94C113.21,-212.41 116.12,-180.49 133,-160 185.52,-96.25 442.08,-53.95 538.91,-40.03"/>
<polygon fill="black" stroke="black" points="539.43,-43.49 548.84,-38.62 538.45,-36.56 539.43,-43.49"/>
<g id="a_edge55&#45;headlabel"><a xlink:href="dir_000007_000017.html" target="_top" xlink:title="9">
<text text-anchor="middle" x="536.27" y="-44.3" font-family="serif" font-size="10.00">9</text>
</a>
</g>
</g>
<!-- dir_73d572eb1d8a4486ab5f1d106a965d63&#45;&gt;dir_776fdf42423b0a1b81b2a68528f2db8d -->
<g id="edge60" class="edge">
<title>dir_73d572eb1d8a4486ab5f1d106a965d63&#45;&gt;dir_776fdf42423b0a1b81b2a68528f2db8d</title>
<path fill="none" stroke="black" d="M739.98,-375.87C745.48,-365.74 751.98,-352.49 756,-340 768.3,-301.82 771,-291.11 771,-251 771,-251 771,-251 771,-177 771,-99.57 669.28,-59.91 612.77,-43.86"/>
<polygon fill="black" stroke="black" points="613.68,-40.48 603.11,-41.22 611.84,-47.23 613.68,-40.48"/>
<g id="a_edge60&#45;headlabel"><a xlink:href="dir_000008_000017.html" target="_top" xlink:title="2">
<text text-anchor="middle" x="617.9" y="-36.19" font-family="serif" font-size="10.00">2</text>
</a>
</g>
</g>
<!-- dir_ea0dbb743b6aff4596412acd6093a1ab&#45;&gt;dir_776fdf42423b0a1b81b2a68528f2db8d -->
<g id="edge45" class="edge">
<title>dir_ea0dbb743b6aff4596412acd6093a1ab&#45;&gt;dir_776fdf42423b0a1b81b2a68528f2db8d</title>
<path fill="none" stroke="black" d="M61.4,-447.93C44.99,-422.09 17,-370.97 17,-323 17,-323 17,-323 17,-177 17,-119.47 58.84,-112.29 111,-88 186.97,-52.63 442.4,-39.85 538.77,-36.22"/>
<polygon fill="black" stroke="black" points="539.06,-39.71 548.92,-35.85 538.8,-32.72 539.06,-39.71"/>
<g id="a_edge45&#45;headlabel"><a xlink:href="dir_000009_000017.html" target="_top" xlink:title="1">
<text text-anchor="middle" x="535.57" y="-40.18" font-family="serif" font-size="10.00">1</text>
</a>
</g>
</g>
<!-- dir_aa860df32fe53af435ace18132a49cae&#45;&gt;dir_571606a76e1ff5501c4a901dcb6dfdb9 -->
<g id="edge40" class="edge">
<title>dir_aa860df32fe53af435ace18132a49cae&#45;&gt;dir_571606a76e1ff5501c4a901dcb6dfdb9</title>
<path fill="none" stroke="black" d="M114,-303.7C114,-295.98 114,-286.71 114,-278.11"/>
<polygon fill="black" stroke="black" points="117.5,-278.1 114,-268.1 110.5,-278.1 117.5,-278.1"/>
<g id="a_edge40&#45;headlabel"><a xlink:href="dir_000001_000007.html" target="_top" xlink:title="21">
<text text-anchor="middle" x="120.34" y="-279.2" font-family="serif" font-size="10.00">21</text>
</a>
</g>
</g>
<!-- dir_aa860df32fe53af435ace18132a49cae&#45;&gt;dir_38b1b3d1f25295a5f9f47bc1a8a0b9db -->
<g id="edge38" class="edge">
<title>dir_aa860df32fe53af435ace18132a49cae&#45;&gt;dir_38b1b3d1f25295a5f9f47bc1a8a0b9db</title>
<path fill="none" stroke="black" d="M92.73,-303.7C82.89,-294.31 72.24,-281.8 67,-268 61.32,-253.04 61.2,-246.91 67,-232 82.74,-191.54 95.77,-182.33 133,-160 185.81,-128.32 257.22,-115.43 300.6,-110.28"/>
<polygon fill="black" stroke="black" points="301.18,-113.74 310.73,-109.16 300.41,-106.78 301.18,-113.74"/>
<g id="a_edge38&#45;headlabel"><a xlink:href="dir_000001_000002.html" target="_top" xlink:title="3">
<text text-anchor="middle" x="297.92" y="-114.46" font-family="serif" font-size="10.00">3</text>
</a>
</g>
</g>
<!-- dir_aa860df32fe53af435ace18132a49cae&#45;&gt;dir_4ba7ab9c59ce2588972867e4ae609232 -->
<g id="edge39" class="edge">
<title>dir_aa860df32fe53af435ace18132a49cae&#45;&gt;dir_4ba7ab9c59ce2588972867e4ae609232</title>
<path fill="none" stroke="black" d="M129.88,-303.65C150.74,-281.1 186.54,-243.25 202,-232 220.02,-218.88 241.76,-207.32 260.77,-198.36"/>
<polygon fill="black" stroke="black" points="262.23,-201.54 269.86,-194.18 259.31,-195.18 262.23,-201.54"/>
<g id="a_edge39&#45;headlabel"><a xlink:href="dir_000001_000013.html" target="_top" xlink:title="14">
<text text-anchor="middle" x="260.16" y="-203.13" font-family="serif" font-size="10.00">14</text>
</a>
</g>
</g>
<!-- dir_aa860df32fe53af435ace18132a49cae&#45;&gt;dir_776fdf42423b0a1b81b2a68528f2db8d -->
<g id="edge41" class="edge">
<title>dir_aa860df32fe53af435ace18132a49cae&#45;&gt;dir_776fdf42423b0a1b81b2a68528f2db8d</title>
<path fill="none" stroke="black" d="M87.88,-303.82C76.42,-294.69 64.19,-282.39 58,-268 51.67,-253.3 55.44,-247.79 58,-232 71.72,-147.48 106.18,-118.99 186,-88 308.69,-40.37 467.54,-34.41 538.68,-34.38"/>
<polygon fill="black" stroke="black" points="538.91,-37.88 548.92,-34.42 538.93,-30.88 538.91,-37.88"/>
<g id="a_edge41&#45;headlabel"><a xlink:href="dir_000001_000017.html" target="_top" xlink:title="13">
<text text-anchor="middle" x="535.3" y="-38.21" font-family="serif" font-size="10.00">13</text>
</a>
</g>
</g>
<!-- dir_72da18c13f436691e9c601a019ee3b23&#45;&gt;dir_86d408188003db5635ae8618c79a3489 -->
<g id="edge6" class="edge">
<title>dir_72da18c13f436691e9c601a019ee3b23&#45;&gt;dir_86d408188003db5635ae8618c79a3489</title>
<path fill="none" stroke="black" d="M468.46,-375.87C474.8,-351.56 486.46,-306.82 493.96,-278.01"/>
<polygon fill="black" stroke="black" points="497.39,-278.75 496.52,-268.19 490.61,-276.98 497.39,-278.75"/>
<g id="a_edge6&#45;headlabel"><a xlink:href="dir_000010_000003.html" target="_top" xlink:title="3">
<text text-anchor="middle" x="499.23" y="-280.44" font-family="serif" font-size="10.00">3</text>
</a>
</g>
</g>
<!-- dir_72da18c13f436691e9c601a019ee3b23&#45;&gt;dir_8001dd73971afb1c11a9a71f4e6085a3 -->
<g id="edge5" class="edge">
<title>dir_72da18c13f436691e9c601a019ee3b23&#45;&gt;dir_8001dd73971afb1c11a9a71f4e6085a3</title>
<path fill="none" stroke="black" d="M498.28,-380.15C534.06,-366.56 586.07,-346.23 594,-340 609.52,-327.8 607.83,-319.53 620,-304 627.3,-294.69 635.6,-284.74 643.07,-276.01"/>
<polygon fill="black" stroke="black" points="645.77,-278.24 649.65,-268.38 640.47,-273.67 645.77,-278.24"/>
<g id="a_edge5&#45;headlabel"><a xlink:href="dir_000010_000005.html" target="_top" xlink:title="1">
<text text-anchor="middle" x="645.57" y="-280.32" font-family="serif" font-size="10.00">1</text>
</a>
</g>
</g>
<!-- dir_72da18c13f436691e9c601a019ee3b23&#45;&gt;dir_571606a76e1ff5501c4a901dcb6dfdb9 -->
<g id="edge3" class="edge">
<title>dir_72da18c13f436691e9c601a019ee3b23&#45;&gt;dir_571606a76e1ff5501c4a901dcb6dfdb9</title>
<path fill="none" stroke="black" d="M429.8,-392.98C376.3,-391.53 271.08,-382.9 195,-340 191.23,-337.87 158.35,-301.15 135.66,-275.55"/>
<polygon fill="black" stroke="black" points="138.24,-273.18 128.99,-268.01 132.99,-277.82 138.24,-273.18"/>
<g id="a_edge3&#45;headlabel"><a xlink:href="dir_000010_000007.html" target="_top" xlink:title="1">
<text text-anchor="middle" x="142.74" y="-271.49" font-family="serif" font-size="10.00">1</text>
</a>
</g>
</g>
<!-- dir_72da18c13f436691e9c601a019ee3b23&#45;&gt;dir_38b1b3d1f25295a5f9f47bc1a8a0b9db -->
<g id="edge1" class="edge">
<title>dir_72da18c13f436691e9c601a019ee3b23&#45;&gt;dir_38b1b3d1f25295a5f9f47bc1a8a0b9db</title>
<path fill="none" stroke="black" d="M459.88,-375.61C452.46,-345.56 435.51,-282.32 413,-232 396.86,-195.92 372.74,-157.16 356.46,-132.53"/>
<polygon fill="black" stroke="black" points="359.32,-130.49 350.85,-124.12 353.5,-134.38 359.32,-130.49"/>
<g id="a_edge1&#45;headlabel"><a xlink:href="dir_000010_000002.html" target="_top" xlink:title="6">
<text text-anchor="middle" x="363.67" y="-129.41" font-family="serif" font-size="10.00">6</text>
</a>
</g>
</g>
<!-- dir_72da18c13f436691e9c601a019ee3b23&#45;&gt;dir_4ba7ab9c59ce2588972867e4ae609232 -->
<g id="edge2" class="edge">
<title>dir_72da18c13f436691e9c601a019ee3b23&#45;&gt;dir_4ba7ab9c59ce2588972867e4ae609232</title>
<path fill="none" stroke="black" d="M437.95,-375.99C424.11,-366.31 407.27,-353.46 394,-340 366.09,-311.71 360.04,-302.88 341,-268 330.15,-248.13 321.18,-224.06 315.18,-205.96"/>
<polygon fill="black" stroke="black" points="318.48,-204.78 312.09,-196.33 311.82,-206.93 318.48,-204.78"/>
<g id="a_edge2&#45;headlabel"><a xlink:href="dir_000010_000013.html" target="_top" xlink:title="7">
<text text-anchor="middle" x="322.29" y="-204.83" font-family="serif" font-size="10.00">7</text>
</a>
</g>
</g>
<!-- dir_72da18c13f436691e9c601a019ee3b23&#45;&gt;dir_ebf79b7b9044af4b885e087222b947e5 -->
<g id="edge7" class="edge">
<title>dir_72da18c13f436691e9c601a019ee3b23&#45;&gt;dir_ebf79b7b9044af4b885e087222b947e5</title>
<path fill="none" stroke="black" d="M446.9,-375.86C437.6,-365.94 426.33,-352.9 418,-340 405.23,-320.22 394.29,-295.82 386.93,-277.58"/>
<polygon fill="black" stroke="black" points="390.13,-276.17 383.22,-268.14 383.62,-278.73 390.13,-276.17"/>
<g id="a_edge7&#45;headlabel"><a xlink:href="dir_000010_000011.html" target="_top" xlink:title="5">
<text text-anchor="middle" x="394.09" y="-275.97" font-family="serif" font-size="10.00">5</text>
</a>
</g>
</g>
<!-- dir_72da18c13f436691e9c601a019ee3b23&#45;&gt;dir_ec5bade8156e6ef7be92e1dbd9276067 -->
<g id="edge8" class="edge">
<title>dir_72da18c13f436691e9c601a019ee3b23&#45;&gt;dir_ec5bade8156e6ef7be92e1dbd9276067</title>
<path fill="none" stroke="black" d="M498.26,-380.05C526.49,-368.76 563.52,-352.3 574,-340 591.28,-319.72 608.34,-246.4 616.7,-206.07"/>
<polygon fill="black" stroke="black" points="620.16,-206.6 618.72,-196.11 613.3,-205.21 620.16,-206.6"/>
<g id="a_edge8&#45;headlabel"><a xlink:href="dir_000010_000015.html" target="_top" xlink:title="6">
<text text-anchor="middle" x="622.22" y="-208.19" font-family="serif" font-size="10.00">6</text>
</a>
</g>
</g>
<!-- dir_72da18c13f436691e9c601a019ee3b23&#45;&gt;dir_776fdf42423b0a1b81b2a68528f2db8d -->
<g id="edge4" class="edge">
<title>dir_72da18c13f436691e9c601a019ee3b23&#45;&gt;dir_776fdf42423b0a1b81b2a68528f2db8d</title>
<path fill="none" stroke="black" d="M485.33,-375.79C510.68,-353.84 551.73,-313.28 569,-268 583.06,-231.12 579.76,-115.17 577.39,-62.05"/>
<polygon fill="black" stroke="black" points="580.88,-61.84 576.92,-52.02 573.89,-62.17 580.88,-61.84"/>
<g id="a_edge4&#45;headlabel"><a xlink:href="dir_000010_000017.html" target="_top" xlink:title="6">
<text text-anchor="middle" x="583.89" y="-62.8" font-family="serif" font-size="10.00">6</text>
</a>
</g>
</g>
<!-- dir_72da18c13f436691e9c601a019ee3b23&#45;&gt;dir_fbbaed38a74dbb8ddeae68bdf4e08e5a -->
<g id="edge9" class="edge">
<title>dir_72da18c13f436691e9c601a019ee3b23&#45;&gt;dir_fbbaed38a74dbb8ddeae68bdf4e08e5a</title>
<path fill="none" stroke="black" d="M498.09,-380.92C502.76,-379.27 507.5,-377.59 512,-376 557.32,-359.98 568.79,-356.33 614,-340 615.6,-339.42 617.22,-338.83 618.87,-338.24"/>
<polygon fill="black" stroke="black" points="620.16,-341.49 628.35,-334.77 617.75,-334.92 620.16,-341.49"/>
<g id="a_edge9&#45;headlabel"><a xlink:href="dir_000010_000018.html" target="_top" xlink:title="3">
<text text-anchor="middle" x="617.76" y="-342.89" font-family="serif" font-size="10.00">3</text>
</a>
</g>
</g>
<!-- dir_38b1b3d1f25295a5f9f47bc1a8a0b9db&#45;&gt;dir_776fdf42423b0a1b81b2a68528f2db8d -->
<g id="edge14" class="edge">
<title>dir_38b1b3d1f25295a5f9f47bc1a8a0b9db&#45;&gt;dir_776fdf42423b0a1b81b2a68528f2db8d</title>
<path fill="none" stroke="black" d="M367.12,-96.7C409.93,-84.05 491.49,-59.96 539.05,-45.91"/>
<polygon fill="black" stroke="black" points="540.05,-49.27 548.65,-43.08 538.07,-42.55 540.05,-49.27"/>
<g id="a_edge14&#45;headlabel"><a xlink:href="dir_000002_000017.html" target="_top" xlink:title="11">
<text text-anchor="middle" x="537.41" y="-50.51" font-family="serif" font-size="10.00">11</text>
</a>
</g>
</g>
<!-- dir_4ba7ab9c59ce2588972867e4ae609232&#45;&gt;dir_38b1b3d1f25295a5f9f47bc1a8a0b9db -->
<g id="edge10" class="edge">
<title>dir_4ba7ab9c59ce2588972867e4ae609232&#45;&gt;dir_38b1b3d1f25295a5f9f47bc1a8a0b9db</title>
<path fill="none" stroke="black" d="M314.91,-159.7C318.55,-151.73 322.95,-142.1 326.99,-133.26"/>
<polygon fill="black" stroke="black" points="330.21,-134.65 331.18,-124.1 323.84,-131.74 330.21,-134.65"/>
<g id="a_edge10&#45;headlabel"><a xlink:href="dir_000013_000002.html" target="_top" xlink:title="1">
<text text-anchor="middle" x="331.29" y="-136.6" font-family="serif" font-size="10.00">1</text>
</a>
</g>
</g>
<!-- dir_24fccc6540dc0b48a48e320524a2940f&#45;&gt;dir_ec5bade8156e6ef7be92e1dbd9276067 -->
<g id="edge43" class="edge">
<title>dir_24fccc6540dc0b48a48e320524a2940f&#45;&gt;dir_ec5bade8156e6ef7be92e1dbd9276067</title>
<path fill="none" stroke="black" d="M649.59,-379.65C669.04,-371.52 689.71,-358.94 701,-340 725.58,-298.77 723.59,-274.35 701,-232 691.9,-214.95 674.61,-202.41 658.52,-193.82"/>
<polygon fill="black" stroke="black" points="659.77,-190.53 649.26,-189.22 656.66,-196.8 659.77,-190.53"/>
<g id="a_edge43&#45;headlabel"><a xlink:href="dir_000014_000015.html" target="_top" xlink:title="1">
<text text-anchor="middle" x="664.25" y="-187.09" font-family="serif" font-size="10.00">1</text>
</a>
</g>
</g>
<!-- dir_24fccc6540dc0b48a48e320524a2940f&#45;&gt;dir_776fdf42423b0a1b81b2a68528f2db8d -->
<g id="edge42" class="edge">
<title>dir_24fccc6540dc0b48a48e320524a2940f&#45;&gt;dir_776fdf42423b0a1b81b2a68528f2db8d</title>
<path fill="none" stroke="black" d="M649.71,-382.92C672.98,-375.28 699.07,-362.17 713,-340 719.72,-329.3 711.16,-259.36 707,-232 696.7,-164.27 697.64,-139.09 652,-88 640.66,-75.31 625.71,-64.05 612.07,-55.21"/>
<polygon fill="black" stroke="black" points="613.68,-52.09 603.35,-49.76 609.97,-58.03 613.68,-52.09"/>
<g id="a_edge42&#45;headlabel"><a xlink:href="dir_000014_000017.html" target="_top" xlink:title="1">
<text text-anchor="middle" x="618.24" y="-49.09" font-family="serif" font-size="10.00">1</text>
</a>
</g>
</g>
<!-- dir_24fccc6540dc0b48a48e320524a2940f&#45;&gt;dir_fbbaed38a74dbb8ddeae68bdf4e08e5a -->
<g id="edge44" class="edge">
<title>dir_24fccc6540dc0b48a48e320524a2940f&#45;&gt;dir_fbbaed38a74dbb8ddeae68bdf4e08e5a</title>
<path fill="none" stroke="black" d="M617.09,-375.7C623.92,-367.3 632.26,-357.07 639.76,-347.86"/>
<polygon fill="black" stroke="black" points="642.47,-350.07 646.07,-340.1 637.04,-345.65 642.47,-350.07"/>
<g id="a_edge44&#45;headlabel"><a xlink:href="dir_000014_000018.html" target="_top" xlink:title="1">
<text text-anchor="middle" x="642.4" y="-352.15" font-family="serif" font-size="10.00">1</text>
</a>
</g>
</g>
<!-- dir_40d523f69030cd312e56865939dc94d8&#45;&gt;dir_73d572eb1d8a4486ab5f1d106a965d63 -->
<g id="edge51" class="edge">
<title>dir_40d523f69030cd312e56865939dc94d8&#45;&gt;dir_73d572eb1d8a4486ab5f1d106a965d63</title>
<path fill="none" stroke="black" d="M576.82,-452.65C604.8,-442.12 645.51,-426.8 677.93,-414.6"/>
<polygon fill="black" stroke="black" points="679.57,-417.72 687.7,-410.92 677.11,-411.17 679.57,-417.72"/>
<g id="a_edge51&#45;headlabel"><a xlink:href="dir_000006_000008.html" target="_top" xlink:title="7">
<text text-anchor="middle" x="677.21" y="-419.14" font-family="serif" font-size="10.00">7</text>
</a>
</g>
</g>
<!-- dir_40d523f69030cd312e56865939dc94d8&#45;&gt;dir_4ba7ab9c59ce2588972867e4ae609232 -->
<g id="edge50" class="edge">
<title>dir_40d523f69030cd312e56865939dc94d8&#45;&gt;dir_4ba7ab9c59ce2588972867e4ae609232</title>
<path fill="none" stroke="black" d="M511.39,-455.39C485.33,-446.71 448.72,-432.19 421,-412 357.81,-365.98 344.24,-342.32 320,-268 313.43,-247.87 310.17,-224.09 308.56,-206.17"/>
<polygon fill="black" stroke="black" points="312.05,-205.82 307.78,-196.12 305.07,-206.37 312.05,-205.82"/>
<g id="a_edge50&#45;headlabel"><a xlink:href="dir_000006_000013.html" target="_top" xlink:title="5">
<text text-anchor="middle" x="315.16" y="-206.68" font-family="serif" font-size="10.00">5</text>
</a>
</g>
</g>
<!-- dir_40d523f69030cd312e56865939dc94d8&#45;&gt;dir_24fccc6540dc0b48a48e320524a2940f -->
<g id="edge49" class="edge">
<title>dir_40d523f69030cd312e56865939dc94d8&#45;&gt;dir_24fccc6540dc0b48a48e320524a2940f</title>
<path fill="none" stroke="black" d="M558.58,-447.7C565.66,-439.3 574.28,-429.07 582.05,-419.86"/>
<polygon fill="black" stroke="black" points="584.81,-422.01 588.58,-412.1 579.46,-417.49 584.81,-422.01"/>
<g id="a_edge49&#45;headlabel"><a xlink:href="dir_000006_000014.html" target="_top" xlink:title="3">
<text text-anchor="middle" x="584.67" y="-424.08" font-family="serif" font-size="10.00">3</text>
</a>
</g>
</g>
<!-- dir_40d523f69030cd312e56865939dc94d8&#45;&gt;dir_fbbaed38a74dbb8ddeae68bdf4e08e5a -->
<g id="edge52" class="edge">
<title>dir_40d523f69030cd312e56865939dc94d8&#45;&gt;dir_fbbaed38a74dbb8ddeae68bdf4e08e5a</title>
<path fill="none" stroke="black" d="M539.86,-447.66C536.32,-428.45 533.78,-397.38 548,-376 552.38,-369.41 588.7,-352.9 618.81,-340.04"/>
<polygon fill="black" stroke="black" points="620.48,-343.14 628.32,-336.01 617.75,-336.69 620.48,-343.14"/>
<g id="a_edge52&#45;headlabel"><a xlink:href="dir_000006_000018.html" target="_top" xlink:title="3">
<text text-anchor="middle" x="618.27" y="-344.65" font-family="serif" font-size="10.00">3</text>
</a>
</g>
</g>
<!-- dir_ec4177cd03787638d8727ed95e43a565&#45;&gt;dir_38b1b3d1f25295a5f9f47bc1a8a0b9db -->
<g id="edge30" class="edge">
<title>dir_ec4177cd03787638d8727ed95e43a565&#45;&gt;dir_38b1b3d1f25295a5f9f47bc1a8a0b9db</title>
<path fill="none" stroke="black" d="M241.19,-231.79C242.19,-212.7 246.21,-181.73 261,-160 271.14,-145.09 287,-133.2 301.77,-124.49"/>
<polygon fill="black" stroke="black" points="303.73,-127.4 310.77,-119.48 300.33,-121.29 303.73,-127.4"/>
<g id="a_edge30&#45;headlabel"><a xlink:href="dir_000012_000002.html" target="_top" xlink:title="2">
<text text-anchor="middle" x="301.98" y="-129.13" font-family="serif" font-size="10.00">2</text>
</a>
</g>
</g>
<!-- dir_ec4177cd03787638d8727ed95e43a565&#45;&gt;dir_4ba7ab9c59ce2588972867e4ae609232 -->
<g id="edge31" class="edge">
<title>dir_ec4177cd03787638d8727ed95e43a565&#45;&gt;dir_4ba7ab9c59ce2588972867e4ae609232</title>
<path fill="none" stroke="black" d="M257.31,-231.7C265.31,-223.22 275.07,-212.86 283.82,-203.58"/>
<polygon fill="black" stroke="black" points="286.56,-205.78 290.87,-196.1 281.47,-200.98 286.56,-205.78"/>
<g id="a_edge31&#45;headlabel"><a xlink:href="dir_000012_000013.html" target="_top" xlink:title="4">
<text text-anchor="middle" x="286.16" y="-207.84" font-family="serif" font-size="10.00">4</text>
</a>
</g>
</g>
<!-- dir_ebf79b7b9044af4b885e087222b947e5&#45;&gt;dir_38b1b3d1f25295a5f9f47bc1a8a0b9db -->
<g id="edge11" class="edge">
<title>dir_ebf79b7b9044af4b885e087222b947e5&#45;&gt;dir_38b1b3d1f25295a5f9f47bc1a8a0b9db</title>
<path fill="none" stroke="black" d="M372.42,-231.87C365.91,-207.56 353.94,-162.82 346.23,-134.01"/>
<polygon fill="black" stroke="black" points="349.57,-132.94 343.6,-124.19 342.8,-134.75 349.57,-132.94"/>
<g id="a_edge11&#45;headlabel"><a xlink:href="dir_000011_000002.html" target="_top" xlink:title="10">
<text text-anchor="middle" x="353.24" y="-133.18" font-family="serif" font-size="10.00">10</text>
</a>
</g>
</g>
<!-- dir_ebf79b7b9044af4b885e087222b947e5&#45;&gt;dir_4ba7ab9c59ce2588972867e4ae609232 -->
<g id="edge12" class="edge">
<title>dir_ebf79b7b9044af4b885e087222b947e5&#45;&gt;dir_4ba7ab9c59ce2588972867e4ae609232</title>
<path fill="none" stroke="black" d="M359.7,-231.7C351.14,-223.14 340.66,-212.66 331.3,-203.3"/>
<polygon fill="black" stroke="black" points="333.65,-200.7 324.1,-196.1 328.7,-205.65 333.65,-200.7"/>
<g id="a_edge12&#45;headlabel"><a xlink:href="dir_000011_000013.html" target="_top" xlink:title="4">
<text text-anchor="middle" x="338.2" y="-198.73" font-family="serif" font-size="10.00">4</text>
</a>
</g>
</g>
<!-- dir_ebf79b7b9044af4b885e087222b947e5&#45;&gt;dir_776fdf42423b0a1b81b2a68528f2db8d -->
<g id="edge13" class="edge">
<title>dir_ebf79b7b9044af4b885e087222b947e5&#45;&gt;dir_776fdf42423b0a1b81b2a68528f2db8d</title>
<path fill="none" stroke="black" d="M392.95,-231.85C428.1,-194.05 512.35,-103.45 553.12,-59.6"/>
<polygon fill="black" stroke="black" points="555.73,-61.94 559.98,-52.23 550.6,-57.17 555.73,-61.94"/>
<g id="a_edge13&#45;headlabel"><a xlink:href="dir_000011_000017.html" target="_top" xlink:title="10">
<text text-anchor="middle" x="555.36" y="-64" font-family="serif" font-size="10.00">10</text>
</a>
</g>
</g>
<!-- dir_ec5bade8156e6ef7be92e1dbd9276067&#45;&gt;dir_38b1b3d1f25295a5f9f47bc1a8a0b9db -->
<g id="edge28" class="edge">
<title>dir_ec5bade8156e6ef7be92e1dbd9276067&#45;&gt;dir_38b1b3d1f25295a5f9f47bc1a8a0b9db</title>
<path fill="none" stroke="black" d="M594.86,-170.29C544.23,-157.76 435.23,-130.8 377.19,-116.45"/>
<polygon fill="black" stroke="black" points="377.86,-113.01 367.31,-114 376.18,-119.8 377.86,-113.01"/>
<g id="a_edge28&#45;headlabel"><a xlink:href="dir_000015_000002.html" target="_top" xlink:title="1">
<text text-anchor="middle" x="382.03" y="-108.61" font-family="serif" font-size="10.00">1</text>
</a>
</g>
</g>
<!-- dir_ec5bade8156e6ef7be92e1dbd9276067&#45;&gt;dir_776fdf42423b0a1b81b2a68528f2db8d -->
<g id="edge29" class="edge">
<title>dir_ec5bade8156e6ef7be92e1dbd9276067&#45;&gt;dir_776fdf42423b0a1b81b2a68528f2db8d</title>
<path fill="none" stroke="black" d="M616.45,-159.87C608.58,-135.56 594.08,-90.82 584.75,-62.01"/>
<polygon fill="black" stroke="black" points="587.98,-60.62 581.57,-52.19 581.32,-62.78 587.98,-60.62"/>
<g id="a_edge29&#45;headlabel"><a xlink:href="dir_000015_000017.html" target="_top" xlink:title="1">
<text text-anchor="middle" x="591.79" y="-60.67" font-family="serif" font-size="10.00">1</text>
</a>
</g>
</g>
<!-- dir_ed933fff649efb5e97fdaf04ad0e9cca&#45;&gt;dir_40d523f69030cd312e56865939dc94d8 -->
<g id="edge58" class="edge">
<title>dir_ed933fff649efb5e97fdaf04ad0e9cca&#45;&gt;dir_40d523f69030cd312e56865939dc94d8</title>
<path fill="none" stroke="black" d="M603.47,-519.7C593.62,-510.97 581.51,-500.24 570.8,-490.75"/>
<polygon fill="black" stroke="black" points="573.11,-488.12 563.3,-484.1 568.47,-493.36 573.11,-488.12"/>
<g id="a_edge58&#45;headlabel"><a xlink:href="dir_000016_000006.html" target="_top" xlink:title="1">
<text text-anchor="middle" x="577.68" y="-485.88" font-family="serif" font-size="10.00">1</text>
</a>
</g>
</g>
<!-- dir_ed933fff649efb5e97fdaf04ad0e9cca&#45;&gt;dir_776fdf42423b0a1b81b2a68528f2db8d -->
<g id="edge59" class="edge">
<title>dir_ed933fff649efb5e97fdaf04ad0e9cca&#45;&gt;dir_776fdf42423b0a1b81b2a68528f2db8d</title>
<path fill="none" stroke="black" d="M650.27,-524.1C686.93,-505.16 750.96,-466.13 781,-412 800.32,-377.2 791,-362.8 791,-323 791,-323 791,-323 791,-177 791,-131.19 774.67,-116.74 739,-88 702.3,-58.43 648.63,-45.17 613.03,-39.35"/>
<polygon fill="black" stroke="black" points="613.46,-35.87 603.05,-37.83 612.41,-42.79 613.46,-35.87"/>
<g id="a_edge59&#45;headlabel"><a xlink:href="dir_000016_000017.html" target="_top" xlink:title="1">
<text text-anchor="middle" x="617.44" y="-31.1" font-family="serif" font-size="10.00">1</text>
</a>
</g>
</g>
<!-- dir_fbbaed38a74dbb8ddeae68bdf4e08e5a&#45;&gt;dir_86d408188003db5635ae8618c79a3489 -->
<g id="edge36" class="edge">
<title>dir_fbbaed38a74dbb8ddeae68bdf4e08e5a&#45;&gt;dir_86d408188003db5635ae8618c79a3489</title>
<path fill="none" stroke="black" d="M628.21,-307C605.53,-297.02 574.62,-283.41 548.96,-272.11"/>
<polygon fill="black" stroke="black" points="550.33,-268.89 539.76,-268.07 547.51,-275.3 550.33,-268.89"/>
<g id="a_edge36&#45;headlabel"><a xlink:href="dir_000018_000003.html" target="_top" xlink:title="1">
<text text-anchor="middle" x="554.76" y="-265.24" font-family="serif" font-size="10.00">1</text>
</a>
</g>
</g>
<!-- dir_fbbaed38a74dbb8ddeae68bdf4e08e5a&#45;&gt;dir_8001dd73971afb1c11a9a71f4e6085a3 -->
<g id="edge35" class="edge">
<title>dir_fbbaed38a74dbb8ddeae68bdf4e08e5a&#45;&gt;dir_8001dd73971afb1c11a9a71f4e6085a3</title>
<path fill="none" stroke="black" d="M661.24,-303.7C661.79,-295.98 662.45,-286.71 663.06,-278.11"/>
<polygon fill="black" stroke="black" points="666.56,-278.33 663.78,-268.1 659.57,-277.83 666.56,-278.33"/>
<g id="a_edge35&#45;headlabel"><a xlink:href="dir_000018_000005.html" target="_top" xlink:title="1">
<text text-anchor="middle" x="669.13" y="-279.62" font-family="serif" font-size="10.00">1</text>
</a>
</g>
</g>
<!-- dir_fbbaed38a74dbb8ddeae68bdf4e08e5a&#45;&gt;dir_ec5bade8156e6ef7be92e1dbd9276067 -->
<g id="edge37" class="edge">
<title>dir_fbbaed38a74dbb8ddeae68bdf4e08e5a&#45;&gt;dir_ec5bade8156e6ef7be92e1dbd9276067</title>
<path fill="none" stroke="black" d="M647.25,-303.79C640.59,-293.86 633.02,-280.82 629,-268 622.71,-247.94 621.12,-224.16 621.02,-206.23"/>
<polygon fill="black" stroke="black" points="624.52,-206.19 621.11,-196.16 617.52,-206.13 624.52,-206.19"/>
<g id="a_edge37&#45;headlabel"><a xlink:href="dir_000018_000015.html" target="_top" xlink:title="1">
<text text-anchor="middle" x="627.32" y="-207.31" font-family="serif" font-size="10.00">1</text>
</a>
</g>
</g>
<!-- dir_fbbaed38a74dbb8ddeae68bdf4e08e5a&#45;&gt;dir_776fdf42423b0a1b81b2a68528f2db8d -->
<g id="edge34" class="edge">
<title>dir_fbbaed38a74dbb8ddeae68bdf4e08e5a&#45;&gt;dir_776fdf42423b0a1b81b2a68528f2db8d</title>
<path fill="none" stroke="black" d="M678.17,-303.68C686.88,-294.1 696.41,-281.43 701,-268 706.17,-252.86 704.41,-247.63 701,-232 685.99,-163.22 676.72,-144.71 635,-88 627.08,-77.24 616.69,-67.02 606.83,-58.47"/>
<polygon fill="black" stroke="black" points="609.02,-55.74 599.1,-52.01 604.52,-61.11 609.02,-55.74"/>
<g id="a_edge34&#45;headlabel"><a xlink:href="dir_000018_000017.html" target="_top" xlink:title="1">
<text text-anchor="middle" x="613.59" y="-53.37" font-family="serif" font-size="10.00">1</text>
</a>
</g>
</g>
</g>
</svg>
