<?xml version="1.0" encoding="UTF-8" standalone="no"?>
<!DOCTYPE svg PUBLIC "-//W3C//DTD SVG 1.1//EN"
 "http://www.w3.org/Graphics/SVG/1.1/DTD/svg11.dtd">
<!-- Generated by graphviz version 2.43.0 (0)
 -->
<!-- Title: AnalyticalFunctions Pages: 1 -->
<svg width="158pt" height="239pt"
 viewBox="0.00 0.00 158.00 239.00" xmlns="http://www.w3.org/2000/svg" xmlns:xlink="http://www.w3.org/1999/xlink">
<g id="graph0" class="graph" transform="scale(1 1) rotate(0) translate(4 235)">
<title>AnalyticalFunctions</title>
<g id="clust1" class="cluster">
<title>clusterdir_dc43877d82dd332f9fb2071fcca799d6</title>
<g id="a_clust1"><a xlink:href="dir_dc43877d82dd332f9fb2071fcca799d6.html" target="_top" xlink:title="kernel">
<polygon fill="#ddddee" stroke="black" points="8,-8 8,-223 142,-223 142,-8 8,-8"/>
<text text-anchor="middle" x="75" y="-211" font-family="serif" font-size="10.00">kernel</text>
</a>
</g>
</g>
<!-- dir_38b1b3d1f25295a5f9f47bc1a8a0b9db -->
<g id="node1" class="node">
<title>dir_38b1b3d1f25295a5f9f47bc1a8a0b9db</title>
<g id="a_node1"><a xlink:href="dir_38b1b3d1f25295a5f9f47bc1a8a0b9db.html" target="_top" xlink:title="Options">
<polygon fill="none" stroke="black" points="87,-124 31,-124 31,-88 87,-88 87,-124"/>
<text text-anchor="middle" x="59" y="-103.5" font-family="serif" font-size="10.00">Options</text>
</a>
</g>
</g>
<!-- dir_776fdf42423b0a1b81b2a68528f2db8d -->
<g id="node2" class="node">
<title>dir_776fdf42423b0a1b81b2a68528f2db8d</title>
<g id="a_node2"><a xlink:href="dir_776fdf42423b0a1b81b2a68528f2db8d.html" target="_top" xlink:title="Utils">
<polygon fill="none" stroke="black" points="109,-52 55,-52 55,-16 109,-16 109,-52"/>
<text text-anchor="middle" x="82" y="-31.5" font-family="serif" font-size="10.00">Utils</text>
</a>
</g>
</g>
<!-- dir_38b1b3d1f25295a5f9f47bc1a8a0b9db&#45;&gt;dir_776fdf42423b0a1b81b2a68528f2db8d -->
<g id="edge1" class="edge">
<title>dir_38b1b3d1f25295a5f9f47bc1a8a0b9db&#45;&gt;dir_776fdf42423b0a1b81b2a68528f2db8d</title>
<path fill="none" stroke="black" d="M64.69,-87.7C67.25,-79.9 70.33,-70.51 73.18,-61.83"/>
<polygon fill="black" stroke="black" points="76.58,-62.7 76.38,-52.1 69.93,-60.51 76.58,-62.7"/>
<g id="a_edge1&#45;headlabel"><a xlink:href="dir_000002_000017.html" target="_top" xlink:title="11">
<text text-anchor="middle" x="78.16" y="-64.5" font-family="serif" font-size="10.00">11</text>
</a>
</g>
</g>
<!-- dir_86d408188003db5635ae8618c79a3489 -->
<g id="node3" class="node">
<title>dir_86d408188003db5635ae8618c79a3489</title>
<g id="a_node3"><a xlink:href="dir_86d408188003db5635ae8618c79a3489.html" target="_top" xlink:title="AnalyticalFunctions">
<polygon fill="#eeeeff" stroke="black" points="133.5,-196 16.5,-196 16.5,-160 133.5,-160 133.5,-196"/>
<text text-anchor="middle" x="75" y="-175.5" font-family="serif" font-size="10.00">AnalyticalFunctions</text>
</a>
</g>
</g>
<!-- dir_86d408188003db5635ae8618c79a3489&#45;&gt;dir_38b1b3d1f25295a5f9f47bc1a8a0b9db -->
<g id="edge2" class="edge">
<title>dir_86d408188003db5635ae8618c79a3489&#45;&gt;dir_38b1b3d1f25295a5f9f47bc1a8a0b9db</title>
<path fill="none" stroke="black" d="M71.04,-159.7C69.28,-151.98 67.16,-142.71 65.2,-134.11"/>
<polygon fill="black" stroke="black" points="68.55,-133.07 62.91,-124.1 61.73,-134.63 68.55,-133.07"/>
<g id="a_edge2&#45;headlabel"><a xlink:href="dir_000003_000002.html" target="_top" xlink:title="1">
<text text-anchor="middle" x="72.12" y="-133.44" font-family="serif" font-size="10.00">1</text>
</a>
</g>
</g>
<!-- dir_86d408188003db5635ae8618c79a3489&#45;&gt;dir_776fdf42423b0a1b81b2a68528f2db8d -->
<g id="edge3" class="edge">
<title>dir_86d408188003db5635ae8618c79a3489&#45;&gt;dir_776fdf42423b0a1b81b2a68528f2db8d</title>
<path fill="none" stroke="black" d="M83.72,-159.83C88.37,-149.69 93.62,-136.44 96,-124 99.97,-103.19 95.82,-79.5 91.04,-61.79"/>
<polygon fill="black" stroke="black" points="94.37,-60.73 88.2,-52.12 87.66,-62.7 94.37,-60.73"/>
<g id="a_edge3&#45;headlabel"><a xlink:href="dir_000003_000017.html" target="_top" xlink:title="1">
<text text-anchor="middle" x="98.11" y="-60.88" font-family="serif" font-size="10.00">1</text>
</a>
</g>
</g>
</g>
</svg>
