<?xml version="1.0" encoding="UTF-8" standalone="no"?>
<!DOCTYPE svg PUBLIC "-//W3C//DTD SVG 1.1//EN"
 "http://www.w3.org/Graphics/SVG/1.1/DTD/svg11.dtd">
<!-- Generated by graphviz version 2.43.0 (0)
 -->
<!-- Title: Convergence Pages: 1 -->
<svg width="124pt" height="167pt"
 viewBox="0.00 0.00 124.00 167.00" xmlns="http://www.w3.org/2000/svg" xmlns:xlink="http://www.w3.org/1999/xlink">
<g id="graph0" class="graph" transform="scale(1 1) rotate(0) translate(4 163)">
<title>Convergence</title>
<g id="clust1" class="cluster">
<title>clusterdir_dc43877d82dd332f9fb2071fcca799d6</title>
<g id="a_clust1"><a xlink:href="dir_dc43877d82dd332f9fb2071fcca799d6.html" target="_top" xlink:title="kernel">
<polygon fill="#ddddee" stroke="black" points="8,-8 8,-151 108,-151 108,-8 8,-8"/>
<text text-anchor="middle" x="58" y="-139" font-family="serif" font-size="10.00">kernel</text>
</a>
</g>
</g>
<!-- dir_776fdf42423b0a1b81b2a68528f2db8d -->
<g id="node1" class="node">
<title>dir_776fdf42423b0a1b81b2a68528f2db8d</title>
<g id="a_node1"><a xlink:href="dir_776fdf42423b0a1b81b2a68528f2db8d.html" target="_top" xlink:title="Utils">
<polygon fill="none" stroke="black" points="85,-52 31,-52 31,-16 85,-16 85,-52"/>
<text text-anchor="middle" x="58" y="-31.5" font-family="serif" font-size="10.00">Utils</text>
</a>
</g>
</g>
<!-- dir_73d572eb1d8a4486ab5f1d106a965d63 -->
<g id="node2" class="node">
<title>dir_73d572eb1d8a4486ab5f1d106a965d63</title>
<g id="a_node2"><a xlink:href="dir_73d572eb1d8a4486ab5f1d106a965d63.html" target="_top" xlink:title="Convergence">
<polygon fill="#eeeeff" stroke="black" points="100,-124 16,-124 16,-88 100,-88 100,-124"/>
<text text-anchor="middle" x="58" y="-103.5" font-family="serif" font-size="10.00">Convergence</text>
</a>
</g>
</g>
<!-- dir_73d572eb1d8a4486ab5f1d106a965d63&#45;&gt;dir_776fdf42423b0a1b81b2a68528f2db8d -->
<g id="edge1" class="edge">
<title>dir_73d572eb1d8a4486ab5f1d106a965d63&#45;&gt;dir_776fdf42423b0a1b81b2a68528f2db8d</title>
<path fill="none" stroke="black" d="M58,-87.7C58,-79.98 58,-70.71 58,-62.11"/>
<polygon fill="black" stroke="black" points="61.5,-62.1 58,-52.1 54.5,-62.1 61.5,-62.1"/>
<g id="a_edge1&#45;headlabel"><a xlink:href="dir_000008_000017.html" target="_top" xlink:title="2">
<text text-anchor="middle" x="64.34" y="-63.2" font-family="serif" font-size="10.00">2</text>
</a>
</g>
</g>
</g>
</svg>
