<?xml version="1.0" encoding="UTF-8" standalone="no"?>
<!DOCTYPE svg PUBLIC "-//W3C//DTD SVG 1.1//EN"
 "http://www.w3.org/Graphics/SVG/1.1/DTD/svg11.dtd">
<!-- Generated by graphviz version 2.43.0 (0)
 -->
<!-- Title: Calphad Pages: 1 -->
<svg width="156pt" height="311pt"
 viewBox="0.00 0.00 156.00 311.00" xmlns="http://www.w3.org/2000/svg" xmlns:xlink="http://www.w3.org/1999/xlink">
<g id="graph0" class="graph" transform="scale(1 1) rotate(0) translate(4 307)">
<title>Calphad</title>
<g id="clust1" class="cluster">
<title>clusterdir_dc43877d82dd332f9fb2071fcca799d6</title>
<g id="a_clust1"><a xlink:href="dir_dc43877d82dd332f9fb2071fcca799d6.html" target="_top" xlink:title="kernel">
<polygon fill="#ddddee" stroke="black" points="8,-8 8,-295 140,-295 140,-8 8,-8"/>
<text text-anchor="middle" x="74" y="-283" font-family="serif" font-size="10.00">kernel</text>
</a>
</g>
</g>
<!-- dir_38b1b3d1f25295a5f9f47bc1a8a0b9db -->
<g id="node1" class="node">
<title>dir_38b1b3d1f25295a5f9f47bc1a8a0b9db</title>
<g id="a_node1"><a xlink:href="dir_38b1b3d1f25295a5f9f47bc1a8a0b9db.html" target="_top" xlink:title="Options">
<polygon fill="none" stroke="black" points="101,-52 45,-52 45,-16 101,-16 101,-52"/>
<text text-anchor="middle" x="73" y="-31.5" font-family="serif" font-size="10.00">Options</text>
</a>
</g>
</g>
<!-- dir_4ba7ab9c59ce2588972867e4ae609232 -->
<g id="node2" class="node">
<title>dir_4ba7ab9c59ce2588972867e4ae609232</title>
<g id="a_node2"><a xlink:href="dir_4ba7ab9c59ce2588972867e4ae609232.html" target="_top" xlink:title="Parameters">
<polygon fill="none" stroke="black" points="110,-124 36,-124 36,-88 110,-88 110,-124"/>
<text text-anchor="middle" x="73" y="-103.5" font-family="serif" font-size="10.00">Parameters</text>
</a>
</g>
</g>
<!-- dir_4ba7ab9c59ce2588972867e4ae609232&#45;&gt;dir_38b1b3d1f25295a5f9f47bc1a8a0b9db -->
<g id="edge1" class="edge">
<title>dir_4ba7ab9c59ce2588972867e4ae609232&#45;&gt;dir_38b1b3d1f25295a5f9f47bc1a8a0b9db</title>
<path fill="none" stroke="black" d="M73,-87.7C73,-79.98 73,-70.71 73,-62.11"/>
<polygon fill="black" stroke="black" points="76.5,-62.1 73,-52.1 69.5,-62.1 76.5,-62.1"/>
<g id="a_edge1&#45;headlabel"><a xlink:href="dir_000013_000002.html" target="_top" xlink:title="1">
<text text-anchor="middle" x="79.34" y="-63.2" font-family="serif" font-size="10.00">1</text>
</a>
</g>
</g>
<!-- dir_571606a76e1ff5501c4a901dcb6dfdb9 -->
<g id="node3" class="node">
<title>dir_571606a76e1ff5501c4a901dcb6dfdb9</title>
<g id="a_node3"><a xlink:href="dir_571606a76e1ff5501c4a901dcb6dfdb9.html" target="_top" xlink:title="Coefficients">
<polygon fill="none" stroke="black" points="132,-196 56,-196 56,-160 132,-160 132,-196"/>
<text text-anchor="middle" x="94" y="-175.5" font-family="serif" font-size="10.00">Coefficients</text>
</a>
</g>
</g>
<!-- dir_571606a76e1ff5501c4a901dcb6dfdb9&#45;&gt;dir_38b1b3d1f25295a5f9f47bc1a8a0b9db -->
<g id="edge5" class="edge">
<title>dir_571606a76e1ff5501c4a901dcb6dfdb9&#45;&gt;dir_38b1b3d1f25295a5f9f47bc1a8a0b9db</title>
<path fill="none" stroke="black" d="M105.32,-159.67C115.67,-141.53 128.1,-112.36 119,-88 115.12,-77.62 108.2,-67.93 100.88,-59.74"/>
<polygon fill="black" stroke="black" points="103.27,-57.18 93.82,-52.38 98.22,-62.03 103.27,-57.18"/>
<g id="a_edge5&#45;headlabel"><a xlink:href="dir_000007_000002.html" target="_top" xlink:title="13">
<text text-anchor="middle" x="107.81" y="-55.31" font-family="serif" font-size="10.00">13</text>
</a>
</g>
</g>
<!-- dir_571606a76e1ff5501c4a901dcb6dfdb9&#45;&gt;dir_4ba7ab9c59ce2588972867e4ae609232 -->
<g id="edge6" class="edge">
<title>dir_571606a76e1ff5501c4a901dcb6dfdb9&#45;&gt;dir_4ba7ab9c59ce2588972867e4ae609232</title>
<path fill="none" stroke="black" d="M88.81,-159.7C86.47,-151.9 83.65,-142.51 81.05,-133.83"/>
<polygon fill="black" stroke="black" points="84.36,-132.68 78.13,-124.1 77.65,-134.69 84.36,-132.68"/>
<g id="a_edge6&#45;headlabel"><a xlink:href="dir_000007_000013.html" target="_top" xlink:title="27">
<text text-anchor="middle" x="88.11" y="-132.8" font-family="serif" font-size="10.00">27</text>
</a>
</g>
</g>
<!-- dir_0dd0051337f539fbf390499a7a2ef9d8 -->
<g id="node4" class="node">
<title>dir_0dd0051337f539fbf390499a7a2ef9d8</title>
<g id="a_node4"><a xlink:href="dir_0dd0051337f539fbf390499a7a2ef9d8.html" target="_top" xlink:title="Calphad">
<polygon fill="#eeeeff" stroke="black" points="75.5,-268 16.5,-268 16.5,-232 75.5,-232 75.5,-268"/>
<text text-anchor="middle" x="46" y="-247.5" font-family="serif" font-size="10.00">Calphad</text>
</a>
</g>
</g>
<!-- dir_0dd0051337f539fbf390499a7a2ef9d8&#45;&gt;dir_38b1b3d1f25295a5f9f47bc1a8a0b9db -->
<g id="edge2" class="edge">
<title>dir_0dd0051337f539fbf390499a7a2ef9d8&#45;&gt;dir_38b1b3d1f25295a5f9f47bc1a8a0b9db</title>
<path fill="none" stroke="black" d="M38.95,-231.93C27.62,-201.84 8.39,-137.83 27,-88 30.88,-77.62 37.8,-67.93 45.12,-59.74"/>
<polygon fill="black" stroke="black" points="47.78,-62.03 52.18,-52.38 42.73,-57.18 47.78,-62.03"/>
<g id="a_edge2&#45;headlabel"><a xlink:href="dir_000004_000002.html" target="_top" xlink:title="4">
<text text-anchor="middle" x="47.35" y="-64.09" font-family="serif" font-size="10.00">4</text>
</a>
</g>
</g>
<!-- dir_0dd0051337f539fbf390499a7a2ef9d8&#45;&gt;dir_4ba7ab9c59ce2588972867e4ae609232 -->
<g id="edge3" class="edge">
<title>dir_0dd0051337f539fbf390499a7a2ef9d8&#45;&gt;dir_4ba7ab9c59ce2588972867e4ae609232</title>
<path fill="none" stroke="black" d="M43.99,-232C42.36,-213.88 41.17,-184.5 47,-160 49.15,-150.97 53.03,-141.7 57.15,-133.48"/>
<polygon fill="black" stroke="black" points="60.38,-134.87 62.01,-124.4 54.21,-131.57 60.38,-134.87"/>
<g id="a_edge3&#45;headlabel"><a xlink:href="dir_000004_000013.html" target="_top" xlink:title="8">
<text text-anchor="middle" x="61.19" y="-136.88" font-family="serif" font-size="10.00">8</text>
</a>
</g>
</g>
<!-- dir_0dd0051337f539fbf390499a7a2ef9d8&#45;&gt;dir_571606a76e1ff5501c4a901dcb6dfdb9 -->
<g id="edge4" class="edge">
<title>dir_0dd0051337f539fbf390499a7a2ef9d8&#45;&gt;dir_571606a76e1ff5501c4a901dcb6dfdb9</title>
<path fill="none" stroke="black" d="M57.87,-231.7C63.5,-223.47 70.35,-213.48 76.57,-204.42"/>
<polygon fill="black" stroke="black" points="79.5,-206.33 82.27,-196.1 73.73,-202.37 79.5,-206.33"/>
<g id="a_edge4&#45;headlabel"><a xlink:href="dir_000004_000007.html" target="_top" xlink:title="2">
<text text-anchor="middle" x="79.81" y="-208.4" font-family="serif" font-size="10.00">2</text>
</a>
</g>
</g>
</g>
</svg>
