<?xml version="1.0" encoding="UTF-8" standalone="no"?>
<!DOCTYPE svg PUBLIC "-//W3C//DTD SVG 1.1//EN"
 "http://www.w3.org/Graphics/SVG/1.1/DTD/svg11.dtd">
<!-- Generated by graphviz version 2.43.0 (0)
 -->
<!-- Title: EnergyCoefficient.hpp Pages: 1 -->
<svg width="1420pt" height="252pt"
 viewBox="0.00 0.00 1419.50 252.00" xmlns="http://www.w3.org/2000/svg" xmlns:xlink="http://www.w3.org/1999/xlink">
<g id="graph0" class="graph" transform="scale(1 1) rotate(0) translate(4 248)">
<title>EnergyCoefficient.hpp</title>
<!-- Node1 -->
<g id="node1" class="node">
<title>Node1</title>
<g id="a_node1"><a xlink:title="Energy coefficients.">
<polygon fill="#bfbfbf" stroke="black" points="459,-224.5 459,-243.5 590,-243.5 590,-224.5 459,-224.5"/>
<text text-anchor="middle" x="524.5" y="-231.5" font-family="serif" font-size="10.00">EnergyCoefficient.hpp</text>
</a>
</g>
</g>
<!-- Node2 -->
<g id="node2" class="node">
<title>Node2</title>
<g id="a_node2"><a xlink:title=" ">
<polygon fill="none" stroke="#bfbfbf" points="343,-168.5 343,-187.5 402,-187.5 402,-168.5 343,-168.5"/>
<text text-anchor="middle" x="372.5" y="-175.5" font-family="serif" font-size="10.00">numeric</text>
</a>
</g>
</g>
<!-- Node1&#45;&gt;Node2 -->
<g id="edge1" class="edge">
<title>Node1&#45;&gt;Node2</title>
<path fill="none" stroke="midnightblue" d="M500.42,-224.44C474.96,-215.4 434.61,-201.06 406.04,-190.92"/>
<polygon fill="midnightblue" stroke="midnightblue" points="407.07,-187.57 396.47,-187.52 404.72,-194.16 407.07,-187.57"/>
</g>
<!-- Node3 -->
<g id="node3" class="node">
<title>Node3</title>
<g id="a_node3"><a xlink:href="PhaseFieldPotentials_8hpp.html" target="_top" xlink:title="Analytical potentials and derivatives used by phase&#45;field models.">
<polygon fill="none" stroke="black" points="420.5,-168.5 420.5,-187.5 628.5,-187.5 628.5,-168.5 420.5,-168.5"/>
<text text-anchor="middle" x="524.5" y="-175.5" font-family="serif" font-size="10.00">Coefficients/PhaseFieldPotentials.hpp</text>
</a>
</g>
</g>
<!-- Node1&#45;&gt;Node3 -->
<g id="edge2" class="edge">
<title>Node1&#45;&gt;Node3</title>
<path fill="none" stroke="midnightblue" d="M524.5,-224.08C524.5,-217.01 524.5,-206.86 524.5,-197.99"/>
<polygon fill="midnightblue" stroke="midnightblue" points="528,-197.75 524.5,-187.75 521,-197.75 528,-197.75"/>
</g>
<!-- Node18 -->
<g id="node18" class="node">
<title>Node18</title>
<g id="a_node18"><a xlink:title=" ">
<polygon fill="none" stroke="#bfbfbf" points="1160,-0.5 1160,-19.5 1229,-19.5 1229,-0.5 1160,-0.5"/>
<text text-anchor="middle" x="1194.5" y="-7.5" font-family="serif" font-size="10.00">mfem.hpp</text>
</a>
</g>
</g>
<!-- Node1&#45;&gt;Node18 -->
<g id="edge53" class="edge">
<title>Node1&#45;&gt;Node18</title>
<path fill="none" stroke="midnightblue" d="M590.1,-225.57C703.64,-210.62 941.68,-169.95 1119.5,-76 1143.41,-63.37 1166.19,-41.8 1180.24,-26.99"/>
<polygon fill="midnightblue" stroke="midnightblue" points="1182.89,-29.29 1187.1,-19.56 1177.74,-24.54 1182.89,-29.29"/>
</g>
<!-- Node4 -->
<g id="node4" class="node">
<title>Node4</title>
<g id="a_node4"><a xlink:title=" ">
<polygon fill="none" stroke="#bfbfbf" points="365.5,-0.5 365.5,-19.5 431.5,-19.5 431.5,-0.5 365.5,-0.5"/>
<text text-anchor="middle" x="398.5" y="-7.5" font-family="serif" font-size="10.00">algorithm</text>
</a>
</g>
</g>
<!-- Node3&#45;&gt;Node4 -->
<g id="edge3" class="edge">
<title>Node3&#45;&gt;Node4</title>
<path fill="none" stroke="midnightblue" d="M506.19,-168.31C477.86,-153.74 424.29,-121.45 401.5,-76 394.3,-61.64 394.17,-43.18 395.48,-29.6"/>
<polygon fill="midnightblue" stroke="midnightblue" points="398.97,-29.92 396.8,-19.55 392.03,-29.01 398.97,-29.92"/>
</g>
<!-- Node5 -->
<g id="node5" class="node">
<title>Node5</title>
<g id="a_node5"><a xlink:title=" ">
<polygon fill="none" stroke="#bfbfbf" points="449.5,-0.5 449.5,-19.5 517.5,-19.5 517.5,-0.5 449.5,-0.5"/>
<text text-anchor="middle" x="483.5" y="-7.5" font-family="serif" font-size="10.00">functional</text>
</a>
</g>
</g>
<!-- Node3&#45;&gt;Node5 -->
<g id="edge4" class="edge">
<title>Node3&#45;&gt;Node5</title>
<path fill="none" stroke="midnightblue" d="M505.94,-168.43C477.27,-154.03 423.23,-121.96 401.5,-76 390.09,-51.87 418.8,-34.02 445.33,-23.2"/>
<polygon fill="midnightblue" stroke="midnightblue" points="446.83,-26.37 454.93,-19.53 444.33,-19.83 446.83,-26.37"/>
</g>
<!-- Node6 -->
<g id="node6" class="node">
<title>Node6</title>
<g id="a_node6"><a xlink:title=" ">
<polygon fill="none" stroke="#bfbfbf" points="827,-0.5 827,-19.5 874,-19.5 874,-0.5 827,-0.5"/>
<text text-anchor="middle" x="850.5" y="-7.5" font-family="serif" font-size="10.00">string</text>
</a>
</g>
</g>
<!-- Node3&#45;&gt;Node6 -->
<g id="edge5" class="edge">
<title>Node3&#45;&gt;Node6</title>
<path fill="none" stroke="midnightblue" d="M599.34,-168.49C701.71,-155.14 877.13,-125.54 915.5,-76 930.68,-56.4 903.49,-36.64 879.77,-24.15"/>
<polygon fill="midnightblue" stroke="midnightblue" points="881.12,-20.91 870.61,-19.57 877.99,-27.17 881.12,-20.91"/>
</g>
<!-- Node7 -->
<g id="node7" class="node">
<title>Node7</title>
<g id="a_node7"><a xlink:title=" ">
<polygon fill="none" stroke="#bfbfbf" points="299.5,-0.5 299.5,-19.5 347.5,-19.5 347.5,-0.5 299.5,-0.5"/>
<text text-anchor="middle" x="323.5" y="-7.5" font-family="serif" font-size="10.00">vector</text>
</a>
</g>
</g>
<!-- Node3&#45;&gt;Node7 -->
<g id="edge6" class="edge">
<title>Node3&#45;&gt;Node7</title>
<path fill="none" stroke="midnightblue" d="M496.81,-168.37C475.65,-160.91 446.49,-148.69 424.5,-132 385.07,-102.08 350.93,-54.03 334.3,-28.41"/>
<polygon fill="midnightblue" stroke="midnightblue" points="337.12,-26.33 328.8,-19.77 331.22,-30.09 337.12,-26.33"/>
</g>
<!-- Node8 -->
<g id="node8" class="node">
<title>Node8</title>
<g id="a_node8"><a xlink:href="Utils_8hpp.html" target="_top" xlink:title="List of all Utils files.">
<polygon fill="none" stroke="black" points="530,-112.5 530,-131.5 619,-131.5 619,-112.5 530,-112.5"/>
<text text-anchor="middle" x="574.5" y="-119.5" font-family="serif" font-size="10.00">Utils/Utils.hpp</text>
</a>
</g>
</g>
<!-- Node3&#45;&gt;Node8 -->
<g id="edge7" class="edge">
<title>Node3&#45;&gt;Node8</title>
<path fill="none" stroke="midnightblue" d="M532.76,-168.08C539.96,-160.3 550.61,-148.8 559.35,-139.37"/>
<polygon fill="midnightblue" stroke="midnightblue" points="562.17,-141.47 566.4,-131.75 557.03,-136.71 562.17,-141.47"/>
</g>
<!-- Node9 -->
<g id="node9" class="node">
<title>Node9</title>
<g id="a_node9"><a xlink:href="UtilsForData_8hpp.html" target="_top" xlink:title="Usefull methods for data.">
<polygon fill="none" stroke="black" points="776,-56.5 776,-75.5 907,-75.5 907,-56.5 776,-56.5"/>
<text text-anchor="middle" x="841.5" y="-63.5" font-family="serif" font-size="10.00">Utils/UtilsForData.hpp</text>
</a>
</g>
</g>
<!-- Node8&#45;&gt;Node9 -->
<g id="edge8" class="edge">
<title>Node8&#45;&gt;Node9</title>
<path fill="none" stroke="midnightblue" d="M616.81,-112.44C663.58,-102.98 738.96,-87.74 789.35,-77.55"/>
<polygon fill="midnightblue" stroke="midnightblue" points="790.28,-80.93 799.39,-75.52 788.9,-74.07 790.28,-80.93"/>
</g>
<!-- Node19 -->
<g id="node19" class="node">
<title>Node19</title>
<g id="a_node19"><a xlink:href="UtilsForDebug_8hpp.html" target="_top" xlink:title="Usefull methods for debug.">
<polygon fill="none" stroke="black" points="970,-56.5 970,-75.5 1111,-75.5 1111,-56.5 970,-56.5"/>
<text text-anchor="middle" x="1040.5" y="-63.5" font-family="serif" font-size="10.00">Utils/UtilsForDebug.hpp</text>
</a>
</g>
</g>
<!-- Node8&#45;&gt;Node19 -->
<g id="edge22" class="edge">
<title>Node8&#45;&gt;Node19</title>
<path fill="none" stroke="midnightblue" d="M619.18,-115.82C697.62,-106.73 861.1,-87.79 959.77,-76.36"/>
<polygon fill="midnightblue" stroke="midnightblue" points="960.46,-79.8 969.99,-75.17 959.66,-72.84 960.46,-79.8"/>
</g>
<!-- Node22 -->
<g id="node22" class="node">
<title>Node22</title>
<g id="a_node22"><a xlink:href="UtilsForOptions_8hpp.html" target="_top" xlink:title="Usefull methods for Options.">
<polygon fill="none" stroke="black" points="410.5,-56.5 410.5,-75.5 556.5,-75.5 556.5,-56.5 410.5,-56.5"/>
<text text-anchor="middle" x="483.5" y="-63.5" font-family="serif" font-size="10.00">Utils/UtilsForOptions.hpp</text>
</a>
</g>
</g>
<!-- Node8&#45;&gt;Node22 -->
<g id="edge32" class="edge">
<title>Node8&#45;&gt;Node22</title>
<path fill="none" stroke="midnightblue" d="M559.88,-112.32C545.55,-103.82 523.49,-90.73 506.75,-80.8"/>
<polygon fill="midnightblue" stroke="midnightblue" points="508.47,-77.75 498.08,-75.65 504.9,-83.77 508.47,-77.75"/>
</g>
<!-- Node25 -->
<g id="node25" class="node">
<title>Node25</title>
<g id="a_node25"><a xlink:href="UtilsForPostProcessing_8hpp.html" target="_top" xlink:title="Usefull methods for post&#45;processing.">
<polygon fill="none" stroke="black" points="575,-56.5 575,-75.5 758,-75.5 758,-56.5 575,-56.5"/>
<text text-anchor="middle" x="666.5" y="-63.5" font-family="serif" font-size="10.00">Utils/UtilsForPostProcessing.hpp</text>
</a>
</g>
</g>
<!-- Node8&#45;&gt;Node25 -->
<g id="edge42" class="edge">
<title>Node8&#45;&gt;Node25</title>
<path fill="none" stroke="midnightblue" d="M589.28,-112.32C603.77,-103.82 626.07,-90.73 642.99,-80.8"/>
<polygon fill="midnightblue" stroke="midnightblue" points="644.9,-83.74 651.76,-75.65 641.36,-77.7 644.9,-83.74"/>
</g>
<!-- Node26 -->
<g id="node26" class="node">
<title>Node26</title>
<g id="a_node26"><a xlink:href="UtilsForVariants_8hpp.html" target="_top" xlink:title="manage std::Variants">
<polygon fill="none" stroke="black" points="78.5,-56.5 78.5,-75.5 226.5,-75.5 226.5,-56.5 78.5,-56.5"/>
<text text-anchor="middle" x="152.5" y="-63.5" font-family="serif" font-size="10.00">Utils/UtilsForVariants.hpp</text>
</a>
</g>
</g>
<!-- Node8&#45;&gt;Node26 -->
<g id="edge49" class="edge">
<title>Node8&#45;&gt;Node26</title>
<path fill="none" stroke="midnightblue" d="M529.74,-115.27C458.22,-106.12 317.31,-88.09 229.41,-76.84"/>
<polygon fill="midnightblue" stroke="midnightblue" points="229.59,-73.34 219.23,-75.54 228.71,-80.28 229.59,-73.34"/>
</g>
<!-- Node9&#45;&gt;Node4 -->
<g id="edge12" class="edge">
<title>Node9&#45;&gt;Node4</title>
<path fill="none" stroke="midnightblue" d="M775.65,-57.06C772.56,-56.7 769.5,-56.35 766.5,-56 624.94,-39.69 586.12,-43.13 442.02,-20.11"/>
<polygon fill="midnightblue" stroke="midnightblue" points="442.34,-16.62 431.91,-18.48 441.23,-23.53 442.34,-16.62"/>
</g>
<!-- Node9&#45;&gt;Node5 -->
<g id="edge14" class="edge">
<title>Node9&#45;&gt;Node5</title>
<path fill="none" stroke="midnightblue" d="M775.85,-56.87C714.24,-48.96 619.29,-36.04 527.72,-20.12"/>
<polygon fill="midnightblue" stroke="midnightblue" points="528.18,-16.65 517.73,-18.37 526.97,-23.55 528.18,-16.65"/>
</g>
<!-- Node9&#45;&gt;Node6 -->
<g id="edge17" class="edge">
<title>Node9&#45;&gt;Node6</title>
<path fill="none" stroke="midnightblue" d="M842.99,-56.08C844.18,-48.93 845.89,-38.64 847.38,-29.69"/>
<polygon fill="midnightblue" stroke="midnightblue" points="850.85,-30.19 849.04,-19.75 843.95,-29.04 850.85,-30.19"/>
</g>
<!-- Node9&#45;&gt;Node7 -->
<g id="edge20" class="edge">
<title>Node9&#45;&gt;Node7</title>
<path fill="none" stroke="midnightblue" d="M775.66,-56.98C772.57,-56.64 769.5,-56.31 766.5,-56 587.84,-37.44 538.35,-51.66 357.65,-19.89"/>
<polygon fill="midnightblue" stroke="midnightblue" points="358,-16.4 347.54,-18.09 356.77,-23.29 358,-16.4"/>
</g>
<!-- Node10 -->
<g id="node10" class="node">
<title>Node10</title>
<g id="a_node10"><a xlink:title=" ">
<polygon fill="none" stroke="#bfbfbf" points="1018,-0.5 1018,-19.5 1077,-19.5 1077,-0.5 1018,-0.5"/>
<text text-anchor="middle" x="1047.5" y="-7.5" font-family="serif" font-size="10.00">unistd.h</text>
</a>
</g>
</g>
<!-- Node9&#45;&gt;Node10 -->
<g id="edge9" class="edge">
<title>Node9&#45;&gt;Node10</title>
<path fill="none" stroke="midnightblue" d="M874.14,-56.44C910.38,-46.94 968.89,-31.61 1007.76,-21.42"/>
<polygon fill="midnightblue" stroke="midnightblue" points="1008.9,-24.74 1017.69,-18.82 1007.13,-17.97 1008.9,-24.74"/>
</g>
<!-- Node11 -->
<g id="node11" class="node">
<title>Node11</title>
<g id="a_node11"><a xlink:title=" ">
<polygon fill="none" stroke="#bfbfbf" points="949.5,-0.5 949.5,-19.5 999.5,-19.5 999.5,-0.5 949.5,-0.5"/>
<text text-anchor="middle" x="974.5" y="-7.5" font-family="serif" font-size="10.00">cctype</text>
</a>
</g>
</g>
<!-- Node9&#45;&gt;Node11 -->
<g id="edge10" class="edge">
<title>Node9&#45;&gt;Node11</title>
<path fill="none" stroke="midnightblue" d="M862.57,-56.44C884.56,-47.52 919.23,-33.44 944.16,-23.32"/>
<polygon fill="midnightblue" stroke="midnightblue" points="945.58,-26.52 953.52,-19.52 942.94,-20.04 945.58,-26.52"/>
</g>
<!-- Node12 -->
<g id="node12" class="node">
<title>Node12</title>
<g id="a_node12"><a xlink:title=" ">
<polygon fill="none" stroke="#bfbfbf" points="1095,-0.5 1095,-19.5 1142,-19.5 1142,-0.5 1095,-0.5"/>
<text text-anchor="middle" x="1118.5" y="-7.5" font-family="serif" font-size="10.00">cstdio</text>
</a>
</g>
</g>
<!-- Node9&#45;&gt;Node12 -->
<g id="edge11" class="edge">
<title>Node9&#45;&gt;Node12</title>
<path fill="none" stroke="midnightblue" d="M895.07,-56.45C942.46,-48.59 1013.66,-36.04 1084.74,-20.01"/>
<polygon fill="midnightblue" stroke="midnightblue" points="1085.79,-23.36 1094.77,-17.73 1084.24,-16.54 1085.79,-23.36"/>
</g>
<!-- Node13 -->
<g id="node13" class="node">
<title>Node13</title>
<g id="a_node13"><a xlink:title=" ">
<polygon fill="none" stroke="#bfbfbf" points="740.5,-0.5 740.5,-19.5 808.5,-19.5 808.5,-0.5 740.5,-0.5"/>
<text text-anchor="middle" x="774.5" y="-7.5" font-family="serif" font-size="10.00">filesystem</text>
</a>
</g>
</g>
<!-- Node9&#45;&gt;Node13 -->
<g id="edge13" class="edge">
<title>Node9&#45;&gt;Node13</title>
<path fill="none" stroke="midnightblue" d="M830.74,-56.32C820.73,-48.26 805.61,-36.08 793.57,-26.37"/>
<polygon fill="midnightblue" stroke="midnightblue" points="795.44,-23.38 785.46,-19.83 791.05,-28.83 795.44,-23.38"/>
</g>
<!-- Node14 -->
<g id="node14" class="node">
<title>Node14</title>
<g id="a_node14"><a xlink:title=" ">
<polygon fill="none" stroke="#bfbfbf" points="597,-0.5 597,-19.5 658,-19.5 658,-0.5 597,-0.5"/>
<text text-anchor="middle" x="627.5" y="-7.5" font-family="serif" font-size="10.00">iostream</text>
</a>
</g>
</g>
<!-- Node9&#45;&gt;Node14 -->
<g id="edge15" class="edge">
<title>Node9&#45;&gt;Node14</title>
<path fill="none" stroke="midnightblue" d="M807.59,-56.44C769.67,-46.88 708.3,-31.39 667.92,-21.2"/>
<polygon fill="midnightblue" stroke="midnightblue" points="668.68,-17.78 658.13,-18.73 666.97,-24.57 668.68,-17.78"/>
</g>
<!-- Node15 -->
<g id="node15" class="node">
<title>Node15</title>
<g id="a_node15"><a xlink:title=" ">
<polygon fill="none" stroke="#bfbfbf" points="892,-0.5 892,-19.5 931,-19.5 931,-0.5 892,-0.5"/>
<text text-anchor="middle" x="911.5" y="-7.5" font-family="serif" font-size="10.00">map</text>
</a>
</g>
</g>
<!-- Node9&#45;&gt;Node15 -->
<g id="edge16" class="edge">
<title>Node9&#45;&gt;Node15</title>
<path fill="none" stroke="midnightblue" d="M852.75,-56.32C863.3,-48.18 879.3,-35.84 891.94,-26.09"/>
<polygon fill="midnightblue" stroke="midnightblue" points="894.27,-28.71 900.05,-19.83 889.99,-23.17 894.27,-28.71"/>
</g>
<!-- Node16 -->
<g id="node16" class="node">
<title>Node16</title>
<g id="a_node16"><a xlink:title=" ">
<polygon fill="none" stroke="#bfbfbf" points="536,-0.5 536,-19.5 579,-19.5 579,-0.5 536,-0.5"/>
<text text-anchor="middle" x="557.5" y="-7.5" font-family="serif" font-size="10.00">tuple</text>
</a>
</g>
</g>
<!-- Node9&#45;&gt;Node16 -->
<g id="edge18" class="edge">
<title>Node9&#45;&gt;Node16</title>
<path fill="none" stroke="midnightblue" d="M782.08,-56.47C732.67,-48.93 660.36,-36.84 589.1,-20.17"/>
<polygon fill="midnightblue" stroke="midnightblue" points="589.59,-16.69 579.05,-17.79 587.97,-23.5 589.59,-16.69"/>
</g>
<!-- Node17 -->
<g id="node17" class="node">
<title>Node17</title>
<g id="a_node17"><a xlink:title=" ">
<polygon fill="none" stroke="#bfbfbf" points="676.5,-0.5 676.5,-19.5 722.5,-19.5 722.5,-0.5 676.5,-0.5"/>
<text text-anchor="middle" x="699.5" y="-7.5" font-family="serif" font-size="10.00">utility</text>
</a>
</g>
</g>
<!-- Node9&#45;&gt;Node17 -->
<g id="edge19" class="edge">
<title>Node9&#45;&gt;Node17</title>
<path fill="none" stroke="midnightblue" d="M819,-56.44C795.42,-47.48 758.18,-33.31 731.54,-23.18"/>
<polygon fill="midnightblue" stroke="midnightblue" points="732.49,-19.8 721.9,-19.52 730,-26.34 732.49,-19.8"/>
</g>
<!-- Node9&#45;&gt;Node18 -->
<g id="edge21" class="edge">
<title>Node9&#45;&gt;Node18</title>
<path fill="none" stroke="midnightblue" d="M907.08,-56.56C967.48,-48.53 1059.83,-35.62 1149.84,-20.03"/>
<polygon fill="midnightblue" stroke="midnightblue" points="1150.7,-23.43 1159.95,-18.26 1149.5,-16.53 1150.7,-23.43"/>
</g>
<!-- Node19&#45;&gt;Node5 -->
<g id="edge27" class="edge">
<title>Node19&#45;&gt;Node5</title>
<path fill="none" stroke="midnightblue" d="M969.56,-59.84C853.34,-51.22 626.23,-33.61 527.67,-19.97"/>
<polygon fill="midnightblue" stroke="midnightblue" points="528.1,-16.5 517.7,-18.54 527.1,-23.43 528.1,-16.5"/>
</g>
<!-- Node19&#45;&gt;Node6 -->
<g id="edge29" class="edge">
<title>Node19&#45;&gt;Node6</title>
<path fill="none" stroke="midnightblue" d="M1010.39,-56.44C976.01,-46.67 919.91,-30.73 884.13,-20.56"/>
<polygon fill="midnightblue" stroke="midnightblue" points="884.74,-17.09 874.16,-17.73 882.82,-23.83 884.74,-17.09"/>
</g>
<!-- Node19&#45;&gt;Node10 -->
<g id="edge24" class="edge">
<title>Node19&#45;&gt;Node10</title>
<path fill="none" stroke="midnightblue" d="M1041.66,-56.08C1042.58,-48.93 1043.92,-38.64 1045.08,-29.69"/>
<polygon fill="midnightblue" stroke="midnightblue" points="1048.55,-30.12 1046.37,-19.75 1041.61,-29.22 1048.55,-30.12"/>
</g>
<!-- Node19&#45;&gt;Node12 -->
<g id="edge25" class="edge">
<title>Node19&#45;&gt;Node12</title>
<path fill="none" stroke="midnightblue" d="M1053.03,-56.32C1065.09,-47.98 1083.53,-35.21 1097.77,-25.35"/>
<polygon fill="midnightblue" stroke="midnightblue" points="1099.77,-28.22 1106,-19.65 1095.78,-22.47 1099.77,-28.22"/>
</g>
<!-- Node19&#45;&gt;Node14 -->
<g id="edge28" class="edge">
<title>Node19&#45;&gt;Node14</title>
<path fill="none" stroke="midnightblue" d="M969.72,-58.62C896.67,-51.54 779.24,-38.81 668.06,-19.93"/>
<polygon fill="midnightblue" stroke="midnightblue" points="668.46,-16.44 658.01,-18.2 667.27,-23.34 668.46,-16.44"/>
</g>
<!-- Node19&#45;&gt;Node17 -->
<g id="edge30" class="edge">
<title>Node19&#45;&gt;Node17</title>
<path fill="none" stroke="midnightblue" d="M969.78,-57.34C909.19,-50.18 819.46,-38.15 732.83,-20.06"/>
<polygon fill="midnightblue" stroke="midnightblue" points="733.34,-16.59 722.83,-17.94 731.89,-23.44 733.34,-16.59"/>
</g>
<!-- Node19&#45;&gt;Node18 -->
<g id="edge31" class="edge">
<title>Node19&#45;&gt;Node18</title>
<path fill="none" stroke="midnightblue" d="M1064.9,-56.44C1090.7,-47.4 1131.58,-33.06 1160.52,-22.92"/>
<polygon fill="midnightblue" stroke="midnightblue" points="1161.93,-26.13 1170.21,-19.52 1159.62,-19.52 1161.93,-26.13"/>
</g>
<!-- Node20 -->
<g id="node20" class="node">
<title>Node20</title>
<g id="a_node20"><a xlink:title=" ">
<polygon fill="none" stroke="#bfbfbf" points="1247.5,-0.5 1247.5,-19.5 1337.5,-19.5 1337.5,-0.5 1247.5,-0.5"/>
<text text-anchor="middle" x="1292.5" y="-7.5" font-family="serif" font-size="10.00">sys/resource.h</text>
</a>
</g>
</g>
<!-- Node19&#45;&gt;Node20 -->
<g id="edge23" class="edge">
<title>Node19&#45;&gt;Node20</title>
<path fill="none" stroke="midnightblue" d="M1080.43,-56.44C1124.39,-47.02 1195.13,-31.87 1242.68,-21.68"/>
<polygon fill="midnightblue" stroke="midnightblue" points="1243.71,-25.03 1252.76,-19.52 1242.25,-18.19 1243.71,-25.03"/>
</g>
<!-- Node21 -->
<g id="node21" class="node">
<title>Node21</title>
<g id="a_node21"><a xlink:title=" ">
<polygon fill="none" stroke="#bfbfbf" points="1355.5,-0.5 1355.5,-19.5 1411.5,-19.5 1411.5,-0.5 1355.5,-0.5"/>
<text text-anchor="middle" x="1383.5" y="-7.5" font-family="serif" font-size="10.00">fstream</text>
</a>
</g>
</g>
<!-- Node19&#45;&gt;Node21 -->
<g id="edge26" class="edge">
<title>Node19&#45;&gt;Node21</title>
<path fill="none" stroke="midnightblue" d="M1111,-56.52C1170.92,-48.88 1259.39,-36.58 1345.35,-20.08"/>
<polygon fill="midnightblue" stroke="midnightblue" points="1346.13,-23.49 1355.28,-18.15 1344.79,-16.62 1346.13,-23.49"/>
</g>
<!-- Node22&#45;&gt;Node4 -->
<g id="edge33" class="edge">
<title>Node22&#45;&gt;Node4</title>
<path fill="none" stroke="midnightblue" d="M469.84,-56.32C456.58,-47.9 436.23,-34.97 420.65,-25.07"/>
<polygon fill="midnightblue" stroke="midnightblue" points="422.44,-22.06 412.12,-19.65 418.69,-27.97 422.44,-22.06"/>
</g>
<!-- Node22&#45;&gt;Node5 -->
<g id="edge34" class="edge">
<title>Node22&#45;&gt;Node5</title>
<path fill="none" stroke="midnightblue" d="M483.5,-56.08C483.5,-49.01 483.5,-38.86 483.5,-29.99"/>
<polygon fill="midnightblue" stroke="midnightblue" points="487,-29.75 483.5,-19.75 480,-29.75 487,-29.75"/>
</g>
<!-- Node22&#45;&gt;Node6 -->
<g id="edge37" class="edge">
<title>Node22&#45;&gt;Node6</title>
<path fill="none" stroke="midnightblue" d="M555.12,-56.48C633.33,-46.99 754.65,-31.66 816.65,-19.88"/>
<polygon fill="midnightblue" stroke="midnightblue" points="817.67,-23.24 826.8,-17.87 816.31,-16.38 817.67,-23.24"/>
</g>
<!-- Node22&#45;&gt;Node7 -->
<g id="edge41" class="edge">
<title>Node22&#45;&gt;Node7</title>
<path fill="none" stroke="midnightblue" d="M458.15,-56.44C430.91,-47.25 387.5,-32.6 357.36,-22.43"/>
<polygon fill="midnightblue" stroke="midnightblue" points="358.28,-19.04 347.69,-19.16 356.04,-25.68 358.28,-19.04"/>
</g>
<!-- Node22&#45;&gt;Node14 -->
<g id="edge35" class="edge">
<title>Node22&#45;&gt;Node14</title>
<path fill="none" stroke="midnightblue" d="M506.32,-56.44C530.33,-47.44 568.33,-33.19 595.37,-23.05"/>
<polygon fill="midnightblue" stroke="midnightblue" points="596.66,-26.3 604.79,-19.52 594.2,-19.75 596.66,-26.3"/>
</g>
<!-- Node22&#45;&gt;Node16 -->
<g id="edge38" class="edge">
<title>Node22&#45;&gt;Node16</title>
<path fill="none" stroke="midnightblue" d="M495.39,-56.32C506.65,-48.11 523.79,-35.6 537.21,-25.81"/>
<polygon fill="midnightblue" stroke="midnightblue" points="539.38,-28.56 545.39,-19.83 535.25,-22.9 539.38,-28.56"/>
</g>
<!-- Node22&#45;&gt;Node17 -->
<g id="edge39" class="edge">
<title>Node22&#45;&gt;Node17</title>
<path fill="none" stroke="midnightblue" d="M519.33,-56.47C556.28,-47.61 615.51,-33.22 666.5,-20 666.6,-19.97 666.7,-19.95 666.8,-19.92"/>
<polygon fill="midnightblue" stroke="midnightblue" points="667.67,-23.31 676.44,-17.37 665.88,-16.55 667.67,-23.31"/>
</g>
<!-- Node23 -->
<g id="node23" class="node">
<title>Node23</title>
<g id="a_node23"><a xlink:title=" ">
<polygon fill="none" stroke="#bfbfbf" points="237.5,-0.5 237.5,-19.5 281.5,-19.5 281.5,-0.5 237.5,-0.5"/>
<text text-anchor="middle" x="259.5" y="-7.5" font-family="serif" font-size="10.00">limits</text>
</a>
</g>
</g>
<!-- Node22&#45;&gt;Node23 -->
<g id="edge36" class="edge">
<title>Node22&#45;&gt;Node23</title>
<path fill="none" stroke="midnightblue" d="M444.17,-56.48C407.12,-48.3 349.86,-35.3 291.56,-20.18"/>
<polygon fill="midnightblue" stroke="midnightblue" points="292.37,-16.77 281.81,-17.63 290.6,-23.55 292.37,-16.77"/>
</g>
<!-- Node24 -->
<g id="node24" class="node">
<title>Node24</title>
<g id="a_node24"><a xlink:title=" ">
<polygon fill="none" stroke="#bfbfbf" points="166,-0.5 166,-19.5 219,-19.5 219,-0.5 166,-0.5"/>
<text text-anchor="middle" x="192.5" y="-7.5" font-family="serif" font-size="10.00">variant</text>
</a>
</g>
</g>
<!-- Node22&#45;&gt;Node24 -->
<g id="edge40" class="edge">
<title>Node22&#45;&gt;Node24</title>
<path fill="none" stroke="midnightblue" d="M428.57,-56.45C379,-48.48 303.89,-35.76 229.24,-20.03"/>
<polygon fill="midnightblue" stroke="midnightblue" points="229.7,-16.55 219.19,-17.89 228.24,-23.4 229.7,-16.55"/>
</g>
<!-- Node25&#45;&gt;Node4 -->
<g id="edge43" class="edge">
<title>Node25&#45;&gt;Node4</title>
<path fill="none" stroke="midnightblue" d="M622.71,-56.48C579.29,-47.98 510.59,-34.42 441.67,-20.22"/>
<polygon fill="midnightblue" stroke="midnightblue" points="442.01,-16.72 431.51,-18.12 440.59,-23.57 442.01,-16.72"/>
</g>
<!-- Node25&#45;&gt;Node6 -->
<g id="edge46" class="edge">
<title>Node25&#45;&gt;Node6</title>
<path fill="none" stroke="midnightblue" d="M695.66,-56.44C728.67,-46.75 782.38,-30.99 817.07,-20.81"/>
<polygon fill="midnightblue" stroke="midnightblue" points="818.14,-24.15 826.75,-17.97 816.17,-17.43 818.14,-24.15"/>
</g>
<!-- Node25&#45;&gt;Node7 -->
<g id="edge48" class="edge">
<title>Node25&#45;&gt;Node7</title>
<path fill="none" stroke="midnightblue" d="M589.61,-56.49C529,-49.17 442.21,-37.34 357.61,-20.01"/>
<polygon fill="midnightblue" stroke="midnightblue" points="358.07,-16.54 347.57,-17.93 356.65,-23.39 358.07,-16.54"/>
</g>
<!-- Node25&#45;&gt;Node14 -->
<g id="edge44" class="edge">
<title>Node25&#45;&gt;Node14</title>
<path fill="none" stroke="midnightblue" d="M660.06,-56.08C654.55,-48.46 646.47,-37.26 639.74,-27.94"/>
<polygon fill="midnightblue" stroke="midnightblue" points="642.51,-25.81 633.82,-19.75 636.84,-29.91 642.51,-25.81"/>
</g>
<!-- Node25&#45;&gt;Node17 -->
<g id="edge47" class="edge">
<title>Node25&#45;&gt;Node17</title>
<path fill="none" stroke="midnightblue" d="M671.95,-56.08C676.51,-48.61 683.17,-37.72 688.79,-28.52"/>
<polygon fill="midnightblue" stroke="midnightblue" points="691.92,-30.11 694.15,-19.75 685.95,-26.46 691.92,-30.11"/>
</g>
<!-- Node25&#45;&gt;Node23 -->
<g id="edge45" class="edge">
<title>Node25&#45;&gt;Node23</title>
<path fill="none" stroke="midnightblue" d="M581.69,-56.48C493.08,-47.3 358.86,-32.56 291.9,-19.94"/>
<polygon fill="midnightblue" stroke="midnightblue" points="292.23,-16.43 281.74,-17.93 290.87,-23.3 292.23,-16.43"/>
</g>
<!-- Node26&#45;&gt;Node24 -->
<g id="edge52" class="edge">
<title>Node26&#45;&gt;Node24</title>
<path fill="none" stroke="midnightblue" d="M159.11,-56.08C164.76,-48.46 173.04,-37.26 179.95,-27.94"/>
<polygon fill="midnightblue" stroke="midnightblue" points="182.88,-29.87 186.02,-19.75 177.25,-25.7 182.88,-29.87"/>
</g>
<!-- Node27 -->
<g id="node27" class="node">
<title>Node27</title>
<g id="a_node27"><a xlink:title=" ">
<polygon fill="none" stroke="#bfbfbf" points="0,-0.5 0,-19.5 59,-19.5 59,-0.5 0,-0.5"/>
<text text-anchor="middle" x="29.5" y="-7.5" font-family="serif" font-size="10.00">memory</text>
</a>
</g>
</g>
<!-- Node26&#45;&gt;Node27 -->
<g id="edge50" class="edge">
<title>Node26&#45;&gt;Node27</title>
<path fill="none" stroke="midnightblue" d="M133.01,-56.44C112.86,-47.6 81.18,-33.69 58.17,-23.59"/>
<polygon fill="midnightblue" stroke="midnightblue" points="59.46,-20.33 48.9,-19.52 56.65,-26.74 59.46,-20.33"/>
</g>
<!-- Node28 -->
<g id="node28" class="node">
<title>Node28</title>
<g id="a_node28"><a xlink:title=" ">
<polygon fill="none" stroke="#bfbfbf" points="77,-0.5 77,-19.5 148,-19.5 148,-0.5 77,-0.5"/>
<text text-anchor="middle" x="112.5" y="-7.5" font-family="serif" font-size="10.00">type_traits</text>
</a>
</g>
</g>
<!-- Node26&#45;&gt;Node28 -->
<g id="edge51" class="edge">
<title>Node26&#45;&gt;Node28</title>
<path fill="none" stroke="midnightblue" d="M145.89,-56.08C140.24,-48.46 131.96,-37.26 125.05,-27.94"/>
<polygon fill="midnightblue" stroke="midnightblue" points="127.75,-25.7 118.98,-19.75 122.12,-29.87 127.75,-25.7"/>
</g>
</g>
</svg>
