<?xml version="1.0" encoding="UTF-8" standalone="no"?>
<!DOCTYPE svg PUBLIC "-//W3C//DTD SVG 1.1//EN"
 "http://www.w3.org/Graphics/SVG/1.1/DTD/svg11.dtd">
<!-- Generated by graphviz version 2.43.0 (0)
 -->
<!-- Title: Graph Legend Pages: 1 -->
<svg width="562pt" height="159pt"
 viewBox="0.00 0.00 562.00 159.00" xmlns="http://www.w3.org/2000/svg" xmlns:xlink="http://www.w3.org/1999/xlink">
<g id="graph0" class="graph" transform="scale(1 1) rotate(0) translate(4 155)">
<title>Graph Legend</title>
<!-- Node9 -->
<g id="node1" class="node">
<title>Node9</title>
<polygon fill="#bfbfbf" stroke="black" points="322.5,-19 258.5,-19 258.5,0 322.5,0 322.5,-19"/>
<text text-anchor="middle" x="290.5" y="-7" font-family="serif" font-size="10.00">Inherited</text>
</g>
<!-- Node10 -->
<g id="node2" class="node">
<title>Node10</title>
<polygon fill="none" stroke="black" points="73,-85 0,-85 0,-66 73,-66 73,-85"/>
<text text-anchor="middle" x="36.5" y="-73" font-family="serif" font-size="10.00">PublicBase</text>
</g>
<!-- Node10&#45;&gt;Node9 -->
<g id="edge1" class="edge">
<title>Node10&#45;&gt;Node9</title>
<path fill="none" stroke="midnightblue" d="M80.5,-63.41C131.18,-50.64 213.24,-29.97 258.31,-18.61"/>
<polygon fill="midnightblue" stroke="midnightblue" points="79.33,-60.1 70.49,-65.94 81.04,-66.89 79.33,-60.1"/>
</g>
<!-- Node11 -->
<g id="node3" class="node">
<title>Node11</title>
<polygon fill="none" stroke="red" points="71,-151 2,-151 2,-132 71,-132 71,-151"/>
<text text-anchor="middle" x="36.5" y="-139" font-family="serif" font-size="10.00">Truncated</text>
</g>
<!-- Node11&#45;&gt;Node10 -->
<g id="edge2" class="edge">
<title>Node11&#45;&gt;Node10</title>
<path fill="none" stroke="midnightblue" d="M36.5,-121.58C36.5,-109.63 36.5,-94.72 36.5,-85.41"/>
<polygon fill="midnightblue" stroke="midnightblue" points="33,-121.87 36.5,-131.87 40,-121.87 33,-121.87"/>
</g>
<!-- Node13 -->
<g id="node4" class="node">
<title>Node13</title>
<polygon fill="none" stroke="black" points="181.5,-85 91.5,-85 91.5,-66 181.5,-66 181.5,-85"/>
<text text-anchor="middle" x="136.5" y="-73" font-family="serif" font-size="10.00">ProtectedBase</text>
</g>
<!-- Node13&#45;&gt;Node9 -->
<g id="edge3" class="edge">
<title>Node13&#45;&gt;Node9</title>
<path fill="none" stroke="darkgreen" d="M166.52,-62.02C196.87,-49.41 242.97,-30.25 269.57,-19.2"/>
<polygon fill="darkgreen" stroke="darkgreen" points="165.16,-58.8 157.27,-65.87 167.85,-65.26 165.16,-58.8"/>
</g>
<!-- Node14 -->
<g id="node5" class="node">
<title>Node14</title>
<polygon fill="none" stroke="black" points="277,-85 200,-85 200,-66 277,-66 277,-85"/>
<text text-anchor="middle" x="238.5" y="-73" font-family="serif" font-size="10.00">PrivateBase</text>
</g>
<!-- Node14&#45;&gt;Node9 -->
<g id="edge4" class="edge">
<title>Node14&#45;&gt;Node9</title>
<path fill="none" stroke="#8b1a1a" d="M252.1,-57.77C262.07,-45.49 275.23,-29.3 283.26,-19.41"/>
<polygon fill="#8b1a1a" stroke="#8b1a1a" points="249.1,-55.9 245.51,-65.87 254.54,-60.31 249.1,-55.9"/>
</g>
<!-- Node15 -->
<g id="node6" class="node">
<title>Node15</title>
<polygon fill="none" stroke="#bfbfbf" points="390,-85 295,-85 295,-66 390,-66 390,-85"/>
<text text-anchor="middle" x="342.5" y="-73" font-family="serif" font-size="10.00">Undocumented</text>
</g>
<!-- Node15&#45;&gt;Node9 -->
<g id="edge5" class="edge">
<title>Node15&#45;&gt;Node9</title>
<path fill="none" stroke="midnightblue" d="M328.9,-57.77C318.93,-45.49 305.77,-29.3 297.74,-19.41"/>
<polygon fill="midnightblue" stroke="midnightblue" points="326.46,-60.31 335.49,-65.87 331.9,-55.9 326.46,-60.31"/>
</g>
<!-- Node16 -->
<g id="node7" class="node">
<title>Node16</title>
<polygon fill="none" stroke="black" points="492.5,-85 408.5,-85 408.5,-66 492.5,-66 492.5,-85"/>
<text text-anchor="middle" x="450.5" y="-73" font-family="serif" font-size="10.00">Templ&lt; int &gt;</text>
</g>
<!-- Node16&#45;&gt;Node9 -->
<g id="edge6" class="edge">
<title>Node16&#45;&gt;Node9</title>
<path fill="none" stroke="midnightblue" d="M419.28,-62.01C387.65,-49.36 339.58,-30.13 311.99,-19.1"/>
<polygon fill="midnightblue" stroke="midnightblue" points="418.34,-65.4 428.92,-65.87 420.94,-58.91 418.34,-65.4"/>
</g>
<!-- Node17 -->
<g id="node8" class="node">
<title>Node17</title>
<polygon fill="none" stroke="black" points="489,-151 412,-151 412,-132 489,-132 489,-151"/>
<text text-anchor="middle" x="450.5" y="-139" font-family="serif" font-size="10.00">Templ&lt; T &gt;</text>
</g>
<!-- Node17&#45;&gt;Node16 -->
<g id="edge7" class="edge">
<title>Node17&#45;&gt;Node16</title>
<path fill="none" stroke="orange" stroke-dasharray="5,2" d="M450.5,-121.58C450.5,-109.63 450.5,-94.72 450.5,-85.41"/>
<polygon fill="orange" stroke="orange" points="447,-121.87 450.5,-131.87 454,-121.87 447,-121.87"/>
<text text-anchor="middle" x="469" y="-106" font-family="serif" font-size="10.00">&lt; int &gt;</text>
</g>
<!-- Node18 -->
<g id="node9" class="node">
<title>Node18</title>
<polygon fill="none" stroke="black" points="554,-85 511,-85 511,-66 554,-66 554,-85"/>
<text text-anchor="middle" x="532.5" y="-73" font-family="serif" font-size="10.00">Used</text>
</g>
<!-- Node18&#45;&gt;Node9 -->
<g id="edge8" class="edge">
<title>Node18&#45;&gt;Node9</title>
<path fill="none" stroke="#9a32cd" stroke-dasharray="5,2" d="M501.04,-65.9C431.62,-47.28 362.24,-29.15 322.7,-18.86"/>
<polygon fill="#9a32cd" stroke="#9a32cd" points="500.26,-69.31 510.83,-68.53 502.08,-62.55 500.26,-69.31"/>
<text text-anchor="middle" x="465" y="-40" font-family="serif" font-size="10.00">m_usedClass</text>
</g>
</g>
</svg>
