<?xml version="1.0" encoding="UTF-8" standalone="no"?>
<!DOCTYPE svg PUBLIC "-//W3C//DTD SVG 1.1//EN"
 "http://www.w3.org/Graphics/SVG/1.1/DTD/svg11.dtd">
<!-- Generated by graphviz version 2.43.0 (0)
 -->
<!-- Title: HeatCapacityFunctions.hpp Pages: 1 -->
<svg width="224pt" height="140pt"
 viewBox="0.00 0.00 224.00 140.00" xmlns="http://www.w3.org/2000/svg" xmlns:xlink="http://www.w3.org/1999/xlink">
<g id="graph0" class="graph" transform="scale(1 1) rotate(0) translate(4 136)">
<title>HeatCapacityFunctions.hpp</title>
<!-- Node1 -->
<g id="node1" class="node">
<title>Node1</title>
<g id="a_node1"><a xlink:title="Heat Capacity functions.">
<polygon fill="#bfbfbf" stroke="black" points="57,-112.5 57,-131.5 216,-131.5 216,-112.5 57,-112.5"/>
<text text-anchor="middle" x="136.5" y="-119.5" font-family="serif" font-size="10.00">HeatCapacityFunctions.hpp</text>
</a>
</g>
</g>
<!-- Node2 -->
<g id="node2" class="node">
<title>Node2</title>
<g id="a_node2"><a xlink:href="HeatCapacityCoefficient_8hpp.html" target="_top" xlink:title="Class dedicated to HeatCapacity coefficient.">
<polygon fill="none" stroke="black" points="0,-56.5 0,-75.5 163,-75.5 163,-56.5 0,-56.5"/>
<text text-anchor="middle" x="81.5" y="-63.5" font-family="serif" font-size="10.00">HeatCapacityCoefficient.hpp</text>
</a>
</g>
</g>
<!-- Node1&#45;&gt;Node2 -->
<g id="edge1" class="edge">
<title>Node1&#45;&gt;Node2</title>
<path fill="none" stroke="midnightblue" d="M120.21,-105C110.46,-95.43 98.45,-83.64 90.41,-75.75"/>
<polygon fill="midnightblue" stroke="midnightblue" points="117.83,-107.57 127.42,-112.08 122.73,-102.58 117.83,-107.57"/>
</g>
<!-- Node3 -->
<g id="node3" class="node">
<title>Node3</title>
<g id="a_node3"><a xlink:href="sloth_8hpp.html" target="_top" xlink:title="List of all header files contained in the kernel directory.">
<polygon fill="none" stroke="black" points="104,-0.5 104,-19.5 169,-19.5 169,-0.5 104,-0.5"/>
<text text-anchor="middle" x="136.5" y="-7.5" font-family="serif" font-size="10.00">sloth.hpp</text>
</a>
</g>
</g>
<!-- Node1&#45;&gt;Node3 -->
<g id="edge3" class="edge">
<title>Node1&#45;&gt;Node3</title>
<path fill="none" stroke="midnightblue" d="M153.9,-104.82C161.13,-96.92 168.71,-86.79 172.5,-76 180.02,-54.58 160.18,-31.89 147.05,-19.8"/>
<polygon fill="midnightblue" stroke="midnightblue" points="151.17,-102.6 146.66,-112.19 156.17,-107.51 151.17,-102.6"/>
</g>
<!-- Node2&#45;&gt;Node3 -->
<g id="edge2" class="edge">
<title>Node2&#45;&gt;Node3</title>
<path fill="none" stroke="midnightblue" d="M97.79,-49C107.54,-39.43 119.55,-27.64 127.59,-19.75"/>
<polygon fill="midnightblue" stroke="midnightblue" points="95.27,-46.58 90.58,-56.08 100.17,-51.57 95.27,-46.58"/>
</g>
</g>
</svg>
