<?xml version="1.0" encoding="UTF-8" standalone="no"?>
<!DOCTYPE svg PUBLIC "-//W3C//DTD SVG 1.1//EN"
 "http://www.w3.org/Graphics/SVG/1.1/DTD/svg11.dtd">
<!-- Generated by graphviz version 2.43.0 (0)
 -->
<!-- Title: HSolverBase.hpp Pages: 1 -->
<!--zoomable 375 -->
<svg id="main" version="1.1" xmlns="http://www.w3.org/2000/svg" xmlns:xlink="http://www.w3.org/1999/xlink" xml:space="preserve" onload="init(evt)">
<style type="text/css"><![CDATA[
.edge:hover path { stroke: red; }
.edge:hover polygon { stroke: red; fill: red; }
]]></style>
<script type="text/javascript"><![CDATA[
var edges = document.getElementsByTagName('g');
if (edges && edges.length) {
  for (var i=0;i<edges.length;i++) {
    if (edges[i].id.substr(0,4)=='edge') {
      edges[i].setAttribute('class','edge');
    }
  }
}
]]></script>
        <defs>
                <circle id="rim" cx="0" cy="0" r="7"/>
                <circle id="rim2" cx="0" cy="0" r="3.5"/>
                <g id="zoomPlus">
                        <use xlink:href="#rim" fill="#404040">
                                <set attributeName="fill" to="#808080" begin="zoomplus.mouseover" end="zoomplus.mouseout"/>
                        </use>
                        <path d="M-4,0h8M0,-4v8" fill="none" stroke="white" stroke-width="1.5" pointer-events="none"/>
                </g>
                <g id="zoomMin">
                        <use xlink:href="#rim" fill="#404040">
                                <set attributeName="fill" to="#808080" begin="zoomminus.mouseover" end="zoomminus.mouseout"/>
                        </use>
                        <path d="M-4,0h8" fill="none" stroke="white" stroke-width="1.5" pointer-events="none"/>
                </g>
                <g id="dirArrow">
                        <path fill="none" stroke="white" stroke-width="1.5" d="M0,-3.0v7 M-2.5,-0.5L0,-3.0L2.5,-0.5"/>
                </g>
               <g id="resetDef">
                       <use xlink:href="#rim2" fill="#404040">
                               <set attributeName="fill" to="#808080" begin="reset.mouseover" end="reset.mouseout"/>
                       </use>
               </g>
        </defs>

<script type="text/javascript">
var viewWidth = 2120;
var viewHeight = 375;
var sectionId = 'dynsection-0';
</script>
<script xlink:href="svgpan.js"/>
<svg id="graph" class="graph">
<g id="viewport">
<title>HSolverBase.hpp</title>
<!-- Node1 -->
<g id="node1" class="node">
<title>Node1</title>
<g id="a_node1"><a xlink:title="Base class for Hypre solvers.">
<polygon fill="#bfbfbf" stroke="black" points="936,-347.5 936,-366.5 1042,-366.5 1042,-347.5 936,-347.5"/>
<text text-anchor="middle" x="989" y="-354.5" font-family="serif" font-size="10.00">HSolverBase.hpp</text>
</a>
</g>
</g>
<!-- Node2 -->
<g id="node2" class="node">
<title>Node2</title>
<g id="a_node2"><a xlink:title=" ">
<polygon fill="none" stroke="#bfbfbf" points="46.5,-0.5 46.5,-19.5 105.5,-19.5 105.5,-0.5 46.5,-0.5"/>
<text text-anchor="middle" x="76" y="-7.5" font-family="serif" font-size="10.00">memory</text>
</a>
</g>
</g>
<!-- Node1&#45;&gt;Node2 -->
<g id="edge1" class="edge">
<title>Node1&#45;&gt;Node2</title>
<path fill="none" stroke="midnightblue" d="M935.83,-355.72C730.4,-353.96 0,-341.02 0,-246 0,-246 0,-246 0,-121 0,-81.28 33.96,-45.5 56.48,-26.15"/>
<polygon fill="midnightblue" stroke="midnightblue" points="58.98,-28.63 64.46,-19.57 54.52,-23.24 58.98,-28.63"/>
</g>
<!-- Node3 -->
<g id="node3" class="node">
<title>Node3</title>
<g id="a_node3"><a xlink:title=" ">
<polygon fill="none" stroke="#bfbfbf" points="1424.5,-0.5 1424.5,-19.5 1471.5,-19.5 1471.5,-0.5 1424.5,-0.5"/>
<text text-anchor="middle" x="1448" y="-7.5" font-family="serif" font-size="10.00">string</text>
</a>
</g>
</g>
<!-- Node1&#45;&gt;Node3 -->
<g id="edge2" class="edge">
<title>Node1&#45;&gt;Node3</title>
<path fill="none" stroke="midnightblue" d="M1042.09,-355.31C1181.51,-352.36 1568.65,-336.81 1878,-255 1939.21,-238.81 1972.95,-251.05 2009,-199 2047.34,-143.65 2019.61,-85.31 1959,-56 1874.39,-15.09 1581.96,-11.05 1481.89,-10.89"/>
<polygon fill="midnightblue" stroke="midnightblue" points="1481.74,-7.39 1471.74,-10.89 1481.74,-14.39 1481.74,-7.39"/>
</g>
<!-- Node4 -->
<g id="node4" class="node">
<title>Node4</title>
<g id="a_node4"><a xlink:href="Options_8hpp.html" target="_top" xlink:title="List of all Options files.">
<polygon fill="none" stroke="black" points="929,-235.5 929,-254.5 1051,-254.5 1051,-235.5 929,-235.5"/>
<text text-anchor="middle" x="990" y="-242.5" font-family="serif" font-size="10.00">Options/Options.hpp</text>
</a>
</g>
</g>
<!-- Node1&#45;&gt;Node4 -->
<g id="edge3" class="edge">
<title>Node1&#45;&gt;Node4</title>
<path fill="none" stroke="midnightblue" d="M997.21,-347.18C1004.54,-338.66 1014.76,-325.02 1019,-311 1024.18,-293.9 1014.25,-275.37 1004.63,-262.49"/>
<polygon fill="midnightblue" stroke="midnightblue" points="1007.22,-260.13 998.21,-254.56 1001.78,-264.54 1007.22,-260.13"/>
</g>
<!-- Node6 -->
<g id="node6" class="node">
<title>Node6</title>
<g id="a_node6"><a xlink:href="Utils_8hpp.html" target="_top" xlink:title="List of all Utils files.">
<polygon fill="none" stroke="black" points="858.5,-112.5 858.5,-131.5 947.5,-131.5 947.5,-112.5 858.5,-112.5"/>
<text text-anchor="middle" x="903" y="-119.5" font-family="serif" font-size="10.00">Utils/Utils.hpp</text>
</a>
</g>
</g>
<!-- Node1&#45;&gt;Node6 -->
<g id="edge84" class="edge">
<title>Node1&#45;&gt;Node6</title>
<path fill="none" stroke="midnightblue" d="M935.88,-355.28C760.23,-351.66 203.28,-329.86 96,-199 87.27,-188.35 86.53,-178.01 96,-168 121.85,-140.67 670.83,-127.55 848.24,-124.01"/>
<polygon fill="midnightblue" stroke="midnightblue" points="848.46,-127.51 858.39,-123.81 848.32,-120.51 848.46,-127.51"/>
</g>
<!-- Node19 -->
<g id="node19" class="node">
<title>Node19</title>
<g id="a_node19"><a xlink:title=" ">
<polygon fill="none" stroke="#bfbfbf" points="1764.5,-0.5 1764.5,-19.5 1833.5,-19.5 1833.5,-0.5 1764.5,-0.5"/>
<text text-anchor="middle" x="1799" y="-7.5" font-family="serif" font-size="10.00">mfem.hpp</text>
</a>
</g>
</g>
<!-- Node1&#45;&gt;Node19 -->
<g id="edge85" class="edge">
<title>Node1&#45;&gt;Node19</title>
<path fill="none" stroke="midnightblue" d="M1042.03,-356.44C1264.63,-357.61 2112,-354.91 2112,-246 2112,-246 2112,-246 2112,-121 2112,-64.82 1930.26,-30.39 1843.75,-17.18"/>
<polygon fill="midnightblue" stroke="midnightblue" points="1844.1,-13.69 1833.69,-15.67 1843.06,-20.62 1844.1,-13.69"/>
</g>
<!-- Node38 -->
<g id="node38" class="node">
<title>Node38</title>
<g id="a_node38"><a xlink:href="SolverBase_8hpp.html" target="_top" xlink:title="Base class for Hypre, Iterative, Direct and Non Linear Solvers.">
<polygon fill="none" stroke="black" points="872.5,-291.5 872.5,-310.5 1009.5,-310.5 1009.5,-291.5 872.5,-291.5"/>
<text text-anchor="middle" x="941" y="-298.5" font-family="serif" font-size="10.00">Solvers/SolverBase.hpp</text>
</a>
</g>
</g>
<!-- Node1&#45;&gt;Node38 -->
<g id="edge78" class="edge">
<title>Node1&#45;&gt;Node38</title>
<path fill="none" stroke="midnightblue" d="M981.07,-347.08C974.15,-339.3 963.93,-327.8 955.55,-318.37"/>
<polygon fill="midnightblue" stroke="midnightblue" points="958.04,-315.9 948.78,-310.75 952.81,-320.55 958.04,-315.9"/>
</g>
<!-- Node5 -->
<g id="node5" class="node">
<title>Node5</title>
<g id="a_node5"><a xlink:href="AnalyticalFunctionOptions_8hpp.html" target="_top" xlink:title="Options for Analytical functions.">
<polygon fill="none" stroke="black" points="1097.5,-168.5 1097.5,-198.5 1252.5,-198.5 1252.5,-168.5 1097.5,-168.5"/>
<text text-anchor="start" x="1105.5" y="-186.5" font-family="serif" font-size="10.00">Options/AnalyticalFunction</text>
<text text-anchor="middle" x="1175" y="-175.5" font-family="serif" font-size="10.00">Options.hpp</text>
</a>
</g>
</g>
<!-- Node4&#45;&gt;Node5 -->
<g id="edge4" class="edge">
<title>Node4&#45;&gt;Node5</title>
<path fill="none" stroke="midnightblue" d="M1016.51,-235.48C1043.79,-226.7 1087.05,-212.79 1121.48,-201.71"/>
<polygon fill="midnightblue" stroke="midnightblue" points="1122.95,-204.92 1131.4,-198.52 1120.81,-198.25 1122.95,-204.92"/>
</g>
<!-- Node4&#45;&gt;Node6 -->
<g id="edge77" class="edge">
<title>Node4&#45;&gt;Node6</title>
<path fill="none" stroke="midnightblue" d="M928.75,-243.27C853.75,-240.94 733.19,-231.99 705,-199 696.05,-188.53 696.4,-178.77 705,-168 714.03,-156.69 793,-141.36 848.44,-131.83"/>
<polygon fill="midnightblue" stroke="midnightblue" points="849.22,-135.25 858.49,-130.12 848.05,-128.35 849.22,-135.25"/>
</g>
<!-- Node29 -->
<g id="node29" class="node">
<title>Node29</title>
<g id="a_node29"><a xlink:href="CalphadOptions_8hpp.html" target="_top" xlink:title="Options for Calphad problems.">
<polygon fill="none" stroke="black" points="104.5,-174 104.5,-193 269.5,-193 269.5,-174 104.5,-174"/>
<text text-anchor="middle" x="187" y="-181" font-family="serif" font-size="10.00">Options/CalphadOptions.hpp</text>
</a>
</g>
</g>
<!-- Node4&#45;&gt;Node29 -->
<g id="edge52" class="edge">
<title>Node4&#45;&gt;Node29</title>
<path fill="none" stroke="midnightblue" d="M928.69,-240.81C810.31,-234.46 542.11,-219.07 317,-199 301.17,-197.59 284.28,-195.87 268.1,-194.11"/>
<polygon fill="midnightblue" stroke="midnightblue" points="268.45,-190.62 258.12,-193.01 267.68,-197.58 268.45,-190.62"/>
</g>
<!-- Node30 -->
<g id="node30" class="node">
<title>Node30</title>
<g id="a_node30"><a xlink:href="DiffusionOptions_8hpp.html" target="_top" xlink:title="Option for Mass Diffusion problems.">
<polygon fill="none" stroke="black" points="714,-174 714,-193 882,-193 882,-174 714,-174"/>
<text text-anchor="middle" x="798" y="-181" font-family="serif" font-size="10.00">Options/DiffusionOptions.hpp</text>
</a>
</g>
</g>
<!-- Node4&#45;&gt;Node30 -->
<g id="edge57" class="edge">
<title>Node4&#45;&gt;Node30</title>
<path fill="none" stroke="midnightblue" d="M962.49,-235.48C929.13,-225.14 872.74,-207.66 835.44,-196.1"/>
<polygon fill="midnightblue" stroke="midnightblue" points="836.05,-192.63 825.46,-193.01 833.97,-199.31 836.05,-192.63"/>
</g>
<!-- Node31 -->
<g id="node31" class="node">
<title>Node31</title>
<g id="a_node31"><a xlink:href="PhaseFieldOptions_8hpp.html" target="_top" xlink:title="Options for PhaseField problems.">
<polygon fill="none" stroke="black" points="900.5,-174 900.5,-193 1079.5,-193 1079.5,-174 900.5,-174"/>
<text text-anchor="middle" x="990" y="-181" font-family="serif" font-size="10.00">Options/PhaseFieldOptions.hpp</text>
</a>
</g>
</g>
<!-- Node4&#45;&gt;Node31 -->
<g id="edge59" class="edge">
<title>Node4&#45;&gt;Node31</title>
<path fill="none" stroke="midnightblue" d="M990,-235.48C990,-227.08 990,-213.98 990,-203.16"/>
<polygon fill="midnightblue" stroke="midnightblue" points="993.5,-203.01 990,-193.01 986.5,-203.01 993.5,-203.01"/>
</g>
<!-- Node32 -->
<g id="node32" class="node">
<title>Node32</title>
<g id="a_node32"><a xlink:href="PhysicalConvergenceOptions_8hpp.html" target="_top" xlink:title="Options for PhysicalConvergence objects.">
<polygon fill="none" stroke="black" points="1270.5,-168.5 1270.5,-198.5 1439.5,-198.5 1439.5,-168.5 1270.5,-168.5"/>
<text text-anchor="start" x="1278.5" y="-186.5" font-family="serif" font-size="10.00">Options/PhysicalConvergence</text>
<text text-anchor="middle" x="1355" y="-175.5" font-family="serif" font-size="10.00">Options.hpp</text>
</a>
</g>
</g>
<!-- Node4&#45;&gt;Node32 -->
<g id="edge61" class="edge">
<title>Node4&#45;&gt;Node32</title>
<path fill="none" stroke="midnightblue" d="M1042.3,-235.48C1099.04,-226.23 1190.81,-211.26 1260.3,-199.94"/>
<polygon fill="midnightblue" stroke="midnightblue" points="1261.07,-203.36 1270.38,-198.29 1259.95,-196.45 1261.07,-203.36"/>
</g>
<!-- Node33 -->
<g id="node33" class="node">
<title>Node33</title>
<g id="a_node33"><a xlink:href="PhysicalPropertiesOptions_8hpp.html" target="_top" xlink:title="Options for physical properties.">
<polygon fill="none" stroke="black" points="326,-168.5 326,-198.5 480,-198.5 480,-168.5 326,-168.5"/>
<text text-anchor="start" x="334" y="-186.5" font-family="serif" font-size="10.00">Options/PhysicalProperties</text>
<text text-anchor="middle" x="403" y="-175.5" font-family="serif" font-size="10.00">Options.hpp</text>
</a>
</g>
</g>
<!-- Node4&#45;&gt;Node33 -->
<g id="edge64" class="edge">
<title>Node4&#45;&gt;Node33</title>
<path fill="none" stroke="midnightblue" d="M928.91,-240.04C836.32,-233.71 654.71,-219.97 490.6,-199.14"/>
<polygon fill="midnightblue" stroke="midnightblue" points="490.68,-195.62 480.31,-197.83 489.79,-202.57 490.68,-195.62"/>
</g>
<!-- Node34 -->
<g id="node34" class="node">
<title>Node34</title>
<g id="a_node34"><a xlink:href="ProblemsOptions_8hpp.html" target="_top" xlink:title="Options for Problem objects.">
<polygon fill="none" stroke="black" points="1458,-174 1458,-193 1628,-193 1628,-174 1458,-174"/>
<text text-anchor="middle" x="1543" y="-181" font-family="serif" font-size="10.00">Options/ProblemsOptions.hpp</text>
</a>
</g>
</g>
<!-- Node4&#45;&gt;Node34 -->
<g id="edge66" class="edge">
<title>Node4&#45;&gt;Node34</title>
<path fill="none" stroke="midnightblue" d="M1051,-239.1C1139.05,-231.78 1306.8,-216.92 1449,-199 1459.3,-197.7 1470.22,-196.17 1480.82,-194.59"/>
<polygon fill="midnightblue" stroke="midnightblue" points="1481.5,-198.02 1490.87,-193.07 1480.45,-191.1 1481.5,-198.02"/>
</g>
<!-- Node35 -->
<g id="node35" class="node">
<title>Node35</title>
<g id="a_node35"><a xlink:href="SolversOptions_8hpp.html" target="_top" xlink:title="Options for solvers and preconditioners.">
<polygon fill="none" stroke="black" points="498,-174 498,-193 658,-193 658,-174 498,-174"/>
<text text-anchor="middle" x="578" y="-181" font-family="serif" font-size="10.00">Options/SolversOptions.hpp</text>
</a>
</g>
</g>
<!-- Node4&#45;&gt;Node35 -->
<g id="edge69" class="edge">
<title>Node4&#45;&gt;Node35</title>
<path fill="none" stroke="midnightblue" d="M928.71,-235.56C864.65,-226.68 761.22,-212.19 672,-199 662.54,-197.6 652.56,-196.09 642.76,-194.6"/>
<polygon fill="midnightblue" stroke="midnightblue" points="643.07,-191.11 632.66,-193.05 642.01,-198.02 643.07,-191.11"/>
</g>
<!-- Node36 -->
<g id="node36" class="node">
<title>Node36</title>
<g id="a_node36"><a xlink:href="SpatialOptions_8hpp.html" target="_top" xlink:title="Options for Spatial discretization.">
<polygon fill="none" stroke="black" points="1646,-174 1646,-193 1804,-193 1804,-174 1646,-174"/>
<text text-anchor="middle" x="1725" y="-181" font-family="serif" font-size="10.00">Options/SpatialOptions.hpp</text>
</a>
</g>
</g>
<!-- Node4&#45;&gt;Node36 -->
<g id="edge71" class="edge">
<title>Node4&#45;&gt;Node36</title>
<path fill="none" stroke="midnightblue" d="M1051.28,-241.66C1166.37,-236.83 1422.55,-224.07 1637,-199 1647.03,-197.83 1657.67,-196.31 1667.95,-194.7"/>
<polygon fill="midnightblue" stroke="midnightblue" points="1668.76,-198.12 1678.08,-193.07 1667.65,-191.2 1668.76,-198.12"/>
</g>
<!-- Node37 -->
<g id="node37" class="node">
<title>Node37</title>
<g id="a_node37"><a xlink:href="TimeOptions_8hpp.html" target="_top" xlink:title="Options for Time discretization.">
<polygon fill="none" stroke="black" points="1822,-174 1822,-193 1970,-193 1970,-174 1822,-174"/>
<text text-anchor="middle" x="1896" y="-181" font-family="serif" font-size="10.00">Options/TimeOptions.hpp</text>
</a>
</g>
</g>
<!-- Node4&#45;&gt;Node37 -->
<g id="edge74" class="edge">
<title>Node4&#45;&gt;Node37</title>
<path fill="none" stroke="midnightblue" d="M1051.12,-243.13C1187.99,-240.64 1529.37,-231.41 1813,-199 1822.6,-197.9 1832.77,-196.41 1842.58,-194.79"/>
<polygon fill="midnightblue" stroke="midnightblue" points="1843.37,-198.21 1852.63,-193.07 1842.19,-191.31 1843.37,-198.21"/>
</g>
<!-- Node5&#45;&gt;Node3 -->
<g id="edge5" class="edge">
<title>Node5&#45;&gt;Node3</title>
<path fill="none" stroke="midnightblue" d="M1197.34,-168.47C1248.65,-136.23 1374.44,-57.21 1425.7,-25.01"/>
<polygon fill="midnightblue" stroke="midnightblue" points="1427.77,-27.84 1434.37,-19.56 1424.04,-21.92 1427.77,-27.84"/>
</g>
<!-- Node5&#45;&gt;Node6 -->
<g id="edge6" class="edge">
<title>Node5&#45;&gt;Node6</title>
<path fill="none" stroke="midnightblue" d="M1110.88,-168.47C1062.22,-157.83 996.32,-143.41 951.86,-133.69"/>
<polygon fill="midnightblue" stroke="midnightblue" points="952.4,-130.22 941.89,-131.51 950.91,-137.06 952.4,-130.22"/>
</g>
<!-- Node7 -->
<g id="node7" class="node">
<title>Node7</title>
<g id="a_node7"><a xlink:href="UtilsForData_8hpp.html" target="_top" xlink:title="Usefull methods for data.">
<polygon fill="none" stroke="black" points="837.5,-56.5 837.5,-75.5 968.5,-75.5 968.5,-56.5 837.5,-56.5"/>
<text text-anchor="middle" x="903" y="-63.5" font-family="serif" font-size="10.00">Utils/UtilsForData.hpp</text>
</a>
</g>
</g>
<!-- Node6&#45;&gt;Node7 -->
<g id="edge7" class="edge">
<title>Node6&#45;&gt;Node7</title>
<path fill="none" stroke="midnightblue" d="M903,-112.08C903,-105.01 903,-94.86 903,-85.99"/>
<polygon fill="midnightblue" stroke="midnightblue" points="906.5,-85.75 903,-75.75 899.5,-85.75 906.5,-85.75"/>
</g>
<!-- Node20 -->
<g id="node20" class="node">
<title>Node20</title>
<g id="a_node20"><a xlink:href="UtilsForDebug_8hpp.html" target="_top" xlink:title="Usefull methods for debug.">
<polygon fill="none" stroke="black" points="986.5,-56.5 986.5,-75.5 1127.5,-75.5 1127.5,-56.5 986.5,-56.5"/>
<text text-anchor="middle" x="1057" y="-63.5" font-family="serif" font-size="10.00">Utils/UtilsForDebug.hpp</text>
</a>
</g>
</g>
<!-- Node6&#45;&gt;Node20 -->
<g id="edge21" class="edge">
<title>Node6&#45;&gt;Node20</title>
<path fill="none" stroke="midnightblue" d="M927.4,-112.44C953.2,-103.4 994.08,-89.06 1023.02,-78.92"/>
<polygon fill="midnightblue" stroke="midnightblue" points="1024.43,-82.13 1032.71,-75.52 1022.12,-75.52 1024.43,-82.13"/>
</g>
<!-- Node23 -->
<g id="node23" class="node">
<title>Node23</title>
<g id="a_node23"><a xlink:href="UtilsForOptions_8hpp.html" target="_top" xlink:title="Usefull methods for Options.">
<polygon fill="none" stroke="black" points="472,-56.5 472,-75.5 618,-75.5 618,-56.5 472,-56.5"/>
<text text-anchor="middle" x="545" y="-63.5" font-family="serif" font-size="10.00">Utils/UtilsForOptions.hpp</text>
</a>
</g>
</g>
<!-- Node6&#45;&gt;Node23 -->
<g id="edge31" class="edge">
<title>Node6&#45;&gt;Node23</title>
<path fill="none" stroke="midnightblue" d="M858.38,-114.27C796.39,-104.92 683.72,-87.92 611.72,-77.06"/>
<polygon fill="midnightblue" stroke="midnightblue" points="611.81,-73.54 601.4,-75.51 610.76,-80.46 611.81,-73.54"/>
</g>
<!-- Node26 -->
<g id="node26" class="node">
<title>Node26</title>
<g id="a_node26"><a xlink:href="UtilsForPostProcessing_8hpp.html" target="_top" xlink:title="Usefull methods for post&#45;processing.">
<polygon fill="none" stroke="black" points="636.5,-56.5 636.5,-75.5 819.5,-75.5 819.5,-56.5 636.5,-56.5"/>
<text text-anchor="middle" x="728" y="-63.5" font-family="serif" font-size="10.00">Utils/UtilsForPostProcessing.hpp</text>
</a>
</g>
</g>
<!-- Node6&#45;&gt;Node26 -->
<g id="edge41" class="edge">
<title>Node6&#45;&gt;Node26</title>
<path fill="none" stroke="midnightblue" d="M875.27,-112.44C845.57,-103.28 798.28,-88.69 765.33,-78.52"/>
<polygon fill="midnightblue" stroke="midnightblue" points="766.19,-75.12 755.6,-75.52 764.12,-81.81 766.19,-75.12"/>
</g>
<!-- Node27 -->
<g id="node27" class="node">
<title>Node27</title>
<g id="a_node27"><a xlink:href="UtilsForVariants_8hpp.html" target="_top" xlink:title="manage std::Variants">
<polygon fill="none" stroke="black" points="205,-56.5 205,-75.5 353,-75.5 353,-56.5 205,-56.5"/>
<text text-anchor="middle" x="279" y="-63.5" font-family="serif" font-size="10.00">Utils/UtilsForVariants.hpp</text>
</a>
</g>
</g>
<!-- Node6&#45;&gt;Node27 -->
<g id="edge48" class="edge">
<title>Node6&#45;&gt;Node27</title>
<path fill="none" stroke="midnightblue" d="M858.12,-117.12C754.56,-108.15 497.51,-85.91 363.42,-74.31"/>
<polygon fill="midnightblue" stroke="midnightblue" points="363.46,-70.8 353.2,-73.42 362.86,-77.77 363.46,-70.8"/>
</g>
<!-- Node7&#45;&gt;Node3 -->
<g id="edge16" class="edge">
<title>Node7&#45;&gt;Node3</title>
<path fill="none" stroke="midnightblue" d="M968.83,-56.96C971.93,-56.63 975,-56.3 978,-56 1168.67,-36.71 1221.33,-53.21 1414.42,-19.75"/>
<polygon fill="midnightblue" stroke="midnightblue" points="1415.08,-23.19 1424.33,-18.02 1413.87,-16.3 1415.08,-23.19"/>
</g>
<!-- Node8 -->
<g id="node8" class="node">
<title>Node8</title>
<g id="a_node8"><a xlink:title=" ">
<polygon fill="none" stroke="#bfbfbf" points="1164.5,-0.5 1164.5,-19.5 1223.5,-19.5 1223.5,-0.5 1164.5,-0.5"/>
<text text-anchor="middle" x="1194" y="-7.5" font-family="serif" font-size="10.00">unistd.h</text>
</a>
</g>
</g>
<!-- Node7&#45;&gt;Node8 -->
<g id="edge8" class="edge">
<title>Node7&#45;&gt;Node8</title>
<path fill="none" stroke="midnightblue" d="M955.98,-56.47C1005.08,-48.37 1080.38,-35.43 1154.23,-20.29"/>
<polygon fill="midnightblue" stroke="midnightblue" points="1155.08,-23.69 1164.16,-18.23 1153.66,-16.83 1155.08,-23.69"/>
</g>
<!-- Node9 -->
<g id="node9" class="node">
<title>Node9</title>
<g id="a_node9"><a xlink:title=" ">
<polygon fill="none" stroke="#bfbfbf" points="801,-0.5 801,-19.5 851,-19.5 851,-0.5 801,-0.5"/>
<text text-anchor="middle" x="826" y="-7.5" font-family="serif" font-size="10.00">cctype</text>
</a>
</g>
</g>
<!-- Node7&#45;&gt;Node9 -->
<g id="edge9" class="edge">
<title>Node7&#45;&gt;Node9</title>
<path fill="none" stroke="midnightblue" d="M890.63,-56.32C878.84,-48.06 860.87,-35.45 846.86,-25.63"/>
<polygon fill="midnightblue" stroke="midnightblue" points="848.54,-22.53 838.34,-19.65 844.52,-28.26 848.54,-22.53"/>
</g>
<!-- Node10 -->
<g id="node10" class="node">
<title>Node10</title>
<g id="a_node10"><a xlink:title=" ">
<polygon fill="none" stroke="#bfbfbf" points="1099.5,-0.5 1099.5,-19.5 1146.5,-19.5 1146.5,-0.5 1099.5,-0.5"/>
<text text-anchor="middle" x="1123" y="-7.5" font-family="serif" font-size="10.00">cstdio</text>
</a>
</g>
</g>
<!-- Node7&#45;&gt;Node10 -->
<g id="edge10" class="edge">
<title>Node7&#45;&gt;Node10</title>
<path fill="none" stroke="midnightblue" d="M939.98,-56.45C975.7,-48.11 1031.56,-34.87 1089.21,-20.14"/>
<polygon fill="midnightblue" stroke="midnightblue" points="1090.41,-23.45 1099.23,-17.57 1088.67,-16.67 1090.41,-23.45"/>
</g>
<!-- Node11 -->
<g id="node11" class="node">
<title>Node11</title>
<g id="a_node11"><a xlink:title=" ">
<polygon fill="none" stroke="#bfbfbf" points="573,-0.5 573,-19.5 639,-19.5 639,-0.5 573,-0.5"/>
<text text-anchor="middle" x="606" y="-7.5" font-family="serif" font-size="10.00">algorithm</text>
</a>
</g>
</g>
<!-- Node7&#45;&gt;Node11 -->
<g id="edge11" class="edge">
<title>Node7&#45;&gt;Node11</title>
<path fill="none" stroke="midnightblue" d="M852.31,-56.5C803.09,-48.13 726,-34.75 649.17,-19.98"/>
<polygon fill="midnightblue" stroke="midnightblue" points="649.8,-16.54 639.31,-18.08 648.47,-23.41 649.8,-16.54"/>
</g>
<!-- Node12 -->
<g id="node12" class="node">
<title>Node12</title>
<g id="a_node12"><a xlink:title=" ">
<polygon fill="none" stroke="#bfbfbf" points="869,-0.5 869,-19.5 937,-19.5 937,-0.5 869,-0.5"/>
<text text-anchor="middle" x="903" y="-7.5" font-family="serif" font-size="10.00">filesystem</text>
</a>
</g>
</g>
<!-- Node7&#45;&gt;Node12 -->
<g id="edge12" class="edge">
<title>Node7&#45;&gt;Node12</title>
<path fill="none" stroke="midnightblue" d="M903,-56.08C903,-49.01 903,-38.86 903,-29.99"/>
<polygon fill="midnightblue" stroke="midnightblue" points="906.5,-29.75 903,-19.75 899.5,-29.75 906.5,-29.75"/>
</g>
<!-- Node13 -->
<g id="node13" class="node">
<title>Node13</title>
<g id="a_node13"><a xlink:title=" ">
<polygon fill="none" stroke="#bfbfbf" points="1013,-0.5 1013,-19.5 1081,-19.5 1081,-0.5 1013,-0.5"/>
<text text-anchor="middle" x="1047" y="-7.5" font-family="serif" font-size="10.00">functional</text>
</a>
</g>
</g>
<!-- Node7&#45;&gt;Node13 -->
<g id="edge13" class="edge">
<title>Node7&#45;&gt;Node13</title>
<path fill="none" stroke="midnightblue" d="M925.82,-56.44C949.83,-47.44 987.83,-33.19 1014.87,-23.05"/>
<polygon fill="midnightblue" stroke="midnightblue" points="1016.16,-26.3 1024.29,-19.52 1013.7,-19.75 1016.16,-26.3"/>
</g>
<!-- Node14 -->
<g id="node14" class="node">
<title>Node14</title>
<g id="a_node14"><a xlink:title=" ">
<polygon fill="none" stroke="#bfbfbf" points="657.5,-0.5 657.5,-19.5 718.5,-19.5 718.5,-0.5 657.5,-0.5"/>
<text text-anchor="middle" x="688" y="-7.5" font-family="serif" font-size="10.00">iostream</text>
</a>
</g>
</g>
<!-- Node7&#45;&gt;Node14 -->
<g id="edge14" class="edge">
<title>Node7&#45;&gt;Node14</title>
<path fill="none" stroke="midnightblue" d="M868.93,-56.44C830.84,-46.88 769.17,-31.39 728.61,-21.2"/>
<polygon fill="midnightblue" stroke="midnightblue" points="729.32,-17.77 718.77,-18.73 727.62,-24.56 729.32,-17.77"/>
</g>
<!-- Node15 -->
<g id="node15" class="node">
<title>Node15</title>
<g id="a_node15"><a xlink:title=" ">
<polygon fill="none" stroke="#bfbfbf" points="955.5,-0.5 955.5,-19.5 994.5,-19.5 994.5,-0.5 955.5,-0.5"/>
<text text-anchor="middle" x="975" y="-7.5" font-family="serif" font-size="10.00">map</text>
</a>
</g>
</g>
<!-- Node7&#45;&gt;Node15 -->
<g id="edge15" class="edge">
<title>Node7&#45;&gt;Node15</title>
<path fill="none" stroke="midnightblue" d="M914.57,-56.32C925.42,-48.18 941.88,-35.84 954.88,-26.09"/>
<polygon fill="midnightblue" stroke="midnightblue" points="957.32,-28.63 963.22,-19.83 953.12,-23.03 957.32,-28.63"/>
</g>
<!-- Node16 -->
<g id="node16" class="node">
<title>Node16</title>
<g id="a_node16"><a xlink:title=" ">
<polygon fill="none" stroke="#bfbfbf" points="511.5,-0.5 511.5,-19.5 554.5,-19.5 554.5,-0.5 511.5,-0.5"/>
<text text-anchor="middle" x="533" y="-7.5" font-family="serif" font-size="10.00">tuple</text>
</a>
</g>
</g>
<!-- Node7&#45;&gt;Node16 -->
<g id="edge17" class="edge">
<title>Node7&#45;&gt;Node16</title>
<path fill="none" stroke="midnightblue" d="M837.26,-56.82C753,-46.25 612.9,-28.39 564.4,-19.64"/>
<polygon fill="midnightblue" stroke="midnightblue" points="565.06,-16.2 554.58,-17.71 563.72,-23.07 565.06,-16.2"/>
</g>
<!-- Node17 -->
<g id="node17" class="node">
<title>Node17</title>
<g id="a_node17"><a xlink:title=" ">
<polygon fill="none" stroke="#bfbfbf" points="737,-0.5 737,-19.5 783,-19.5 783,-0.5 737,-0.5"/>
<text text-anchor="middle" x="760" y="-7.5" font-family="serif" font-size="10.00">utility</text>
</a>
</g>
</g>
<!-- Node7&#45;&gt;Node17 -->
<g id="edge18" class="edge">
<title>Node7&#45;&gt;Node17</title>
<path fill="none" stroke="midnightblue" d="M880.34,-56.44C856.6,-47.48 819.09,-33.31 792.26,-23.18"/>
<polygon fill="midnightblue" stroke="midnightblue" points="793.14,-19.77 782.55,-19.52 790.67,-26.32 793.14,-19.77"/>
</g>
<!-- Node18 -->
<g id="node18" class="node">
<title>Node18</title>
<g id="a_node18"><a xlink:title=" ">
<polygon fill="none" stroke="#bfbfbf" points="445,-0.5 445,-19.5 493,-19.5 493,-0.5 445,-0.5"/>
<text text-anchor="middle" x="469" y="-7.5" font-family="serif" font-size="10.00">vector</text>
</a>
</g>
</g>
<!-- Node7&#45;&gt;Node18 -->
<g id="edge19" class="edge">
<title>Node7&#45;&gt;Node18</title>
<path fill="none" stroke="midnightblue" d="M837.24,-56.96C834.45,-56.64 831.7,-56.31 829,-56 684.2,-39.2 646.3,-46.72 503,-20 502.9,-19.98 502.8,-19.96 502.7,-19.94"/>
<polygon fill="midnightblue" stroke="midnightblue" points="503.56,-16.55 493.05,-17.84 502.07,-23.39 503.56,-16.55"/>
</g>
<!-- Node7&#45;&gt;Node19 -->
<g id="edge20" class="edge">
<title>Node7&#45;&gt;Node19</title>
<path fill="none" stroke="midnightblue" d="M968.83,-56.86C971.92,-56.55 975,-56.26 978,-56 1273.36,-30.21 1629.87,-16.65 1753.89,-12.45"/>
<polygon fill="midnightblue" stroke="midnightblue" points="1754.26,-15.94 1764.13,-12.1 1754.02,-8.94 1754.26,-15.94"/>
</g>
<!-- Node20&#45;&gt;Node3 -->
<g id="edge28" class="edge">
<title>Node20&#45;&gt;Node3</title>
<path fill="none" stroke="midnightblue" d="M1127.59,-57.33C1211.31,-48.02 1346.96,-32.28 1414.13,-19.86"/>
<polygon fill="midnightblue" stroke="midnightblue" points="1415.15,-23.23 1424.3,-17.89 1413.82,-16.35 1415.15,-23.23"/>
</g>
<!-- Node20&#45;&gt;Node8 -->
<g id="edge23" class="edge">
<title>Node20&#45;&gt;Node8</title>
<path fill="none" stroke="midnightblue" d="M1078.71,-56.44C1101.35,-47.52 1137.07,-33.44 1162.75,-23.32"/>
<polygon fill="midnightblue" stroke="midnightblue" points="1164.37,-26.44 1172.39,-19.52 1161.81,-19.93 1164.37,-26.44"/>
</g>
<!-- Node20&#45;&gt;Node10 -->
<g id="edge24" class="edge">
<title>Node20&#45;&gt;Node10</title>
<path fill="none" stroke="midnightblue" d="M1067.6,-56.32C1077.46,-48.26 1092.35,-36.08 1104.22,-26.37"/>
<polygon fill="midnightblue" stroke="midnightblue" points="1106.68,-28.88 1112.2,-19.83 1102.25,-23.46 1106.68,-28.88"/>
</g>
<!-- Node20&#45;&gt;Node13 -->
<g id="edge26" class="edge">
<title>Node20&#45;&gt;Node13</title>
<path fill="none" stroke="midnightblue" d="M1055.35,-56.08C1054.02,-48.93 1052.12,-38.64 1050.46,-29.69"/>
<polygon fill="midnightblue" stroke="midnightblue" points="1053.88,-28.95 1048.62,-19.75 1047,-30.22 1053.88,-28.95"/>
</g>
<!-- Node20&#45;&gt;Node14 -->
<g id="edge27" class="edge">
<title>Node20&#45;&gt;Node14</title>
<path fill="none" stroke="midnightblue" d="M989.74,-56.49C912.98,-46.66 791.05,-30.68 728.72,-19.96"/>
<polygon fill="midnightblue" stroke="midnightblue" points="728.98,-16.45 718.52,-18.15 727.76,-23.34 728.98,-16.45"/>
</g>
<!-- Node20&#45;&gt;Node17 -->
<g id="edge29" class="edge">
<title>Node20&#45;&gt;Node17</title>
<path fill="none" stroke="midnightblue" d="M995.86,-56.5C944.23,-48.89 868.19,-36.69 793.41,-20.13"/>
<polygon fill="midnightblue" stroke="midnightblue" points="793.87,-16.65 783.35,-17.87 792.34,-23.48 793.87,-16.65"/>
</g>
<!-- Node20&#45;&gt;Node19 -->
<g id="edge30" class="edge">
<title>Node20&#45;&gt;Node19</title>
<path fill="none" stroke="midnightblue" d="M1127.81,-59.85C1278.99,-48.84 1629.65,-23.32 1754.16,-14.26"/>
<polygon fill="midnightblue" stroke="midnightblue" points="1754.74,-17.73 1764.45,-13.51 1754.23,-10.75 1754.74,-17.73"/>
</g>
<!-- Node21 -->
<g id="node21" class="node">
<title>Node21</title>
<g id="a_node21"><a xlink:title=" ">
<polygon fill="none" stroke="#bfbfbf" points="1242,-0.5 1242,-19.5 1332,-19.5 1332,-0.5 1242,-0.5"/>
<text text-anchor="middle" x="1287" y="-7.5" font-family="serif" font-size="10.00">sys/resource.h</text>
</a>
</g>
</g>
<!-- Node20&#45;&gt;Node21 -->
<g id="edge22" class="edge">
<title>Node20&#45;&gt;Node21</title>
<path fill="none" stroke="midnightblue" d="M1093.44,-56.44C1133.4,-47.06 1197.59,-31.99 1240.98,-21.8"/>
<polygon fill="midnightblue" stroke="midnightblue" points="1241.79,-25.21 1250.73,-19.52 1240.19,-18.39 1241.79,-25.21"/>
</g>
<!-- Node22 -->
<g id="node22" class="node">
<title>Node22</title>
<g id="a_node22"><a xlink:title=" ">
<polygon fill="none" stroke="#bfbfbf" points="1350,-0.5 1350,-19.5 1406,-19.5 1406,-0.5 1350,-0.5"/>
<text text-anchor="middle" x="1378" y="-7.5" font-family="serif" font-size="10.00">fstream</text>
</a>
</g>
</g>
<!-- Node20&#45;&gt;Node22 -->
<g id="edge25" class="edge">
<title>Node20&#45;&gt;Node22</title>
<path fill="none" stroke="midnightblue" d="M1120.15,-56.5C1175.62,-48.69 1258.7,-36.16 1339.88,-20.09"/>
<polygon fill="midnightblue" stroke="midnightblue" points="1340.65,-23.51 1349.77,-18.12 1339.28,-16.65 1340.65,-23.51"/>
</g>
<!-- Node23&#45;&gt;Node3 -->
<g id="edge36" class="edge">
<title>Node23&#45;&gt;Node3</title>
<path fill="none" stroke="midnightblue" d="M618.3,-56.8C621.57,-56.51 624.82,-56.24 628,-56 973.79,-29.37 1067.33,-73.54 1414.27,-19.7"/>
<polygon fill="midnightblue" stroke="midnightblue" points="1415.01,-23.13 1424.34,-18.12 1413.92,-16.21 1415.01,-23.13"/>
</g>
<!-- Node23&#45;&gt;Node11 -->
<g id="edge32" class="edge">
<title>Node23&#45;&gt;Node11</title>
<path fill="none" stroke="midnightblue" d="M554.8,-56.32C563.82,-48.34 577.41,-36.31 588.32,-26.65"/>
<polygon fill="midnightblue" stroke="midnightblue" points="590.85,-29.08 596.02,-19.83 586.21,-23.84 590.85,-29.08"/>
</g>
<!-- Node23&#45;&gt;Node13 -->
<g id="edge33" class="edge">
<title>Node23&#45;&gt;Node13</title>
<path fill="none" stroke="midnightblue" d="M618.32,-57C621.59,-56.66 624.83,-56.32 628,-56 791.75,-39.28 836.3,-45 1002.7,-20.04"/>
<polygon fill="midnightblue" stroke="midnightblue" points="1003.43,-23.47 1012.79,-18.52 1002.38,-16.55 1003.43,-23.47"/>
</g>
<!-- Node23&#45;&gt;Node14 -->
<g id="edge34" class="edge">
<title>Node23&#45;&gt;Node14</title>
<path fill="none" stroke="midnightblue" d="M567.66,-56.44C591.4,-47.48 628.91,-33.31 655.74,-23.18"/>
<polygon fill="midnightblue" stroke="midnightblue" points="657.33,-26.32 665.45,-19.52 654.86,-19.77 657.33,-26.32"/>
</g>
<!-- Node23&#45;&gt;Node16 -->
<g id="edge37" class="edge">
<title>Node23&#45;&gt;Node16</title>
<path fill="none" stroke="midnightblue" d="M543.02,-56.08C541.43,-48.93 539.14,-38.64 537.15,-29.69"/>
<polygon fill="midnightblue" stroke="midnightblue" points="540.53,-28.75 534.94,-19.75 533.7,-30.27 540.53,-28.75"/>
</g>
<!-- Node23&#45;&gt;Node17 -->
<g id="edge38" class="edge">
<title>Node23&#45;&gt;Node17</title>
<path fill="none" stroke="midnightblue" d="M581.2,-56.47C616.16,-48.15 670.83,-34.93 727.16,-20.16"/>
<polygon fill="midnightblue" stroke="midnightblue" points="728.17,-23.51 736.95,-17.58 726.39,-16.74 728.17,-23.51"/>
</g>
<!-- Node23&#45;&gt;Node18 -->
<g id="edge40" class="edge">
<title>Node23&#45;&gt;Node18</title>
<path fill="none" stroke="midnightblue" d="M532.79,-56.32C521.22,-48.11 503.62,-35.6 489.84,-25.81"/>
<polygon fill="midnightblue" stroke="midnightblue" points="491.61,-22.77 481.43,-19.83 487.56,-28.48 491.61,-22.77"/>
</g>
<!-- Node24 -->
<g id="node24" class="node">
<title>Node24</title>
<g id="a_node24"><a xlink:title=" ">
<polygon fill="none" stroke="#bfbfbf" points="383,-0.5 383,-19.5 427,-19.5 427,-0.5 383,-0.5"/>
<text text-anchor="middle" x="405" y="-7.5" font-family="serif" font-size="10.00">limits</text>
</a>
</g>
</g>
<!-- Node23&#45;&gt;Node24 -->
<g id="edge35" class="edge">
<title>Node23&#45;&gt;Node24</title>
<path fill="none" stroke="midnightblue" d="M522.82,-56.44C499.57,-47.48 462.85,-33.31 436.58,-23.18"/>
<polygon fill="midnightblue" stroke="midnightblue" points="437.67,-19.85 427.08,-19.52 435.15,-26.38 437.67,-19.85"/>
</g>
<!-- Node25 -->
<g id="node25" class="node">
<title>Node25</title>
<g id="a_node25"><a xlink:title=" ">
<polygon fill="none" stroke="#bfbfbf" points="311.5,-0.5 311.5,-19.5 364.5,-19.5 364.5,-0.5 311.5,-0.5"/>
<text text-anchor="middle" x="338" y="-7.5" font-family="serif" font-size="10.00">variant</text>
</a>
</g>
</g>
<!-- Node23&#45;&gt;Node25 -->
<g id="edge39" class="edge">
<title>Node23&#45;&gt;Node25</title>
<path fill="none" stroke="midnightblue" d="M512.2,-56.44C474.74,-46.67 413.6,-30.72 374.61,-20.55"/>
<polygon fill="midnightblue" stroke="midnightblue" points="375.28,-17.11 364.72,-17.97 373.51,-23.88 375.28,-17.11"/>
</g>
<!-- Node26&#45;&gt;Node3 -->
<g id="edge45" class="edge">
<title>Node26&#45;&gt;Node3</title>
<path fill="none" stroke="midnightblue" d="M819.65,-56.72C822.8,-56.47 825.93,-56.23 829,-56 1085.9,-36.67 1155.79,-61.9 1414.27,-19.74"/>
<polygon fill="midnightblue" stroke="midnightblue" points="1415.04,-23.16 1424.34,-18.08 1413.9,-16.25 1415.04,-23.16"/>
</g>
<!-- Node26&#45;&gt;Node11 -->
<g id="edge42" class="edge">
<title>Node26&#45;&gt;Node11</title>
<path fill="none" stroke="midnightblue" d="M708.67,-56.44C688.68,-47.6 657.26,-33.69 634.44,-23.59"/>
<polygon fill="midnightblue" stroke="midnightblue" points="635.8,-20.36 625.24,-19.52 632.97,-26.76 635.8,-20.36"/>
</g>
<!-- Node26&#45;&gt;Node14 -->
<g id="edge43" class="edge">
<title>Node26&#45;&gt;Node14</title>
<path fill="none" stroke="midnightblue" d="M721.39,-56.08C715.74,-48.46 707.46,-37.26 700.55,-27.94"/>
<polygon fill="midnightblue" stroke="midnightblue" points="703.25,-25.7 694.48,-19.75 697.62,-29.87 703.25,-25.7"/>
</g>
<!-- Node26&#45;&gt;Node17 -->
<g id="edge46" class="edge">
<title>Node26&#45;&gt;Node17</title>
<path fill="none" stroke="midnightblue" d="M733.28,-56.08C737.71,-48.61 744.16,-37.72 749.62,-28.52"/>
<polygon fill="midnightblue" stroke="midnightblue" points="752.73,-30.14 754.81,-19.75 746.71,-26.57 752.73,-30.14"/>
</g>
<!-- Node26&#45;&gt;Node18 -->
<g id="edge47" class="edge">
<title>Node26&#45;&gt;Node18</title>
<path fill="none" stroke="midnightblue" d="M680.85,-56.44C635.2,-47.95 564.12,-34.19 503,-20 502.9,-19.98 502.8,-19.95 502.7,-19.93"/>
<polygon fill="midnightblue" stroke="midnightblue" points="503.65,-16.56 493.1,-17.58 501.98,-23.36 503.65,-16.56"/>
</g>
<!-- Node26&#45;&gt;Node24 -->
<g id="edge44" class="edge">
<title>Node26&#45;&gt;Node24</title>
<path fill="none" stroke="midnightblue" d="M655.52,-56.49C598.57,-49.19 517.13,-37.41 437.47,-20.09"/>
<polygon fill="midnightblue" stroke="midnightblue" points="437.78,-16.58 427.26,-17.84 436.27,-23.41 437.78,-16.58"/>
</g>
<!-- Node27&#45;&gt;Node2 -->
<g id="edge49" class="edge">
<title>Node27&#45;&gt;Node2</title>
<path fill="none" stroke="midnightblue" d="M246.83,-56.44C211.22,-46.97 153.8,-31.7 115.49,-21.5"/>
<polygon fill="midnightblue" stroke="midnightblue" points="116.27,-18.09 105.7,-18.9 114.47,-24.85 116.27,-18.09"/>
</g>
<!-- Node27&#45;&gt;Node25 -->
<g id="edge51" class="edge">
<title>Node27&#45;&gt;Node25</title>
<path fill="none" stroke="midnightblue" d="M288.48,-56.32C297.2,-48.34 310.34,-36.31 320.9,-26.65"/>
<polygon fill="midnightblue" stroke="midnightblue" points="323.33,-29.17 328.35,-19.83 318.61,-24 323.33,-29.17"/>
</g>
<!-- Node28 -->
<g id="node28" class="node">
<title>Node28</title>
<g id="a_node28"><a xlink:title=" ">
<polygon fill="none" stroke="#bfbfbf" points="222.5,-0.5 222.5,-19.5 293.5,-19.5 293.5,-0.5 222.5,-0.5"/>
<text text-anchor="middle" x="258" y="-7.5" font-family="serif" font-size="10.00">type_traits</text>
</a>
</g>
</g>
<!-- Node27&#45;&gt;Node28 -->
<g id="edge50" class="edge">
<title>Node27&#45;&gt;Node28</title>
<path fill="none" stroke="midnightblue" d="M275.53,-56.08C272.69,-48.77 268.57,-38.18 265.04,-29.1"/>
<polygon fill="midnightblue" stroke="midnightblue" points="268.29,-27.8 261.4,-19.75 261.77,-30.34 268.29,-27.8"/>
</g>
<!-- Node29&#45;&gt;Node3 -->
<g id="edge54" class="edge">
<title>Node29&#45;&gt;Node3</title>
<path fill="none" stroke="midnightblue" d="M255.89,-173.98C272.31,-171.98 289.77,-169.89 306,-168 490.55,-146.54 953.42,-104.59 1137,-76 1258.37,-57.09 1290.73,-49.43 1414.4,-20.02"/>
<polygon fill="midnightblue" stroke="midnightblue" points="1415.34,-23.4 1424.26,-17.68 1413.72,-16.59 1415.34,-23.4"/>
</g>
<!-- Node29&#45;&gt;Node6 -->
<g id="edge56" class="edge">
<title>Node29&#45;&gt;Node6</title>
<path fill="none" stroke="midnightblue" d="M238.5,-173.98C253.17,-171.77 269.19,-169.58 284,-168 532,-141.54 596.04,-158.83 844,-132 845.3,-131.86 846.62,-131.71 847.95,-131.55"/>
<polygon fill="midnightblue" stroke="midnightblue" points="848.8,-134.97 858.28,-130.24 847.91,-128.03 848.8,-134.97"/>
</g>
<!-- Node29&#45;&gt;Node18 -->
<g id="edge55" class="edge">
<title>Node29&#45;&gt;Node18</title>
<path fill="none" stroke="midnightblue" d="M215.28,-173.98C241.96,-165.34 282.57,-150.61 315,-132 369.52,-100.72 425.61,-51.51 452.57,-26.59"/>
<polygon fill="midnightblue" stroke="midnightblue" points="455.05,-29.06 459.97,-19.68 450.27,-23.95 455.05,-29.06"/>
</g>
<!-- Node29&#45;&gt;Node24 -->
<g id="edge53" class="edge">
<title>Node29&#45;&gt;Node24</title>
<path fill="none" stroke="midnightblue" d="M207.01,-173.89C241.65,-158.26 313.71,-122.5 362,-76 376.27,-62.25 388.29,-42.96 395.96,-28.97"/>
<polygon fill="midnightblue" stroke="midnightblue" points="399.19,-30.35 400.74,-19.87 392.99,-27.09 399.19,-30.35"/>
</g>
<!-- Node30&#45;&gt;Node6 -->
<g id="edge58" class="edge">
<title>Node30&#45;&gt;Node6</title>
<path fill="none" stroke="midnightblue" d="M813.04,-173.98C830.28,-164.21 858.74,-148.08 879.03,-136.58"/>
<polygon fill="midnightblue" stroke="midnightblue" points="881.01,-139.48 887.98,-131.51 877.56,-133.39 881.01,-139.48"/>
</g>
<!-- Node31&#45;&gt;Node6 -->
<g id="edge60" class="edge">
<title>Node31&#45;&gt;Node6</title>
<path fill="none" stroke="midnightblue" d="M977.54,-173.98C963.58,-164.43 940.74,-148.81 924.01,-137.37"/>
<polygon fill="midnightblue" stroke="midnightblue" points="925.67,-134.27 915.44,-131.51 921.72,-140.04 925.67,-134.27"/>
</g>
<!-- Node32&#45;&gt;Node3 -->
<g id="edge62" class="edge">
<title>Node32&#45;&gt;Node3</title>
<path fill="none" stroke="midnightblue" d="M1362.61,-168.47C1379.51,-137.3 1420.12,-62.41 1438.58,-28.37"/>
<polygon fill="midnightblue" stroke="midnightblue" points="1441.67,-30.02 1443.36,-19.56 1435.51,-26.68 1441.67,-30.02"/>
</g>
<!-- Node32&#45;&gt;Node6 -->
<g id="edge63" class="edge">
<title>Node32&#45;&gt;Node6</title>
<path fill="none" stroke="midnightblue" d="M1270.37,-169.19C1267.55,-168.79 1264.75,-168.39 1262,-168 1154.25,-152.85 1027.94,-137.6 957.53,-129.32"/>
<polygon fill="midnightblue" stroke="midnightblue" points="957.89,-125.84 947.55,-128.15 957.07,-132.79 957.89,-125.84"/>
</g>
<!-- Node33&#45;&gt;Node6 -->
<g id="edge65" class="edge">
<title>Node33&#45;&gt;Node6</title>
<path fill="none" stroke="midnightblue" d="M480.32,-169.22C483.25,-168.79 486.15,-168.38 489,-168 646.16,-146.81 686.67,-151.96 844,-132 845.3,-131.83 846.62,-131.66 847.94,-131.49"/>
<polygon fill="midnightblue" stroke="midnightblue" points="848.83,-134.9 858.26,-130.07 847.87,-127.97 848.83,-134.9"/>
</g>
<!-- Node34&#45;&gt;Node3 -->
<g id="edge67" class="edge">
<title>Node34&#45;&gt;Node3</title>
<path fill="none" stroke="midnightblue" d="M1538.16,-173.76C1523.23,-146.81 1477.7,-64.62 1457.65,-28.42"/>
<polygon fill="midnightblue" stroke="midnightblue" points="1460.63,-26.57 1452.72,-19.52 1454.5,-29.96 1460.63,-26.57"/>
</g>
<!-- Node34&#45;&gt;Node6 -->
<g id="edge68" class="edge">
<title>Node34&#45;&gt;Node6</title>
<path fill="none" stroke="midnightblue" d="M1491.86,-173.94C1477.98,-171.8 1462.94,-169.65 1449,-168 1269.74,-146.81 1056.19,-132.31 957.71,-126.22"/>
<polygon fill="midnightblue" stroke="midnightblue" points="957.89,-122.73 947.69,-125.61 957.46,-129.71 957.89,-122.73"/>
</g>
<!-- Node35&#45;&gt;Node6 -->
<g id="edge70" class="edge">
<title>Node35&#45;&gt;Node6</title>
<path fill="none" stroke="midnightblue" d="M624.56,-173.98C683.67,-163.15 785.48,-144.52 848.24,-133.02"/>
<polygon fill="midnightblue" stroke="midnightblue" points="849.14,-136.42 858.35,-131.17 847.88,-129.53 849.14,-136.42"/>
</g>
<!-- Node36&#45;&gt;Node3 -->
<g id="edge72" class="edge">
<title>Node36&#45;&gt;Node3</title>
<path fill="none" stroke="midnightblue" d="M1711.26,-174C1666.68,-146.39 1525.74,-59.13 1470.51,-24.94"/>
<polygon fill="midnightblue" stroke="midnightblue" points="1472.16,-21.84 1461.82,-19.56 1468.48,-27.8 1472.16,-21.84"/>
</g>
<!-- Node36&#45;&gt;Node6 -->
<g id="edge73" class="edge">
<title>Node36&#45;&gt;Node6</title>
<path fill="none" stroke="midnightblue" d="M1678.54,-173.93C1665.17,-171.72 1650.54,-169.53 1637,-168 1384.29,-139.51 1080.45,-128.11 958.05,-124.46"/>
<polygon fill="midnightblue" stroke="midnightblue" points="957.92,-120.95 947.82,-124.16 957.71,-127.95 957.92,-120.95"/>
</g>
<!-- Node37&#45;&gt;Node3 -->
<g id="edge75" class="edge">
<title>Node37&#45;&gt;Node3</title>
<path fill="none" stroke="midnightblue" d="M1873.78,-174C1800.42,-145.91 1565.67,-56.05 1479.83,-23.18"/>
<polygon fill="midnightblue" stroke="midnightblue" points="1480.94,-19.86 1470.35,-19.56 1478.44,-26.4 1480.94,-19.86"/>
</g>
<!-- Node37&#45;&gt;Node6 -->
<g id="edge76" class="edge">
<title>Node37&#45;&gt;Node6</title>
<path fill="none" stroke="midnightblue" d="M1853.07,-173.96C1840.23,-171.69 1826.08,-169.46 1813,-168 1490.17,-131.96 1099.69,-124.78 957.84,-123.35"/>
<polygon fill="midnightblue" stroke="midnightblue" points="957.69,-119.85 947.66,-123.26 957.63,-126.85 957.69,-119.85"/>
</g>
<!-- Node38&#45;&gt;Node2 -->
<g id="edge79" class="edge">
<title>Node38&#45;&gt;Node2</title>
<path fill="none" stroke="midnightblue" d="M872.4,-298.03C667.81,-291.25 76,-264.7 76,-184.5 76,-184.5 76,-184.5 76,-121 76,-88.95 76,-51.64 76,-29.75"/>
<polygon fill="midnightblue" stroke="midnightblue" points="79.5,-29.56 76,-19.56 72.5,-29.56 79.5,-29.56"/>
</g>
<!-- Node38&#45;&gt;Node3 -->
<g id="edge80" class="edge">
<title>Node38&#45;&gt;Node3</title>
<path fill="none" stroke="midnightblue" d="M1009.54,-299.73C1243.76,-297.91 1998,-284.3 1998,-184.5 1998,-184.5 1998,-184.5 1998,-121 1998,-15.13 1601.22,-9.75 1481.68,-10.53"/>
<polygon fill="midnightblue" stroke="midnightblue" points="1481.6,-7.03 1471.63,-10.61 1481.66,-14.03 1481.6,-7.03"/>
</g>
<!-- Node38&#45;&gt;Node4 -->
<g id="edge81" class="edge">
<title>Node38&#45;&gt;Node4</title>
<path fill="none" stroke="midnightblue" d="M949.09,-291.08C956.16,-283.3 966.59,-271.8 975.15,-262.37"/>
<polygon fill="midnightblue" stroke="midnightblue" points="977.93,-264.51 982.06,-254.75 972.75,-259.8 977.93,-264.51"/>
</g>
<!-- Node38&#45;&gt;Node6 -->
<g id="edge82" class="edge">
<title>Node38&#45;&gt;Node6</title>
<path fill="none" stroke="midnightblue" d="M872.5,-299.58C725.58,-297.06 387.78,-282.15 317,-199 308.07,-188.51 307.6,-178.07 317,-168 357.06,-125.11 785.66,-138.43 844,-132 845.3,-131.86 846.62,-131.7 847.95,-131.55"/>
<polygon fill="midnightblue" stroke="midnightblue" points="848.8,-134.97 858.27,-130.22 847.91,-128.02 848.8,-134.97"/>
</g>
<!-- Node38&#45;&gt;Node19 -->
<g id="edge83" class="edge">
<title>Node38&#45;&gt;Node19</title>
<path fill="none" stroke="midnightblue" d="M1009.72,-299.85C1196.91,-298.95 1712.83,-292.97 1878,-255 1939.71,-240.81 1972.95,-251.05 2009,-199 2047.34,-143.65 2016.63,-90.82 1959,-56 1923.41,-34.5 1877.2,-22.94 1843.59,-16.95"/>
<polygon fill="midnightblue" stroke="midnightblue" points="1844.04,-13.48 1833.59,-15.27 1842.87,-20.38 1844.04,-13.48"/>
</g>
</g>
</svg>
        <g id="navigator" transform="translate(0 0)" fill="#404254">
                <rect fill="#f2f5e9" fill-opacity="0.5" stroke="#606060" stroke-width=".5" x="0" y="0" width="60" height="60"/>
                <use id="zoomplus" xlink:href="#zoomPlus" x="17" y="9" onmousedown="handleZoom(evt,'in')"/>
                <use id="zoomminus" xlink:href="#zoomMin" x="42" y="9" onmousedown="handleZoom(evt,'out')"/>
                <use id="reset" xlink:href="#resetDef" x="30" y="36" onmousedown="handleReset()"/>
                <g id="arrowUp" xlink:href="#dirArrow" transform="translate(30 24)" onmousedown="handlePan(0,-1)">
                  <use xlink:href="#rim" fill="#404040">
                        <set attributeName="fill" to="#808080" begin="arrowUp.mouseover" end="arrowUp.mouseout"/>
                  </use>
                  <path fill="none" stroke="white" stroke-width="1.5" d="M0,-3.0v7 M-2.5,-0.5L0,-3.0L2.5,-0.5"/>
                </g>
                <g id="arrowRight" xlink:href="#dirArrow" transform="rotate(90) translate(36 -43)" onmousedown="handlePan(1,0)">
                  <use xlink:href="#rim" fill="#404040">
                        <set attributeName="fill" to="#808080" begin="arrowRight.mouseover" end="arrowRight.mouseout"/>
                  </use>
                  <path fill="none" stroke="white" stroke-width="1.5" d="M0,-3.0v7 M-2.5,-0.5L0,-3.0L2.5,-0.5"/>
                </g>
                <g id="arrowDown" xlink:href="#dirArrow" transform="rotate(180) translate(-30 -48)" onmousedown="handlePan(0,1)">
                  <use xlink:href="#rim" fill="#404040">
                        <set attributeName="fill" to="#808080" begin="arrowDown.mouseover" end="arrowDown.mouseout"/>
                  </use>
                  <path fill="none" stroke="white" stroke-width="1.5" d="M0,-3.0v7 M-2.5,-0.5L0,-3.0L2.5,-0.5"/>
                </g>
                <g id="arrowLeft" xlink:href="#dirArrow" transform="rotate(270) translate(-36 17)" onmousedown="handlePan(-1,0)">
                  <use xlink:href="#rim" fill="#404040">
                        <set attributeName="fill" to="#808080" begin="arrowLeft.mouseover" end="arrowLeft.mouseout"/>
                  </use>
                  <path fill="none" stroke="white" stroke-width="1.5" d="M0,-3.0v7 M-2.5,-0.5L0,-3.0L2.5,-0.5"/>
                </g>
        </g>
        <svg viewBox="0 0 15 15" width="100%" height="30px" preserveAspectRatio="xMaxYMin meet">
         <g id="arrow_out" transform="scale(0.3 0.3)">
          <a xlink:href="HSolverBase_8hpp__incl_org.svg" target="_base">
           <rect id="button" ry="5" rx="5" y="6" x="6" height="38" width="38"
                fill="#f2f5e9" fill-opacity="0.5" stroke="#606060" stroke-width="1.0"/>
           <path id="arrow"
             d="M 11.500037,31.436501 C 11.940474,20.09759 22.043105,11.32322 32.158766,21.979434 L 37.068811,17.246167 C 37.068811,17.246167 37.088388,32 37.088388,32 L 22.160133,31.978069 C 22.160133,31.978069 26.997745,27.140456 26.997745,27.140456 C 18.528582,18.264221 13.291696,25.230495 11.500037,31.436501 z"
             style="fill:#404040;"/>
          </a>
         </g>
        </svg>
</svg>
