<?xml version="1.0" encoding="UTF-8" standalone="no"?>
<!DOCTYPE svg PUBLIC "-//W3C//DTD SVG 1.1//EN"
 "http://www.w3.org/Graphics/SVG/1.1/DTD/svg11.dtd">
<!-- Generated by graphviz version 2.43.0 (0)
 -->
<!-- Title: HSolverBase.hpp Pages: 1 -->
<!--zoomable 364 -->
<svg id="main" version="1.1" xmlns="http://www.w3.org/2000/svg" xmlns:xlink="http://www.w3.org/1999/xlink" xml:space="preserve" onload="init(evt)">
<style type="text/css"><![CDATA[
.edge:hover path { stroke: red; }
.edge:hover polygon { stroke: red; fill: red; }
]]></style>
<script type="text/javascript"><![CDATA[
var edges = document.getElementsByTagName('g');
if (edges && edges.length) {
  for (var i=0;i<edges.length;i++) {
    if (edges[i].id.substr(0,4)=='edge') {
      edges[i].setAttribute('class','edge');
    }
  }
}
]]></script>
        <defs>
                <circle id="rim" cx="0" cy="0" r="7"/>
                <circle id="rim2" cx="0" cy="0" r="3.5"/>
                <g id="zoomPlus">
                        <use xlink:href="#rim" fill="#404040">
                                <set attributeName="fill" to="#808080" begin="zoomplus.mouseover" end="zoomplus.mouseout"/>
                        </use>
                        <path d="M-4,0h8M0,-4v8" fill="none" stroke="white" stroke-width="1.5" pointer-events="none"/>
                </g>
                <g id="zoomMin">
                        <use xlink:href="#rim" fill="#404040">
                                <set attributeName="fill" to="#808080" begin="zoomminus.mouseover" end="zoomminus.mouseout"/>
                        </use>
                        <path d="M-4,0h8" fill="none" stroke="white" stroke-width="1.5" pointer-events="none"/>
                </g>
                <g id="dirArrow">
                        <path fill="none" stroke="white" stroke-width="1.5" d="M0,-3.0v7 M-2.5,-0.5L0,-3.0L2.5,-0.5"/>
                </g>
               <g id="resetDef">
                       <use xlink:href="#rim2" fill="#404040">
                               <set attributeName="fill" to="#808080" begin="reset.mouseover" end="reset.mouseout"/>
                       </use>
               </g>
        </defs>

<script type="text/javascript">
var viewWidth = 673;
var viewHeight = 364;
var sectionId = 'dynsection-1';
</script>
<script xlink:href="svgpan.js"/>
<svg id="graph" class="graph">
<g id="viewport">
<title>HSolverBase.hpp</title>
<!-- Node1 -->
<g id="node1" class="node">
<title>Node1</title>
<g id="a_node1"><a xlink:title="Base class for Hypre solvers.">
<polygon fill="#bfbfbf" stroke="black" points="29,-336.5 29,-355.5 135,-355.5 135,-336.5 29,-336.5"/>
<text text-anchor="middle" x="82" y="-343.5" font-family="serif" font-size="10.00">HSolverBase.hpp</text>
</a>
</g>
</g>
<!-- Node2 -->
<g id="node2" class="node">
<title>Node2</title>
<g id="a_node2"><a xlink:href="sloth_8hpp.html" target="_top" xlink:title="List of all header files contained in the kernel directory.">
<polygon fill="none" stroke="black" points="236.5,-0.5 236.5,-19.5 301.5,-19.5 301.5,-0.5 236.5,-0.5"/>
<text text-anchor="middle" x="269" y="-7.5" font-family="serif" font-size="10.00">sloth.hpp</text>
</a>
</g>
</g>
<!-- Node1&#45;&gt;Node2 -->
<g id="edge1" class="edge">
<title>Node1&#45;&gt;Node2</title>
<path fill="none" stroke="midnightblue" d="M60.88,-330.14C36.59,-311.13 0,-275.73 0,-235 0,-235 0,-235 0,-121 0,-70.48 164.6,-31.69 236.28,-17.19"/>
<polygon fill="midnightblue" stroke="midnightblue" points="59.09,-333.18 69.19,-336.39 63.3,-327.58 59.09,-333.18"/>
</g>
<!-- Node3 -->
<g id="node3" class="node">
<title>Node3</title>
<g id="a_node3"><a xlink:href="SlothSolver_8hpp.html" target="_top" xlink:title="Class to define a SlothSolver objet.">
<polygon fill="none" stroke="black" points="193,-280.5 193,-299.5 291,-299.5 291,-280.5 193,-280.5"/>
<text text-anchor="middle" x="242" y="-287.5" font-family="serif" font-size="10.00">SlothSolver.hpp</text>
</a>
</g>
</g>
<!-- Node1&#45;&gt;Node3 -->
<g id="edge2" class="edge">
<title>Node1&#45;&gt;Node3</title>
<path fill="none" stroke="midnightblue" d="M117.05,-333.17C147.17,-323 189.9,-308.59 216.77,-299.52"/>
<polygon fill="midnightblue" stroke="midnightblue" points="115.71,-329.93 107.35,-336.44 117.95,-336.56 115.71,-329.93"/>
</g>
<!-- Node3&#45;&gt;Node2 -->
<g id="edge3" class="edge">
<title>Node3&#45;&gt;Node2</title>
<path fill="none" stroke="midnightblue" d="M301.54,-285.91C418.06,-278.23 665,-253.21 665,-179 665,-179 665,-179 665,-121 665,-82.58 641.88,-74.13 608,-56 555.33,-27.81 375.97,-16.13 301.66,-12.43"/>
<polygon fill="midnightblue" stroke="midnightblue" points="301.11,-282.43 291.35,-286.56 301.55,-289.42 301.11,-282.43"/>
</g>
<!-- Node4 -->
<g id="node4" class="node">
<title>Node4</title>
<g id="a_node4"><a xlink:href="LSolver_8hpp.html" target="_top" xlink:title="Class used to manage Linear Solver objet.">
<polygon fill="none" stroke="black" points="254,-224.5 254,-243.5 332,-243.5 332,-224.5 254,-224.5"/>
<text text-anchor="middle" x="293" y="-231.5" font-family="serif" font-size="10.00">LSolver.hpp</text>
</a>
</g>
</g>
<!-- Node3&#45;&gt;Node4 -->
<g id="edge4" class="edge">
<title>Node3&#45;&gt;Node4</title>
<path fill="none" stroke="midnightblue" d="M257.38,-272.72C266.37,-263.2 277.36,-251.56 284.74,-243.75"/>
<polygon fill="midnightblue" stroke="midnightblue" points="254.74,-270.41 250.42,-280.08 259.83,-275.22 254.74,-270.41"/>
</g>
<!-- Node11 -->
<g id="node11" class="node">
<title>Node11</title>
<g id="a_node11"><a xlink:href="NLSolver_8hpp.html" target="_top" xlink:title="Class used to manage a NonLinear Solver( Newton type)">
<polygon fill="none" stroke="black" points="115.5,-224.5 115.5,-243.5 202.5,-243.5 202.5,-224.5 115.5,-224.5"/>
<text text-anchor="middle" x="159" y="-231.5" font-family="serif" font-size="10.00">NLSolver.hpp</text>
</a>
</g>
</g>
<!-- Node3&#45;&gt;Node11 -->
<g id="edge23" class="edge">
<title>Node3&#45;&gt;Node11</title>
<path fill="none" stroke="midnightblue" d="M219.9,-274.62C204.74,-264.76 185.12,-251.99 172.3,-243.65"/>
<polygon fill="midnightblue" stroke="midnightblue" points="218.37,-277.8 228.66,-280.32 222.19,-271.94 218.37,-277.8"/>
</g>
<!-- Node4&#45;&gt;Node2 -->
<g id="edge22" class="edge">
<title>Node4&#45;&gt;Node2</title>
<path fill="none" stroke="midnightblue" d="M342.15,-223.89C444.73,-202.84 665.91,-145.67 588,-56 551.13,-13.57 375.51,-10.03 301.74,-10.46"/>
<polygon fill="midnightblue" stroke="midnightblue" points="341.42,-220.46 332.31,-225.87 342.8,-227.33 341.42,-220.46"/>
</g>
<!-- Node5 -->
<g id="node5" class="node">
<title>Node5</title>
<g id="a_node5"><a xlink:href="OperatorBase_8hpp.html" target="_top" xlink:title="Base class for building Steady and TimeDependent PhaseFieldOperators.">
<polygon fill="none" stroke="black" points="155,-168.5 155,-187.5 265,-187.5 265,-168.5 155,-168.5"/>
<text text-anchor="middle" x="210" y="-175.5" font-family="serif" font-size="10.00">OperatorBase.hpp</text>
</a>
</g>
</g>
<!-- Node4&#45;&gt;Node5 -->
<g id="edge5" class="edge">
<title>Node4&#45;&gt;Node5</title>
<path fill="none" stroke="midnightblue" d="M270.9,-218.62C255.74,-208.76 236.12,-195.99 223.3,-187.65"/>
<polygon fill="midnightblue" stroke="midnightblue" points="269.37,-221.8 279.66,-224.32 273.19,-215.94 269.37,-221.8"/>
</g>
<!-- Node6 -->
<g id="node6" class="node">
<title>Node6</title>
<g id="a_node6"><a xlink:href="SteadyOperatorBase_8hpp.html" target="_top" xlink:title="Steady Operator base.">
<polygon fill="none" stroke="black" points="124,-112.5 124,-131.5 270,-131.5 270,-112.5 124,-112.5"/>
<text text-anchor="middle" x="197" y="-119.5" font-family="serif" font-size="10.00">SteadyOperatorBase.hpp</text>
</a>
</g>
</g>
<!-- Node4&#45;&gt;Node6 -->
<g id="edge20" class="edge">
<title>Node4&#45;&gt;Node6</title>
<path fill="none" stroke="midnightblue" d="M291.24,-214.11C289.11,-200.14 284.39,-181.31 274,-168 260.46,-150.67 238.25,-138.72 221.16,-131.52"/>
<polygon fill="midnightblue" stroke="midnightblue" points="287.77,-214.57 292.46,-224.07 294.72,-213.72 287.77,-214.57"/>
</g>
<!-- Node10 -->
<g id="node10" class="node">
<title>Node10</title>
<g id="a_node10"><a xlink:href="TransientOperatorBase_8hpp.html" target="_top" xlink:title="Transient Operator base.">
<polygon fill="none" stroke="black" points="288.5,-112.5 288.5,-131.5 447.5,-131.5 447.5,-112.5 288.5,-112.5"/>
<text text-anchor="middle" x="368" y="-119.5" font-family="serif" font-size="10.00">TransientOperatorBase.hpp</text>
</a>
</g>
</g>
<!-- Node4&#45;&gt;Node10 -->
<g id="edge21" class="edge">
<title>Node4&#45;&gt;Node10</title>
<path fill="none" stroke="midnightblue" d="M304.62,-215.96C320.87,-192.12 349.79,-149.71 362.14,-131.59"/>
<polygon fill="midnightblue" stroke="midnightblue" points="301.63,-214.13 298.89,-224.37 307.41,-218.08 301.63,-214.13"/>
</g>
<!-- Node5&#45;&gt;Node2 -->
<g id="edge19" class="edge">
<title>Node5&#45;&gt;Node2</title>
<path fill="none" stroke="midnightblue" d="M159.5,-165C142.37,-158.26 125.05,-147.87 115,-132 104.79,-115.87 108.46,-73.92 124,-56 152.07,-23.65 202.93,-14.24 236.33,-11.68"/>
<polygon fill="midnightblue" stroke="midnightblue" points="158.35,-168.31 168.95,-168.38 160.71,-161.72 158.35,-168.31"/>
</g>
<!-- Node5&#45;&gt;Node6 -->
<g id="edge6" class="edge">
<title>Node5&#45;&gt;Node6</title>
<path fill="none" stroke="midnightblue" d="M205.45,-158.1C203.29,-149.14 200.82,-138.86 199.11,-131.75"/>
<polygon fill="midnightblue" stroke="midnightblue" points="202.11,-159.18 207.85,-168.08 208.92,-157.54 202.11,-159.18"/>
</g>
<!-- Node5&#45;&gt;Node10 -->
<g id="edge14" class="edge">
<title>Node5&#45;&gt;Node10</title>
<path fill="none" stroke="midnightblue" d="M244.61,-165.17C274.36,-155 316.55,-140.59 343.08,-131.52"/>
<polygon fill="midnightblue" stroke="midnightblue" points="243.37,-161.9 235.04,-168.44 245.63,-168.52 243.37,-161.9"/>
</g>
<!-- Node6&#45;&gt;Node2 -->
<g id="edge13" class="edge">
<title>Node6&#45;&gt;Node2</title>
<path fill="none" stroke="midnightblue" d="M168.03,-107.8C144.95,-95.4 118.67,-75.83 133,-56 156.45,-23.54 204.19,-14.11 236.4,-11.58"/>
<polygon fill="midnightblue" stroke="midnightblue" points="166.46,-110.93 176.96,-112.34 169.63,-104.69 166.46,-110.93"/>
</g>
<!-- Node7 -->
<g id="node7" class="node">
<title>Node7</title>
<g id="a_node7"><a xlink:href="DiffusionOperator_8hpp.html" target="_top" xlink:title="Diffusion operator (Base, Steady and TimeDependent)">
<polygon fill="none" stroke="black" points="429.5,-56.5 429.5,-75.5 560.5,-75.5 560.5,-56.5 429.5,-56.5"/>
<text text-anchor="middle" x="495" y="-63.5" font-family="serif" font-size="10.00">DiffusionOperator.hpp</text>
</a>
</g>
</g>
<!-- Node6&#45;&gt;Node7 -->
<g id="edge7" class="edge">
<title>Node6&#45;&gt;Node7</title>
<path fill="none" stroke="midnightblue" d="M254.39,-110.6C310.71,-100.4 395.56,-85.02 448,-75.52"/>
<polygon fill="midnightblue" stroke="midnightblue" points="253.43,-107.22 244.22,-112.44 254.68,-114.1 253.43,-107.22"/>
</g>
<!-- Node8 -->
<g id="node8" class="node">
<title>Node8</title>
<g id="a_node8"><a xlink:href="HeatOperator_8hpp.html" target="_top" xlink:title="Heat operator (Base, Steady and TimeDependent)">
<polygon fill="none" stroke="black" points="142,-56.5 142,-75.5 252,-75.5 252,-56.5 142,-56.5"/>
<text text-anchor="middle" x="197" y="-63.5" font-family="serif" font-size="10.00">HeatOperator.hpp</text>
</a>
</g>
</g>
<!-- Node6&#45;&gt;Node8 -->
<g id="edge9" class="edge">
<title>Node6&#45;&gt;Node8</title>
<path fill="none" stroke="midnightblue" d="M197,-101.8C197,-92.91 197,-82.78 197,-75.75"/>
<polygon fill="midnightblue" stroke="midnightblue" points="193.5,-102.08 197,-112.08 200.5,-102.08 193.5,-102.08"/>
</g>
<!-- Node9 -->
<g id="node9" class="node">
<title>Node9</title>
<g id="a_node9"><a xlink:href="PhaseFieldOperator_8hpp.html" target="_top" xlink:title="AllenCahn operator (Base, Steady and TimeDependent)">
<polygon fill="none" stroke="black" points="270.5,-56.5 270.5,-75.5 411.5,-75.5 411.5,-56.5 270.5,-56.5"/>
<text text-anchor="middle" x="341" y="-63.5" font-family="serif" font-size="10.00">PhaseFieldOperator.hpp</text>
</a>
</g>
</g>
<!-- Node6&#45;&gt;Node9 -->
<g id="edge11" class="edge">
<title>Node6&#45;&gt;Node9</title>
<path fill="none" stroke="midnightblue" d="M229.25,-108.91C256.32,-98.75 294.32,-84.51 318.29,-75.52"/>
<polygon fill="midnightblue" stroke="midnightblue" points="227.95,-105.66 219.82,-112.44 230.41,-112.21 227.95,-105.66"/>
</g>
<!-- Node7&#45;&gt;Node2 -->
<g id="edge8" class="edge">
<title>Node7&#45;&gt;Node2</title>
<path fill="none" stroke="midnightblue" d="M449.37,-54.1C405.59,-43.64 340.55,-28.1 301.71,-18.82"/>
<polygon fill="midnightblue" stroke="midnightblue" points="448.65,-57.52 459.19,-56.44 450.28,-50.72 448.65,-57.52"/>
</g>
<!-- Node8&#45;&gt;Node2 -->
<g id="edge10" class="edge">
<title>Node8&#45;&gt;Node2</title>
<path fill="none" stroke="midnightblue" d="M216.87,-50.1C229.82,-40.38 246.3,-28.03 257.22,-19.83"/>
<polygon fill="midnightblue" stroke="midnightblue" points="214.47,-47.52 208.57,-56.32 218.67,-53.12 214.47,-47.52"/>
</g>
<!-- Node9&#45;&gt;Node2 -->
<g id="edge12" class="edge">
<title>Node9&#45;&gt;Node2</title>
<path fill="none" stroke="midnightblue" d="M321.13,-50.1C308.18,-40.38 291.7,-28.03 280.78,-19.83"/>
<polygon fill="midnightblue" stroke="midnightblue" points="319.33,-53.12 329.43,-56.32 323.53,-47.52 319.33,-53.12"/>
</g>
<!-- Node10&#45;&gt;Node2 -->
<g id="edge18" class="edge">
<title>Node10&#45;&gt;Node2</title>
<path fill="none" stroke="midnightblue" d="M458.01,-118.61C527.72,-113.53 606.73,-98.63 570,-56 535.64,-16.12 372.43,-11.06 301.75,-10.77"/>
<polygon fill="midnightblue" stroke="midnightblue" points="457.55,-115.13 447.81,-119.29 458.02,-122.12 457.55,-115.13"/>
</g>
<!-- Node10&#45;&gt;Node7 -->
<g id="edge15" class="edge">
<title>Node10&#45;&gt;Node7</title>
<path fill="none" stroke="midnightblue" d="M397.39,-108.5C421.2,-98.38 454.11,-84.39 474.97,-75.52"/>
<polygon fill="midnightblue" stroke="midnightblue" points="395.96,-105.31 388.12,-112.44 398.7,-111.75 395.96,-105.31"/>
</g>
<!-- Node10&#45;&gt;Node8 -->
<g id="edge16" class="edge">
<title>Node10&#45;&gt;Node8</title>
<path fill="none" stroke="midnightblue" d="M330.96,-109.3C298.74,-99.13 252.81,-84.62 223.97,-75.52"/>
<polygon fill="midnightblue" stroke="midnightblue" points="330.31,-112.77 340.9,-112.44 332.42,-106.09 330.31,-112.77"/>
</g>
<!-- Node10&#45;&gt;Node9 -->
<g id="edge17" class="edge">
<title>Node10&#45;&gt;Node9</title>
<path fill="none" stroke="midnightblue" d="M358.99,-102.98C354.41,-93.82 349.05,-83.09 345.38,-75.75"/>
<polygon fill="midnightblue" stroke="midnightblue" points="355.94,-104.7 363.54,-112.08 362.2,-101.57 355.94,-104.7"/>
</g>
<!-- Node11&#45;&gt;Node2 -->
<g id="edge26" class="edge">
<title>Node11&#45;&gt;Node2</title>
<path fill="none" stroke="midnightblue" d="M145.43,-216.07C119.79,-181.93 70.22,-104 110,-56 140.75,-18.89 199.62,-11.11 236.45,-10.14"/>
<polygon fill="midnightblue" stroke="midnightblue" points="142.77,-218.35 151.65,-224.12 148.31,-214.07 142.77,-218.35"/>
</g>
<!-- Node11&#45;&gt;Node5 -->
<g id="edge24" class="edge">
<title>Node11&#45;&gt;Node5</title>
<path fill="none" stroke="midnightblue" d="M174.38,-216.72C183.37,-207.2 194.36,-195.56 201.74,-187.75"/>
<polygon fill="midnightblue" stroke="midnightblue" points="171.74,-214.41 167.42,-224.08 176.83,-219.22 171.74,-214.41"/>
</g>
<!-- Node11&#45;&gt;Node6 -->
<g id="edge25" class="edge">
<title>Node11&#45;&gt;Node6</title>
<path fill="none" stroke="midnightblue" d="M149.73,-215.08C144.11,-201.64 139.21,-183.05 146,-168 153.19,-152.07 169.11,-139.52 181.27,-131.76"/>
<polygon fill="midnightblue" stroke="midnightblue" points="146.59,-216.62 153.99,-224.21 152.94,-213.67 146.59,-216.62"/>
</g>
</g>
</svg>
        <g id="navigator" transform="translate(0 0)" fill="#404254">
                <rect fill="#f2f5e9" fill-opacity="0.5" stroke="#606060" stroke-width=".5" x="0" y="0" width="60" height="60"/>
                <use id="zoomplus" xlink:href="#zoomPlus" x="17" y="9" onmousedown="handleZoom(evt,'in')"/>
                <use id="zoomminus" xlink:href="#zoomMin" x="42" y="9" onmousedown="handleZoom(evt,'out')"/>
                <use id="reset" xlink:href="#resetDef" x="30" y="36" onmousedown="handleReset()"/>
                <g id="arrowUp" xlink:href="#dirArrow" transform="translate(30 24)" onmousedown="handlePan(0,-1)">
                  <use xlink:href="#rim" fill="#404040">
                        <set attributeName="fill" to="#808080" begin="arrowUp.mouseover" end="arrowUp.mouseout"/>
                  </use>
                  <path fill="none" stroke="white" stroke-width="1.5" d="M0,-3.0v7 M-2.5,-0.5L0,-3.0L2.5,-0.5"/>
                </g>
                <g id="arrowRight" xlink:href="#dirArrow" transform="rotate(90) translate(36 -43)" onmousedown="handlePan(1,0)">
                  <use xlink:href="#rim" fill="#404040">
                        <set attributeName="fill" to="#808080" begin="arrowRight.mouseover" end="arrowRight.mouseout"/>
                  </use>
                  <path fill="none" stroke="white" stroke-width="1.5" d="M0,-3.0v7 M-2.5,-0.5L0,-3.0L2.5,-0.5"/>
                </g>
                <g id="arrowDown" xlink:href="#dirArrow" transform="rotate(180) translate(-30 -48)" onmousedown="handlePan(0,1)">
                  <use xlink:href="#rim" fill="#404040">
                        <set attributeName="fill" to="#808080" begin="arrowDown.mouseover" end="arrowDown.mouseout"/>
                  </use>
                  <path fill="none" stroke="white" stroke-width="1.5" d="M0,-3.0v7 M-2.5,-0.5L0,-3.0L2.5,-0.5"/>
                </g>
                <g id="arrowLeft" xlink:href="#dirArrow" transform="rotate(270) translate(-36 17)" onmousedown="handlePan(-1,0)">
                  <use xlink:href="#rim" fill="#404040">
                        <set attributeName="fill" to="#808080" begin="arrowLeft.mouseover" end="arrowLeft.mouseout"/>
                  </use>
                  <path fill="none" stroke="white" stroke-width="1.5" d="M0,-3.0v7 M-2.5,-0.5L0,-3.0L2.5,-0.5"/>
                </g>
        </g>
        <svg viewBox="0 0 15 15" width="100%" height="30px" preserveAspectRatio="xMaxYMin meet">
         <g id="arrow_out" transform="scale(0.3 0.3)">
          <a xlink:href="HSolverBase_8hpp__dep__incl_org.svg" target="_base">
           <rect id="button" ry="5" rx="5" y="6" x="6" height="38" width="38"
                fill="#f2f5e9" fill-opacity="0.5" stroke="#606060" stroke-width="1.0"/>
           <path id="arrow"
             d="M 11.500037,31.436501 C 11.940474,20.09759 22.043105,11.32322 32.158766,21.979434 L 37.068811,17.246167 C 37.068811,17.246167 37.088388,32 37.088388,32 L 22.160133,31.978069 C 22.160133,31.978069 26.997745,27.140456 26.997745,27.140456 C 18.528582,18.264221 13.291696,25.230495 11.500037,31.436501 z"
             style="fill:#404040;"/>
          </a>
         </g>
        </svg>
</svg>
