<?xml version="1.0" encoding="UTF-8" standalone="no"?>
<!DOCTYPE svg PUBLIC "-//W3C//DTD SVG 1.1//EN"
 "http://www.w3.org/Graphics/SVG/1.1/DTD/svg11.dtd">
<!-- Generated by graphviz version 2.43.0 (0)
 -->
<!-- Title: Graphical Class Hierarchy Pages: 1 -->
<svg width="332pt" height="421pt"
 viewBox="0.00 0.00 332.00 421.00" xmlns="http://www.w3.org/2000/svg" xmlns:xlink="http://www.w3.org/1999/xlink">
<g id="graph0" class="graph" transform="scale(1 1) rotate(0) translate(4 417)">
<title>Graphical Class Hierarchy</title>
<!-- Node28 -->
<g id="node1" class="node">
<title>Node28</title>
<g id="a_node1"><a xlink:title=" ">
<polygon fill="none" stroke="#bfbfbf" points="0,-202 0,-221 106,-221 106,-202 0,-202"/>
<text text-anchor="middle" x="53" y="-209" font-family="serif" font-size="10.00">mfem::Coefficient</text>
</a>
</g>
</g>
<!-- Node0 -->
<g id="node2" class="node">
<title>Node0</title>
<g id="a_node2"><a xlink:href="classConductivityCoefficient.html" target="_top" xlink:title=" ">
<polygon fill="none" stroke="black" points="165.5,-382.5 165.5,-412.5 300.5,-412.5 300.5,-382.5 165.5,-382.5"/>
<text text-anchor="start" x="173.5" y="-400.5" font-family="serif" font-size="10.00">ConductivityCoefficient</text>
<text text-anchor="middle" x="233" y="-389.5" font-family="serif" font-size="10.00">&lt; ORDER, NAME &gt;</text>
</a>
</g>
</g>
<!-- Node28&#45;&gt;Node0 -->
<g id="edge1" class="edge">
<title>Node28&#45;&gt;Node0</title>
<path fill="none" stroke="midnightblue" d="M59.08,-231.02C69.02,-265.25 94.34,-335.99 142,-373.5 148.86,-378.9 156.83,-383.09 165.14,-386.34"/>
<polygon fill="midnightblue" stroke="midnightblue" points="62.43,-229.99 56.39,-221.28 55.68,-231.86 62.43,-229.99"/>
</g>
<!-- Node30 -->
<g id="node3" class="node">
<title>Node30</title>
<g id="a_node3"><a xlink:href="classDensityCoefficient.html" target="_top" xlink:title=" ">
<polygon fill="none" stroke="black" points="173.5,-333.5 173.5,-363.5 292.5,-363.5 292.5,-333.5 173.5,-333.5"/>
<text text-anchor="start" x="181.5" y="-351.5" font-family="serif" font-size="10.00">DensityCoefficient</text>
<text text-anchor="middle" x="233" y="-340.5" font-family="serif" font-size="10.00">&lt; ORDER, NAME &gt;</text>
</a>
</g>
</g>
<!-- Node28&#45;&gt;Node30 -->
<g id="edge2" class="edge">
<title>Node28&#45;&gt;Node30</title>
<path fill="none" stroke="midnightblue" d="M63.38,-230.01C77.14,-255.26 105.21,-300.14 142,-324.5 151.44,-330.75 162.44,-335.38 173.45,-338.8"/>
<polygon fill="midnightblue" stroke="midnightblue" points="66.43,-228.29 58.67,-221.09 60.24,-231.56 66.43,-228.29"/>
</g>
<!-- Node31 -->
<g id="node4" class="node">
<title>Node31</title>
<g id="a_node4"><a xlink:href="classDiffusionCoefficient.html" target="_top" xlink:title=" ">
<polygon fill="none" stroke="black" points="173.5,-284.5 173.5,-314.5 292.5,-314.5 292.5,-284.5 173.5,-284.5"/>
<text text-anchor="start" x="181.5" y="-302.5" font-family="serif" font-size="10.00">DiffusionCoefficient</text>
<text text-anchor="middle" x="233" y="-291.5" font-family="serif" font-size="10.00">&lt; ORDER, NAME &gt;</text>
</a>
</g>
</g>
<!-- Node28&#45;&gt;Node31 -->
<g id="edge3" class="edge">
<title>Node28&#45;&gt;Node31</title>
<path fill="none" stroke="midnightblue" d="M72.58,-227.79C89.6,-241.94 116.02,-262.07 142,-274.5 151.8,-279.19 162.64,-283.13 173.29,-286.41"/>
<polygon fill="midnightblue" stroke="midnightblue" points="74.48,-224.81 64.6,-221 69.95,-230.14 74.48,-224.81"/>
</g>
<!-- Node32 -->
<g id="node5" class="node">
<title>Node32</title>
<g id="a_node5"><a xlink:href="classGradientEnergyCoefficient.html" target="_top" xlink:title=" ">
<polygon fill="none" stroke="black" points="156.5,-246 156.5,-265 309.5,-265 309.5,-246 156.5,-246"/>
<text text-anchor="middle" x="233" y="-253" font-family="serif" font-size="10.00">GradientEnergyCoefficient</text>
</a>
</g>
</g>
<!-- Node28&#45;&gt;Node32 -->
<g id="edge4" class="edge">
<title>Node28&#45;&gt;Node32</title>
<path fill="none" stroke="midnightblue" d="M95.42,-223.9C110.08,-228.12 126.72,-232.72 142,-236.5 155.49,-239.84 170.2,-243.1 183.75,-245.95"/>
<polygon fill="midnightblue" stroke="midnightblue" points="96.21,-220.49 85.63,-221.05 94.26,-227.21 96.21,-220.49"/>
</g>
<!-- Node33 -->
<g id="node6" class="node">
<title>Node33</title>
<g id="a_node6"><a xlink:href="classHeatCapacityCoefficient.html" target="_top" xlink:title=" ">
<polygon fill="none" stroke="black" points="163,-196.5 163,-226.5 303,-226.5 303,-196.5 163,-196.5"/>
<text text-anchor="start" x="171" y="-214.5" font-family="serif" font-size="10.00">HeatCapacityCoefficient</text>
<text text-anchor="middle" x="233" y="-203.5" font-family="serif" font-size="10.00">&lt; ORDER, NAME &gt;</text>
</a>
</g>
</g>
<!-- Node28&#45;&gt;Node33 -->
<g id="edge5" class="edge">
<title>Node28&#45;&gt;Node33</title>
<path fill="none" stroke="midnightblue" d="M116.59,-211.5C131.52,-211.5 147.55,-211.5 162.77,-211.5"/>
<polygon fill="midnightblue" stroke="midnightblue" points="116.44,-208 106.44,-211.5 116.44,-215 116.44,-208"/>
</g>
<!-- Node34 -->
<g id="node7" class="node">
<title>Node34</title>
<g id="a_node7"><a xlink:href="classHomogeneousEnergyCoefficient.html" target="_top" xlink:title=" ">
<polygon fill="none" stroke="black" points="142,-147.5 142,-177.5 324,-177.5 324,-147.5 142,-147.5"/>
<text text-anchor="start" x="150" y="-165.5" font-family="serif" font-size="10.00">HomogeneousEnergyCoefficient</text>
<text text-anchor="middle" x="233" y="-154.5" font-family="serif" font-size="10.00">&lt; ENERGY &gt;</text>
</a>
</g>
</g>
<!-- Node28&#45;&gt;Node34 -->
<g id="edge6" class="edge">
<title>Node28&#45;&gt;Node34</title>
<path fill="none" stroke="midnightblue" d="M98.6,-199.22C122.49,-192.65 152.12,-184.49 177.38,-177.54"/>
<polygon fill="midnightblue" stroke="midnightblue" points="97.46,-195.91 88.74,-201.94 99.31,-202.66 97.46,-195.91"/>
</g>
<!-- Node35 -->
<g id="node8" class="node">
<title>Node35</title>
<g id="a_node8"><a xlink:href="classLambdaCoefficient.html" target="_top" xlink:title=" ">
<polygon fill="none" stroke="black" points="172.5,-98.5 172.5,-128.5 293.5,-128.5 293.5,-98.5 172.5,-98.5"/>
<text text-anchor="start" x="180.5" y="-116.5" font-family="serif" font-size="10.00">LambdaCoefficient&lt;</text>
<text text-anchor="middle" x="233" y="-105.5" font-family="serif" font-size="10.00"> ORDER, NAME &gt;</text>
</a>
</g>
</g>
<!-- Node28&#45;&gt;Node35 -->
<g id="edge7" class="edge">
<title>Node28&#45;&gt;Node35</title>
<path fill="none" stroke="midnightblue" d="M70.02,-194.56C86.57,-178 113.88,-153.2 142,-138.5 151.34,-133.62 161.74,-129.6 172.06,-126.33"/>
<polygon fill="midnightblue" stroke="midnightblue" points="67.29,-192.35 62.8,-201.95 72.29,-197.24 67.29,-192.35"/>
</g>
<!-- Node36 -->
<g id="node9" class="node">
<title>Node36</title>
<g id="a_node9"><a xlink:href="classMobilityCoefficient.html" target="_top" xlink:title=" ">
<polygon fill="none" stroke="black" points="173.5,-49.5 173.5,-79.5 292.5,-79.5 292.5,-49.5 173.5,-49.5"/>
<text text-anchor="start" x="181.5" y="-67.5" font-family="serif" font-size="10.00">MobilityCoefficient</text>
<text text-anchor="middle" x="233" y="-56.5" font-family="serif" font-size="10.00">&lt; ORDER, NAME &gt;</text>
</a>
</g>
</g>
<!-- Node28&#45;&gt;Node36 -->
<g id="edge8" class="edge">
<title>Node28&#45;&gt;Node36</title>
<path fill="none" stroke="midnightblue" d="M62.46,-192.73C75.59,-165.77 103.43,-116.37 142,-89.5 151.31,-83.01 162.26,-78.2 173.26,-74.64"/>
<polygon fill="midnightblue" stroke="midnightblue" points="59.25,-191.34 58.16,-201.87 65.59,-194.32 59.25,-191.34"/>
</g>
<!-- Node37 -->
<g id="node10" class="node">
<title>Node37</title>
<g id="a_node10"><a xlink:href="classOmegaCoefficient.html" target="_top" xlink:title=" ">
<polygon fill="none" stroke="black" points="152.5,-0.5 152.5,-30.5 313.5,-30.5 313.5,-0.5 152.5,-0.5"/>
<text text-anchor="start" x="160.5" y="-18.5" font-family="serif" font-size="10.00">OmegaCoefficient&lt; ORDER,</text>
<text text-anchor="middle" x="233" y="-7.5" font-family="serif" font-size="10.00"> NAME &gt;</text>
</a>
</g>
</g>
<!-- Node28&#45;&gt;Node37 -->
<g id="edge9" class="edge">
<title>Node28&#45;&gt;Node37</title>
<path fill="none" stroke="midnightblue" d="M58.66,-191.47C68.06,-155.65 92.7,-80.63 142,-40.5 146.78,-36.61 152.12,-33.32 157.76,-30.55"/>
<polygon fill="midnightblue" stroke="midnightblue" points="55.15,-191.08 56.14,-201.63 61.95,-192.77 55.15,-191.08"/>
</g>
</g>
</svg>
