<?xml version="1.0" encoding="UTF-8" standalone="no"?>
<!DOCTYPE svg PUBLIC "-//W3C//DTD SVG 1.1//EN"
 "http://www.w3.org/Graphics/SVG/1.1/DTD/svg11.dtd">
<!-- Generated by graphviz version 2.43.0 (0)
 -->
<!-- Title: Graphical Class Hierarchy Pages: 1 -->
<svg width="372pt" height="66pt"
 viewBox="0.00 0.00 372.00 66.00" xmlns="http://www.w3.org/2000/svg" xmlns:xlink="http://www.w3.org/1999/xlink">
<g id="graph0" class="graph" transform="scale(1 1) rotate(0) translate(4 62)">
<title>Graphical Class Hierarchy</title>
<!-- Node0 -->
<g id="node1" class="node">
<title>Node0</title>
<g id="a_node1"><a xlink:href="classCalphadBase.html" target="_top" xlink:title=" ">
<polygon fill="none" stroke="black" points="0,-19.5 0,-38.5 113,-38.5 113,-19.5 0,-19.5"/>
<text text-anchor="middle" x="56.5" y="-26.5" font-family="serif" font-size="10.00">CalphadBase&lt; T &gt;</text>
</a>
</g>
</g>
<!-- Node1 -->
<g id="node2" class="node">
<title>Node1</title>
<g id="a_node2"><a xlink:href="classAnalyticalIdealSolution.html" target="_top" xlink:title=" ">
<polygon fill="none" stroke="black" points="174.5,-38.5 174.5,-57.5 338.5,-57.5 338.5,-38.5 174.5,-38.5"/>
<text text-anchor="middle" x="256.5" y="-45.5" font-family="serif" font-size="10.00">AnalyticalIdealSolution&lt; T &gt;</text>
</a>
</g>
</g>
<!-- Node0&#45;&gt;Node1 -->
<g id="edge1" class="edge">
<title>Node0&#45;&gt;Node1</title>
<path fill="none" stroke="midnightblue" d="M123.19,-35.3C139.57,-36.88 157.34,-38.58 174.37,-40.22"/>
<polygon fill="midnightblue" stroke="midnightblue" points="123.47,-31.81 113.18,-34.34 122.8,-38.78 123.47,-31.81"/>
</g>
<!-- Node2 -->
<g id="node3" class="node">
<title>Node2</title>
<g id="a_node3"><a xlink:href="classCalphadInformedNeuralNetwork.html" target="_top" xlink:title="Calphad calculation performed by neural network Dedicated to simulations with multicomponent inter&#45;di...">
<polygon fill="none" stroke="black" points="149,-0.5 149,-19.5 364,-19.5 364,-0.5 149,-0.5"/>
<text text-anchor="middle" x="256.5" y="-7.5" font-family="serif" font-size="10.00">CalphadInformedNeuralNetwork&lt; T &gt;</text>
</a>
</g>
</g>
<!-- Node0&#45;&gt;Node2 -->
<g id="edge2" class="edge">
<title>Node0&#45;&gt;Node2</title>
<path fill="none" stroke="midnightblue" d="M123.2,-22.7C133.86,-21.67 145.11,-20.59 156.35,-19.51"/>
<polygon fill="midnightblue" stroke="midnightblue" points="122.8,-19.22 113.18,-23.66 123.47,-26.19 122.8,-19.22"/>
</g>
</g>
</svg>
