<?xml version="1.0" encoding="UTF-8" standalone="no"?>
<!DOCTYPE svg PUBLIC "-//W3C//DTD SVG 1.1//EN"
 "http://www.w3.org/Graphics/SVG/1.1/DTD/svg11.dtd">
<!-- Generated by graphviz version 2.43.0 (0)
 -->
<!-- Title: Graphical Class Hierarchy Pages: 1 -->
<svg width="269pt" height="170pt"
 viewBox="0.00 0.00 269.00 170.00" xmlns="http://www.w3.org/2000/svg" xmlns:xlink="http://www.w3.org/1999/xlink">
<g id="graph0" class="graph" transform="scale(1 1) rotate(0) translate(4 166)">
<title>Graphical Class Hierarchy</title>
<!-- Node84 -->
<g id="node1" class="node">
<title>Node84</title>
<g id="a_node1"><a xlink:title=" ">
<polygon fill="none" stroke="#bfbfbf" points="0,-71.5 0,-90.5 68,-90.5 68,-71.5 0,-71.5"/>
<text text-anchor="middle" x="34" y="-78.5" font-family="serif" font-size="10.00">OPEBASE</text>
</a>
</g>
</g>
<!-- Node0 -->
<g id="node2" class="node">
<title>Node0</title>
<g id="a_node2"><a xlink:href="classDiffusionOperatorBase.html" target="_top" xlink:title="Base class for Mass Diffusion.">
<polygon fill="none" stroke="black" points="104,-120.5 104,-161.5 261,-161.5 261,-120.5 104,-120.5"/>
<text text-anchor="start" x="112" y="-149.5" font-family="serif" font-size="10.00">DiffusionOperatorBase</text>
<text text-anchor="start" x="112" y="-138.5" font-family="serif" font-size="10.00">&lt; T, DIM, NLFI, LHS_NLFI,</text>
<text text-anchor="middle" x="182.5" y="-127.5" font-family="serif" font-size="10.00"> OPEBASE &gt;</text>
</a>
</g>
</g>
<!-- Node84&#45;&gt;Node0 -->
<g id="edge1" class="edge">
<title>Node84&#45;&gt;Node0</title>
<path fill="none" stroke="midnightblue" d="M65.83,-94.72C77.71,-99.93 91.45,-105.84 104,-111 111.61,-114.12 119.67,-117.34 127.61,-120.46"/>
<polygon fill="midnightblue" stroke="midnightblue" points="66.91,-91.38 56.35,-90.55 64.09,-97.78 66.91,-91.38"/>
</g>
<!-- Node86 -->
<g id="node3" class="node">
<title>Node86</title>
<g id="a_node3"><a xlink:href="classHeatOperatorBase.html" target="_top" xlink:title="Base class for Mass Heat.">
<polygon fill="none" stroke="black" points="114,-60.5 114,-101.5 251,-101.5 251,-60.5 114,-60.5"/>
<text text-anchor="start" x="122" y="-89.5" font-family="serif" font-size="10.00">HeatOperatorBase&lt; T,</text>
<text text-anchor="start" x="122" y="-78.5" font-family="serif" font-size="10.00"> DIM, NLFI, LHS_NLFI,</text>
<text text-anchor="middle" x="182.5" y="-67.5" font-family="serif" font-size="10.00"> OPEBASE &gt;</text>
</a>
</g>
</g>
<!-- Node84&#45;&gt;Node86 -->
<g id="edge2" class="edge">
<title>Node84&#45;&gt;Node86</title>
<path fill="none" stroke="midnightblue" d="M78.54,-81C89.68,-81 101.92,-81 113.96,-81"/>
<polygon fill="midnightblue" stroke="midnightblue" points="78.24,-77.5 68.24,-81 78.24,-84.5 78.24,-77.5"/>
</g>
<!-- Node87 -->
<g id="node4" class="node">
<title>Node87</title>
<g id="a_node4"><a xlink:href="classPhaseFieldOperatorBase.html" target="_top" xlink:title="Base class for AllenCahn.">
<polygon fill="none" stroke="black" points="104,-0.5 104,-41.5 261,-41.5 261,-0.5 104,-0.5"/>
<text text-anchor="start" x="112" y="-29.5" font-family="serif" font-size="10.00">PhaseFieldOperatorBase</text>
<text text-anchor="start" x="112" y="-18.5" font-family="serif" font-size="10.00">&lt; T, DIM, NLFI, LHS_NLFI,</text>
<text text-anchor="middle" x="182.5" y="-7.5" font-family="serif" font-size="10.00"> OPEBASE &gt;</text>
</a>
</g>
</g>
<!-- Node84&#45;&gt;Node87 -->
<g id="edge3" class="edge">
<title>Node84&#45;&gt;Node87</title>
<path fill="none" stroke="midnightblue" d="M65.83,-67.28C77.71,-62.07 91.45,-56.16 104,-51 111.61,-47.88 119.67,-44.66 127.61,-41.54"/>
<polygon fill="midnightblue" stroke="midnightblue" points="64.09,-64.22 56.35,-71.45 66.91,-70.62 64.09,-64.22"/>
</g>
</g>
</svg>
