<?xml version="1.0" encoding="UTF-8" standalone="no"?>
<!DOCTYPE svg PUBLIC "-//W3C//DTD SVG 1.1//EN"
 "http://www.w3.org/Graphics/SVG/1.1/DTD/svg11.dtd">
<!-- Generated by graphviz version 2.43.0 (0)
 -->
<!-- Title: Graphical Class Hierarchy Pages: 1 -->
<svg width="954pt" height="472pt"
 viewBox="0.00 0.00 954.00 471.50" xmlns="http://www.w3.org/2000/svg" xmlns:xlink="http://www.w3.org/1999/xlink">
<g id="graph0" class="graph" transform="scale(1 1) rotate(0) translate(4 467.5)">
<title>Graphical Class Hierarchy</title>
<!-- Node3 -->
<g id="node1" class="node">
<title>Node3</title>
<g id="a_node1"><a xlink:title=" ">
<polygon fill="none" stroke="#bfbfbf" points="0,-220.5 0,-250.5 158,-250.5 158,-220.5 0,-220.5"/>
<text text-anchor="start" x="8" y="-238.5" font-family="serif" font-size="10.00">mfem::BlockNonlinearForm</text>
<text text-anchor="middle" x="79" y="-227.5" font-family="serif" font-size="10.00">Integrator</text>
</a>
</g>
</g>
<!-- Node0 -->
<g id="node2" class="node">
<title>Node0</title>
<g id="a_node2"><a xlink:href="classAllenCahnGrainNLFormIntegrator.html" target="_top" xlink:title="Class dedicated to the FV of the Allen Cahn equation.">
<polygon fill="none" stroke="black" points="194,-98.5 194,-128.5 403,-128.5 403,-98.5 194,-98.5"/>
<text text-anchor="start" x="202" y="-116.5" font-family="serif" font-size="10.00">AllenCahnGrainNLFormIntegrator</text>
<text text-anchor="middle" x="298.5" y="-105.5" font-family="serif" font-size="10.00">&lt; VARS, SCHEME, ENERGY, MOBI &gt;</text>
</a>
</g>
</g>
<!-- Node3&#45;&gt;Node0 -->
<g id="edge1" class="edge">
<title>Node3&#45;&gt;Node0</title>
<path fill="none" stroke="midnightblue" d="M153.72,-214.84C155.2,-213.78 156.63,-212.67 158,-211.5 185.54,-188.04 165.75,-161.1 194,-138.5 198.84,-134.63 204.18,-131.35 209.81,-128.56"/>
<polygon fill="midnightblue" stroke="midnightblue" points="151.5,-212.1 144.82,-220.32 155.17,-218.06 151.5,-212.1"/>
</g>
<!-- Node5 -->
<g id="node3" class="node">
<title>Node5</title>
<g id="a_node3"><a xlink:href="classAllenCahnNLFormIntegrator.html" target="_top" xlink:title="Class dedicated to the FV of the Allen Cahn equation.">
<polygon fill="none" stroke="black" points="216.5,-356 216.5,-397 380.5,-397 380.5,-356 216.5,-356"/>
<text text-anchor="start" x="224.5" y="-385" font-family="serif" font-size="10.00">AllenCahnNLFormIntegrator</text>
<text text-anchor="start" x="224.5" y="-374" font-family="serif" font-size="10.00">&lt; VARS, SCHEME, ENERGY,</text>
<text text-anchor="middle" x="298.5" y="-363" font-family="serif" font-size="10.00"> MOBI &gt;</text>
</a>
</g>
</g>
<!-- Node3&#45;&gt;Node5 -->
<g id="edge2" class="edge">
<title>Node3&#45;&gt;Node5</title>
<path fill="none" stroke="midnightblue" d="M97.92,-258.77C118.5,-283.94 154.53,-323.53 194,-346.5 201.03,-350.59 208.67,-354.16 216.49,-357.27"/>
<polygon fill="midnightblue" stroke="midnightblue" points="100.54,-256.44 91.56,-250.83 95.08,-260.82 100.54,-256.44"/>
</g>
<!-- Node10 -->
<g id="node8" class="node">
<title>Node10</title>
<g id="a_node8"><a xlink:href="classBlockAllenCahnNLFormIntegrator.html" target="_top" xlink:title="Class dedicated to the FV of the Allen Cahn equation.">
<polygon fill="none" stroke="black" points="194,-0.5 194,-30.5 403,-30.5 403,-0.5 194,-0.5"/>
<text text-anchor="start" x="202" y="-18.5" font-family="serif" font-size="10.00">BlockAllenCahnNLFormIntegrator</text>
<text text-anchor="middle" x="298.5" y="-7.5" font-family="serif" font-size="10.00">&lt; VARS, SCHEME, ENERGY, MOBI &gt;</text>
</a>
</g>
</g>
<!-- Node3&#45;&gt;Node10 -->
<g id="edge7" class="edge">
<title>Node3&#45;&gt;Node10</title>
<path fill="none" stroke="midnightblue" d="M155.23,-214.3C156.19,-213.4 157.11,-212.47 158,-211.5 210.36,-154.14 139.9,-96.22 194,-40.5 197.73,-36.65 201.95,-33.36 206.49,-30.54"/>
<polygon fill="midnightblue" stroke="midnightblue" points="153.04,-211.57 147.27,-220.45 157.32,-217.11 153.04,-211.57"/>
</g>
<!-- Node11 -->
<g id="node9" class="node">
<title>Node11</title>
<g id="a_node9"><a xlink:href="classCahnHilliardNLFormIntegrator.html" target="_top" xlink:title="Class dedicated to the FV of the Allen Cahn equation.">
<polygon fill="none" stroke="black" points="194,-416.5 194,-446.5 403,-446.5 403,-416.5 194,-416.5"/>
<text text-anchor="start" x="202" y="-434.5" font-family="serif" font-size="10.00">CahnHilliardNLFormIntegrator</text>
<text text-anchor="middle" x="298.5" y="-423.5" font-family="serif" font-size="10.00">&lt; VARS, SCHEME, ENERGY, MOBI &gt;</text>
</a>
</g>
</g>
<!-- Node3&#45;&gt;Node11 -->
<g id="edge8" class="edge">
<title>Node3&#45;&gt;Node11</title>
<path fill="none" stroke="midnightblue" d="M89.51,-260.28C105.29,-297.94 140.53,-369.14 194,-406.5 199.53,-410.36 205.59,-413.64 211.91,-416.4"/>
<polygon fill="midnightblue" stroke="midnightblue" points="92.59,-258.55 85.58,-250.6 86.11,-261.18 92.59,-258.55"/>
</g>
<!-- Node12 -->
<g id="node10" class="node">
<title>Node12</title>
<g id="a_node10"><a xlink:href="classDiffusionFluxNLFormIntegrator.html" target="_top" xlink:title="Class dedicated to the VF of an inter&#45;diffusion equation.">
<polygon fill="none" stroke="black" points="209,-49.5 209,-79.5 388,-79.5 388,-49.5 209,-49.5"/>
<text text-anchor="start" x="217" y="-67.5" font-family="serif" font-size="10.00">DiffusionFluxNLFormIntegrator</text>
<text text-anchor="middle" x="298.5" y="-56.5" font-family="serif" font-size="10.00">&lt; VARS &gt;</text>
</a>
</g>
</g>
<!-- Node3&#45;&gt;Node12 -->
<g id="edge9" class="edge">
<title>Node3&#45;&gt;Node12</title>
<path fill="none" stroke="midnightblue" d="M155.03,-214.28C156.06,-213.39 157.05,-212.46 158,-211.5 197.74,-171.29 153.04,-128.46 194,-89.5 198.42,-85.3 203.42,-81.76 208.78,-78.79"/>
<polygon fill="midnightblue" stroke="midnightblue" points="152.64,-211.69 146.6,-220.39 156.75,-217.36 152.64,-211.69"/>
</g>
<!-- Node15 -->
<g id="node13" class="node">
<title>Node15</title>
<g id="a_node13"><a xlink:href="classDiffusionNLFormIntegrator.html" target="_top" xlink:title="Class dedicated to the FV of the mass diffusion equation.">
<polygon fill="none" stroke="black" points="197.5,-306.5 197.5,-336.5 399.5,-336.5 399.5,-306.5 197.5,-306.5"/>
<text text-anchor="start" x="205.5" y="-324.5" font-family="serif" font-size="10.00">DiffusionNLFormIntegrator</text>
<text text-anchor="middle" x="298.5" y="-313.5" font-family="serif" font-size="10.00">&lt; VARS, SCHEME, DIFFU_NAME &gt;</text>
</a>
</g>
</g>
<!-- Node3&#45;&gt;Node15 -->
<g id="edge12" class="edge">
<title>Node3&#45;&gt;Node15</title>
<path fill="none" stroke="midnightblue" d="M112.75,-255.91C134.98,-269.03 165.43,-285.61 194,-296.5 203.85,-300.25 214.44,-303.57 224.96,-306.47"/>
<polygon fill="midnightblue" stroke="midnightblue" points="114.43,-252.84 104.05,-250.71 110.83,-258.84 114.43,-252.84"/>
</g>
<!-- Node16 -->
<g id="node14" class="node">
<title>Node16</title>
<g id="a_node14"><a xlink:href="classHeatNLFormIntegrator.html" target="_top" xlink:title="Class dedicated to the FV of the heat transfer equation.">
<polygon fill="none" stroke="black" points="223.5,-246 223.5,-287 373.5,-287 373.5,-246 223.5,-246"/>
<text text-anchor="start" x="231.5" y="-275" font-family="serif" font-size="10.00">HeatNLFormIntegrator</text>
<text text-anchor="start" x="231.5" y="-264" font-family="serif" font-size="10.00">&lt; VARS, SCHEME, COND</text>
<text text-anchor="middle" x="298.5" y="-253" font-family="serif" font-size="10.00">_NAME &gt;</text>
</a>
</g>
</g>
<!-- Node3&#45;&gt;Node16 -->
<g id="edge13" class="edge">
<title>Node3&#45;&gt;Node16</title>
<path fill="none" stroke="midnightblue" d="M168.26,-248.08C186.51,-250.68 205.56,-253.4 223.25,-255.92"/>
<polygon fill="midnightblue" stroke="midnightblue" points="168.61,-244.59 158.22,-246.65 167.62,-251.52 168.61,-244.59"/>
</g>
<!-- Node17 -->
<g id="node15" class="node">
<title>Node17</title>
<g id="a_node15"><a xlink:href="classTimeCHNLFormIntegrator.html" target="_top" xlink:title="Class dedicated to the FV of the Allen Cahn equation.">
<polygon fill="none" stroke="black" points="222,-196.5 222,-226.5 375,-226.5 375,-196.5 222,-196.5"/>
<text text-anchor="start" x="230" y="-214.5" font-family="serif" font-size="10.00">TimeCHNLFormIntegrator</text>
<text text-anchor="middle" x="298.5" y="-203.5" font-family="serif" font-size="10.00">&lt; VARS &gt;</text>
</a>
</g>
</g>
<!-- Node3&#45;&gt;Node17 -->
<g id="edge14" class="edge">
<title>Node3&#45;&gt;Node17</title>
<path fill="none" stroke="midnightblue" d="M168.52,-225.73C186.19,-223.78 204.6,-221.75 221.8,-219.85"/>
<polygon fill="midnightblue" stroke="midnightblue" points="167.77,-222.29 158.22,-226.87 168.54,-229.25 167.77,-222.29"/>
</g>
<!-- Node18 -->
<g id="node16" class="node">
<title>Node18</title>
<g id="a_node16"><a xlink:href="classTimeNLFormIntegrator.html" target="_top" xlink:title="Class dedicated to the FV of the Allen Cahn equation.">
<polygon fill="none" stroke="black" points="230,-147.5 230,-177.5 367,-177.5 367,-147.5 230,-147.5"/>
<text text-anchor="start" x="238" y="-165.5" font-family="serif" font-size="10.00">TimeNLFormIntegrator</text>
<text text-anchor="middle" x="298.5" y="-154.5" font-family="serif" font-size="10.00">&lt; VARS &gt;</text>
</a>
</g>
</g>
<!-- Node3&#45;&gt;Node18 -->
<g id="edge15" class="edge">
<title>Node3&#45;&gt;Node18</title>
<path fill="none" stroke="midnightblue" d="M145.56,-216.87C149.82,-215.19 154,-213.4 158,-211.5 175.37,-203.25 176.38,-195.21 194,-187.5 205.26,-182.57 217.66,-178.52 229.84,-175.21"/>
<polygon fill="midnightblue" stroke="midnightblue" points="144.29,-213.61 136.14,-220.38 146.74,-220.17 144.29,-213.61"/>
</g>
<!-- Node6 -->
<g id="node4" class="node">
<title>Node6</title>
<g id="a_node4"><a xlink:href="classAllenCahnMeltingBaseNLFormIntegrator.html" target="_top" xlink:title=" ">
<polygon fill="none" stroke="black" points="439,-356 439,-397 647,-397 647,-356 439,-356"/>
<text text-anchor="start" x="447" y="-385" font-family="serif" font-size="10.00">AllenCahnMeltingBaseNLForm</text>
<text text-anchor="start" x="447" y="-374" font-family="serif" font-size="10.00">Integrator&lt; VARS, SCHEME,</text>
<text text-anchor="middle" x="543" y="-363" font-family="serif" font-size="10.00"> ENERGY, MOBI, INTERPOLATION &gt;</text>
</a>
</g>
</g>
<!-- Node5&#45;&gt;Node6 -->
<g id="edge3" class="edge">
<title>Node5&#45;&gt;Node6</title>
<path fill="none" stroke="midnightblue" d="M390.81,-376.5C406.54,-376.5 422.99,-376.5 439,-376.5"/>
<polygon fill="midnightblue" stroke="midnightblue" points="390.59,-373 380.59,-376.5 390.59,-380 390.59,-373"/>
</g>
<!-- Node7 -->
<g id="node5" class="node">
<title>Node7</title>
<g id="a_node5"><a xlink:href="classAllenCahnCalphadMeltingNLFormIntegrator.html" target="_top" xlink:title=" ">
<polygon fill="none" stroke="black" points="710.5,-422 710.5,-463 918.5,-463 918.5,-422 710.5,-422"/>
<text text-anchor="start" x="718.5" y="-451" font-family="serif" font-size="10.00">AllenCahnCalphadMeltingNLForm</text>
<text text-anchor="start" x="718.5" y="-440" font-family="serif" font-size="10.00">Integrator&lt; VARS, SCHEME,</text>
<text text-anchor="middle" x="814.5" y="-429" font-family="serif" font-size="10.00"> ENERGY, MOBI, INTERPOLATION &gt;</text>
</a>
</g>
</g>
<!-- Node6&#45;&gt;Node7 -->
<g id="edge4" class="edge">
<title>Node6&#45;&gt;Node7</title>
<path fill="none" stroke="midnightblue" d="M631.74,-399.61C648.73,-403.98 666.4,-408.44 683,-412.5 695.76,-415.62 709.24,-418.82 722.51,-421.92"/>
<polygon fill="midnightblue" stroke="midnightblue" points="632.39,-396.17 621.83,-397.06 630.64,-402.95 632.39,-396.17"/>
</g>
<!-- Node8 -->
<g id="node6" class="node">
<title>Node8</title>
<g id="a_node6"><a xlink:href="classAllenCahnConstantMeltingNLFormIntegrator.html" target="_top" xlink:title=" ">
<polygon fill="none" stroke="black" points="735.5,-350.5 735.5,-402.5 893.5,-402.5 893.5,-350.5 735.5,-350.5"/>
<text text-anchor="start" x="743.5" y="-390.5" font-family="serif" font-size="10.00">AllenCahnConstantMelting</text>
<text text-anchor="start" x="743.5" y="-379.5" font-family="serif" font-size="10.00">NLFormIntegrator&lt; VARS,</text>
<text text-anchor="start" x="743.5" y="-368.5" font-family="serif" font-size="10.00"> SCHEME, ENERGY, MOBI,</text>
<text text-anchor="middle" x="814.5" y="-357.5" font-family="serif" font-size="10.00"> INTERPOLATION &gt;</text>
</a>
</g>
</g>
<!-- Node6&#45;&gt;Node8 -->
<g id="edge5" class="edge">
<title>Node6&#45;&gt;Node8</title>
<path fill="none" stroke="midnightblue" d="M657.06,-376.5C683.38,-376.5 710.82,-376.5 735.25,-376.5"/>
<polygon fill="midnightblue" stroke="midnightblue" points="657.04,-373 647.04,-376.5 657.04,-380 657.04,-373"/>
</g>
<!-- Node9 -->
<g id="node7" class="node">
<title>Node9</title>
<g id="a_node7"><a xlink:href="classAllenCahnTemperatureMeltingNLFormIntegrator.html" target="_top" xlink:title=" ">
<polygon fill="none" stroke="black" points="683,-290 683,-331 946,-331 946,-290 683,-290"/>
<text text-anchor="start" x="691" y="-319" font-family="serif" font-size="10.00">AllenCahnTemperatureMelting</text>
<text text-anchor="start" x="691" y="-308" font-family="serif" font-size="10.00">NLFormIntegrator&lt; VARS,</text>
<text text-anchor="middle" x="814.5" y="-297" font-family="serif" font-size="10.00"> SCHEME, ENERGY, MOBI, INTERPOLATION &gt;</text>
</a>
</g>
</g>
<!-- Node6&#45;&gt;Node9 -->
<g id="edge6" class="edge">
<title>Node6&#45;&gt;Node9</title>
<path fill="none" stroke="midnightblue" d="M634.73,-353.47C650.8,-349.44 667.39,-345.32 683,-341.5 697.02,-338.07 711.91,-334.48 726.42,-331.01"/>
<polygon fill="midnightblue" stroke="midnightblue" points="633.65,-350.13 624.81,-355.96 635.36,-356.92 633.65,-350.13"/>
</g>
<!-- Node13 -->
<g id="node11" class="node">
<title>Node13</title>
<g id="a_node11"><a xlink:href="classMassDiffusionFluxNLFormIntegrator.html" target="_top" xlink:title="Class dedicated to the VF of diffusion flux (gradient of chemical potential) used in mass balance equ...">
<polygon fill="none" stroke="black" points="440,-24.5 440,-54.5 646,-54.5 646,-24.5 440,-24.5"/>
<text text-anchor="start" x="448" y="-42.5" font-family="serif" font-size="10.00">MassDiffusionFluxNLFormIntegrator</text>
<text text-anchor="middle" x="543" y="-31.5" font-family="serif" font-size="10.00">&lt; VARS &gt;</text>
</a>
</g>
</g>
<!-- Node12&#45;&gt;Node13 -->
<g id="edge10" class="edge">
<title>Node12&#45;&gt;Node13</title>
<path fill="none" stroke="midnightblue" d="M398.4,-54.3C412.02,-52.9 426.02,-51.46 439.69,-50.05"/>
<polygon fill="midnightblue" stroke="midnightblue" points="397.67,-50.86 388.08,-55.37 398.38,-57.82 397.67,-50.86"/>
</g>
<!-- Node14 -->
<g id="node12" class="node">
<title>Node14</title>
<g id="a_node12"><a xlink:href="classThermalDiffusionFluxNLFormIntegrator.html" target="_top" xlink:title="Class dedicated to the VF of thermal diffusion flux used in energy balance equation.">
<polygon fill="none" stroke="black" points="458,-73.5 458,-103.5 628,-103.5 628,-73.5 458,-73.5"/>
<text text-anchor="start" x="466" y="-91.5" font-family="serif" font-size="10.00">ThermalDiffusionFluxNLForm</text>
<text text-anchor="middle" x="543" y="-80.5" font-family="serif" font-size="10.00">Integrator&lt; VARS &gt;</text>
</a>
</g>
</g>
<!-- Node12&#45;&gt;Node14 -->
<g id="edge11" class="edge">
<title>Node12&#45;&gt;Node14</title>
<path fill="none" stroke="midnightblue" d="M398.3,-74.28C418.01,-76.23 438.53,-78.26 457.7,-80.16"/>
<polygon fill="midnightblue" stroke="midnightblue" points="398.37,-70.77 388.08,-73.27 397.68,-77.73 398.37,-70.77"/>
</g>
<!-- Node141 -->
<g id="node17" class="node">
<title>Node141</title>
<g id="a_node17"><a xlink:href="classSlothNLFormIntegrator.html" target="_top" xlink:title="Class prodiving common methods to all NLFormIntegrators.">
<polygon fill="none" stroke="black" points="10.5,-171.5 10.5,-201.5 147.5,-201.5 147.5,-171.5 10.5,-171.5"/>
<text text-anchor="start" x="18.5" y="-189.5" font-family="serif" font-size="10.00">SlothNLFormIntegrator</text>
<text text-anchor="middle" x="79" y="-178.5" font-family="serif" font-size="10.00">&lt; VARS &gt;</text>
</a>
</g>
</g>
<!-- Node141&#45;&gt;Node0 -->
<g id="edge16" class="edge">
<title>Node141&#45;&gt;Node0</title>
<path fill="none" stroke="midnightblue" d="M121.03,-167.33C142.46,-157.8 169.3,-146.62 194,-138.5 204.98,-134.89 216.76,-131.55 228.31,-128.57"/>
<polygon fill="midnightblue" stroke="midnightblue" points="119.59,-164.14 111.9,-171.43 122.46,-170.52 119.59,-164.14"/>
</g>
<!-- Node141&#45;&gt;Node5 -->
<g id="edge17" class="edge">
<title>Node141&#45;&gt;Node5</title>
<path fill="none" stroke="midnightblue" d="M154.06,-207.77C155.44,-208.95 156.75,-210.19 158,-211.5 200.81,-256.48 150.57,-302.12 194,-346.5 200.35,-352.98 208,-358.09 216.25,-362.1"/>
<polygon fill="midnightblue" stroke="midnightblue" points="155.79,-204.7 145.62,-201.72 151.71,-210.39 155.79,-204.7"/>
</g>
<!-- Node141&#45;&gt;Node10 -->
<g id="edge18" class="edge">
<title>Node141&#45;&gt;Node10</title>
<path fill="none" stroke="midnightblue" d="M92.05,-162.45C109.78,-129.64 146.02,-71.42 194,-40.5 200.06,-36.59 206.68,-33.3 213.54,-30.52"/>
<polygon fill="midnightblue" stroke="midnightblue" points="88.92,-160.89 87.35,-171.37 95.11,-164.15 88.92,-160.89"/>
</g>
<!-- Node141&#45;&gt;Node11 -->
<g id="edge19" class="edge">
<title>Node141&#45;&gt;Node11</title>
<path fill="none" stroke="midnightblue" d="M154.31,-207.74C155.61,-208.93 156.84,-210.18 158,-211.5 216.22,-277.66 133.4,-342.51 194,-406.5 197.56,-410.26 201.58,-413.49 205.91,-416.27"/>
<polygon fill="midnightblue" stroke="midnightblue" points="156.39,-204.92 146.31,-201.64 152.14,-210.49 156.39,-204.92"/>
</g>
<!-- Node141&#45;&gt;Node12 -->
<g id="edge20" class="edge">
<title>Node141&#45;&gt;Node12</title>
<path fill="none" stroke="midnightblue" d="M100.39,-163.82C121.63,-141.59 156.92,-108.38 194,-89.5 201.58,-85.64 209.77,-82.36 218.12,-79.58"/>
<polygon fill="midnightblue" stroke="midnightblue" points="97.77,-161.49 93.49,-171.18 102.88,-166.28 97.77,-161.49"/>
</g>
<!-- Node141&#45;&gt;Node15 -->
<g id="edge21" class="edge">
<title>Node141&#45;&gt;Node15</title>
<path fill="none" stroke="midnightblue" d="M152.61,-207.11C154.49,-208.48 156.29,-209.94 158,-211.5 188.29,-239.17 162.72,-269.96 194,-296.5 198.51,-300.33 203.51,-303.59 208.81,-306.36"/>
<polygon fill="midnightblue" stroke="midnightblue" points="154.25,-204.01 143.91,-201.67 150.53,-209.94 154.25,-204.01"/>
</g>
<!-- Node141&#45;&gt;Node16 -->
<g id="edge22" class="edge">
<title>Node141&#45;&gt;Node16</title>
<path fill="none" stroke="midnightblue" d="M143.66,-205.14C148.58,-207.12 153.42,-209.24 158,-211.5 175.47,-220.12 176.41,-228.12 194,-236.5 203.29,-240.93 213.36,-244.83 223.46,-248.24"/>
<polygon fill="midnightblue" stroke="midnightblue" points="144.71,-201.8 134.12,-201.53 142.23,-208.34 144.71,-201.8"/>
</g>
<!-- Node141&#45;&gt;Node17 -->
<g id="edge23" class="edge">
<title>Node141&#45;&gt;Node17</title>
<path fill="none" stroke="midnightblue" d="M157.73,-195.43C178.63,-197.84 201.18,-200.43 221.96,-202.82"/>
<polygon fill="midnightblue" stroke="midnightblue" points="157.96,-191.94 147.63,-194.27 157.16,-198.89 157.96,-191.94"/>
</g>
<!-- Node141&#45;&gt;Node18 -->
<g id="edge24" class="edge">
<title>Node141&#45;&gt;Node18</title>
<path fill="none" stroke="midnightblue" d="M157.61,-177.94C181.23,-175.33 207.01,-172.49 229.92,-169.96"/>
<polygon fill="midnightblue" stroke="midnightblue" points="157.18,-174.46 147.63,-179.04 157.95,-181.42 157.18,-174.46"/>
</g>
</g>
</svg>
