<?xml version="1.0" encoding="UTF-8" standalone="no"?>
<!DOCTYPE svg PUBLIC "-//W3C//DTD SVG 1.1//EN"
 "http://www.w3.org/Graphics/SVG/1.1/DTD/svg11.dtd">
<!-- Generated by graphviz version 2.43.0 (0)
 -->
<!-- Title: Graphical Class Hierarchy Pages: 1 -->
<svg width="999pt" height="374pt"
 viewBox="0.00 0.00 999.00 373.50" xmlns="http://www.w3.org/2000/svg" xmlns:xlink="http://www.w3.org/1999/xlink">
<g id="graph0" class="graph" transform="scale(1 1) rotate(0) translate(4 369.5)">
<title>Graphical Class Hierarchy</title>
<!-- Node88 -->
<g id="node1" class="node">
<title>Node88</title>
<g id="a_node1"><a xlink:title=" ">
<polygon fill="none" stroke="#bfbfbf" points="0,-185.5 0,-204.5 98,-204.5 98,-185.5 0,-185.5"/>
<text text-anchor="middle" x="49" y="-192.5" font-family="serif" font-size="10.00">mfem::Operator</text>
</a>
</g>
</g>
<!-- Node0 -->
<g id="node2" class="node">
<title>Node0</title>
<g id="a_node2"><a xlink:href="classOperatorBase.html" target="_top" xlink:title="Base class for building Steady and TimeDependent PhaseFieldOperators.">
<polygon fill="none" stroke="black" points="166,-224 166,-254 301,-254 301,-224 166,-224"/>
<text text-anchor="start" x="174" y="-242" font-family="serif" font-size="10.00">OperatorBase&lt; T, DIM,</text>
<text text-anchor="middle" x="233.5" y="-231" font-family="serif" font-size="10.00"> NLFI, LHS_NLFI &gt;</text>
</a>
</g>
</g>
<!-- Node88&#45;&gt;Node0 -->
<g id="edge1" class="edge">
<title>Node88&#45;&gt;Node0</title>
<path fill="none" stroke="midnightblue" d="M99.59,-206.96C121.3,-212.19 147.01,-218.39 170.01,-223.93"/>
<polygon fill="midnightblue" stroke="midnightblue" points="100.14,-203.49 89.6,-204.55 98.5,-210.29 100.14,-203.49"/>
</g>
<!-- Node104 -->
<g id="node17" class="node">
<title>Node104</title>
<g id="a_node17"><a xlink:href="classPhaseFieldReducedOperator.html" target="_top" xlink:title=" ">
<polygon fill="none" stroke="black" points="151.5,-185.5 151.5,-204.5 315.5,-204.5 315.5,-185.5 151.5,-185.5"/>
<text text-anchor="middle" x="233.5" y="-192.5" font-family="serif" font-size="10.00">PhaseFieldReducedOperator</text>
</a>
</g>
</g>
<!-- Node88&#45;&gt;Node104 -->
<g id="edge16" class="edge">
<title>Node88&#45;&gt;Node104</title>
<path fill="none" stroke="midnightblue" d="M108.6,-195C122.23,-195 136.97,-195 151.37,-195"/>
<polygon fill="midnightblue" stroke="midnightblue" points="108.43,-191.5 98.43,-195 108.43,-198.5 108.43,-191.5"/>
</g>
<!-- Node105 -->
<g id="node18" class="node">
<title>Node105</title>
<g id="a_node18"><a xlink:href="classSteadyPhaseFieldReducedOperator.html" target="_top" xlink:title=" ">
<polygon fill="none" stroke="black" points="134,-147.5 134,-166.5 333,-166.5 333,-147.5 134,-147.5"/>
<text text-anchor="middle" x="233.5" y="-154.5" font-family="serif" font-size="10.00">SteadyPhaseFieldReducedOperator</text>
</a>
</g>
</g>
<!-- Node88&#45;&gt;Node105 -->
<g id="edge17" class="edge">
<title>Node88&#45;&gt;Node105</title>
<path fill="none" stroke="midnightblue" d="M100.8,-183.23C111.74,-180.78 123.24,-178.25 134,-176 149.43,-172.77 166.26,-169.45 181.57,-166.5"/>
<polygon fill="midnightblue" stroke="midnightblue" points="99.94,-179.84 90.96,-185.46 101.48,-186.67 99.94,-179.84"/>
</g>
<!-- Node1 -->
<g id="node3" class="node">
<title>Node1</title>
<g id="a_node3"><a xlink:href="classSteadyOperatorBase.html" target="_top" xlink:title="SteadyOperatorBase class.">
<polygon fill="none" stroke="black" points="390.5,-219.5 390.5,-260.5 512.5,-260.5 512.5,-219.5 390.5,-219.5"/>
<text text-anchor="start" x="398.5" y="-248.5" font-family="serif" font-size="10.00">SteadyOperatorBase</text>
<text text-anchor="start" x="398.5" y="-237.5" font-family="serif" font-size="10.00">&lt; T, DIM, NLFI, LHS</text>
<text text-anchor="middle" x="451.5" y="-226.5" font-family="serif" font-size="10.00">_NLFI &gt;</text>
</a>
</g>
</g>
<!-- Node0&#45;&gt;Node1 -->
<g id="edge2" class="edge">
<title>Node0&#45;&gt;Node1</title>
<path fill="none" stroke="midnightblue" d="M311.26,-239.36C337.25,-239.48 365.88,-239.61 390.39,-239.72"/>
<polygon fill="midnightblue" stroke="midnightblue" points="311.09,-235.85 301.07,-239.31 311.05,-242.85 311.09,-235.85"/>
</g>
<!-- Node8 -->
<g id="node10" class="node">
<title>Node8</title>
<g id="a_node10"><a xlink:href="classTransientOperatorBase.html" target="_top" xlink:title="TransientOperatorBase class.">
<polygon fill="none" stroke="black" points="369,-69 369,-99 534,-99 534,-69 369,-69"/>
<text text-anchor="start" x="377" y="-87" font-family="serif" font-size="10.00">TransientOperatorBase</text>
<text text-anchor="middle" x="451.5" y="-76" font-family="serif" font-size="10.00">&lt; T, DIM, NLFI, LHS_NLFI &gt;</text>
</a>
</g>
</g>
<!-- Node0&#45;&gt;Node8 -->
<g id="edge9" class="edge">
<title>Node0&#45;&gt;Node8</title>
<path fill="none" stroke="midnightblue" d="M310.64,-224.56C318.46,-221.66 326.07,-218.17 333,-214 382.77,-184.02 423.68,-126.41 441.25,-99.09"/>
<polygon fill="midnightblue" stroke="midnightblue" points="309.37,-221.29 301.03,-227.82 311.62,-227.92 309.37,-221.29"/>
</g>
<!-- Node2 -->
<g id="node4" class="node">
<title>Node2</title>
<g id="a_node4"><a xlink:href="classDiffusionOperatorBase.html" target="_top" xlink:title=" ">
<polygon fill="none" stroke="black" points="588,-313 588,-365 770,-365 770,-313 588,-313"/>
<text text-anchor="start" x="596" y="-353" font-family="serif" font-size="10.00">DiffusionOperatorBase</text>
<text text-anchor="start" x="596" y="-342" font-family="serif" font-size="10.00">&lt; T, DIM, NLFI, mfem</text>
<text text-anchor="start" x="596" y="-331" font-family="serif" font-size="10.00">::BlockNonlinearFormIntegrator,</text>
<text text-anchor="middle" x="679" y="-320" font-family="serif" font-size="10.00"> SteadyOperatorBase &gt;</text>
</a>
</g>
</g>
<!-- Node1&#45;&gt;Node2 -->
<g id="edge3" class="edge">
<title>Node1&#45;&gt;Node2</title>
<path fill="none" stroke="midnightblue" d="M496.19,-265.72C517.94,-277.93 544.89,-292.18 570,-303 577.99,-306.44 586.42,-309.76 594.9,-312.91"/>
<polygon fill="midnightblue" stroke="midnightblue" points="497.63,-262.52 487.2,-260.63 494.18,-268.61 497.63,-262.52"/>
</g>
<!-- Node4 -->
<g id="node6" class="node">
<title>Node4</title>
<g id="a_node6"><a xlink:href="classHeatOperatorBase.html" target="_top" xlink:title=" ">
<polygon fill="none" stroke="black" points="570,-252.5 570,-293.5 788,-293.5 788,-252.5 570,-252.5"/>
<text text-anchor="start" x="578" y="-281.5" font-family="serif" font-size="10.00">HeatOperatorBase&lt; T,</text>
<text text-anchor="start" x="578" y="-270.5" font-family="serif" font-size="10.00"> DIM, NLFI, mfem::BlockNonlinear</text>
<text text-anchor="middle" x="679" y="-259.5" font-family="serif" font-size="10.00">FormIntegrator, SteadyOperatorBase &gt;</text>
</a>
</g>
</g>
<!-- Node1&#45;&gt;Node4 -->
<g id="edge5" class="edge">
<title>Node1&#45;&gt;Node4</title>
<path fill="none" stroke="midnightblue" d="M522.76,-250.28C537.67,-252.46 553.75,-254.82 569.71,-257.15"/>
<polygon fill="midnightblue" stroke="midnightblue" points="523.04,-246.79 512.63,-248.8 522.02,-253.71 523.04,-246.79"/>
</g>
<!-- Node6 -->
<g id="node8" class="node">
<title>Node6</title>
<g id="a_node8"><a xlink:href="classPhaseFieldOperatorBase.html" target="_top" xlink:title=" ">
<polygon fill="none" stroke="black" points="591,-181 591,-233 767,-233 767,-181 591,-181"/>
<text text-anchor="start" x="599" y="-221" font-family="serif" font-size="10.00">PhaseFieldOperatorBase</text>
<text text-anchor="start" x="599" y="-210" font-family="serif" font-size="10.00">&lt; T, DIM, NLFI, mfem::</text>
<text text-anchor="start" x="599" y="-199" font-family="serif" font-size="10.00">BlockNonlinearFormIntegrator,</text>
<text text-anchor="middle" x="679" y="-188" font-family="serif" font-size="10.00"> SteadyOperatorBase &gt;</text>
</a>
</g>
</g>
<!-- Node1&#45;&gt;Node6 -->
<g id="edge7" class="edge">
<title>Node1&#45;&gt;Node6</title>
<path fill="none" stroke="midnightblue" d="M522.69,-229.73C544.29,-226.57 568.33,-223.05 590.91,-219.74"/>
<polygon fill="midnightblue" stroke="midnightblue" points="522.02,-226.29 512.63,-231.2 523.04,-233.21 522.02,-226.29"/>
</g>
<!-- Node3 -->
<g id="node5" class="node">
<title>Node3</title>
<g id="a_node5"><a xlink:href="classSteadyDiffusionOperator.html" target="_top" xlink:title="Class SteadyDiffusionOperator.">
<polygon fill="none" stroke="black" points="825,-324 825,-354 990,-354 990,-324 825,-324"/>
<text text-anchor="start" x="833" y="-342" font-family="serif" font-size="10.00">SteadyDiffusionOperator</text>
<text text-anchor="middle" x="907.5" y="-331" font-family="serif" font-size="10.00">&lt; T, DIM, NLFI, LHS_NLFI &gt;</text>
</a>
</g>
</g>
<!-- Node2&#45;&gt;Node3 -->
<g id="edge4" class="edge">
<title>Node2&#45;&gt;Node3</title>
<path fill="none" stroke="midnightblue" d="M780.37,-339C795.2,-339 810.33,-339 824.72,-339"/>
<polygon fill="midnightblue" stroke="midnightblue" points="780.17,-335.5 770.17,-339 780.17,-342.5 780.17,-335.5"/>
</g>
<!-- Node5 -->
<g id="node7" class="node">
<title>Node5</title>
<g id="a_node7"><a xlink:href="classSteadyHeatOperator.html" target="_top" xlink:title="Class SteadyHeatOperator.">
<polygon fill="none" stroke="black" points="846.5,-252.5 846.5,-293.5 968.5,-293.5 968.5,-252.5 846.5,-252.5"/>
<text text-anchor="start" x="854.5" y="-281.5" font-family="serif" font-size="10.00">SteadyHeatOperator</text>
<text text-anchor="start" x="854.5" y="-270.5" font-family="serif" font-size="10.00">&lt; T, DIM, NLFI, LHS</text>
<text text-anchor="middle" x="907.5" y="-259.5" font-family="serif" font-size="10.00">_NLFI &gt;</text>
</a>
</g>
</g>
<!-- Node4&#45;&gt;Node5 -->
<g id="edge6" class="edge">
<title>Node4&#45;&gt;Node5</title>
<path fill="none" stroke="midnightblue" d="M798.6,-273C815.18,-273 831.6,-273 846.44,-273"/>
<polygon fill="midnightblue" stroke="midnightblue" points="798.27,-269.5 788.27,-273 798.27,-276.5 798.27,-269.5"/>
</g>
<!-- Node7 -->
<g id="node9" class="node">
<title>Node7</title>
<g id="a_node9"><a xlink:href="classSteadyPhaseFieldOperator.html" target="_top" xlink:title="Class SteadyPhaseFieldOperator.">
<polygon fill="none" stroke="black" points="825,-192 825,-222 990,-222 990,-192 825,-192"/>
<text text-anchor="start" x="833" y="-210" font-family="serif" font-size="10.00">SteadyPhaseFieldOperator</text>
<text text-anchor="middle" x="907.5" y="-199" font-family="serif" font-size="10.00">&lt; T, DIM, NLFI, LHS_NLFI &gt;</text>
</a>
</g>
</g>
<!-- Node6&#45;&gt;Node7 -->
<g id="edge8" class="edge">
<title>Node6&#45;&gt;Node7</title>
<path fill="none" stroke="midnightblue" d="M777.54,-207C793.32,-207 809.52,-207 824.87,-207"/>
<polygon fill="midnightblue" stroke="midnightblue" points="777.25,-203.5 767.25,-207 777.25,-210.5 777.25,-203.5"/>
</g>
<!-- Node9 -->
<g id="node11" class="node">
<title>Node9</title>
<g id="a_node11"><a xlink:href="classDiffusionOperatorBase.html" target="_top" xlink:title=" ">
<polygon fill="none" stroke="black" points="600.5,-120.5 600.5,-161.5 757.5,-161.5 757.5,-120.5 600.5,-120.5"/>
<text text-anchor="start" x="608.5" y="-149.5" font-family="serif" font-size="10.00">DiffusionOperatorBase</text>
<text text-anchor="start" x="608.5" y="-138.5" font-family="serif" font-size="10.00">&lt; T, DIM, NLFI, LHS_NLFI,</text>
<text text-anchor="middle" x="679" y="-127.5" font-family="serif" font-size="10.00"> TransientOperatorBase &gt;</text>
</a>
</g>
</g>
<!-- Node8&#45;&gt;Node9 -->
<g id="edge10" class="edge">
<title>Node8&#45;&gt;Node9</title>
<path fill="none" stroke="midnightblue" d="M521.74,-101.5C546.58,-107.78 574.74,-114.9 600.24,-121.35"/>
<polygon fill="midnightblue" stroke="midnightblue" points="522.6,-98.11 512.04,-99.05 520.88,-104.89 522.6,-98.11"/>
</g>
<!-- Node11 -->
<g id="node13" class="node">
<title>Node11</title>
<g id="a_node13"><a xlink:href="classHeatOperatorBase.html" target="_top" xlink:title=" ">
<polygon fill="none" stroke="black" points="604,-60.5 604,-101.5 754,-101.5 754,-60.5 604,-60.5"/>
<text text-anchor="start" x="612" y="-89.5" font-family="serif" font-size="10.00">HeatOperatorBase&lt; T,</text>
<text text-anchor="start" x="612" y="-78.5" font-family="serif" font-size="10.00"> DIM, NLFI, LHS_NLFI,</text>
<text text-anchor="middle" x="679" y="-67.5" font-family="serif" font-size="10.00"> TransientOperatorBase &gt;</text>
</a>
</g>
</g>
<!-- Node8&#45;&gt;Node11 -->
<g id="edge12" class="edge">
<title>Node8&#45;&gt;Node11</title>
<path fill="none" stroke="midnightblue" d="M544.44,-82.78C564.14,-82.51 584.72,-82.24 603.66,-81.99"/>
<polygon fill="midnightblue" stroke="midnightblue" points="544.18,-79.28 534.23,-82.91 544.28,-86.28 544.18,-79.28"/>
</g>
<!-- Node13 -->
<g id="node15" class="node">
<title>Node13</title>
<g id="a_node15"><a xlink:href="classPhaseFieldOperatorBase.html" target="_top" xlink:title=" ">
<polygon fill="none" stroke="black" points="600.5,-0.5 600.5,-41.5 757.5,-41.5 757.5,-0.5 600.5,-0.5"/>
<text text-anchor="start" x="608.5" y="-29.5" font-family="serif" font-size="10.00">PhaseFieldOperatorBase</text>
<text text-anchor="start" x="608.5" y="-18.5" font-family="serif" font-size="10.00">&lt; T, DIM, NLFI, LHS_NLFI,</text>
<text text-anchor="middle" x="679" y="-7.5" font-family="serif" font-size="10.00"> TransientOperatorBase &gt;</text>
</a>
</g>
</g>
<!-- Node8&#45;&gt;Node13 -->
<g id="edge14" class="edge">
<title>Node8&#45;&gt;Node13</title>
<path fill="none" stroke="midnightblue" d="M516.1,-66.1C533.57,-61.2 552.51,-55.88 570,-51 580.96,-47.94 592.56,-44.71 603.92,-41.55"/>
<polygon fill="midnightblue" stroke="midnightblue" points="514.69,-62.86 506.01,-68.94 516.59,-69.6 514.69,-62.86"/>
</g>
<!-- Node10 -->
<g id="node12" class="node">
<title>Node10</title>
<g id="a_node12"><a xlink:href="classDiffusionOperator.html" target="_top" xlink:title="Class DiffusionOperator.">
<polygon fill="none" stroke="black" points="844.5,-120.5 844.5,-161.5 970.5,-161.5 970.5,-120.5 844.5,-120.5"/>
<text text-anchor="start" x="852.5" y="-149.5" font-family="serif" font-size="10.00">DiffusionOperator&lt;</text>
<text text-anchor="start" x="852.5" y="-138.5" font-family="serif" font-size="10.00"> T, DIM, NLFI, DENS,</text>
<text text-anchor="middle" x="907.5" y="-127.5" font-family="serif" font-size="10.00"> LHS_NLFI &gt;</text>
</a>
</g>
</g>
<!-- Node9&#45;&gt;Node10 -->
<g id="edge11" class="edge">
<title>Node9&#45;&gt;Node10</title>
<path fill="none" stroke="midnightblue" d="M767.7,-141C793.27,-141 820.68,-141 844.32,-141"/>
<polygon fill="midnightblue" stroke="midnightblue" points="767.63,-137.5 757.63,-141 767.63,-144.5 767.63,-137.5"/>
</g>
<!-- Node12 -->
<g id="node14" class="node">
<title>Node12</title>
<g id="a_node14"><a xlink:href="classHeatOperator.html" target="_top" xlink:title="Class HeatOperator.">
<polygon fill="none" stroke="black" points="824,-66 824,-96 991,-96 991,-66 824,-66"/>
<text text-anchor="start" x="832" y="-84" font-family="serif" font-size="10.00">HeatOperator&lt; T, DIM,</text>
<text text-anchor="middle" x="907.5" y="-73" font-family="serif" font-size="10.00"> NLFI, LHS_NLFI, RHO, CP &gt;</text>
</a>
</g>
</g>
<!-- Node11&#45;&gt;Node12 -->
<g id="edge13" class="edge">
<title>Node11&#45;&gt;Node12</title>
<path fill="none" stroke="midnightblue" d="M764.24,-81C783.76,-81 804.5,-81 823.94,-81"/>
<polygon fill="midnightblue" stroke="midnightblue" points="764.16,-77.5 754.16,-81 764.16,-84.5 764.16,-77.5"/>
</g>
<!-- Node14 -->
<g id="node16" class="node">
<title>Node14</title>
<g id="a_node16"><a xlink:href="classPhaseFieldOperator.html" target="_top" xlink:title="Class PhaseFieldOperator.">
<polygon fill="none" stroke="black" points="846.5,-0.5 846.5,-41.5 968.5,-41.5 968.5,-0.5 846.5,-0.5"/>
<text text-anchor="start" x="854.5" y="-29.5" font-family="serif" font-size="10.00">PhaseFieldOperator</text>
<text text-anchor="start" x="854.5" y="-18.5" font-family="serif" font-size="10.00">&lt; T, DIM, NLFI, LHS</text>
<text text-anchor="middle" x="907.5" y="-7.5" font-family="serif" font-size="10.00">_NLFI &gt;</text>
</a>
</g>
</g>
<!-- Node13&#45;&gt;Node14 -->
<g id="edge15" class="edge">
<title>Node13&#45;&gt;Node14</title>
<path fill="none" stroke="midnightblue" d="M767.63,-21C794.01,-21 822.34,-21 846.49,-21"/>
<polygon fill="midnightblue" stroke="midnightblue" points="767.63,-17.5 757.63,-21 767.63,-24.5 767.63,-17.5"/>
</g>
<!-- Node179 -->
<g id="node19" class="node">
<title>Node179</title>
<g id="a_node19"><a xlink:title=" ">
<polygon fill="none" stroke="#bfbfbf" points="143.5,-74.5 143.5,-93.5 323.5,-93.5 323.5,-74.5 143.5,-74.5"/>
<text text-anchor="middle" x="233.5" y="-81.5" font-family="serif" font-size="10.00">mfem::TimeDependentOperator</text>
</a>
</g>
</g>
<!-- Node179&#45;&gt;Node8 -->
<g id="edge18" class="edge">
<title>Node179&#45;&gt;Node8</title>
<path fill="none" stroke="midnightblue" d="M333.86,-84C345.58,-84 357.44,-84 368.88,-84"/>
<polygon fill="midnightblue" stroke="midnightblue" points="333.6,-80.5 323.6,-84 333.6,-87.5 333.6,-80.5"/>
</g>
</g>
</svg>
