<?xml version="1.0" encoding="UTF-8" standalone="no"?>
<!DOCTYPE svg PUBLIC "-//W3C//DTD SVG 1.1//EN"
 "http://www.w3.org/Graphics/SVG/1.1/DTD/svg11.dtd">
<!-- Generated by graphviz version 2.43.0 (0)
 -->
<!-- Title: ISolverBase.hpp Pages: 1 -->
<!--zoomable 364 -->
<svg id="main" version="1.1" xmlns="http://www.w3.org/2000/svg" xmlns:xlink="http://www.w3.org/1999/xlink" xml:space="preserve" onload="init(evt)">
<style type="text/css"><![CDATA[
.edge:hover path { stroke: red; }
.edge:hover polygon { stroke: red; fill: red; }
]]></style>
<script type="text/javascript"><![CDATA[
var edges = document.getElementsByTagName('g');
if (edges && edges.length) {
  for (var i=0;i<edges.length;i++) {
    if (edges[i].id.substr(0,4)=='edge') {
      edges[i].setAttribute('class','edge');
    }
  }
}
]]></script>
        <defs>
                <circle id="rim" cx="0" cy="0" r="7"/>
                <circle id="rim2" cx="0" cy="0" r="3.5"/>
                <g id="zoomPlus">
                        <use xlink:href="#rim" fill="#404040">
                                <set attributeName="fill" to="#808080" begin="zoomplus.mouseover" end="zoomplus.mouseout"/>
                        </use>
                        <path d="M-4,0h8M0,-4v8" fill="none" stroke="white" stroke-width="1.5" pointer-events="none"/>
                </g>
                <g id="zoomMin">
                        <use xlink:href="#rim" fill="#404040">
                                <set attributeName="fill" to="#808080" begin="zoomminus.mouseover" end="zoomminus.mouseout"/>
                        </use>
                        <path d="M-4,0h8" fill="none" stroke="white" stroke-width="1.5" pointer-events="none"/>
                </g>
                <g id="dirArrow">
                        <path fill="none" stroke="white" stroke-width="1.5" d="M0,-3.0v7 M-2.5,-0.5L0,-3.0L2.5,-0.5"/>
                </g>
               <g id="resetDef">
                       <use xlink:href="#rim2" fill="#404040">
                               <set attributeName="fill" to="#808080" begin="reset.mouseover" end="reset.mouseout"/>
                       </use>
               </g>
        </defs>

<script type="text/javascript">
var viewWidth = 673;
var viewHeight = 364;
var sectionId = 'dynsection-1';
</script>
<script xlink:href="svgpan.js"/>
<svg id="graph" class="graph">
<g id="viewport">
<title>ISolverBase.hpp</title>
<!-- Node1 -->
<g id="node1" class="node">
<title>Node1</title>
<g id="a_node1"><a xlink:title="Base class for iterative solvers.">
<polygon fill="#bfbfbf" stroke="black" points="114.5,-336.5 114.5,-355.5 215.5,-355.5 215.5,-336.5 114.5,-336.5"/>
<text text-anchor="middle" x="165" y="-343.5" font-family="serif" font-size="10.00">ISolverBase.hpp</text>
</a>
</g>
</g>
<!-- Node2 -->
<g id="node2" class="node">
<title>Node2</title>
<g id="a_node2"><a xlink:href="sloth_8hpp.html" target="_top" xlink:title="List of all header files contained in the kernel directory.">
<polygon fill="none" stroke="black" points="257.5,-0.5 257.5,-19.5 322.5,-19.5 322.5,-0.5 257.5,-0.5"/>
<text text-anchor="middle" x="290" y="-7.5" font-family="serif" font-size="10.00">sloth.hpp</text>
</a>
</g>
</g>
<!-- Node1&#45;&gt;Node2 -->
<g id="edge1" class="edge">
<title>Node1&#45;&gt;Node2</title>
<path fill="none" stroke="midnightblue" d="M114.04,-333.8C65.57,-319.78 0,-290.56 0,-235 0,-235 0,-235 0,-121 0,-66.48 181.45,-29.38 257.3,-16.26"/>
<polygon fill="midnightblue" stroke="midnightblue" points="113.22,-337.2 123.79,-336.48 115.08,-330.45 113.22,-337.2"/>
</g>
<!-- Node3 -->
<g id="node3" class="node">
<title>Node3</title>
<g id="a_node3"><a xlink:href="NLSolver_8hpp.html" target="_top" xlink:title="Class used to manage a NonLinear Solver( Newton type)">
<polygon fill="none" stroke="black" points="121.5,-224.5 121.5,-243.5 208.5,-243.5 208.5,-224.5 121.5,-224.5"/>
<text text-anchor="middle" x="165" y="-231.5" font-family="serif" font-size="10.00">NLSolver.hpp</text>
</a>
</g>
</g>
<!-- Node1&#45;&gt;Node3 -->
<g id="edge2" class="edge">
<title>Node1&#45;&gt;Node3</title>
<path fill="none" stroke="midnightblue" d="M165,-326.35C165,-302.25 165,-261.31 165,-243.59"/>
<polygon fill="midnightblue" stroke="midnightblue" points="161.5,-326.37 165,-336.37 168.5,-326.37 161.5,-326.37"/>
</g>
<!-- Node10 -->
<g id="node10" class="node">
<title>Node10</title>
<g id="a_node10"><a xlink:href="SlothSolver_8hpp.html" target="_top" xlink:title="Class to define a SlothSolver objet.">
<polygon fill="none" stroke="black" points="237,-280.5 237,-299.5 335,-299.5 335,-280.5 237,-280.5"/>
<text text-anchor="middle" x="286" y="-287.5" font-family="serif" font-size="10.00">SlothSolver.hpp</text>
</a>
</g>
</g>
<!-- Node1&#45;&gt;Node10 -->
<g id="edge20" class="edge">
<title>Node1&#45;&gt;Node10</title>
<path fill="none" stroke="midnightblue" d="M193.31,-332.37C215.97,-322.26 247.13,-308.35 266.92,-299.52"/>
<polygon fill="midnightblue" stroke="midnightblue" points="191.88,-329.17 184.17,-336.44 194.73,-335.56 191.88,-329.17"/>
</g>
<!-- Node3&#45;&gt;Node2 -->
<g id="edge19" class="edge">
<title>Node3&#45;&gt;Node2</title>
<path fill="none" stroke="midnightblue" d="M150.92,-216.33C124.25,-182.66 72.37,-105.54 111,-56 128.78,-33.19 210.48,-20.18 257.12,-14.48"/>
<polygon fill="midnightblue" stroke="midnightblue" points="148.35,-218.72 157.38,-224.26 153.78,-214.3 148.35,-218.72"/>
</g>
<!-- Node4 -->
<g id="node4" class="node">
<title>Node4</title>
<g id="a_node4"><a xlink:href="OperatorBase_8hpp.html" target="_top" xlink:title="Base class for building Steady and TimeDependent PhaseFieldOperators.">
<polygon fill="none" stroke="black" points="171,-168.5 171,-187.5 281,-187.5 281,-168.5 171,-168.5"/>
<text text-anchor="middle" x="226" y="-175.5" font-family="serif" font-size="10.00">OperatorBase.hpp</text>
</a>
</g>
</g>
<!-- Node3&#45;&gt;Node4 -->
<g id="edge3" class="edge">
<title>Node3&#45;&gt;Node4</title>
<path fill="none" stroke="midnightblue" d="M182.47,-217.54C193.34,-207.91 206.94,-195.87 216.02,-187.83"/>
<polygon fill="midnightblue" stroke="midnightblue" points="179.97,-215.07 174.8,-224.32 184.61,-220.32 179.97,-215.07"/>
</g>
<!-- Node5 -->
<g id="node5" class="node">
<title>Node5</title>
<g id="a_node5"><a xlink:href="SteadyOperatorBase_8hpp.html" target="_top" xlink:title="Steady Operator base.">
<polygon fill="none" stroke="black" points="140,-112.5 140,-131.5 286,-131.5 286,-112.5 140,-112.5"/>
<text text-anchor="middle" x="213" y="-119.5" font-family="serif" font-size="10.00">SteadyOperatorBase.hpp</text>
</a>
</g>
</g>
<!-- Node3&#45;&gt;Node5 -->
<g id="edge18" class="edge">
<title>Node3&#45;&gt;Node5</title>
<path fill="none" stroke="midnightblue" d="M159.74,-214.12C157.02,-200.67 155.47,-182.48 162,-168 169.19,-152.07 185.11,-139.52 197.27,-131.76"/>
<polygon fill="midnightblue" stroke="midnightblue" points="156.4,-215.22 162.15,-224.12 163.21,-213.57 156.4,-215.22"/>
</g>
<!-- Node4&#45;&gt;Node2 -->
<g id="edge17" class="edge">
<title>Node4&#45;&gt;Node2</title>
<path fill="none" stroke="midnightblue" d="M178.07,-165.06C160.52,-158.26 142.23,-147.82 131,-132 111.38,-104.38 104.43,-82.93 125,-56 141,-35.06 214.13,-21.52 257.48,-15.19"/>
<polygon fill="midnightblue" stroke="midnightblue" points="177.09,-168.43 187.69,-168.48 179.43,-161.83 177.09,-168.43"/>
</g>
<!-- Node4&#45;&gt;Node5 -->
<g id="edge4" class="edge">
<title>Node4&#45;&gt;Node5</title>
<path fill="none" stroke="midnightblue" d="M221.45,-158.1C219.29,-149.14 216.82,-138.86 215.11,-131.75"/>
<polygon fill="midnightblue" stroke="midnightblue" points="218.11,-159.18 223.85,-168.08 224.92,-157.54 218.11,-159.18"/>
</g>
<!-- Node9 -->
<g id="node9" class="node">
<title>Node9</title>
<g id="a_node9"><a xlink:href="TransientOperatorBase_8hpp.html" target="_top" xlink:title="Transient Operator base.">
<polygon fill="none" stroke="black" points="304.5,-112.5 304.5,-131.5 463.5,-131.5 463.5,-112.5 304.5,-112.5"/>
<text text-anchor="middle" x="384" y="-119.5" font-family="serif" font-size="10.00">TransientOperatorBase.hpp</text>
</a>
</g>
</g>
<!-- Node4&#45;&gt;Node9 -->
<g id="edge12" class="edge">
<title>Node4&#45;&gt;Node9</title>
<path fill="none" stroke="midnightblue" d="M260.61,-165.17C290.36,-155 332.55,-140.59 359.08,-131.52"/>
<polygon fill="midnightblue" stroke="midnightblue" points="259.37,-161.9 251.04,-168.44 261.63,-168.52 259.37,-161.9"/>
</g>
<!-- Node5&#45;&gt;Node2 -->
<g id="edge11" class="edge">
<title>Node5&#45;&gt;Node2</title>
<path fill="none" stroke="midnightblue" d="M177.17,-108.77C148.77,-97.08 116.4,-78.02 133,-56 147.93,-36.19 215.82,-22.43 257.28,-15.71"/>
<polygon fill="midnightblue" stroke="midnightblue" points="175.98,-112.06 186.57,-112.44 178.53,-105.54 175.98,-112.06"/>
</g>
<!-- Node6 -->
<g id="node6" class="node">
<title>Node6</title>
<g id="a_node6"><a xlink:href="DiffusionOperator_8hpp.html" target="_top" xlink:title="Diffusion operator (Base, Steady and TimeDependent)">
<polygon fill="none" stroke="black" points="301.5,-56.5 301.5,-75.5 432.5,-75.5 432.5,-56.5 301.5,-56.5"/>
<text text-anchor="middle" x="367" y="-63.5" font-family="serif" font-size="10.00">DiffusionOperator.hpp</text>
</a>
</g>
</g>
<!-- Node5&#45;&gt;Node6 -->
<g id="edge5" class="edge">
<title>Node5&#45;&gt;Node6</title>
<path fill="none" stroke="midnightblue" d="M247.11,-109.04C276.09,-98.88 316.96,-84.55 342.71,-75.52"/>
<polygon fill="midnightblue" stroke="midnightblue" points="245.68,-105.83 237.4,-112.44 248,-112.44 245.68,-105.83"/>
</g>
<!-- Node7 -->
<g id="node7" class="node">
<title>Node7</title>
<g id="a_node7"><a xlink:href="HeatOperator_8hpp.html" target="_top" xlink:title="Heat operator (Base, Steady and TimeDependent)">
<polygon fill="none" stroke="black" points="451,-56.5 451,-75.5 561,-75.5 561,-56.5 451,-56.5"/>
<text text-anchor="middle" x="506" y="-63.5" font-family="serif" font-size="10.00">HeatOperator.hpp</text>
</a>
</g>
</g>
<!-- Node5&#45;&gt;Node7 -->
<g id="edge7" class="edge">
<title>Node5&#45;&gt;Node7</title>
<path fill="none" stroke="midnightblue" d="M269.43,-110.6C324.8,-100.4 408.23,-85.02 459.79,-75.52"/>
<polygon fill="midnightblue" stroke="midnightblue" points="268.63,-107.19 259.43,-112.44 269.9,-114.07 268.63,-107.19"/>
</g>
<!-- Node8 -->
<g id="node8" class="node">
<title>Node8</title>
<g id="a_node8"><a xlink:href="PhaseFieldOperator_8hpp.html" target="_top" xlink:title="AllenCahn operator (Base, Steady and TimeDependent)">
<polygon fill="none" stroke="black" points="142.5,-56.5 142.5,-75.5 283.5,-75.5 283.5,-56.5 142.5,-56.5"/>
<text text-anchor="middle" x="213" y="-63.5" font-family="serif" font-size="10.00">PhaseFieldOperator.hpp</text>
</a>
</g>
</g>
<!-- Node5&#45;&gt;Node8 -->
<g id="edge9" class="edge">
<title>Node5&#45;&gt;Node8</title>
<path fill="none" stroke="midnightblue" d="M213,-101.8C213,-92.91 213,-82.78 213,-75.75"/>
<polygon fill="midnightblue" stroke="midnightblue" points="209.5,-102.08 213,-112.08 216.5,-102.08 209.5,-102.08"/>
</g>
<!-- Node6&#45;&gt;Node2 -->
<g id="edge6" class="edge">
<title>Node6&#45;&gt;Node2</title>
<path fill="none" stroke="midnightblue" d="M346.1,-50.34C332.09,-40.52 314.12,-27.91 302.34,-19.65"/>
<polygon fill="midnightblue" stroke="midnightblue" points="344.43,-53.45 354.63,-56.32 348.45,-47.72 344.43,-53.45"/>
</g>
<!-- Node7&#45;&gt;Node2 -->
<g id="edge8" class="edge">
<title>Node7&#45;&gt;Node2</title>
<path fill="none" stroke="midnightblue" d="M461.98,-53.99C420.66,-43.66 359.8,-28.45 322.65,-19.16"/>
<polygon fill="midnightblue" stroke="midnightblue" points="461.22,-57.41 471.77,-56.44 462.92,-50.62 461.22,-57.41"/>
</g>
<!-- Node8&#45;&gt;Node2 -->
<g id="edge10" class="edge">
<title>Node8&#45;&gt;Node2</title>
<path fill="none" stroke="midnightblue" d="M233.9,-50.34C247.91,-40.52 265.88,-27.91 277.66,-19.65"/>
<polygon fill="midnightblue" stroke="midnightblue" points="231.55,-47.72 225.37,-56.32 235.57,-53.45 231.55,-47.72"/>
</g>
<!-- Node9&#45;&gt;Node2 -->
<g id="edge16" class="edge">
<title>Node9&#45;&gt;Node2</title>
<path fill="none" stroke="midnightblue" d="M473.72,-116.55C536.11,-110.1 602.69,-94.37 570,-56 538.55,-19.09 389.69,-12.34 322.75,-11.19"/>
<polygon fill="midnightblue" stroke="midnightblue" points="473.37,-113.06 463.75,-117.5 474.04,-120.03 473.37,-113.06"/>
</g>
<!-- Node9&#45;&gt;Node6 -->
<g id="edge13" class="edge">
<title>Node9&#45;&gt;Node6</title>
<path fill="none" stroke="midnightblue" d="M378.14,-102.4C375.3,-93.36 372.02,-82.94 369.75,-75.75"/>
<polygon fill="midnightblue" stroke="midnightblue" points="374.85,-103.6 381.19,-112.08 381.53,-101.49 374.85,-103.6"/>
</g>
<!-- Node9&#45;&gt;Node7 -->
<g id="edge14" class="edge">
<title>Node9&#45;&gt;Node7</title>
<path fill="none" stroke="midnightblue" d="M412.54,-108.37C435.39,-98.26 466.81,-84.35 486.76,-75.52"/>
<polygon fill="midnightblue" stroke="midnightblue" points="411.06,-105.2 403.33,-112.44 413.89,-111.6 411.06,-105.2"/>
</g>
<!-- Node9&#45;&gt;Node8 -->
<g id="edge15" class="edge">
<title>Node9&#45;&gt;Node8</title>
<path fill="none" stroke="midnightblue" d="M346.96,-109.3C314.74,-99.13 268.81,-84.62 239.97,-75.52"/>
<polygon fill="midnightblue" stroke="midnightblue" points="346.31,-112.77 356.9,-112.44 348.42,-106.09 346.31,-112.77"/>
</g>
<!-- Node10&#45;&gt;Node2 -->
<g id="edge21" class="edge">
<title>Node10&#45;&gt;Node2</title>
<path fill="none" stroke="midnightblue" d="M345.13,-284.15C451.69,-273.78 665,-244.79 665,-179 665,-179 665,-179 665,-121 665,-82.28 641.13,-74.28 607,-56 558.18,-29.86 393.32,-17.15 322.63,-12.8"/>
<polygon fill="midnightblue" stroke="midnightblue" points="344.78,-280.67 335.16,-285.1 345.45,-287.64 344.78,-280.67"/>
</g>
<!-- Node10&#45;&gt;Node3 -->
<g id="edge27" class="edge">
<title>Node10&#45;&gt;Node3</title>
<path fill="none" stroke="midnightblue" d="M257.69,-276.37C235.03,-266.26 203.87,-252.35 184.08,-243.52"/>
<polygon fill="midnightblue" stroke="midnightblue" points="256.27,-279.56 266.83,-280.44 259.12,-273.17 256.27,-279.56"/>
</g>
<!-- Node11 -->
<g id="node11" class="node">
<title>Node11</title>
<g id="a_node11"><a xlink:href="LSolver_8hpp.html" target="_top" xlink:title="Class used to manage Linear Solver objet.">
<polygon fill="none" stroke="black" points="270,-224.5 270,-243.5 348,-243.5 348,-224.5 270,-224.5"/>
<text text-anchor="middle" x="309" y="-231.5" font-family="serif" font-size="10.00">LSolver.hpp</text>
</a>
</g>
</g>
<!-- Node10&#45;&gt;Node11 -->
<g id="edge22" class="edge">
<title>Node10&#45;&gt;Node11</title>
<path fill="none" stroke="midnightblue" d="M293.8,-270.69C297.68,-261.59 302.18,-251.01 305.27,-243.75"/>
<polygon fill="midnightblue" stroke="midnightblue" points="290.5,-269.51 289.8,-280.08 296.94,-272.25 290.5,-269.51"/>
</g>
<!-- Node11&#45;&gt;Node2 -->
<g id="edge26" class="edge">
<title>Node11&#45;&gt;Node2</title>
<path fill="none" stroke="midnightblue" d="M358.33,-222.79C456.7,-200.32 661.71,-141.68 588,-56 554.05,-16.53 392.81,-11.23 322.69,-10.83"/>
<polygon fill="midnightblue" stroke="midnightblue" points="357.3,-219.43 348.3,-225.04 358.83,-226.26 357.3,-219.43"/>
</g>
<!-- Node11&#45;&gt;Node4 -->
<g id="edge23" class="edge">
<title>Node11&#45;&gt;Node4</title>
<path fill="none" stroke="midnightblue" d="M286.9,-218.62C271.74,-208.76 252.12,-195.99 239.3,-187.65"/>
<polygon fill="midnightblue" stroke="midnightblue" points="285.37,-221.8 295.66,-224.32 289.19,-215.94 285.37,-221.8"/>
</g>
<!-- Node11&#45;&gt;Node5 -->
<g id="edge24" class="edge">
<title>Node11&#45;&gt;Node5</title>
<path fill="none" stroke="midnightblue" d="M307.24,-214.11C305.11,-200.14 300.39,-181.31 290,-168 276.46,-150.67 254.25,-138.72 237.16,-131.52"/>
<polygon fill="midnightblue" stroke="midnightblue" points="303.77,-214.57 308.46,-224.07 310.72,-213.72 303.77,-214.57"/>
</g>
<!-- Node11&#45;&gt;Node9 -->
<g id="edge25" class="edge">
<title>Node11&#45;&gt;Node9</title>
<path fill="none" stroke="midnightblue" d="M320.62,-215.96C336.87,-192.12 365.79,-149.71 378.14,-131.59"/>
<polygon fill="midnightblue" stroke="midnightblue" points="317.63,-214.13 314.89,-224.37 323.41,-218.08 317.63,-214.13"/>
</g>
</g>
</svg>
        <g id="navigator" transform="translate(0 0)" fill="#404254">
                <rect fill="#f2f5e9" fill-opacity="0.5" stroke="#606060" stroke-width=".5" x="0" y="0" width="60" height="60"/>
                <use id="zoomplus" xlink:href="#zoomPlus" x="17" y="9" onmousedown="handleZoom(evt,'in')"/>
                <use id="zoomminus" xlink:href="#zoomMin" x="42" y="9" onmousedown="handleZoom(evt,'out')"/>
                <use id="reset" xlink:href="#resetDef" x="30" y="36" onmousedown="handleReset()"/>
                <g id="arrowUp" xlink:href="#dirArrow" transform="translate(30 24)" onmousedown="handlePan(0,-1)">
                  <use xlink:href="#rim" fill="#404040">
                        <set attributeName="fill" to="#808080" begin="arrowUp.mouseover" end="arrowUp.mouseout"/>
                  </use>
                  <path fill="none" stroke="white" stroke-width="1.5" d="M0,-3.0v7 M-2.5,-0.5L0,-3.0L2.5,-0.5"/>
                </g>
                <g id="arrowRight" xlink:href="#dirArrow" transform="rotate(90) translate(36 -43)" onmousedown="handlePan(1,0)">
                  <use xlink:href="#rim" fill="#404040">
                        <set attributeName="fill" to="#808080" begin="arrowRight.mouseover" end="arrowRight.mouseout"/>
                  </use>
                  <path fill="none" stroke="white" stroke-width="1.5" d="M0,-3.0v7 M-2.5,-0.5L0,-3.0L2.5,-0.5"/>
                </g>
                <g id="arrowDown" xlink:href="#dirArrow" transform="rotate(180) translate(-30 -48)" onmousedown="handlePan(0,1)">
                  <use xlink:href="#rim" fill="#404040">
                        <set attributeName="fill" to="#808080" begin="arrowDown.mouseover" end="arrowDown.mouseout"/>
                  </use>
                  <path fill="none" stroke="white" stroke-width="1.5" d="M0,-3.0v7 M-2.5,-0.5L0,-3.0L2.5,-0.5"/>
                </g>
                <g id="arrowLeft" xlink:href="#dirArrow" transform="rotate(270) translate(-36 17)" onmousedown="handlePan(-1,0)">
                  <use xlink:href="#rim" fill="#404040">
                        <set attributeName="fill" to="#808080" begin="arrowLeft.mouseover" end="arrowLeft.mouseout"/>
                  </use>
                  <path fill="none" stroke="white" stroke-width="1.5" d="M0,-3.0v7 M-2.5,-0.5L0,-3.0L2.5,-0.5"/>
                </g>
        </g>
        <svg viewBox="0 0 15 15" width="100%" height="30px" preserveAspectRatio="xMaxYMin meet">
         <g id="arrow_out" transform="scale(0.3 0.3)">
          <a xlink:href="ISolverBase_8hpp__dep__incl_org.svg" target="_base">
           <rect id="button" ry="5" rx="5" y="6" x="6" height="38" width="38"
                fill="#f2f5e9" fill-opacity="0.5" stroke="#606060" stroke-width="1.0"/>
           <path id="arrow"
             d="M 11.500037,31.436501 C 11.940474,20.09759 22.043105,11.32322 32.158766,21.979434 L 37.068811,17.246167 C 37.068811,17.246167 37.088388,32 37.088388,32 L 22.160133,31.978069 C 22.160133,31.978069 26.997745,27.140456 26.997745,27.140456 C 18.528582,18.264221 13.291696,25.230495 11.500037,31.436501 z"
             style="fill:#404040;"/>
          </a>
         </g>
        </svg>
</svg>
