<?xml version="1.0" encoding="UTF-8" standalone="no"?>
<!DOCTYPE svg PUBLIC "-//W3C//DTD SVG 1.1//EN"
 "http://www.w3.org/Graphics/SVG/1.1/DTD/svg11.dtd">
<!-- Generated by graphviz version 2.43.0 (0)
 -->
<!-- Title: LambdaCoefficient.hpp Pages: 1 -->
<svg width="1006pt" height="274pt"
 viewBox="0.00 0.00 1006.00 274.00" xmlns="http://www.w3.org/2000/svg" xmlns:xlink="http://www.w3.org/1999/xlink">
<g id="graph0" class="graph" transform="scale(1 1) rotate(0) translate(4 270)">
<title>LambdaCoefficient.hpp</title>
<!-- Node1 -->
<g id="node1" class="node">
<title>Node1</title>
<g id="a_node1"><a xlink:title="Class dedicated to Lambda coefficient.">
<polygon fill="#bfbfbf" stroke="black" points="342.5,-246.5 342.5,-265.5 478.5,-265.5 478.5,-246.5 342.5,-246.5"/>
<text text-anchor="middle" x="410.5" y="-253.5" font-family="serif" font-size="10.00">LambdaCoefficient.hpp</text>
</a>
</g>
</g>
<!-- Node2 -->
<g id="node2" class="node">
<title>Node2</title>
<g id="a_node2"><a xlink:href="AllenCahnGrainsNLFormIntegrator_8hpp.html" target="_top" xlink:title="VF for Allen&#45;Cahn equation solved in a polycrystal.">
<polygon fill="none" stroke="black" points="0,-129 0,-148 221,-148 221,-129 0,-129"/>
<text text-anchor="middle" x="110.5" y="-136" font-family="serif" font-size="10.00">AllenCahnGrainsNLFormIntegrator.hpp</text>
</a>
</g>
</g>
<!-- Node1&#45;&gt;Node2 -->
<g id="edge1" class="edge">
<title>Node1&#45;&gt;Node2</title>
<path fill="none" stroke="midnightblue" d="M353.76,-244.35C318.91,-236.86 273.77,-225.4 235.5,-210 192.05,-192.51 145,-162.69 123.08,-148.08"/>
<polygon fill="midnightblue" stroke="midnightblue" points="353.25,-247.82 363.76,-246.46 354.69,-240.97 353.25,-247.82"/>
</g>
<!-- Node3 -->
<g id="node3" class="node">
<title>Node3</title>
<g id="a_node3"><a xlink:href="sloth_8hpp.html" target="_top" xlink:title="List of all header files contained in the kernel directory.">
<polygon fill="none" stroke="black" points="418,-0.5 418,-19.5 483,-19.5 483,-0.5 418,-0.5"/>
<text text-anchor="middle" x="450.5" y="-7.5" font-family="serif" font-size="10.00">sloth.hpp</text>
</a>
</g>
</g>
<!-- Node1&#45;&gt;Node3 -->
<g id="edge17" class="edge">
<title>Node1&#45;&gt;Node3</title>
<path fill="none" stroke="midnightblue" d="M353.35,-243.08C335.63,-236.41 318,-226.05 307.5,-210 285.47,-176.34 188.13,-223.67 319.5,-56 342.93,-26.09 387.34,-15.96 417.91,-12.59"/>
<polygon fill="midnightblue" stroke="midnightblue" points="352.57,-246.51 363.17,-246.42 354.83,-239.89 352.57,-246.51"/>
</g>
<!-- Node4 -->
<g id="node4" class="node">
<title>Node4</title>
<g id="a_node4"><a xlink:href="AllenCahnNLFormIntegrator_8hpp.html" target="_top" xlink:title="FV for the Allen Cahn equation.">
<polygon fill="none" stroke="black" points="317,-190.5 317,-209.5 504,-209.5 504,-190.5 317,-190.5"/>
<text text-anchor="middle" x="410.5" y="-197.5" font-family="serif" font-size="10.00">AllenCahnNLFormIntegrator.hpp</text>
</a>
</g>
</g>
<!-- Node1&#45;&gt;Node4 -->
<g id="edge3" class="edge">
<title>Node1&#45;&gt;Node4</title>
<path fill="none" stroke="midnightblue" d="M410.5,-235.8C410.5,-226.91 410.5,-216.78 410.5,-209.75"/>
<polygon fill="midnightblue" stroke="midnightblue" points="407,-236.08 410.5,-246.08 414,-236.08 407,-236.08"/>
</g>
<!-- Node9 -->
<g id="node9" class="node">
<title>Node9</title>
<g id="a_node9"><a xlink:href="BlockAllenCahnNLFormIntegrator_8hpp.html" target="_top" xlink:title="VF of the AllenCahn equations (splitting version)">
<polygon fill="none" stroke="black" points="660,-129 660,-148 875,-148 875,-129 660,-129"/>
<text text-anchor="middle" x="767.5" y="-136" font-family="serif" font-size="10.00">BlockAllenCahnNLFormIntegrator.hpp</text>
</a>
</g>
</g>
<!-- Node1&#45;&gt;Node9 -->
<g id="edge13" class="edge">
<title>Node1&#45;&gt;Node9</title>
<path fill="none" stroke="midnightblue" d="M446.57,-243.33C518.32,-220.12 677.48,-168.62 740.78,-148.14"/>
<polygon fill="midnightblue" stroke="midnightblue" points="445.48,-240 437.04,-246.41 447.63,-246.66 445.48,-240"/>
</g>
<!-- Node10 -->
<g id="node10" class="node">
<title>Node10</title>
<g id="a_node10"><a xlink:href="CahnHilliardNLFormIntegrator_8hpp.html" target="_top" xlink:title="VF of the CahnHilliard equations.">
<polygon fill="none" stroke="black" points="799,-190.5 799,-209.5 998,-209.5 998,-190.5 799,-190.5"/>
<text text-anchor="middle" x="898.5" y="-197.5" font-family="serif" font-size="10.00">CahnHilliardNLFormIntegrator.hpp</text>
</a>
</g>
</g>
<!-- Node1&#45;&gt;Node10 -->
<g id="edge15" class="edge">
<title>Node1&#45;&gt;Node10</title>
<path fill="none" stroke="midnightblue" d="M488.65,-246.35C580.15,-236.23 730.73,-219.56 821.67,-209.5"/>
<polygon fill="midnightblue" stroke="midnightblue" points="488.17,-242.88 478.61,-247.46 488.94,-249.84 488.17,-242.88"/>
</g>
<!-- Node2&#45;&gt;Node3 -->
<g id="edge2" class="edge">
<title>Node2&#45;&gt;Node3</title>
<path fill="none" stroke="midnightblue" d="M128.73,-122.44C152.04,-103.97 194.32,-73.03 235.5,-56 297,-30.57 374.55,-18.9 417.7,-14.05"/>
<polygon fill="midnightblue" stroke="midnightblue" points="126.36,-119.85 120.77,-128.85 130.75,-125.31 126.36,-119.85"/>
</g>
<!-- Node4&#45;&gt;Node3 -->
<g id="edge12" class="edge">
<title>Node4&#45;&gt;Node3</title>
<path fill="none" stroke="midnightblue" d="M385.82,-185.09C374.14,-177.34 360.93,-166.69 352.5,-154 327.98,-117.12 309.48,-92.54 334.5,-56 353.05,-28.91 390.47,-18.12 417.81,-13.83"/>
<polygon fill="midnightblue" stroke="midnightblue" points="384.01,-188.09 394.35,-190.43 387.73,-182.16 384.01,-188.09"/>
</g>
<!-- Node5 -->
<g id="node5" class="node">
<title>Node5</title>
<g id="a_node5"><a xlink:href="AllenCahnMeltingBaseNLFormIntegrator_8hpp.html" target="_top" xlink:title="Base integrator for melting.">
<polygon fill="none" stroke="black" points="362,-123.5 362,-153.5 539,-153.5 539,-123.5 362,-123.5"/>
<text text-anchor="start" x="370" y="-141.5" font-family="serif" font-size="10.00">AllenCahnMeltingBaseNLForm</text>
<text text-anchor="middle" x="450.5" y="-130.5" font-family="serif" font-size="10.00">Integrator.hpp</text>
</a>
</g>
</g>
<!-- Node4&#45;&gt;Node5 -->
<g id="edge4" class="edge">
<title>Node4&#45;&gt;Node5</title>
<path fill="none" stroke="midnightblue" d="M421.95,-181.96C428.01,-172.96 435.35,-162.03 441.07,-153.52"/>
<polygon fill="midnightblue" stroke="midnightblue" points="418.91,-180.22 416.23,-190.48 424.71,-184.13 418.91,-180.22"/>
</g>
<!-- Node5&#45;&gt;Node3 -->
<g id="edge11" class="edge">
<title>Node5&#45;&gt;Node3</title>
<path fill="none" stroke="midnightblue" d="M382.78,-119.37C367.29,-111.92 352.69,-101.5 343.5,-87 336.12,-75.36 335.88,-67.48 343.5,-56 359.95,-31.24 392.96,-20.07 417.99,-15.06"/>
<polygon fill="midnightblue" stroke="midnightblue" points="381.41,-122.59 391.98,-123.43 384.24,-116.19 381.41,-122.59"/>
</g>
<!-- Node6 -->
<g id="node6" class="node">
<title>Node6</title>
<g id="a_node6"><a xlink:href="AllenCahnCalphadMeltingNLFormIntegrator_8hpp.html" target="_top" xlink:title="Compute the enthalpy of phase change based on two driving forces defined as auxiliary variables.">
<polygon fill="none" stroke="black" points="353,-56.5 353,-86.5 548,-86.5 548,-56.5 353,-56.5"/>
<text text-anchor="start" x="361" y="-74.5" font-family="serif" font-size="10.00">AllenCahnCalphadMeltingNLForm</text>
<text text-anchor="middle" x="450.5" y="-63.5" font-family="serif" font-size="10.00">Integrator.hpp</text>
</a>
</g>
</g>
<!-- Node5&#45;&gt;Node6 -->
<g id="edge5" class="edge">
<title>Node5&#45;&gt;Node6</title>
<path fill="none" stroke="midnightblue" d="M450.5,-113.11C450.5,-104.15 450.5,-94.32 450.5,-86.58"/>
<polygon fill="midnightblue" stroke="midnightblue" points="447,-113.4 450.5,-123.4 454,-113.4 447,-113.4"/>
</g>
<!-- Node7 -->
<g id="node7" class="node">
<title>Node7</title>
<g id="a_node7"><a xlink:href="AllenCahnConstantMeltingNLFormIntegrator_8hpp.html" target="_top" xlink:title="AllenCahn integrator for constant melting.">
<polygon fill="none" stroke="black" points="566,-56.5 566,-86.5 721,-86.5 721,-56.5 566,-56.5"/>
<text text-anchor="start" x="574" y="-74.5" font-family="serif" font-size="10.00">AllenCahnConstantMelting</text>
<text text-anchor="middle" x="643.5" y="-63.5" font-family="serif" font-size="10.00">NLFormIntegrator.hpp</text>
</a>
</g>
</g>
<!-- Node5&#45;&gt;Node7 -->
<g id="edge7" class="edge">
<title>Node5&#45;&gt;Node7</title>
<path fill="none" stroke="midnightblue" d="M502.19,-120.09C533.34,-109.6 572.51,-96.41 601.7,-86.58"/>
<polygon fill="midnightblue" stroke="midnightblue" points="500.74,-116.89 492.38,-123.4 502.97,-123.52 500.74,-116.89"/>
</g>
<!-- Node8 -->
<g id="node8" class="node">
<title>Node8</title>
<g id="a_node8"><a xlink:href="AllenCahnTemperatureMeltingNLFormIntegrator_8hpp.html" target="_top" xlink:title="FV for the Allen Cahn equation with ad&#45;hoc melting controled by temperature and a given melting tempe...">
<polygon fill="none" stroke="black" points="739.5,-56.5 739.5,-86.5 915.5,-86.5 915.5,-56.5 739.5,-56.5"/>
<text text-anchor="start" x="747.5" y="-74.5" font-family="serif" font-size="10.00">AllenCahnTemperatureMelting</text>
<text text-anchor="middle" x="827.5" y="-63.5" font-family="serif" font-size="10.00">NLFormIntegrator.hpp</text>
</a>
</g>
</g>
<!-- Node5&#45;&gt;Node8 -->
<g id="edge9" class="edge">
<title>Node5&#45;&gt;Node8</title>
<path fill="none" stroke="midnightblue" d="M542.05,-121.72C604.31,-110.98 685.96,-96.9 745.98,-86.55"/>
<polygon fill="midnightblue" stroke="midnightblue" points="541.1,-118.33 531.84,-123.48 542.29,-125.23 541.1,-118.33"/>
</g>
<!-- Node6&#45;&gt;Node3 -->
<g id="edge6" class="edge">
<title>Node6&#45;&gt;Node3</title>
<path fill="none" stroke="midnightblue" d="M450.5,-46.29C450.5,-36.86 450.5,-26.65 450.5,-19.66"/>
<polygon fill="midnightblue" stroke="midnightblue" points="447,-46.4 450.5,-56.4 454,-46.4 447,-46.4"/>
</g>
<!-- Node7&#45;&gt;Node3 -->
<g id="edge8" class="edge">
<title>Node7&#45;&gt;Node3</title>
<path fill="none" stroke="midnightblue" d="M587.9,-53.36C552,-42.29 506.83,-28.37 478.3,-19.57"/>
<polygon fill="midnightblue" stroke="midnightblue" points="587.17,-56.8 597.76,-56.4 589.24,-50.11 587.17,-56.8"/>
</g>
<!-- Node8&#45;&gt;Node3 -->
<g id="edge10" class="edge">
<title>Node8&#45;&gt;Node3</title>
<path fill="none" stroke="midnightblue" d="M728.84,-54.93C647.51,-42.09 537.05,-24.66 483,-16.13"/>
<polygon fill="midnightblue" stroke="midnightblue" points="728.69,-58.45 739.11,-56.55 729.78,-51.53 728.69,-58.45"/>
</g>
<!-- Node9&#45;&gt;Node3 -->
<g id="edge14" class="edge">
<title>Node9&#45;&gt;Node3</title>
<path fill="none" stroke="midnightblue" d="M831.73,-126.92C888.47,-114.94 957.44,-92.22 924.5,-56 894.85,-23.4 585.69,-13.89 483.26,-11.62"/>
<polygon fill="midnightblue" stroke="midnightblue" points="830.78,-123.54 821.67,-128.96 832.17,-130.4 830.78,-123.54"/>
</g>
<!-- Node10&#45;&gt;Node3 -->
<g id="edge16" class="edge">
<title>Node10&#45;&gt;Node3</title>
<path fill="none" stroke="midnightblue" d="M912.8,-182.4C936.16,-153.22 976.74,-92.41 943.5,-56 912.46,-22 588.07,-13.39 483.08,-11.49"/>
<polygon fill="midnightblue" stroke="midnightblue" points="909.88,-180.44 906.2,-190.37 915.27,-184.9 909.88,-180.44"/>
</g>
</g>
</svg>
