<?xml version="1.0" encoding="UTF-8" standalone="no"?>
<!DOCTYPE svg PUBLIC "-//W3C//DTD SVG 1.1//EN"
 "http://www.w3.org/Graphics/SVG/1.1/DTD/svg11.dtd">
<!-- Generated by graphviz version 2.43.0 (0)
 -->
<!-- Title: LSolver.hpp Pages: 1 -->
<svg width="507pt" height="252pt"
 viewBox="0.00 0.00 507.04 252.00" xmlns="http://www.w3.org/2000/svg" xmlns:xlink="http://www.w3.org/1999/xlink">
<g id="graph0" class="graph" transform="scale(1 1) rotate(0) translate(4 248)">
<title>LSolver.hpp</title>
<!-- Node1 -->
<g id="node1" class="node">
<title>Node1</title>
<g id="a_node1"><a xlink:title="Class used to manage Linear Solver objet.">
<polygon fill="#bfbfbf" stroke="black" points="68.73,-224.5 68.73,-243.5 146.73,-243.5 146.73,-224.5 68.73,-224.5"/>
<text text-anchor="middle" x="107.73" y="-231.5" font-family="serif" font-size="10.00">LSolver.hpp</text>
</a>
</g>
</g>
<!-- Node2 -->
<g id="node2" class="node">
<title>Node2</title>
<g id="a_node2"><a xlink:href="OperatorBase_8hpp.html" target="_top" xlink:title="Base class for building Steady and TimeDependent PhaseFieldOperators.">
<polygon fill="none" stroke="black" points="11.73,-168.5 11.73,-187.5 121.73,-187.5 121.73,-168.5 11.73,-168.5"/>
<text text-anchor="middle" x="66.73" y="-175.5" font-family="serif" font-size="10.00">OperatorBase.hpp</text>
</a>
</g>
</g>
<!-- Node1&#45;&gt;Node2 -->
<g id="edge1" class="edge">
<title>Node1&#45;&gt;Node2</title>
<path fill="none" stroke="midnightblue" d="M94.71,-215.86C87.61,-206.5 79.12,-195.33 73.37,-187.75"/>
<polygon fill="midnightblue" stroke="midnightblue" points="92.12,-218.24 100.96,-224.08 97.7,-214 92.12,-218.24"/>
</g>
<!-- Node3 -->
<g id="node3" class="node">
<title>Node3</title>
<g id="a_node3"><a xlink:href="SteadyOperatorBase_8hpp.html" target="_top" xlink:title="Steady Operator base.">
<polygon fill="none" stroke="black" points="36.73,-112.5 36.73,-131.5 182.73,-131.5 182.73,-112.5 36.73,-112.5"/>
<text text-anchor="middle" x="109.73" y="-119.5" font-family="serif" font-size="10.00">SteadyOperatorBase.hpp</text>
</a>
</g>
</g>
<!-- Node1&#45;&gt;Node3 -->
<g id="edge16" class="edge">
<title>Node1&#45;&gt;Node3</title>
<path fill="none" stroke="midnightblue" d="M119.15,-215.44C123.71,-207.42 128.42,-197.58 130.73,-188 135.67,-167.48 123.59,-144.07 115.76,-131.71"/>
<polygon fill="midnightblue" stroke="midnightblue" points="116.04,-213.83 113.83,-224.19 122.02,-217.46 116.04,-213.83"/>
</g>
<!-- Node5 -->
<g id="node5" class="node">
<title>Node5</title>
<g id="a_node5"><a xlink:href="sloth_8hpp.html" target="_top" xlink:title="List of all header files contained in the kernel directory.">
<polygon fill="none" stroke="black" points="93.23,-0.5 93.23,-19.5 158.23,-19.5 158.23,-0.5 93.23,-0.5"/>
<text text-anchor="middle" x="125.73" y="-7.5" font-family="serif" font-size="10.00">sloth.hpp</text>
</a>
</g>
</g>
<!-- Node1&#45;&gt;Node5 -->
<g id="edge18" class="edge">
<title>Node1&#45;&gt;Node5</title>
<path fill="none" stroke="midnightblue" d="M58.82,-224.45C37.84,-218.1 15.31,-207.08 2.73,-188 -2.17,-180.58 1.6,-176.82 2.73,-168 9.22,-116.99 -0.96,-95.69 31.73,-56 47.25,-37.14 72.54,-25.66 92.98,-19.02"/>
<polygon fill="midnightblue" stroke="midnightblue" points="58.05,-227.87 68.62,-227.13 59.9,-221.12 58.05,-227.87"/>
</g>
<!-- Node8 -->
<g id="node8" class="node">
<title>Node8</title>
<g id="a_node8"><a xlink:href="TransientOperatorBase_8hpp.html" target="_top" xlink:title="Transient Operator base.">
<polygon fill="none" stroke="black" points="201.23,-112.5 201.23,-131.5 360.23,-131.5 360.23,-112.5 201.23,-112.5"/>
<text text-anchor="middle" x="280.73" y="-119.5" font-family="serif" font-size="10.00">TransientOperatorBase.hpp</text>
</a>
</g>
</g>
<!-- Node1&#45;&gt;Node8 -->
<g id="edge17" class="edge">
<title>Node1&#45;&gt;Node8</title>
<path fill="none" stroke="midnightblue" d="M130.2,-218.71C166.65,-195.53 237.59,-150.43 267.22,-131.59"/>
<polygon fill="midnightblue" stroke="midnightblue" points="127.86,-216.05 121.3,-224.37 131.62,-221.96 127.86,-216.05"/>
</g>
<!-- Node2&#45;&gt;Node3 -->
<g id="edge2" class="edge">
<title>Node2&#45;&gt;Node3</title>
<path fill="none" stroke="midnightblue" d="M80.15,-160.14C87.64,-150.74 96.66,-139.4 102.76,-131.75"/>
<polygon fill="midnightblue" stroke="midnightblue" points="77.32,-158.08 73.83,-168.08 82.8,-162.44 77.32,-158.08"/>
</g>
<!-- Node2&#45;&gt;Node5 -->
<g id="edge15" class="edge">
<title>Node2&#45;&gt;Node5</title>
<path fill="none" stroke="midnightblue" d="M48.15,-161.32C40.25,-153.44 31.9,-143.19 27.73,-132 19.03,-108.69 42.18,-57.94 43.73,-56 57.81,-38.36 80.77,-26.61 98.82,-19.55"/>
<polygon fill="midnightblue" stroke="midnightblue" points="46.03,-164.13 55.74,-168.37 50.79,-159 46.03,-164.13"/>
</g>
<!-- Node2&#45;&gt;Node8 -->
<g id="edge10" class="edge">
<title>Node2&#45;&gt;Node8</title>
<path fill="none" stroke="midnightblue" d="M110.48,-165.96C150.9,-155.76 210.1,-140.82 246.98,-131.52"/>
<polygon fill="midnightblue" stroke="midnightblue" points="109.48,-162.6 100.64,-168.44 111.19,-169.39 109.48,-162.6"/>
</g>
<!-- Node4 -->
<g id="node4" class="node">
<title>Node4</title>
<g id="a_node4"><a xlink:href="DiffusionOperator_8hpp.html" target="_top" xlink:title="Diffusion operator (Base, Steady and TimeDependent)">
<polygon fill="none" stroke="black" points="60.23,-56.5 60.23,-75.5 191.23,-75.5 191.23,-56.5 60.23,-56.5"/>
<text text-anchor="middle" x="125.73" y="-63.5" font-family="serif" font-size="10.00">DiffusionOperator.hpp</text>
</a>
</g>
</g>
<!-- Node3&#45;&gt;Node4 -->
<g id="edge3" class="edge">
<title>Node3&#45;&gt;Node4</title>
<path fill="none" stroke="midnightblue" d="M115.24,-102.4C117.92,-93.36 121.01,-82.94 123.13,-75.75"/>
<polygon fill="midnightblue" stroke="midnightblue" points="111.85,-101.5 112.37,-112.08 118.57,-103.49 111.85,-101.5"/>
</g>
<!-- Node3&#45;&gt;Node5 -->
<g id="edge9" class="edge">
<title>Node3&#45;&gt;Node5</title>
<path fill="none" stroke="midnightblue" d="M82.6,-107.41C62.12,-95.19 39.35,-76.1 50.73,-56 60.9,-38.03 81.43,-26.45 98.45,-19.55"/>
<polygon fill="midnightblue" stroke="midnightblue" points="80.99,-110.52 91.42,-112.37 84.42,-104.42 80.99,-110.52"/>
</g>
<!-- Node6 -->
<g id="node6" class="node">
<title>Node6</title>
<g id="a_node6"><a xlink:href="HeatOperator_8hpp.html" target="_top" xlink:title="Heat operator (Base, Steady and TimeDependent)">
<polygon fill="none" stroke="black" points="209.73,-56.5 209.73,-75.5 319.73,-75.5 319.73,-56.5 209.73,-56.5"/>
<text text-anchor="middle" x="264.73" y="-63.5" font-family="serif" font-size="10.00">HeatOperator.hpp</text>
</a>
</g>
</g>
<!-- Node3&#45;&gt;Node6 -->
<g id="edge5" class="edge">
<title>Node3&#45;&gt;Node6</title>
<path fill="none" stroke="midnightblue" d="M144.06,-109.04C173.22,-98.88 214.36,-84.55 240.28,-75.52"/>
<polygon fill="midnightblue" stroke="midnightblue" points="142.58,-105.85 134.29,-112.44 144.88,-112.46 142.58,-105.85"/>
</g>
<!-- Node7 -->
<g id="node7" class="node">
<title>Node7</title>
<g id="a_node7"><a xlink:href="PhaseFieldOperator_8hpp.html" target="_top" xlink:title="AllenCahn operator (Base, Steady and TimeDependent)">
<polygon fill="none" stroke="black" points="338.23,-56.5 338.23,-75.5 479.23,-75.5 479.23,-56.5 338.23,-56.5"/>
<text text-anchor="middle" x="408.73" y="-63.5" font-family="serif" font-size="10.00">PhaseFieldOperator.hpp</text>
</a>
</g>
</g>
<!-- Node3&#45;&gt;Node7 -->
<g id="edge7" class="edge">
<title>Node3&#45;&gt;Node7</title>
<path fill="none" stroke="midnightblue" d="M166.96,-110.66C223.46,-100.46 308.85,-85.04 361.57,-75.52"/>
<polygon fill="midnightblue" stroke="midnightblue" points="166.32,-107.22 157.1,-112.44 167.57,-114.11 166.32,-107.22"/>
</g>
<!-- Node4&#45;&gt;Node5 -->
<g id="edge4" class="edge">
<title>Node4&#45;&gt;Node5</title>
<path fill="none" stroke="midnightblue" d="M125.73,-45.8C125.73,-36.91 125.73,-26.78 125.73,-19.75"/>
<polygon fill="midnightblue" stroke="midnightblue" points="122.23,-46.08 125.73,-56.08 129.23,-46.08 122.23,-46.08"/>
</g>
<!-- Node6&#45;&gt;Node5 -->
<g id="edge6" class="edge">
<title>Node6&#45;&gt;Node5</title>
<path fill="none" stroke="midnightblue" d="M233.25,-52.77C207.14,-42.63 170.69,-28.47 147.65,-19.52"/>
<polygon fill="midnightblue" stroke="midnightblue" points="232.11,-56.08 242.7,-56.44 234.65,-49.56 232.11,-56.08"/>
</g>
<!-- Node7&#45;&gt;Node5 -->
<g id="edge8" class="edge">
<title>Node7&#45;&gt;Node5</title>
<path fill="none" stroke="midnightblue" d="M353.79,-54.52C295.78,-43.45 206.25,-26.37 158.45,-17.24"/>
<polygon fill="midnightblue" stroke="midnightblue" points="353.41,-58.01 363.89,-56.44 354.72,-51.13 353.41,-58.01"/>
</g>
<!-- Node8&#45;&gt;Node4 -->
<g id="edge11" class="edge">
<title>Node8&#45;&gt;Node4</title>
<path fill="none" stroke="midnightblue" d="M246.4,-109.04C217.23,-98.88 176.09,-84.55 150.17,-75.52"/>
<polygon fill="midnightblue" stroke="midnightblue" points="245.57,-112.46 256.17,-112.44 247.88,-105.85 245.57,-112.46"/>
</g>
<!-- Node8&#45;&gt;Node5 -->
<g id="edge14" class="edge">
<title>Node8&#45;&gt;Node5</title>
<path fill="none" stroke="midnightblue" d="M370.5,-119.15C443.16,-114.49 527.55,-99.93 488.73,-56 466.99,-31.4 243.6,-17.19 158.45,-12.62"/>
<polygon fill="midnightblue" stroke="midnightblue" points="370.11,-115.66 360.34,-119.74 370.52,-122.65 370.11,-115.66"/>
</g>
<!-- Node8&#45;&gt;Node6 -->
<g id="edge12" class="edge">
<title>Node8&#45;&gt;Node6</title>
<path fill="none" stroke="midnightblue" d="M275.21,-102.4C272.54,-93.36 269.45,-82.94 267.32,-75.75"/>
<polygon fill="midnightblue" stroke="midnightblue" points="271.89,-103.49 278.09,-112.08 278.6,-101.5 271.89,-103.49"/>
</g>
<!-- Node8&#45;&gt;Node7 -->
<g id="edge13" class="edge">
<title>Node8&#45;&gt;Node7</title>
<path fill="none" stroke="midnightblue" d="M310.35,-108.5C334.35,-98.38 367.51,-84.39 388.54,-75.52"/>
<polygon fill="midnightblue" stroke="midnightblue" points="308.86,-105.33 301.01,-112.44 311.58,-111.78 308.86,-105.33"/>
</g>
</g>
</svg>
