<?xml version="1.0" encoding="UTF-8" standalone="no"?>
<!DOCTYPE svg PUBLIC "-//W3C//DTD SVG 1.1//EN"
 "http://www.w3.org/Graphics/SVG/1.1/DTD/svg11.dtd">
<!-- Generated by graphviz version 2.43.0 (0)
 -->
<!-- Title: MobilityFunctions.hpp Pages: 1 -->
<!--zoomable 330 -->
<svg id="main" version="1.1" xmlns="http://www.w3.org/2000/svg" xmlns:xlink="http://www.w3.org/1999/xlink" xml:space="preserve" onload="init(evt)">
<style type="text/css"><![CDATA[
.edge:hover path { stroke: red; }
.edge:hover polygon { stroke: red; fill: red; }
]]></style>
<script type="text/javascript"><![CDATA[
var edges = document.getElementsByTagName('g');
if (edges && edges.length) {
  for (var i=0;i<edges.length;i++) {
    if (edges[i].id.substr(0,4)=='edge') {
      edges[i].setAttribute('class','edge');
    }
  }
}
]]></script>
        <defs>
                <circle id="rim" cx="0" cy="0" r="7"/>
                <circle id="rim2" cx="0" cy="0" r="3.5"/>
                <g id="zoomPlus">
                        <use xlink:href="#rim" fill="#404040">
                                <set attributeName="fill" to="#808080" begin="zoomplus.mouseover" end="zoomplus.mouseout"/>
                        </use>
                        <path d="M-4,0h8M0,-4v8" fill="none" stroke="white" stroke-width="1.5" pointer-events="none"/>
                </g>
                <g id="zoomMin">
                        <use xlink:href="#rim" fill="#404040">
                                <set attributeName="fill" to="#808080" begin="zoomminus.mouseover" end="zoomminus.mouseout"/>
                        </use>
                        <path d="M-4,0h8" fill="none" stroke="white" stroke-width="1.5" pointer-events="none"/>
                </g>
                <g id="dirArrow">
                        <path fill="none" stroke="white" stroke-width="1.5" d="M0,-3.0v7 M-2.5,-0.5L0,-3.0L2.5,-0.5"/>
                </g>
               <g id="resetDef">
                       <use xlink:href="#rim2" fill="#404040">
                               <set attributeName="fill" to="#808080" begin="reset.mouseover" end="reset.mouseout"/>
                       </use>
               </g>
        </defs>

<script type="text/javascript">
var viewWidth = 1112;
var viewHeight = 330;
var sectionId = 'dynsection-1';
</script>
<script xlink:href="svgpan.js"/>
<svg id="graph" class="graph">
<g id="viewport">
<title>MobilityFunctions.hpp</title>
<!-- Node1 -->
<g id="node1" class="node">
<title>Node1</title>
<g id="a_node1"><a xlink:title="Mobility functions.">
<polygon fill="#bfbfbf" stroke="black" points="848.5,-302.5 848.5,-321.5 980.5,-321.5 980.5,-302.5 848.5,-302.5"/>
<text text-anchor="middle" x="914.5" y="-309.5" font-family="serif" font-size="10.00">MobilityFunctions.hpp</text>
</a>
</g>
</g>
<!-- Node2 -->
<g id="node2" class="node">
<title>Node2</title>
<g id="a_node2"><a xlink:href="MobilityCoefficient_8hpp.html" target="_top" xlink:title="Class dedicated to Mobility coefficient.">
<polygon fill="none" stroke="black" points="658.5,-246.5 658.5,-265.5 794.5,-265.5 794.5,-246.5 658.5,-246.5"/>
<text text-anchor="middle" x="726.5" y="-253.5" font-family="serif" font-size="10.00">MobilityCoefficient.hpp</text>
</a>
</g>
</g>
<!-- Node1&#45;&gt;Node2 -->
<g id="edge1" class="edge">
<title>Node1&#45;&gt;Node2</title>
<path fill="none" stroke="midnightblue" d="M874.7,-299.57C839.23,-289.38 788.13,-274.7 756.15,-265.52"/>
<polygon fill="midnightblue" stroke="midnightblue" points="874.13,-303.05 884.71,-302.44 876.07,-296.32 874.13,-303.05"/>
</g>
<!-- Node4 -->
<g id="node4" class="node">
<title>Node4</title>
<g id="a_node4"><a xlink:href="sloth_8hpp.html" target="_top" xlink:title="List of all header files contained in the kernel directory.">
<polygon fill="none" stroke="black" points="665,-0.5 665,-19.5 730,-19.5 730,-0.5 665,-0.5"/>
<text text-anchor="middle" x="697.5" y="-7.5" font-family="serif" font-size="10.00">sloth.hpp</text>
</a>
</g>
</g>
<!-- Node1&#45;&gt;Node4 -->
<g id="edge20" class="edge">
<title>Node1&#45;&gt;Node4</title>
<path fill="none" stroke="midnightblue" d="M981.19,-300.23C1035.59,-287.2 1103.5,-259.26 1103.5,-201 1103.5,-201 1103.5,-201 1103.5,-137.5 1103.5,-76.3 1049.05,-79.4 992.5,-56 902.74,-18.86 786.22,-11.98 730.28,-10.96"/>
<polygon fill="midnightblue" stroke="midnightblue" points="980.18,-296.87 971.21,-302.5 981.73,-303.7 980.18,-296.87"/>
</g>
<!-- Node3 -->
<g id="node3" class="node">
<title>Node3</title>
<g id="a_node3"><a xlink:href="AllenCahnGrainsNLFormIntegrator_8hpp.html" target="_top" xlink:title="VF for Allen&#45;Cahn equation solved in a polycrystal.">
<polygon fill="none" stroke="black" points="0,-129 0,-148 221,-148 221,-129 0,-129"/>
<text text-anchor="middle" x="110.5" y="-136" font-family="serif" font-size="10.00">AllenCahnGrainsNLFormIntegrator.hpp</text>
</a>
</g>
</g>
<!-- Node2&#45;&gt;Node3 -->
<g id="edge2" class="edge">
<title>Node2&#45;&gt;Node3</title>
<path fill="none" stroke="midnightblue" d="M648.05,-251.82C529.43,-246.32 310.33,-233.35 235.5,-210 190.07,-195.83 142.85,-163.56 121.8,-148.09"/>
<polygon fill="midnightblue" stroke="midnightblue" points="648.01,-255.32 658.16,-252.28 648.33,-248.32 648.01,-255.32"/>
</g>
<!-- Node2&#45;&gt;Node4 -->
<g id="edge19" class="edge">
<title>Node2&#45;&gt;Node4</title>
<path fill="none" stroke="midnightblue" d="M648.25,-247.1C496.88,-228.96 187.95,-176.26 295.5,-56 320.02,-28.58 573.63,-15.9 664.96,-12.2"/>
<polygon fill="midnightblue" stroke="midnightblue" points="648.09,-250.61 658.43,-248.3 648.91,-243.66 648.09,-250.61"/>
</g>
<!-- Node5 -->
<g id="node5" class="node">
<title>Node5</title>
<g id="a_node5"><a xlink:href="AllenCahnMeltingBaseNLFormIntegrator_8hpp.html" target="_top" xlink:title="Base integrator for melting.">
<polygon fill="none" stroke="black" points="517,-123.5 517,-153.5 694,-153.5 694,-123.5 517,-123.5"/>
<text text-anchor="start" x="525" y="-141.5" font-family="serif" font-size="10.00">AllenCahnMeltingBaseNLForm</text>
<text text-anchor="middle" x="605.5" y="-130.5" font-family="serif" font-size="10.00">Integrator.hpp</text>
</a>
</g>
</g>
<!-- Node2&#45;&gt;Node5 -->
<g id="edge4" class="edge">
<title>Node2&#45;&gt;Node5</title>
<path fill="none" stroke="midnightblue" d="M676.6,-243.33C657.53,-236.54 637.12,-226.03 623.5,-210 609.92,-194.02 606.38,-169.12 605.57,-153.59"/>
<polygon fill="midnightblue" stroke="midnightblue" points="675.52,-246.66 686.11,-246.47 677.71,-240.01 675.52,-246.66"/>
</g>
<!-- Node9 -->
<g id="node9" class="node">
<title>Node9</title>
<g id="a_node9"><a xlink:href="AllenCahnNLFormIntegrator_8hpp.html" target="_top" xlink:title="FV for the Allen Cahn equation.">
<polygon fill="none" stroke="black" points="633,-190.5 633,-209.5 820,-209.5 820,-190.5 633,-190.5"/>
<text text-anchor="middle" x="726.5" y="-197.5" font-family="serif" font-size="10.00">AllenCahnNLFormIntegrator.hpp</text>
</a>
</g>
</g>
<!-- Node2&#45;&gt;Node9 -->
<g id="edge12" class="edge">
<title>Node2&#45;&gt;Node9</title>
<path fill="none" stroke="midnightblue" d="M726.5,-235.8C726.5,-226.91 726.5,-216.78 726.5,-209.75"/>
<polygon fill="midnightblue" stroke="midnightblue" points="723,-236.08 726.5,-246.08 730,-236.08 723,-236.08"/>
</g>
<!-- Node10 -->
<g id="node10" class="node">
<title>Node10</title>
<g id="a_node10"><a xlink:href="BlockAllenCahnNLFormIntegrator_8hpp.html" target="_top" xlink:title="VF of the AllenCahn equations (splitting version)">
<polygon fill="none" stroke="black" points="822,-129 822,-148 1037,-148 1037,-129 822,-129"/>
<text text-anchor="middle" x="929.5" y="-136" font-family="serif" font-size="10.00">BlockAllenCahnNLFormIntegrator.hpp</text>
</a>
</g>
</g>
<!-- Node2&#45;&gt;Node10 -->
<g id="edge15" class="edge">
<title>Node2&#45;&gt;Node10</title>
<path fill="none" stroke="midnightblue" d="M758.88,-242.6C779.33,-234.31 806.03,-222.64 828.5,-210 863.17,-190.5 900.77,-162.12 918.75,-148.06"/>
<polygon fill="midnightblue" stroke="midnightblue" points="757.38,-239.43 749.39,-246.38 759.98,-245.93 757.38,-239.43"/>
</g>
<!-- Node11 -->
<g id="node11" class="node">
<title>Node11</title>
<g id="a_node11"><a xlink:href="CahnHilliardNLFormIntegrator_8hpp.html" target="_top" xlink:title="VF of the CahnHilliard equations.">
<polygon fill="none" stroke="black" points="876,-190.5 876,-209.5 1075,-209.5 1075,-190.5 876,-190.5"/>
<text text-anchor="middle" x="975.5" y="-197.5" font-family="serif" font-size="10.00">CahnHilliardNLFormIntegrator.hpp</text>
</a>
</g>
</g>
<!-- Node2&#45;&gt;Node11 -->
<g id="edge17" class="edge">
<title>Node2&#45;&gt;Node11</title>
<path fill="none" stroke="midnightblue" d="M775.92,-244.28C822.98,-234.08 892.87,-218.92 936.23,-209.52"/>
<polygon fill="midnightblue" stroke="midnightblue" points="774.99,-240.9 765.95,-246.44 776.47,-247.74 774.99,-240.9"/>
</g>
<!-- Node3&#45;&gt;Node4 -->
<g id="edge3" class="edge">
<title>Node3&#45;&gt;Node4</title>
<path fill="none" stroke="midnightblue" d="M127.75,-122.3C150.6,-103.14 193.01,-70.91 235.5,-56 315.06,-28.09 573.23,-15.74 664.87,-12.16"/>
<polygon fill="midnightblue" stroke="midnightblue" points="125.31,-119.78 119.98,-128.94 129.86,-125.1 125.31,-119.78"/>
</g>
<!-- Node5&#45;&gt;Node4 -->
<g id="edge11" class="edge">
<title>Node5&#45;&gt;Node4</title>
<path fill="none" stroke="midnightblue" d="M506.6,-134.23C429.38,-129.35 331.04,-117.2 305.5,-87 296.6,-76.48 296.33,-66.28 305.5,-56 329.29,-29.32 574.93,-16.23 664.8,-12.31"/>
<polygon fill="midnightblue" stroke="midnightblue" points="506.67,-137.74 516.86,-134.84 507.09,-130.75 506.67,-137.74"/>
</g>
<!-- Node6 -->
<g id="node6" class="node">
<title>Node6</title>
<g id="a_node6"><a xlink:href="AllenCahnCalphadMeltingNLFormIntegrator_8hpp.html" target="_top" xlink:title="Compute the enthalpy of phase change based on two driving forces defined as auxiliary variables.">
<polygon fill="none" stroke="black" points="315,-56.5 315,-86.5 510,-86.5 510,-56.5 315,-56.5"/>
<text text-anchor="start" x="323" y="-74.5" font-family="serif" font-size="10.00">AllenCahnCalphadMeltingNLForm</text>
<text text-anchor="middle" x="412.5" y="-63.5" font-family="serif" font-size="10.00">Integrator.hpp</text>
</a>
</g>
</g>
<!-- Node5&#45;&gt;Node6 -->
<g id="edge5" class="edge">
<title>Node5&#45;&gt;Node6</title>
<path fill="none" stroke="midnightblue" d="M553.81,-120.09C522.66,-109.6 483.49,-96.41 454.3,-86.58"/>
<polygon fill="midnightblue" stroke="midnightblue" points="553.03,-123.52 563.62,-123.4 555.26,-116.89 553.03,-123.52"/>
</g>
<!-- Node7 -->
<g id="node7" class="node">
<title>Node7</title>
<g id="a_node7"><a xlink:href="AllenCahnConstantMeltingNLFormIntegrator_8hpp.html" target="_top" xlink:title="AllenCahn integrator for constant melting.">
<polygon fill="none" stroke="black" points="528,-56.5 528,-86.5 683,-86.5 683,-56.5 528,-56.5"/>
<text text-anchor="start" x="536" y="-74.5" font-family="serif" font-size="10.00">AllenCahnConstantMelting</text>
<text text-anchor="middle" x="605.5" y="-63.5" font-family="serif" font-size="10.00">NLFormIntegrator.hpp</text>
</a>
</g>
</g>
<!-- Node5&#45;&gt;Node7 -->
<g id="edge7" class="edge">
<title>Node5&#45;&gt;Node7</title>
<path fill="none" stroke="midnightblue" d="M605.5,-113.11C605.5,-104.15 605.5,-94.32 605.5,-86.58"/>
<polygon fill="midnightblue" stroke="midnightblue" points="602,-113.4 605.5,-123.4 609,-113.4 602,-113.4"/>
</g>
<!-- Node8 -->
<g id="node8" class="node">
<title>Node8</title>
<g id="a_node8"><a xlink:href="AllenCahnTemperatureMeltingNLFormIntegrator_8hpp.html" target="_top" xlink:title="FV for the Allen Cahn equation with ad&#45;hoc melting controled by temperature and a given melting tempe...">
<polygon fill="none" stroke="black" points="701.5,-56.5 701.5,-86.5 877.5,-86.5 877.5,-56.5 701.5,-56.5"/>
<text text-anchor="start" x="709.5" y="-74.5" font-family="serif" font-size="10.00">AllenCahnTemperatureMelting</text>
<text text-anchor="middle" x="789.5" y="-63.5" font-family="serif" font-size="10.00">NLFormIntegrator.hpp</text>
</a>
</g>
</g>
<!-- Node5&#45;&gt;Node8 -->
<g id="edge9" class="edge">
<title>Node5&#45;&gt;Node8</title>
<path fill="none" stroke="midnightblue" d="M655.17,-119.96C684.8,-109.48 721.94,-96.37 749.65,-86.58"/>
<polygon fill="midnightblue" stroke="midnightblue" points="653.69,-116.76 645.43,-123.4 656.02,-123.37 653.69,-116.76"/>
</g>
<!-- Node6&#45;&gt;Node4 -->
<g id="edge6" class="edge">
<title>Node6&#45;&gt;Node4</title>
<path fill="none" stroke="midnightblue" d="M489.8,-54.36C547.09,-42.4 622.31,-26.7 664.72,-17.84"/>
<polygon fill="midnightblue" stroke="midnightblue" points="488.75,-51 479.68,-56.47 490.18,-57.86 488.75,-51"/>
</g>
<!-- Node7&#45;&gt;Node4 -->
<g id="edge8" class="edge">
<title>Node7&#45;&gt;Node4</title>
<path fill="none" stroke="midnightblue" d="M636,-50.78C652.3,-40.23 671.55,-27.78 684.11,-19.66"/>
<polygon fill="midnightblue" stroke="midnightblue" points="633.8,-48.03 627.3,-56.4 637.6,-53.91 633.8,-48.03"/>
</g>
<!-- Node8&#45;&gt;Node4 -->
<g id="edge10" class="edge">
<title>Node8&#45;&gt;Node4</title>
<path fill="none" stroke="midnightblue" d="M759,-50.78C742.7,-40.23 723.45,-27.78 710.89,-19.66"/>
<polygon fill="midnightblue" stroke="midnightblue" points="757.4,-53.91 767.7,-56.4 761.2,-48.03 757.4,-53.91"/>
</g>
<!-- Node9&#45;&gt;Node4 -->
<g id="edge14" class="edge">
<title>Node9&#45;&gt;Node4</title>
<path fill="none" stroke="midnightblue" d="M742.04,-182.9C758.49,-166.45 785.72,-140.86 812.5,-123 842.93,-102.7 867.1,-118.01 886.5,-87 893.81,-75.32 895.04,-66.81 886.5,-56 867.37,-31.78 779.01,-19.19 730.17,-13.98"/>
<polygon fill="midnightblue" stroke="midnightblue" points="739.41,-180.58 734.88,-190.16 744.4,-185.49 739.41,-180.58"/>
</g>
<!-- Node9&#45;&gt;Node5 -->
<g id="edge13" class="edge">
<title>Node9&#45;&gt;Node5</title>
<path fill="none" stroke="midnightblue" d="M699.94,-185.94C680.43,-176.35 653.97,-163.33 634.02,-153.52"/>
<polygon fill="midnightblue" stroke="midnightblue" points="698.65,-189.2 709.16,-190.48 701.73,-182.92 698.65,-189.2"/>
</g>
<!-- Node10&#45;&gt;Node4 -->
<g id="edge16" class="edge">
<title>Node10&#45;&gt;Node4</title>
<path fill="none" stroke="midnightblue" d="M932.88,-118.72C935.02,-100.33 934.97,-72.73 919.5,-56 894.33,-28.79 785.86,-17.25 730.41,-13.06"/>
<polygon fill="midnightblue" stroke="midnightblue" points="929.39,-118.38 931.38,-128.79 936.31,-119.42 929.39,-118.38"/>
</g>
<!-- Node11&#45;&gt;Node4 -->
<g id="edge18" class="edge">
<title>Node11&#45;&gt;Node4</title>
<path fill="none" stroke="midnightblue" d="M1009.32,-185.96C1023.14,-178.76 1037.68,-168.32 1045.5,-154 1052.1,-141.91 1052.12,-135.08 1045.5,-123 1018.89,-74.46 992,-76.3 940.5,-56 868.65,-27.67 777.71,-16.93 730.04,-13.05"/>
<polygon fill="midnightblue" stroke="midnightblue" points="1007.48,-182.97 999.97,-190.44 1010.5,-189.28 1007.48,-182.97"/>
</g>
</g>
</svg>
        <g id="navigator" transform="translate(0 0)" fill="#404254">
                <rect fill="#f2f5e9" fill-opacity="0.5" stroke="#606060" stroke-width=".5" x="0" y="0" width="60" height="60"/>
                <use id="zoomplus" xlink:href="#zoomPlus" x="17" y="9" onmousedown="handleZoom(evt,'in')"/>
                <use id="zoomminus" xlink:href="#zoomMin" x="42" y="9" onmousedown="handleZoom(evt,'out')"/>
                <use id="reset" xlink:href="#resetDef" x="30" y="36" onmousedown="handleReset()"/>
                <g id="arrowUp" xlink:href="#dirArrow" transform="translate(30 24)" onmousedown="handlePan(0,-1)">
                  <use xlink:href="#rim" fill="#404040">
                        <set attributeName="fill" to="#808080" begin="arrowUp.mouseover" end="arrowUp.mouseout"/>
                  </use>
                  <path fill="none" stroke="white" stroke-width="1.5" d="M0,-3.0v7 M-2.5,-0.5L0,-3.0L2.5,-0.5"/>
                </g>
                <g id="arrowRight" xlink:href="#dirArrow" transform="rotate(90) translate(36 -43)" onmousedown="handlePan(1,0)">
                  <use xlink:href="#rim" fill="#404040">
                        <set attributeName="fill" to="#808080" begin="arrowRight.mouseover" end="arrowRight.mouseout"/>
                  </use>
                  <path fill="none" stroke="white" stroke-width="1.5" d="M0,-3.0v7 M-2.5,-0.5L0,-3.0L2.5,-0.5"/>
                </g>
                <g id="arrowDown" xlink:href="#dirArrow" transform="rotate(180) translate(-30 -48)" onmousedown="handlePan(0,1)">
                  <use xlink:href="#rim" fill="#404040">
                        <set attributeName="fill" to="#808080" begin="arrowDown.mouseover" end="arrowDown.mouseout"/>
                  </use>
                  <path fill="none" stroke="white" stroke-width="1.5" d="M0,-3.0v7 M-2.5,-0.5L0,-3.0L2.5,-0.5"/>
                </g>
                <g id="arrowLeft" xlink:href="#dirArrow" transform="rotate(270) translate(-36 17)" onmousedown="handlePan(-1,0)">
                  <use xlink:href="#rim" fill="#404040">
                        <set attributeName="fill" to="#808080" begin="arrowLeft.mouseover" end="arrowLeft.mouseout"/>
                  </use>
                  <path fill="none" stroke="white" stroke-width="1.5" d="M0,-3.0v7 M-2.5,-0.5L0,-3.0L2.5,-0.5"/>
                </g>
        </g>
        <svg viewBox="0 0 15 15" width="100%" height="30px" preserveAspectRatio="xMaxYMin meet">
         <g id="arrow_out" transform="scale(0.3 0.3)">
          <a xlink:href="MobilityFunctions_8hpp__dep__incl_org.svg" target="_base">
           <rect id="button" ry="5" rx="5" y="6" x="6" height="38" width="38"
                fill="#f2f5e9" fill-opacity="0.5" stroke="#606060" stroke-width="1.0"/>
           <path id="arrow"
             d="M 11.500037,31.436501 C 11.940474,20.09759 22.043105,11.32322 32.158766,21.979434 L 37.068811,17.246167 C 37.068811,17.246167 37.088388,32 37.088388,32 L 22.160133,31.978069 C 22.160133,31.978069 26.997745,27.140456 26.997745,27.140456 C 18.528582,18.264221 13.291696,25.230495 11.500037,31.436501 z"
             style="fill:#404040;"/>
          </a>
         </g>
        </svg>
</svg>
