<?xml version="1.0" encoding="UTF-8" standalone="no"?>
<!DOCTYPE svg PUBLIC "-//W3C//DTD SVG 1.1//EN"
 "http://www.w3.org/Graphics/SVG/1.1/DTD/svg11.dtd">
<!-- Generated by graphviz version 2.43.0 (0)
 -->
<!-- Title: MobilityCoefficient.hpp Pages: 1 -->
<!--zoomable 274 -->
<svg id="main" version="1.1" xmlns="http://www.w3.org/2000/svg" xmlns:xlink="http://www.w3.org/1999/xlink" xml:space="preserve" onload="init(evt)">
<style type="text/css"><![CDATA[
.edge:hover path { stroke: red; }
.edge:hover polygon { stroke: red; fill: red; }
]]></style>
<script type="text/javascript"><![CDATA[
var edges = document.getElementsByTagName('g');
if (edges && edges.length) {
  for (var i=0;i<edges.length;i++) {
    if (edges[i].id.substr(0,4)=='edge') {
      edges[i].setAttribute('class','edge');
    }
  }
}
]]></script>
        <defs>
                <circle id="rim" cx="0" cy="0" r="7"/>
                <circle id="rim2" cx="0" cy="0" r="3.5"/>
                <g id="zoomPlus">
                        <use xlink:href="#rim" fill="#404040">
                                <set attributeName="fill" to="#808080" begin="zoomplus.mouseover" end="zoomplus.mouseout"/>
                        </use>
                        <path d="M-4,0h8M0,-4v8" fill="none" stroke="white" stroke-width="1.5" pointer-events="none"/>
                </g>
                <g id="zoomMin">
                        <use xlink:href="#rim" fill="#404040">
                                <set attributeName="fill" to="#808080" begin="zoomminus.mouseover" end="zoomminus.mouseout"/>
                        </use>
                        <path d="M-4,0h8" fill="none" stroke="white" stroke-width="1.5" pointer-events="none"/>
                </g>
                <g id="dirArrow">
                        <path fill="none" stroke="white" stroke-width="1.5" d="M0,-3.0v7 M-2.5,-0.5L0,-3.0L2.5,-0.5"/>
                </g>
               <g id="resetDef">
                       <use xlink:href="#rim2" fill="#404040">
                               <set attributeName="fill" to="#808080" begin="reset.mouseover" end="reset.mouseout"/>
                       </use>
               </g>
        </defs>

<script type="text/javascript">
var viewWidth = 1159;
var viewHeight = 274;
var sectionId = 'dynsection-1';
</script>
<script xlink:href="svgpan.js"/>
<svg id="graph" class="graph">
<g id="viewport">
<title>MobilityCoefficient.hpp</title>
<!-- Node1 -->
<g id="node1" class="node">
<title>Node1</title>
<g id="a_node1"><a xlink:title="Class dedicated to Mobility coefficient.">
<polygon fill="#bfbfbf" stroke="black" points="597.5,-246.5 597.5,-265.5 733.5,-265.5 733.5,-246.5 597.5,-246.5"/>
<text text-anchor="middle" x="665.5" y="-253.5" font-family="serif" font-size="10.00">MobilityCoefficient.hpp</text>
</a>
</g>
</g>
<!-- Node2 -->
<g id="node2" class="node">
<title>Node2</title>
<g id="a_node2"><a xlink:href="AllenCahnGrainsNLFormIntegrator_8hpp.html" target="_top" xlink:title="VF for Allen&#45;Cahn equation solved in a polycrystal.">
<polygon fill="none" stroke="black" points="0,-129 0,-148 221,-148 221,-129 0,-129"/>
<text text-anchor="middle" x="110.5" y="-136" font-family="serif" font-size="10.00">AllenCahnGrainsNLFormIntegrator.hpp</text>
</a>
</g>
</g>
<!-- Node1&#45;&gt;Node2 -->
<g id="edge1" class="edge">
<title>Node1&#45;&gt;Node2</title>
<path fill="none" stroke="midnightblue" d="M587.06,-250.62C481.32,-244.07 298.99,-230.26 235.5,-210 190.16,-195.53 142.9,-163.41 121.82,-148.03"/>
<polygon fill="midnightblue" stroke="midnightblue" points="587.16,-254.14 597.36,-251.25 587.59,-247.15 587.16,-254.14"/>
</g>
<!-- Node3 -->
<g id="node3" class="node">
<title>Node3</title>
<g id="a_node3"><a xlink:href="sloth_8hpp.html" target="_top" xlink:title="List of all header files contained in the kernel directory.">
<polygon fill="none" stroke="black" points="573,-0.5 573,-19.5 638,-19.5 638,-0.5 573,-0.5"/>
<text text-anchor="middle" x="605.5" y="-7.5" font-family="serif" font-size="10.00">sloth.hpp</text>
</a>
</g>
</g>
<!-- Node1&#45;&gt;Node3 -->
<g id="edge18" class="edge">
<title>Node1&#45;&gt;Node3</title>
<path fill="none" stroke="midnightblue" d="M588.7,-244.7C500.61,-228.33 360.06,-187.22 295.5,-87 288.04,-75.42 286.48,-66.42 295.5,-56 331.13,-14.82 500.7,-10.53 572.87,-10.61"/>
<polygon fill="midnightblue" stroke="midnightblue" points="588.18,-248.17 598.64,-246.49 589.42,-241.28 588.18,-248.17"/>
</g>
<!-- Node4 -->
<g id="node4" class="node">
<title>Node4</title>
<g id="a_node4"><a xlink:href="AllenCahnMeltingBaseNLFormIntegrator_8hpp.html" target="_top" xlink:title="Base integrator for melting.">
<polygon fill="none" stroke="black" points="517,-123.5 517,-153.5 694,-153.5 694,-123.5 517,-123.5"/>
<text text-anchor="start" x="525" y="-141.5" font-family="serif" font-size="10.00">AllenCahnMeltingBaseNLForm</text>
<text text-anchor="middle" x="605.5" y="-130.5" font-family="serif" font-size="10.00">Integrator.hpp</text>
</a>
</g>
</g>
<!-- Node1&#45;&gt;Node4 -->
<g id="edge3" class="edge">
<title>Node1&#45;&gt;Node4</title>
<path fill="none" stroke="midnightblue" d="M647.37,-239.56C638.98,-231.53 629.56,-221.08 623.5,-210 613.68,-192.05 609.08,-168.58 607.03,-153.77"/>
<polygon fill="midnightblue" stroke="midnightblue" points="645.19,-242.31 654.94,-246.46 649.91,-237.14 645.19,-242.31"/>
</g>
<!-- Node8 -->
<g id="node8" class="node">
<title>Node8</title>
<g id="a_node8"><a xlink:href="AllenCahnNLFormIntegrator_8hpp.html" target="_top" xlink:title="FV for the Allen Cahn equation.">
<polygon fill="none" stroke="black" points="633,-190.5 633,-209.5 820,-209.5 820,-190.5 633,-190.5"/>
<text text-anchor="middle" x="726.5" y="-197.5" font-family="serif" font-size="10.00">AllenCahnNLFormIntegrator.hpp</text>
</a>
</g>
</g>
<!-- Node1&#45;&gt;Node8 -->
<g id="edge11" class="edge">
<title>Node1&#45;&gt;Node8</title>
<path fill="none" stroke="midnightblue" d="M682.97,-239.54C693.84,-229.91 707.44,-217.87 716.52,-209.83"/>
<polygon fill="midnightblue" stroke="midnightblue" points="680.47,-237.07 675.3,-246.32 685.11,-242.32 680.47,-237.07"/>
</g>
<!-- Node9 -->
<g id="node9" class="node">
<title>Node9</title>
<g id="a_node9"><a xlink:href="BlockAllenCahnNLFormIntegrator_8hpp.html" target="_top" xlink:title="VF of the AllenCahn equations (splitting version)">
<polygon fill="none" stroke="black" points="836,-129 836,-148 1051,-148 1051,-129 836,-129"/>
<text text-anchor="middle" x="943.5" y="-136" font-family="serif" font-size="10.00">BlockAllenCahnNLFormIntegrator.hpp</text>
</a>
</g>
</g>
<!-- Node1&#45;&gt;Node9 -->
<g id="edge14" class="edge">
<title>Node1&#45;&gt;Node9</title>
<path fill="none" stroke="midnightblue" d="M718.94,-244.24C751.4,-236.73 793.24,-225.31 828.5,-210 868.88,-192.46 911.97,-162.66 932.02,-148.07"/>
<polygon fill="midnightblue" stroke="midnightblue" points="718.17,-240.82 709.18,-246.44 719.71,-247.65 718.17,-240.82"/>
</g>
<!-- Node10 -->
<g id="node10" class="node">
<title>Node10</title>
<g id="a_node10"><a xlink:href="CahnHilliardNLFormIntegrator_8hpp.html" target="_top" xlink:title="VF of the CahnHilliard equations.">
<polygon fill="none" stroke="black" points="952,-190.5 952,-209.5 1151,-209.5 1151,-190.5 952,-190.5"/>
<text text-anchor="middle" x="1051.5" y="-197.5" font-family="serif" font-size="10.00">CahnHilliardNLFormIntegrator.hpp</text>
</a>
</g>
</g>
<!-- Node1&#45;&gt;Node10 -->
<g id="edge16" class="edge">
<title>Node1&#45;&gt;Node10</title>
<path fill="none" stroke="midnightblue" d="M736.68,-245.04C809.58,-234.84 921.71,-219.16 990.62,-209.52"/>
<polygon fill="midnightblue" stroke="midnightblue" points="736.08,-241.59 726.66,-246.44 737.05,-248.52 736.08,-241.59"/>
</g>
<!-- Node2&#45;&gt;Node3 -->
<g id="edge2" class="edge">
<title>Node2&#45;&gt;Node3</title>
<path fill="none" stroke="midnightblue" d="M128.16,-122.16C151.15,-103.14 193.41,-71.34 235.5,-56 297.29,-33.49 494.19,-18.36 572.72,-13.08"/>
<polygon fill="midnightblue" stroke="midnightblue" points="125.71,-119.65 120.32,-128.77 130.22,-125 125.71,-119.65"/>
</g>
<!-- Node4&#45;&gt;Node3 -->
<g id="edge10" class="edge">
<title>Node4&#45;&gt;Node3</title>
<path fill="none" stroke="midnightblue" d="M506.6,-134.23C429.38,-129.35 331.04,-117.2 305.5,-87 296.6,-76.48 296.51,-66.44 305.5,-56 339.74,-16.24 502.41,-11.11 572.86,-10.79"/>
<polygon fill="midnightblue" stroke="midnightblue" points="506.67,-137.74 516.86,-134.84 507.09,-130.75 506.67,-137.74"/>
</g>
<!-- Node5 -->
<g id="node5" class="node">
<title>Node5</title>
<g id="a_node5"><a xlink:href="AllenCahnCalphadMeltingNLFormIntegrator_8hpp.html" target="_top" xlink:title="Compute the enthalpy of phase change based on two driving forces defined as auxiliary variables.">
<polygon fill="none" stroke="black" points="315,-56.5 315,-86.5 510,-86.5 510,-56.5 315,-56.5"/>
<text text-anchor="start" x="323" y="-74.5" font-family="serif" font-size="10.00">AllenCahnCalphadMeltingNLForm</text>
<text text-anchor="middle" x="412.5" y="-63.5" font-family="serif" font-size="10.00">Integrator.hpp</text>
</a>
</g>
</g>
<!-- Node4&#45;&gt;Node5 -->
<g id="edge4" class="edge">
<title>Node4&#45;&gt;Node5</title>
<path fill="none" stroke="midnightblue" d="M553.81,-120.09C522.66,-109.6 483.49,-96.41 454.3,-86.58"/>
<polygon fill="midnightblue" stroke="midnightblue" points="553.03,-123.52 563.62,-123.4 555.26,-116.89 553.03,-123.52"/>
</g>
<!-- Node6 -->
<g id="node6" class="node">
<title>Node6</title>
<g id="a_node6"><a xlink:href="AllenCahnConstantMeltingNLFormIntegrator_8hpp.html" target="_top" xlink:title="AllenCahn integrator for constant melting.">
<polygon fill="none" stroke="black" points="528,-56.5 528,-86.5 683,-86.5 683,-56.5 528,-56.5"/>
<text text-anchor="start" x="536" y="-74.5" font-family="serif" font-size="10.00">AllenCahnConstantMelting</text>
<text text-anchor="middle" x="605.5" y="-63.5" font-family="serif" font-size="10.00">NLFormIntegrator.hpp</text>
</a>
</g>
</g>
<!-- Node4&#45;&gt;Node6 -->
<g id="edge6" class="edge">
<title>Node4&#45;&gt;Node6</title>
<path fill="none" stroke="midnightblue" d="M605.5,-113.11C605.5,-104.15 605.5,-94.32 605.5,-86.58"/>
<polygon fill="midnightblue" stroke="midnightblue" points="602,-113.4 605.5,-123.4 609,-113.4 602,-113.4"/>
</g>
<!-- Node7 -->
<g id="node7" class="node">
<title>Node7</title>
<g id="a_node7"><a xlink:href="AllenCahnTemperatureMeltingNLFormIntegrator_8hpp.html" target="_top" xlink:title="FV for the Allen Cahn equation with ad&#45;hoc melting controled by temperature and a given melting tempe...">
<polygon fill="none" stroke="black" points="701.5,-56.5 701.5,-86.5 877.5,-86.5 877.5,-56.5 701.5,-56.5"/>
<text text-anchor="start" x="709.5" y="-74.5" font-family="serif" font-size="10.00">AllenCahnTemperatureMelting</text>
<text text-anchor="middle" x="789.5" y="-63.5" font-family="serif" font-size="10.00">NLFormIntegrator.hpp</text>
</a>
</g>
</g>
<!-- Node4&#45;&gt;Node7 -->
<g id="edge8" class="edge">
<title>Node4&#45;&gt;Node7</title>
<path fill="none" stroke="midnightblue" d="M655.17,-119.96C684.8,-109.48 721.94,-96.37 749.65,-86.58"/>
<polygon fill="midnightblue" stroke="midnightblue" points="653.69,-116.76 645.43,-123.4 656.02,-123.37 653.69,-116.76"/>
</g>
<!-- Node5&#45;&gt;Node3 -->
<g id="edge5" class="edge">
<title>Node5&#45;&gt;Node3</title>
<path fill="none" stroke="midnightblue" d="M468.1,-53.36C504,-42.29 549.17,-28.37 577.7,-19.57"/>
<polygon fill="midnightblue" stroke="midnightblue" points="466.76,-50.11 458.24,-56.4 468.83,-56.8 466.76,-50.11"/>
</g>
<!-- Node6&#45;&gt;Node3 -->
<g id="edge7" class="edge">
<title>Node6&#45;&gt;Node3</title>
<path fill="none" stroke="midnightblue" d="M605.5,-46.29C605.5,-36.86 605.5,-26.65 605.5,-19.66"/>
<polygon fill="midnightblue" stroke="midnightblue" points="602,-46.4 605.5,-56.4 609,-46.4 602,-46.4"/>
</g>
<!-- Node7&#45;&gt;Node3 -->
<g id="edge9" class="edge">
<title>Node7&#45;&gt;Node3</title>
<path fill="none" stroke="midnightblue" d="M736.06,-53.22C701.9,-42.17 659.09,-28.33 632.01,-19.57"/>
<polygon fill="midnightblue" stroke="midnightblue" points="735.3,-56.65 745.89,-56.4 737.46,-49.99 735.3,-56.65"/>
</g>
<!-- Node8&#45;&gt;Node3 -->
<g id="edge13" class="edge">
<title>Node8&#45;&gt;Node3</title>
<path fill="none" stroke="midnightblue" d="M744.89,-184.06C764.62,-168.26 797.09,-142.91 826.5,-123 852.25,-105.57 871.18,-114.06 886.5,-87 893.29,-75.01 895.44,-66.48 886.5,-56 854.89,-18.92 705.17,-12.27 638.11,-11.16"/>
<polygon fill="midnightblue" stroke="midnightblue" points="742.61,-181.4 737.02,-190.4 747,-186.85 742.61,-181.4"/>
</g>
<!-- Node8&#45;&gt;Node4 -->
<g id="edge12" class="edge">
<title>Node8&#45;&gt;Node4</title>
<path fill="none" stroke="midnightblue" d="M699.94,-185.94C680.43,-176.35 653.97,-163.33 634.02,-153.52"/>
<polygon fill="midnightblue" stroke="midnightblue" points="698.65,-189.2 709.16,-190.48 701.73,-182.92 698.65,-189.2"/>
</g>
<!-- Node9&#45;&gt;Node3 -->
<g id="edge15" class="edge">
<title>Node9&#45;&gt;Node3</title>
<path fill="none" stroke="midnightblue" d="M943.47,-118.72C942.34,-99.91 937.5,-71.58 919.5,-56 877.86,-19.96 709.63,-12.77 638.02,-11.34"/>
<polygon fill="midnightblue" stroke="midnightblue" points="939.97,-118.88 943.77,-128.77 946.96,-118.67 939.97,-118.88"/>
</g>
<!-- Node10&#45;&gt;Node3 -->
<g id="edge17" class="edge">
<title>Node10&#45;&gt;Node3</title>
<path fill="none" stroke="midnightblue" d="M1059.14,-180.92C1064.73,-164.67 1069.73,-140.72 1059.5,-123 1029.74,-71.44 999.86,-75.18 943.5,-56 835.9,-19.38 699.58,-12.38 638.14,-11.16"/>
<polygon fill="midnightblue" stroke="midnightblue" points="1055.84,-179.74 1055.53,-190.33 1062.38,-182.25 1055.84,-179.74"/>
</g>
</g>
</svg>
        <g id="navigator" transform="translate(0 0)" fill="#404254">
                <rect fill="#f2f5e9" fill-opacity="0.5" stroke="#606060" stroke-width=".5" x="0" y="0" width="60" height="60"/>
                <use id="zoomplus" xlink:href="#zoomPlus" x="17" y="9" onmousedown="handleZoom(evt,'in')"/>
                <use id="zoomminus" xlink:href="#zoomMin" x="42" y="9" onmousedown="handleZoom(evt,'out')"/>
                <use id="reset" xlink:href="#resetDef" x="30" y="36" onmousedown="handleReset()"/>
                <g id="arrowUp" xlink:href="#dirArrow" transform="translate(30 24)" onmousedown="handlePan(0,-1)">
                  <use xlink:href="#rim" fill="#404040">
                        <set attributeName="fill" to="#808080" begin="arrowUp.mouseover" end="arrowUp.mouseout"/>
                  </use>
                  <path fill="none" stroke="white" stroke-width="1.5" d="M0,-3.0v7 M-2.5,-0.5L0,-3.0L2.5,-0.5"/>
                </g>
                <g id="arrowRight" xlink:href="#dirArrow" transform="rotate(90) translate(36 -43)" onmousedown="handlePan(1,0)">
                  <use xlink:href="#rim" fill="#404040">
                        <set attributeName="fill" to="#808080" begin="arrowRight.mouseover" end="arrowRight.mouseout"/>
                  </use>
                  <path fill="none" stroke="white" stroke-width="1.5" d="M0,-3.0v7 M-2.5,-0.5L0,-3.0L2.5,-0.5"/>
                </g>
                <g id="arrowDown" xlink:href="#dirArrow" transform="rotate(180) translate(-30 -48)" onmousedown="handlePan(0,1)">
                  <use xlink:href="#rim" fill="#404040">
                        <set attributeName="fill" to="#808080" begin="arrowDown.mouseover" end="arrowDown.mouseout"/>
                  </use>
                  <path fill="none" stroke="white" stroke-width="1.5" d="M0,-3.0v7 M-2.5,-0.5L0,-3.0L2.5,-0.5"/>
                </g>
                <g id="arrowLeft" xlink:href="#dirArrow" transform="rotate(270) translate(-36 17)" onmousedown="handlePan(-1,0)">
                  <use xlink:href="#rim" fill="#404040">
                        <set attributeName="fill" to="#808080" begin="arrowLeft.mouseover" end="arrowLeft.mouseout"/>
                  </use>
                  <path fill="none" stroke="white" stroke-width="1.5" d="M0,-3.0v7 M-2.5,-0.5L0,-3.0L2.5,-0.5"/>
                </g>
        </g>
        <svg viewBox="0 0 15 15" width="100%" height="30px" preserveAspectRatio="xMaxYMin meet">
         <g id="arrow_out" transform="scale(0.3 0.3)">
          <a xlink:href="MobilityCoefficient_8hpp__dep__incl_org.svg" target="_base">
           <rect id="button" ry="5" rx="5" y="6" x="6" height="38" width="38"
                fill="#f2f5e9" fill-opacity="0.5" stroke="#606060" stroke-width="1.0"/>
           <path id="arrow"
             d="M 11.500037,31.436501 C 11.940474,20.09759 22.043105,11.32322 32.158766,21.979434 L 37.068811,17.246167 C 37.068811,17.246167 37.088388,32 37.088388,32 L 22.160133,31.978069 C 22.160133,31.978069 26.997745,27.140456 26.997745,27.140456 C 18.528582,18.264221 13.291696,25.230495 11.500037,31.436501 z"
             style="fill:#404040;"/>
          </a>
         </g>
        </svg>
</svg>
