<?xml version="1.0" encoding="UTF-8" standalone="no"?>
<!DOCTYPE svg PUBLIC "-//W3C//DTD SVG 1.1//EN"
 "http://www.w3.org/Graphics/SVG/1.1/DTD/svg11.dtd">
<!-- Generated by graphviz version 2.43.0 (0)
 -->
<!-- Title: NLSolver.hpp Pages: 1 -->
<svg width="482pt" height="252pt"
 viewBox="0.00 0.00 481.96 252.00" xmlns="http://www.w3.org/2000/svg" xmlns:xlink="http://www.w3.org/1999/xlink">
<g id="graph0" class="graph" transform="scale(1 1) rotate(0) translate(4 248)">
<title>NLSolver.hpp</title>
<!-- Node1 -->
<g id="node1" class="node">
<title>Node1</title>
<g id="a_node1"><a xlink:title="Class used to manage a NonLinear Solver( Newton type)">
<polygon fill="#bfbfbf" stroke="black" points="54.71,-224.5 54.71,-243.5 141.71,-243.5 141.71,-224.5 54.71,-224.5"/>
<text text-anchor="middle" x="98.21" y="-231.5" font-family="serif" font-size="10.00">NLSolver.hpp</text>
</a>
</g>
</g>
<!-- Node2 -->
<g id="node2" class="node">
<title>Node2</title>
<g id="a_node2"><a xlink:href="OperatorBase_8hpp.html" target="_top" xlink:title="Base class for building Steady and TimeDependent PhaseFieldOperators.">
<polygon fill="none" stroke="black" points="43.21,-168.5 43.21,-187.5 153.21,-187.5 153.21,-168.5 43.21,-168.5"/>
<text text-anchor="middle" x="98.21" y="-175.5" font-family="serif" font-size="10.00">OperatorBase.hpp</text>
</a>
</g>
</g>
<!-- Node1&#45;&gt;Node2 -->
<g id="edge1" class="edge">
<title>Node1&#45;&gt;Node2</title>
<path fill="none" stroke="midnightblue" d="M98.21,-213.8C98.21,-204.91 98.21,-194.78 98.21,-187.75"/>
<polygon fill="midnightblue" stroke="midnightblue" points="94.71,-214.08 98.21,-224.08 101.71,-214.08 94.71,-214.08"/>
</g>
<!-- Node3 -->
<g id="node3" class="node">
<title>Node3</title>
<g id="a_node3"><a xlink:href="SteadyOperatorBase_8hpp.html" target="_top" xlink:title="Steady Operator base.">
<polygon fill="none" stroke="black" points="196.21,-112.5 196.21,-131.5 342.21,-131.5 342.21,-112.5 196.21,-112.5"/>
<text text-anchor="middle" x="269.21" y="-119.5" font-family="serif" font-size="10.00">SteadyOperatorBase.hpp</text>
</a>
</g>
</g>
<!-- Node1&#45;&gt;Node3 -->
<g id="edge16" class="edge">
<title>Node1&#45;&gt;Node3</title>
<path fill="none" stroke="midnightblue" d="M120.42,-218.71C156.45,-195.53 226.57,-150.43 255.85,-131.59"/>
<polygon fill="midnightblue" stroke="midnightblue" points="118.14,-216.01 111.63,-224.37 121.93,-221.9 118.14,-216.01"/>
</g>
<!-- Node5 -->
<g id="node5" class="node">
<title>Node5</title>
<g id="a_node5"><a xlink:href="sloth_8hpp.html" target="_top" xlink:title="List of all header files contained in the kernel directory.">
<polygon fill="none" stroke="black" points="74.71,-0.5 74.71,-19.5 139.71,-19.5 139.71,-0.5 74.71,-0.5"/>
<text text-anchor="middle" x="107.21" y="-7.5" font-family="serif" font-size="10.00">sloth.hpp</text>
</a>
</g>
</g>
<!-- Node1&#45;&gt;Node5 -->
<g id="edge17" class="edge">
<title>Node1&#45;&gt;Node5</title>
<path fill="none" stroke="midnightblue" d="M73.09,-219.18C60.32,-211.26 45.22,-200.44 34.21,-188 15.49,-166.86 11.08,-159.39 4.21,-132 2.04,-123.38 3.97,-120.89 4.21,-112 4.88,-87.08 -6.88,-76.56 7.21,-56 22.49,-33.7 51.59,-22.29 74.47,-16.56"/>
<polygon fill="midnightblue" stroke="midnightblue" points="71.5,-222.3 81.88,-224.41 75.08,-216.29 71.5,-222.3"/>
</g>
<!-- Node2&#45;&gt;Node3 -->
<g id="edge2" class="edge">
<title>Node2&#45;&gt;Node3</title>
<path fill="none" stroke="midnightblue" d="M135.24,-165.3C167.47,-155.13 213.4,-140.62 242.24,-131.52"/>
<polygon fill="midnightblue" stroke="midnightblue" points="133.79,-162.09 125.3,-168.44 135.89,-168.77 133.79,-162.09"/>
</g>
<!-- Node2&#45;&gt;Node5 -->
<g id="edge15" class="edge">
<title>Node2&#45;&gt;Node5</title>
<path fill="none" stroke="midnightblue" d="M52.83,-164.77C36.47,-157.93 19.72,-147.54 10.21,-132 5.57,-124.42 9.42,-120.85 10.21,-112 12.44,-86.82 5.21,-76.35 20.21,-56 33.63,-37.79 56.58,-26.36 75.55,-19.57"/>
<polygon fill="midnightblue" stroke="midnightblue" points="51.77,-168.11 62.36,-168.4 54.26,-161.57 51.77,-168.11"/>
</g>
<!-- Node8 -->
<g id="node8" class="node">
<title>Node8</title>
<g id="a_node8"><a xlink:href="TransientOperatorBase_8hpp.html" target="_top" xlink:title="Transient Operator base.">
<polygon fill="none" stroke="black" points="18.71,-112.5 18.71,-131.5 177.71,-131.5 177.71,-112.5 18.71,-112.5"/>
<text text-anchor="middle" x="98.21" y="-119.5" font-family="serif" font-size="10.00">TransientOperatorBase.hpp</text>
</a>
</g>
</g>
<!-- Node2&#45;&gt;Node8 -->
<g id="edge10" class="edge">
<title>Node2&#45;&gt;Node8</title>
<path fill="none" stroke="midnightblue" d="M98.21,-157.8C98.21,-148.91 98.21,-138.78 98.21,-131.75"/>
<polygon fill="midnightblue" stroke="midnightblue" points="94.71,-158.08 98.21,-168.08 101.71,-158.08 94.71,-158.08"/>
</g>
<!-- Node4 -->
<g id="node4" class="node">
<title>Node4</title>
<g id="a_node4"><a xlink:href="DiffusionOperator_8hpp.html" target="_top" xlink:title="Diffusion operator (Base, Steady and TimeDependent)">
<polygon fill="none" stroke="black" points="195.71,-56.5 195.71,-75.5 326.71,-75.5 326.71,-56.5 195.71,-56.5"/>
<text text-anchor="middle" x="261.21" y="-63.5" font-family="serif" font-size="10.00">DiffusionOperator.hpp</text>
</a>
</g>
</g>
<!-- Node3&#45;&gt;Node4 -->
<g id="edge3" class="edge">
<title>Node3&#45;&gt;Node4</title>
<path fill="none" stroke="midnightblue" d="M266.41,-102.1C265.08,-93.14 263.56,-82.86 262.5,-75.75"/>
<polygon fill="midnightblue" stroke="midnightblue" points="262.96,-102.7 267.89,-112.08 269.88,-101.68 262.96,-102.7"/>
</g>
<!-- Node3&#45;&gt;Node5 -->
<g id="edge9" class="edge">
<title>Node3&#45;&gt;Node5</title>
<path fill="none" stroke="midnightblue" d="M352.3,-118.09C420.73,-112.72 500.99,-97.71 464.21,-56 442.9,-31.84 224.2,-17.4 140,-12.7"/>
<polygon fill="midnightblue" stroke="midnightblue" points="352.02,-114.6 342.3,-118.81 352.53,-121.58 352.02,-114.6"/>
</g>
<!-- Node6 -->
<g id="node6" class="node">
<title>Node6</title>
<g id="a_node6"><a xlink:href="HeatOperator_8hpp.html" target="_top" xlink:title="Heat operator (Base, Steady and TimeDependent)">
<polygon fill="none" stroke="black" points="345.21,-56.5 345.21,-75.5 455.21,-75.5 455.21,-56.5 345.21,-56.5"/>
<text text-anchor="middle" x="400.21" y="-63.5" font-family="serif" font-size="10.00">HeatOperator.hpp</text>
</a>
</g>
</g>
<!-- Node3&#45;&gt;Node6 -->
<g id="edge5" class="edge">
<title>Node3&#45;&gt;Node6</title>
<path fill="none" stroke="midnightblue" d="M299.52,-108.5C324.08,-98.38 358.03,-84.39 379.55,-75.52"/>
<polygon fill="midnightblue" stroke="midnightblue" points="297.88,-105.4 289.97,-112.44 300.54,-111.87 297.88,-105.4"/>
</g>
<!-- Node7 -->
<g id="node7" class="node">
<title>Node7</title>
<g id="a_node7"><a xlink:href="PhaseFieldOperator_8hpp.html" target="_top" xlink:title="AllenCahn operator (Base, Steady and TimeDependent)">
<polygon fill="none" stroke="black" points="36.71,-56.5 36.71,-75.5 177.71,-75.5 177.71,-56.5 36.71,-56.5"/>
<text text-anchor="middle" x="107.21" y="-63.5" font-family="serif" font-size="10.00">PhaseFieldOperator.hpp</text>
</a>
</g>
</g>
<!-- Node3&#45;&gt;Node7 -->
<g id="edge7" class="edge">
<title>Node3&#45;&gt;Node7</title>
<path fill="none" stroke="midnightblue" d="M233.72,-109.17C203.22,-99 159.96,-84.59 132.76,-75.52"/>
<polygon fill="midnightblue" stroke="midnightblue" points="232.95,-112.6 243.54,-112.44 235.16,-105.96 232.95,-112.6"/>
</g>
<!-- Node4&#45;&gt;Node5 -->
<g id="edge4" class="edge">
<title>Node4&#45;&gt;Node5</title>
<path fill="none" stroke="midnightblue" d="M227.1,-53.04C198.12,-42.88 157.25,-28.55 131.5,-19.52"/>
<polygon fill="midnightblue" stroke="midnightblue" points="226.21,-56.44 236.81,-56.44 228.53,-49.83 226.21,-56.44"/>
</g>
<!-- Node6&#45;&gt;Node5 -->
<g id="edge6" class="edge">
<title>Node6&#45;&gt;Node5</title>
<path fill="none" stroke="midnightblue" d="M343.62,-54.57C283.05,-43.41 189.05,-26.08 139.81,-17.01"/>
<polygon fill="midnightblue" stroke="midnightblue" points="343.31,-58.07 353.78,-56.44 344.58,-51.19 343.31,-58.07"/>
</g>
<!-- Node7&#45;&gt;Node5 -->
<g id="edge8" class="edge">
<title>Node7&#45;&gt;Node5</title>
<path fill="none" stroke="midnightblue" d="M107.21,-45.8C107.21,-36.91 107.21,-26.78 107.21,-19.75"/>
<polygon fill="midnightblue" stroke="midnightblue" points="103.71,-46.08 107.21,-56.08 110.71,-46.08 103.71,-46.08"/>
</g>
<!-- Node8&#45;&gt;Node4 -->
<g id="edge11" class="edge">
<title>Node8&#45;&gt;Node4</title>
<path fill="none" stroke="midnightblue" d="M133.91,-109.17C164.6,-99 208.13,-84.59 235.5,-75.52"/>
<polygon fill="midnightblue" stroke="midnightblue" points="132.43,-105.98 124.04,-112.44 134.63,-112.62 132.43,-105.98"/>
</g>
<!-- Node8&#45;&gt;Node5 -->
<g id="edge14" class="edge">
<title>Node8&#45;&gt;Node5</title>
<path fill="none" stroke="midnightblue" d="M65.73,-108.15C41.45,-96.47 14.47,-77.78 27.21,-56 37.91,-37.71 59.08,-26.27 76.96,-19.51"/>
<polygon fill="midnightblue" stroke="midnightblue" points="64.6,-111.48 75.15,-112.42 67.49,-105.11 64.6,-111.48"/>
</g>
<!-- Node8&#45;&gt;Node6 -->
<g id="edge12" class="edge">
<title>Node8&#45;&gt;Node6</title>
<path fill="none" stroke="midnightblue" d="M156.01,-110.66C213.08,-100.46 299.33,-85.04 352.58,-75.52"/>
<polygon fill="midnightblue" stroke="midnightblue" points="155.29,-107.24 146.06,-112.44 156.52,-114.13 155.29,-107.24"/>
</g>
<!-- Node8&#45;&gt;Node7 -->
<g id="edge13" class="edge">
<title>Node8&#45;&gt;Node7</title>
<path fill="none" stroke="midnightblue" d="M101.36,-102.1C102.85,-93.14 104.57,-82.86 105.75,-75.75"/>
<polygon fill="midnightblue" stroke="midnightblue" points="97.89,-101.64 99.69,-112.08 104.79,-102.79 97.89,-101.64"/>
</g>
</g>
</svg>
