<?xml version="1.0" encoding="UTF-8" standalone="no"?>
<!DOCTYPE svg PUBLIC "-//W3C//DTD SVG 1.1//EN"
 "http://www.w3.org/Graphics/SVG/1.1/DTD/svg11.dtd">
<!-- Generated by graphviz version 2.43.0 (0)
 -->
<!-- Title: NLSolverBase.hpp Pages: 1 -->
<!--zoomable 308 -->
<svg id="main" version="1.1" xmlns="http://www.w3.org/2000/svg" xmlns:xlink="http://www.w3.org/1999/xlink" xml:space="preserve" onload="init(evt)">
<style type="text/css"><![CDATA[
.edge:hover path { stroke: red; }
.edge:hover polygon { stroke: red; fill: red; }
]]></style>
<script type="text/javascript"><![CDATA[
var edges = document.getElementsByTagName('g');
if (edges && edges.length) {
  for (var i=0;i<edges.length;i++) {
    if (edges[i].id.substr(0,4)=='edge') {
      edges[i].setAttribute('class','edge');
    }
  }
}
]]></script>
        <defs>
                <circle id="rim" cx="0" cy="0" r="7"/>
                <circle id="rim2" cx="0" cy="0" r="3.5"/>
                <g id="zoomPlus">
                        <use xlink:href="#rim" fill="#404040">
                                <set attributeName="fill" to="#808080" begin="zoomplus.mouseover" end="zoomplus.mouseout"/>
                        </use>
                        <path d="M-4,0h8M0,-4v8" fill="none" stroke="white" stroke-width="1.5" pointer-events="none"/>
                </g>
                <g id="zoomMin">
                        <use xlink:href="#rim" fill="#404040">
                                <set attributeName="fill" to="#808080" begin="zoomminus.mouseover" end="zoomminus.mouseout"/>
                        </use>
                        <path d="M-4,0h8" fill="none" stroke="white" stroke-width="1.5" pointer-events="none"/>
                </g>
                <g id="dirArrow">
                        <path fill="none" stroke="white" stroke-width="1.5" d="M0,-3.0v7 M-2.5,-0.5L0,-3.0L2.5,-0.5"/>
                </g>
               <g id="resetDef">
                       <use xlink:href="#rim2" fill="#404040">
                               <set attributeName="fill" to="#808080" begin="reset.mouseover" end="reset.mouseout"/>
                       </use>
               </g>
        </defs>

<script type="text/javascript">
var viewWidth = 551;
var viewHeight = 308;
var sectionId = 'dynsection-1';
</script>
<script xlink:href="svgpan.js"/>
<svg id="graph" class="graph">
<g id="viewport">
<title>NLSolverBase.hpp</title>
<!-- Node1 -->
<g id="node1" class="node">
<title>Node1</title>
<g id="a_node1"><a xlink:title="ase class for non linear solvers">
<polygon fill="#bfbfbf" stroke="black" points="67.5,-280.5 67.5,-299.5 180.5,-299.5 180.5,-280.5 67.5,-280.5"/>
<text text-anchor="middle" x="124" y="-287.5" font-family="serif" font-size="10.00">NLSolverBase.hpp</text>
</a>
</g>
</g>
<!-- Node2 -->
<g id="node2" class="node">
<title>Node2</title>
<g id="a_node2"><a xlink:href="sloth_8hpp.html" target="_top" xlink:title="List of all header files contained in the kernel directory.">
<polygon fill="none" stroke="black" points="309.5,-0.5 309.5,-19.5 374.5,-19.5 374.5,-0.5 309.5,-0.5"/>
<text text-anchor="middle" x="342" y="-7.5" font-family="serif" font-size="10.00">sloth.hpp</text>
</a>
</g>
</g>
<!-- Node1&#45;&gt;Node2 -->
<g id="edge1" class="edge">
<title>Node1&#45;&gt;Node2</title>
<path fill="none" stroke="midnightblue" d="M91.01,-276.48C54.27,-260.13 0,-227.74 0,-179 0,-179 0,-179 0,-121 0,-85.86 15.19,-74.6 45,-56 88.69,-28.74 241.74,-16.76 309.41,-12.71"/>
<polygon fill="midnightblue" stroke="midnightblue" points="89.81,-279.77 100.38,-280.48 92.56,-273.33 89.81,-279.77"/>
</g>
<!-- Node3 -->
<g id="node3" class="node">
<title>Node3</title>
<g id="a_node3"><a xlink:href="NLSolver_8hpp.html" target="_top" xlink:title="Class used to manage a NonLinear Solver( Newton type)">
<polygon fill="none" stroke="black" points="310.5,-224.5 310.5,-243.5 397.5,-243.5 397.5,-224.5 310.5,-224.5"/>
<text text-anchor="middle" x="354" y="-231.5" font-family="serif" font-size="10.00">NLSolver.hpp</text>
</a>
</g>
</g>
<!-- Node1&#45;&gt;Node3 -->
<g id="edge2" class="edge">
<title>Node1&#45;&gt;Node3</title>
<path fill="none" stroke="midnightblue" d="M170.2,-278.15C213.66,-267.95 277.84,-252.88 317.73,-243.52"/>
<polygon fill="midnightblue" stroke="midnightblue" points="169.38,-274.75 160.44,-280.44 170.98,-281.57 169.38,-274.75"/>
</g>
<!-- Node3&#45;&gt;Node2 -->
<g id="edge19" class="edge">
<title>Node3&#45;&gt;Node2</title>
<path fill="none" stroke="midnightblue" d="M397.37,-221.37C439.01,-207.62 499.53,-180.27 527,-132 543.71,-102.63 549.91,-82.54 529,-56 510.14,-32.07 423.14,-19.39 374.73,-14.08"/>
<polygon fill="midnightblue" stroke="midnightblue" points="396.22,-218.06 387.74,-224.42 398.33,-224.73 396.22,-218.06"/>
</g>
<!-- Node4 -->
<g id="node4" class="node">
<title>Node4</title>
<g id="a_node4"><a xlink:href="OperatorBase_8hpp.html" target="_top" xlink:title="Base class for building Steady and TimeDependent PhaseFieldOperators.">
<polygon fill="none" stroke="black" points="321,-168.5 321,-187.5 431,-187.5 431,-168.5 321,-168.5"/>
<text text-anchor="middle" x="376" y="-175.5" font-family="serif" font-size="10.00">OperatorBase.hpp</text>
</a>
</g>
</g>
<!-- Node3&#45;&gt;Node4 -->
<g id="edge3" class="edge">
<title>Node3&#45;&gt;Node4</title>
<path fill="none" stroke="midnightblue" d="M361.46,-214.69C365.17,-205.59 369.48,-195.01 372.43,-187.75"/>
<polygon fill="midnightblue" stroke="midnightblue" points="358.16,-213.5 357.63,-224.08 364.65,-216.14 358.16,-213.5"/>
</g>
<!-- Node5 -->
<g id="node5" class="node">
<title>Node5</title>
<g id="a_node5"><a xlink:href="SteadyOperatorBase_8hpp.html" target="_top" xlink:title="Steady Operator base.">
<polygon fill="none" stroke="black" points="175,-112.5 175,-131.5 321,-131.5 321,-112.5 175,-112.5"/>
<text text-anchor="middle" x="248" y="-119.5" font-family="serif" font-size="10.00">SteadyOperatorBase.hpp</text>
</a>
</g>
</g>
<!-- Node3&#45;&gt;Node5 -->
<g id="edge18" class="edge">
<title>Node3&#45;&gt;Node5</title>
<path fill="none" stroke="midnightblue" d="M338.48,-216.9C315.69,-193.25 273.97,-149.95 256.28,-131.59"/>
<polygon fill="midnightblue" stroke="midnightblue" points="336.22,-219.6 345.68,-224.37 341.26,-214.74 336.22,-219.6"/>
</g>
<!-- Node4&#45;&gt;Node2 -->
<g id="edge17" class="edge">
<title>Node4&#45;&gt;Node2</title>
<path fill="none" stroke="midnightblue" d="M441,-170.49C465.98,-164.49 492.26,-153.19 508,-132 528.15,-104.88 530.57,-82.81 510,-56 493.64,-34.68 418.81,-21.25 374.73,-15.05"/>
<polygon fill="midnightblue" stroke="midnightblue" points="440.19,-167.08 431.15,-172.6 441.66,-173.92 440.19,-167.08"/>
</g>
<!-- Node4&#45;&gt;Node5 -->
<g id="edge4" class="edge">
<title>Node4&#45;&gt;Node5</title>
<path fill="none" stroke="midnightblue" d="M346.38,-164.5C322.38,-154.38 289.22,-140.39 268.19,-131.52"/>
<polygon fill="midnightblue" stroke="midnightblue" points="345.14,-167.78 355.72,-168.44 347.86,-161.33 345.14,-167.78"/>
</g>
<!-- Node9 -->
<g id="node9" class="node">
<title>Node9</title>
<g id="a_node9"><a xlink:href="TransientOperatorBase_8hpp.html" target="_top" xlink:title="Transient Operator base.">
<polygon fill="none" stroke="black" points="339.5,-112.5 339.5,-131.5 498.5,-131.5 498.5,-112.5 339.5,-112.5"/>
<text text-anchor="middle" x="419" y="-119.5" font-family="serif" font-size="10.00">TransientOperatorBase.hpp</text>
</a>
</g>
</g>
<!-- Node4&#45;&gt;Node9 -->
<g id="edge12" class="edge">
<title>Node4&#45;&gt;Node9</title>
<path fill="none" stroke="midnightblue" d="M389.42,-160.14C396.91,-150.74 405.94,-139.4 412.03,-131.75"/>
<polygon fill="midnightblue" stroke="midnightblue" points="386.59,-158.08 383.1,-168.08 392.07,-162.44 386.59,-158.08"/>
</g>
<!-- Node5&#45;&gt;Node2 -->
<g id="edge11" class="edge">
<title>Node5&#45;&gt;Node2</title>
<path fill="none" stroke="midnightblue" d="M164.62,-117.81C98.28,-112.22 21.94,-97.03 57,-56 89.18,-18.35 241.7,-12.01 309.45,-11.08"/>
<polygon fill="midnightblue" stroke="midnightblue" points="164.5,-121.31 174.75,-118.59 165.05,-114.33 164.5,-121.31"/>
</g>
<!-- Node6 -->
<g id="node6" class="node">
<title>Node6</title>
<g id="a_node6"><a xlink:href="DiffusionOperator_8hpp.html" target="_top" xlink:title="Diffusion operator (Base, Steady and TimeDependent)">
<polygon fill="none" stroke="black" points="353.5,-56.5 353.5,-75.5 484.5,-75.5 484.5,-56.5 353.5,-56.5"/>
<text text-anchor="middle" x="419" y="-63.5" font-family="serif" font-size="10.00">DiffusionOperator.hpp</text>
</a>
</g>
</g>
<!-- Node5&#45;&gt;Node6 -->
<g id="edge5" class="edge">
<title>Node5&#45;&gt;Node6</title>
<path fill="none" stroke="midnightblue" d="M285.04,-109.3C317.26,-99.13 363.19,-84.62 392.03,-75.52"/>
<polygon fill="midnightblue" stroke="midnightblue" points="283.58,-106.09 275.1,-112.44 285.69,-112.77 283.58,-106.09"/>
</g>
<!-- Node7 -->
<g id="node7" class="node">
<title>Node7</title>
<g id="a_node7"><a xlink:href="HeatOperator_8hpp.html" target="_top" xlink:title="Heat operator (Base, Steady and TimeDependent)">
<polygon fill="none" stroke="black" points="66,-56.5 66,-75.5 176,-75.5 176,-56.5 66,-56.5"/>
<text text-anchor="middle" x="121" y="-63.5" font-family="serif" font-size="10.00">HeatOperator.hpp</text>
</a>
</g>
</g>
<!-- Node5&#45;&gt;Node7 -->
<g id="edge7" class="edge">
<title>Node5&#45;&gt;Node7</title>
<path fill="none" stroke="midnightblue" d="M218.61,-108.5C194.8,-98.38 161.89,-84.39 141.03,-75.52"/>
<polygon fill="midnightblue" stroke="midnightblue" points="217.3,-111.75 227.88,-112.44 220.04,-105.31 217.3,-111.75"/>
</g>
<!-- Node8 -->
<g id="node8" class="node">
<title>Node8</title>
<g id="a_node8"><a xlink:href="PhaseFieldOperator_8hpp.html" target="_top" xlink:title="AllenCahn operator (Base, Steady and TimeDependent)">
<polygon fill="none" stroke="black" points="194.5,-56.5 194.5,-75.5 335.5,-75.5 335.5,-56.5 194.5,-56.5"/>
<text text-anchor="middle" x="265" y="-63.5" font-family="serif" font-size="10.00">PhaseFieldOperator.hpp</text>
</a>
</g>
</g>
<!-- Node5&#45;&gt;Node8 -->
<g id="edge9" class="edge">
<title>Node5&#45;&gt;Node8</title>
<path fill="none" stroke="midnightblue" d="M253.86,-102.4C256.7,-93.36 259.98,-82.94 262.25,-75.75"/>
<polygon fill="midnightblue" stroke="midnightblue" points="250.47,-101.49 250.81,-112.08 257.15,-103.6 250.47,-101.49"/>
</g>
<!-- Node6&#45;&gt;Node2 -->
<g id="edge6" class="edge">
<title>Node6&#45;&gt;Node2</title>
<path fill="none" stroke="midnightblue" d="M398.1,-50.34C384.09,-40.52 366.12,-27.91 354.34,-19.65"/>
<polygon fill="midnightblue" stroke="midnightblue" points="396.43,-53.45 406.63,-56.32 400.45,-47.72 396.43,-53.45"/>
</g>
<!-- Node7&#45;&gt;Node2 -->
<g id="edge8" class="edge">
<title>Node7&#45;&gt;Node2</title>
<path fill="none" stroke="midnightblue" d="M165.83,-54.05C208.38,-43.65 271.31,-28.27 309.31,-18.99"/>
<polygon fill="midnightblue" stroke="midnightblue" points="164.9,-50.67 156.02,-56.44 166.56,-57.47 164.9,-50.67"/>
</g>
<!-- Node8&#45;&gt;Node2 -->
<g id="edge10" class="edge">
<title>Node8&#45;&gt;Node2</title>
<path fill="none" stroke="midnightblue" d="M285.9,-50.34C299.91,-40.52 317.88,-27.91 329.66,-19.65"/>
<polygon fill="midnightblue" stroke="midnightblue" points="283.55,-47.72 277.37,-56.32 287.57,-53.45 283.55,-47.72"/>
</g>
<!-- Node9&#45;&gt;Node2 -->
<g id="edge16" class="edge">
<title>Node9&#45;&gt;Node2</title>
<path fill="none" stroke="midnightblue" d="M452.4,-108.57C479.21,-96.65 509.96,-77.36 494,-56 466.58,-19.29 410.53,-11.29 374.69,-10.19"/>
<polygon fill="midnightblue" stroke="midnightblue" points="451.02,-105.35 443.16,-112.46 453.74,-111.8 451.02,-105.35"/>
</g>
<!-- Node9&#45;&gt;Node6 -->
<g id="edge13" class="edge">
<title>Node9&#45;&gt;Node6</title>
<path fill="none" stroke="midnightblue" d="M419,-101.8C419,-92.91 419,-82.78 419,-75.75"/>
<polygon fill="midnightblue" stroke="midnightblue" points="415.5,-102.08 419,-112.08 422.5,-102.08 415.5,-102.08"/>
</g>
<!-- Node9&#45;&gt;Node7 -->
<g id="edge14" class="edge">
<title>Node9&#45;&gt;Node7</title>
<path fill="none" stroke="midnightblue" d="M361.61,-110.6C305.29,-100.4 220.44,-85.02 168,-75.52"/>
<polygon fill="midnightblue" stroke="midnightblue" points="361.32,-114.1 371.78,-112.44 362.57,-107.22 361.32,-114.1"/>
</g>
<!-- Node9&#45;&gt;Node8 -->
<g id="edge15" class="edge">
<title>Node9&#45;&gt;Node8</title>
<path fill="none" stroke="midnightblue" d="M384.89,-109.04C355.91,-98.88 315.04,-84.55 289.29,-75.52"/>
<polygon fill="midnightblue" stroke="midnightblue" points="384,-112.44 394.6,-112.44 386.32,-105.83 384,-112.44"/>
</g>
</g>
</svg>
        <g id="navigator" transform="translate(0 0)" fill="#404254">
                <rect fill="#f2f5e9" fill-opacity="0.5" stroke="#606060" stroke-width=".5" x="0" y="0" width="60" height="60"/>
                <use id="zoomplus" xlink:href="#zoomPlus" x="17" y="9" onmousedown="handleZoom(evt,'in')"/>
                <use id="zoomminus" xlink:href="#zoomMin" x="42" y="9" onmousedown="handleZoom(evt,'out')"/>
                <use id="reset" xlink:href="#resetDef" x="30" y="36" onmousedown="handleReset()"/>
                <g id="arrowUp" xlink:href="#dirArrow" transform="translate(30 24)" onmousedown="handlePan(0,-1)">
                  <use xlink:href="#rim" fill="#404040">
                        <set attributeName="fill" to="#808080" begin="arrowUp.mouseover" end="arrowUp.mouseout"/>
                  </use>
                  <path fill="none" stroke="white" stroke-width="1.5" d="M0,-3.0v7 M-2.5,-0.5L0,-3.0L2.5,-0.5"/>
                </g>
                <g id="arrowRight" xlink:href="#dirArrow" transform="rotate(90) translate(36 -43)" onmousedown="handlePan(1,0)">
                  <use xlink:href="#rim" fill="#404040">
                        <set attributeName="fill" to="#808080" begin="arrowRight.mouseover" end="arrowRight.mouseout"/>
                  </use>
                  <path fill="none" stroke="white" stroke-width="1.5" d="M0,-3.0v7 M-2.5,-0.5L0,-3.0L2.5,-0.5"/>
                </g>
                <g id="arrowDown" xlink:href="#dirArrow" transform="rotate(180) translate(-30 -48)" onmousedown="handlePan(0,1)">
                  <use xlink:href="#rim" fill="#404040">
                        <set attributeName="fill" to="#808080" begin="arrowDown.mouseover" end="arrowDown.mouseout"/>
                  </use>
                  <path fill="none" stroke="white" stroke-width="1.5" d="M0,-3.0v7 M-2.5,-0.5L0,-3.0L2.5,-0.5"/>
                </g>
                <g id="arrowLeft" xlink:href="#dirArrow" transform="rotate(270) translate(-36 17)" onmousedown="handlePan(-1,0)">
                  <use xlink:href="#rim" fill="#404040">
                        <set attributeName="fill" to="#808080" begin="arrowLeft.mouseover" end="arrowLeft.mouseout"/>
                  </use>
                  <path fill="none" stroke="white" stroke-width="1.5" d="M0,-3.0v7 M-2.5,-0.5L0,-3.0L2.5,-0.5"/>
                </g>
        </g>
        <svg viewBox="0 0 15 15" width="100%" height="30px" preserveAspectRatio="xMaxYMin meet">
         <g id="arrow_out" transform="scale(0.3 0.3)">
          <a xlink:href="NLSolverBase_8hpp__dep__incl_org.svg" target="_base">
           <rect id="button" ry="5" rx="5" y="6" x="6" height="38" width="38"
                fill="#f2f5e9" fill-opacity="0.5" stroke="#606060" stroke-width="1.0"/>
           <path id="arrow"
             d="M 11.500037,31.436501 C 11.940474,20.09759 22.043105,11.32322 32.158766,21.979434 L 37.068811,17.246167 C 37.068811,17.246167 37.088388,32 37.088388,32 L 22.160133,31.978069 C 22.160133,31.978069 26.997745,27.140456 26.997745,27.140456 C 18.528582,18.264221 13.291696,25.230495 11.500037,31.436501 z"
             style="fill:#404040;"/>
          </a>
         </g>
        </svg>
</svg>
