<?xml version="1.0" encoding="UTF-8" standalone="no"?>
<!DOCTYPE svg PUBLIC "-//W3C//DTD SVG 1.1//EN"
 "http://www.w3.org/Graphics/SVG/1.1/DTD/svg11.dtd">
<!-- Generated by graphviz version 2.43.0 (0)
 -->
<!-- Title: OmegaFunctions.hpp Pages: 1 -->
<svg width="1028pt" height="330pt"
 viewBox="0.00 0.00 1027.50 330.00" xmlns="http://www.w3.org/2000/svg" xmlns:xlink="http://www.w3.org/1999/xlink">
<g id="graph0" class="graph" transform="scale(1 1) rotate(0) translate(4 326)">
<title>OmegaFunctions.hpp</title>
<!-- Node1 -->
<g id="node1" class="node">
<title>Node1</title>
<g id="a_node1"><a xlink:title="Omega functions.">
<polygon fill="#bfbfbf" stroke="black" points="754,-302.5 754,-321.5 881,-321.5 881,-302.5 754,-302.5"/>
<text text-anchor="middle" x="817.5" y="-309.5" font-family="serif" font-size="10.00">OmegaFunctions.hpp</text>
</a>
</g>
</g>
<!-- Node2 -->
<g id="node2" class="node">
<title>Node2</title>
<g id="a_node2"><a xlink:href="OmegaCoefficient_8hpp.html" target="_top" xlink:title="Class dedicated to Omega coefficient.">
<polygon fill="none" stroke="black" points="624,-246.5 624,-265.5 755,-265.5 755,-246.5 624,-246.5"/>
<text text-anchor="middle" x="689.5" y="-253.5" font-family="serif" font-size="10.00">OmegaCoefficient.hpp</text>
</a>
</g>
</g>
<!-- Node1&#45;&gt;Node2 -->
<g id="edge1" class="edge">
<title>Node1&#45;&gt;Node2</title>
<path fill="none" stroke="midnightblue" d="M787.88,-298.5C763.88,-288.38 730.72,-274.39 709.69,-265.52"/>
<polygon fill="midnightblue" stroke="midnightblue" points="786.64,-301.78 797.22,-302.44 789.36,-295.33 786.64,-301.78"/>
</g>
<!-- Node4 -->
<g id="node4" class="node">
<title>Node4</title>
<g id="a_node4"><a xlink:href="sloth_8hpp.html" target="_top" xlink:title="List of all header files contained in the kernel directory.">
<polygon fill="none" stroke="black" points="514,-0.5 514,-19.5 579,-19.5 579,-0.5 514,-0.5"/>
<text text-anchor="middle" x="546.5" y="-7.5" font-family="serif" font-size="10.00">sloth.hpp</text>
</a>
</g>
</g>
<!-- Node1&#45;&gt;Node4 -->
<g id="edge19" class="edge">
<title>Node1&#45;&gt;Node4</title>
<path fill="none" stroke="midnightblue" d="M891.01,-301.21C948.77,-288.91 1019.5,-261.49 1019.5,-201 1019.5,-201 1019.5,-201 1019.5,-137.5 1019.5,-93.3 1000.55,-78.5 962.5,-56 897.79,-17.72 665.74,-11.93 579.28,-11.11"/>
<polygon fill="midnightblue" stroke="midnightblue" points="890.25,-297.8 881.14,-303.2 891.63,-304.66 890.25,-297.8"/>
</g>
<!-- Node3 -->
<g id="node3" class="node">
<title>Node3</title>
<g id="a_node3"><a xlink:href="AllenCahnGrainsNLFormIntegrator_8hpp.html" target="_top" xlink:title="VF for Allen&#45;Cahn equation solved in a polycrystal.">
<polygon fill="none" stroke="black" points="0,-129 0,-148 221,-148 221,-129 0,-129"/>
<text text-anchor="middle" x="110.5" y="-136" font-family="serif" font-size="10.00">AllenCahnGrainsNLFormIntegrator.hpp</text>
</a>
</g>
</g>
<!-- Node2&#45;&gt;Node3 -->
<g id="edge2" class="edge">
<title>Node2&#45;&gt;Node3</title>
<path fill="none" stroke="midnightblue" d="M613.65,-251.27C503.24,-245.2 303.98,-231.65 235.5,-210 190.13,-195.66 142.88,-163.47 121.81,-148.05"/>
<polygon fill="midnightblue" stroke="midnightblue" points="613.55,-254.77 623.72,-251.82 613.93,-247.78 613.55,-254.77"/>
</g>
<!-- Node2&#45;&gt;Node4 -->
<g id="edge18" class="edge">
<title>Node2&#45;&gt;Node4</title>
<path fill="none" stroke="midnightblue" d="M613.57,-249.32C538.75,-242.69 430.44,-230.01 393.5,-210 337.2,-179.51 329.87,-150.01 318.5,-87 316.05,-73.44 309.75,-66.64 318.5,-56 342.84,-26.39 456.64,-15.94 513.7,-12.53"/>
<polygon fill="midnightblue" stroke="midnightblue" points="613.63,-252.84 623.89,-250.22 614.23,-245.87 613.63,-252.84"/>
</g>
<!-- Node5 -->
<g id="node5" class="node">
<title>Node5</title>
<g id="a_node5"><a xlink:href="AllenCahnNLFormIntegrator_8hpp.html" target="_top" xlink:title="FV for the Allen Cahn equation.">
<polygon fill="none" stroke="black" points="403,-190.5 403,-209.5 590,-209.5 590,-190.5 403,-190.5"/>
<text text-anchor="middle" x="496.5" y="-197.5" font-family="serif" font-size="10.00">AllenCahnNLFormIntegrator.hpp</text>
</a>
</g>
</g>
<!-- Node2&#45;&gt;Node5 -->
<g id="edge4" class="edge">
<title>Node2&#45;&gt;Node5</title>
<path fill="none" stroke="midnightblue" d="M649.11,-243.7C612.68,-233.51 559.91,-218.74 526.94,-209.52"/>
<polygon fill="midnightblue" stroke="midnightblue" points="648.35,-247.12 658.92,-246.44 650.23,-240.38 648.35,-247.12"/>
</g>
<!-- Node10 -->
<g id="node10" class="node">
<title>Node10</title>
<g id="a_node10"><a xlink:href="BlockAllenCahnNLFormIntegrator_8hpp.html" target="_top" xlink:title="VF of the AllenCahn equations (splitting version)">
<polygon fill="none" stroke="black" points="693,-129 693,-148 908,-148 908,-129 693,-129"/>
<text text-anchor="middle" x="800.5" y="-136" font-family="serif" font-size="10.00">BlockAllenCahnNLFormIntegrator.hpp</text>
</a>
</g>
</g>
<!-- Node2&#45;&gt;Node10 -->
<g id="edge14" class="edge">
<title>Node2&#45;&gt;Node10</title>
<path fill="none" stroke="midnightblue" d="M705.05,-238.82C728.84,-214.06 773.49,-167.61 792.06,-148.28"/>
<polygon fill="midnightblue" stroke="midnightblue" points="702.25,-236.68 697.84,-246.32 707.3,-241.53 702.25,-236.68"/>
</g>
<!-- Node11 -->
<g id="node11" class="node">
<title>Node11</title>
<g id="a_node11"><a xlink:href="CahnHilliardNLFormIntegrator_8hpp.html" target="_top" xlink:title="VF of the CahnHilliard equations.">
<polygon fill="none" stroke="black" points="789,-190.5 789,-209.5 988,-209.5 988,-190.5 789,-190.5"/>
<text text-anchor="middle" x="888.5" y="-197.5" font-family="serif" font-size="10.00">CahnHilliardNLFormIntegrator.hpp</text>
</a>
</g>
</g>
<!-- Node2&#45;&gt;Node11 -->
<g id="edge16" class="edge">
<title>Node2&#45;&gt;Node11</title>
<path fill="none" stroke="midnightblue" d="M731.15,-243.7C768.71,-233.51 823.11,-218.74 857.12,-209.52"/>
<polygon fill="midnightblue" stroke="midnightblue" points="729.77,-240.45 721.03,-246.44 731.6,-247.2 729.77,-240.45"/>
</g>
<!-- Node3&#45;&gt;Node4 -->
<g id="edge3" class="edge">
<title>Node3&#45;&gt;Node4</title>
<path fill="none" stroke="midnightblue" d="M128.21,-122.31C151.27,-103.44 193.59,-71.81 235.5,-56 331.97,-19.61 455.51,-12.42 513.57,-11.16"/>
<polygon fill="midnightblue" stroke="midnightblue" points="125.8,-119.77 120.36,-128.86 130.28,-125.14 125.8,-119.77"/>
</g>
<!-- Node5&#45;&gt;Node4 -->
<g id="edge13" class="edge">
<title>Node5&#45;&gt;Node4</title>
<path fill="none" stroke="midnightblue" d="M461.24,-186.81C400.55,-163.98 287.06,-111.99 332.5,-56 354.99,-28.29 459.86,-17.01 513.98,-12.97"/>
<polygon fill="midnightblue" stroke="midnightblue" points="460.25,-190.18 470.84,-190.35 462.67,-183.61 460.25,-190.18"/>
</g>
<!-- Node6 -->
<g id="node6" class="node">
<title>Node6</title>
<g id="a_node6"><a xlink:href="AllenCahnMeltingBaseNLFormIntegrator_8hpp.html" target="_top" xlink:title="Base integrator for melting.">
<polygon fill="none" stroke="black" points="408,-123.5 408,-153.5 585,-153.5 585,-123.5 408,-123.5"/>
<text text-anchor="start" x="416" y="-141.5" font-family="serif" font-size="10.00">AllenCahnMeltingBaseNLForm</text>
<text text-anchor="middle" x="496.5" y="-130.5" font-family="serif" font-size="10.00">Integrator.hpp</text>
</a>
</g>
</g>
<!-- Node5&#45;&gt;Node6 -->
<g id="edge5" class="edge">
<title>Node5&#45;&gt;Node6</title>
<path fill="none" stroke="midnightblue" d="M496.5,-180.23C496.5,-171.59 496.5,-161.5 496.5,-153.52"/>
<polygon fill="midnightblue" stroke="midnightblue" points="493,-180.48 496.5,-190.48 500,-180.48 493,-180.48"/>
</g>
<!-- Node6&#45;&gt;Node4 -->
<g id="edge12" class="edge">
<title>Node6&#45;&gt;Node4</title>
<path fill="none" stroke="midnightblue" d="M407.95,-120.98C361.22,-108.24 318.3,-87.4 343.5,-56 364.51,-29.82 462.15,-17.93 513.98,-13.38"/>
<polygon fill="midnightblue" stroke="midnightblue" points="407.08,-124.37 417.64,-123.5 408.84,-117.6 407.08,-124.37"/>
</g>
<!-- Node7 -->
<g id="node7" class="node">
<title>Node7</title>
<g id="a_node7"><a xlink:href="AllenCahnCalphadMeltingNLFormIntegrator_8hpp.html" target="_top" xlink:title="Compute the enthalpy of phase change based on two driving forces defined as auxiliary variables.">
<polygon fill="none" stroke="black" points="353,-56.5 353,-86.5 548,-86.5 548,-56.5 353,-56.5"/>
<text text-anchor="start" x="361" y="-74.5" font-family="serif" font-size="10.00">AllenCahnCalphadMeltingNLForm</text>
<text text-anchor="middle" x="450.5" y="-63.5" font-family="serif" font-size="10.00">Integrator.hpp</text>
</a>
</g>
</g>
<!-- Node6&#45;&gt;Node7 -->
<g id="edge6" class="edge">
<title>Node6&#45;&gt;Node7</title>
<path fill="none" stroke="midnightblue" d="M480.69,-115.16C473.98,-105.68 466.37,-94.92 460.46,-86.58"/>
<polygon fill="midnightblue" stroke="midnightblue" points="477.88,-117.26 486.52,-123.4 483.6,-113.21 477.88,-117.26"/>
</g>
<!-- Node8 -->
<g id="node8" class="node">
<title>Node8</title>
<g id="a_node8"><a xlink:href="AllenCahnConstantMeltingNLFormIntegrator_8hpp.html" target="_top" xlink:title="AllenCahn integrator for constant melting.">
<polygon fill="none" stroke="black" points="566,-56.5 566,-86.5 721,-86.5 721,-56.5 566,-56.5"/>
<text text-anchor="start" x="574" y="-74.5" font-family="serif" font-size="10.00">AllenCahnConstantMelting</text>
<text text-anchor="middle" x="643.5" y="-63.5" font-family="serif" font-size="10.00">NLFormIntegrator.hpp</text>
</a>
</g>
</g>
<!-- Node6&#45;&gt;Node8 -->
<g id="edge8" class="edge">
<title>Node6&#45;&gt;Node8</title>
<path fill="none" stroke="midnightblue" d="M537.73,-119.27C561.14,-108.92 590.01,-96.15 611.67,-86.58"/>
<polygon fill="midnightblue" stroke="midnightblue" points="536.13,-116.15 528.4,-123.4 538.96,-122.55 536.13,-116.15"/>
</g>
<!-- Node9 -->
<g id="node9" class="node">
<title>Node9</title>
<g id="a_node9"><a xlink:href="AllenCahnTemperatureMeltingNLFormIntegrator_8hpp.html" target="_top" xlink:title="FV for the Allen Cahn equation with ad&#45;hoc melting controled by temperature and a given melting tempe...">
<polygon fill="none" stroke="black" points="739.5,-56.5 739.5,-86.5 915.5,-86.5 915.5,-56.5 739.5,-56.5"/>
<text text-anchor="start" x="747.5" y="-74.5" font-family="serif" font-size="10.00">AllenCahnTemperatureMelting</text>
<text text-anchor="middle" x="827.5" y="-63.5" font-family="serif" font-size="10.00">NLFormIntegrator.hpp</text>
</a>
</g>
</g>
<!-- Node6&#45;&gt;Node9 -->
<g id="edge10" class="edge">
<title>Node6&#45;&gt;Node9</title>
<path fill="none" stroke="midnightblue" d="M577.9,-121.52C632.43,-110.81 703.56,-96.84 755.93,-86.55"/>
<polygon fill="midnightblue" stroke="midnightblue" points="577.05,-118.11 567.91,-123.48 578.4,-124.98 577.05,-118.11"/>
</g>
<!-- Node7&#45;&gt;Node4 -->
<g id="edge7" class="edge">
<title>Node7&#45;&gt;Node4</title>
<path fill="none" stroke="midnightblue" d="M481.85,-51.07C498.96,-40.46 519.3,-27.86 532.53,-19.66"/>
<polygon fill="midnightblue" stroke="midnightblue" points="479.91,-48.16 473.25,-56.4 483.59,-54.11 479.91,-48.16"/>
</g>
<!-- Node8&#45;&gt;Node4 -->
<g id="edge9" class="edge">
<title>Node8&#45;&gt;Node4</title>
<path fill="none" stroke="midnightblue" d="M611.82,-51.07C594.53,-40.46 573.98,-27.86 560.61,-19.66"/>
<polygon fill="midnightblue" stroke="midnightblue" points="610.16,-54.15 620.51,-56.4 613.82,-48.19 610.16,-54.15"/>
</g>
<!-- Node9&#45;&gt;Node4 -->
<g id="edge11" class="edge">
<title>Node9&#45;&gt;Node4</title>
<path fill="none" stroke="midnightblue" d="M751.32,-54.37C695,-42.44 621.09,-26.79 579.2,-17.92"/>
<polygon fill="midnightblue" stroke="midnightblue" points="750.75,-57.83 761.26,-56.47 752.2,-50.98 750.75,-57.83"/>
</g>
<!-- Node10&#45;&gt;Node4 -->
<g id="edge15" class="edge">
<title>Node10&#45;&gt;Node4</title>
<path fill="none" stroke="midnightblue" d="M846.37,-126.18C892.45,-112.7 952.87,-87.94 924.5,-56 901.71,-30.33 666.97,-16.69 579.29,-12.46"/>
<polygon fill="midnightblue" stroke="midnightblue" points="845.17,-122.88 836.5,-128.96 847.07,-129.62 845.17,-122.88"/>
</g>
<!-- Node11&#45;&gt;Node4 -->
<g id="edge17" class="edge">
<title>Node11&#45;&gt;Node4</title>
<path fill="none" stroke="midnightblue" d="M904.02,-182.99C929.96,-154.31 976.12,-93.66 942.5,-56 918.42,-29.03 669.72,-16.1 579.21,-12.27"/>
<polygon fill="midnightblue" stroke="midnightblue" points="901.28,-180.79 897.03,-190.49 906.41,-185.56 901.28,-180.79"/>
</g>
</g>
</svg>
