<?xml version="1.0" encoding="UTF-8" standalone="no"?>
<!DOCTYPE svg PUBLIC "-//W3C//DTD SVG 1.1//EN"
 "http://www.w3.org/Graphics/SVG/1.1/DTD/svg11.dtd">
<!-- Generated by graphviz version 2.43.0 (0)
 -->
<!-- Title: OperatorBase.hpp Pages: 1 -->
<svg width="477pt" height="196pt"
 viewBox="0.00 0.00 477.26 196.00" xmlns="http://www.w3.org/2000/svg" xmlns:xlink="http://www.w3.org/1999/xlink">
<g id="graph0" class="graph" transform="scale(1 1) rotate(0) translate(4 192)">
<title>OperatorBase.hpp</title>
<!-- Node1 -->
<g id="node1" class="node">
<title>Node1</title>
<g id="a_node1"><a xlink:title="Base class for building Steady and TimeDependent PhaseFieldOperators.">
<polygon fill="#bfbfbf" stroke="black" points="41.93,-168.5 41.93,-187.5 151.93,-187.5 151.93,-168.5 41.93,-168.5"/>
<text text-anchor="middle" x="96.93" y="-175.5" font-family="serif" font-size="10.00">OperatorBase.hpp</text>
</a>
</g>
</g>
<!-- Node2 -->
<g id="node2" class="node">
<title>Node2</title>
<g id="a_node2"><a xlink:href="SteadyOperatorBase_8hpp.html" target="_top" xlink:title="Steady Operator base.">
<polygon fill="none" stroke="black" points="23.93,-112.5 23.93,-131.5 169.93,-131.5 169.93,-112.5 23.93,-112.5"/>
<text text-anchor="middle" x="96.93" y="-119.5" font-family="serif" font-size="10.00">SteadyOperatorBase.hpp</text>
</a>
</g>
</g>
<!-- Node1&#45;&gt;Node2 -->
<g id="edge1" class="edge">
<title>Node1&#45;&gt;Node2</title>
<path fill="none" stroke="midnightblue" d="M96.93,-157.8C96.93,-148.91 96.93,-138.78 96.93,-131.75"/>
<polygon fill="midnightblue" stroke="midnightblue" points="93.43,-158.08 96.93,-168.08 100.43,-158.08 93.43,-158.08"/>
</g>
<!-- Node4 -->
<g id="node4" class="node">
<title>Node4</title>
<g id="a_node4"><a xlink:href="sloth_8hpp.html" target="_top" xlink:title="List of all header files contained in the kernel directory.">
<polygon fill="none" stroke="black" points="133.43,-0.5 133.43,-19.5 198.43,-19.5 198.43,-0.5 133.43,-0.5"/>
<text text-anchor="middle" x="165.93" y="-7.5" font-family="serif" font-size="10.00">sloth.hpp</text>
</a>
</g>
</g>
<!-- Node1&#45;&gt;Node4 -->
<g id="edge14" class="edge">
<title>Node1&#45;&gt;Node4</title>
<path fill="none" stroke="midnightblue" d="M56.05,-164.57C40.4,-157.62 24.1,-147.19 14.93,-132 -2.54,-103.08 -6.29,-83.07 13.93,-56 41.35,-19.29 97.4,-11.29 133.24,-10.19"/>
<polygon fill="midnightblue" stroke="midnightblue" points="55.07,-167.95 65.65,-168.47 57.7,-161.47 55.07,-167.95"/>
</g>
<!-- Node7 -->
<g id="node7" class="node">
<title>Node7</title>
<g id="a_node7"><a xlink:href="TransientOperatorBase_8hpp.html" target="_top" xlink:title="Transient Operator base.">
<polygon fill="none" stroke="black" points="188.43,-112.5 188.43,-131.5 347.43,-131.5 347.43,-112.5 188.43,-112.5"/>
<text text-anchor="middle" x="267.93" y="-119.5" font-family="serif" font-size="10.00">TransientOperatorBase.hpp</text>
</a>
</g>
</g>
<!-- Node1&#45;&gt;Node7 -->
<g id="edge9" class="edge">
<title>Node1&#45;&gt;Node7</title>
<path fill="none" stroke="midnightblue" d="M133.96,-165.3C166.18,-155.13 212.12,-140.62 240.96,-131.52"/>
<polygon fill="midnightblue" stroke="midnightblue" points="132.5,-162.09 124.02,-168.44 134.61,-168.77 132.5,-162.09"/>
</g>
<!-- Node3 -->
<g id="node3" class="node">
<title>Node3</title>
<g id="a_node3"><a xlink:href="DiffusionOperator_8hpp.html" target="_top" xlink:title="Diffusion operator (Base, Steady and TimeDependent)">
<polygon fill="none" stroke="black" points="31.43,-56.5 31.43,-75.5 162.43,-75.5 162.43,-56.5 31.43,-56.5"/>
<text text-anchor="middle" x="96.93" y="-63.5" font-family="serif" font-size="10.00">DiffusionOperator.hpp</text>
</a>
</g>
</g>
<!-- Node2&#45;&gt;Node3 -->
<g id="edge2" class="edge">
<title>Node2&#45;&gt;Node3</title>
<path fill="none" stroke="midnightblue" d="M96.93,-101.8C96.93,-92.91 96.93,-82.78 96.93,-75.75"/>
<polygon fill="midnightblue" stroke="midnightblue" points="93.43,-102.08 96.93,-112.08 100.43,-102.08 93.43,-102.08"/>
</g>
<!-- Node2&#45;&gt;Node4 -->
<g id="edge8" class="edge">
<title>Node2&#45;&gt;Node4</title>
<path fill="none" stroke="midnightblue" d="M62.79,-108.26C36.22,-96.36 6.29,-77.27 21.93,-56 47.37,-21.39 99.31,-12.66 133.36,-10.85"/>
<polygon fill="midnightblue" stroke="midnightblue" points="61.76,-111.62 72.33,-112.31 64.49,-105.18 61.76,-111.62"/>
</g>
<!-- Node5 -->
<g id="node5" class="node">
<title>Node5</title>
<g id="a_node5"><a xlink:href="HeatOperator_8hpp.html" target="_top" xlink:title="Heat operator (Base, Steady and TimeDependent)">
<polygon fill="none" stroke="black" points="180.93,-56.5 180.93,-75.5 290.93,-75.5 290.93,-56.5 180.93,-56.5"/>
<text text-anchor="middle" x="235.93" y="-63.5" font-family="serif" font-size="10.00">HeatOperator.hpp</text>
</a>
</g>
</g>
<!-- Node2&#45;&gt;Node5 -->
<g id="edge4" class="edge">
<title>Node2&#45;&gt;Node5</title>
<path fill="none" stroke="midnightblue" d="M128.4,-108.77C154.51,-98.63 190.97,-84.47 214,-75.52"/>
<polygon fill="midnightblue" stroke="midnightblue" points="127.01,-105.56 118.95,-112.44 129.54,-112.08 127.01,-105.56"/>
</g>
<!-- Node6 -->
<g id="node6" class="node">
<title>Node6</title>
<g id="a_node6"><a xlink:href="PhaseFieldOperator_8hpp.html" target="_top" xlink:title="AllenCahn operator (Base, Steady and TimeDependent)">
<polygon fill="none" stroke="black" points="309.43,-56.5 309.43,-75.5 450.43,-75.5 450.43,-56.5 309.43,-56.5"/>
<text text-anchor="middle" x="379.93" y="-63.5" font-family="serif" font-size="10.00">PhaseFieldOperator.hpp</text>
</a>
</g>
</g>
<!-- Node2&#45;&gt;Node6 -->
<g id="edge6" class="edge">
<title>Node2&#45;&gt;Node6</title>
<path fill="none" stroke="midnightblue" d="M151.76,-110.54C205.24,-100.33 285.6,-85 335.29,-75.52"/>
<polygon fill="midnightblue" stroke="midnightblue" points="150.94,-107.13 141.77,-112.44 152.25,-114.01 150.94,-107.13"/>
</g>
<!-- Node3&#45;&gt;Node4 -->
<g id="edge3" class="edge">
<title>Node3&#45;&gt;Node4</title>
<path fill="none" stroke="midnightblue" d="M115.96,-50.1C128.38,-40.38 144.17,-28.03 154.64,-19.83"/>
<polygon fill="midnightblue" stroke="midnightblue" points="113.73,-47.4 108.01,-56.32 118.04,-52.92 113.73,-47.4"/>
</g>
<!-- Node5&#45;&gt;Node4 -->
<g id="edge5" class="edge">
<title>Node5&#45;&gt;Node4</title>
<path fill="none" stroke="midnightblue" d="M216.61,-50.1C204.01,-40.38 188,-28.03 177.38,-19.83"/>
<polygon fill="midnightblue" stroke="midnightblue" points="214.62,-52.99 224.68,-56.32 218.9,-47.44 214.62,-52.99"/>
</g>
<!-- Node6&#45;&gt;Node4 -->
<g id="edge7" class="edge">
<title>Node6&#45;&gt;Node4</title>
<path fill="none" stroke="midnightblue" d="M336.08,-53.94C295.28,-43.64 235.39,-28.53 198.62,-19.25"/>
<polygon fill="midnightblue" stroke="midnightblue" points="335.47,-57.39 346.02,-56.44 337.18,-50.6 335.47,-57.39"/>
</g>
<!-- Node7&#45;&gt;Node3 -->
<g id="edge10" class="edge">
<title>Node7&#45;&gt;Node3</title>
<path fill="none" stroke="midnightblue" d="M230.89,-109.3C198.67,-99.13 152.74,-84.62 123.9,-75.52"/>
<polygon fill="midnightblue" stroke="midnightblue" points="230.24,-112.77 240.83,-112.44 232.35,-106.09 230.24,-112.77"/>
</g>
<!-- Node7&#45;&gt;Node4 -->
<g id="edge13" class="edge">
<title>Node7&#45;&gt;Node4</title>
<path fill="none" stroke="midnightblue" d="M357.67,-117.35C422.89,-111.39 494.22,-95.94 459.93,-56 426.5,-17.07 267.77,-11.46 198.45,-10.9"/>
<polygon fill="midnightblue" stroke="midnightblue" points="357.35,-113.86 347.69,-118.19 357.94,-120.83 357.35,-113.86"/>
</g>
<!-- Node7&#45;&gt;Node5 -->
<g id="edge11" class="edge">
<title>Node7&#45;&gt;Node5</title>
<path fill="none" stroke="midnightblue" d="M257.42,-103.27C251.95,-94.05 245.51,-83.17 241.11,-75.75"/>
<polygon fill="midnightblue" stroke="midnightblue" points="254.53,-105.26 262.64,-112.08 260.56,-101.7 254.53,-105.26"/>
</g>
<!-- Node7&#45;&gt;Node6 -->
<g id="edge12" class="edge">
<title>Node7&#45;&gt;Node6</title>
<path fill="none" stroke="midnightblue" d="M295.18,-107.86C315.94,-97.85 343.95,-84.35 361.98,-75.65"/>
<polygon fill="midnightblue" stroke="midnightblue" points="293.41,-104.83 285.92,-112.32 296.45,-111.13 293.41,-104.83"/>
</g>
</g>
</svg>
