<?xml version="1.0" encoding="UTF-8" standalone="no"?>
<!DOCTYPE svg PUBLIC "-//W3C//DTD SVG 1.1//EN"
 "http://www.w3.org/Graphics/SVG/1.1/DTD/svg11.dtd">
<!-- Generated by graphviz version 2.43.0 (0)
 -->
<!-- Title: Options.hpp Pages: 1 -->
<!--zoomable 263 -->
<svg id="main" version="1.1" xmlns="http://www.w3.org/2000/svg" xmlns:xlink="http://www.w3.org/1999/xlink" xml:space="preserve" onload="init(evt)">
<style type="text/css"><![CDATA[
.edge:hover path { stroke: red; }
.edge:hover polygon { stroke: red; fill: red; }
]]></style>
<script type="text/javascript"><![CDATA[
var edges = document.getElementsByTagName('g');
if (edges && edges.length) {
  for (var i=0;i<edges.length;i++) {
    if (edges[i].id.substr(0,4)=='edge') {
      edges[i].setAttribute('class','edge');
    }
  }
}
]]></script>
        <defs>
                <circle id="rim" cx="0" cy="0" r="7"/>
                <circle id="rim2" cx="0" cy="0" r="3.5"/>
                <g id="zoomPlus">
                        <use xlink:href="#rim" fill="#404040">
                                <set attributeName="fill" to="#808080" begin="zoomplus.mouseover" end="zoomplus.mouseout"/>
                        </use>
                        <path d="M-4,0h8M0,-4v8" fill="none" stroke="white" stroke-width="1.5" pointer-events="none"/>
                </g>
                <g id="zoomMin">
                        <use xlink:href="#rim" fill="#404040">
                                <set attributeName="fill" to="#808080" begin="zoomminus.mouseover" end="zoomminus.mouseout"/>
                        </use>
                        <path d="M-4,0h8" fill="none" stroke="white" stroke-width="1.5" pointer-events="none"/>
                </g>
                <g id="dirArrow">
                        <path fill="none" stroke="white" stroke-width="1.5" d="M0,-3.0v7 M-2.5,-0.5L0,-3.0L2.5,-0.5"/>
                </g>
               <g id="resetDef">
                       <use xlink:href="#rim2" fill="#404040">
                               <set attributeName="fill" to="#808080" begin="reset.mouseover" end="reset.mouseout"/>
                       </use>
               </g>
        </defs>

<script type="text/javascript">
var viewWidth = 1997;
var viewHeight = 263;
var sectionId = 'dynsection-0';
</script>
<script xlink:href="svgpan.js"/>
<svg id="graph" class="graph">
<g id="viewport">
<title>Options.hpp</title>
<!-- Node1 -->
<g id="node1" class="node">
<title>Node1</title>
<g id="a_node1"><a xlink:title="List of all Options files.">
<polygon fill="#bfbfbf" stroke="black" points="1048.5,-235.5 1048.5,-254.5 1128.5,-254.5 1128.5,-235.5 1048.5,-235.5"/>
<text text-anchor="middle" x="1088.5" y="-242.5" font-family="serif" font-size="10.00">Options.hpp</text>
</a>
</g>
</g>
<!-- Node2 -->
<g id="node2" class="node">
<title>Node2</title>
<g id="a_node2"><a xlink:href="AnalyticalFunctionOptions_8hpp.html" target="_top" xlink:title="Options for Analytical functions.">
<polygon fill="none" stroke="black" points="1834,-168.5 1834,-198.5 1989,-198.5 1989,-168.5 1834,-168.5"/>
<text text-anchor="start" x="1842" y="-186.5" font-family="serif" font-size="10.00">Options/AnalyticalFunction</text>
<text text-anchor="middle" x="1911.5" y="-175.5" font-family="serif" font-size="10.00">Options.hpp</text>
</a>
</g>
</g>
<!-- Node1&#45;&gt;Node2 -->
<g id="edge1" class="edge">
<title>Node1&#45;&gt;Node2</title>
<path fill="none" stroke="midnightblue" d="M1128.52,-243.02C1238.06,-240.01 1552.13,-229.32 1823.72,-199"/>
<polygon fill="midnightblue" stroke="midnightblue" points="1824.22,-202.47 1833.77,-197.87 1823.44,-195.51 1824.22,-202.47"/>
</g>
<!-- Node4 -->
<g id="node4" class="node">
<title>Node4</title>
<g id="a_node4"><a xlink:href="Utils_8hpp.html" target="_top" xlink:title="List of all Utils files.">
<polygon fill="none" stroke="black" points="940,-112.5 940,-131.5 1029,-131.5 1029,-112.5 940,-112.5"/>
<text text-anchor="middle" x="984.5" y="-119.5" font-family="serif" font-size="10.00">Utils/Utils.hpp</text>
</a>
</g>
</g>
<!-- Node1&#45;&gt;Node4 -->
<g id="edge74" class="edge">
<title>Node1&#45;&gt;Node4</title>
<path fill="none" stroke="midnightblue" d="M1088.53,-235.02C1088.12,-219.68 1085.27,-188.13 1069.5,-168 1057.79,-153.06 1039.72,-142.51 1023.25,-135.4"/>
<polygon fill="midnightblue" stroke="midnightblue" points="1024.37,-132.08 1013.79,-131.61 1021.77,-138.58 1024.37,-132.08"/>
</g>
<!-- Node28 -->
<g id="node28" class="node">
<title>Node28</title>
<g id="a_node28"><a xlink:href="CalphadOptions_8hpp.html" target="_top" xlink:title="Options for Calphad problems.">
<polygon fill="none" stroke="black" points="161,-174 161,-193 326,-193 326,-174 161,-174"/>
<text text-anchor="middle" x="243.5" y="-181" font-family="serif" font-size="10.00">Options/CalphadOptions.hpp</text>
</a>
</g>
</g>
<!-- Node1&#45;&gt;Node28 -->
<g id="edge49" class="edge">
<title>Node1&#45;&gt;Node28</title>
<path fill="none" stroke="midnightblue" d="M1048.39,-242.97C935.73,-239.77 606.97,-228.43 335.5,-199 324.67,-197.83 313.17,-196.27 302.1,-194.6"/>
<polygon fill="midnightblue" stroke="midnightblue" points="302.5,-191.12 292.08,-193.06 301.43,-198.04 302.5,-191.12"/>
</g>
<!-- Node29 -->
<g id="node29" class="node">
<title>Node29</title>
<g id="a_node29"><a xlink:href="DiffusionOptions_8hpp.html" target="_top" xlink:title="Option for Mass Diffusion problems.">
<polygon fill="none" stroke="black" points="344.5,-174 344.5,-193 512.5,-193 512.5,-174 344.5,-174"/>
<text text-anchor="middle" x="428.5" y="-181" font-family="serif" font-size="10.00">Options/DiffusionOptions.hpp</text>
</a>
</g>
</g>
<!-- Node1&#45;&gt;Node29 -->
<g id="edge54" class="edge">
<title>Node1&#45;&gt;Node29</title>
<path fill="none" stroke="midnightblue" d="M1048.25,-241.82C955.4,-236.57 719.05,-221.94 522.5,-199 511.7,-197.74 500.24,-196.17 489.17,-194.53"/>
<polygon fill="midnightblue" stroke="midnightblue" points="489.55,-191.05 479.14,-193.01 488.51,-197.97 489.55,-191.05"/>
</g>
<!-- Node30 -->
<g id="node30" class="node">
<title>Node30</title>
<g id="a_node30"><a xlink:href="PhaseFieldOptions_8hpp.html" target="_top" xlink:title="Options for PhaseField problems.">
<polygon fill="none" stroke="black" points="531,-174 531,-193 710,-193 710,-174 531,-174"/>
<text text-anchor="middle" x="620.5" y="-181" font-family="serif" font-size="10.00">Options/PhaseFieldOptions.hpp</text>
</a>
</g>
</g>
<!-- Node1&#45;&gt;Node30 -->
<g id="edge56" class="edge">
<title>Node1&#45;&gt;Node30</title>
<path fill="none" stroke="midnightblue" d="M1048.33,-239.42C980.49,-231.62 838.95,-215.03 719.5,-199 709.06,-197.6 698.02,-196.05 687.24,-194.5"/>
<polygon fill="midnightblue" stroke="midnightblue" points="687.41,-190.99 677.01,-193.02 686.4,-197.91 687.41,-190.99"/>
</g>
<!-- Node31 -->
<g id="node31" class="node">
<title>Node31</title>
<g id="a_node31"><a xlink:href="PhysicalConvergenceOptions_8hpp.html" target="_top" xlink:title="Options for PhysicalConvergence objects.">
<polygon fill="none" stroke="black" points="1116,-168.5 1116,-198.5 1285,-198.5 1285,-168.5 1116,-168.5"/>
<text text-anchor="start" x="1124" y="-186.5" font-family="serif" font-size="10.00">Options/PhysicalConvergence</text>
<text text-anchor="middle" x="1200.5" y="-175.5" font-family="serif" font-size="10.00">Options.hpp</text>
</a>
</g>
</g>
<!-- Node1&#45;&gt;Node31 -->
<g id="edge58" class="edge">
<title>Node1&#45;&gt;Node31</title>
<path fill="none" stroke="midnightblue" d="M1104.55,-235.48C1120.28,-227.12 1144.8,-214.09 1165.11,-203.3"/>
<polygon fill="midnightblue" stroke="midnightblue" points="1166.91,-206.31 1174.1,-198.52 1163.63,-200.12 1166.91,-206.31"/>
</g>
<!-- Node32 -->
<g id="node32" class="node">
<title>Node32</title>
<g id="a_node32"><a xlink:href="PhysicalPropertiesOptions_8hpp.html" target="_top" xlink:title="Options for physical properties.">
<polygon fill="none" stroke="black" points="728.5,-168.5 728.5,-198.5 882.5,-198.5 882.5,-168.5 728.5,-168.5"/>
<text text-anchor="start" x="736.5" y="-186.5" font-family="serif" font-size="10.00">Options/PhysicalProperties</text>
<text text-anchor="middle" x="805.5" y="-175.5" font-family="serif" font-size="10.00">Options.hpp</text>
</a>
</g>
</g>
<!-- Node1&#45;&gt;Node32 -->
<g id="edge61" class="edge">
<title>Node1&#45;&gt;Node32</title>
<path fill="none" stroke="midnightblue" d="M1048.25,-235.54C1005.16,-226.48 935.74,-211.88 882.16,-200.62"/>
<polygon fill="midnightblue" stroke="midnightblue" points="882.85,-197.19 872.35,-198.55 881.41,-204.04 882.85,-197.19"/>
</g>
<!-- Node33 -->
<g id="node33" class="node">
<title>Node33</title>
<g id="a_node33"><a xlink:href="ProblemsOptions_8hpp.html" target="_top" xlink:title="Options for Problem objects.">
<polygon fill="none" stroke="black" points="1303.5,-174 1303.5,-193 1473.5,-193 1473.5,-174 1303.5,-174"/>
<text text-anchor="middle" x="1388.5" y="-181" font-family="serif" font-size="10.00">Options/ProblemsOptions.hpp</text>
</a>
</g>
</g>
<!-- Node1&#45;&gt;Node33 -->
<g id="edge63" class="edge">
<title>Node1&#45;&gt;Node33</title>
<path fill="none" stroke="midnightblue" d="M1128.65,-236.04C1181.93,-225.47 1276.14,-206.79 1335.29,-195.05"/>
<polygon fill="midnightblue" stroke="midnightblue" points="1336.06,-198.47 1345.19,-193.09 1334.7,-191.6 1336.06,-198.47"/>
</g>
<!-- Node34 -->
<g id="node34" class="node">
<title>Node34</title>
<g id="a_node34"><a xlink:href="SolversOptions_8hpp.html" target="_top" xlink:title="Options for solvers and preconditioners.">
<polygon fill="none" stroke="black" points="900.5,-174 900.5,-193 1060.5,-193 1060.5,-174 900.5,-174"/>
<text text-anchor="middle" x="980.5" y="-181" font-family="serif" font-size="10.00">Options/SolversOptions.hpp</text>
</a>
</g>
</g>
<!-- Node1&#45;&gt;Node34 -->
<g id="edge66" class="edge">
<title>Node1&#45;&gt;Node34</title>
<path fill="none" stroke="midnightblue" d="M1073.03,-235.48C1055.22,-225.67 1025.76,-209.43 1004.87,-197.92"/>
<polygon fill="midnightblue" stroke="midnightblue" points="1006.39,-194.77 995.95,-193.01 1003.01,-200.9 1006.39,-194.77"/>
</g>
<!-- Node35 -->
<g id="node35" class="node">
<title>Node35</title>
<g id="a_node35"><a xlink:href="SpatialOptions_8hpp.html" target="_top" xlink:title="Options for Spatial discretization.">
<polygon fill="none" stroke="black" points="1491.5,-174 1491.5,-193 1649.5,-193 1649.5,-174 1491.5,-174"/>
<text text-anchor="middle" x="1570.5" y="-181" font-family="serif" font-size="10.00">Options/SpatialOptions.hpp</text>
</a>
</g>
</g>
<!-- Node1&#45;&gt;Node35 -->
<g id="edge68" class="edge">
<title>Node1&#45;&gt;Node35</title>
<path fill="none" stroke="midnightblue" d="M1128.57,-240.09C1199.88,-232.97 1353.45,-216.99 1482.5,-199 1491.83,-197.7 1501.7,-196.2 1511.32,-194.66"/>
<polygon fill="midnightblue" stroke="midnightblue" points="1511.92,-198.11 1521.23,-193.06 1510.8,-191.2 1511.92,-198.11"/>
</g>
<!-- Node36 -->
<g id="node36" class="node">
<title>Node36</title>
<g id="a_node36"><a xlink:href="TimeOptions_8hpp.html" target="_top" xlink:title="Options for Time discretization.">
<polygon fill="none" stroke="black" points="1667.5,-174 1667.5,-193 1815.5,-193 1815.5,-174 1667.5,-174"/>
<text text-anchor="middle" x="1741.5" y="-181" font-family="serif" font-size="10.00">Options/TimeOptions.hpp</text>
</a>
</g>
</g>
<!-- Node1&#45;&gt;Node36 -->
<g id="edge71" class="edge">
<title>Node1&#45;&gt;Node36</title>
<path fill="none" stroke="midnightblue" d="M1128.71,-242.13C1222.06,-237.5 1460.55,-224.05 1658.5,-199 1667.77,-197.83 1677.59,-196.34 1687.09,-194.76"/>
<polygon fill="midnightblue" stroke="midnightblue" points="1687.98,-198.16 1697.25,-193.03 1686.8,-191.26 1687.98,-198.16"/>
</g>
<!-- Node3 -->
<g id="node3" class="node">
<title>Node3</title>
<g id="a_node3"><a xlink:title=" ">
<polygon fill="none" stroke="#bfbfbf" points="1365,-0.5 1365,-19.5 1412,-19.5 1412,-0.5 1365,-0.5"/>
<text text-anchor="middle" x="1388.5" y="-7.5" font-family="serif" font-size="10.00">string</text>
</a>
</g>
</g>
<!-- Node2&#45;&gt;Node3 -->
<g id="edge2" class="edge">
<title>Node2&#45;&gt;Node3</title>
<path fill="none" stroke="midnightblue" d="M1868.7,-168.47C1767,-135.12 1512.57,-51.68 1421.54,-21.83"/>
<polygon fill="midnightblue" stroke="midnightblue" points="1422.6,-18.5 1412.01,-18.71 1420.42,-25.15 1422.6,-18.5"/>
</g>
<!-- Node2&#45;&gt;Node4 -->
<g id="edge3" class="edge">
<title>Node2&#45;&gt;Node4</title>
<path fill="none" stroke="midnightblue" d="M1833.77,-169.1C1830.64,-168.7 1827.54,-168.33 1824.5,-168 1529.5,-135.62 1173.56,-126.29 1039.3,-123.82"/>
<polygon fill="midnightblue" stroke="midnightblue" points="1039.33,-120.32 1029.26,-123.64 1039.2,-127.32 1039.33,-120.32"/>
</g>
<!-- Node5 -->
<g id="node5" class="node">
<title>Node5</title>
<g id="a_node5"><a xlink:href="UtilsForData_8hpp.html" target="_top" xlink:title="Usefull methods for data.">
<polygon fill="none" stroke="black" points="741,-56.5 741,-75.5 872,-75.5 872,-56.5 741,-56.5"/>
<text text-anchor="middle" x="806.5" y="-63.5" font-family="serif" font-size="10.00">Utils/UtilsForData.hpp</text>
</a>
</g>
</g>
<!-- Node4&#45;&gt;Node5 -->
<g id="edge4" class="edge">
<title>Node4&#45;&gt;Node5</title>
<path fill="none" stroke="midnightblue" d="M956.3,-112.44C926.09,-103.28 877.99,-88.69 844.47,-78.52"/>
<polygon fill="midnightblue" stroke="midnightblue" points="845.16,-75.07 834.57,-75.52 843.13,-81.77 845.16,-75.07"/>
</g>
<!-- Node18 -->
<g id="node18" class="node">
<title>Node18</title>
<g id="a_node18"><a xlink:href="UtilsForDebug_8hpp.html" target="_top" xlink:title="Usefull methods for debug.">
<polygon fill="none" stroke="black" points="914,-56.5 914,-75.5 1055,-75.5 1055,-56.5 914,-56.5"/>
<text text-anchor="middle" x="984.5" y="-63.5" font-family="serif" font-size="10.00">Utils/UtilsForDebug.hpp</text>
</a>
</g>
</g>
<!-- Node4&#45;&gt;Node18 -->
<g id="edge18" class="edge">
<title>Node4&#45;&gt;Node18</title>
<path fill="none" stroke="midnightblue" d="M984.5,-112.08C984.5,-105.01 984.5,-94.86 984.5,-85.99"/>
<polygon fill="midnightblue" stroke="midnightblue" points="988,-85.75 984.5,-75.75 981,-85.75 988,-85.75"/>
</g>
<!-- Node21 -->
<g id="node21" class="node">
<title>Node21</title>
<g id="a_node21"><a xlink:href="UtilsForOptions_8hpp.html" target="_top" xlink:title="Usefull methods for Options.">
<polygon fill="none" stroke="black" points="350.5,-56.5 350.5,-75.5 496.5,-75.5 496.5,-56.5 350.5,-56.5"/>
<text text-anchor="middle" x="423.5" y="-63.5" font-family="serif" font-size="10.00">Utils/UtilsForOptions.hpp</text>
</a>
</g>
</g>
<!-- Node4&#45;&gt;Node21 -->
<g id="edge28" class="edge">
<title>Node4&#45;&gt;Node21</title>
<path fill="none" stroke="midnightblue" d="M940,-117.02C857.21,-109.58 673.66,-92.85 507.24,-76.06"/>
<polygon fill="midnightblue" stroke="midnightblue" points="507.12,-72.53 496.81,-75.01 506.41,-79.5 507.12,-72.53"/>
</g>
<!-- Node24 -->
<g id="node24" class="node">
<title>Node24</title>
<g id="a_node24"><a xlink:href="UtilsForPostProcessing_8hpp.html" target="_top" xlink:title="Usefull methods for post&#45;processing.">
<polygon fill="none" stroke="black" points="515,-56.5 515,-75.5 698,-75.5 698,-56.5 515,-56.5"/>
<text text-anchor="middle" x="606.5" y="-63.5" font-family="serif" font-size="10.00">Utils/UtilsForPostProcessing.hpp</text>
</a>
</g>
</g>
<!-- Node4&#45;&gt;Node24 -->
<g id="edge38" class="edge">
<title>Node4&#45;&gt;Node24</title>
<path fill="none" stroke="midnightblue" d="M939.65,-114.59C874.52,-105.29 753.16,-87.95 676.28,-76.97"/>
<polygon fill="midnightblue" stroke="midnightblue" points="676.59,-73.48 666.2,-75.53 675.6,-80.41 676.59,-73.48"/>
</g>
<!-- Node25 -->
<g id="node25" class="node">
<title>Node25</title>
<g id="a_node25"><a xlink:href="UtilsForVariants_8hpp.html" target="_top" xlink:title="manage std::Variants">
<polygon fill="none" stroke="black" points="60.5,-56.5 60.5,-75.5 208.5,-75.5 208.5,-56.5 60.5,-56.5"/>
<text text-anchor="middle" x="134.5" y="-63.5" font-family="serif" font-size="10.00">Utils/UtilsForVariants.hpp</text>
</a>
</g>
</g>
<!-- Node4&#45;&gt;Node25 -->
<g id="edge45" class="edge">
<title>Node4&#45;&gt;Node25</title>
<path fill="none" stroke="midnightblue" d="M940,-118.17C804.71,-109.58 396.72,-83.66 218.89,-72.36"/>
<polygon fill="midnightblue" stroke="midnightblue" points="219,-68.86 208.8,-71.72 218.56,-75.85 219,-68.86"/>
</g>
<!-- Node5&#45;&gt;Node3 -->
<g id="edge13" class="edge">
<title>Node5&#45;&gt;Node3</title>
<path fill="none" stroke="midnightblue" d="M872.26,-58.92C883.35,-57.92 894.75,-56.92 905.5,-56 1102.19,-39.19 1156.13,-54.05 1354.94,-19.75"/>
<polygon fill="midnightblue" stroke="midnightblue" points="1355.58,-23.19 1364.83,-18.02 1354.37,-16.3 1355.58,-23.19"/>
</g>
<!-- Node6 -->
<g id="node6" class="node">
<title>Node6</title>
<g id="a_node6"><a xlink:title=" ">
<polygon fill="none" stroke="#bfbfbf" points="1040,-0.5 1040,-19.5 1099,-19.5 1099,-0.5 1040,-0.5"/>
<text text-anchor="middle" x="1069.5" y="-7.5" font-family="serif" font-size="10.00">unistd.h</text>
</a>
</g>
</g>
<!-- Node5&#45;&gt;Node6 -->
<g id="edge5" class="edge">
<title>Node5&#45;&gt;Node6</title>
<path fill="none" stroke="midnightblue" d="M851.42,-56.5C894.77,-48.18 962.51,-34.91 1029.74,-20.33"/>
<polygon fill="midnightblue" stroke="midnightblue" points="1030.63,-23.72 1039.65,-18.17 1029.14,-16.88 1030.63,-23.72"/>
</g>
<!-- Node7 -->
<g id="node7" class="node">
<title>Node7</title>
<g id="a_node7"><a xlink:title=" ">
<polygon fill="none" stroke="#bfbfbf" points="655.5,-0.5 655.5,-19.5 705.5,-19.5 705.5,-0.5 655.5,-0.5"/>
<text text-anchor="middle" x="680.5" y="-7.5" font-family="serif" font-size="10.00">cctype</text>
</a>
</g>
</g>
<!-- Node5&#45;&gt;Node7 -->
<g id="edge6" class="edge">
<title>Node5&#45;&gt;Node7</title>
<path fill="none" stroke="midnightblue" d="M786.53,-56.44C765.89,-47.6 733.44,-33.69 709.87,-23.59"/>
<polygon fill="midnightblue" stroke="midnightblue" points="710.94,-20.24 700.37,-19.52 708.18,-26.67 710.94,-20.24"/>
</g>
<!-- Node8 -->
<g id="node8" class="node">
<title>Node8</title>
<g id="a_node8"><a xlink:title=" ">
<polygon fill="none" stroke="#bfbfbf" points="1117,-0.5 1117,-19.5 1164,-19.5 1164,-0.5 1117,-0.5"/>
<text text-anchor="middle" x="1140.5" y="-7.5" font-family="serif" font-size="10.00">cstdio</text>
</a>
</g>
</g>
<!-- Node5&#45;&gt;Node8 -->
<g id="edge7" class="edge">
<title>Node5&#45;&gt;Node8</title>
<path fill="none" stroke="midnightblue" d="M872.02,-57.66C931.21,-50.48 1020.82,-38.25 1106.88,-20.14"/>
<polygon fill="midnightblue" stroke="midnightblue" points="1107.77,-23.53 1116.82,-18.02 1106.31,-16.68 1107.77,-23.53"/>
</g>
<!-- Node9 -->
<g id="node9" class="node">
<title>Node9</title>
<g id="a_node9"><a xlink:title=" ">
<polygon fill="none" stroke="#bfbfbf" points="365.5,-0.5 365.5,-19.5 431.5,-19.5 431.5,-0.5 365.5,-0.5"/>
<text text-anchor="middle" x="398.5" y="-7.5" font-family="serif" font-size="10.00">algorithm</text>
</a>
</g>
</g>
<!-- Node5&#45;&gt;Node9 -->
<g id="edge8" class="edge">
<title>Node5&#45;&gt;Node9</title>
<path fill="none" stroke="midnightblue" d="M740.99,-58.59C669.9,-51.26 552.85,-38.1 441.82,-19.91"/>
<polygon fill="midnightblue" stroke="midnightblue" points="442.22,-16.43 431.78,-18.25 441.08,-23.34 442.22,-16.43"/>
</g>
<!-- Node10 -->
<g id="node10" class="node">
<title>Node10</title>
<g id="a_node10"><a xlink:title=" ">
<polygon fill="none" stroke="#bfbfbf" points="809.5,-0.5 809.5,-19.5 877.5,-19.5 877.5,-0.5 809.5,-0.5"/>
<text text-anchor="middle" x="843.5" y="-7.5" font-family="serif" font-size="10.00">filesystem</text>
</a>
</g>
</g>
<!-- Node5&#45;&gt;Node10 -->
<g id="edge9" class="edge">
<title>Node5&#45;&gt;Node10</title>
<path fill="none" stroke="midnightblue" d="M812.61,-56.08C817.78,-48.53 825.35,-37.49 831.69,-28.23"/>
<polygon fill="midnightblue" stroke="midnightblue" points="834.74,-29.98 837.5,-19.75 828.96,-26.02 834.74,-29.98"/>
</g>
<!-- Node11 -->
<g id="node11" class="node">
<title>Node11</title>
<g id="a_node11"><a xlink:title=" ">
<polygon fill="none" stroke="#bfbfbf" points="723.5,-0.5 723.5,-19.5 791.5,-19.5 791.5,-0.5 723.5,-0.5"/>
<text text-anchor="middle" x="757.5" y="-7.5" font-family="serif" font-size="10.00">functional</text>
</a>
</g>
</g>
<!-- Node5&#45;&gt;Node11 -->
<g id="edge10" class="edge">
<title>Node5&#45;&gt;Node11</title>
<path fill="none" stroke="midnightblue" d="M798.41,-56.08C791.34,-48.3 780.91,-36.8 772.35,-27.37"/>
<polygon fill="midnightblue" stroke="midnightblue" points="774.75,-24.8 765.44,-19.75 769.57,-29.51 774.75,-24.8"/>
</g>
<!-- Node12 -->
<g id="node12" class="node">
<title>Node12</title>
<g id="a_node12"><a xlink:title=" ">
<polygon fill="none" stroke="#bfbfbf" points="576,-0.5 576,-19.5 637,-19.5 637,-0.5 576,-0.5"/>
<text text-anchor="middle" x="606.5" y="-7.5" font-family="serif" font-size="10.00">iostream</text>
</a>
</g>
</g>
<!-- Node5&#45;&gt;Node12 -->
<g id="edge11" class="edge">
<title>Node5&#45;&gt;Node12</title>
<path fill="none" stroke="midnightblue" d="M774.81,-56.44C740.13,-47.08 684.45,-32.05 646.72,-21.86"/>
<polygon fill="midnightblue" stroke="midnightblue" points="647.63,-18.48 637.06,-19.25 645.8,-25.24 647.63,-18.48"/>
</g>
<!-- Node13 -->
<g id="node13" class="node">
<title>Node13</title>
<g id="a_node13"><a xlink:title=" ">
<polygon fill="none" stroke="#bfbfbf" points="896,-0.5 896,-19.5 935,-19.5 935,-0.5 896,-0.5"/>
<text text-anchor="middle" x="915.5" y="-7.5" font-family="serif" font-size="10.00">map</text>
</a>
</g>
</g>
<!-- Node5&#45;&gt;Node13 -->
<g id="edge12" class="edge">
<title>Node5&#45;&gt;Node13</title>
<path fill="none" stroke="midnightblue" d="M824.01,-56.32C841.57,-47.62 868.83,-34.12 889.03,-24.11"/>
<polygon fill="midnightblue" stroke="midnightblue" points="890.62,-27.23 898.03,-19.65 887.52,-20.96 890.62,-27.23"/>
</g>
<!-- Node14 -->
<g id="node14" class="node">
<title>Node14</title>
<g id="a_node14"><a xlink:title=" ">
<polygon fill="none" stroke="#bfbfbf" points="450,-0.5 450,-19.5 493,-19.5 493,-0.5 450,-0.5"/>
<text text-anchor="middle" x="471.5" y="-7.5" font-family="serif" font-size="10.00">tuple</text>
</a>
</g>
</g>
<!-- Node5&#45;&gt;Node14 -->
<g id="edge14" class="edge">
<title>Node5&#45;&gt;Node14</title>
<path fill="none" stroke="midnightblue" d="M740.8,-57.88C681.15,-50.83 590.65,-38.66 502.94,-19.82"/>
<polygon fill="midnightblue" stroke="midnightblue" points="503.6,-16.38 493.08,-17.67 502.11,-23.22 503.6,-16.38"/>
</g>
<!-- Node15 -->
<g id="node15" class="node">
<title>Node15</title>
<g id="a_node15"><a xlink:title=" ">
<polygon fill="none" stroke="#bfbfbf" points="511.5,-0.5 511.5,-19.5 557.5,-19.5 557.5,-0.5 511.5,-0.5"/>
<text text-anchor="middle" x="534.5" y="-7.5" font-family="serif" font-size="10.00">utility</text>
</a>
</g>
</g>
<!-- Node5&#45;&gt;Node15 -->
<g id="edge15" class="edge">
<title>Node5&#45;&gt;Node15</title>
<path fill="none" stroke="midnightblue" d="M754.5,-56.45C705.92,-48.16 631.48,-34.72 567.5,-20 567.4,-19.98 567.3,-19.95 567.2,-19.93"/>
<polygon fill="midnightblue" stroke="midnightblue" points="568.07,-16.54 557.52,-17.53 566.38,-23.33 568.07,-16.54"/>
</g>
<!-- Node16 -->
<g id="node16" class="node">
<title>Node16</title>
<g id="a_node16"><a xlink:title=" ">
<polygon fill="none" stroke="#bfbfbf" points="299.5,-0.5 299.5,-19.5 347.5,-19.5 347.5,-0.5 299.5,-0.5"/>
<text text-anchor="middle" x="323.5" y="-7.5" font-family="serif" font-size="10.00">vector</text>
</a>
</g>
</g>
<!-- Node5&#45;&gt;Node16 -->
<g id="edge16" class="edge">
<title>Node5&#45;&gt;Node16</title>
<path fill="none" stroke="midnightblue" d="M740.88,-59.05C631.89,-49.08 420.08,-29.31 357.44,-19.72"/>
<polygon fill="midnightblue" stroke="midnightblue" points="357.99,-16.26 347.54,-18.05 356.82,-23.17 357.99,-16.26"/>
</g>
<!-- Node17 -->
<g id="node17" class="node">
<title>Node17</title>
<g id="a_node17"><a xlink:title=" ">
<polygon fill="none" stroke="#bfbfbf" points="953,-0.5 953,-19.5 1022,-19.5 1022,-0.5 953,-0.5"/>
<text text-anchor="middle" x="987.5" y="-7.5" font-family="serif" font-size="10.00">mfem.hpp</text>
</a>
</g>
</g>
<!-- Node5&#45;&gt;Node17 -->
<g id="edge17" class="edge">
<title>Node5&#45;&gt;Node17</title>
<path fill="none" stroke="midnightblue" d="M835.18,-56.44C866.03,-47.24 915.23,-32.56 949.33,-22.39"/>
<polygon fill="midnightblue" stroke="midnightblue" points="950.37,-25.73 958.95,-19.52 948.37,-19.02 950.37,-25.73"/>
</g>
<!-- Node18&#45;&gt;Node3 -->
<g id="edge25" class="edge">
<title>Node18&#45;&gt;Node3</title>
<path fill="none" stroke="midnightblue" d="M1055.19,-56.99C1147.6,-46.43 1302.95,-28.39 1354.87,-19.71"/>
<polygon fill="midnightblue" stroke="midnightblue" points="1355.59,-23.14 1364.8,-17.91 1354.34,-16.25 1355.59,-23.14"/>
</g>
<!-- Node18&#45;&gt;Node6 -->
<g id="edge20" class="edge">
<title>Node18&#45;&gt;Node6</title>
<path fill="none" stroke="midnightblue" d="M998.16,-56.32C1011.42,-47.9 1031.77,-34.97 1047.35,-25.07"/>
<polygon fill="midnightblue" stroke="midnightblue" points="1049.31,-27.97 1055.88,-19.65 1045.56,-22.06 1049.31,-27.97"/>
</g>
<!-- Node18&#45;&gt;Node8 -->
<g id="edge21" class="edge">
<title>Node18&#45;&gt;Node8</title>
<path fill="none" stroke="midnightblue" d="M1009.22,-56.44C1035.66,-47.29 1077.74,-32.73 1107.11,-22.56"/>
<polygon fill="midnightblue" stroke="midnightblue" points="1108.61,-25.74 1116.92,-19.16 1106.32,-19.13 1108.61,-25.74"/>
</g>
<!-- Node18&#45;&gt;Node11 -->
<g id="edge23" class="edge">
<title>Node18&#45;&gt;Node11</title>
<path fill="none" stroke="midnightblue" d="M948.53,-56.44C908.72,-46.97 844.52,-31.7 801.68,-21.51"/>
<polygon fill="midnightblue" stroke="midnightblue" points="802.35,-18.07 791.81,-19.16 800.73,-24.88 802.35,-18.07"/>
</g>
<!-- Node18&#45;&gt;Node12 -->
<g id="edge24" class="edge">
<title>Node18&#45;&gt;Node12</title>
<path fill="none" stroke="midnightblue" d="M913.98,-57.46C847.68,-49.95 745.49,-37.3 647.14,-19.96"/>
<polygon fill="midnightblue" stroke="midnightblue" points="647.48,-16.47 637.02,-18.16 646.25,-23.36 647.48,-16.47"/>
</g>
<!-- Node18&#45;&gt;Node15 -->
<g id="edge26" class="edge">
<title>Node18&#45;&gt;Node15</title>
<path fill="none" stroke="midnightblue" d="M913.93,-58.75C817.23,-49.97 647.46,-33.69 567.97,-19.72"/>
<polygon fill="midnightblue" stroke="midnightblue" points="568.3,-16.22 557.83,-17.85 567.03,-23.11 568.3,-16.22"/>
</g>
<!-- Node18&#45;&gt;Node17 -->
<g id="edge27" class="edge">
<title>Node18&#45;&gt;Node17</title>
<path fill="none" stroke="midnightblue" d="M985,-56.08C985.39,-49.01 985.95,-38.86 986.45,-29.99"/>
<polygon fill="midnightblue" stroke="midnightblue" points="989.95,-29.93 987.01,-19.75 982.96,-29.54 989.95,-29.93"/>
</g>
<!-- Node19 -->
<g id="node19" class="node">
<title>Node19</title>
<g id="a_node19"><a xlink:title=" ">
<polygon fill="none" stroke="#bfbfbf" points="1256.5,-0.5 1256.5,-19.5 1346.5,-19.5 1346.5,-0.5 1256.5,-0.5"/>
<text text-anchor="middle" x="1301.5" y="-7.5" font-family="serif" font-size="10.00">sys/resource.h</text>
</a>
</g>
</g>
<!-- Node18&#45;&gt;Node19 -->
<g id="edge19" class="edge">
<title>Node18&#45;&gt;Node19</title>
<path fill="none" stroke="midnightblue" d="M1034.73,-56.44C1092.41,-46.62 1186.73,-30.55 1246.39,-20.39"/>
<polygon fill="midnightblue" stroke="midnightblue" points="1247.11,-23.82 1256.38,-18.69 1245.93,-16.92 1247.11,-23.82"/>
</g>
<!-- Node20 -->
<g id="node20" class="node">
<title>Node20</title>
<g id="a_node20"><a xlink:title=" ">
<polygon fill="none" stroke="#bfbfbf" points="1182.5,-0.5 1182.5,-19.5 1238.5,-19.5 1238.5,-0.5 1182.5,-0.5"/>
<text text-anchor="middle" x="1210.5" y="-7.5" font-family="serif" font-size="10.00">fstream</text>
</a>
</g>
</g>
<!-- Node18&#45;&gt;Node20 -->
<g id="edge22" class="edge">
<title>Node18&#45;&gt;Node20</title>
<path fill="none" stroke="midnightblue" d="M1020.75,-56.43C1056.79,-47.89 1113.95,-34.31 1172.44,-20.25"/>
<polygon fill="midnightblue" stroke="midnightblue" points="1173.32,-23.64 1182.22,-17.89 1171.68,-16.83 1173.32,-23.64"/>
</g>
<!-- Node21&#45;&gt;Node3 -->
<g id="edge33" class="edge">
<title>Node21&#45;&gt;Node3</title>
<path fill="none" stroke="midnightblue" d="M496.8,-56.79C500.07,-56.5 503.32,-56.24 506.5,-56 879.8,-27.88 980.55,-77.17 1354.82,-19.69"/>
<polygon fill="midnightblue" stroke="midnightblue" points="1355.5,-23.12 1364.84,-18.13 1354.43,-16.21 1355.5,-23.12"/>
</g>
<!-- Node21&#45;&gt;Node9 -->
<g id="edge29" class="edge">
<title>Node21&#45;&gt;Node9</title>
<path fill="none" stroke="midnightblue" d="M419.37,-56.08C415.99,-48.77 411.08,-38.18 406.88,-29.1"/>
<polygon fill="midnightblue" stroke="midnightblue" points="409.93,-27.36 402.55,-19.75 403.58,-30.3 409.93,-27.36"/>
</g>
<!-- Node21&#45;&gt;Node11 -->
<g id="edge30" class="edge">
<title>Node21&#45;&gt;Node11</title>
<path fill="none" stroke="midnightblue" d="M484.69,-56.5C541.44,-48.4 628.47,-35.42 713.21,-20.16"/>
<polygon fill="midnightblue" stroke="midnightblue" points="714.05,-23.56 723.26,-18.34 712.8,-16.68 714.05,-23.56"/>
</g>
<!-- Node21&#45;&gt;Node12 -->
<g id="edge31" class="edge">
<title>Node21&#45;&gt;Node12</title>
<path fill="none" stroke="midnightblue" d="M452.5,-56.44C483.68,-47.24 533.43,-32.56 567.91,-22.39"/>
<polygon fill="midnightblue" stroke="midnightblue" points="569.04,-25.7 577.64,-19.52 567.06,-18.99 569.04,-25.7"/>
</g>
<!-- Node21&#45;&gt;Node14 -->
<g id="edge34" class="edge">
<title>Node21&#45;&gt;Node14</title>
<path fill="none" stroke="midnightblue" d="M431.43,-56.08C438.35,-48.3 448.57,-36.8 456.95,-27.37"/>
<polygon fill="midnightblue" stroke="midnightblue" points="459.69,-29.55 463.72,-19.75 454.46,-24.9 459.69,-29.55"/>
</g>
<!-- Node21&#45;&gt;Node15 -->
<g id="edge35" class="edge">
<title>Node21&#45;&gt;Node15</title>
<path fill="none" stroke="midnightblue" d="M441.33,-56.32C459.22,-47.62 486.98,-34.12 507.55,-24.11"/>
<polygon fill="midnightblue" stroke="midnightblue" points="509.25,-27.18 516.71,-19.65 506.19,-20.88 509.25,-27.18"/>
</g>
<!-- Node21&#45;&gt;Node16 -->
<g id="edge37" class="edge">
<title>Node21&#45;&gt;Node16</title>
<path fill="none" stroke="midnightblue" d="M407.43,-56.32C391.54,-47.74 366.99,-34.49 348.54,-24.52"/>
<polygon fill="midnightblue" stroke="midnightblue" points="349.99,-21.33 339.53,-19.65 346.66,-27.49 349.99,-21.33"/>
</g>
<!-- Node22 -->
<g id="node22" class="node">
<title>Node22</title>
<g id="a_node22"><a xlink:title=" ">
<polygon fill="none" stroke="#bfbfbf" points="237.5,-0.5 237.5,-19.5 281.5,-19.5 281.5,-0.5 237.5,-0.5"/>
<text text-anchor="middle" x="259.5" y="-7.5" font-family="serif" font-size="10.00">limits</text>
</a>
</g>
</g>
<!-- Node21&#45;&gt;Node22 -->
<g id="edge32" class="edge">
<title>Node21&#45;&gt;Node22</title>
<path fill="none" stroke="midnightblue" d="M397.51,-56.44C368.79,-46.99 322.49,-31.74 291.54,-21.55"/>
<polygon fill="midnightblue" stroke="midnightblue" points="292.28,-18.11 281.68,-18.3 290.09,-24.76 292.28,-18.11"/>
</g>
<!-- Node23 -->
<g id="node23" class="node">
<title>Node23</title>
<g id="a_node23"><a xlink:title=" ">
<polygon fill="none" stroke="#bfbfbf" points="166,-0.5 166,-19.5 219,-19.5 219,-0.5 166,-0.5"/>
<text text-anchor="middle" x="192.5" y="-7.5" font-family="serif" font-size="10.00">variant</text>
</a>
</g>
</g>
<!-- Node21&#45;&gt;Node23 -->
<g id="edge36" class="edge">
<title>Node21&#45;&gt;Node23</title>
<path fill="none" stroke="midnightblue" d="M385.71,-56.49C348.46,-48.06 289.67,-34.63 229.31,-20.16"/>
<polygon fill="midnightblue" stroke="midnightblue" points="229.76,-16.67 219.22,-17.74 228.13,-23.48 229.76,-16.67"/>
</g>
<!-- Node24&#45;&gt;Node3 -->
<g id="edge42" class="edge">
<title>Node24&#45;&gt;Node3</title>
<path fill="none" stroke="midnightblue" d="M698.02,-58.32C709.62,-57.51 721.34,-56.72 732.5,-56 1005.9,-38.34 1079.98,-64.09 1354.56,-19.76"/>
<polygon fill="midnightblue" stroke="midnightblue" points="1355.53,-23.15 1364.84,-18.09 1354.4,-16.24 1355.53,-23.15"/>
</g>
<!-- Node24&#45;&gt;Node9 -->
<g id="edge39" class="edge">
<title>Node24&#45;&gt;Node9</title>
<path fill="none" stroke="midnightblue" d="M573.54,-56.44C537.71,-47.14 480.34,-32.25 441.11,-22.06"/>
<polygon fill="midnightblue" stroke="midnightblue" points="441.86,-18.64 431.3,-19.52 440.1,-25.42 441.86,-18.64"/>
</g>
<!-- Node24&#45;&gt;Node12 -->
<g id="edge40" class="edge">
<title>Node24&#45;&gt;Node12</title>
<path fill="none" stroke="midnightblue" d="M606.5,-56.08C606.5,-49.01 606.5,-38.86 606.5,-29.99"/>
<polygon fill="midnightblue" stroke="midnightblue" points="610,-29.75 606.5,-19.75 603,-29.75 610,-29.75"/>
</g>
<!-- Node24&#45;&gt;Node15 -->
<g id="edge43" class="edge">
<title>Node24&#45;&gt;Node15</title>
<path fill="none" stroke="midnightblue" d="M594.93,-56.32C584.08,-48.18 567.62,-35.84 554.62,-26.09"/>
<polygon fill="midnightblue" stroke="midnightblue" points="556.38,-23.03 546.28,-19.83 552.18,-28.63 556.38,-23.03"/>
</g>
<!-- Node24&#45;&gt;Node16 -->
<g id="edge44" class="edge">
<title>Node24&#45;&gt;Node16</title>
<path fill="none" stroke="midnightblue" d="M551.11,-56.47C502.54,-48.66 429.85,-36.2 357.76,-20.12"/>
<polygon fill="midnightblue" stroke="midnightblue" points="358.11,-16.62 347.59,-17.83 356.57,-23.45 358.11,-16.62"/>
</g>
<!-- Node24&#45;&gt;Node22 -->
<g id="edge41" class="edge">
<title>Node24&#45;&gt;Node22</title>
<path fill="none" stroke="midnightblue" d="M524.1,-56.49C462.44,-49.38 375.94,-37.83 291.74,-20.01"/>
<polygon fill="midnightblue" stroke="midnightblue" points="292.27,-16.55 281.76,-17.87 290.8,-23.39 292.27,-16.55"/>
</g>
<!-- Node25&#45;&gt;Node23 -->
<g id="edge48" class="edge">
<title>Node25&#45;&gt;Node23</title>
<path fill="none" stroke="midnightblue" d="M143.82,-56.32C152.39,-48.34 165.31,-36.31 175.69,-26.65"/>
<polygon fill="midnightblue" stroke="midnightblue" points="178.08,-29.21 183.01,-19.83 173.31,-24.09 178.08,-29.21"/>
</g>
<!-- Node26 -->
<g id="node26" class="node">
<title>Node26</title>
<g id="a_node26"><a xlink:title=" ">
<polygon fill="none" stroke="#bfbfbf" points="89,-0.5 89,-19.5 148,-19.5 148,-0.5 89,-0.5"/>
<text text-anchor="middle" x="118.5" y="-7.5" font-family="serif" font-size="10.00">memory</text>
</a>
</g>
</g>
<!-- Node25&#45;&gt;Node26 -->
<g id="edge46" class="edge">
<title>Node25&#45;&gt;Node26</title>
<path fill="none" stroke="midnightblue" d="M131.86,-56.08C129.71,-48.85 126.62,-38.41 123.95,-29.4"/>
<polygon fill="midnightblue" stroke="midnightblue" points="127.29,-28.34 121.09,-19.75 120.58,-30.33 127.29,-28.34"/>
</g>
<!-- Node27 -->
<g id="node27" class="node">
<title>Node27</title>
<g id="a_node27"><a xlink:title=" ">
<polygon fill="none" stroke="#bfbfbf" points="0,-0.5 0,-19.5 71,-19.5 71,-0.5 0,-0.5"/>
<text text-anchor="middle" x="35.5" y="-7.5" font-family="serif" font-size="10.00">type_traits</text>
</a>
</g>
</g>
<!-- Node25&#45;&gt;Node27 -->
<g id="edge47" class="edge">
<title>Node25&#45;&gt;Node27</title>
<path fill="none" stroke="midnightblue" d="M118.59,-56.32C102.86,-47.74 78.56,-34.49 60.29,-24.52"/>
<polygon fill="midnightblue" stroke="midnightblue" points="61.82,-21.37 51.37,-19.65 58.47,-27.52 61.82,-21.37"/>
</g>
<!-- Node28&#45;&gt;Node3 -->
<g id="edge51" class="edge">
<title>Node28&#45;&gt;Node3</title>
<path fill="none" stroke="midnightblue" d="M296,-173.94C308.91,-171.91 322.69,-169.82 335.5,-168 658.83,-122.13 741.99,-127.33 1064.5,-76 1191.39,-55.8 1225.56,-50.07 1354.87,-20.01"/>
<polygon fill="midnightblue" stroke="midnightblue" points="1355.82,-23.38 1364.76,-17.71 1354.23,-16.57 1355.82,-23.38"/>
</g>
<!-- Node28&#45;&gt;Node4 -->
<g id="edge53" class="edge">
<title>Node28&#45;&gt;Node4</title>
<path fill="none" stroke="midnightblue" d="M292.09,-173.96C306.06,-171.74 321.35,-169.54 335.5,-168 596.66,-139.52 664.27,-159.84 925.5,-132 926.8,-131.86 928.12,-131.71 929.45,-131.56"/>
<polygon fill="midnightblue" stroke="midnightblue" points="930.29,-134.98 939.78,-130.26 929.42,-128.04 930.29,-134.98"/>
</g>
<!-- Node28&#45;&gt;Node16 -->
<g id="edge52" class="edge">
<title>Node28&#45;&gt;Node16</title>
<path fill="none" stroke="midnightblue" d="M247.58,-173.76C260.1,-146.92 298.16,-65.32 315.15,-28.89"/>
<polygon fill="midnightblue" stroke="midnightblue" points="318.47,-30.06 319.53,-19.52 312.13,-27.1 318.47,-30.06"/>
</g>
<!-- Node28&#45;&gt;Node22 -->
<g id="edge50" class="edge">
<title>Node28&#45;&gt;Node22</title>
<path fill="none" stroke="midnightblue" d="M244.32,-173.76C246.8,-147.15 254.3,-66.71 257.74,-29.84"/>
<polygon fill="midnightblue" stroke="midnightblue" points="261.26,-29.8 258.71,-19.52 254.29,-29.15 261.26,-29.8"/>
</g>
<!-- Node29&#45;&gt;Node4 -->
<g id="edge55" class="edge">
<title>Node29&#45;&gt;Node4</title>
<path fill="none" stroke="midnightblue" d="M480.13,-173.93C493.88,-171.81 508.73,-169.68 522.5,-168 701.01,-146.28 746.97,-153.57 925.5,-132 926.8,-131.84 928.12,-131.68 929.45,-131.51"/>
<polygon fill="midnightblue" stroke="midnightblue" points="930.32,-134.92 939.76,-130.12 929.39,-127.99 930.32,-134.92"/>
</g>
<!-- Node30&#45;&gt;Node4 -->
<g id="edge57" class="edge">
<title>Node30&#45;&gt;Node4</title>
<path fill="none" stroke="midnightblue" d="M672.65,-173.98C741.04,-162.8 860.47,-143.27 930,-131.91"/>
<polygon fill="midnightblue" stroke="midnightblue" points="930.58,-135.36 939.89,-130.29 929.45,-128.45 930.58,-135.36"/>
</g>
<!-- Node31&#45;&gt;Node3 -->
<g id="edge59" class="edge">
<title>Node31&#45;&gt;Node3</title>
<path fill="none" stroke="midnightblue" d="M1215.88,-168.47C1250.63,-136.77 1334.98,-59.82 1371.35,-26.65"/>
<polygon fill="midnightblue" stroke="midnightblue" points="1374.09,-28.88 1379.12,-19.56 1369.37,-23.71 1374.09,-28.88"/>
</g>
<!-- Node31&#45;&gt;Node4 -->
<g id="edge60" class="edge">
<title>Node31&#45;&gt;Node4</title>
<path fill="none" stroke="midnightblue" d="M1149.58,-168.47C1111.67,-158.03 1060.58,-143.96 1025.33,-134.25"/>
<polygon fill="midnightblue" stroke="midnightblue" points="1025.95,-130.79 1015.38,-131.51 1024.09,-137.54 1025.95,-130.79"/>
</g>
<!-- Node32&#45;&gt;Node4 -->
<g id="edge62" class="edge">
<title>Node32&#45;&gt;Node4</title>
<path fill="none" stroke="midnightblue" d="M847.92,-168.4C878.72,-158.16 919.91,-144.47 948.98,-134.81"/>
<polygon fill="midnightblue" stroke="midnightblue" points="950.33,-138.05 958.72,-131.57 948.12,-131.4 950.33,-138.05"/>
</g>
<!-- Node33&#45;&gt;Node3 -->
<g id="edge64" class="edge">
<title>Node33&#45;&gt;Node3</title>
<path fill="none" stroke="midnightblue" d="M1388.5,-173.76C1388.5,-147.15 1388.5,-66.71 1388.5,-29.84"/>
<polygon fill="midnightblue" stroke="midnightblue" points="1392,-29.52 1388.5,-19.52 1385,-29.52 1392,-29.52"/>
</g>
<!-- Node33&#45;&gt;Node4 -->
<g id="edge65" class="edge">
<title>Node33&#45;&gt;Node4</title>
<path fill="none" stroke="midnightblue" d="M1333.84,-173.98C1320.94,-172 1307.24,-169.91 1294.5,-168 1205.09,-154.61 1101.07,-139.64 1039.13,-130.78"/>
<polygon fill="midnightblue" stroke="midnightblue" points="1039.58,-127.31 1029.18,-129.36 1038.59,-134.24 1039.58,-127.31"/>
</g>
<!-- Node34&#45;&gt;Node4 -->
<g id="edge67" class="edge">
<title>Node34&#45;&gt;Node4</title>
<path fill="none" stroke="midnightblue" d="M981.07,-173.98C981.64,-165.58 982.52,-152.48 983.25,-141.66"/>
<polygon fill="midnightblue" stroke="midnightblue" points="986.75,-141.72 983.93,-131.51 979.76,-141.25 986.75,-141.72"/>
</g>
<!-- Node35&#45;&gt;Node3 -->
<g id="edge69" class="edge">
<title>Node35&#45;&gt;Node3</title>
<path fill="none" stroke="midnightblue" d="M1561.22,-173.76C1532.13,-146.35 1442.4,-61.79 1405.06,-26.61"/>
<polygon fill="midnightblue" stroke="midnightblue" points="1407.22,-23.83 1397.54,-19.52 1402.42,-28.92 1407.22,-23.83"/>
</g>
<!-- Node35&#45;&gt;Node4 -->
<g id="edge70" class="edge">
<title>Node35&#45;&gt;Node4</title>
<path fill="none" stroke="midnightblue" d="M1522.64,-173.96C1509.64,-171.82 1495.56,-169.66 1482.5,-168 1322.05,-147.56 1131.36,-133.04 1039.44,-126.64"/>
<polygon fill="midnightblue" stroke="midnightblue" points="1039.48,-123.14 1029.26,-125.94 1038.99,-130.12 1039.48,-123.14"/>
</g>
<!-- Node36&#45;&gt;Node3 -->
<g id="edge72" class="edge">
<title>Node36&#45;&gt;Node3</title>
<path fill="none" stroke="midnightblue" d="M1723.99,-174C1666.71,-146.17 1484.59,-57.68 1415.46,-24.1"/>
<polygon fill="midnightblue" stroke="midnightblue" points="1416.64,-20.78 1406.11,-19.56 1413.58,-27.07 1416.64,-20.78"/>
</g>
<!-- Node36&#45;&gt;Node4 -->
<g id="edge73" class="edge">
<title>Node36&#45;&gt;Node4</title>
<path fill="none" stroke="midnightblue" d="M1697.69,-173.95C1685.08,-171.73 1671.28,-169.54 1658.5,-168 1429.58,-140.44 1154.73,-128.67 1039.53,-124.69"/>
<polygon fill="midnightblue" stroke="midnightblue" points="1039.33,-121.18 1029.21,-124.34 1039.09,-128.18 1039.33,-121.18"/>
</g>
</g>
</svg>
        <g id="navigator" transform="translate(0 0)" fill="#404254">
                <rect fill="#f2f5e9" fill-opacity="0.5" stroke="#606060" stroke-width=".5" x="0" y="0" width="60" height="60"/>
                <use id="zoomplus" xlink:href="#zoomPlus" x="17" y="9" onmousedown="handleZoom(evt,'in')"/>
                <use id="zoomminus" xlink:href="#zoomMin" x="42" y="9" onmousedown="handleZoom(evt,'out')"/>
                <use id="reset" xlink:href="#resetDef" x="30" y="36" onmousedown="handleReset()"/>
                <g id="arrowUp" xlink:href="#dirArrow" transform="translate(30 24)" onmousedown="handlePan(0,-1)">
                  <use xlink:href="#rim" fill="#404040">
                        <set attributeName="fill" to="#808080" begin="arrowUp.mouseover" end="arrowUp.mouseout"/>
                  </use>
                  <path fill="none" stroke="white" stroke-width="1.5" d="M0,-3.0v7 M-2.5,-0.5L0,-3.0L2.5,-0.5"/>
                </g>
                <g id="arrowRight" xlink:href="#dirArrow" transform="rotate(90) translate(36 -43)" onmousedown="handlePan(1,0)">
                  <use xlink:href="#rim" fill="#404040">
                        <set attributeName="fill" to="#808080" begin="arrowRight.mouseover" end="arrowRight.mouseout"/>
                  </use>
                  <path fill="none" stroke="white" stroke-width="1.5" d="M0,-3.0v7 M-2.5,-0.5L0,-3.0L2.5,-0.5"/>
                </g>
                <g id="arrowDown" xlink:href="#dirArrow" transform="rotate(180) translate(-30 -48)" onmousedown="handlePan(0,1)">
                  <use xlink:href="#rim" fill="#404040">
                        <set attributeName="fill" to="#808080" begin="arrowDown.mouseover" end="arrowDown.mouseout"/>
                  </use>
                  <path fill="none" stroke="white" stroke-width="1.5" d="M0,-3.0v7 M-2.5,-0.5L0,-3.0L2.5,-0.5"/>
                </g>
                <g id="arrowLeft" xlink:href="#dirArrow" transform="rotate(270) translate(-36 17)" onmousedown="handlePan(-1,0)">
                  <use xlink:href="#rim" fill="#404040">
                        <set attributeName="fill" to="#808080" begin="arrowLeft.mouseover" end="arrowLeft.mouseout"/>
                  </use>
                  <path fill="none" stroke="white" stroke-width="1.5" d="M0,-3.0v7 M-2.5,-0.5L0,-3.0L2.5,-0.5"/>
                </g>
        </g>
        <svg viewBox="0 0 15 15" width="100%" height="30px" preserveAspectRatio="xMaxYMin meet">
         <g id="arrow_out" transform="scale(0.3 0.3)">
          <a xlink:href="Options_8hpp__incl_org.svg" target="_base">
           <rect id="button" ry="5" rx="5" y="6" x="6" height="38" width="38"
                fill="#f2f5e9" fill-opacity="0.5" stroke="#606060" stroke-width="1.0"/>
           <path id="arrow"
             d="M 11.500037,31.436501 C 11.940474,20.09759 22.043105,11.32322 32.158766,21.979434 L 37.068811,17.246167 C 37.068811,17.246167 37.088388,32 37.088388,32 L 22.160133,31.978069 C 22.160133,31.978069 26.997745,27.140456 26.997745,27.140456 C 18.528582,18.264221 13.291696,25.230495 11.500037,31.436501 z"
             style="fill:#404040;"/>
          </a>
         </g>
        </svg>
</svg>
