<?xml version="1.0" encoding="UTF-8" standalone="no"?>
<!DOCTYPE svg PUBLIC "-//W3C//DTD SVG 1.1//EN"
 "http://www.w3.org/Graphics/SVG/1.1/DTD/svg11.dtd">
<!-- Generated by graphviz version 2.43.0 (0)
 -->
<!-- Title: Parameter.hpp Pages: 1 -->
<svg width="2147pt" height="319pt"
 viewBox="0.00 0.00 2146.50 319.00" xmlns="http://www.w3.org/2000/svg" xmlns:xlink="http://www.w3.org/1999/xlink">
<g id="graph0" class="graph" transform="scale(1 1) rotate(0) translate(4 315)">
<title>Parameter.hpp</title>
<!-- Node1 -->
<g id="node1" class="node">
<title>Node1</title>
<g id="a_node1"><a xlink:title="Parameter class.">
<polygon fill="#bfbfbf" stroke="black" points="1840,-291.5 1840,-310.5 1932,-310.5 1932,-291.5 1840,-291.5"/>
<text text-anchor="middle" x="1886" y="-298.5" font-family="serif" font-size="10.00">Parameter.hpp</text>
</a>
</g>
</g>
<!-- Node2 -->
<g id="node2" class="node">
<title>Node2</title>
<g id="a_node2"><a xlink:title=" ">
<polygon fill="none" stroke="#bfbfbf" points="615.5,-0.5 615.5,-19.5 662.5,-19.5 662.5,-0.5 615.5,-0.5"/>
<text text-anchor="middle" x="639" y="-7.5" font-family="serif" font-size="10.00">string</text>
</a>
</g>
</g>
<!-- Node1&#45;&gt;Node2 -->
<g id="edge1" class="edge">
<title>Node1&#45;&gt;Node2</title>
<path fill="none" stroke="midnightblue" d="M1839.85,-299.66C1550.62,-297.22 0,-279.68 0,-184.5 0,-184.5 0,-184.5 0,-121 0,-59 473.23,-22.25 605.2,-13.2"/>
<polygon fill="midnightblue" stroke="midnightblue" points="605.76,-16.67 615.5,-12.51 605.29,-9.69 605.76,-16.67"/>
</g>
<!-- Node3 -->
<g id="node3" class="node">
<title>Node3</title>
<g id="a_node3"><a xlink:title=" ">
<polygon fill="none" stroke="#bfbfbf" points="2005.5,-0.5 2005.5,-19.5 2076.5,-19.5 2076.5,-0.5 2005.5,-0.5"/>
<text text-anchor="middle" x="2041" y="-7.5" font-family="serif" font-size="10.00">type_traits</text>
</a>
</g>
</g>
<!-- Node1&#45;&gt;Node3 -->
<g id="edge2" class="edge">
<title>Node1&#45;&gt;Node3</title>
<path fill="none" stroke="midnightblue" d="M1923.44,-291.47C1972.12,-277.91 2051,-246.39 2051,-184.5 2051,-184.5 2051,-184.5 2051,-121 2051,-88.82 2046.7,-51.55 2043.74,-29.7"/>
<polygon fill="midnightblue" stroke="midnightblue" points="2047.17,-28.95 2042.31,-19.53 2040.24,-29.92 2047.17,-28.95"/>
</g>
<!-- Node4 -->
<g id="node4" class="node">
<title>Node4</title>
<g id="a_node4"><a xlink:title=" ">
<polygon fill="none" stroke="#bfbfbf" points="2079.5,-235.5 2079.5,-254.5 2138.5,-254.5 2138.5,-235.5 2079.5,-235.5"/>
<text text-anchor="middle" x="2109" y="-242.5" font-family="serif" font-size="10.00">typeinfo</text>
</a>
</g>
</g>
<!-- Node1&#45;&gt;Node4 -->
<g id="edge3" class="edge">
<title>Node1&#45;&gt;Node4</title>
<path fill="none" stroke="midnightblue" d="M1921.34,-291.44C1961.61,-281.69 2027.29,-265.79 2069.3,-255.61"/>
<polygon fill="midnightblue" stroke="midnightblue" points="2070.29,-258.98 2079.18,-253.22 2068.64,-252.17 2070.29,-258.98"/>
</g>
<!-- Node5 -->
<g id="node5" class="node">
<title>Node5</title>
<g id="a_node5"><a xlink:title=" ">
<polygon fill="none" stroke="#bfbfbf" points="1820.5,-0.5 1820.5,-19.5 1873.5,-19.5 1873.5,-0.5 1820.5,-0.5"/>
<text text-anchor="middle" x="1847" y="-7.5" font-family="serif" font-size="10.00">variant</text>
</a>
</g>
</g>
<!-- Node1&#45;&gt;Node5 -->
<g id="edge4" class="edge">
<title>Node1&#45;&gt;Node5</title>
<path fill="none" stroke="midnightblue" d="M1884.83,-291.35C1879.46,-251.55 1857.06,-85.55 1849.5,-29.55"/>
<polygon fill="midnightblue" stroke="midnightblue" points="1852.97,-29.06 1848.16,-19.62 1846.03,-29.99 1852.97,-29.06"/>
</g>
<!-- Node6 -->
<g id="node6" class="node">
<title>Node6</title>
<g id="a_node6"><a xlink:href="Options_8hpp.html" target="_top" xlink:title="List of all Options files.">
<polygon fill="none" stroke="black" points="1039,-235.5 1039,-254.5 1161,-254.5 1161,-235.5 1039,-235.5"/>
<text text-anchor="middle" x="1100" y="-242.5" font-family="serif" font-size="10.00">Options/Options.hpp</text>
</a>
</g>
</g>
<!-- Node1&#45;&gt;Node6 -->
<g id="edge5" class="edge">
<title>Node1&#45;&gt;Node6</title>
<path fill="none" stroke="midnightblue" d="M1839.77,-296.82C1707.99,-287.77 1329.8,-261.79 1171.27,-250.9"/>
<polygon fill="midnightblue" stroke="midnightblue" points="1171.37,-247.39 1161.15,-250.2 1170.89,-254.38 1171.37,-247.39"/>
</g>
<!-- Node7 -->
<g id="node7" class="node">
<title>Node7</title>
<g id="a_node7"><a xlink:href="AnalyticalFunctionOptions_8hpp.html" target="_top" xlink:title="Options for Analytical functions.">
<polygon fill="none" stroke="black" points="28.5,-168.5 28.5,-198.5 183.5,-198.5 183.5,-168.5 28.5,-168.5"/>
<text text-anchor="start" x="36.5" y="-186.5" font-family="serif" font-size="10.00">Options/AnalyticalFunction</text>
<text text-anchor="middle" x="106" y="-175.5" font-family="serif" font-size="10.00">Options.hpp</text>
</a>
</g>
</g>
<!-- Node6&#45;&gt;Node7 -->
<g id="edge6" class="edge">
<title>Node6&#45;&gt;Node7</title>
<path fill="none" stroke="midnightblue" d="M1038.77,-243.4C893.74,-241.46 517.84,-233.34 193.78,-198.99"/>
<polygon fill="midnightblue" stroke="midnightblue" points="194.04,-195.5 183.73,-197.91 193.3,-202.46 194.04,-195.5"/>
</g>
<!-- Node8 -->
<g id="node8" class="node">
<title>Node8</title>
<g id="a_node8"><a xlink:href="Utils_8hpp.html" target="_top" xlink:title="List of all Utils files.">
<polygon fill="none" stroke="black" points="1012.5,-112.5 1012.5,-131.5 1101.5,-131.5 1101.5,-112.5 1012.5,-112.5"/>
<text text-anchor="middle" x="1057" y="-119.5" font-family="serif" font-size="10.00">Utils/Utils.hpp</text>
</a>
</g>
</g>
<!-- Node6&#45;&gt;Node8 -->
<g id="edge79" class="edge">
<title>Node6&#45;&gt;Node8</title>
<path fill="none" stroke="midnightblue" d="M1161.19,-243.51C1296.72,-241.78 1612.76,-234.01 1645,-199 1654.33,-188.86 1654.41,-178.07 1645,-168 1604.78,-124.95 1174.56,-138.45 1116,-132 1114.7,-131.86 1113.38,-131.71 1112.05,-131.55"/>
<polygon fill="midnightblue" stroke="midnightblue" points="1112.09,-128.02 1101.73,-130.22 1111.2,-134.97 1112.09,-128.02"/>
</g>
<!-- Node30 -->
<g id="node30" class="node">
<title>Node30</title>
<g id="a_node30"><a xlink:href="CalphadOptions_8hpp.html" target="_top" xlink:title="Options for Calphad problems.">
<polygon fill="none" stroke="black" points="1692.5,-174 1692.5,-193 1857.5,-193 1857.5,-174 1692.5,-174"/>
<text text-anchor="middle" x="1775" y="-181" font-family="serif" font-size="10.00">Options/CalphadOptions.hpp</text>
</a>
</g>
</g>
<!-- Node6&#45;&gt;Node30 -->
<g id="edge54" class="edge">
<title>Node6&#45;&gt;Node30</title>
<path fill="none" stroke="midnightblue" d="M1161.3,-240.66C1266.99,-234.57 1490.23,-220.32 1678,-199 1689.25,-197.72 1701.21,-196.13 1712.74,-194.47"/>
<polygon fill="midnightblue" stroke="midnightblue" points="1713.35,-197.92 1722.73,-193.01 1712.33,-190.99 1713.35,-197.92"/>
</g>
<!-- Node31 -->
<g id="node31" class="node">
<title>Node31</title>
<g id="a_node31"><a xlink:href="DiffusionOptions_8hpp.html" target="_top" xlink:title="Option for Mass Diffusion problems.">
<polygon fill="none" stroke="black" points="920,-174 920,-193 1088,-193 1088,-174 920,-174"/>
<text text-anchor="middle" x="1004" y="-181" font-family="serif" font-size="10.00">Options/DiffusionOptions.hpp</text>
</a>
</g>
</g>
<!-- Node6&#45;&gt;Node31 -->
<g id="edge59" class="edge">
<title>Node6&#45;&gt;Node31</title>
<path fill="none" stroke="midnightblue" d="M1086.25,-235.48C1070.63,-225.8 1044.94,-209.87 1026.42,-198.39"/>
<polygon fill="midnightblue" stroke="midnightblue" points="1028.07,-195.3 1017.73,-193.01 1024.38,-201.25 1028.07,-195.3"/>
</g>
<!-- Node32 -->
<g id="node32" class="node">
<title>Node32</title>
<g id="a_node32"><a xlink:href="PhaseFieldOptions_8hpp.html" target="_top" xlink:title="Options for PhaseField problems.">
<polygon fill="none" stroke="black" points="1106.5,-174 1106.5,-193 1285.5,-193 1285.5,-174 1106.5,-174"/>
<text text-anchor="middle" x="1196" y="-181" font-family="serif" font-size="10.00">Options/PhaseFieldOptions.hpp</text>
</a>
</g>
</g>
<!-- Node6&#45;&gt;Node32 -->
<g id="edge61" class="edge">
<title>Node6&#45;&gt;Node32</title>
<path fill="none" stroke="midnightblue" d="M1113.75,-235.48C1129.37,-225.8 1155.06,-209.87 1173.58,-198.39"/>
<polygon fill="midnightblue" stroke="midnightblue" points="1175.62,-201.25 1182.27,-193.01 1171.93,-195.3 1175.62,-201.25"/>
</g>
<!-- Node33 -->
<g id="node33" class="node">
<title>Node33</title>
<g id="a_node33"><a xlink:href="PhysicalConvergenceOptions_8hpp.html" target="_top" xlink:title="Options for PhysicalConvergence objects.">
<polygon fill="none" stroke="black" points="544.5,-168.5 544.5,-198.5 713.5,-198.5 713.5,-168.5 544.5,-168.5"/>
<text text-anchor="start" x="552.5" y="-186.5" font-family="serif" font-size="10.00">Options/PhysicalConvergence</text>
<text text-anchor="middle" x="629" y="-175.5" font-family="serif" font-size="10.00">Options.hpp</text>
</a>
</g>
</g>
<!-- Node6&#45;&gt;Node33 -->
<g id="edge63" class="edge">
<title>Node6&#45;&gt;Node33</title>
<path fill="none" stroke="midnightblue" d="M1038.87,-237.35C966.27,-229.32 841.26,-215.02 723.45,-199.03"/>
<polygon fill="midnightblue" stroke="midnightblue" points="723.91,-195.56 713.53,-197.68 722.97,-202.5 723.91,-195.56"/>
</g>
<!-- Node34 -->
<g id="node34" class="node">
<title>Node34</title>
<g id="a_node34"><a xlink:href="PhysicalPropertiesOptions_8hpp.html" target="_top" xlink:title="Options for physical properties.">
<polygon fill="none" stroke="black" points="1304,-168.5 1304,-198.5 1458,-198.5 1458,-168.5 1304,-168.5"/>
<text text-anchor="start" x="1312" y="-186.5" font-family="serif" font-size="10.00">Options/PhysicalProperties</text>
<text text-anchor="middle" x="1381" y="-175.5" font-family="serif" font-size="10.00">Options.hpp</text>
</a>
</g>
</g>
<!-- Node6&#45;&gt;Node34 -->
<g id="edge66" class="edge">
<title>Node6&#45;&gt;Node34</title>
<path fill="none" stroke="midnightblue" d="M1140.26,-235.48C1183.03,-226.42 1251.66,-211.89 1304.72,-200.65"/>
<polygon fill="midnightblue" stroke="midnightblue" points="1305.72,-204.02 1314.77,-198.52 1304.27,-197.17 1305.72,-204.02"/>
</g>
<!-- Node35 -->
<g id="node35" class="node">
<title>Node35</title>
<g id="a_node35"><a xlink:href="ProblemsOptions_8hpp.html" target="_top" xlink:title="Options for Problem objects.">
<polygon fill="none" stroke="black" points="732,-174 732,-193 902,-193 902,-174 732,-174"/>
<text text-anchor="middle" x="817" y="-181" font-family="serif" font-size="10.00">Options/ProblemsOptions.hpp</text>
</a>
</g>
</g>
<!-- Node6&#45;&gt;Node35 -->
<g id="edge68" class="edge">
<title>Node6&#45;&gt;Node35</title>
<path fill="none" stroke="midnightblue" d="M1059.45,-235.48C1008.81,-224.83 922.16,-206.61 867.32,-195.08"/>
<polygon fill="midnightblue" stroke="midnightblue" points="867.98,-191.64 857.47,-193.01 866.54,-198.49 867.98,-191.64"/>
</g>
<!-- Node36 -->
<g id="node36" class="node">
<title>Node36</title>
<g id="a_node36"><a xlink:href="SolversOptions_8hpp.html" target="_top" xlink:title="Options for solvers and preconditioners.">
<polygon fill="none" stroke="black" points="1476,-174 1476,-193 1636,-193 1636,-174 1476,-174"/>
<text text-anchor="middle" x="1556" y="-181" font-family="serif" font-size="10.00">Options/SolversOptions.hpp</text>
</a>
</g>
</g>
<!-- Node6&#45;&gt;Node36 -->
<g id="edge71" class="edge">
<title>Node6&#45;&gt;Node36</title>
<path fill="none" stroke="midnightblue" d="M1161.14,-237.25C1234.06,-229.03 1359.6,-214.33 1467,-199 1476.32,-197.67 1486.17,-196.17 1495.78,-194.64"/>
<polygon fill="midnightblue" stroke="midnightblue" points="1496.37,-198.09 1505.69,-193.05 1495.26,-191.18 1496.37,-198.09"/>
</g>
<!-- Node37 -->
<g id="node37" class="node">
<title>Node37</title>
<g id="a_node37"><a xlink:href="SpatialOptions_8hpp.html" target="_top" xlink:title="Options for Spatial discretization.">
<polygon fill="none" stroke="black" points="202,-174 202,-193 360,-193 360,-174 202,-174"/>
<text text-anchor="middle" x="281" y="-181" font-family="serif" font-size="10.00">Options/SpatialOptions.hpp</text>
</a>
</g>
</g>
<!-- Node6&#45;&gt;Node37 -->
<g id="edge73" class="edge">
<title>Node6&#45;&gt;Node37</title>
<path fill="none" stroke="midnightblue" d="M1038.69,-242.33C912.82,-238.45 616.33,-226.92 369,-199 358.74,-197.84 347.85,-196.3 337.36,-194.66"/>
<polygon fill="midnightblue" stroke="midnightblue" points="337.89,-191.2 327.46,-193.06 336.78,-198.11 337.89,-191.2"/>
</g>
<!-- Node38 -->
<g id="node38" class="node">
<title>Node38</title>
<g id="a_node38"><a xlink:href="TimeOptions_8hpp.html" target="_top" xlink:title="Options for Time discretization.">
<polygon fill="none" stroke="black" points="378,-174 378,-193 526,-193 526,-174 378,-174"/>
<text text-anchor="middle" x="452" y="-181" font-family="serif" font-size="10.00">Options/TimeOptions.hpp</text>
</a>
</g>
</g>
<!-- Node6&#45;&gt;Node38 -->
<g id="edge76" class="edge">
<title>Node6&#45;&gt;Node38</title>
<path fill="none" stroke="midnightblue" d="M1038.89,-240.96C935.18,-235.38 718.25,-221.95 536,-199 526.52,-197.81 516.48,-196.29 506.76,-194.7"/>
<polygon fill="midnightblue" stroke="midnightblue" points="507.23,-191.23 496.79,-193.01 506.07,-198.13 507.23,-191.23"/>
</g>
<!-- Node7&#45;&gt;Node2 -->
<g id="edge7" class="edge">
<title>Node7&#45;&gt;Node2</title>
<path fill="none" stroke="midnightblue" d="M149.62,-168.47C253.38,-135.08 513.16,-51.49 605.65,-21.73"/>
<polygon fill="midnightblue" stroke="midnightblue" points="606.88,-25.01 615.33,-18.62 604.74,-18.35 606.88,-25.01"/>
</g>
<!-- Node7&#45;&gt;Node8 -->
<g id="edge8" class="edge">
<title>Node7&#45;&gt;Node8</title>
<path fill="none" stroke="midnightblue" d="M183.73,-169.1C186.86,-168.7 189.96,-168.33 193,-168 497.52,-134.8 865.17,-125.94 1002.11,-123.71"/>
<polygon fill="midnightblue" stroke="midnightblue" points="1002.4,-127.2 1012.34,-123.55 1002.29,-120.2 1002.4,-127.2"/>
</g>
<!-- Node9 -->
<g id="node9" class="node">
<title>Node9</title>
<g id="a_node9"><a xlink:href="UtilsForData_8hpp.html" target="_top" xlink:title="Usefull methods for data.">
<polygon fill="none" stroke="black" points="1169.5,-56.5 1169.5,-75.5 1300.5,-75.5 1300.5,-56.5 1169.5,-56.5"/>
<text text-anchor="middle" x="1235" y="-63.5" font-family="serif" font-size="10.00">Utils/UtilsForData.hpp</text>
</a>
</g>
</g>
<!-- Node8&#45;&gt;Node9 -->
<g id="edge9" class="edge">
<title>Node8&#45;&gt;Node9</title>
<path fill="none" stroke="midnightblue" d="M1085.2,-112.44C1115.41,-103.28 1163.51,-88.69 1197.03,-78.52"/>
<polygon fill="midnightblue" stroke="midnightblue" points="1198.37,-81.77 1206.93,-75.52 1196.34,-75.07 1198.37,-81.77"/>
</g>
<!-- Node22 -->
<g id="node22" class="node">
<title>Node22</title>
<g id="a_node22"><a xlink:href="UtilsForDebug_8hpp.html" target="_top" xlink:title="Usefull methods for debug.">
<polygon fill="none" stroke="black" points="986.5,-56.5 986.5,-75.5 1127.5,-75.5 1127.5,-56.5 986.5,-56.5"/>
<text text-anchor="middle" x="1057" y="-63.5" font-family="serif" font-size="10.00">Utils/UtilsForDebug.hpp</text>
</a>
</g>
</g>
<!-- Node8&#45;&gt;Node22 -->
<g id="edge23" class="edge">
<title>Node8&#45;&gt;Node22</title>
<path fill="none" stroke="midnightblue" d="M1057,-112.08C1057,-105.01 1057,-94.86 1057,-85.99"/>
<polygon fill="midnightblue" stroke="midnightblue" points="1060.5,-85.75 1057,-75.75 1053.5,-85.75 1060.5,-85.75"/>
</g>
<!-- Node25 -->
<g id="node25" class="node">
<title>Node25</title>
<g id="a_node25"><a xlink:href="UtilsForOptions_8hpp.html" target="_top" xlink:title="Usefull methods for Options.">
<polygon fill="none" stroke="black" points="1532,-56.5 1532,-75.5 1678,-75.5 1678,-56.5 1532,-56.5"/>
<text text-anchor="middle" x="1605" y="-63.5" font-family="serif" font-size="10.00">Utils/UtilsForOptions.hpp</text>
</a>
</g>
</g>
<!-- Node8&#45;&gt;Node25 -->
<g id="edge33" class="edge">
<title>Node8&#45;&gt;Node25</title>
<path fill="none" stroke="midnightblue" d="M1101.68,-116.88C1183,-109.34 1360.88,-92.65 1521.62,-76.13"/>
<polygon fill="midnightblue" stroke="midnightblue" points="1522.1,-79.6 1531.69,-75.09 1521.38,-72.64 1522.1,-79.6"/>
</g>
<!-- Node27 -->
<g id="node27" class="node">
<title>Node27</title>
<g id="a_node27"><a xlink:href="UtilsForPostProcessing_8hpp.html" target="_top" xlink:title="Usefull methods for post&#45;processing.">
<polygon fill="none" stroke="black" points="1330.5,-56.5 1330.5,-75.5 1513.5,-75.5 1513.5,-56.5 1330.5,-56.5"/>
<text text-anchor="middle" x="1422" y="-63.5" font-family="serif" font-size="10.00">Utils/UtilsForPostProcessing.hpp</text>
</a>
</g>
</g>
<!-- Node8&#45;&gt;Node27 -->
<g id="edge43" class="edge">
<title>Node8&#45;&gt;Node27</title>
<path fill="none" stroke="midnightblue" d="M1101.76,-114.38C1164.84,-105.04 1280.44,-87.94 1354.13,-77.04"/>
<polygon fill="midnightblue" stroke="midnightblue" points="1354.86,-80.47 1364.24,-75.55 1353.84,-73.55 1354.86,-80.47"/>
</g>
<!-- Node28 -->
<g id="node28" class="node">
<title>Node28</title>
<g id="a_node28"><a xlink:href="UtilsForVariants_8hpp.html" target="_top" xlink:title="manage std::Variants">
<polygon fill="none" stroke="black" points="1875,-56.5 1875,-75.5 2023,-75.5 2023,-56.5 1875,-56.5"/>
<text text-anchor="middle" x="1949" y="-63.5" font-family="serif" font-size="10.00">Utils/UtilsForVariants.hpp</text>
</a>
</g>
</g>
<!-- Node8&#45;&gt;Node28 -->
<g id="edge50" class="edge">
<title>Node8&#45;&gt;Node28</title>
<path fill="none" stroke="midnightblue" d="M1101.54,-118.3C1242.31,-109.78 1679.25,-83.33 1864.55,-72.11"/>
<polygon fill="midnightblue" stroke="midnightblue" points="1865.02,-75.59 1874.79,-71.49 1864.6,-68.6 1865.02,-75.59"/>
</g>
<!-- Node9&#45;&gt;Node2 -->
<g id="edge18" class="edge">
<title>Node9&#45;&gt;Node2</title>
<path fill="none" stroke="midnightblue" d="M1169.38,-58.84C1158.57,-57.87 1147.47,-56.89 1137,-56 933.68,-38.79 877.97,-54.91 672.57,-19.74"/>
<polygon fill="midnightblue" stroke="midnightblue" points="673.12,-16.29 662.67,-18.03 671.93,-23.19 673.12,-16.29"/>
</g>
<!-- Node10 -->
<g id="node10" class="node">
<title>Node10</title>
<g id="a_node10"><a xlink:title=" ">
<polygon fill="none" stroke="#bfbfbf" points="1015.5,-0.5 1015.5,-19.5 1074.5,-19.5 1074.5,-0.5 1015.5,-0.5"/>
<text text-anchor="middle" x="1045" y="-7.5" font-family="serif" font-size="10.00">unistd.h</text>
</a>
</g>
</g>
<!-- Node9&#45;&gt;Node10 -->
<g id="edge10" class="edge">
<title>Node9&#45;&gt;Node10</title>
<path fill="none" stroke="midnightblue" d="M1204.89,-56.44C1172.28,-47.17 1120.12,-32.35 1084.29,-22.17"/>
<polygon fill="midnightblue" stroke="midnightblue" points="1085.23,-18.79 1074.65,-19.43 1083.31,-25.53 1085.23,-18.79"/>
</g>
<!-- Node11 -->
<g id="node11" class="node">
<title>Node11</title>
<g id="a_node11"><a xlink:title=" ">
<polygon fill="none" stroke="#bfbfbf" points="1323,-0.5 1323,-19.5 1373,-19.5 1373,-0.5 1323,-0.5"/>
<text text-anchor="middle" x="1348" y="-7.5" font-family="serif" font-size="10.00">cctype</text>
</a>
</g>
</g>
<!-- Node9&#45;&gt;Node11 -->
<g id="edge11" class="edge">
<title>Node9&#45;&gt;Node11</title>
<path fill="none" stroke="midnightblue" d="M1252.91,-56.44C1271.25,-47.68 1300.01,-33.94 1321.09,-23.86"/>
<polygon fill="midnightblue" stroke="midnightblue" points="1322.67,-26.99 1330.18,-19.52 1319.65,-20.67 1322.67,-26.99"/>
</g>
<!-- Node12 -->
<g id="node12" class="node">
<title>Node12</title>
<g id="a_node12"><a xlink:title=" ">
<polygon fill="none" stroke="#bfbfbf" points="863.5,-0.5 863.5,-19.5 910.5,-19.5 910.5,-0.5 863.5,-0.5"/>
<text text-anchor="middle" x="887" y="-7.5" font-family="serif" font-size="10.00">cstdio</text>
</a>
</g>
</g>
<!-- Node9&#45;&gt;Node12 -->
<g id="edge12" class="edge">
<title>Node9&#45;&gt;Node12</title>
<path fill="none" stroke="midnightblue" d="M1169.43,-58.04C1107.68,-50.94 1012.46,-38.6 920.72,-19.91"/>
<polygon fill="midnightblue" stroke="midnightblue" points="921.21,-16.44 910.71,-17.84 919.79,-23.29 921.21,-16.44"/>
</g>
<!-- Node13 -->
<g id="node13" class="node">
<title>Node13</title>
<g id="a_node13"><a xlink:title=" ">
<polygon fill="none" stroke="#bfbfbf" points="1535,-0.5 1535,-19.5 1601,-19.5 1601,-0.5 1535,-0.5"/>
<text text-anchor="middle" x="1568" y="-7.5" font-family="serif" font-size="10.00">algorithm</text>
</a>
</g>
</g>
<!-- Node9&#45;&gt;Node13 -->
<g id="edge13" class="edge">
<title>Node9&#45;&gt;Node13</title>
<path fill="none" stroke="midnightblue" d="M1297.05,-56.46C1353.84,-48.41 1440.42,-35.53 1524.58,-20.18"/>
<polygon fill="midnightblue" stroke="midnightblue" points="1525.36,-23.6 1534.56,-18.35 1524.1,-16.71 1525.36,-23.6"/>
</g>
<!-- Node14 -->
<g id="node14" class="node">
<title>Node14</title>
<g id="a_node14"><a xlink:title=" ">
<polygon fill="none" stroke="#bfbfbf" points="1179,-0.5 1179,-19.5 1247,-19.5 1247,-0.5 1179,-0.5"/>
<text text-anchor="middle" x="1213" y="-7.5" font-family="serif" font-size="10.00">filesystem</text>
</a>
</g>
</g>
<!-- Node9&#45;&gt;Node14 -->
<g id="edge14" class="edge">
<title>Node9&#45;&gt;Node14</title>
<path fill="none" stroke="midnightblue" d="M1231.37,-56.08C1228.39,-48.77 1224.07,-38.18 1220.38,-29.1"/>
<polygon fill="midnightblue" stroke="midnightblue" points="1223.58,-27.69 1216.57,-19.75 1217.1,-30.33 1223.58,-27.69"/>
</g>
<!-- Node15 -->
<g id="node15" class="node">
<title>Node15</title>
<g id="a_node15"><a xlink:title=" ">
<polygon fill="none" stroke="#bfbfbf" points="1093,-0.5 1093,-19.5 1161,-19.5 1161,-0.5 1093,-0.5"/>
<text text-anchor="middle" x="1127" y="-7.5" font-family="serif" font-size="10.00">functional</text>
</a>
</g>
</g>
<!-- Node9&#45;&gt;Node15 -->
<g id="edge15" class="edge">
<title>Node9&#45;&gt;Node15</title>
<path fill="none" stroke="midnightblue" d="M1217.65,-56.32C1200.33,-47.66 1173.48,-34.24 1153.5,-24.25"/>
<polygon fill="midnightblue" stroke="midnightblue" points="1154.82,-21 1144.31,-19.65 1151.69,-27.26 1154.82,-21"/>
</g>
<!-- Node16 -->
<g id="node16" class="node">
<title>Node16</title>
<g id="a_node16"><a xlink:title=" ">
<polygon fill="none" stroke="#bfbfbf" points="1391.5,-0.5 1391.5,-19.5 1452.5,-19.5 1452.5,-0.5 1391.5,-0.5"/>
<text text-anchor="middle" x="1422" y="-7.5" font-family="serif" font-size="10.00">iostream</text>
</a>
</g>
</g>
<!-- Node9&#45;&gt;Node16 -->
<g id="edge16" class="edge">
<title>Node9&#45;&gt;Node16</title>
<path fill="none" stroke="midnightblue" d="M1264.63,-56.44C1296.5,-47.24 1347.33,-32.56 1382.56,-22.39"/>
<polygon fill="midnightblue" stroke="midnightblue" points="1383.87,-25.65 1392.51,-19.52 1381.93,-18.93 1383.87,-25.65"/>
</g>
<!-- Node17 -->
<g id="node17" class="node">
<title>Node17</title>
<g id="a_node17"><a xlink:title=" ">
<polygon fill="none" stroke="#bfbfbf" points="1265.5,-0.5 1265.5,-19.5 1304.5,-19.5 1304.5,-0.5 1265.5,-0.5"/>
<text text-anchor="middle" x="1285" y="-7.5" font-family="serif" font-size="10.00">map</text>
</a>
</g>
</g>
<!-- Node9&#45;&gt;Node17 -->
<g id="edge17" class="edge">
<title>Node9&#45;&gt;Node17</title>
<path fill="none" stroke="midnightblue" d="M1243.26,-56.08C1250.46,-48.3 1261.11,-36.8 1269.85,-27.37"/>
<polygon fill="midnightblue" stroke="midnightblue" points="1272.67,-29.47 1276.9,-19.75 1267.53,-24.71 1272.67,-29.47"/>
</g>
<!-- Node18 -->
<g id="node18" class="node">
<title>Node18</title>
<g id="a_node18"><a xlink:title=" ">
<polygon fill="none" stroke="#bfbfbf" points="1619.5,-0.5 1619.5,-19.5 1662.5,-19.5 1662.5,-0.5 1619.5,-0.5"/>
<text text-anchor="middle" x="1641" y="-7.5" font-family="serif" font-size="10.00">tuple</text>
</a>
</g>
</g>
<!-- Node9&#45;&gt;Node18 -->
<g id="edge19" class="edge">
<title>Node9&#45;&gt;Node18</title>
<path fill="none" stroke="midnightblue" d="M1300.7,-57.71C1393.34,-47.34 1556.21,-28.78 1609.53,-19.61"/>
<polygon fill="midnightblue" stroke="midnightblue" points="1610.25,-23.04 1619.43,-17.75 1608.96,-16.16 1610.25,-23.04"/>
</g>
<!-- Node19 -->
<g id="node19" class="node">
<title>Node19</title>
<g id="a_node19"><a xlink:title=" ">
<polygon fill="none" stroke="#bfbfbf" points="1471,-0.5 1471,-19.5 1517,-19.5 1517,-0.5 1471,-0.5"/>
<text text-anchor="middle" x="1494" y="-7.5" font-family="serif" font-size="10.00">utility</text>
</a>
</g>
</g>
<!-- Node9&#45;&gt;Node19 -->
<g id="edge20" class="edge">
<title>Node9&#45;&gt;Node19</title>
<path fill="none" stroke="midnightblue" d="M1283.95,-56.44C1327.92,-48.5 1394.45,-35.85 1461.15,-20.06"/>
<polygon fill="midnightblue" stroke="midnightblue" points="1462.07,-23.44 1470.98,-17.71 1460.44,-16.63 1462.07,-23.44"/>
</g>
<!-- Node20 -->
<g id="node20" class="node">
<title>Node20</title>
<g id="a_node20"><a xlink:title=" ">
<polygon fill="none" stroke="#bfbfbf" points="1681,-0.5 1681,-19.5 1729,-19.5 1729,-0.5 1681,-0.5"/>
<text text-anchor="middle" x="1705" y="-7.5" font-family="serif" font-size="10.00">vector</text>
</a>
</g>
</g>
<!-- Node9&#45;&gt;Node20 -->
<g id="edge21" class="edge">
<title>Node9&#45;&gt;Node20</title>
<path fill="none" stroke="midnightblue" d="M1300.56,-58.21C1307.79,-57.47 1315.05,-56.72 1322,-56 1474.36,-40.28 1516.56,-48.32 1671.1,-19.88"/>
<polygon fill="midnightblue" stroke="midnightblue" points="1671.76,-23.32 1680.95,-18.05 1670.48,-16.44 1671.76,-23.32"/>
</g>
<!-- Node21 -->
<g id="node21" class="node">
<title>Node21</title>
<g id="a_node21"><a xlink:title=" ">
<polygon fill="none" stroke="#bfbfbf" points="928.5,-0.5 928.5,-19.5 997.5,-19.5 997.5,-0.5 928.5,-0.5"/>
<text text-anchor="middle" x="963" y="-7.5" font-family="serif" font-size="10.00">mfem.hpp</text>
</a>
</g>
</g>
<!-- Node9&#45;&gt;Node21 -->
<g id="edge22" class="edge">
<title>Node9&#45;&gt;Node21</title>
<path fill="none" stroke="midnightblue" d="M1191.27,-56.46C1147.42,-47.88 1077.7,-34.18 1007.49,-20.09"/>
<polygon fill="midnightblue" stroke="midnightblue" points="1008.08,-16.64 997.58,-18.1 1006.7,-23.5 1008.08,-16.64"/>
</g>
<!-- Node22&#45;&gt;Node2 -->
<g id="edge30" class="edge">
<title>Node22&#45;&gt;Node2</title>
<path fill="none" stroke="midnightblue" d="M986.2,-57.31C890.49,-46.82 726.46,-28.54 672.68,-19.7"/>
<polygon fill="midnightblue" stroke="midnightblue" points="673.15,-16.23 662.69,-17.92 671.92,-23.12 673.15,-16.23"/>
</g>
<!-- Node22&#45;&gt;Node10 -->
<g id="edge25" class="edge">
<title>Node22&#45;&gt;Node10</title>
<path fill="none" stroke="midnightblue" d="M1055.02,-56.08C1053.43,-48.93 1051.14,-38.64 1049.15,-29.69"/>
<polygon fill="midnightblue" stroke="midnightblue" points="1052.53,-28.75 1046.94,-19.75 1045.7,-30.27 1052.53,-28.75"/>
</g>
<!-- Node22&#45;&gt;Node12 -->
<g id="edge26" class="edge">
<title>Node22&#45;&gt;Node12</title>
<path fill="none" stroke="midnightblue" d="M1030.06,-56.44C1000.33,-47 952.43,-31.78 920.34,-21.59"/>
<polygon fill="midnightblue" stroke="midnightblue" points="921.12,-18.16 910.53,-18.47 919,-24.84 921.12,-18.16"/>
</g>
<!-- Node22&#45;&gt;Node15 -->
<g id="edge28" class="edge">
<title>Node22&#45;&gt;Node15</title>
<path fill="none" stroke="midnightblue" d="M1068.25,-56.32C1078.8,-48.18 1094.8,-35.84 1107.44,-26.09"/>
<polygon fill="midnightblue" stroke="midnightblue" points="1109.77,-28.71 1115.55,-19.83 1105.49,-23.17 1109.77,-28.71"/>
</g>
<!-- Node22&#45;&gt;Node16 -->
<g id="edge29" class="edge">
<title>Node22&#45;&gt;Node16</title>
<path fill="none" stroke="midnightblue" d="M1127.64,-56.95C1191.4,-49.29 1287.97,-36.71 1381.56,-19.94"/>
<polygon fill="midnightblue" stroke="midnightblue" points="1382.26,-23.37 1391.48,-18.14 1381.02,-16.48 1382.26,-23.37"/>
</g>
<!-- Node22&#45;&gt;Node19 -->
<g id="edge31" class="edge">
<title>Node22&#45;&gt;Node19</title>
<path fill="none" stroke="midnightblue" d="M1127.6,-58.56C1221.7,-49.75 1384.32,-33.65 1460.52,-19.95"/>
<polygon fill="midnightblue" stroke="midnightblue" points="1461.51,-23.33 1470.69,-18.03 1460.21,-16.45 1461.51,-23.33"/>
</g>
<!-- Node22&#45;&gt;Node21 -->
<g id="edge32" class="edge">
<title>Node22&#45;&gt;Node21</title>
<path fill="none" stroke="midnightblue" d="M1041.9,-56.32C1027.1,-47.82 1004.31,-34.73 987.02,-24.8"/>
<polygon fill="midnightblue" stroke="midnightblue" points="988.48,-21.6 978.07,-19.65 984.99,-27.67 988.48,-21.6"/>
</g>
<!-- Node23 -->
<g id="node23" class="node">
<title>Node23</title>
<g id="a_node23"><a xlink:title=" ">
<polygon fill="none" stroke="#bfbfbf" points="755,-0.5 755,-19.5 845,-19.5 845,-0.5 755,-0.5"/>
<text text-anchor="middle" x="800" y="-7.5" font-family="serif" font-size="10.00">sys/resource.h</text>
</a>
</g>
</g>
<!-- Node22&#45;&gt;Node23 -->
<g id="edge24" class="edge">
<title>Node22&#45;&gt;Node23</title>
<path fill="none" stroke="midnightblue" d="M1016.28,-56.44C971.35,-47 899,-31.8 850.5,-21.61"/>
<polygon fill="midnightblue" stroke="midnightblue" points="851.04,-18.15 840.53,-19.52 849.6,-25 851.04,-18.15"/>
</g>
<!-- Node24 -->
<g id="node24" class="node">
<title>Node24</title>
<g id="a_node24"><a xlink:title=" ">
<polygon fill="none" stroke="#bfbfbf" points="681,-0.5 681,-19.5 737,-19.5 737,-0.5 681,-0.5"/>
<text text-anchor="middle" x="709" y="-7.5" font-family="serif" font-size="10.00">fstream</text>
</a>
</g>
</g>
<!-- Node22&#45;&gt;Node24 -->
<g id="edge27" class="edge">
<title>Node22&#45;&gt;Node24</title>
<path fill="none" stroke="midnightblue" d="M986.28,-56.71C925.32,-49.12 834.78,-36.79 747.07,-20.06"/>
<polygon fill="midnightblue" stroke="midnightblue" points="747.7,-16.61 737.22,-18.16 746.38,-23.49 747.7,-16.61"/>
</g>
<!-- Node25&#45;&gt;Node2 -->
<g id="edge38" class="edge">
<title>Node25&#45;&gt;Node2</title>
<path fill="none" stroke="midnightblue" d="M1531.71,-56.71C1528.77,-56.45 1525.86,-56.22 1523,-56 1148.84,-27.59 1047.83,-77.28 672.7,-19.69"/>
<polygon fill="midnightblue" stroke="midnightblue" points="673.07,-16.21 662.66,-18.13 672,-23.12 673.07,-16.21"/>
</g>
<!-- Node25&#45;&gt;Node5 -->
<g id="edge41" class="edge">
<title>Node25&#45;&gt;Node5</title>
<path fill="none" stroke="midnightblue" d="M1643.35,-56.44C1689.22,-46.21 1765.45,-29.2 1810.49,-19.15"/>
<polygon fill="midnightblue" stroke="midnightblue" points="1811.42,-22.52 1820.42,-16.93 1809.9,-15.69 1811.42,-22.52"/>
</g>
<!-- Node25&#45;&gt;Node13 -->
<g id="edge34" class="edge">
<title>Node25&#45;&gt;Node13</title>
<path fill="none" stroke="midnightblue" d="M1598.89,-56.08C1593.72,-48.53 1586.15,-37.49 1579.81,-28.23"/>
<polygon fill="midnightblue" stroke="midnightblue" points="1582.54,-26.02 1574,-19.75 1576.76,-29.98 1582.54,-26.02"/>
</g>
<!-- Node25&#45;&gt;Node15 -->
<g id="edge35" class="edge">
<title>Node25&#45;&gt;Node15</title>
<path fill="none" stroke="midnightblue" d="M1531.69,-56.93C1528.75,-56.61 1525.85,-56.3 1523,-56 1369.39,-39.74 1327.54,-44 1171.18,-20.04"/>
<polygon fill="midnightblue" stroke="midnightblue" points="1171.63,-16.57 1161.21,-18.5 1170.56,-23.48 1171.63,-16.57"/>
</g>
<!-- Node25&#45;&gt;Node16 -->
<g id="edge36" class="edge">
<title>Node25&#45;&gt;Node16</title>
<path fill="none" stroke="midnightblue" d="M1576,-56.44C1544.82,-47.24 1495.07,-32.56 1460.59,-22.39"/>
<polygon fill="midnightblue" stroke="midnightblue" points="1461.44,-18.99 1450.86,-19.52 1459.46,-25.7 1461.44,-18.99"/>
</g>
<!-- Node25&#45;&gt;Node18 -->
<g id="edge39" class="edge">
<title>Node25&#45;&gt;Node18</title>
<path fill="none" stroke="midnightblue" d="M1610.94,-56.08C1615.98,-48.53 1623.34,-37.49 1629.51,-28.23"/>
<polygon fill="midnightblue" stroke="midnightblue" points="1632.53,-30.01 1635.17,-19.75 1626.71,-26.13 1632.53,-30.01"/>
</g>
<!-- Node25&#45;&gt;Node19 -->
<g id="edge40" class="edge">
<title>Node25&#45;&gt;Node19</title>
<path fill="none" stroke="midnightblue" d="M1587.17,-56.32C1569.28,-47.62 1541.52,-34.12 1520.95,-24.11"/>
<polygon fill="midnightblue" stroke="midnightblue" points="1522.31,-20.88 1511.79,-19.65 1519.25,-27.18 1522.31,-20.88"/>
</g>
<!-- Node25&#45;&gt;Node20 -->
<g id="edge42" class="edge">
<title>Node25&#45;&gt;Node20</title>
<path fill="none" stroke="midnightblue" d="M1621.07,-56.32C1636.96,-47.74 1661.51,-34.49 1679.96,-24.52"/>
<polygon fill="midnightblue" stroke="midnightblue" points="1681.84,-27.49 1688.97,-19.65 1678.51,-21.33 1681.84,-27.49"/>
</g>
<!-- Node26 -->
<g id="node26" class="node">
<title>Node26</title>
<g id="a_node26"><a xlink:title=" ">
<polygon fill="none" stroke="#bfbfbf" points="1747,-0.5 1747,-19.5 1791,-19.5 1791,-0.5 1747,-0.5"/>
<text text-anchor="middle" x="1769" y="-7.5" font-family="serif" font-size="10.00">limits</text>
</a>
</g>
</g>
<!-- Node25&#45;&gt;Node26 -->
<g id="edge37" class="edge">
<title>Node25&#45;&gt;Node26</title>
<path fill="none" stroke="midnightblue" d="M1630.99,-56.44C1659.71,-46.99 1706.01,-31.74 1736.96,-21.55"/>
<polygon fill="midnightblue" stroke="midnightblue" points="1738.41,-24.76 1746.82,-18.3 1736.22,-18.11 1738.41,-24.76"/>
</g>
<!-- Node27&#45;&gt;Node2 -->
<g id="edge47" class="edge">
<title>Node27&#45;&gt;Node2</title>
<path fill="none" stroke="midnightblue" d="M1330.33,-57.45C1323.45,-56.94 1316.62,-56.45 1310,-56 1029.98,-36.85 954.09,-64.94 672.76,-19.73"/>
<polygon fill="midnightblue" stroke="midnightblue" points="673.09,-16.24 662.66,-18.09 671.97,-23.15 673.09,-16.24"/>
</g>
<!-- Node27&#45;&gt;Node13 -->
<g id="edge44" class="edge">
<title>Node27&#45;&gt;Node13</title>
<path fill="none" stroke="midnightblue" d="M1445.13,-56.44C1469.48,-47.44 1508.01,-33.19 1535.42,-23.05"/>
<polygon fill="midnightblue" stroke="midnightblue" points="1536.81,-26.27 1544.97,-19.52 1534.38,-19.7 1536.81,-26.27"/>
</g>
<!-- Node27&#45;&gt;Node16 -->
<g id="edge45" class="edge">
<title>Node27&#45;&gt;Node16</title>
<path fill="none" stroke="midnightblue" d="M1422,-56.08C1422,-49.01 1422,-38.86 1422,-29.99"/>
<polygon fill="midnightblue" stroke="midnightblue" points="1425.5,-29.75 1422,-19.75 1418.5,-29.75 1425.5,-29.75"/>
</g>
<!-- Node27&#45;&gt;Node19 -->
<g id="edge48" class="edge">
<title>Node27&#45;&gt;Node19</title>
<path fill="none" stroke="midnightblue" d="M1433.57,-56.32C1444.42,-48.18 1460.88,-35.84 1473.88,-26.09"/>
<polygon fill="midnightblue" stroke="midnightblue" points="1476.32,-28.63 1482.22,-19.83 1472.12,-23.03 1476.32,-28.63"/>
</g>
<!-- Node27&#45;&gt;Node20 -->
<g id="edge49" class="edge">
<title>Node27&#45;&gt;Node20</title>
<path fill="none" stroke="midnightblue" d="M1477.39,-56.47C1525.96,-48.66 1598.65,-36.2 1670.74,-20.12"/>
<polygon fill="midnightblue" stroke="midnightblue" points="1671.93,-23.45 1680.91,-17.83 1670.39,-16.62 1671.93,-23.45"/>
</g>
<!-- Node27&#45;&gt;Node26 -->
<g id="edge46" class="edge">
<title>Node27&#45;&gt;Node26</title>
<path fill="none" stroke="midnightblue" d="M1504.4,-56.49C1566.06,-49.38 1652.56,-37.83 1736.76,-20.01"/>
<polygon fill="midnightblue" stroke="midnightblue" points="1737.7,-23.39 1746.74,-17.87 1736.23,-16.55 1737.7,-23.39"/>
</g>
<!-- Node28&#45;&gt;Node3 -->
<g id="edge52" class="edge">
<title>Node28&#45;&gt;Node3</title>
<path fill="none" stroke="midnightblue" d="M1963.78,-56.32C1978.27,-47.82 2000.57,-34.73 2017.49,-24.8"/>
<polygon fill="midnightblue" stroke="midnightblue" points="2019.4,-27.74 2026.26,-19.65 2015.86,-21.7 2019.4,-27.74"/>
</g>
<!-- Node28&#45;&gt;Node5 -->
<g id="edge53" class="edge">
<title>Node28&#45;&gt;Node5</title>
<path fill="none" stroke="midnightblue" d="M1932.61,-56.32C1916.33,-47.7 1891.13,-34.36 1872.28,-24.39"/>
<polygon fill="midnightblue" stroke="midnightblue" points="1873.82,-21.24 1863.35,-19.65 1870.55,-27.43 1873.82,-21.24"/>
</g>
<!-- Node29 -->
<g id="node29" class="node">
<title>Node29</title>
<g id="a_node29"><a xlink:title=" ">
<polygon fill="none" stroke="#bfbfbf" points="1919.5,-0.5 1919.5,-19.5 1978.5,-19.5 1978.5,-0.5 1919.5,-0.5"/>
<text text-anchor="middle" x="1949" y="-7.5" font-family="serif" font-size="10.00">memory</text>
</a>
</g>
</g>
<!-- Node28&#45;&gt;Node29 -->
<g id="edge51" class="edge">
<title>Node28&#45;&gt;Node29</title>
<path fill="none" stroke="midnightblue" d="M1949,-56.08C1949,-49.01 1949,-38.86 1949,-29.99"/>
<polygon fill="midnightblue" stroke="midnightblue" points="1952.5,-29.75 1949,-19.75 1945.5,-29.75 1952.5,-29.75"/>
</g>
<!-- Node30&#45;&gt;Node2 -->
<g id="edge56" class="edge">
<title>Node30&#45;&gt;Node2</title>
<path fill="none" stroke="midnightblue" d="M1709.97,-173.99C1532.77,-150.79 1049.83,-87.36 978,-76 844.64,-54.9 808.49,-50.85 672.69,-20"/>
<polygon fill="midnightblue" stroke="midnightblue" points="673.26,-16.54 662.73,-17.73 671.7,-23.37 673.26,-16.54"/>
</g>
<!-- Node30&#45;&gt;Node8 -->
<g id="edge58" class="edge">
<title>Node30&#45;&gt;Node8</title>
<path fill="none" stroke="midnightblue" d="M1723.5,-173.98C1708.83,-171.77 1692.82,-169.58 1678,-168 1429.12,-141.47 1364.84,-158.9 1116,-132 1114.7,-131.86 1113.38,-131.71 1112.05,-131.55"/>
<polygon fill="midnightblue" stroke="midnightblue" points="1112.09,-128.03 1101.72,-130.24 1111.2,-134.98 1112.09,-128.03"/>
</g>
<!-- Node30&#45;&gt;Node20 -->
<g id="edge57" class="edge">
<title>Node30&#45;&gt;Node20</title>
<path fill="none" stroke="midnightblue" d="M1771.43,-173.76C1760.48,-146.92 1727.17,-65.32 1712.3,-28.89"/>
<polygon fill="midnightblue" stroke="midnightblue" points="1715.5,-27.46 1708.48,-19.52 1709.02,-30.1 1715.5,-27.46"/>
</g>
<!-- Node30&#45;&gt;Node26 -->
<g id="edge55" class="edge">
<title>Node30&#45;&gt;Node26</title>
<path fill="none" stroke="midnightblue" d="M1774.69,-173.76C1773.76,-147.15 1770.95,-66.71 1769.66,-29.84"/>
<polygon fill="midnightblue" stroke="midnightblue" points="1773.15,-29.39 1769.3,-19.52 1766.15,-29.64 1773.15,-29.39"/>
</g>
<!-- Node31&#45;&gt;Node8 -->
<g id="edge60" class="edge">
<title>Node31&#45;&gt;Node8</title>
<path fill="none" stroke="midnightblue" d="M1011.59,-173.98C1019.7,-164.87 1032.73,-150.24 1042.76,-138.98"/>
<polygon fill="midnightblue" stroke="midnightblue" points="1045.38,-141.3 1049.42,-131.51 1040.16,-136.65 1045.38,-141.3"/>
</g>
<!-- Node32&#45;&gt;Node8 -->
<g id="edge62" class="edge">
<title>Node32&#45;&gt;Node8</title>
<path fill="none" stroke="midnightblue" d="M1176.08,-173.98C1152.55,-163.9 1113.19,-147.05 1086.21,-135.5"/>
<polygon fill="midnightblue" stroke="midnightblue" points="1087.45,-132.23 1076.88,-131.51 1084.69,-138.66 1087.45,-132.23"/>
</g>
<!-- Node33&#45;&gt;Node2 -->
<g id="edge64" class="edge">
<title>Node33&#45;&gt;Node2</title>
<path fill="none" stroke="midnightblue" d="M629.82,-168.47C631.61,-137.7 635.89,-64.33 637.91,-29.7"/>
<polygon fill="midnightblue" stroke="midnightblue" points="641.41,-29.75 638.5,-19.56 634.42,-29.34 641.41,-29.75"/>
</g>
<!-- Node33&#45;&gt;Node8 -->
<g id="edge65" class="edge">
<title>Node33&#45;&gt;Node8</title>
<path fill="none" stroke="midnightblue" d="M713.54,-169.38C716.73,-168.91 719.89,-168.45 723,-168 821.26,-153.8 935.99,-138.66 1002.19,-130.06"/>
<polygon fill="midnightblue" stroke="midnightblue" points="1002.93,-133.49 1012.39,-128.73 1002.02,-126.55 1002.93,-133.49"/>
</g>
<!-- Node34&#45;&gt;Node8 -->
<g id="edge67" class="edge">
<title>Node34&#45;&gt;Node8</title>
<path fill="none" stroke="midnightblue" d="M1304.63,-168.47C1245.4,-157.6 1164.73,-142.78 1111.79,-133.06"/>
<polygon fill="midnightblue" stroke="midnightblue" points="1112.38,-129.61 1101.91,-131.25 1111.12,-136.5 1112.38,-129.61"/>
</g>
<!-- Node35&#45;&gt;Node2 -->
<g id="edge69" class="edge">
<title>Node35&#45;&gt;Node2</title>
<path fill="none" stroke="midnightblue" d="M807.93,-173.76C779.47,-146.35 691.72,-61.79 655.2,-26.61"/>
<polygon fill="midnightblue" stroke="midnightblue" points="657.47,-23.94 647.84,-19.52 652.62,-28.98 657.47,-23.94"/>
</g>
<!-- Node35&#45;&gt;Node8 -->
<g id="edge70" class="edge">
<title>Node35&#45;&gt;Node8</title>
<path fill="none" stroke="midnightblue" d="M851.39,-173.98C893.89,-163.44 966.3,-145.49 1012.87,-133.94"/>
<polygon fill="midnightblue" stroke="midnightblue" points="1013.81,-137.31 1022.68,-131.51 1012.13,-130.52 1013.81,-137.31"/>
</g>
<!-- Node36&#45;&gt;Node8 -->
<g id="edge72" class="edge">
<title>Node36&#45;&gt;Node8</title>
<path fill="none" stroke="midnightblue" d="M1506.65,-173.92C1493.76,-171.83 1479.88,-169.71 1467,-168 1311.54,-147.38 1271.56,-151.83 1116,-132 1114.7,-131.83 1113.38,-131.66 1112.06,-131.49"/>
<polygon fill="midnightblue" stroke="midnightblue" points="1112.13,-127.96 1101.75,-130.06 1111.17,-134.9 1112.13,-127.96"/>
</g>
<!-- Node37&#45;&gt;Node2 -->
<g id="edge74" class="edge">
<title>Node37&#45;&gt;Node2</title>
<path fill="none" stroke="midnightblue" d="M298.75,-174C356.97,-146.11 542.31,-57.32 612.09,-23.89"/>
<polygon fill="midnightblue" stroke="midnightblue" points="613.63,-27.03 621.14,-19.56 610.61,-20.72 613.63,-27.03"/>
</g>
<!-- Node37&#45;&gt;Node8 -->
<g id="edge75" class="edge">
<title>Node37&#45;&gt;Node8</title>
<path fill="none" stroke="midnightblue" d="M327.46,-173.97C340.83,-171.75 355.46,-169.55 369,-168 603.62,-141.06 885.25,-128.92 1002.07,-124.76"/>
<polygon fill="midnightblue" stroke="midnightblue" points="1002.32,-128.26 1012.19,-124.41 1002.07,-121.26 1002.32,-128.26"/>
</g>
<!-- Node38&#45;&gt;Node2 -->
<g id="edge77" class="edge">
<title>Node38&#45;&gt;Node2</title>
<path fill="none" stroke="midnightblue" d="M461.27,-174C490.87,-146.85 583.39,-62 621.91,-26.67"/>
<polygon fill="midnightblue" stroke="midnightblue" points="624.67,-28.89 629.67,-19.56 619.94,-23.74 624.67,-28.89"/>
</g>
<!-- Node38&#45;&gt;Node8 -->
<g id="edge78" class="edge">
<title>Node38&#45;&gt;Node8</title>
<path fill="none" stroke="midnightblue" d="M497.23,-173.97C509.76,-171.8 523.38,-169.63 536,-168 705.23,-146.13 906.81,-132.11 1002.01,-126.21"/>
<polygon fill="midnightblue" stroke="midnightblue" points="1002.49,-129.69 1012.26,-125.58 1002.06,-122.7 1002.49,-129.69"/>
</g>
</g>
</svg>
