<?xml version="1.0" encoding="UTF-8" standalone="no"?>
<!DOCTYPE svg PUBLIC "-//W3C//DTD SVG 1.1//EN"
 "http://www.w3.org/Graphics/SVG/1.1/DTD/svg11.dtd">
<!-- Generated by graphviz version 2.43.0 (0)
 -->
<!-- Title: Parameters.hpp Pages: 1 -->
<svg width="2458pt" height="375pt"
 viewBox="0.00 0.00 2458.00 375.00" xmlns="http://www.w3.org/2000/svg" xmlns:xlink="http://www.w3.org/1999/xlink">
<g id="graph0" class="graph" transform="scale(1 1) rotate(0) translate(4 371)">
<title>Parameters.hpp</title>
<!-- Node1 -->
<g id="node1" class="node">
<title>Node1</title>
<g id="a_node1"><a xlink:title="Parameter class used to build and manage calculation parameter.">
<polygon fill="#bfbfbf" stroke="black" points="439,-347.5 439,-366.5 537,-366.5 537,-347.5 439,-347.5"/>
<text text-anchor="middle" x="488" y="-354.5" font-family="serif" font-size="10.00">Parameters.hpp</text>
</a>
</g>
</g>
<!-- Node2 -->
<g id="node2" class="node">
<title>Node2</title>
<g id="a_node2"><a xlink:title=" ">
<polygon fill="none" stroke="#bfbfbf" points="594,-0.5 594,-19.5 660,-19.5 660,-0.5 594,-0.5"/>
<text text-anchor="middle" x="627" y="-7.5" font-family="serif" font-size="10.00">algorithm</text>
</a>
</g>
</g>
<!-- Node1&#45;&gt;Node2 -->
<g id="edge1" class="edge">
<title>Node1&#45;&gt;Node2</title>
<path fill="none" stroke="midnightblue" d="M438.96,-351.15C388.89,-345.07 316.14,-332.7 299,-311 293.49,-304.02 297.67,-299.79 299,-291 307.54,-234.42 300.71,-212.23 337,-168 403.19,-87.34 522.11,-41.95 585.14,-22.5"/>
<polygon fill="midnightblue" stroke="midnightblue" points="586.2,-25.84 594.76,-19.6 584.18,-19.13 586.2,-25.84"/>
</g>
<!-- Node3 -->
<g id="node3" class="node">
<title>Node3</title>
<g id="a_node3"><a xlink:title=" ">
<polygon fill="none" stroke="#bfbfbf" points="2288.5,-291.5 2288.5,-310.5 2323.5,-310.5 2323.5,-291.5 2288.5,-291.5"/>
<text text-anchor="middle" x="2306" y="-298.5" font-family="serif" font-size="10.00">any</text>
</a>
</g>
</g>
<!-- Node1&#45;&gt;Node3 -->
<g id="edge2" class="edge">
<title>Node1&#45;&gt;Node3</title>
<path fill="none" stroke="midnightblue" d="M537.11,-355.49C806.42,-352.61 2098.32,-337.49 2274,-311 2275.46,-310.78 2276.95,-310.51 2278.45,-310.21"/>
<polygon fill="midnightblue" stroke="midnightblue" points="2279.34,-313.6 2288.23,-307.84 2277.69,-306.8 2279.34,-313.6"/>
</g>
<!-- Node4 -->
<g id="node4" class="node">
<title>Node4</title>
<g id="a_node4"><a xlink:title=" ">
<polygon fill="none" stroke="#bfbfbf" points="353,-0.5 353,-19.5 397,-19.5 397,-0.5 353,-0.5"/>
<text text-anchor="middle" x="375" y="-7.5" font-family="serif" font-size="10.00">limits</text>
</a>
</g>
</g>
<!-- Node1&#45;&gt;Node4 -->
<g id="edge3" class="edge">
<title>Node1&#45;&gt;Node4</title>
<path fill="none" stroke="midnightblue" d="M438.7,-351.34C340.1,-340.66 128,-310.21 128,-246 128,-246 128,-246 128,-182.5 128,-129.86 281.25,-53.74 346.33,-23.79"/>
<polygon fill="midnightblue" stroke="midnightblue" points="347.97,-26.89 355.62,-19.55 345.07,-20.52 347.97,-26.89"/>
</g>
<!-- Node5 -->
<g id="node5" class="node">
<title>Node5</title>
<g id="a_node5"><a xlink:title=" ">
<polygon fill="none" stroke="#bfbfbf" points="452.5,-0.5 452.5,-19.5 491.5,-19.5 491.5,-0.5 452.5,-0.5"/>
<text text-anchor="middle" x="472" y="-7.5" font-family="serif" font-size="10.00">map</text>
</a>
</g>
</g>
<!-- Node1&#45;&gt;Node5 -->
<g id="edge4" class="edge">
<title>Node1&#45;&gt;Node5</title>
<path fill="none" stroke="midnightblue" d="M438.89,-353.1C380.26,-348.5 287.41,-337.18 266,-311 209,-241.29 241.58,-176.89 304,-112 344.65,-69.74 406.68,-38.61 442.9,-22.78"/>
<polygon fill="midnightblue" stroke="midnightblue" points="444.58,-25.87 452.4,-18.72 441.82,-19.43 444.58,-25.87"/>
</g>
<!-- Node6 -->
<g id="node6" class="node">
<title>Node6</title>
<g id="a_node6"><a xlink:title=" ">
<polygon fill="none" stroke="#bfbfbf" points="2342,-291.5 2342,-310.5 2400,-310.5 2400,-291.5 2342,-291.5"/>
<text text-anchor="middle" x="2371" y="-298.5" font-family="serif" font-size="10.00">optional</text>
</a>
</g>
</g>
<!-- Node1&#45;&gt;Node6 -->
<g id="edge5" class="edge">
<title>Node1&#45;&gt;Node6</title>
<path fill="none" stroke="midnightblue" d="M537.22,-356.18C790.62,-356.93 1950.5,-357.73 2331.7,-310.85"/>
<polygon fill="midnightblue" stroke="midnightblue" points="2332.17,-314.31 2341.65,-309.59 2331.29,-307.37 2332.17,-314.31"/>
</g>
<!-- Node7 -->
<g id="node7" class="node">
<title>Node7</title>
<g id="a_node7"><a xlink:title=" ">
<polygon fill="none" stroke="#bfbfbf" points="2418,-291.5 2418,-310.5 2450,-310.5 2450,-291.5 2418,-291.5"/>
<text text-anchor="middle" x="2434" y="-298.5" font-family="serif" font-size="10.00">set</text>
</a>
</g>
</g>
<!-- Node1&#45;&gt;Node7 -->
<g id="edge6" class="edge">
<title>Node1&#45;&gt;Node7</title>
<path fill="none" stroke="midnightblue" d="M537.13,-355.79C814.17,-354.5 2176.8,-346.46 2407.67,-310.42"/>
<polygon fill="midnightblue" stroke="midnightblue" points="2408.54,-313.82 2417.8,-308.68 2407.36,-306.92 2408.54,-313.82"/>
</g>
<!-- Node8 -->
<g id="node8" class="node">
<title>Node8</title>
<g id="a_node8"><a xlink:title=" ">
<polygon fill="none" stroke="#bfbfbf" points="1536.5,-0.5 1536.5,-19.5 1583.5,-19.5 1583.5,-0.5 1536.5,-0.5"/>
<text text-anchor="middle" x="1560" y="-7.5" font-family="serif" font-size="10.00">string</text>
</a>
</g>
</g>
<!-- Node1&#45;&gt;Node8 -->
<g id="edge7" class="edge">
<title>Node1&#45;&gt;Node8</title>
<path fill="none" stroke="midnightblue" d="M537.31,-355.25C735.22,-352.07 1472.33,-338.6 1704,-311 1828.29,-296.19 1857.39,-280.15 1980,-255 2113.75,-227.56 2279,-321.03 2279,-184.5 2279,-184.5 2279,-184.5 2279,-121 2279,-42.18 2190.78,-73.83 2114,-56 1920.9,-11.16 1680.96,-9.31 1593.71,-10.33"/>
<polygon fill="midnightblue" stroke="midnightblue" points="1593.55,-6.83 1583.6,-10.46 1593.65,-13.83 1593.55,-6.83"/>
</g>
<!-- Node9 -->
<g id="node9" class="node">
<title>Node9</title>
<g id="a_node9"><a xlink:title=" ">
<polygon fill="none" stroke="#bfbfbf" points="2.5,-0.5 2.5,-19.5 73.5,-19.5 73.5,-0.5 2.5,-0.5"/>
<text text-anchor="middle" x="38" y="-7.5" font-family="serif" font-size="10.00">type_traits</text>
</a>
</g>
</g>
<!-- Node1&#45;&gt;Node9 -->
<g id="edge8" class="edge">
<title>Node1&#45;&gt;Node9</title>
<path fill="none" stroke="midnightblue" d="M438.97,-355.28C315.22,-352.13 0,-335.34 0,-246 0,-246 0,-246 0,-121 0,-86.81 16.6,-49.76 27.86,-28.57"/>
<polygon fill="midnightblue" stroke="midnightblue" points="30.95,-30.22 32.72,-19.77 24.82,-26.83 30.95,-30.22"/>
</g>
<!-- Node10 -->
<g id="node10" class="node">
<title>Node10</title>
<g id="a_node10"><a xlink:title=" ">
<polygon fill="none" stroke="#bfbfbf" points="740,-0.5 740,-19.5 786,-19.5 786,-0.5 740,-0.5"/>
<text text-anchor="middle" x="763" y="-7.5" font-family="serif" font-size="10.00">utility</text>
</a>
</g>
</g>
<!-- Node1&#45;&gt;Node10 -->
<g id="edge9" class="edge">
<title>Node1&#45;&gt;Node10</title>
<path fill="none" stroke="midnightblue" d="M537.25,-355.3C804.21,-350.99 2070.01,-324.03 2184,-199 2367.73,2.52 1225.49,-149.93 963,-76 944.25,-70.72 942.14,-63.1 924,-56 871.38,-35.41 854.07,-35.94 795.79,-20.17"/>
<polygon fill="midnightblue" stroke="midnightblue" points="796.64,-16.78 786.07,-17.49 794.78,-23.52 796.64,-16.78"/>
</g>
<!-- Node11 -->
<g id="node11" class="node">
<title>Node11</title>
<g id="a_node11"><a xlink:title=" ">
<polygon fill="none" stroke="#bfbfbf" points="528,-0.5 528,-19.5 576,-19.5 576,-0.5 528,-0.5"/>
<text text-anchor="middle" x="552" y="-7.5" font-family="serif" font-size="10.00">vector</text>
</a>
</g>
</g>
<!-- Node1&#45;&gt;Node11 -->
<g id="edge10" class="edge">
<title>Node1&#45;&gt;Node11</title>
<path fill="none" stroke="midnightblue" d="M486.61,-347.15C484.32,-334.21 478.98,-309.66 469,-291 453.67,-262.35 448.13,-254.32 422,-235 389.01,-210.61 359.66,-233.2 337,-199 329.39,-187.51 330.76,-180.28 337,-168 375.47,-92.28 469.48,-44.37 519.48,-23.36"/>
<polygon fill="midnightblue" stroke="midnightblue" points="520.94,-26.55 528.87,-19.52 518.29,-20.07 520.94,-26.55"/>
</g>
<!-- Node12 -->
<g id="node12" class="node">
<title>Node12</title>
<g id="a_node12"><a xlink:href="Parameter_8hpp.html" target="_top" xlink:title="Parameter class.">
<polygon fill="none" stroke="black" points="308,-291.5 308,-310.5 460,-310.5 460,-291.5 308,-291.5"/>
<text text-anchor="middle" x="384" y="-298.5" font-family="serif" font-size="10.00">Parameters/Parameter.hpp</text>
</a>
</g>
</g>
<!-- Node1&#45;&gt;Node12 -->
<g id="edge11" class="edge">
<title>Node1&#45;&gt;Node12</title>
<path fill="none" stroke="midnightblue" d="M471.29,-347.32C454.69,-338.7 429,-325.36 409.78,-315.39"/>
<polygon fill="midnightblue" stroke="midnightblue" points="411.16,-312.16 400.67,-310.65 407.93,-318.37 411.16,-312.16"/>
</g>
<!-- Node12&#45;&gt;Node8 -->
<g id="edge12" class="edge">
<title>Node12&#45;&gt;Node8</title>
<path fill="none" stroke="midnightblue" d="M460.26,-299.31C809.7,-295.68 2241,-275.25 2241,-184.5 2241,-184.5 2241,-184.5 2241,-121 2241,-54.75 1732.3,-20.85 1594.22,-12.87"/>
<polygon fill="midnightblue" stroke="midnightblue" points="1594.02,-9.35 1583.84,-12.28 1593.62,-16.34 1594.02,-9.35"/>
</g>
<!-- Node12&#45;&gt;Node9 -->
<g id="edge13" class="edge">
<title>Node12&#45;&gt;Node9</title>
<path fill="none" stroke="midnightblue" d="M362.26,-291.37C303.59,-266.97 140.81,-191.6 57,-76 47.19,-62.47 42.41,-43.91 40.11,-30.09"/>
<polygon fill="midnightblue" stroke="midnightblue" points="43.52,-29.24 38.7,-19.81 36.59,-30.19 43.52,-29.24"/>
</g>
<!-- Node13 -->
<g id="node13" class="node">
<title>Node13</title>
<g id="a_node13"><a xlink:title=" ">
<polygon fill="none" stroke="#bfbfbf" points="354.5,-235.5 354.5,-254.5 413.5,-254.5 413.5,-235.5 354.5,-235.5"/>
<text text-anchor="middle" x="384" y="-242.5" font-family="serif" font-size="10.00">typeinfo</text>
</a>
</g>
</g>
<!-- Node12&#45;&gt;Node13 -->
<g id="edge14" class="edge">
<title>Node12&#45;&gt;Node13</title>
<path fill="none" stroke="midnightblue" d="M384,-291.08C384,-284.01 384,-273.86 384,-264.99"/>
<polygon fill="midnightblue" stroke="midnightblue" points="387.5,-264.75 384,-254.75 380.5,-264.75 387.5,-264.75"/>
</g>
<!-- Node14 -->
<g id="node14" class="node">
<title>Node14</title>
<g id="a_node14"><a xlink:title=" ">
<polygon fill="none" stroke="#bfbfbf" points="215.5,-0.5 215.5,-19.5 268.5,-19.5 268.5,-0.5 215.5,-0.5"/>
<text text-anchor="middle" x="242" y="-7.5" font-family="serif" font-size="10.00">variant</text>
</a>
</g>
</g>
<!-- Node12&#45;&gt;Node14 -->
<g id="edge15" class="edge">
<title>Node12&#45;&gt;Node14</title>
<path fill="none" stroke="midnightblue" d="M376.01,-291.22C367.97,-282.28 355.31,-267.93 345,-255 325.77,-230.88 318.11,-226.43 304,-199 273.91,-140.52 254.16,-64.42 246.11,-29.72"/>
<polygon fill="midnightblue" stroke="midnightblue" points="249.44,-28.6 243.82,-19.62 242.61,-30.15 249.44,-28.6"/>
</g>
<!-- Node15 -->
<g id="node15" class="node">
<title>Node15</title>
<g id="a_node15"><a xlink:href="Options_8hpp.html" target="_top" xlink:title="List of all Options files.">
<polygon fill="none" stroke="black" points="1056,-235.5 1056,-254.5 1178,-254.5 1178,-235.5 1056,-235.5"/>
<text text-anchor="middle" x="1117" y="-242.5" font-family="serif" font-size="10.00">Options/Options.hpp</text>
</a>
</g>
</g>
<!-- Node12&#45;&gt;Node15 -->
<g id="edge16" class="edge">
<title>Node12&#45;&gt;Node15</title>
<path fill="none" stroke="midnightblue" d="M460.03,-294.4C602.41,-283.91 907.35,-261.44 1045.89,-251.24"/>
<polygon fill="midnightblue" stroke="midnightblue" points="1046.26,-254.72 1055.97,-250.5 1045.74,-247.74 1046.26,-254.72"/>
</g>
<!-- Node16 -->
<g id="node16" class="node">
<title>Node16</title>
<g id="a_node16"><a xlink:href="AnalyticalFunctionOptions_8hpp.html" target="_top" xlink:title="Options for Analytical functions.">
<polygon fill="none" stroke="black" points="1302.5,-168.5 1302.5,-198.5 1457.5,-198.5 1457.5,-168.5 1302.5,-168.5"/>
<text text-anchor="start" x="1310.5" y="-186.5" font-family="serif" font-size="10.00">Options/AnalyticalFunction</text>
<text text-anchor="middle" x="1380" y="-175.5" font-family="serif" font-size="10.00">Options.hpp</text>
</a>
</g>
</g>
<!-- Node15&#45;&gt;Node16 -->
<g id="edge17" class="edge">
<title>Node15&#45;&gt;Node16</title>
<path fill="none" stroke="midnightblue" d="M1154.68,-235.48C1194.55,-226.46 1258.41,-212.01 1307.99,-200.79"/>
<polygon fill="midnightblue" stroke="midnightblue" points="1309.03,-204.14 1318.02,-198.52 1307.49,-197.32 1309.03,-204.14"/>
</g>
<!-- Node17 -->
<g id="node17" class="node">
<title>Node17</title>
<g id="a_node17"><a xlink:href="Utils_8hpp.html" target="_top" xlink:title="List of all Utils files.">
<polygon fill="none" stroke="black" points="1146.5,-112.5 1146.5,-131.5 1235.5,-131.5 1235.5,-112.5 1146.5,-112.5"/>
<text text-anchor="middle" x="1191" y="-119.5" font-family="serif" font-size="10.00">Utils/Utils.hpp</text>
</a>
</g>
</g>
<!-- Node15&#45;&gt;Node17 -->
<g id="edge90" class="edge">
<title>Node15&#45;&gt;Node17</title>
<path fill="none" stroke="midnightblue" d="M1055.9,-243.64C918.03,-242.18 592.16,-234.94 559,-199 549.66,-188.87 549.57,-178.04 559,-168 602.67,-121.5 1068.57,-138.82 1132,-132 1133.3,-131.86 1134.62,-131.71 1135.95,-131.56"/>
<polygon fill="midnightblue" stroke="midnightblue" points="1136.8,-134.98 1146.28,-130.25 1135.92,-128.03 1136.8,-134.98"/>
</g>
<!-- Node34 -->
<g id="node34" class="node">
<title>Node34</title>
<g id="a_node34"><a xlink:href="CalphadOptions_8hpp.html" target="_top" xlink:title="Options for Calphad problems.">
<polygon fill="none" stroke="black" points="346.5,-174 346.5,-193 511.5,-193 511.5,-174 346.5,-174"/>
<text text-anchor="middle" x="429" y="-181" font-family="serif" font-size="10.00">Options/CalphadOptions.hpp</text>
</a>
</g>
</g>
<!-- Node15&#45;&gt;Node34 -->
<g id="edge65" class="edge">
<title>Node15&#45;&gt;Node34</title>
<path fill="none" stroke="midnightblue" d="M1055.6,-240.79C948.07,-234.85 718.75,-220.72 526,-199 514.75,-197.73 502.79,-196.14 491.26,-194.49"/>
<polygon fill="midnightblue" stroke="midnightblue" points="491.67,-191.01 481.26,-193.02 490.65,-197.94 491.67,-191.01"/>
</g>
<!-- Node35 -->
<g id="node35" class="node">
<title>Node35</title>
<g id="a_node35"><a xlink:href="DiffusionOptions_8hpp.html" target="_top" xlink:title="Option for Mass Diffusion problems.">
<polygon fill="none" stroke="black" points="568,-174 568,-193 736,-193 736,-174 568,-174"/>
<text text-anchor="middle" x="652" y="-181" font-family="serif" font-size="10.00">Options/DiffusionOptions.hpp</text>
</a>
</g>
</g>
<!-- Node15&#45;&gt;Node35 -->
<g id="edge70" class="edge">
<title>Node15&#45;&gt;Node35</title>
<path fill="none" stroke="midnightblue" d="M1055.7,-237.24C981.89,-228.94 854.23,-214.12 745,-199 735.17,-197.64 724.76,-196.11 714.61,-194.56"/>
<polygon fill="midnightblue" stroke="midnightblue" points="715,-191.08 704.58,-193.02 713.93,-198 715,-191.08"/>
</g>
<!-- Node36 -->
<g id="node36" class="node">
<title>Node36</title>
<g id="a_node36"><a xlink:href="PhaseFieldOptions_8hpp.html" target="_top" xlink:title="Options for PhaseField problems.">
<polygon fill="none" stroke="black" points="754.5,-174 754.5,-193 933.5,-193 933.5,-174 754.5,-174"/>
<text text-anchor="middle" x="844" y="-181" font-family="serif" font-size="10.00">Options/PhaseFieldOptions.hpp</text>
</a>
</g>
</g>
<!-- Node15&#45;&gt;Node36 -->
<g id="edge72" class="edge">
<title>Node15&#45;&gt;Node36</title>
<path fill="none" stroke="midnightblue" d="M1077.89,-235.48C1029.13,-224.85 945.79,-206.68 892.88,-195.15"/>
<polygon fill="midnightblue" stroke="midnightblue" points="893.56,-191.72 883.04,-193.01 892.07,-198.56 893.56,-191.72"/>
</g>
<!-- Node37 -->
<g id="node37" class="node">
<title>Node37</title>
<g id="a_node37"><a xlink:href="PhysicalConvergenceOptions_8hpp.html" target="_top" xlink:title="Options for PhysicalConvergence objects.">
<polygon fill="none" stroke="black" points="1475.5,-168.5 1475.5,-198.5 1644.5,-198.5 1644.5,-168.5 1475.5,-168.5"/>
<text text-anchor="start" x="1483.5" y="-186.5" font-family="serif" font-size="10.00">Options/PhysicalConvergence</text>
<text text-anchor="middle" x="1560" y="-175.5" font-family="serif" font-size="10.00">Options.hpp</text>
</a>
</g>
</g>
<!-- Node15&#45;&gt;Node37 -->
<g id="edge74" class="edge">
<title>Node15&#45;&gt;Node37</title>
<path fill="none" stroke="midnightblue" d="M1178.08,-236.65C1245.86,-228.38 1358.77,-214.27 1465.4,-199.21"/>
<polygon fill="midnightblue" stroke="midnightblue" points="1465.96,-202.66 1475.37,-197.79 1464.97,-195.73 1465.96,-202.66"/>
</g>
<!-- Node38 -->
<g id="node38" class="node">
<title>Node38</title>
<g id="a_node38"><a xlink:href="PhysicalPropertiesOptions_8hpp.html" target="_top" xlink:title="Options for physical properties.">
<polygon fill="none" stroke="black" points="952,-168.5 952,-198.5 1106,-198.5 1106,-168.5 952,-168.5"/>
<text text-anchor="start" x="960" y="-186.5" font-family="serif" font-size="10.00">Options/PhysicalProperties</text>
<text text-anchor="middle" x="1029" y="-175.5" font-family="serif" font-size="10.00">Options.hpp</text>
</a>
</g>
</g>
<!-- Node15&#45;&gt;Node38 -->
<g id="edge77" class="edge">
<title>Node15&#45;&gt;Node38</title>
<path fill="none" stroke="midnightblue" d="M1104.39,-235.48C1092.36,-227.34 1073.8,-214.79 1058.1,-204.18"/>
<polygon fill="midnightblue" stroke="midnightblue" points="1059.98,-201.22 1049.74,-198.52 1056.06,-207.02 1059.98,-201.22"/>
</g>
<!-- Node39 -->
<g id="node39" class="node">
<title>Node39</title>
<g id="a_node39"><a xlink:href="ProblemsOptions_8hpp.html" target="_top" xlink:title="Options for Problem objects.">
<polygon fill="none" stroke="black" points="1663,-174 1663,-193 1833,-193 1833,-174 1663,-174"/>
<text text-anchor="middle" x="1748" y="-181" font-family="serif" font-size="10.00">Options/ProblemsOptions.hpp</text>
</a>
</g>
</g>
<!-- Node15&#45;&gt;Node39 -->
<g id="edge79" class="edge">
<title>Node15&#45;&gt;Node39</title>
<path fill="none" stroke="midnightblue" d="M1178.35,-240.25C1278.23,-233.83 1482.13,-219.43 1654,-199 1664.67,-197.73 1675.99,-196.17 1686.94,-194.55"/>
<polygon fill="midnightblue" stroke="midnightblue" points="1687.5,-198 1696.86,-193.05 1686.45,-191.08 1687.5,-198"/>
</g>
<!-- Node40 -->
<g id="node40" class="node">
<title>Node40</title>
<g id="a_node40"><a xlink:href="SolversOptions_8hpp.html" target="_top" xlink:title="Options for solvers and preconditioners.">
<polygon fill="none" stroke="black" points="1124,-174 1124,-193 1284,-193 1284,-174 1124,-174"/>
<text text-anchor="middle" x="1204" y="-181" font-family="serif" font-size="10.00">Options/SolversOptions.hpp</text>
</a>
</g>
</g>
<!-- Node15&#45;&gt;Node40 -->
<g id="edge82" class="edge">
<title>Node15&#45;&gt;Node40</title>
<path fill="none" stroke="midnightblue" d="M1129.46,-235.48C1143.42,-225.93 1166.26,-210.31 1182.99,-198.87"/>
<polygon fill="midnightblue" stroke="midnightblue" points="1185.28,-201.54 1191.56,-193.01 1181.33,-195.77 1185.28,-201.54"/>
</g>
<!-- Node41 -->
<g id="node41" class="node">
<title>Node41</title>
<g id="a_node41"><a xlink:href="SpatialOptions_8hpp.html" target="_top" xlink:title="Options for Spatial discretization.">
<polygon fill="none" stroke="black" points="1851,-174 1851,-193 2009,-193 2009,-174 1851,-174"/>
<text text-anchor="middle" x="1930" y="-181" font-family="serif" font-size="10.00">Options/SpatialOptions.hpp</text>
</a>
</g>
</g>
<!-- Node15&#45;&gt;Node41 -->
<g id="edge84" class="edge">
<title>Node15&#45;&gt;Node41</title>
<path fill="none" stroke="midnightblue" d="M1178.29,-242.29C1303.39,-238.34 1597.02,-226.71 1842,-199 1852.26,-197.84 1863.15,-196.3 1873.64,-194.66"/>
<polygon fill="midnightblue" stroke="midnightblue" points="1874.22,-198.11 1883.54,-193.06 1873.11,-191.2 1874.22,-198.11"/>
</g>
<!-- Node42 -->
<g id="node42" class="node">
<title>Node42</title>
<g id="a_node42"><a xlink:href="TimeOptions_8hpp.html" target="_top" xlink:title="Options for Time discretization.">
<polygon fill="none" stroke="black" points="2027,-174 2027,-193 2175,-193 2175,-174 2027,-174"/>
<text text-anchor="middle" x="2101" y="-181" font-family="serif" font-size="10.00">Options/TimeOptions.hpp</text>
</a>
</g>
</g>
<!-- Node15&#45;&gt;Node42 -->
<g id="edge87" class="edge">
<title>Node15&#45;&gt;Node42</title>
<path fill="none" stroke="midnightblue" d="M1178.12,-243.54C1323.91,-241.87 1703.4,-234.2 2018,-199 2027.71,-197.91 2038,-196.41 2047.92,-194.77"/>
<polygon fill="midnightblue" stroke="midnightblue" points="2048.8,-198.17 2058.07,-193.04 2047.62,-191.27 2048.8,-198.17"/>
</g>
<!-- Node16&#45;&gt;Node8 -->
<g id="edge18" class="edge">
<title>Node16&#45;&gt;Node8</title>
<path fill="none" stroke="midnightblue" d="M1394.73,-168.47C1428,-136.77 1508.76,-59.82 1543.58,-26.65"/>
<polygon fill="midnightblue" stroke="midnightblue" points="1546.19,-28.99 1551.02,-19.56 1541.36,-23.92 1546.19,-28.99"/>
</g>
<!-- Node16&#45;&gt;Node17 -->
<g id="edge19" class="edge">
<title>Node16&#45;&gt;Node17</title>
<path fill="none" stroke="midnightblue" d="M1335.21,-168.4C1302.55,-158.12 1258.82,-144.35 1228.11,-134.68"/>
<polygon fill="midnightblue" stroke="midnightblue" points="1228.81,-131.24 1218.23,-131.57 1226.71,-137.91 1228.81,-131.24"/>
</g>
<!-- Node18 -->
<g id="node18" class="node">
<title>Node18</title>
<g id="a_node18"><a xlink:href="UtilsForData_8hpp.html" target="_top" xlink:title="Usefull methods for data.">
<polygon fill="none" stroke="black" points="971.5,-56.5 971.5,-75.5 1102.5,-75.5 1102.5,-56.5 971.5,-56.5"/>
<text text-anchor="middle" x="1037" y="-63.5" font-family="serif" font-size="10.00">Utils/UtilsForData.hpp</text>
</a>
</g>
</g>
<!-- Node17&#45;&gt;Node18 -->
<g id="edge20" class="edge">
<title>Node17&#45;&gt;Node18</title>
<path fill="none" stroke="midnightblue" d="M1166.6,-112.44C1140.8,-103.4 1099.92,-89.06 1070.98,-78.92"/>
<polygon fill="midnightblue" stroke="midnightblue" points="1071.88,-75.52 1061.29,-75.52 1069.57,-82.13 1071.88,-75.52"/>
</g>
<!-- Node27 -->
<g id="node27" class="node">
<title>Node27</title>
<g id="a_node27"><a xlink:href="UtilsForDebug_8hpp.html" target="_top" xlink:title="Usefull methods for debug.">
<polygon fill="none" stroke="black" points="1120.5,-56.5 1120.5,-75.5 1261.5,-75.5 1261.5,-56.5 1120.5,-56.5"/>
<text text-anchor="middle" x="1191" y="-63.5" font-family="serif" font-size="10.00">Utils/UtilsForDebug.hpp</text>
</a>
</g>
</g>
<!-- Node17&#45;&gt;Node27 -->
<g id="edge34" class="edge">
<title>Node17&#45;&gt;Node27</title>
<path fill="none" stroke="midnightblue" d="M1191,-112.08C1191,-105.01 1191,-94.86 1191,-85.99"/>
<polygon fill="midnightblue" stroke="midnightblue" points="1194.5,-85.75 1191,-75.75 1187.5,-85.75 1194.5,-85.75"/>
</g>
<!-- Node30 -->
<g id="node30" class="node">
<title>Node30</title>
<g id="a_node30"><a xlink:href="UtilsForOptions_8hpp.html" target="_top" xlink:title="Usefull methods for Options.">
<polygon fill="none" stroke="black" points="567,-56.5 567,-75.5 713,-75.5 713,-56.5 567,-56.5"/>
<text text-anchor="middle" x="640" y="-63.5" font-family="serif" font-size="10.00">Utils/UtilsForOptions.hpp</text>
</a>
</g>
</g>
<!-- Node17&#45;&gt;Node30 -->
<g id="edge44" class="edge">
<title>Node17&#45;&gt;Node30</title>
<path fill="none" stroke="midnightblue" d="M1146.36,-116.92C1064.67,-109.41 885.37,-92.73 723.46,-76.14"/>
<polygon fill="midnightblue" stroke="midnightblue" points="723.62,-72.64 713.31,-75.1 722.9,-79.6 723.62,-72.64"/>
</g>
<!-- Node31 -->
<g id="node31" class="node">
<title>Node31</title>
<g id="a_node31"><a xlink:href="UtilsForPostProcessing_8hpp.html" target="_top" xlink:title="Usefull methods for post&#45;processing.">
<polygon fill="none" stroke="black" points="731.5,-56.5 731.5,-75.5 914.5,-75.5 914.5,-56.5 731.5,-56.5"/>
<text text-anchor="middle" x="823" y="-63.5" font-family="serif" font-size="10.00">Utils/UtilsForPostProcessing.hpp</text>
</a>
</g>
</g>
<!-- Node17&#45;&gt;Node31 -->
<g id="edge54" class="edge">
<title>Node17&#45;&gt;Node31</title>
<path fill="none" stroke="midnightblue" d="M1146.24,-114.43C1082.67,-105.1 965.69,-87.94 891.26,-77.02"/>
<polygon fill="midnightblue" stroke="midnightblue" points="891.45,-73.51 881.05,-75.52 890.43,-80.43 891.45,-73.51"/>
</g>
<!-- Node32 -->
<g id="node32" class="node">
<title>Node32</title>
<g id="a_node32"><a xlink:href="UtilsForVariants_8hpp.html" target="_top" xlink:title="manage std::Variants">
<polygon fill="none" stroke="black" points="66,-56.5 66,-75.5 214,-75.5 214,-56.5 66,-56.5"/>
<text text-anchor="middle" x="140" y="-63.5" font-family="serif" font-size="10.00">Utils/UtilsForVariants.hpp</text>
</a>
</g>
</g>
<!-- Node17&#45;&gt;Node32 -->
<g id="edge61" class="edge">
<title>Node17&#45;&gt;Node32</title>
<path fill="none" stroke="midnightblue" d="M1146.18,-118.7C985.42,-110.44 436.21,-82.22 224.33,-71.33"/>
<polygon fill="midnightblue" stroke="midnightblue" points="224.36,-67.83 214.19,-70.81 224,-74.82 224.36,-67.83"/>
</g>
<!-- Node18&#45;&gt;Node2 -->
<g id="edge24" class="edge">
<title>Node18&#45;&gt;Node2</title>
<path fill="none" stroke="midnightblue" d="M971.27,-58.75C899.61,-51.54 781.39,-38.46 670.44,-20.12"/>
<polygon fill="midnightblue" stroke="midnightblue" points="670.86,-16.64 660.42,-18.44 669.71,-23.54 670.86,-16.64"/>
</g>
<!-- Node18&#45;&gt;Node5 -->
<g id="edge28" class="edge">
<title>Node18&#45;&gt;Node5</title>
<path fill="none" stroke="midnightblue" d="M971.2,-59.66C841.75,-49.11 562.7,-26.07 519,-20 513.34,-19.21 507.33,-18.2 501.57,-17.14"/>
<polygon fill="midnightblue" stroke="midnightblue" points="502.07,-13.67 491.59,-15.22 500.75,-20.55 502.07,-13.67"/>
</g>
<!-- Node18&#45;&gt;Node8 -->
<g id="edge29" class="edge">
<title>Node18&#45;&gt;Node8</title>
<path fill="none" stroke="midnightblue" d="M1102.84,-56.98C1105.93,-56.64 1109,-56.31 1112,-56 1292.92,-37.3 1342.99,-51.95 1526.35,-19.78"/>
<polygon fill="midnightblue" stroke="midnightblue" points="1527.09,-23.2 1536.32,-18 1525.86,-16.31 1527.09,-23.2"/>
</g>
<!-- Node18&#45;&gt;Node10 -->
<g id="edge31" class="edge">
<title>Node18&#45;&gt;Node10</title>
<path fill="none" stroke="midnightblue" d="M983.36,-56.46C936.34,-48.64 865.97,-36.17 795.89,-20.04"/>
<polygon fill="midnightblue" stroke="midnightblue" points="796.54,-16.6 786.01,-17.74 794.95,-23.41 796.54,-16.6"/>
</g>
<!-- Node18&#45;&gt;Node11 -->
<g id="edge32" class="edge">
<title>Node18&#45;&gt;Node11</title>
<path fill="none" stroke="midnightblue" d="M971.14,-59.81C868.33,-51.48 673.32,-34.74 586.13,-19.86"/>
<polygon fill="midnightblue" stroke="midnightblue" points="586.5,-16.37 576.04,-18.06 585.27,-23.26 586.5,-16.37"/>
</g>
<!-- Node19 -->
<g id="node19" class="node">
<title>Node19</title>
<g id="a_node19"><a xlink:title=" ">
<polygon fill="none" stroke="#bfbfbf" points="1211.5,-0.5 1211.5,-19.5 1270.5,-19.5 1270.5,-0.5 1211.5,-0.5"/>
<text text-anchor="middle" x="1241" y="-7.5" font-family="serif" font-size="10.00">unistd.h</text>
</a>
</g>
</g>
<!-- Node18&#45;&gt;Node19 -->
<g id="edge21" class="edge">
<title>Node18&#45;&gt;Node19</title>
<path fill="none" stroke="midnightblue" d="M1069.32,-56.44C1105.21,-46.94 1163.15,-31.61 1201.65,-21.42"/>
<polygon fill="midnightblue" stroke="midnightblue" points="1202.7,-24.76 1211.48,-18.82 1200.91,-17.99 1202.7,-24.76"/>
</g>
<!-- Node20 -->
<g id="node20" class="node">
<title>Node20</title>
<g id="a_node20"><a xlink:title=" ">
<polygon fill="none" stroke="#bfbfbf" points="884,-0.5 884,-19.5 934,-19.5 934,-0.5 884,-0.5"/>
<text text-anchor="middle" x="909" y="-7.5" font-family="serif" font-size="10.00">cctype</text>
</a>
</g>
</g>
<!-- Node18&#45;&gt;Node20 -->
<g id="edge22" class="edge">
<title>Node18&#45;&gt;Node20</title>
<path fill="none" stroke="midnightblue" d="M1016.72,-56.44C995.65,-47.56 962.48,-33.56 938.51,-23.45"/>
<polygon fill="midnightblue" stroke="midnightblue" points="939.76,-20.18 929.19,-19.52 937.04,-26.63 939.76,-20.18"/>
</g>
<!-- Node21 -->
<g id="node21" class="node">
<title>Node21</title>
<g id="a_node21"><a xlink:title=" ">
<polygon fill="none" stroke="#bfbfbf" points="1288.5,-0.5 1288.5,-19.5 1335.5,-19.5 1335.5,-0.5 1288.5,-0.5"/>
<text text-anchor="middle" x="1312" y="-7.5" font-family="serif" font-size="10.00">cstdio</text>
</a>
</g>
</g>
<!-- Node18&#45;&gt;Node21 -->
<g id="edge23" class="edge">
<title>Node18&#45;&gt;Node21</title>
<path fill="none" stroke="midnightblue" d="M1090.86,-56.47C1138.07,-48.67 1208.74,-36.21 1278.47,-20.21"/>
<polygon fill="midnightblue" stroke="midnightblue" points="1279.35,-23.6 1288.3,-17.93 1277.76,-16.78 1279.35,-23.6"/>
</g>
<!-- Node22 -->
<g id="node22" class="node">
<title>Node22</title>
<g id="a_node22"><a xlink:title=" ">
<polygon fill="none" stroke="#bfbfbf" points="952,-0.5 952,-19.5 1020,-19.5 1020,-0.5 952,-0.5"/>
<text text-anchor="middle" x="986" y="-7.5" font-family="serif" font-size="10.00">filesystem</text>
</a>
</g>
</g>
<!-- Node18&#45;&gt;Node22 -->
<g id="edge25" class="edge">
<title>Node18&#45;&gt;Node22</title>
<path fill="none" stroke="midnightblue" d="M1028.58,-56.08C1021.15,-48.22 1010.15,-36.57 1001.19,-27.08"/>
<polygon fill="midnightblue" stroke="midnightblue" points="1003.68,-24.62 994.26,-19.75 998.59,-29.42 1003.68,-24.62"/>
</g>
<!-- Node23 -->
<g id="node23" class="node">
<title>Node23</title>
<g id="a_node23"><a xlink:title=" ">
<polygon fill="none" stroke="#bfbfbf" points="1038,-0.5 1038,-19.5 1106,-19.5 1106,-0.5 1038,-0.5"/>
<text text-anchor="middle" x="1072" y="-7.5" font-family="serif" font-size="10.00">functional</text>
</a>
</g>
</g>
<!-- Node18&#45;&gt;Node23 -->
<g id="edge26" class="edge">
<title>Node18&#45;&gt;Node23</title>
<path fill="none" stroke="midnightblue" d="M1042.78,-56.08C1047.67,-48.53 1054.83,-37.49 1060.83,-28.23"/>
<polygon fill="midnightblue" stroke="midnightblue" points="1063.83,-30.05 1066.33,-19.75 1057.95,-26.24 1063.83,-30.05"/>
</g>
<!-- Node24 -->
<g id="node24" class="node">
<title>Node24</title>
<g id="a_node24"><a xlink:title=" ">
<polygon fill="none" stroke="#bfbfbf" points="804.5,-0.5 804.5,-19.5 865.5,-19.5 865.5,-0.5 804.5,-0.5"/>
<text text-anchor="middle" x="835" y="-7.5" font-family="serif" font-size="10.00">iostream</text>
</a>
</g>
</g>
<!-- Node18&#45;&gt;Node24 -->
<g id="edge27" class="edge">
<title>Node18&#45;&gt;Node24</title>
<path fill="none" stroke="midnightblue" d="M1004.99,-56.44C969.86,-47.05 913.4,-31.96 875.29,-21.77"/>
<polygon fill="midnightblue" stroke="midnightblue" points="876.1,-18.36 865.54,-19.16 874.29,-25.13 876.1,-18.36"/>
</g>
<!-- Node25 -->
<g id="node25" class="node">
<title>Node25</title>
<g id="a_node25"><a xlink:title=" ">
<polygon fill="none" stroke="#bfbfbf" points="678.5,-0.5 678.5,-19.5 721.5,-19.5 721.5,-0.5 678.5,-0.5"/>
<text text-anchor="middle" x="700" y="-7.5" font-family="serif" font-size="10.00">tuple</text>
</a>
</g>
</g>
<!-- Node18&#45;&gt;Node25 -->
<g id="edge30" class="edge">
<title>Node18&#45;&gt;Node25</title>
<path fill="none" stroke="midnightblue" d="M971.47,-57.99C911.44,-50.97 820.01,-38.79 731.52,-19.83"/>
<polygon fill="midnightblue" stroke="midnightblue" points="732.1,-16.38 721.58,-17.67 730.61,-23.22 732.1,-16.38"/>
</g>
<!-- Node26 -->
<g id="node26" class="node">
<title>Node26</title>
<g id="a_node26"><a xlink:title=" ">
<polygon fill="none" stroke="#bfbfbf" points="1124.5,-0.5 1124.5,-19.5 1193.5,-19.5 1193.5,-0.5 1124.5,-0.5"/>
<text text-anchor="middle" x="1159" y="-7.5" font-family="serif" font-size="10.00">mfem.hpp</text>
</a>
</g>
</g>
<!-- Node18&#45;&gt;Node26 -->
<g id="edge33" class="edge">
<title>Node18&#45;&gt;Node26</title>
<path fill="none" stroke="midnightblue" d="M1056.33,-56.44C1076.32,-47.6 1107.74,-33.69 1130.56,-23.59"/>
<polygon fill="midnightblue" stroke="midnightblue" points="1132.03,-26.76 1139.76,-19.52 1129.2,-20.36 1132.03,-26.76"/>
</g>
<!-- Node27&#45;&gt;Node8 -->
<g id="edge41" class="edge">
<title>Node27&#45;&gt;Node8</title>
<path fill="none" stroke="midnightblue" d="M1261.58,-56.67C1340.34,-47.19 1463.86,-31.71 1526.43,-19.82"/>
<polygon fill="midnightblue" stroke="midnightblue" points="1527.17,-23.24 1536.3,-17.87 1525.81,-16.38 1527.17,-23.24"/>
</g>
<!-- Node27&#45;&gt;Node10 -->
<g id="edge42" class="edge">
<title>Node27&#45;&gt;Node10</title>
<path fill="none" stroke="midnightblue" d="M1120.36,-56.95C1117.54,-56.63 1114.74,-56.31 1112,-56 974.42,-40.35 935.93,-46.95 796.53,-20.02"/>
<polygon fill="midnightblue" stroke="midnightblue" points="796.8,-16.51 786.31,-18.03 795.46,-23.38 796.8,-16.51"/>
</g>
<!-- Node27&#45;&gt;Node19 -->
<g id="edge36" class="edge">
<title>Node27&#45;&gt;Node19</title>
<path fill="none" stroke="midnightblue" d="M1199.26,-56.08C1206.46,-48.3 1217.11,-36.8 1225.85,-27.37"/>
<polygon fill="midnightblue" stroke="midnightblue" points="1228.67,-29.47 1232.9,-19.75 1223.53,-24.71 1228.67,-29.47"/>
</g>
<!-- Node27&#45;&gt;Node21 -->
<g id="edge37" class="edge">
<title>Node27&#45;&gt;Node21</title>
<path fill="none" stroke="midnightblue" d="M1210.17,-56.44C1229.91,-47.64 1260.89,-33.81 1283.49,-23.72"/>
<polygon fill="midnightblue" stroke="midnightblue" points="1285.21,-26.79 1292.92,-19.52 1282.36,-20.4 1285.21,-26.79"/>
</g>
<!-- Node27&#45;&gt;Node23 -->
<g id="edge39" class="edge">
<title>Node27&#45;&gt;Node23</title>
<path fill="none" stroke="midnightblue" d="M1172.14,-56.44C1152.73,-47.64 1122.27,-33.81 1100.04,-23.72"/>
<polygon fill="midnightblue" stroke="midnightblue" points="1101.32,-20.46 1090.77,-19.52 1098.43,-26.84 1101.32,-20.46"/>
</g>
<!-- Node27&#45;&gt;Node24 -->
<g id="edge40" class="edge">
<title>Node27&#45;&gt;Node24</title>
<path fill="none" stroke="midnightblue" d="M1120.45,-56.59C1058.5,-48.83 965.74,-36.31 875.39,-19.94"/>
<polygon fill="midnightblue" stroke="midnightblue" points="875.99,-16.49 865.52,-18.13 874.73,-23.37 875.99,-16.49"/>
</g>
<!-- Node27&#45;&gt;Node26 -->
<g id="edge43" class="edge">
<title>Node27&#45;&gt;Node26</title>
<path fill="none" stroke="midnightblue" d="M1185.72,-56.08C1181.29,-48.61 1174.84,-37.72 1169.38,-28.52"/>
<polygon fill="midnightblue" stroke="midnightblue" points="1172.29,-26.57 1164.19,-19.75 1166.27,-30.14 1172.29,-26.57"/>
</g>
<!-- Node28 -->
<g id="node28" class="node">
<title>Node28</title>
<g id="a_node28"><a xlink:title=" ">
<polygon fill="none" stroke="#bfbfbf" points="1354,-0.5 1354,-19.5 1444,-19.5 1444,-0.5 1354,-0.5"/>
<text text-anchor="middle" x="1399" y="-7.5" font-family="serif" font-size="10.00">sys/resource.h</text>
</a>
</g>
</g>
<!-- Node27&#45;&gt;Node28 -->
<g id="edge35" class="edge">
<title>Node27&#45;&gt;Node28</title>
<path fill="none" stroke="midnightblue" d="M1223.96,-56.44C1259.79,-47.14 1317.16,-32.25 1356.39,-22.06"/>
<polygon fill="midnightblue" stroke="midnightblue" points="1357.4,-25.42 1366.2,-19.52 1355.64,-18.64 1357.4,-25.42"/>
</g>
<!-- Node29 -->
<g id="node29" class="node">
<title>Node29</title>
<g id="a_node29"><a xlink:title=" ">
<polygon fill="none" stroke="#bfbfbf" points="1462,-0.5 1462,-19.5 1518,-19.5 1518,-0.5 1462,-0.5"/>
<text text-anchor="middle" x="1490" y="-7.5" font-family="serif" font-size="10.00">fstream</text>
</a>
</g>
</g>
<!-- Node27&#45;&gt;Node29 -->
<g id="edge38" class="edge">
<title>Node27&#45;&gt;Node29</title>
<path fill="none" stroke="midnightblue" d="M1247.17,-56.49C1298.08,-48.53 1375.39,-35.79 1451.52,-20.2"/>
<polygon fill="midnightblue" stroke="midnightblue" points="1452.68,-23.53 1461.76,-18.08 1451.26,-16.68 1452.68,-23.53"/>
</g>
<!-- Node30&#45;&gt;Node2 -->
<g id="edge45" class="edge">
<title>Node30&#45;&gt;Node2</title>
<path fill="none" stroke="midnightblue" d="M637.85,-56.08C636.13,-48.93 633.65,-38.64 631.5,-29.69"/>
<polygon fill="midnightblue" stroke="midnightblue" points="634.85,-28.65 629.11,-19.75 628.04,-30.29 634.85,-28.65"/>
</g>
<!-- Node30&#45;&gt;Node4 -->
<g id="edge48" class="edge">
<title>Node30&#45;&gt;Node4</title>
<path fill="none" stroke="midnightblue" d="M598.01,-56.44C544.98,-45.64 454.91,-27.28 407.07,-17.54"/>
<polygon fill="midnightblue" stroke="midnightblue" points="407.75,-14.1 397.26,-15.54 406.36,-20.96 407.75,-14.1"/>
</g>
<!-- Node30&#45;&gt;Node8 -->
<g id="edge49" class="edge">
<title>Node30&#45;&gt;Node8</title>
<path fill="none" stroke="midnightblue" d="M713.3,-56.72C716.23,-56.46 719.14,-56.22 722,-56 1075.76,-28.7 1171.42,-74.59 1526.3,-19.69"/>
<polygon fill="midnightblue" stroke="midnightblue" points="1527,-23.13 1536.34,-18.13 1525.92,-16.21 1527,-23.13"/>
</g>
<!-- Node30&#45;&gt;Node10 -->
<g id="edge51" class="edge">
<title>Node30&#45;&gt;Node10</title>
<path fill="none" stroke="midnightblue" d="M659.49,-56.44C679.64,-47.6 711.32,-33.69 734.33,-23.59"/>
<polygon fill="midnightblue" stroke="midnightblue" points="735.85,-26.74 743.6,-19.52 733.04,-20.33 735.85,-26.74"/>
</g>
<!-- Node30&#45;&gt;Node11 -->
<g id="edge53" class="edge">
<title>Node30&#45;&gt;Node11</title>
<path fill="none" stroke="midnightblue" d="M625.86,-56.32C612.13,-47.9 591.06,-34.97 574.94,-25.07"/>
<polygon fill="midnightblue" stroke="midnightblue" points="576.46,-21.9 566.1,-19.65 572.8,-27.87 576.46,-21.9"/>
</g>
<!-- Node30&#45;&gt;Node14 -->
<g id="edge52" class="edge">
<title>Node30&#45;&gt;Node14</title>
<path fill="none" stroke="midnightblue" d="M576.94,-56.44C492.88,-45.04 346.84,-25.22 278.83,-16"/>
<polygon fill="midnightblue" stroke="midnightblue" points="278.98,-12.49 268.6,-14.61 278.04,-19.42 278.98,-12.49"/>
</g>
<!-- Node30&#45;&gt;Node23 -->
<g id="edge46" class="edge">
<title>Node30&#45;&gt;Node23</title>
<path fill="none" stroke="midnightblue" d="M713.21,-56.9C810.14,-46.11 974.23,-27.67 1027.84,-19.97"/>
<polygon fill="midnightblue" stroke="midnightblue" points="1028.43,-23.42 1037.78,-18.45 1027.37,-16.5 1028.43,-23.42"/>
</g>
<!-- Node30&#45;&gt;Node24 -->
<g id="edge47" class="edge">
<title>Node30&#45;&gt;Node24</title>
<path fill="none" stroke="midnightblue" d="M670.9,-56.44C704.27,-47.2 757.59,-32.44 794.35,-22.26"/>
<polygon fill="midnightblue" stroke="midnightblue" points="795.54,-25.56 804.25,-19.52 793.67,-18.81 795.54,-25.56"/>
</g>
<!-- Node30&#45;&gt;Node25 -->
<g id="edge50" class="edge">
<title>Node30&#45;&gt;Node25</title>
<path fill="none" stroke="midnightblue" d="M649.64,-56.32C658.51,-48.34 671.87,-36.31 682.61,-26.65"/>
<polygon fill="midnightblue" stroke="midnightblue" points="685.09,-29.13 690.18,-19.83 680.41,-23.92 685.09,-29.13"/>
</g>
<!-- Node31&#45;&gt;Node2 -->
<g id="edge55" class="edge">
<title>Node31&#45;&gt;Node2</title>
<path fill="none" stroke="midnightblue" d="M791.94,-56.44C758.4,-47.2 704.8,-32.44 667.86,-22.26"/>
<polygon fill="midnightblue" stroke="midnightblue" points="668.48,-18.8 657.91,-19.52 666.62,-25.55 668.48,-18.8"/>
</g>
<!-- Node31&#45;&gt;Node4 -->
<g id="edge57" class="edge">
<title>Node31&#45;&gt;Node4</title>
<path fill="none" stroke="midnightblue" d="M748.34,-56.46C671.68,-47.63 548.96,-33.29 443,-20 431.24,-18.53 418.34,-16.84 406.98,-15.32"/>
<polygon fill="midnightblue" stroke="midnightblue" points="407.42,-11.85 397.04,-13.99 406.49,-18.79 407.42,-11.85"/>
</g>
<!-- Node31&#45;&gt;Node8 -->
<g id="edge58" class="edge">
<title>Node31&#45;&gt;Node8</title>
<path fill="none" stroke="midnightblue" d="M914.87,-59.09C930.92,-58.06 947.44,-57 963,-56 1210.36,-40.15 1277.47,-60.7 1526.26,-19.75"/>
<polygon fill="midnightblue" stroke="midnightblue" points="1527.04,-23.16 1536.33,-18.07 1525.9,-16.26 1527.04,-23.16"/>
</g>
<!-- Node31&#45;&gt;Node10 -->
<g id="edge59" class="edge">
<title>Node31&#45;&gt;Node10</title>
<path fill="none" stroke="midnightblue" d="M813.36,-56.32C804.49,-48.34 791.13,-36.31 780.39,-26.65"/>
<polygon fill="midnightblue" stroke="midnightblue" points="782.59,-23.92 772.82,-19.83 777.91,-29.13 782.59,-23.92"/>
</g>
<!-- Node31&#45;&gt;Node11 -->
<g id="edge60" class="edge">
<title>Node31&#45;&gt;Node11</title>
<path fill="none" stroke="midnightblue" d="M771.22,-56.43C725.02,-48.51 655.33,-35.89 585.89,-20.06"/>
<polygon fill="midnightblue" stroke="midnightblue" points="586.62,-16.64 576.09,-17.81 585.06,-23.46 586.62,-16.64"/>
</g>
<!-- Node31&#45;&gt;Node24 -->
<g id="edge56" class="edge">
<title>Node31&#45;&gt;Node24</title>
<path fill="none" stroke="midnightblue" d="M824.98,-56.08C826.57,-48.93 828.86,-38.64 830.85,-29.69"/>
<polygon fill="midnightblue" stroke="midnightblue" points="834.3,-30.27 833.06,-19.75 827.47,-28.75 834.3,-30.27"/>
</g>
<!-- Node32&#45;&gt;Node9 -->
<g id="edge63" class="edge">
<title>Node32&#45;&gt;Node9</title>
<path fill="none" stroke="midnightblue" d="M123.61,-56.32C107.33,-47.7 82.13,-34.36 63.28,-24.39"/>
<polygon fill="midnightblue" stroke="midnightblue" points="64.82,-21.24 54.35,-19.65 61.55,-27.43 64.82,-21.24"/>
</g>
<!-- Node32&#45;&gt;Node14 -->
<g id="edge64" class="edge">
<title>Node32&#45;&gt;Node14</title>
<path fill="none" stroke="midnightblue" d="M156.39,-56.32C172.67,-47.7 197.87,-34.36 216.72,-24.39"/>
<polygon fill="midnightblue" stroke="midnightblue" points="218.45,-27.43 225.65,-19.65 215.18,-21.24 218.45,-27.43"/>
</g>
<!-- Node33 -->
<g id="node33" class="node">
<title>Node33</title>
<g id="a_node33"><a xlink:title=" ">
<polygon fill="none" stroke="#bfbfbf" points="110.5,-0.5 110.5,-19.5 169.5,-19.5 169.5,-0.5 110.5,-0.5"/>
<text text-anchor="middle" x="140" y="-7.5" font-family="serif" font-size="10.00">memory</text>
</a>
</g>
</g>
<!-- Node32&#45;&gt;Node33 -->
<g id="edge62" class="edge">
<title>Node32&#45;&gt;Node33</title>
<path fill="none" stroke="midnightblue" d="M140,-56.08C140,-49.01 140,-38.86 140,-29.99"/>
<polygon fill="midnightblue" stroke="midnightblue" points="143.5,-29.75 140,-19.75 136.5,-29.75 143.5,-29.75"/>
</g>
<!-- Node34&#45;&gt;Node4 -->
<g id="edge66" class="edge">
<title>Node34&#45;&gt;Node4</title>
<path fill="none" stroke="midnightblue" d="M426.25,-173.76C417.83,-147.04 392.32,-66.02 380.78,-29.36"/>
<polygon fill="midnightblue" stroke="midnightblue" points="384.02,-28.01 377.68,-19.52 377.35,-30.11 384.02,-28.01"/>
</g>
<!-- Node34&#45;&gt;Node8 -->
<g id="edge67" class="edge">
<title>Node34&#45;&gt;Node8</title>
<path fill="none" stroke="midnightblue" d="M497.79,-173.97C692,-149.86 1232.93,-82.56 1271,-76 1382.64,-56.77 1412.29,-48.25 1526.42,-20.06"/>
<polygon fill="midnightblue" stroke="midnightblue" points="1527.37,-23.43 1536.24,-17.63 1525.7,-16.63 1527.37,-23.43"/>
</g>
<!-- Node34&#45;&gt;Node11 -->
<g id="edge68" class="edge">
<title>Node34&#45;&gt;Node11</title>
<path fill="none" stroke="midnightblue" d="M435.27,-173.76C454.68,-146.69 514.05,-63.91 539.83,-27.96"/>
<polygon fill="midnightblue" stroke="midnightblue" points="542.91,-29.69 545.89,-19.52 537.22,-25.61 542.91,-29.69"/>
</g>
<!-- Node34&#45;&gt;Node17 -->
<g id="edge69" class="edge">
<title>Node34&#45;&gt;Node17</title>
<path fill="none" stroke="midnightblue" d="M480.24,-173.97C494.98,-171.75 511.1,-169.55 526,-168 794.35,-140.03 863.69,-160.37 1132,-132 1133.3,-131.86 1134.62,-131.72 1135.95,-131.56"/>
<polygon fill="midnightblue" stroke="midnightblue" points="1136.79,-134.98 1146.28,-130.26 1135.92,-128.04 1136.79,-134.98"/>
</g>
<!-- Node35&#45;&gt;Node17 -->
<g id="edge71" class="edge">
<title>Node35&#45;&gt;Node17</title>
<path fill="none" stroke="midnightblue" d="M703.09,-173.95C716.68,-171.84 731.38,-169.69 745,-168 916.42,-146.68 960.54,-153.03 1132,-132 1133.3,-131.84 1134.62,-131.67 1135.95,-131.5"/>
<polygon fill="midnightblue" stroke="midnightblue" points="1136.82,-134.92 1146.26,-130.11 1135.88,-127.98 1136.82,-134.92"/>
</g>
<!-- Node36&#45;&gt;Node17 -->
<g id="edge73" class="edge">
<title>Node36&#45;&gt;Node17</title>
<path fill="none" stroke="midnightblue" d="M893.72,-173.98C958.06,-162.94 1069.81,-143.78 1136.44,-132.36"/>
<polygon fill="midnightblue" stroke="midnightblue" points="1137.07,-135.8 1146.33,-130.66 1135.88,-128.9 1137.07,-135.8"/>
</g>
<!-- Node37&#45;&gt;Node8 -->
<g id="edge75" class="edge">
<title>Node37&#45;&gt;Node8</title>
<path fill="none" stroke="midnightblue" d="M1560,-168.47C1560,-137.7 1560,-64.33 1560,-29.7"/>
<polygon fill="midnightblue" stroke="midnightblue" points="1563.5,-29.56 1560,-19.56 1556.5,-29.56 1563.5,-29.56"/>
</g>
<!-- Node37&#45;&gt;Node17 -->
<g id="edge76" class="edge">
<title>Node37&#45;&gt;Node17</title>
<path fill="none" stroke="midnightblue" d="M1475.34,-168.85C1404.74,-157.47 1306.23,-141.58 1245.63,-131.81"/>
<polygon fill="midnightblue" stroke="midnightblue" points="1245.94,-128.31 1235.51,-130.18 1244.83,-135.22 1245.94,-128.31"/>
</g>
<!-- Node38&#45;&gt;Node17 -->
<g id="edge78" class="edge">
<title>Node38&#45;&gt;Node17</title>
<path fill="none" stroke="midnightblue" d="M1067.39,-168.4C1094.94,-158.28 1131.67,-144.79 1157.92,-135.15"/>
<polygon fill="midnightblue" stroke="midnightblue" points="1159.25,-138.39 1167.43,-131.66 1156.83,-131.82 1159.25,-138.39"/>
</g>
<!-- Node39&#45;&gt;Node8 -->
<g id="edge80" class="edge">
<title>Node39&#45;&gt;Node8</title>
<path fill="none" stroke="midnightblue" d="M1738.68,-174C1708.92,-146.85 1615.9,-62 1577.18,-26.67"/>
<polygon fill="midnightblue" stroke="midnightblue" points="1579.13,-23.71 1569.38,-19.56 1574.41,-28.88 1579.13,-23.71"/>
</g>
<!-- Node39&#45;&gt;Node17 -->
<g id="edge81" class="edge">
<title>Node39&#45;&gt;Node17</title>
<path fill="none" stroke="midnightblue" d="M1695.87,-173.92C1682.26,-171.83 1667.6,-169.71 1654,-168 1506.93,-149.52 1332.75,-134.41 1245.94,-127.33"/>
<polygon fill="midnightblue" stroke="midnightblue" points="1246.04,-123.83 1235.79,-126.51 1245.47,-130.81 1246.04,-123.83"/>
</g>
<!-- Node40&#45;&gt;Node17 -->
<g id="edge83" class="edge">
<title>Node40&#45;&gt;Node17</title>
<path fill="none" stroke="midnightblue" d="M1202.14,-173.98C1200.28,-165.49 1197.38,-152.2 1195,-141.32"/>
<polygon fill="midnightblue" stroke="midnightblue" points="1198.41,-140.53 1192.86,-131.51 1191.57,-142.03 1198.41,-140.53"/>
</g>
<!-- Node41&#45;&gt;Node8 -->
<g id="edge85" class="edge">
<title>Node41&#45;&gt;Node8</title>
<path fill="none" stroke="midnightblue" d="M1911.65,-174C1851.49,-146.11 1659.93,-57.32 1587.82,-23.89"/>
<polygon fill="midnightblue" stroke="midnightblue" points="1589,-20.59 1578.46,-19.56 1586.06,-26.94 1589,-20.59"/>
</g>
<!-- Node41&#45;&gt;Node17 -->
<g id="edge86" class="edge">
<title>Node41&#45;&gt;Node17</title>
<path fill="none" stroke="midnightblue" d="M1883.08,-173.93C1869.83,-171.74 1855.38,-169.56 1842,-168 1621.85,-142.31 1357.98,-129.6 1245.79,-125.04"/>
<polygon fill="midnightblue" stroke="midnightblue" points="1245.86,-121.54 1235.73,-124.64 1245.58,-128.54 1245.86,-121.54"/>
</g>
<!-- Node42&#45;&gt;Node8 -->
<g id="edge88" class="edge">
<title>Node42&#45;&gt;Node8</title>
<path fill="none" stroke="midnightblue" d="M2074.17,-174C1984.08,-145.44 1692.49,-53 1593.35,-21.57"/>
<polygon fill="midnightblue" stroke="midnightblue" points="1594.16,-18.16 1583.57,-18.47 1592.04,-24.83 1594.16,-18.16"/>
</g>
<!-- Node42&#45;&gt;Node17 -->
<g id="edge89" class="edge">
<title>Node42&#45;&gt;Node17</title>
<path fill="none" stroke="midnightblue" d="M2058.06,-174C2045.22,-171.73 2031.08,-169.49 2018,-168 1728.34,-134.94 1378.73,-126.02 1245.85,-123.74"/>
<polygon fill="midnightblue" stroke="midnightblue" points="1245.59,-120.23 1235.53,-123.57 1245.47,-127.23 1245.59,-120.23"/>
</g>
</g>
</svg>
