<?xml version="1.0" encoding="UTF-8" standalone="no"?>
<!DOCTYPE svg PUBLIC "-//W3C//DTD SVG 1.1//EN"
 "http://www.w3.org/Graphics/SVG/1.1/DTD/svg11.dtd">
<!-- Generated by graphviz version 2.43.0 (0)
 -->
<!-- Title: PhaseFieldPotentials.hpp Pages: 1 -->
<svg width="1603pt" height="274pt"
 viewBox="0.00 0.00 1602.50 274.00" xmlns="http://www.w3.org/2000/svg" xmlns:xlink="http://www.w3.org/1999/xlink">
<g id="graph0" class="graph" transform="scale(1 1) rotate(0) translate(4 270)">
<title>PhaseFieldPotentials.hpp</title>
<!-- Node1 -->
<g id="node1" class="node">
<title>Node1</title>
<g id="a_node1"><a xlink:title="Analytical potentials and derivatives used by phase&#45;field models.">
<polygon fill="#bfbfbf" stroke="black" points="641,-246.5 641,-265.5 787,-265.5 787,-246.5 641,-246.5"/>
<text text-anchor="middle" x="714" y="-253.5" font-family="serif" font-size="10.00">PhaseFieldPotentials.hpp</text>
</a>
</g>
</g>
<!-- Node2 -->
<g id="node2" class="node">
<title>Node2</title>
<g id="a_node2"><a xlink:href="CalphadBase_8hpp.html" target="_top" xlink:title="Base class for Calphad objets.">
<polygon fill="none" stroke="black" points="199.5,-129 199.5,-148 306.5,-148 306.5,-129 199.5,-129"/>
<text text-anchor="middle" x="253" y="-136" font-family="serif" font-size="10.00">CalphadBase.hpp</text>
</a>
</g>
</g>
<!-- Node1&#45;&gt;Node2 -->
<g id="edge1" class="edge">
<title>Node1&#45;&gt;Node2</title>
<path fill="none" stroke="midnightblue" d="M630.66,-248.12C570.45,-241.77 487.63,-230.17 417,-210 360.68,-193.92 298.13,-163.15 269.25,-148.15"/>
<polygon fill="midnightblue" stroke="midnightblue" points="630.57,-251.63 640.88,-249.17 631.29,-244.67 630.57,-251.63"/>
</g>
<!-- Node4 -->
<g id="node4" class="node">
<title>Node4</title>
<g id="a_node4"><a xlink:href="sloth_8hpp.html" target="_top" xlink:title="List of all header files contained in the kernel directory.">
<polygon fill="none" stroke="black" points="571.5,-0.5 571.5,-19.5 636.5,-19.5 636.5,-0.5 571.5,-0.5"/>
<text text-anchor="middle" x="604" y="-7.5" font-family="serif" font-size="10.00">sloth.hpp</text>
</a>
</g>
</g>
<!-- Node1&#45;&gt;Node4 -->
<g id="edge30" class="edge">
<title>Node1&#45;&gt;Node4</title>
<path fill="none" stroke="midnightblue" d="M630.64,-247.91C569.15,-237.77 489.56,-213.24 450,-154 409.27,-93.01 527.44,-39.64 580.09,-19.52"/>
<polygon fill="midnightblue" stroke="midnightblue" points="630.32,-251.4 640.74,-249.47 631.39,-244.49 630.32,-251.4"/>
</g>
<!-- Node6 -->
<g id="node6" class="node">
<title>Node6</title>
<g id="a_node6"><a xlink:href="KKS_8hpp.html" target="_top" xlink:title="All needed for Calphad calculation including KKS model.">
<polygon fill="none" stroke="black" points="459,-129 459,-148 521,-148 521,-129 459,-129"/>
<text text-anchor="middle" x="490" y="-136" font-family="serif" font-size="10.00">KKS.hpp</text>
</a>
</g>
</g>
<!-- Node1&#45;&gt;Node6 -->
<g id="edge7" class="edge">
<title>Node1&#45;&gt;Node6</title>
<path fill="none" stroke="midnightblue" d="M688.04,-241.62C641.59,-217.66 545.47,-168.1 506.73,-148.12"/>
<polygon fill="midnightblue" stroke="midnightblue" points="686.67,-244.85 697.16,-246.32 689.88,-238.62 686.67,-244.85"/>
</g>
<!-- Node7 -->
<g id="node7" class="node">
<title>Node7</title>
<g id="a_node7"><a xlink:href="EnergyCoefficient_8hpp.html" target="_top" xlink:title="Energy coefficients.">
<polygon fill="none" stroke="black" points="539.5,-129 539.5,-148 670.5,-148 670.5,-129 539.5,-129"/>
<text text-anchor="middle" x="605" y="-136" font-family="serif" font-size="10.00">EnergyCoefficient.hpp</text>
</a>
</g>
</g>
<!-- Node1&#45;&gt;Node7 -->
<g id="edge9" class="edge">
<title>Node1&#45;&gt;Node7</title>
<path fill="none" stroke="midnightblue" d="M698.73,-238.82C675.37,-214.06 631.53,-167.61 613.29,-148.28"/>
<polygon fill="midnightblue" stroke="midnightblue" points="696.4,-241.45 705.81,-246.32 701.49,-236.64 696.4,-241.45"/>
</g>
<!-- Node8 -->
<g id="node8" class="node">
<title>Node8</title>
<g id="a_node8"><a xlink:href="AllenCahnGrainsNLFormIntegrator_8hpp.html" target="_top" xlink:title="VF for Allen&#45;Cahn equation solved in a polycrystal.">
<polygon fill="none" stroke="black" points="688.5,-129 688.5,-148 909.5,-148 909.5,-129 688.5,-129"/>
<text text-anchor="middle" x="799" y="-136" font-family="serif" font-size="10.00">AllenCahnGrainsNLFormIntegrator.hpp</text>
</a>
</g>
</g>
<!-- Node1&#45;&gt;Node8 -->
<g id="edge11" class="edge">
<title>Node1&#45;&gt;Node8</title>
<path fill="none" stroke="midnightblue" d="M711.16,-236.05C710.07,-222.31 710.7,-203.78 719,-190 731.38,-169.46 755.66,-155.92 774.24,-148.08"/>
<polygon fill="midnightblue" stroke="midnightblue" points="707.72,-236.74 712.35,-246.27 714.67,-235.93 707.72,-236.74"/>
</g>
<!-- Node9 -->
<g id="node9" class="node">
<title>Node9</title>
<g id="a_node9"><a xlink:href="AllenCahnMeltingBaseNLFormIntegrator_8hpp.html" target="_top" xlink:title="Base integrator for melting.">
<polygon fill="none" stroke="black" points="927.5,-123.5 927.5,-153.5 1104.5,-153.5 1104.5,-123.5 927.5,-123.5"/>
<text text-anchor="start" x="935.5" y="-141.5" font-family="serif" font-size="10.00">AllenCahnMeltingBaseNLForm</text>
<text text-anchor="middle" x="1016" y="-130.5" font-family="serif" font-size="10.00">Integrator.hpp</text>
</a>
</g>
</g>
<!-- Node1&#45;&gt;Node9 -->
<g id="edge13" class="edge">
<title>Node1&#45;&gt;Node9</title>
<path fill="none" stroke="midnightblue" d="M719.67,-236.53C725.22,-221.61 735.19,-201.31 751,-190 765.48,-179.65 856.18,-163.79 927.5,-152.61"/>
<polygon fill="midnightblue" stroke="midnightblue" points="716.27,-235.63 716.38,-246.23 722.9,-237.88 716.27,-235.63"/>
</g>
<!-- Node13 -->
<g id="node13" class="node">
<title>Node13</title>
<g id="a_node13"><a xlink:href="AllenCahnNLFormIntegrator_8hpp.html" target="_top" xlink:title="FV for the Allen Cahn equation.">
<polygon fill="none" stroke="black" points="760.5,-190.5 760.5,-209.5 947.5,-209.5 947.5,-190.5 760.5,-190.5"/>
<text text-anchor="middle" x="854" y="-197.5" font-family="serif" font-size="10.00">AllenCahnNLFormIntegrator.hpp</text>
</a>
</g>
</g>
<!-- Node1&#45;&gt;Node13 -->
<g id="edge21" class="edge">
<title>Node1&#45;&gt;Node13</title>
<path fill="none" stroke="midnightblue" d="M745.7,-242.77C772,-232.63 808.72,-218.47 831.92,-209.52"/>
<polygon fill="midnightblue" stroke="midnightblue" points="744.25,-239.58 736.18,-246.44 746.77,-246.11 744.25,-239.58"/>
</g>
<!-- Node14 -->
<g id="node14" class="node">
<title>Node14</title>
<g id="a_node14"><a xlink:href="BlockAllenCahnNLFormIntegrator_8hpp.html" target="_top" xlink:title="VF of the AllenCahn equations (splitting version)">
<polygon fill="none" stroke="black" points="965.5,-190.5 965.5,-209.5 1180.5,-209.5 1180.5,-190.5 965.5,-190.5"/>
<text text-anchor="middle" x="1073" y="-197.5" font-family="serif" font-size="10.00">BlockAllenCahnNLFormIntegrator.hpp</text>
</a>
</g>
</g>
<!-- Node1&#45;&gt;Node14 -->
<g id="edge24" class="edge">
<title>Node1&#45;&gt;Node14</title>
<path fill="none" stroke="midnightblue" d="M781.04,-244.92C848.86,-234.71 952.55,-219.12 1016.38,-209.52"/>
<polygon fill="midnightblue" stroke="midnightblue" points="780.25,-241.49 770.88,-246.44 781.29,-248.42 780.25,-241.49"/>
</g>
<!-- Node15 -->
<g id="node15" class="node">
<title>Node15</title>
<g id="a_node15"><a xlink:href="CahnHilliardNLFormIntegrator_8hpp.html" target="_top" xlink:title="VF of the CahnHilliard equations.">
<polygon fill="none" stroke="black" points="1198.5,-190.5 1198.5,-209.5 1397.5,-209.5 1397.5,-190.5 1198.5,-190.5"/>
<text text-anchor="middle" x="1298" y="-197.5" font-family="serif" font-size="10.00">CahnHilliardNLFormIntegrator.hpp</text>
</a>
</g>
</g>
<!-- Node1&#45;&gt;Node15 -->
<g id="edge26" class="edge">
<title>Node1&#45;&gt;Node15</title>
<path fill="none" stroke="midnightblue" d="M797.29,-247.3C905.42,-237.3 1093.55,-219.9 1205.85,-209.52"/>
<polygon fill="midnightblue" stroke="midnightblue" points="796.71,-243.84 787.08,-248.24 797.36,-250.81 796.71,-243.84"/>
</g>
<!-- Node16 -->
<g id="node16" class="node">
<title>Node16</title>
<g id="a_node16"><a xlink:href="DiffusionNLFormIntegrator_8hpp.html" target="_top" xlink:title="FV for the mass diffusion equation.">
<polygon fill="none" stroke="black" points="1415.5,-190.5 1415.5,-209.5 1594.5,-209.5 1594.5,-190.5 1415.5,-190.5"/>
<text text-anchor="middle" x="1505" y="-197.5" font-family="serif" font-size="10.00">DiffusionNLFormIntegrator.hpp</text>
</a>
</g>
</g>
<!-- Node1&#45;&gt;Node16 -->
<g id="edge28" class="edge">
<title>Node1&#45;&gt;Node16</title>
<path fill="none" stroke="midnightblue" d="M797.3,-250.28C927.34,-242.75 1186.44,-227.12 1406,-210 1409.1,-209.76 1412.25,-209.51 1415.43,-209.25"/>
<polygon fill="midnightblue" stroke="midnightblue" points="796.81,-246.8 787.02,-250.87 797.21,-253.79 796.81,-246.8"/>
</g>
<!-- Node3 -->
<g id="node3" class="node">
<title>Node3</title>
<g id="a_node3"><a xlink:href="AnalyticalIdealSolution_8hpp.html" target="_top" xlink:title="Analytical thermodynamic description for an ideal solution.">
<polygon fill="none" stroke="black" points="0,-62 0,-81 158,-81 158,-62 0,-62"/>
<text text-anchor="middle" x="79" y="-69" font-family="serif" font-size="10.00">AnalyticalIdealSolution.hpp</text>
</a>
</g>
</g>
<!-- Node2&#45;&gt;Node3 -->
<g id="edge2" class="edge">
<title>Node2&#45;&gt;Node3</title>
<path fill="none" stroke="midnightblue" d="M220.26,-125.27C185.73,-112.37 132.21,-92.38 101.92,-81.06"/>
<polygon fill="midnightblue" stroke="midnightblue" points="219.3,-128.65 229.89,-128.87 221.75,-122.09 219.3,-128.65"/>
</g>
<!-- Node2&#45;&gt;Node4 -->
<g id="edge6" class="edge">
<title>Node2&#45;&gt;Node4</title>
<path fill="none" stroke="midnightblue" d="M233.32,-122.48C212.99,-105.2 186.63,-76.56 205,-56 229.3,-28.81 480.45,-16 571.37,-12.23"/>
<polygon fill="midnightblue" stroke="midnightblue" points="231.28,-125.33 241.25,-128.93 235.7,-119.9 231.28,-125.33"/>
</g>
<!-- Node5 -->
<g id="node5" class="node">
<title>Node5</title>
<g id="a_node5"><a xlink:href="CalphadInformedNeuralNetwork_8hpp.html" target="_top" xlink:title="Calphad&#45;informed neuronal network used to predict Calphad contributions.">
<polygon fill="none" stroke="black" points="214.5,-62 214.5,-81 423.5,-81 423.5,-62 214.5,-62"/>
<text text-anchor="middle" x="319" y="-69" font-family="serif" font-size="10.00">CalphadInformedNeuralNetwork.hpp</text>
</a>
</g>
</g>
<!-- Node2&#45;&gt;Node5 -->
<g id="edge4" class="edge">
<title>Node2&#45;&gt;Node5</title>
<path fill="none" stroke="midnightblue" d="M269.25,-121.5C282.19,-108.75 299.81,-91.39 310.24,-81.13"/>
<polygon fill="midnightblue" stroke="midnightblue" points="266.57,-119.22 261.9,-128.73 271.48,-124.21 266.57,-119.22"/>
</g>
<!-- Node3&#45;&gt;Node4 -->
<g id="edge3" class="edge">
<title>Node3&#45;&gt;Node4</title>
<path fill="none" stroke="midnightblue" d="M140.52,-60.46C151.01,-58.87 161.81,-57.32 172,-56 320.81,-36.66 499.31,-20.2 571.42,-13.82"/>
<polygon fill="midnightblue" stroke="midnightblue" points="139.94,-57 130.58,-61.98 141,-63.92 139.94,-57"/>
</g>
<!-- Node5&#45;&gt;Node4 -->
<g id="edge5" class="edge">
<title>Node5&#45;&gt;Node4</title>
<path fill="none" stroke="midnightblue" d="M369.93,-59.87C428.19,-47.7 521.9,-28.14 571.22,-17.84"/>
<polygon fill="midnightblue" stroke="midnightblue" points="368.91,-56.51 359.83,-61.98 370.34,-63.36 368.91,-56.51"/>
</g>
<!-- Node6&#45;&gt;Node4 -->
<g id="edge8" class="edge">
<title>Node6&#45;&gt;Node4</title>
<path fill="none" stroke="midnightblue" d="M499.29,-119.94C509,-102.54 525.4,-75.71 544,-56 557.76,-41.41 576.68,-28.09 589.57,-19.79"/>
<polygon fill="midnightblue" stroke="midnightblue" points="496.08,-118.51 494.37,-128.97 502.23,-121.85 496.08,-118.51"/>
</g>
<!-- Node7&#45;&gt;Node4 -->
<g id="edge10" class="edge">
<title>Node7&#45;&gt;Node4</title>
<path fill="none" stroke="midnightblue" d="M582.29,-122.69C570.9,-113.85 558.22,-101.52 552,-87 546.57,-74.34 546.27,-68.53 552,-56 559.39,-39.82 575.8,-27.23 588.22,-19.53"/>
<polygon fill="midnightblue" stroke="midnightblue" points="580.48,-125.7 590.63,-128.75 584.6,-120.04 580.48,-125.7"/>
</g>
<!-- Node8&#45;&gt;Node4 -->
<g id="edge12" class="edge">
<title>Node8&#45;&gt;Node4</title>
<path fill="none" stroke="midnightblue" d="M712.72,-127.47C662.26,-119.62 605.5,-106.7 590,-87 574.23,-66.97 589.58,-34.81 598.54,-19.56"/>
<polygon fill="midnightblue" stroke="midnightblue" points="712.3,-130.94 722.71,-128.97 713.34,-124.02 712.3,-130.94"/>
</g>
<!-- Node9&#45;&gt;Node4 -->
<g id="edge20" class="edge">
<title>Node9&#45;&gt;Node4</title>
<path fill="none" stroke="midnightblue" d="M917.1,-123.12C837.02,-115.5 669.27,-129.27 622,-87 602.59,-69.65 602.17,-35.57 603.17,-19.62"/>
<polygon fill="midnightblue" stroke="midnightblue" points="917.01,-126.63 927.34,-124.28 917.8,-119.67 917.01,-126.63"/>
</g>
<!-- Node10 -->
<g id="node10" class="node">
<title>Node10</title>
<g id="a_node10"><a xlink:href="AllenCahnCalphadMeltingNLFormIntegrator_8hpp.html" target="_top" xlink:title="Compute the enthalpy of phase change based on two driving forces defined as auxiliary variables.">
<polygon fill="none" stroke="black" points="631.5,-56.5 631.5,-86.5 826.5,-86.5 826.5,-56.5 631.5,-56.5"/>
<text text-anchor="start" x="639.5" y="-74.5" font-family="serif" font-size="10.00">AllenCahnCalphadMeltingNLForm</text>
<text text-anchor="middle" x="729" y="-63.5" font-family="serif" font-size="10.00">Integrator.hpp</text>
</a>
</g>
</g>
<!-- Node9&#45;&gt;Node10 -->
<g id="edge14" class="edge">
<title>Node9&#45;&gt;Node10</title>
<path fill="none" stroke="midnightblue" d="M944.26,-121.25C897.22,-110.6 836.32,-96.81 791.31,-86.61"/>
<polygon fill="midnightblue" stroke="midnightblue" points="943.55,-124.68 954.08,-123.48 945.1,-117.85 943.55,-124.68"/>
</g>
<!-- Node11 -->
<g id="node11" class="node">
<title>Node11</title>
<g id="a_node11"><a xlink:href="AllenCahnConstantMeltingNLFormIntegrator_8hpp.html" target="_top" xlink:title="AllenCahn integrator for constant melting.">
<polygon fill="none" stroke="black" points="844.5,-56.5 844.5,-86.5 999.5,-86.5 999.5,-56.5 844.5,-56.5"/>
<text text-anchor="start" x="852.5" y="-74.5" font-family="serif" font-size="10.00">AllenCahnConstantMelting</text>
<text text-anchor="middle" x="922" y="-63.5" font-family="serif" font-size="10.00">NLFormIntegrator.hpp</text>
</a>
</g>
</g>
<!-- Node9&#45;&gt;Node11 -->
<g id="edge16" class="edge">
<title>Node9&#45;&gt;Node11</title>
<path fill="none" stroke="midnightblue" d="M987.01,-117.45C972.55,-107.45 955.41,-95.6 942.36,-86.58"/>
<polygon fill="midnightblue" stroke="midnightblue" points="985.39,-120.59 995.6,-123.4 989.37,-114.83 985.39,-120.59"/>
</g>
<!-- Node12 -->
<g id="node12" class="node">
<title>Node12</title>
<g id="a_node12"><a xlink:href="AllenCahnTemperatureMeltingNLFormIntegrator_8hpp.html" target="_top" xlink:title="FV for the Allen Cahn equation with ad&#45;hoc melting controled by temperature and a given melting tempe...">
<polygon fill="none" stroke="black" points="1018,-56.5 1018,-86.5 1194,-86.5 1194,-56.5 1018,-56.5"/>
<text text-anchor="start" x="1026" y="-74.5" font-family="serif" font-size="10.00">AllenCahnTemperatureMelting</text>
<text text-anchor="middle" x="1106" y="-63.5" font-family="serif" font-size="10.00">NLFormIntegrator.hpp</text>
</a>
</g>
</g>
<!-- Node9&#45;&gt;Node12 -->
<g id="edge18" class="edge">
<title>Node9&#45;&gt;Node12</title>
<path fill="none" stroke="midnightblue" d="M1043.76,-117.45C1057.61,-107.45 1074.02,-95.6 1086.51,-86.58"/>
<polygon fill="midnightblue" stroke="midnightblue" points="1041.59,-114.7 1035.53,-123.4 1045.68,-120.38 1041.59,-114.7"/>
</g>
<!-- Node10&#45;&gt;Node4 -->
<g id="edge15" class="edge">
<title>Node10&#45;&gt;Node4</title>
<path fill="none" stroke="midnightblue" d="M690.31,-52.08C667.61,-41.28 639.97,-28.12 622.19,-19.66"/>
<polygon fill="midnightblue" stroke="midnightblue" points="688.84,-55.26 699.38,-56.4 691.85,-48.94 688.84,-55.26"/>
</g>
<!-- Node11&#45;&gt;Node4 -->
<g id="edge17" class="edge">
<title>Node11&#45;&gt;Node4</title>
<path fill="none" stroke="midnightblue" d="M837.09,-54.61C771.28,-42.3 683.67,-25.91 636.83,-17.14"/>
<polygon fill="midnightblue" stroke="midnightblue" points="836.57,-58.08 847.04,-56.47 837.86,-51.2 836.57,-58.08"/>
</g>
<!-- Node12&#45;&gt;Node4 -->
<g id="edge19" class="edge">
<title>Node12&#45;&gt;Node4</title>
<path fill="none" stroke="midnightblue" d="M1007.89,-56.02C862.77,-37.37 703.67,-20.96 636.52,-14.22"/>
<polygon fill="midnightblue" stroke="midnightblue" points="1007.51,-59.5 1017.87,-57.31 1008.4,-52.56 1007.51,-59.5"/>
</g>
<!-- Node13&#45;&gt;Node4 -->
<g id="edge23" class="edge">
<title>Node13&#45;&gt;Node4</title>
<path fill="none" stroke="midnightblue" d="M934.6,-189.15C998.33,-180.6 1081.61,-167.49 1113,-154 1167.33,-130.65 1243.22,-99.35 1203,-56 1164.3,-14.28 756.22,-10.99 636.71,-10.93"/>
<polygon fill="midnightblue" stroke="midnightblue" points="934,-185.7 924.55,-190.48 934.92,-192.64 934,-185.7"/>
</g>
<!-- Node13&#45;&gt;Node9 -->
<g id="edge22" class="edge">
<title>Node13&#45;&gt;Node9</title>
<path fill="none" stroke="midnightblue" d="M886.74,-186.98C913.08,-177.3 950.13,-163.69 977.82,-153.52"/>
<polygon fill="midnightblue" stroke="midnightblue" points="885.39,-183.74 877.21,-190.48 887.8,-190.31 885.39,-183.74"/>
</g>
<!-- Node14&#45;&gt;Node4 -->
<g id="edge25" class="edge">
<title>Node14&#45;&gt;Node4</title>
<path fill="none" stroke="midnightblue" d="M1104.51,-186.46C1161.2,-162.22 1270.25,-106.81 1223,-56 1182.83,-12.8 758.39,-10.58 636.54,-10.84"/>
<polygon fill="midnightblue" stroke="midnightblue" points="1103.11,-183.25 1095.24,-190.35 1105.82,-189.71 1103.11,-183.25"/>
</g>
<!-- Node15&#45;&gt;Node4 -->
<g id="edge27" class="edge">
<title>Node15&#45;&gt;Node4</title>
<path fill="none" stroke="midnightblue" d="M1296.93,-180.35C1294.01,-148.87 1283.18,-85.73 1243,-56 1194,-19.74 760.22,-12.58 636.69,-11.27"/>
<polygon fill="midnightblue" stroke="midnightblue" points="1293.44,-180.68 1297.68,-190.39 1300.42,-180.16 1293.44,-180.68"/>
</g>
<!-- Node16&#45;&gt;Node4 -->
<g id="edge29" class="edge">
<title>Node16&#45;&gt;Node4</title>
<path fill="none" stroke="midnightblue" d="M1487.27,-183.9C1450.09,-153.27 1360.05,-84.32 1271,-56 1150.72,-17.74 753.36,-12.01 636.56,-11.15"/>
<polygon fill="midnightblue" stroke="midnightblue" points="1485.24,-186.77 1495.16,-190.49 1489.73,-181.4 1485.24,-186.77"/>
</g>
</g>
</svg>
