<?xml version="1.0" encoding="UTF-8" standalone="no"?>
<!DOCTYPE svg PUBLIC "-//W3C//DTD SVG 1.1//EN"
 "http://www.w3.org/Graphics/SVG/1.1/DTD/svg11.dtd">
<!-- Generated by graphviz version 2.43.0 (0)
 -->
<!-- Title: PhaseFieldPotentials.hpp Pages: 1 -->
<svg width="1423pt" height="196pt"
 viewBox="0.00 0.00 1422.50 196.00" xmlns="http://www.w3.org/2000/svg" xmlns:xlink="http://www.w3.org/1999/xlink">
<g id="graph0" class="graph" transform="scale(1 1) rotate(0) translate(4 192)">
<title>PhaseFieldPotentials.hpp</title>
<!-- Node1 -->
<g id="node1" class="node">
<title>Node1</title>
<g id="a_node1"><a xlink:title="Analytical potentials and derivatives used by phase&#45;field models.">
<polygon fill="#bfbfbf" stroke="black" points="1049.5,-168.5 1049.5,-187.5 1195.5,-187.5 1195.5,-168.5 1049.5,-168.5"/>
<text text-anchor="middle" x="1122.5" y="-175.5" font-family="serif" font-size="10.00">PhaseFieldPotentials.hpp</text>
</a>
</g>
</g>
<!-- Node2 -->
<g id="node2" class="node">
<title>Node2</title>
<g id="a_node2"><a xlink:title=" ">
<polygon fill="none" stroke="#bfbfbf" points="1220.5,-0.5 1220.5,-19.5 1286.5,-19.5 1286.5,-0.5 1220.5,-0.5"/>
<text text-anchor="middle" x="1253.5" y="-7.5" font-family="serif" font-size="10.00">algorithm</text>
</a>
</g>
</g>
<!-- Node1&#45;&gt;Node2 -->
<g id="edge1" class="edge">
<title>Node1&#45;&gt;Node2</title>
<path fill="none" stroke="midnightblue" d="M1179.53,-168.48C1232.21,-157.25 1307.59,-131.9 1343.5,-76 1359.06,-51.78 1325.84,-33.7 1295.45,-22.84"/>
<polygon fill="midnightblue" stroke="midnightblue" points="1296.35,-19.45 1285.75,-19.56 1294.11,-26.08 1296.35,-19.45"/>
</g>
<!-- Node3 -->
<g id="node3" class="node">
<title>Node3</title>
<g id="a_node3"><a xlink:title=" ">
<polygon fill="none" stroke="#bfbfbf" points="450.5,-0.5 450.5,-19.5 518.5,-19.5 518.5,-0.5 450.5,-0.5"/>
<text text-anchor="middle" x="484.5" y="-7.5" font-family="serif" font-size="10.00">functional</text>
</a>
</g>
</g>
<!-- Node1&#45;&gt;Node3 -->
<g id="edge2" class="edge">
<title>Node1&#45;&gt;Node3</title>
<path fill="none" stroke="midnightblue" d="M1057.74,-168.45C962.65,-154.82 780.4,-124.66 631.5,-76 587.41,-61.59 538.61,-38.49 509.8,-24.06"/>
<polygon fill="midnightblue" stroke="midnightblue" points="511.33,-20.92 500.83,-19.53 508.17,-27.16 511.33,-20.92"/>
</g>
<!-- Node4 -->
<g id="node4" class="node">
<title>Node4</title>
<g id="a_node4"><a xlink:title=" ">
<polygon fill="none" stroke="#bfbfbf" points="1155,-0.5 1155,-19.5 1202,-19.5 1202,-0.5 1155,-0.5"/>
<text text-anchor="middle" x="1178.5" y="-7.5" font-family="serif" font-size="10.00">string</text>
</a>
</g>
</g>
<!-- Node1&#45;&gt;Node4 -->
<g id="edge3" class="edge">
<title>Node1&#45;&gt;Node4</title>
<path fill="none" stroke="midnightblue" d="M1122.46,-168.36C1122.66,-147.91 1124.99,-95.28 1142.5,-56 1147.22,-45.42 1155.03,-35.2 1162.17,-27.19"/>
<polygon fill="midnightblue" stroke="midnightblue" points="1164.91,-29.39 1169.22,-19.71 1159.82,-24.59 1164.91,-29.39"/>
</g>
<!-- Node5 -->
<g id="node5" class="node">
<title>Node5</title>
<g id="a_node5"><a xlink:title=" ">
<polygon fill="none" stroke="#bfbfbf" points="1366.5,-0.5 1366.5,-19.5 1414.5,-19.5 1414.5,-0.5 1366.5,-0.5"/>
<text text-anchor="middle" x="1390.5" y="-7.5" font-family="serif" font-size="10.00">vector</text>
</a>
</g>
</g>
<!-- Node1&#45;&gt;Node5 -->
<g id="edge4" class="edge">
<title>Node1&#45;&gt;Node5</title>
<path fill="none" stroke="midnightblue" d="M1195.73,-169.95C1231.98,-163.93 1275.22,-152.74 1309.5,-132 1349.03,-108.09 1373.4,-56.66 1384.11,-29.18"/>
<polygon fill="midnightblue" stroke="midnightblue" points="1387.46,-30.22 1387.65,-19.63 1380.89,-27.78 1387.46,-30.22"/>
</g>
<!-- Node6 -->
<g id="node6" class="node">
<title>Node6</title>
<g id="a_node6"><a xlink:href="Utils_8hpp.html" target="_top" xlink:title="List of all Utils files.">
<polygon fill="none" stroke="black" points="896,-112.5 896,-131.5 985,-131.5 985,-112.5 896,-112.5"/>
<text text-anchor="middle" x="940.5" y="-119.5" font-family="serif" font-size="10.00">Utils/Utils.hpp</text>
</a>
</g>
</g>
<!-- Node1&#45;&gt;Node6 -->
<g id="edge5" class="edge">
<title>Node1&#45;&gt;Node6</title>
<path fill="none" stroke="midnightblue" d="M1093.66,-168.44C1062.64,-159.24 1013.17,-144.56 978.88,-134.39"/>
<polygon fill="midnightblue" stroke="midnightblue" points="979.79,-131.01 969.2,-131.52 977.79,-137.72 979.79,-131.01"/>
</g>
<!-- Node7 -->
<g id="node7" class="node">
<title>Node7</title>
<g id="a_node7"><a xlink:href="UtilsForData_8hpp.html" target="_top" xlink:title="Usefull methods for data.">
<polygon fill="none" stroke="black" points="640,-56.5 640,-75.5 771,-75.5 771,-56.5 640,-56.5"/>
<text text-anchor="middle" x="705.5" y="-63.5" font-family="serif" font-size="10.00">Utils/UtilsForData.hpp</text>
</a>
</g>
</g>
<!-- Node6&#45;&gt;Node7 -->
<g id="edge6" class="edge">
<title>Node6&#45;&gt;Node7</title>
<path fill="none" stroke="midnightblue" d="M903.26,-112.44C862.44,-103.06 796.86,-87.99 752.52,-77.8"/>
<polygon fill="midnightblue" stroke="midnightblue" points="753.09,-74.34 742.56,-75.52 751.52,-81.17 753.09,-74.34"/>
</g>
<!-- Node17 -->
<g id="node17" class="node">
<title>Node17</title>
<g id="a_node17"><a xlink:href="UtilsForDebug_8hpp.html" target="_top" xlink:title="Usefull methods for debug.">
<polygon fill="none" stroke="black" points="789,-56.5 789,-75.5 930,-75.5 930,-56.5 789,-56.5"/>
<text text-anchor="middle" x="859.5" y="-63.5" font-family="serif" font-size="10.00">Utils/UtilsForDebug.hpp</text>
</a>
</g>
</g>
<!-- Node6&#45;&gt;Node17 -->
<g id="edge20" class="edge">
<title>Node6&#45;&gt;Node17</title>
<path fill="none" stroke="midnightblue" d="M927.49,-112.32C914.97,-103.98 895.82,-91.21 881.03,-81.35"/>
<polygon fill="midnightblue" stroke="midnightblue" points="882.74,-78.29 872.48,-75.65 878.86,-84.11 882.74,-78.29"/>
</g>
<!-- Node20 -->
<g id="node20" class="node">
<title>Node20</title>
<g id="a_node20"><a xlink:href="UtilsForOptions_8hpp.html" target="_top" xlink:title="Usefull methods for Options.">
<polygon fill="none" stroke="black" points="948.5,-56.5 948.5,-75.5 1094.5,-75.5 1094.5,-56.5 948.5,-56.5"/>
<text text-anchor="middle" x="1021.5" y="-63.5" font-family="serif" font-size="10.00">Utils/UtilsForOptions.hpp</text>
</a>
</g>
</g>
<!-- Node6&#45;&gt;Node20 -->
<g id="edge30" class="edge">
<title>Node6&#45;&gt;Node20</title>
<path fill="none" stroke="midnightblue" d="M953.51,-112.32C966.03,-103.98 985.18,-91.21 999.97,-81.35"/>
<polygon fill="midnightblue" stroke="midnightblue" points="1002.14,-84.11 1008.52,-75.65 998.26,-78.29 1002.14,-84.11"/>
</g>
<!-- Node23 -->
<g id="node23" class="node">
<title>Node23</title>
<g id="a_node23"><a xlink:href="UtilsForPostProcessing_8hpp.html" target="_top" xlink:title="Usefull methods for post&#45;processing.">
<polygon fill="none" stroke="black" points="1151,-56.5 1151,-75.5 1334,-75.5 1334,-56.5 1151,-56.5"/>
<text text-anchor="middle" x="1242.5" y="-63.5" font-family="serif" font-size="10.00">Utils/UtilsForPostProcessing.hpp</text>
</a>
</g>
</g>
<!-- Node6&#45;&gt;Node23 -->
<g id="edge40" class="edge">
<title>Node6&#45;&gt;Node23</title>
<path fill="none" stroke="midnightblue" d="M985.06,-113.03C1038,-103.57 1126.44,-87.75 1184.62,-77.35"/>
<polygon fill="midnightblue" stroke="midnightblue" points="1185.53,-80.74 1194.76,-75.54 1184.3,-73.85 1185.53,-80.74"/>
</g>
<!-- Node24 -->
<g id="node24" class="node">
<title>Node24</title>
<g id="a_node24"><a xlink:href="UtilsForVariants_8hpp.html" target="_top" xlink:title="manage std::Variants">
<polygon fill="none" stroke="black" points="125.5,-56.5 125.5,-75.5 273.5,-75.5 273.5,-56.5 125.5,-56.5"/>
<text text-anchor="middle" x="199.5" y="-63.5" font-family="serif" font-size="10.00">Utils/UtilsForVariants.hpp</text>
</a>
</g>
</g>
<!-- Node6&#45;&gt;Node24 -->
<g id="edge47" class="edge">
<title>Node6&#45;&gt;Node24</title>
<path fill="none" stroke="midnightblue" d="M895.82,-117.74C775.18,-108.95 441.41,-84.63 283.88,-73.15"/>
<polygon fill="midnightblue" stroke="midnightblue" points="283.99,-69.65 273.76,-72.41 283.48,-76.63 283.99,-69.65"/>
</g>
<!-- Node7&#45;&gt;Node2 -->
<g id="edge10" class="edge">
<title>Node7&#45;&gt;Node2</title>
<path fill="none" stroke="midnightblue" d="M771.34,-56.96C774.43,-56.63 777.5,-56.31 780.5,-56 968.47,-36.88 1019.62,-47.81 1210.04,-20.04"/>
<polygon fill="midnightblue" stroke="midnightblue" points="1210.72,-23.48 1220.1,-18.56 1209.7,-16.56 1210.72,-23.48"/>
</g>
<!-- Node7&#45;&gt;Node3 -->
<g id="edge12" class="edge">
<title>Node7&#45;&gt;Node3</title>
<path fill="none" stroke="midnightblue" d="M670.48,-56.44C632.03,-47.05 570.21,-31.94 528.51,-21.75"/>
<polygon fill="midnightblue" stroke="midnightblue" points="529.17,-18.31 518.63,-19.34 527.51,-25.11 529.17,-18.31"/>
</g>
<!-- Node7&#45;&gt;Node4 -->
<g id="edge15" class="edge">
<title>Node7&#45;&gt;Node4</title>
<path fill="none" stroke="midnightblue" d="M771.34,-57.02C774.44,-56.67 777.5,-56.33 780.5,-56 939.22,-38.65 983.39,-49.1 1144.54,-19.86"/>
<polygon fill="midnightblue" stroke="midnightblue" points="1145.61,-23.22 1154.82,-17.97 1144.35,-16.34 1145.61,-23.22"/>
</g>
<!-- Node7&#45;&gt;Node5 -->
<g id="edge18" class="edge">
<title>Node7&#45;&gt;Node5</title>
<path fill="none" stroke="midnightblue" d="M771.33,-56.89C774.43,-56.57 777.5,-56.27 780.5,-56 1033.13,-32.98 1102.27,-61.28 1356.57,-19.8"/>
<polygon fill="midnightblue" stroke="midnightblue" points="1357.18,-23.24 1366.48,-18.16 1356.04,-16.34 1357.18,-23.24"/>
</g>
<!-- Node8 -->
<g id="node8" class="node">
<title>Node8</title>
<g id="a_node8"><a xlink:title=" ">
<polygon fill="none" stroke="#bfbfbf" points="689,-0.5 689,-19.5 748,-19.5 748,-0.5 689,-0.5"/>
<text text-anchor="middle" x="718.5" y="-7.5" font-family="serif" font-size="10.00">unistd.h</text>
</a>
</g>
</g>
<!-- Node7&#45;&gt;Node8 -->
<g id="edge7" class="edge">
<title>Node7&#45;&gt;Node8</title>
<path fill="none" stroke="midnightblue" d="M707.65,-56.08C709.37,-48.93 711.85,-38.64 714,-29.69"/>
<polygon fill="midnightblue" stroke="midnightblue" points="717.46,-30.29 716.39,-19.75 710.65,-28.65 717.46,-30.29"/>
</g>
<!-- Node9 -->
<g id="node9" class="node">
<title>Node9</title>
<g id="a_node9"><a xlink:title=" ">
<polygon fill="none" stroke="#bfbfbf" points="324.5,-0.5 324.5,-19.5 374.5,-19.5 374.5,-0.5 324.5,-0.5"/>
<text text-anchor="middle" x="349.5" y="-7.5" font-family="serif" font-size="10.00">cctype</text>
</a>
</g>
</g>
<!-- Node7&#45;&gt;Node9 -->
<g id="edge8" class="edge">
<title>Node7&#45;&gt;Node9</title>
<path fill="none" stroke="midnightblue" d="M639.97,-58C574.84,-50.53 472.27,-37.38 384.5,-20 384.4,-19.98 384.3,-19.96 384.2,-19.94"/>
<polygon fill="midnightblue" stroke="midnightblue" points="385.18,-16.57 374.66,-17.83 383.67,-23.41 385.18,-16.57"/>
</g>
<!-- Node10 -->
<g id="node10" class="node">
<title>Node10</title>
<g id="a_node10"><a xlink:title=" ">
<polygon fill="none" stroke="#bfbfbf" points="537,-0.5 537,-19.5 584,-19.5 584,-0.5 537,-0.5"/>
<text text-anchor="middle" x="560.5" y="-7.5" font-family="serif" font-size="10.00">cstdio</text>
</a>
</g>
</g>
<!-- Node7&#45;&gt;Node10 -->
<g id="edge9" class="edge">
<title>Node7&#45;&gt;Node10</title>
<path fill="none" stroke="midnightblue" d="M682.52,-56.44C658.34,-47.44 620.08,-33.19 592.85,-23.05"/>
<polygon fill="midnightblue" stroke="midnightblue" points="593.96,-19.73 583.37,-19.52 591.52,-26.29 593.96,-19.73"/>
</g>
<!-- Node11 -->
<g id="node11" class="node">
<title>Node11</title>
<g id="a_node11"><a xlink:title=" ">
<polygon fill="none" stroke="#bfbfbf" points="166.5,-0.5 166.5,-19.5 234.5,-19.5 234.5,-0.5 166.5,-0.5"/>
<text text-anchor="middle" x="200.5" y="-7.5" font-family="serif" font-size="10.00">filesystem</text>
</a>
</g>
</g>
<!-- Node7&#45;&gt;Node11 -->
<g id="edge11" class="edge">
<title>Node7&#45;&gt;Node11</title>
<path fill="none" stroke="midnightblue" d="M639.96,-60.77C550.33,-54.49 384.65,-41.11 244.5,-20 244.4,-19.98 244.3,-19.97 244.2,-19.95"/>
<polygon fill="midnightblue" stroke="midnightblue" points="244.99,-16.54 234.55,-18.33 243.83,-23.44 244.99,-16.54"/>
</g>
<!-- Node12 -->
<g id="node12" class="node">
<title>Node12</title>
<g id="a_node12"><a xlink:title=" ">
<polygon fill="none" stroke="#bfbfbf" points="1011,-0.5 1011,-19.5 1072,-19.5 1072,-0.5 1011,-0.5"/>
<text text-anchor="middle" x="1041.5" y="-7.5" font-family="serif" font-size="10.00">iostream</text>
</a>
</g>
</g>
<!-- Node7&#45;&gt;Node12 -->
<g id="edge13" class="edge">
<title>Node7&#45;&gt;Node12</title>
<path fill="none" stroke="midnightblue" d="M770.39,-56.47C828.28,-48.56 915.55,-35.89 1001.09,-19.96"/>
<polygon fill="midnightblue" stroke="midnightblue" points="1001.79,-23.39 1010.97,-18.1 1000.5,-16.51 1001.79,-23.39"/>
</g>
<!-- Node13 -->
<g id="node13" class="node">
<title>Node13</title>
<g id="a_node13"><a xlink:title=" ">
<polygon fill="none" stroke="#bfbfbf" points="393,-0.5 393,-19.5 432,-19.5 432,-0.5 393,-0.5"/>
<text text-anchor="middle" x="412.5" y="-7.5" font-family="serif" font-size="10.00">map</text>
</a>
</g>
</g>
<!-- Node7&#45;&gt;Node13 -->
<g id="edge14" class="edge">
<title>Node7&#45;&gt;Node13</title>
<path fill="none" stroke="midnightblue" d="M641.27,-56.48C589.83,-49.1 515.69,-37.22 441.98,-19.83"/>
<polygon fill="midnightblue" stroke="midnightblue" points="442.6,-16.38 432.06,-17.45 440.97,-23.19 442.6,-16.38"/>
</g>
<!-- Node14 -->
<g id="node14" class="node">
<title>Node14</title>
<g id="a_node14"><a xlink:title=" ">
<polygon fill="none" stroke="#bfbfbf" points="841,-0.5 841,-19.5 884,-19.5 884,-0.5 841,-0.5"/>
<text text-anchor="middle" x="862.5" y="-7.5" font-family="serif" font-size="10.00">tuple</text>
</a>
</g>
</g>
<!-- Node7&#45;&gt;Node14 -->
<g id="edge16" class="edge">
<title>Node7&#45;&gt;Node14</title>
<path fill="none" stroke="midnightblue" d="M730.38,-56.44C757.6,-47.08 801.31,-32.05 830.93,-21.86"/>
<polygon fill="midnightblue" stroke="midnightblue" points="832.45,-25.04 840.77,-18.47 830.18,-18.42 832.45,-25.04"/>
</g>
<!-- Node15 -->
<g id="node15" class="node">
<title>Node15</title>
<g id="a_node15"><a xlink:title=" ">
<polygon fill="none" stroke="#bfbfbf" points="1090.5,-0.5 1090.5,-19.5 1136.5,-19.5 1136.5,-0.5 1090.5,-0.5"/>
<text text-anchor="middle" x="1113.5" y="-7.5" font-family="serif" font-size="10.00">utility</text>
</a>
</g>
</g>
<!-- Node7&#45;&gt;Node15 -->
<g id="edge17" class="edge">
<title>Node7&#45;&gt;Node15</title>
<path fill="none" stroke="midnightblue" d="M771.35,-57.1C774.44,-56.73 777.51,-56.36 780.5,-56 911.01,-40.36 947.59,-46.02 1080.05,-20.02"/>
<polygon fill="midnightblue" stroke="midnightblue" points="1081.06,-23.39 1090.18,-18.01 1079.69,-16.53 1081.06,-23.39"/>
</g>
<!-- Node16 -->
<g id="node16" class="node">
<title>Node16</title>
<g id="a_node16"><a xlink:title=" ">
<polygon fill="none" stroke="#bfbfbf" points="602,-0.5 602,-19.5 671,-19.5 671,-0.5 602,-0.5"/>
<text text-anchor="middle" x="636.5" y="-7.5" font-family="serif" font-size="10.00">mfem.hpp</text>
</a>
</g>
</g>
<!-- Node7&#45;&gt;Node16 -->
<g id="edge19" class="edge">
<title>Node7&#45;&gt;Node16</title>
<path fill="none" stroke="midnightblue" d="M694.41,-56.32C684.01,-48.18 668.24,-35.84 655.78,-26.09"/>
<polygon fill="midnightblue" stroke="midnightblue" points="657.82,-23.24 647.79,-19.83 653.51,-28.75 657.82,-23.24"/>
</g>
<!-- Node17&#45;&gt;Node3 -->
<g id="edge25" class="edge">
<title>Node17&#45;&gt;Node3</title>
<path fill="none" stroke="midnightblue" d="M788.91,-56.79C721.76,-48.65 617.98,-35.22 528.5,-20 528.4,-19.98 528.3,-19.97 528.2,-19.95"/>
<polygon fill="midnightblue" stroke="midnightblue" points="529.03,-16.54 518.57,-18.2 527.78,-23.43 529.03,-16.54"/>
</g>
<!-- Node17&#45;&gt;Node4 -->
<g id="edge27" class="edge">
<title>Node17&#45;&gt;Node4</title>
<path fill="none" stroke="midnightblue" d="M927.21,-56.49C983.13,-48.97 1064.73,-36.87 1145,-19.9"/>
<polygon fill="midnightblue" stroke="midnightblue" points="1145.74,-23.32 1154.78,-17.8 1144.27,-16.48 1145.74,-23.32"/>
</g>
<!-- Node17&#45;&gt;Node8 -->
<g id="edge22" class="edge">
<title>Node17&#45;&gt;Node8</title>
<path fill="none" stroke="midnightblue" d="M837.16,-56.44C813.75,-47.48 776.76,-33.31 750.31,-23.18"/>
<polygon fill="midnightblue" stroke="midnightblue" points="751.33,-19.82 740.74,-19.52 748.82,-26.36 751.33,-19.82"/>
</g>
<!-- Node17&#45;&gt;Node10 -->
<g id="edge23" class="edge">
<title>Node17&#45;&gt;Node10</title>
<path fill="none" stroke="midnightblue" d="M798.95,-56.5C747.15,-48.83 670.42,-36.54 594.45,-20.02"/>
<polygon fill="midnightblue" stroke="midnightblue" points="594.74,-16.5 584.22,-17.77 593.24,-23.34 594.74,-16.5"/>
</g>
<!-- Node17&#45;&gt;Node12 -->
<g id="edge26" class="edge">
<title>Node17&#45;&gt;Node12</title>
<path fill="none" stroke="midnightblue" d="M888.34,-56.44C919.36,-47.24 968.83,-32.56 1003.12,-22.39"/>
<polygon fill="midnightblue" stroke="midnightblue" points="1004.21,-25.72 1012.8,-19.52 1002.21,-19.01 1004.21,-25.72"/>
</g>
<!-- Node17&#45;&gt;Node15 -->
<g id="edge28" class="edge">
<title>Node17&#45;&gt;Node15</title>
<path fill="none" stroke="midnightblue" d="M906.93,-56.44C949.83,-48.46 1014.93,-35.77 1080.4,-20.13"/>
<polygon fill="midnightblue" stroke="midnightblue" points="1081.58,-23.44 1090.48,-17.69 1079.94,-16.64 1081.58,-23.44"/>
</g>
<!-- Node17&#45;&gt;Node16 -->
<g id="edge29" class="edge">
<title>Node17&#45;&gt;Node16</title>
<path fill="none" stroke="midnightblue" d="M824.16,-56.44C785.48,-47.07 723.35,-32.03 681.28,-21.84"/>
<polygon fill="midnightblue" stroke="midnightblue" points="681.85,-18.38 671.3,-19.43 680.2,-25.18 681.85,-18.38"/>
</g>
<!-- Node18 -->
<g id="node18" class="node">
<title>Node18</title>
<g id="a_node18"><a xlink:title=" ">
<polygon fill="none" stroke="#bfbfbf" points="902.5,-0.5 902.5,-19.5 992.5,-19.5 992.5,-0.5 902.5,-0.5"/>
<text text-anchor="middle" x="947.5" y="-7.5" font-family="serif" font-size="10.00">sys/resource.h</text>
</a>
</g>
</g>
<!-- Node17&#45;&gt;Node18 -->
<g id="edge21" class="edge">
<title>Node17&#45;&gt;Node18</title>
<path fill="none" stroke="midnightblue" d="M873.64,-56.32C887.37,-47.9 908.44,-34.97 924.56,-25.07"/>
<polygon fill="midnightblue" stroke="midnightblue" points="926.7,-27.87 933.4,-19.65 923.04,-21.9 926.7,-27.87"/>
</g>
<!-- Node19 -->
<g id="node19" class="node">
<title>Node19</title>
<g id="a_node19"><a xlink:title=" ">
<polygon fill="none" stroke="#bfbfbf" points="766.5,-0.5 766.5,-19.5 822.5,-19.5 822.5,-0.5 766.5,-0.5"/>
<text text-anchor="middle" x="794.5" y="-7.5" font-family="serif" font-size="10.00">fstream</text>
</a>
</g>
</g>
<!-- Node17&#45;&gt;Node19 -->
<g id="edge24" class="edge">
<title>Node17&#45;&gt;Node19</title>
<path fill="none" stroke="midnightblue" d="M849.06,-56.32C839.35,-48.26 824.68,-36.08 813,-26.37"/>
<polygon fill="midnightblue" stroke="midnightblue" points="815.06,-23.53 805.13,-19.83 810.59,-28.92 815.06,-23.53"/>
</g>
<!-- Node20&#45;&gt;Node2 -->
<g id="edge31" class="edge">
<title>Node20&#45;&gt;Node2</title>
<path fill="none" stroke="midnightblue" d="M1058.26,-56.44C1099.63,-46.81 1166.75,-31.19 1210.52,-21"/>
<polygon fill="midnightblue" stroke="midnightblue" points="1211.35,-24.4 1220.29,-18.73 1209.76,-17.59 1211.35,-24.4"/>
</g>
<!-- Node20&#45;&gt;Node3 -->
<g id="edge32" class="edge">
<title>Node20&#45;&gt;Node3</title>
<path fill="none" stroke="midnightblue" d="M948.19,-56.87C945.26,-56.57 942.35,-56.28 939.5,-56 757.02,-38 709.95,-46.42 528.5,-20 528.4,-19.99 528.3,-19.97 528.2,-19.96"/>
<polygon fill="midnightblue" stroke="midnightblue" points="528.98,-16.54 518.54,-18.36 527.84,-23.44 528.98,-16.54"/>
</g>
<!-- Node20&#45;&gt;Node4 -->
<g id="edge35" class="edge">
<title>Node20&#45;&gt;Node4</title>
<path fill="none" stroke="midnightblue" d="M1046.38,-56.44C1073.1,-47.25 1115.7,-32.6 1145.28,-22.43"/>
<polygon fill="midnightblue" stroke="midnightblue" points="1146.45,-25.73 1154.77,-19.16 1144.17,-19.11 1146.45,-25.73"/>
</g>
<!-- Node20&#45;&gt;Node5 -->
<g id="edge39" class="edge">
<title>Node20&#45;&gt;Node5</title>
<path fill="none" stroke="midnightblue" d="M1094.72,-58.03C1160.83,-51.1 1260.89,-38.99 1356.59,-19.95"/>
<polygon fill="midnightblue" stroke="midnightblue" points="1357.33,-23.37 1366.44,-17.96 1355.94,-16.51 1357.33,-23.37"/>
</g>
<!-- Node20&#45;&gt;Node12 -->
<g id="edge33" class="edge">
<title>Node20&#45;&gt;Node12</title>
<path fill="none" stroke="midnightblue" d="M1024.8,-56.08C1027.48,-48.85 1031.35,-38.41 1034.69,-29.4"/>
<polygon fill="midnightblue" stroke="midnightblue" points="1038.07,-30.34 1038.26,-19.75 1031.5,-27.91 1038.07,-30.34"/>
</g>
<!-- Node20&#45;&gt;Node14 -->
<g id="edge36" class="edge">
<title>Node20&#45;&gt;Node14</title>
<path fill="none" stroke="midnightblue" d="M996.31,-56.44C968.46,-46.99 923.57,-31.74 893.57,-21.55"/>
<polygon fill="midnightblue" stroke="midnightblue" points="894.6,-18.21 884.01,-18.3 892.35,-24.83 894.6,-18.21"/>
</g>
<!-- Node20&#45;&gt;Node15 -->
<g id="edge37" class="edge">
<title>Node20&#45;&gt;Node15</title>
<path fill="none" stroke="midnightblue" d="M1036.28,-56.32C1050.77,-47.82 1073.07,-34.73 1089.99,-24.8"/>
<polygon fill="midnightblue" stroke="midnightblue" points="1091.9,-27.74 1098.76,-19.65 1088.36,-21.7 1091.9,-27.74"/>
</g>
<!-- Node21 -->
<g id="node21" class="node">
<title>Node21</title>
<g id="a_node21"><a xlink:title=" ">
<polygon fill="none" stroke="#bfbfbf" points="1304.5,-0.5 1304.5,-19.5 1348.5,-19.5 1348.5,-0.5 1304.5,-0.5"/>
<text text-anchor="middle" x="1326.5" y="-7.5" font-family="serif" font-size="10.00">limits</text>
</a>
</g>
</g>
<!-- Node20&#45;&gt;Node21 -->
<g id="edge34" class="edge">
<title>Node20&#45;&gt;Node21</title>
<path fill="none" stroke="midnightblue" d="M1086.97,-56.5C1140.47,-49.03 1218.17,-37.03 1294.45,-20.02"/>
<polygon fill="midnightblue" stroke="midnightblue" points="1295.25,-23.43 1304.23,-17.81 1293.71,-16.6 1295.25,-23.43"/>
</g>
<!-- Node22 -->
<g id="node22" class="node">
<title>Node22</title>
<g id="a_node22"><a xlink:title=" ">
<polygon fill="none" stroke="#bfbfbf" points="253,-0.5 253,-19.5 306,-19.5 306,-0.5 253,-0.5"/>
<text text-anchor="middle" x="279.5" y="-7.5" font-family="serif" font-size="10.00">variant</text>
</a>
</g>
</g>
<!-- Node20&#45;&gt;Node22 -->
<g id="edge38" class="edge">
<title>Node20&#45;&gt;Node22</title>
<path fill="none" stroke="midnightblue" d="M948.2,-56.77C945.26,-56.5 942.35,-56.24 939.5,-56 665.92,-33.11 591.85,-61.2 316.02,-19.75"/>
<polygon fill="midnightblue" stroke="midnightblue" points="316.54,-16.29 306.12,-18.25 315.48,-23.21 316.54,-16.29"/>
</g>
<!-- Node23&#45;&gt;Node2 -->
<g id="edge41" class="edge">
<title>Node23&#45;&gt;Node2</title>
<path fill="none" stroke="midnightblue" d="M1244.32,-56.08C1245.77,-48.93 1247.87,-38.64 1249.69,-29.69"/>
<polygon fill="midnightblue" stroke="midnightblue" points="1253.15,-30.25 1251.72,-19.75 1246.29,-28.85 1253.15,-30.25"/>
</g>
<!-- Node23&#45;&gt;Node4 -->
<g id="edge44" class="edge">
<title>Node23&#45;&gt;Node4</title>
<path fill="none" stroke="midnightblue" d="M1232.22,-56.32C1222.66,-48.26 1208.22,-36.08 1196.72,-26.37"/>
<polygon fill="midnightblue" stroke="midnightblue" points="1198.87,-23.61 1188.97,-19.83 1194.36,-28.96 1198.87,-23.61"/>
</g>
<!-- Node23&#45;&gt;Node5 -->
<g id="edge46" class="edge">
<title>Node23&#45;&gt;Node5</title>
<path fill="none" stroke="midnightblue" d="M1265.95,-56.44C1290.63,-47.44 1329.69,-33.19 1357.48,-23.05"/>
<polygon fill="midnightblue" stroke="midnightblue" points="1358.96,-26.23 1367.16,-19.52 1356.56,-19.66 1358.96,-26.23"/>
</g>
<!-- Node23&#45;&gt;Node12 -->
<g id="edge42" class="edge">
<title>Node23&#45;&gt;Node12</title>
<path fill="none" stroke="midnightblue" d="M1210.65,-56.44C1175.8,-47.08 1119.84,-32.05 1081.92,-21.86"/>
<polygon fill="midnightblue" stroke="midnightblue" points="1082.78,-18.47 1072.21,-19.25 1080.96,-25.23 1082.78,-18.47"/>
</g>
<!-- Node23&#45;&gt;Node15 -->
<g id="edge45" class="edge">
<title>Node23&#45;&gt;Node15</title>
<path fill="none" stroke="midnightblue" d="M1222.06,-56.44C1200.83,-47.56 1167.4,-33.56 1143.25,-23.45"/>
<polygon fill="midnightblue" stroke="midnightblue" points="1144.42,-20.15 1133.84,-19.52 1141.72,-26.61 1144.42,-20.15"/>
</g>
<!-- Node23&#45;&gt;Node21 -->
<g id="edge43" class="edge">
<title>Node23&#45;&gt;Node21</title>
<path fill="none" stroke="midnightblue" d="M1256,-56.32C1269.1,-47.9 1289.21,-34.97 1304.61,-25.07"/>
<polygon fill="midnightblue" stroke="midnightblue" points="1306.52,-28.01 1313.04,-19.65 1302.73,-22.12 1306.52,-28.01"/>
</g>
<!-- Node24&#45;&gt;Node22 -->
<g id="edge50" class="edge">
<title>Node24&#45;&gt;Node22</title>
<path fill="none" stroke="midnightblue" d="M212.35,-56.32C224.72,-47.98 243.63,-35.21 258.24,-25.35"/>
<polygon fill="midnightblue" stroke="midnightblue" points="260.35,-28.15 266.68,-19.65 256.43,-22.35 260.35,-28.15"/>
</g>
<!-- Node25 -->
<g id="node25" class="node">
<title>Node25</title>
<g id="a_node25"><a xlink:title=" ">
<polygon fill="none" stroke="#bfbfbf" points="89,-0.5 89,-19.5 148,-19.5 148,-0.5 89,-0.5"/>
<text text-anchor="middle" x="118.5" y="-7.5" font-family="serif" font-size="10.00">memory</text>
</a>
</g>
</g>
<!-- Node24&#45;&gt;Node25 -->
<g id="edge48" class="edge">
<title>Node24&#45;&gt;Node25</title>
<path fill="none" stroke="midnightblue" d="M186.49,-56.32C173.97,-47.98 154.82,-35.21 140.03,-25.35"/>
<polygon fill="midnightblue" stroke="midnightblue" points="141.74,-22.29 131.48,-19.65 137.86,-28.11 141.74,-22.29"/>
</g>
<!-- Node26 -->
<g id="node26" class="node">
<title>Node26</title>
<g id="a_node26"><a xlink:title=" ">
<polygon fill="none" stroke="#bfbfbf" points="0,-0.5 0,-19.5 71,-19.5 71,-0.5 0,-0.5"/>
<text text-anchor="middle" x="35.5" y="-7.5" font-family="serif" font-size="10.00">type_traits</text>
</a>
</g>
</g>
<!-- Node24&#45;&gt;Node26 -->
<g id="edge49" class="edge">
<title>Node24&#45;&gt;Node26</title>
<path fill="none" stroke="midnightblue" d="M173.51,-56.44C145.8,-47.32 101.75,-32.81 70.88,-22.65"/>
<polygon fill="midnightblue" stroke="midnightblue" points="71.96,-19.32 61.36,-19.52 69.77,-25.97 71.96,-19.32"/>
</g>
</g>
</svg>
