<?xml version="1.0" encoding="UTF-8" standalone="no"?>
<!DOCTYPE svg PUBLIC "-//W3C//DTD SVG 1.1//EN"
 "http://www.w3.org/Graphics/SVG/1.1/DTD/svg11.dtd">
<!-- Generated by graphviz version 2.43.0 (0)
 -->
<!-- Title: PhaseChangeFunction.hpp Pages: 1 -->
<!--zoomable 196 -->
<svg id="main" version="1.1" xmlns="http://www.w3.org/2000/svg" xmlns:xlink="http://www.w3.org/1999/xlink" xml:space="preserve" onload="init(evt)">
<style type="text/css"><![CDATA[
.edge:hover path { stroke: red; }
.edge:hover polygon { stroke: red; fill: red; }
]]></style>
<script type="text/javascript"><![CDATA[
var edges = document.getElementsByTagName('g');
if (edges && edges.length) {
  for (var i=0;i<edges.length;i++) {
    if (edges[i].id.substr(0,4)=='edge') {
      edges[i].setAttribute('class','edge');
    }
  }
}
]]></script>
        <defs>
                <circle id="rim" cx="0" cy="0" r="7"/>
                <circle id="rim2" cx="0" cy="0" r="3.5"/>
                <g id="zoomPlus">
                        <use xlink:href="#rim" fill="#404040">
                                <set attributeName="fill" to="#808080" begin="zoomplus.mouseover" end="zoomplus.mouseout"/>
                        </use>
                        <path d="M-4,0h8M0,-4v8" fill="none" stroke="white" stroke-width="1.5" pointer-events="none"/>
                </g>
                <g id="zoomMin">
                        <use xlink:href="#rim" fill="#404040">
                                <set attributeName="fill" to="#808080" begin="zoomminus.mouseover" end="zoomminus.mouseout"/>
                        </use>
                        <path d="M-4,0h8" fill="none" stroke="white" stroke-width="1.5" pointer-events="none"/>
                </g>
                <g id="dirArrow">
                        <path fill="none" stroke="white" stroke-width="1.5" d="M0,-3.0v7 M-2.5,-0.5L0,-3.0L2.5,-0.5"/>
                </g>
               <g id="resetDef">
                       <use xlink:href="#rim2" fill="#404040">
                               <set attributeName="fill" to="#808080" begin="reset.mouseover" end="reset.mouseout"/>
                       </use>
               </g>
        </defs>

<script type="text/javascript">
var viewWidth = 1420;
var viewHeight = 196;
var sectionId = 'dynsection-0';
</script>
<script xlink:href="svgpan.js"/>
<svg id="graph" class="graph">
<g id="viewport">
<title>PhaseChangeFunction.hpp</title>
<!-- Node1 -->
<g id="node1" class="node">
<title>Node1</title>
<g id="a_node1"><a xlink:title="PhaseChange Functions.">
<polygon fill="#bfbfbf" stroke="black" points="575,-168.5 575,-187.5 730,-187.5 730,-168.5 575,-168.5"/>
<text text-anchor="middle" x="652.5" y="-175.5" font-family="serif" font-size="10.00">PhaseChangeFunction.hpp</text>
</a>
</g>
</g>
<!-- Node2 -->
<g id="node2" class="node">
<title>Node2</title>
<g id="a_node2"><a xlink:title=" ">
<polygon fill="none" stroke="#bfbfbf" points="655.5,-0.5 655.5,-19.5 723.5,-19.5 723.5,-0.5 655.5,-0.5"/>
<text text-anchor="middle" x="689.5" y="-7.5" font-family="serif" font-size="10.00">functional</text>
</a>
</g>
</g>
<!-- Node1&#45;&gt;Node2 -->
<g id="edge1" class="edge">
<title>Node1&#45;&gt;Node2</title>
<path fill="none" stroke="midnightblue" d="M654.49,-168.08C660.31,-141.95 677.42,-65.21 685.36,-29.58"/>
<polygon fill="midnightblue" stroke="midnightblue" points="688.83,-30.09 687.59,-19.57 682,-28.57 688.83,-30.09"/>
</g>
<!-- Node3 -->
<g id="node3" class="node">
<title>Node3</title>
<g id="a_node3"><a xlink:title=" ">
<polygon fill="none" stroke="#bfbfbf" points="953,-0.5 953,-19.5 1000,-19.5 1000,-0.5 953,-0.5"/>
<text text-anchor="middle" x="976.5" y="-7.5" font-family="serif" font-size="10.00">string</text>
</a>
</g>
</g>
<!-- Node1&#45;&gt;Node3 -->
<g id="edge2" class="edge">
<title>Node1&#45;&gt;Node3</title>
<path fill="none" stroke="midnightblue" d="M670.83,-168.37C706.99,-151.28 789.95,-111.66 858.5,-76 891.33,-58.92 928.64,-38.13 952.37,-24.73"/>
<polygon fill="midnightblue" stroke="midnightblue" points="954.37,-27.62 961.35,-19.65 950.92,-21.53 954.37,-27.62"/>
</g>
<!-- Node4 -->
<g id="node4" class="node">
<title>Node4</title>
<g id="a_node4"><a xlink:title=" ">
<polygon fill="none" stroke="#bfbfbf" points="237.5,-0.5 237.5,-19.5 285.5,-19.5 285.5,-0.5 237.5,-0.5"/>
<text text-anchor="middle" x="261.5" y="-7.5" font-family="serif" font-size="10.00">vector</text>
</a>
</g>
</g>
<!-- Node1&#45;&gt;Node4 -->
<g id="edge3" class="edge">
<title>Node1&#45;&gt;Node4</title>
<path fill="none" stroke="midnightblue" d="M574.82,-169.97C499.43,-159.81 384.94,-135.19 304.5,-76 288.19,-64 276.25,-43.81 269.15,-29.11"/>
<polygon fill="midnightblue" stroke="midnightblue" points="272.15,-27.25 264.84,-19.58 265.77,-30.13 272.15,-27.25"/>
</g>
<!-- Node5 -->
<g id="node5" class="node">
<title>Node5</title>
<g id="a_node5"><a xlink:href="Utils_8hpp.html" target="_top" xlink:title="List of all Utils files.">
<polygon fill="none" stroke="black" points="548,-112.5 548,-131.5 637,-131.5 637,-112.5 548,-112.5"/>
<text text-anchor="middle" x="592.5" y="-119.5" font-family="serif" font-size="10.00">Utils/Utils.hpp</text>
</a>
</g>
</g>
<!-- Node1&#45;&gt;Node5 -->
<g id="edge4" class="edge">
<title>Node1&#45;&gt;Node5</title>
<path fill="none" stroke="midnightblue" d="M642.86,-168.32C633.99,-160.34 620.63,-148.31 609.89,-138.65"/>
<polygon fill="midnightblue" stroke="midnightblue" points="612.09,-135.92 602.32,-131.83 607.41,-141.13 612.09,-135.92"/>
</g>
<!-- Node6 -->
<g id="node6" class="node">
<title>Node6</title>
<g id="a_node6"><a xlink:href="UtilsForData_8hpp.html" target="_top" xlink:title="Usefull methods for data.">
<polygon fill="none" stroke="black" points="718,-56.5 718,-75.5 849,-75.5 849,-56.5 718,-56.5"/>
<text text-anchor="middle" x="783.5" y="-63.5" font-family="serif" font-size="10.00">Utils/UtilsForData.hpp</text>
</a>
</g>
</g>
<!-- Node5&#45;&gt;Node6 -->
<g id="edge5" class="edge">
<title>Node5&#45;&gt;Node6</title>
<path fill="none" stroke="midnightblue" d="M622.76,-112.44C655.46,-103.2 707.68,-88.44 743.68,-78.26"/>
<polygon fill="midnightblue" stroke="midnightblue" points="744.71,-81.61 753.38,-75.52 742.8,-74.87 744.71,-81.61"/>
</g>
<!-- Node17 -->
<g id="node17" class="node">
<title>Node17</title>
<g id="a_node17"><a xlink:href="UtilsForDebug_8hpp.html" target="_top" xlink:title="Usefull methods for debug.">
<polygon fill="none" stroke="black" points="959,-56.5 959,-75.5 1100,-75.5 1100,-56.5 959,-56.5"/>
<text text-anchor="middle" x="1029.5" y="-63.5" font-family="serif" font-size="10.00">Utils/UtilsForDebug.hpp</text>
</a>
</g>
</g>
<!-- Node5&#45;&gt;Node17 -->
<g id="edge19" class="edge">
<title>Node5&#45;&gt;Node17</title>
<path fill="none" stroke="midnightblue" d="M637.21,-115.47C710.91,-106.37 858.85,-88.09 950.5,-76.76"/>
<polygon fill="midnightblue" stroke="midnightblue" points="951.07,-80.22 960.56,-75.52 950.21,-73.27 951.07,-80.22"/>
</g>
<!-- Node20 -->
<g id="node20" class="node">
<title>Node20</title>
<g id="a_node20"><a xlink:href="UtilsForOptions_8hpp.html" target="_top" xlink:title="Usefull methods for Options.">
<polygon fill="none" stroke="black" points="313.5,-56.5 313.5,-75.5 459.5,-75.5 459.5,-56.5 313.5,-56.5"/>
<text text-anchor="middle" x="386.5" y="-63.5" font-family="serif" font-size="10.00">Utils/UtilsForOptions.hpp</text>
</a>
</g>
</g>
<!-- Node5&#45;&gt;Node20 -->
<g id="edge29" class="edge">
<title>Node5&#45;&gt;Node20</title>
<path fill="none" stroke="midnightblue" d="M559.86,-112.44C524.45,-103.16 467.79,-88.31 428.95,-78.13"/>
<polygon fill="midnightblue" stroke="midnightblue" points="429.55,-74.67 418.99,-75.52 427.77,-81.44 429.55,-74.67"/>
</g>
<!-- Node23 -->
<g id="node23" class="node">
<title>Node23</title>
<g id="a_node23"><a xlink:href="UtilsForPostProcessing_8hpp.html" target="_top" xlink:title="Usefull methods for post&#45;processing.">
<polygon fill="none" stroke="black" points="478,-56.5 478,-75.5 661,-75.5 661,-56.5 478,-56.5"/>
<text text-anchor="middle" x="569.5" y="-63.5" font-family="serif" font-size="10.00">Utils/UtilsForPostProcessing.hpp</text>
</a>
</g>
</g>
<!-- Node5&#45;&gt;Node23 -->
<g id="edge39" class="edge">
<title>Node5&#45;&gt;Node23</title>
<path fill="none" stroke="midnightblue" d="M588.7,-112.08C585.59,-104.77 581.08,-94.18 577.21,-85.1"/>
<polygon fill="midnightblue" stroke="midnightblue" points="580.37,-83.58 573.23,-75.75 573.93,-86.32 580.37,-83.58"/>
</g>
<!-- Node24 -->
<g id="node24" class="node">
<title>Node24</title>
<g id="a_node24"><a xlink:href="UtilsForVariants_8hpp.html" target="_top" xlink:title="manage std::Variants">
<polygon fill="none" stroke="black" points="65.5,-56.5 65.5,-75.5 213.5,-75.5 213.5,-56.5 65.5,-56.5"/>
<text text-anchor="middle" x="139.5" y="-63.5" font-family="serif" font-size="10.00">Utils/UtilsForVariants.hpp</text>
</a>
</g>
</g>
<!-- Node5&#45;&gt;Node24 -->
<g id="edge46" class="edge">
<title>Node5&#45;&gt;Node24</title>
<path fill="none" stroke="midnightblue" d="M547.82,-115.67C472.02,-106.64 317.11,-88.17 221.41,-76.76"/>
<polygon fill="midnightblue" stroke="midnightblue" points="221.53,-73.25 211.19,-75.55 220.7,-80.2 221.53,-73.25"/>
</g>
<!-- Node6&#45;&gt;Node2 -->
<g id="edge11" class="edge">
<title>Node6&#45;&gt;Node2</title>
<path fill="none" stroke="midnightblue" d="M768.4,-56.32C753.6,-47.82 730.81,-34.73 713.52,-24.8"/>
<polygon fill="midnightblue" stroke="midnightblue" points="714.98,-21.6 704.57,-19.65 711.49,-27.67 714.98,-21.6"/>
</g>
<!-- Node6&#45;&gt;Node3 -->
<g id="edge14" class="edge">
<title>Node6&#45;&gt;Node3</title>
<path fill="none" stroke="midnightblue" d="M814.07,-56.47C844.5,-47.98 892.79,-34.49 943.01,-20.42"/>
<polygon fill="midnightblue" stroke="midnightblue" points="944.05,-23.76 952.74,-17.69 942.16,-17.02 944.05,-23.76"/>
</g>
<!-- Node6&#45;&gt;Node4 -->
<g id="edge17" class="edge">
<title>Node6&#45;&gt;Node4</title>
<path fill="none" stroke="midnightblue" d="M717.55,-59.58C600.47,-49.86 362.97,-29.71 295.49,-19.71"/>
<polygon fill="midnightblue" stroke="midnightblue" points="295.97,-16.24 285.54,-18.08 294.84,-23.15 295.97,-16.24"/>
</g>
<!-- Node7 -->
<g id="node7" class="node">
<title>Node7</title>
<g id="a_node7"><a xlink:title=" ">
<polygon fill="none" stroke="#bfbfbf" points="1018,-0.5 1018,-19.5 1077,-19.5 1077,-0.5 1018,-0.5"/>
<text text-anchor="middle" x="1047.5" y="-7.5" font-family="serif" font-size="10.00">unistd.h</text>
</a>
</g>
</g>
<!-- Node6&#45;&gt;Node7 -->
<g id="edge6" class="edge">
<title>Node6&#45;&gt;Node7</title>
<path fill="none" stroke="midnightblue" d="M829.05,-56.43C872.62,-48.12 940.43,-34.9 1007.73,-20.33"/>
<polygon fill="midnightblue" stroke="midnightblue" points="1008.62,-23.72 1017.65,-18.18 1007.14,-16.88 1008.62,-23.72"/>
</g>
<!-- Node8 -->
<g id="node8" class="node">
<title>Node8</title>
<g id="a_node8"><a xlink:title=" ">
<polygon fill="none" stroke="#bfbfbf" points="741.5,-0.5 741.5,-19.5 791.5,-19.5 791.5,-0.5 741.5,-0.5"/>
<text text-anchor="middle" x="766.5" y="-7.5" font-family="serif" font-size="10.00">cctype</text>
</a>
</g>
</g>
<!-- Node6&#45;&gt;Node8 -->
<g id="edge7" class="edge">
<title>Node6&#45;&gt;Node8</title>
<path fill="none" stroke="midnightblue" d="M780.69,-56.08C778.42,-48.85 775.13,-38.41 772.29,-29.4"/>
<polygon fill="midnightblue" stroke="midnightblue" points="775.6,-28.24 769.25,-19.75 768.92,-30.34 775.6,-28.24"/>
</g>
<!-- Node9 -->
<g id="node9" class="node">
<title>Node9</title>
<g id="a_node9"><a xlink:title=" ">
<polygon fill="none" stroke="#bfbfbf" points="1095,-0.5 1095,-19.5 1142,-19.5 1142,-0.5 1095,-0.5"/>
<text text-anchor="middle" x="1118.5" y="-7.5" font-family="serif" font-size="10.00">cstdio</text>
</a>
</g>
</g>
<!-- Node6&#45;&gt;Node9 -->
<g id="edge8" class="edge">
<title>Node6&#45;&gt;Node9</title>
<path fill="none" stroke="midnightblue" d="M849.24,-57.68C908.62,-50.51 998.53,-38.28 1084.85,-20.14"/>
<polygon fill="midnightblue" stroke="midnightblue" points="1085.77,-23.53 1094.82,-18.02 1084.31,-16.68 1085.77,-23.53"/>
</g>
<!-- Node10 -->
<g id="node10" class="node">
<title>Node10</title>
<g id="a_node10"><a xlink:title=" ">
<polygon fill="none" stroke="#bfbfbf" points="365.5,-0.5 365.5,-19.5 431.5,-19.5 431.5,-0.5 365.5,-0.5"/>
<text text-anchor="middle" x="398.5" y="-7.5" font-family="serif" font-size="10.00">algorithm</text>
</a>
</g>
</g>
<!-- Node6&#45;&gt;Node10 -->
<g id="edge9" class="edge">
<title>Node6&#45;&gt;Node10</title>
<path fill="none" stroke="midnightblue" d="M717.72,-57.84C650.85,-50.22 544.07,-37.13 441.68,-19.91"/>
<polygon fill="midnightblue" stroke="midnightblue" points="442.23,-16.45 431.79,-18.23 441.06,-23.35 442.23,-16.45"/>
</g>
<!-- Node11 -->
<g id="node11" class="node">
<title>Node11</title>
<g id="a_node11"><a xlink:title=" ">
<polygon fill="none" stroke="#bfbfbf" points="809.5,-0.5 809.5,-19.5 877.5,-19.5 877.5,-0.5 809.5,-0.5"/>
<text text-anchor="middle" x="843.5" y="-7.5" font-family="serif" font-size="10.00">filesystem</text>
</a>
</g>
</g>
<!-- Node6&#45;&gt;Node11 -->
<g id="edge10" class="edge">
<title>Node6&#45;&gt;Node11</title>
<path fill="none" stroke="midnightblue" d="M793.14,-56.32C802.01,-48.34 815.37,-36.31 826.11,-26.65"/>
<polygon fill="midnightblue" stroke="midnightblue" points="828.59,-29.13 833.68,-19.83 823.91,-23.92 828.59,-29.13"/>
</g>
<!-- Node12 -->
<g id="node12" class="node">
<title>Node12</title>
<g id="a_node12"><a xlink:title=" ">
<polygon fill="none" stroke="#bfbfbf" points="576,-0.5 576,-19.5 637,-19.5 637,-0.5 576,-0.5"/>
<text text-anchor="middle" x="606.5" y="-7.5" font-family="serif" font-size="10.00">iostream</text>
</a>
</g>
</g>
<!-- Node6&#45;&gt;Node12 -->
<g id="edge12" class="edge">
<title>Node6&#45;&gt;Node12</title>
<path fill="none" stroke="midnightblue" d="M755.45,-56.44C725.42,-47.28 677.59,-32.69 644.26,-22.52"/>
<polygon fill="midnightblue" stroke="midnightblue" points="645,-19.09 634.41,-19.52 642.96,-25.78 645,-19.09"/>
</g>
<!-- Node13 -->
<g id="node13" class="node">
<title>Node13</title>
<g id="a_node13"><a xlink:title=" ">
<polygon fill="none" stroke="#bfbfbf" points="896,-0.5 896,-19.5 935,-19.5 935,-0.5 896,-0.5"/>
<text text-anchor="middle" x="915.5" y="-7.5" font-family="serif" font-size="10.00">map</text>
</a>
</g>
</g>
<!-- Node6&#45;&gt;Node13 -->
<g id="edge13" class="edge">
<title>Node6&#45;&gt;Node13</title>
<path fill="none" stroke="midnightblue" d="M804.42,-56.44C826.62,-47.36 861.87,-32.94 886.69,-22.78"/>
<polygon fill="midnightblue" stroke="midnightblue" points="888.04,-26.01 895.97,-18.99 885.39,-19.54 888.04,-26.01"/>
</g>
<!-- Node14 -->
<g id="node14" class="node">
<title>Node14</title>
<g id="a_node14"><a xlink:title=" ">
<polygon fill="none" stroke="#bfbfbf" points="450,-0.5 450,-19.5 493,-19.5 493,-0.5 450,-0.5"/>
<text text-anchor="middle" x="471.5" y="-7.5" font-family="serif" font-size="10.00">tuple</text>
</a>
</g>
</g>
<!-- Node6&#45;&gt;Node14 -->
<g id="edge15" class="edge">
<title>Node6&#45;&gt;Node14</title>
<path fill="none" stroke="midnightblue" d="M717.77,-56.82C662.89,-49.45 582.46,-37.42 503.25,-19.91"/>
<polygon fill="midnightblue" stroke="midnightblue" points="503.62,-16.41 493.09,-17.64 502.08,-23.24 503.62,-16.41"/>
</g>
<!-- Node15 -->
<g id="node15" class="node">
<title>Node15</title>
<g id="a_node15"><a xlink:title=" ">
<polygon fill="none" stroke="#bfbfbf" points="511.5,-0.5 511.5,-19.5 557.5,-19.5 557.5,-0.5 511.5,-0.5"/>
<text text-anchor="middle" x="534.5" y="-7.5" font-family="serif" font-size="10.00">utility</text>
</a>
</g>
</g>
<!-- Node6&#45;&gt;Node15 -->
<g id="edge16" class="edge">
<title>Node6&#45;&gt;Node15</title>
<path fill="none" stroke="midnightblue" d="M738.64,-56.48C694.83,-47.97 626.35,-34.14 567.5,-20 567.4,-19.98 567.3,-19.95 567.2,-19.93"/>
<polygon fill="midnightblue" stroke="midnightblue" points="568.09,-16.54 557.53,-17.47 566.36,-23.33 568.09,-16.54"/>
</g>
<!-- Node16 -->
<g id="node16" class="node">
<title>Node16</title>
<g id="a_node16"><a xlink:title=" ">
<polygon fill="none" stroke="#bfbfbf" points="1160,-0.5 1160,-19.5 1229,-19.5 1229,-0.5 1160,-0.5"/>
<text text-anchor="middle" x="1194.5" y="-7.5" font-family="serif" font-size="10.00">mfem.hpp</text>
</a>
</g>
</g>
<!-- Node6&#45;&gt;Node16 -->
<g id="edge18" class="edge">
<title>Node6&#45;&gt;Node16</title>
<path fill="none" stroke="midnightblue" d="M849.22,-58.66C920.86,-51.37 1039.07,-38.22 1149.81,-20.17"/>
<polygon fill="midnightblue" stroke="midnightblue" points="1150.52,-23.6 1159.81,-18.52 1149.38,-16.69 1150.52,-23.6"/>
</g>
<!-- Node17&#45;&gt;Node2 -->
<g id="edge24" class="edge">
<title>Node17&#45;&gt;Node2</title>
<path fill="none" stroke="midnightblue" d="M966.47,-56.49C908.47,-48.43 819.83,-35.51 733.68,-20.13"/>
<polygon fill="midnightblue" stroke="midnightblue" points="734.2,-16.67 723.73,-18.35 732.96,-23.56 734.2,-16.67"/>
</g>
<!-- Node17&#45;&gt;Node3 -->
<g id="edge26" class="edge">
<title>Node17&#45;&gt;Node3</title>
<path fill="none" stroke="midnightblue" d="M1020.75,-56.08C1013.03,-48.22 1001.6,-36.57 992.28,-27.08"/>
<polygon fill="midnightblue" stroke="midnightblue" points="994.59,-24.44 985.09,-19.75 989.6,-29.34 994.59,-24.44"/>
</g>
<!-- Node17&#45;&gt;Node7 -->
<g id="edge21" class="edge">
<title>Node17&#45;&gt;Node7</title>
<path fill="none" stroke="midnightblue" d="M1032.47,-56.08C1034.88,-48.85 1038.36,-38.41 1041.37,-29.4"/>
<polygon fill="midnightblue" stroke="midnightblue" points="1044.74,-30.34 1044.58,-19.75 1038.1,-28.13 1044.74,-30.34"/>
</g>
<!-- Node17&#45;&gt;Node9 -->
<g id="edge22" class="edge">
<title>Node17&#45;&gt;Node9</title>
<path fill="none" stroke="midnightblue" d="M1043.8,-56.32C1057.68,-47.9 1078.99,-34.97 1095.3,-25.07"/>
<polygon fill="midnightblue" stroke="midnightblue" points="1097.5,-27.83 1104.24,-19.65 1093.87,-21.85 1097.5,-27.83"/>
</g>
<!-- Node17&#45;&gt;Node12 -->
<g id="edge25" class="edge">
<title>Node17&#45;&gt;Node12</title>
<path fill="none" stroke="midnightblue" d="M958.95,-58.94C884.04,-52 762.05,-39.26 647.05,-19.92"/>
<polygon fill="midnightblue" stroke="midnightblue" points="647.46,-16.44 637.01,-18.21 646.28,-23.34 647.46,-16.44"/>
</g>
<!-- Node17&#45;&gt;Node15 -->
<g id="edge27" class="edge">
<title>Node17&#45;&gt;Node15</title>
<path fill="none" stroke="midnightblue" d="M958.93,-61.84C869.92,-57.03 712.11,-45.75 567.75,-19.7"/>
<polygon fill="midnightblue" stroke="midnightblue" points="568.29,-16.24 557.82,-17.89 567.03,-23.13 568.29,-16.24"/>
</g>
<!-- Node17&#45;&gt;Node16 -->
<g id="edge28" class="edge">
<title>Node17&#45;&gt;Node16</title>
<path fill="none" stroke="midnightblue" d="M1055.64,-56.44C1083.52,-47.32 1127.85,-32.81 1158.9,-22.65"/>
<polygon fill="midnightblue" stroke="midnightblue" points="1160.06,-25.95 1168.48,-19.52 1157.88,-19.3 1160.06,-25.95"/>
</g>
<!-- Node18 -->
<g id="node18" class="node">
<title>Node18</title>
<g id="a_node18"><a xlink:title=" ">
<polygon fill="none" stroke="#bfbfbf" points="1321.5,-0.5 1321.5,-19.5 1411.5,-19.5 1411.5,-0.5 1321.5,-0.5"/>
<text text-anchor="middle" x="1366.5" y="-7.5" font-family="serif" font-size="10.00">sys/resource.h</text>
</a>
</g>
</g>
<!-- Node17&#45;&gt;Node18 -->
<g id="edge20" class="edge">
<title>Node17&#45;&gt;Node18</title>
<path fill="none" stroke="midnightblue" d="M1083.77,-56.49C1138.59,-47.87 1225.98,-34.06 1311.3,-20.19"/>
<polygon fill="midnightblue" stroke="midnightblue" points="1312.11,-23.6 1321.42,-18.54 1310.99,-16.69 1312.11,-23.6"/>
</g>
<!-- Node19 -->
<g id="node19" class="node">
<title>Node19</title>
<g id="a_node19"><a xlink:title=" ">
<polygon fill="none" stroke="#bfbfbf" points="1247.5,-0.5 1247.5,-19.5 1303.5,-19.5 1303.5,-0.5 1247.5,-0.5"/>
<text text-anchor="middle" x="1275.5" y="-7.5" font-family="serif" font-size="10.00">fstream</text>
</a>
</g>
</g>
<!-- Node17&#45;&gt;Node19 -->
<g id="edge23" class="edge">
<title>Node17&#45;&gt;Node19</title>
<path fill="none" stroke="midnightblue" d="M1070.81,-56.44C1110.96,-48.05 1173.91,-34.69 1237.45,-20.2"/>
<polygon fill="midnightblue" stroke="midnightblue" points="1238.27,-23.6 1247.24,-17.96 1236.71,-16.78 1238.27,-23.6"/>
</g>
<!-- Node20&#45;&gt;Node2 -->
<g id="edge31" class="edge">
<title>Node20&#45;&gt;Node2</title>
<path fill="none" stroke="midnightblue" d="M438.89,-56.49C489.31,-48.17 567.95,-34.86 645.33,-20.17"/>
<polygon fill="midnightblue" stroke="midnightblue" points="646.09,-23.59 655.25,-18.28 644.78,-16.72 646.09,-23.59"/>
</g>
<!-- Node20&#45;&gt;Node3 -->
<g id="edge34" class="edge">
<title>Node20&#45;&gt;Node3</title>
<path fill="none" stroke="midnightblue" d="M459.81,-56.92C463.08,-56.6 466.32,-56.29 469.5,-56 677.03,-36.89 734.24,-56.22 942.81,-19.98"/>
<polygon fill="midnightblue" stroke="midnightblue" points="943.61,-23.39 952.86,-18.21 942.4,-16.5 943.61,-23.39"/>
</g>
<!-- Node20&#45;&gt;Node4 -->
<g id="edge38" class="edge">
<title>Node20&#45;&gt;Node4</title>
<path fill="none" stroke="midnightblue" d="M366.69,-56.44C346.21,-47.6 314.02,-33.69 290.64,-23.59"/>
<polygon fill="midnightblue" stroke="midnightblue" points="291.78,-20.27 281.21,-19.52 289.01,-26.7 291.78,-20.27"/>
</g>
<!-- Node20&#45;&gt;Node10 -->
<g id="edge30" class="edge">
<title>Node20&#45;&gt;Node10</title>
<path fill="none" stroke="midnightblue" d="M388.48,-56.08C390.07,-48.93 392.36,-38.64 394.35,-29.69"/>
<polygon fill="midnightblue" stroke="midnightblue" points="397.8,-30.27 396.56,-19.75 390.97,-28.75 397.8,-30.27"/>
</g>
<!-- Node20&#45;&gt;Node12 -->
<g id="edge32" class="edge">
<title>Node20&#45;&gt;Node12</title>
<path fill="none" stroke="midnightblue" d="M421.36,-56.44C460.65,-46.8 524.43,-31.14 565.93,-20.96"/>
<polygon fill="midnightblue" stroke="midnightblue" points="566.83,-24.34 575.71,-18.56 565.16,-17.54 566.83,-24.34"/>
</g>
<!-- Node20&#45;&gt;Node14 -->
<g id="edge35" class="edge">
<title>Node20&#45;&gt;Node14</title>
<path fill="none" stroke="midnightblue" d="M400.16,-56.32C413.42,-47.9 433.77,-34.97 449.35,-25.07"/>
<polygon fill="midnightblue" stroke="midnightblue" points="451.31,-27.97 457.88,-19.65 447.56,-22.06 451.31,-27.97"/>
</g>
<!-- Node20&#45;&gt;Node15 -->
<g id="edge36" class="edge">
<title>Node20&#45;&gt;Node15</title>
<path fill="none" stroke="midnightblue" d="M409.95,-56.44C434.63,-47.44 473.69,-33.19 501.48,-23.05"/>
<polygon fill="midnightblue" stroke="midnightblue" points="502.96,-26.23 511.16,-19.52 500.56,-19.66 502.96,-26.23"/>
</g>
<!-- Node21 -->
<g id="node21" class="node">
<title>Node21</title>
<g id="a_node21"><a xlink:title=" ">
<polygon fill="none" stroke="#bfbfbf" points="303.5,-0.5 303.5,-19.5 347.5,-19.5 347.5,-0.5 303.5,-0.5"/>
<text text-anchor="middle" x="325.5" y="-7.5" font-family="serif" font-size="10.00">limits</text>
</a>
</g>
</g>
<!-- Node20&#45;&gt;Node21 -->
<g id="edge33" class="edge">
<title>Node20&#45;&gt;Node21</title>
<path fill="none" stroke="midnightblue" d="M376.7,-56.32C367.68,-48.34 354.09,-36.31 343.18,-26.65"/>
<polygon fill="midnightblue" stroke="midnightblue" points="345.29,-23.84 335.48,-19.83 340.65,-29.08 345.29,-23.84"/>
</g>
<!-- Node22 -->
<g id="node22" class="node">
<title>Node22</title>
<g id="a_node22"><a xlink:title=" ">
<polygon fill="none" stroke="#bfbfbf" points="166,-0.5 166,-19.5 219,-19.5 219,-0.5 166,-0.5"/>
<text text-anchor="middle" x="192.5" y="-7.5" font-family="serif" font-size="10.00">variant</text>
</a>
</g>
</g>
<!-- Node20&#45;&gt;Node22 -->
<g id="edge37" class="edge">
<title>Node20&#45;&gt;Node22</title>
<path fill="none" stroke="midnightblue" d="M355.76,-56.44C321.29,-46.85 265.42,-31.3 228.82,-21.11"/>
<polygon fill="midnightblue" stroke="midnightblue" points="229.62,-17.7 219.04,-18.39 227.74,-24.44 229.62,-17.7"/>
</g>
<!-- Node23&#45;&gt;Node3 -->
<g id="edge43" class="edge">
<title>Node23&#45;&gt;Node3</title>
<path fill="none" stroke="midnightblue" d="M661.06,-58C734.91,-51.43 841.55,-39.88 942.74,-20.1"/>
<polygon fill="midnightblue" stroke="midnightblue" points="943.71,-23.48 952.83,-18.1 942.34,-16.61 943.71,-23.48"/>
</g>
<!-- Node23&#45;&gt;Node4 -->
<g id="edge45" class="edge">
<title>Node23&#45;&gt;Node4</title>
<path fill="none" stroke="midnightblue" d="M505.79,-56.49C452.12,-48.89 373.16,-36.69 295.53,-20.04"/>
<polygon fill="midnightblue" stroke="midnightblue" points="296.09,-16.58 285.58,-17.88 294.61,-23.42 296.09,-16.58"/>
</g>
<!-- Node23&#45;&gt;Node10 -->
<g id="edge40" class="edge">
<title>Node23&#45;&gt;Node10</title>
<path fill="none" stroke="midnightblue" d="M542.4,-56.44C513.51,-47.32 467.58,-32.81 435.39,-22.65"/>
<polygon fill="midnightblue" stroke="midnightblue" points="436.06,-19.19 425.47,-19.52 433.95,-25.87 436.06,-19.19"/>
</g>
<!-- Node23&#45;&gt;Node12 -->
<g id="edge41" class="edge">
<title>Node23&#45;&gt;Node12</title>
<path fill="none" stroke="midnightblue" d="M575.61,-56.08C580.78,-48.53 588.35,-37.49 594.69,-28.23"/>
<polygon fill="midnightblue" stroke="midnightblue" points="597.74,-29.98 600.5,-19.75 591.96,-26.02 597.74,-29.98"/>
</g>
<!-- Node23&#45;&gt;Node15 -->
<g id="edge44" class="edge">
<title>Node23&#45;&gt;Node15</title>
<path fill="none" stroke="midnightblue" d="M563.72,-56.08C558.83,-48.53 551.67,-37.49 545.67,-28.23"/>
<polygon fill="midnightblue" stroke="midnightblue" points="548.55,-26.24 540.17,-19.75 542.67,-30.05 548.55,-26.24"/>
</g>
<!-- Node23&#45;&gt;Node21 -->
<g id="edge42" class="edge">
<title>Node23&#45;&gt;Node21</title>
<path fill="none" stroke="midnightblue" d="M524.4,-56.48C483.24,-48.48 420.55,-35.74 357.51,-20.12"/>
<polygon fill="midnightblue" stroke="midnightblue" points="358.35,-16.72 347.8,-17.69 356.65,-23.51 358.35,-16.72"/>
</g>
<!-- Node24&#45;&gt;Node22 -->
<g id="edge49" class="edge">
<title>Node24&#45;&gt;Node22</title>
<path fill="none" stroke="midnightblue" d="M148.25,-56.08C155.97,-48.22 167.4,-36.57 176.72,-27.08"/>
<polygon fill="midnightblue" stroke="midnightblue" points="179.4,-29.34 183.91,-19.75 174.41,-24.44 179.4,-29.34"/>
</g>
<!-- Node25 -->
<g id="node25" class="node">
<title>Node25</title>
<g id="a_node25"><a xlink:title=" ">
<polygon fill="none" stroke="#bfbfbf" points="89,-0.5 89,-19.5 148,-19.5 148,-0.5 89,-0.5"/>
<text text-anchor="middle" x="118.5" y="-7.5" font-family="serif" font-size="10.00">memory</text>
</a>
</g>
</g>
<!-- Node24&#45;&gt;Node25 -->
<g id="edge47" class="edge">
<title>Node24&#45;&gt;Node25</title>
<path fill="none" stroke="midnightblue" d="M136.03,-56.08C133.19,-48.77 129.07,-38.18 125.54,-29.1"/>
<polygon fill="midnightblue" stroke="midnightblue" points="128.79,-27.8 121.9,-19.75 122.27,-30.34 128.79,-27.8"/>
</g>
<!-- Node26 -->
<g id="node26" class="node">
<title>Node26</title>
<g id="a_node26"><a xlink:title=" ">
<polygon fill="none" stroke="#bfbfbf" points="0,-0.5 0,-19.5 71,-19.5 71,-0.5 0,-0.5"/>
<text text-anchor="middle" x="35.5" y="-7.5" font-family="serif" font-size="10.00">type_traits</text>
</a>
</g>
</g>
<!-- Node24&#45;&gt;Node26 -->
<g id="edge48" class="edge">
<title>Node24&#45;&gt;Node26</title>
<path fill="none" stroke="midnightblue" d="M122.79,-56.32C106.19,-47.7 80.5,-34.36 61.28,-24.39"/>
<polygon fill="midnightblue" stroke="midnightblue" points="62.66,-21.16 52.17,-19.65 59.43,-27.37 62.66,-21.16"/>
</g>
</g>
</svg>
        <g id="navigator" transform="translate(0 0)" fill="#404254">
                <rect fill="#f2f5e9" fill-opacity="0.5" stroke="#606060" stroke-width=".5" x="0" y="0" width="60" height="60"/>
                <use id="zoomplus" xlink:href="#zoomPlus" x="17" y="9" onmousedown="handleZoom(evt,'in')"/>
                <use id="zoomminus" xlink:href="#zoomMin" x="42" y="9" onmousedown="handleZoom(evt,'out')"/>
                <use id="reset" xlink:href="#resetDef" x="30" y="36" onmousedown="handleReset()"/>
                <g id="arrowUp" xlink:href="#dirArrow" transform="translate(30 24)" onmousedown="handlePan(0,-1)">
                  <use xlink:href="#rim" fill="#404040">
                        <set attributeName="fill" to="#808080" begin="arrowUp.mouseover" end="arrowUp.mouseout"/>
                  </use>
                  <path fill="none" stroke="white" stroke-width="1.5" d="M0,-3.0v7 M-2.5,-0.5L0,-3.0L2.5,-0.5"/>
                </g>
                <g id="arrowRight" xlink:href="#dirArrow" transform="rotate(90) translate(36 -43)" onmousedown="handlePan(1,0)">
                  <use xlink:href="#rim" fill="#404040">
                        <set attributeName="fill" to="#808080" begin="arrowRight.mouseover" end="arrowRight.mouseout"/>
                  </use>
                  <path fill="none" stroke="white" stroke-width="1.5" d="M0,-3.0v7 M-2.5,-0.5L0,-3.0L2.5,-0.5"/>
                </g>
                <g id="arrowDown" xlink:href="#dirArrow" transform="rotate(180) translate(-30 -48)" onmousedown="handlePan(0,1)">
                  <use xlink:href="#rim" fill="#404040">
                        <set attributeName="fill" to="#808080" begin="arrowDown.mouseover" end="arrowDown.mouseout"/>
                  </use>
                  <path fill="none" stroke="white" stroke-width="1.5" d="M0,-3.0v7 M-2.5,-0.5L0,-3.0L2.5,-0.5"/>
                </g>
                <g id="arrowLeft" xlink:href="#dirArrow" transform="rotate(270) translate(-36 17)" onmousedown="handlePan(-1,0)">
                  <use xlink:href="#rim" fill="#404040">
                        <set attributeName="fill" to="#808080" begin="arrowLeft.mouseover" end="arrowLeft.mouseout"/>
                  </use>
                  <path fill="none" stroke="white" stroke-width="1.5" d="M0,-3.0v7 M-2.5,-0.5L0,-3.0L2.5,-0.5"/>
                </g>
        </g>
        <svg viewBox="0 0 15 15" width="100%" height="30px" preserveAspectRatio="xMaxYMin meet">
         <g id="arrow_out" transform="scale(0.3 0.3)">
          <a xlink:href="PhaseChangeFunction_8hpp__incl_org.svg" target="_base">
           <rect id="button" ry="5" rx="5" y="6" x="6" height="38" width="38"
                fill="#f2f5e9" fill-opacity="0.5" stroke="#606060" stroke-width="1.0"/>
           <path id="arrow"
             d="M 11.500037,31.436501 C 11.940474,20.09759 22.043105,11.32322 32.158766,21.979434 L 37.068811,17.246167 C 37.068811,17.246167 37.088388,32 37.088388,32 L 22.160133,31.978069 C 22.160133,31.978069 26.997745,27.140456 26.997745,27.140456 C 18.528582,18.264221 13.291696,25.230495 11.500037,31.436501 z"
             style="fill:#404040;"/>
          </a>
         </g>
        </svg>
</svg>
