<?xml version="1.0" encoding="UTF-8" standalone="no"?>
<!DOCTYPE svg PUBLIC "-//W3C//DTD SVG 1.1//EN"
 "http://www.w3.org/Graphics/SVG/1.1/DTD/svg11.dtd">
<!-- Generated by graphviz version 2.43.0 (0)
 -->
<!-- Title: PhysicalConvergence.hpp Pages: 1 -->
<svg width="1421pt" height="196pt"
 viewBox="0.00 0.00 1420.50 196.00" xmlns="http://www.w3.org/2000/svg" xmlns:xlink="http://www.w3.org/1999/xlink">
<g id="graph0" class="graph" transform="scale(1 1) rotate(0) translate(4 192)">
<title>PhysicalConvergence.hpp</title>
<!-- Node1 -->
<g id="node1" class="node">
<title>Node1</title>
<g id="a_node1"><a xlink:title="Class used to define a PhysicalConvergence criterion (physical increment allowed per time&#45;step)">
<polygon fill="#bfbfbf" stroke="black" points="266,-168.5 266,-187.5 415,-187.5 415,-168.5 266,-168.5"/>
<text text-anchor="middle" x="340.5" y="-175.5" font-family="serif" font-size="10.00">PhysicalConvergence.hpp</text>
</a>
</g>
</g>
<!-- Node2 -->
<g id="node2" class="node">
<title>Node2</title>
<g id="a_node2"><a xlink:title=" ">
<polygon fill="none" stroke="#bfbfbf" points="427.5,-0.5 427.5,-19.5 493.5,-19.5 493.5,-0.5 427.5,-0.5"/>
<text text-anchor="middle" x="460.5" y="-7.5" font-family="serif" font-size="10.00">algorithm</text>
</a>
</g>
</g>
<!-- Node1&#45;&gt;Node2 -->
<g id="edge1" class="edge">
<title>Node1&#45;&gt;Node2</title>
<path fill="none" stroke="midnightblue" d="M341.04,-168.35C342.8,-146.95 350.03,-90.74 378.5,-56 390.55,-41.3 408.72,-30.64 424.89,-23.39"/>
<polygon fill="midnightblue" stroke="midnightblue" points="426.26,-26.61 434.13,-19.51 423.55,-20.16 426.26,-26.61"/>
</g>
<!-- Node3 -->
<g id="node3" class="node">
<title>Node3</title>
<g id="a_node3"><a xlink:title=" ">
<polygon fill="none" stroke="#bfbfbf" points="237.5,-0.5 237.5,-19.5 281.5,-19.5 281.5,-0.5 237.5,-0.5"/>
<text text-anchor="middle" x="259.5" y="-7.5" font-family="serif" font-size="10.00">limits</text>
</a>
</g>
</g>
<!-- Node1&#45;&gt;Node3 -->
<g id="edge2" class="edge">
<title>Node1&#45;&gt;Node3</title>
<path fill="none" stroke="midnightblue" d="M330.43,-168.28C321.23,-159.83 307.82,-146.23 299.5,-132 279.94,-98.54 268.42,-54.22 263.09,-29.56"/>
<polygon fill="midnightblue" stroke="midnightblue" points="266.52,-28.82 261.08,-19.73 259.66,-30.23 266.52,-28.82"/>
</g>
<!-- Node4 -->
<g id="node4" class="node">
<title>Node4</title>
<g id="a_node4"><a xlink:title=" ">
<polygon fill="none" stroke="#bfbfbf" points="300,-0.5 300,-19.5 343,-19.5 343,-0.5 300,-0.5"/>
<text text-anchor="middle" x="321.5" y="-7.5" font-family="serif" font-size="10.00">tuple</text>
</a>
</g>
</g>
<!-- Node1&#45;&gt;Node4 -->
<g id="edge3" class="edge">
<title>Node1&#45;&gt;Node4</title>
<path fill="none" stroke="midnightblue" d="M331.48,-168.34C323.43,-159.93 312.2,-146.36 307.5,-132 296.03,-96.97 306.67,-53.55 314.63,-29.4"/>
<polygon fill="midnightblue" stroke="midnightblue" points="318,-30.36 318.01,-19.76 311.4,-28.04 318,-30.36"/>
</g>
<!-- Node5 -->
<g id="node5" class="node">
<title>Node5</title>
<g id="a_node5"><a xlink:title=" ">
<polygon fill="none" stroke="#bfbfbf" points="361.5,-0.5 361.5,-19.5 409.5,-19.5 409.5,-0.5 361.5,-0.5"/>
<text text-anchor="middle" x="385.5" y="-7.5" font-family="serif" font-size="10.00">vector</text>
</a>
</g>
</g>
<!-- Node1&#45;&gt;Node5 -->
<g id="edge4" class="edge">
<title>Node1&#45;&gt;Node5</title>
<path fill="none" stroke="midnightblue" d="M338.95,-168.38C335.68,-147.95 329.59,-95.38 345.5,-56 350.07,-44.69 358.79,-34.34 366.92,-26.42"/>
<polygon fill="midnightblue" stroke="midnightblue" points="369.34,-28.95 374.38,-19.63 364.63,-23.77 369.34,-28.95"/>
</g>
<!-- Node6 -->
<g id="node6" class="node">
<title>Node6</title>
<g id="a_node6"><a xlink:href="Utils_8hpp.html" target="_top" xlink:title="List of all Utils files.">
<polygon fill="none" stroke="black" points="507,-112.5 507,-131.5 596,-131.5 596,-112.5 507,-112.5"/>
<text text-anchor="middle" x="551.5" y="-119.5" font-family="serif" font-size="10.00">Utils/Utils.hpp</text>
</a>
</g>
</g>
<!-- Node1&#45;&gt;Node6 -->
<g id="edge5" class="edge">
<title>Node1&#45;&gt;Node6</title>
<path fill="none" stroke="midnightblue" d="M373.93,-168.44C410.36,-159.12 468.73,-144.18 508.53,-134"/>
<polygon fill="midnightblue" stroke="midnightblue" points="509.4,-137.39 518.22,-131.52 507.67,-130.61 509.4,-137.39"/>
</g>
<!-- Node17 -->
<g id="node17" class="node">
<title>Node17</title>
<g id="a_node17"><a xlink:title=" ">
<polygon fill="none" stroke="#bfbfbf" points="1161,-0.5 1161,-19.5 1230,-19.5 1230,-0.5 1161,-0.5"/>
<text text-anchor="middle" x="1195.5" y="-7.5" font-family="serif" font-size="10.00">mfem.hpp</text>
</a>
</g>
</g>
<!-- Node1&#45;&gt;Node17 -->
<g id="edge51" class="edge">
<title>Node1&#45;&gt;Node17</title>
<path fill="none" stroke="midnightblue" d="M415.18,-176.8C552.32,-174.3 851.85,-158.85 1087.5,-76 1121.13,-64.18 1155.69,-41.08 1176.38,-25.85"/>
<polygon fill="midnightblue" stroke="midnightblue" points="1178.72,-28.47 1184.61,-19.66 1174.51,-22.87 1178.72,-28.47"/>
</g>
<!-- Node7 -->
<g id="node7" class="node">
<title>Node7</title>
<g id="a_node7"><a xlink:href="UtilsForData_8hpp.html" target="_top" xlink:title="Usefull methods for data.">
<polygon fill="none" stroke="black" points="753,-56.5 753,-75.5 884,-75.5 884,-56.5 753,-56.5"/>
<text text-anchor="middle" x="818.5" y="-63.5" font-family="serif" font-size="10.00">Utils/UtilsForData.hpp</text>
</a>
</g>
</g>
<!-- Node6&#45;&gt;Node7 -->
<g id="edge6" class="edge">
<title>Node6&#45;&gt;Node7</title>
<path fill="none" stroke="midnightblue" d="M593.81,-112.44C640.58,-102.98 715.96,-87.74 766.35,-77.55"/>
<polygon fill="midnightblue" stroke="midnightblue" points="767.28,-80.93 776.39,-75.52 765.9,-74.07 767.28,-80.93"/>
</g>
<!-- Node18 -->
<g id="node18" class="node">
<title>Node18</title>
<g id="a_node18"><a xlink:href="UtilsForDebug_8hpp.html" target="_top" xlink:title="Usefull methods for debug.">
<polygon fill="none" stroke="black" points="937,-56.5 937,-75.5 1078,-75.5 1078,-56.5 937,-56.5"/>
<text text-anchor="middle" x="1007.5" y="-63.5" font-family="serif" font-size="10.00">Utils/UtilsForDebug.hpp</text>
</a>
</g>
</g>
<!-- Node6&#45;&gt;Node18 -->
<g id="edge20" class="edge">
<title>Node6&#45;&gt;Node18</title>
<path fill="none" stroke="midnightblue" d="M596.05,-115.72C672.67,-106.65 830.44,-87.97 926.81,-76.56"/>
<polygon fill="midnightblue" stroke="midnightblue" points="927.28,-80.02 936.8,-75.37 926.46,-73.07 927.28,-80.02"/>
</g>
<!-- Node21 -->
<g id="node21" class="node">
<title>Node21</title>
<g id="a_node21"><a xlink:href="UtilsForOptions_8hpp.html" target="_top" xlink:title="Usefull methods for Options.">
<polygon fill="none" stroke="black" points="387.5,-56.5 387.5,-75.5 533.5,-75.5 533.5,-56.5 387.5,-56.5"/>
<text text-anchor="middle" x="460.5" y="-63.5" font-family="serif" font-size="10.00">Utils/UtilsForOptions.hpp</text>
</a>
</g>
</g>
<!-- Node6&#45;&gt;Node21 -->
<g id="edge30" class="edge">
<title>Node6&#45;&gt;Node21</title>
<path fill="none" stroke="midnightblue" d="M536.88,-112.32C522.55,-103.82 500.49,-90.73 483.75,-80.8"/>
<polygon fill="midnightblue" stroke="midnightblue" points="485.47,-77.75 475.08,-75.65 481.9,-83.77 485.47,-77.75"/>
</g>
<!-- Node23 -->
<g id="node23" class="node">
<title>Node23</title>
<g id="a_node23"><a xlink:href="UtilsForPostProcessing_8hpp.html" target="_top" xlink:title="Usefull methods for post&#45;processing.">
<polygon fill="none" stroke="black" points="552,-56.5 552,-75.5 735,-75.5 735,-56.5 552,-56.5"/>
<text text-anchor="middle" x="643.5" y="-63.5" font-family="serif" font-size="10.00">Utils/UtilsForPostProcessing.hpp</text>
</a>
</g>
</g>
<!-- Node6&#45;&gt;Node23 -->
<g id="edge40" class="edge">
<title>Node6&#45;&gt;Node23</title>
<path fill="none" stroke="midnightblue" d="M566.28,-112.32C580.77,-103.82 603.07,-90.73 619.99,-80.8"/>
<polygon fill="midnightblue" stroke="midnightblue" points="621.9,-83.74 628.76,-75.65 618.36,-77.7 621.9,-83.74"/>
</g>
<!-- Node24 -->
<g id="node24" class="node">
<title>Node24</title>
<g id="a_node24"><a xlink:href="UtilsForVariants_8hpp.html" target="_top" xlink:title="manage std::Variants">
<polygon fill="none" stroke="black" points="54.5,-56.5 54.5,-75.5 202.5,-75.5 202.5,-56.5 54.5,-56.5"/>
<text text-anchor="middle" x="128.5" y="-63.5" font-family="serif" font-size="10.00">Utils/UtilsForVariants.hpp</text>
</a>
</g>
</g>
<!-- Node6&#45;&gt;Node24 -->
<g id="edge47" class="edge">
<title>Node6&#45;&gt;Node24</title>
<path fill="none" stroke="midnightblue" d="M506.63,-115.27C434.87,-106.11 293.42,-88.05 205.33,-76.81"/>
<polygon fill="midnightblue" stroke="midnightblue" points="205.75,-73.33 195.39,-75.54 204.86,-80.28 205.75,-73.33"/>
</g>
<!-- Node7&#45;&gt;Node2 -->
<g id="edge10" class="edge">
<title>Node7&#45;&gt;Node2</title>
<path fill="none" stroke="midnightblue" d="M752.93,-57.02C691.12,-49.18 595.7,-36.3 503.94,-20.16"/>
<polygon fill="midnightblue" stroke="midnightblue" points="504.39,-16.68 493.93,-18.38 503.16,-23.58 504.39,-16.68"/>
</g>
<!-- Node7&#45;&gt;Node4 -->
<g id="edge16" class="edge">
<title>Node7&#45;&gt;Node4</title>
<path fill="none" stroke="midnightblue" d="M752.74,-56.9C749.96,-56.59 747.2,-56.29 744.5,-56 573.76,-37.78 526.16,-51.99 353.01,-19.71"/>
<polygon fill="midnightblue" stroke="midnightblue" points="353.53,-16.25 343.05,-17.83 352.23,-23.12 353.53,-16.25"/>
</g>
<!-- Node7&#45;&gt;Node5 -->
<g id="edge18" class="edge">
<title>Node7&#45;&gt;Node5</title>
<path fill="none" stroke="midnightblue" d="M752.74,-56.96C749.95,-56.64 747.2,-56.31 744.5,-56 602.95,-39.58 563.46,-46.91 419.63,-19.94"/>
<polygon fill="midnightblue" stroke="midnightblue" points="420.03,-16.45 409.55,-18.03 418.72,-23.33 420.03,-16.45"/>
</g>
<!-- Node8 -->
<g id="node8" class="node">
<title>Node8</title>
<g id="a_node8"><a xlink:title=" ">
<polygon fill="none" stroke="#bfbfbf" points="1084,-0.5 1084,-19.5 1143,-19.5 1143,-0.5 1084,-0.5"/>
<text text-anchor="middle" x="1113.5" y="-7.5" font-family="serif" font-size="10.00">unistd.h</text>
</a>
</g>
</g>
<!-- Node7&#45;&gt;Node8 -->
<g id="edge7" class="edge">
<title>Node7&#45;&gt;Node8</title>
<path fill="none" stroke="midnightblue" d="M872.83,-56.45C922.72,-48.37 998.95,-35.5 1073.62,-20.3"/>
<polygon fill="midnightblue" stroke="midnightblue" points="1074.57,-23.68 1083.67,-18.24 1073.17,-16.82 1074.57,-23.68"/>
</g>
<!-- Node9 -->
<g id="node9" class="node">
<title>Node9</title>
<g id="a_node9"><a xlink:title=" ">
<polygon fill="none" stroke="#bfbfbf" points="950.5,-0.5 950.5,-19.5 1000.5,-19.5 1000.5,-0.5 950.5,-0.5"/>
<text text-anchor="middle" x="975.5" y="-7.5" font-family="serif" font-size="10.00">cctype</text>
</a>
</g>
</g>
<!-- Node7&#45;&gt;Node9 -->
<g id="edge8" class="edge">
<title>Node7&#45;&gt;Node9</title>
<path fill="none" stroke="midnightblue" d="M843.38,-56.44C869.79,-47.36 911.72,-32.94 941.24,-22.78"/>
<polygon fill="midnightblue" stroke="midnightblue" points="942.42,-26.08 950.74,-19.52 940.14,-19.46 942.42,-26.08"/>
</g>
<!-- Node10 -->
<g id="node10" class="node">
<title>Node10</title>
<g id="a_node10"><a xlink:title=" ">
<polygon fill="none" stroke="#bfbfbf" points="1019,-0.5 1019,-19.5 1066,-19.5 1066,-0.5 1019,-0.5"/>
<text text-anchor="middle" x="1042.5" y="-7.5" font-family="serif" font-size="10.00">cstdio</text>
</a>
</g>
</g>
<!-- Node7&#45;&gt;Node10 -->
<g id="edge9" class="edge">
<title>Node7&#45;&gt;Node10</title>
<path fill="none" stroke="midnightblue" d="M856.65,-56.42C893.23,-48.11 950.26,-34.91 1008.92,-20.08"/>
<polygon fill="midnightblue" stroke="midnightblue" points="1009.9,-23.44 1018.73,-17.59 1008.18,-16.66 1009.9,-23.44"/>
</g>
<!-- Node11 -->
<g id="node11" class="node">
<title>Node11</title>
<g id="a_node11"><a xlink:title=" ">
<polygon fill="none" stroke="#bfbfbf" points="720.5,-0.5 720.5,-19.5 788.5,-19.5 788.5,-0.5 720.5,-0.5"/>
<text text-anchor="middle" x="754.5" y="-7.5" font-family="serif" font-size="10.00">filesystem</text>
</a>
</g>
</g>
<!-- Node7&#45;&gt;Node11 -->
<g id="edge11" class="edge">
<title>Node7&#45;&gt;Node11</title>
<path fill="none" stroke="midnightblue" d="M808.22,-56.32C798.66,-48.26 784.22,-36.08 772.72,-26.37"/>
<polygon fill="midnightblue" stroke="midnightblue" points="774.87,-23.61 764.97,-19.83 770.36,-28.96 774.87,-23.61"/>
</g>
<!-- Node12 -->
<g id="node12" class="node">
<title>Node12</title>
<g id="a_node12"><a xlink:title=" ">
<polygon fill="none" stroke="#bfbfbf" points="806.5,-0.5 806.5,-19.5 874.5,-19.5 874.5,-0.5 806.5,-0.5"/>
<text text-anchor="middle" x="840.5" y="-7.5" font-family="serif" font-size="10.00">functional</text>
</a>
</g>
</g>
<!-- Node7&#45;&gt;Node12 -->
<g id="edge12" class="edge">
<title>Node7&#45;&gt;Node12</title>
<path fill="none" stroke="midnightblue" d="M822.13,-56.08C825.11,-48.77 829.43,-38.18 833.12,-29.1"/>
<polygon fill="midnightblue" stroke="midnightblue" points="836.4,-30.33 836.93,-19.75 829.92,-27.69 836.4,-30.33"/>
</g>
<!-- Node13 -->
<g id="node13" class="node">
<title>Node13</title>
<g id="a_node13"><a xlink:title=" ">
<polygon fill="none" stroke="#bfbfbf" points="576,-0.5 576,-19.5 637,-19.5 637,-0.5 576,-0.5"/>
<text text-anchor="middle" x="606.5" y="-7.5" font-family="serif" font-size="10.00">iostream</text>
</a>
</g>
</g>
<!-- Node7&#45;&gt;Node13 -->
<g id="edge13" class="edge">
<title>Node7&#45;&gt;Node13</title>
<path fill="none" stroke="midnightblue" d="M784.91,-56.44C747.45,-46.9 686.89,-31.48 646.88,-21.29"/>
<polygon fill="midnightblue" stroke="midnightblue" points="647.74,-17.89 637.18,-18.82 646.01,-24.68 647.74,-17.89"/>
</g>
<!-- Node14 -->
<g id="node14" class="node">
<title>Node14</title>
<g id="a_node14"><a xlink:title=" ">
<polygon fill="none" stroke="#bfbfbf" points="893,-0.5 893,-19.5 932,-19.5 932,-0.5 893,-0.5"/>
<text text-anchor="middle" x="912.5" y="-7.5" font-family="serif" font-size="10.00">map</text>
</a>
</g>
</g>
<!-- Node7&#45;&gt;Node14 -->
<g id="edge14" class="edge">
<title>Node7&#45;&gt;Node14</title>
<path fill="none" stroke="midnightblue" d="M833.6,-56.32C848.4,-47.82 871.19,-34.73 888.48,-24.8"/>
<polygon fill="midnightblue" stroke="midnightblue" points="890.51,-27.67 897.43,-19.65 887.02,-21.6 890.51,-27.67"/>
</g>
<!-- Node15 -->
<g id="node15" class="node">
<title>Node15</title>
<g id="a_node15"><a xlink:title=" ">
<polygon fill="none" stroke="#bfbfbf" points="655,-0.5 655,-19.5 702,-19.5 702,-0.5 655,-0.5"/>
<text text-anchor="middle" x="678.5" y="-7.5" font-family="serif" font-size="10.00">string</text>
</a>
</g>
</g>
<!-- Node7&#45;&gt;Node15 -->
<g id="edge15" class="edge">
<title>Node7&#45;&gt;Node15</title>
<path fill="none" stroke="midnightblue" d="M796.32,-56.44C773.07,-47.48 736.35,-33.31 710.08,-23.18"/>
<polygon fill="midnightblue" stroke="midnightblue" points="711.17,-19.85 700.58,-19.52 708.65,-26.38 711.17,-19.85"/>
</g>
<!-- Node16 -->
<g id="node16" class="node">
<title>Node16</title>
<g id="a_node16"><a xlink:title=" ">
<polygon fill="none" stroke="#bfbfbf" points="511.5,-0.5 511.5,-19.5 557.5,-19.5 557.5,-0.5 511.5,-0.5"/>
<text text-anchor="middle" x="534.5" y="-7.5" font-family="serif" font-size="10.00">utility</text>
</a>
</g>
</g>
<!-- Node7&#45;&gt;Node16 -->
<g id="edge17" class="edge">
<title>Node7&#45;&gt;Node16</title>
<path fill="none" stroke="midnightblue" d="M762.88,-56.48C711.83,-48.32 634.22,-35.05 567.5,-20 567.4,-19.98 567.3,-19.95 567.2,-19.93"/>
<polygon fill="midnightblue" stroke="midnightblue" points="568.06,-16.54 557.51,-17.56 566.39,-23.34 568.06,-16.54"/>
</g>
<!-- Node7&#45;&gt;Node17 -->
<g id="edge19" class="edge">
<title>Node7&#45;&gt;Node17</title>
<path fill="none" stroke="midnightblue" d="M884.31,-57.56C949.58,-49.86 1052.68,-36.83 1150.73,-20.21"/>
<polygon fill="midnightblue" stroke="midnightblue" points="1151.54,-23.62 1160.81,-18.49 1150.36,-16.72 1151.54,-23.62"/>
</g>
<!-- Node18&#45;&gt;Node8 -->
<g id="edge22" class="edge">
<title>Node18&#45;&gt;Node8</title>
<path fill="none" stroke="midnightblue" d="M1024.53,-56.32C1041.53,-47.66 1067.88,-34.24 1087.49,-24.25"/>
<polygon fill="midnightblue" stroke="midnightblue" points="1089.19,-27.31 1096.51,-19.65 1086.01,-21.08 1089.19,-27.31"/>
</g>
<!-- Node18&#45;&gt;Node10 -->
<g id="edge23" class="edge">
<title>Node18&#45;&gt;Node10</title>
<path fill="none" stroke="midnightblue" d="M1013.28,-56.08C1018.17,-48.53 1025.33,-37.49 1031.33,-28.23"/>
<polygon fill="midnightblue" stroke="midnightblue" points="1034.33,-30.05 1036.83,-19.75 1028.45,-26.24 1034.33,-30.05"/>
</g>
<!-- Node18&#45;&gt;Node12 -->
<g id="edge25" class="edge">
<title>Node18&#45;&gt;Node12</title>
<path fill="none" stroke="midnightblue" d="M981.04,-56.44C952.82,-47.32 907.96,-32.81 876.53,-22.65"/>
<polygon fill="midnightblue" stroke="midnightblue" points="877.43,-19.26 866.84,-19.52 875.28,-25.92 877.43,-19.26"/>
</g>
<!-- Node18&#45;&gt;Node13 -->
<g id="edge26" class="edge">
<title>Node18&#45;&gt;Node13</title>
<path fill="none" stroke="midnightblue" d="M936.98,-58.26C866.2,-51.03 753.88,-38.3 647.01,-19.92"/>
<polygon fill="midnightblue" stroke="midnightblue" points="647.47,-16.45 637.01,-18.19 646.27,-23.35 647.47,-16.45"/>
</g>
<!-- Node18&#45;&gt;Node15 -->
<g id="edge27" class="edge">
<title>Node18&#45;&gt;Node15</title>
<path fill="none" stroke="midnightblue" d="M936.82,-56.59C878.88,-49.16 794.62,-37.13 712.02,-19.89"/>
<polygon fill="midnightblue" stroke="midnightblue" points="712.72,-16.46 702.21,-17.82 711.27,-23.31 712.72,-16.46"/>
</g>
<!-- Node18&#45;&gt;Node16 -->
<g id="edge28" class="edge">
<title>Node18&#45;&gt;Node16</title>
<path fill="none" stroke="midnightblue" d="M936.99,-59.21C835.44,-50.64 651.93,-34.23 567.82,-19.68"/>
<polygon fill="midnightblue" stroke="midnightblue" points="568.29,-16.21 557.83,-17.87 567.04,-23.1 568.29,-16.21"/>
</g>
<!-- Node18&#45;&gt;Node17 -->
<g id="edge29" class="edge">
<title>Node18&#45;&gt;Node17</title>
<path fill="none" stroke="midnightblue" d="M1037.29,-56.44C1069.33,-47.24 1120.43,-32.56 1155.85,-22.39"/>
<polygon fill="midnightblue" stroke="midnightblue" points="1157.21,-25.64 1165.85,-19.52 1155.27,-18.91 1157.21,-25.64"/>
</g>
<!-- Node19 -->
<g id="node19" class="node">
<title>Node19</title>
<g id="a_node19"><a xlink:title=" ">
<polygon fill="none" stroke="#bfbfbf" points="1248.5,-0.5 1248.5,-19.5 1338.5,-19.5 1338.5,-0.5 1248.5,-0.5"/>
<text text-anchor="middle" x="1293.5" y="-7.5" font-family="serif" font-size="10.00">sys/resource.h</text>
</a>
</g>
</g>
<!-- Node18&#45;&gt;Node19 -->
<g id="edge21" class="edge">
<title>Node18&#45;&gt;Node19</title>
<path fill="none" stroke="midnightblue" d="M1052.82,-56.44C1103.13,-46.94 1184.34,-31.61 1238.31,-21.42"/>
<polygon fill="midnightblue" stroke="midnightblue" points="1239.22,-24.81 1248.39,-19.52 1237.92,-17.93 1239.22,-24.81"/>
</g>
<!-- Node20 -->
<g id="node20" class="node">
<title>Node20</title>
<g id="a_node20"><a xlink:title=" ">
<polygon fill="none" stroke="#bfbfbf" points="1356.5,-0.5 1356.5,-19.5 1412.5,-19.5 1412.5,-0.5 1356.5,-0.5"/>
<text text-anchor="middle" x="1384.5" y="-7.5" font-family="serif" font-size="10.00">fstream</text>
</a>
</g>
</g>
<!-- Node18&#45;&gt;Node20 -->
<g id="edge24" class="edge">
<title>Node18&#45;&gt;Node20</title>
<path fill="none" stroke="midnightblue" d="M1078.18,-57.88C1144.9,-50.65 1247.91,-38.18 1346.18,-20.08"/>
<polygon fill="midnightblue" stroke="midnightblue" points="1347.1,-23.47 1356.29,-18.19 1345.81,-16.59 1347.1,-23.47"/>
</g>
<!-- Node21&#45;&gt;Node2 -->
<g id="edge31" class="edge">
<title>Node21&#45;&gt;Node2</title>
<path fill="none" stroke="midnightblue" d="M460.5,-56.08C460.5,-49.01 460.5,-38.86 460.5,-29.99"/>
<polygon fill="midnightblue" stroke="midnightblue" points="464,-29.75 460.5,-19.75 457,-29.75 464,-29.75"/>
</g>
<!-- Node21&#45;&gt;Node3 -->
<g id="edge34" class="edge">
<title>Node21&#45;&gt;Node3</title>
<path fill="none" stroke="midnightblue" d="M427.21,-56.44C394.9,-48.07 344.24,-34.81 291.67,-20.28"/>
<polygon fill="midnightblue" stroke="midnightblue" points="292.4,-16.85 281.83,-17.55 290.53,-23.6 292.4,-16.85"/>
</g>
<!-- Node21&#45;&gt;Node4 -->
<g id="edge36" class="edge">
<title>Node21&#45;&gt;Node4</title>
<path fill="none" stroke="midnightblue" d="M438.48,-56.44C415.4,-47.48 378.94,-33.31 352.86,-23.18"/>
<polygon fill="midnightblue" stroke="midnightblue" points="354.01,-19.88 343.42,-19.52 351.48,-26.4 354.01,-19.88"/>
</g>
<!-- Node21&#45;&gt;Node5 -->
<g id="edge39" class="edge">
<title>Node21&#45;&gt;Node5</title>
<path fill="none" stroke="midnightblue" d="M448.45,-56.32C437.04,-48.11 419.67,-35.6 406.07,-25.81"/>
<polygon fill="midnightblue" stroke="midnightblue" points="407.93,-22.84 397.77,-19.83 403.84,-28.52 407.93,-22.84"/>
</g>
<!-- Node21&#45;&gt;Node12 -->
<g id="edge32" class="edge">
<title>Node21&#45;&gt;Node12</title>
<path fill="none" stroke="midnightblue" d="M533.7,-56.8C599.86,-49.03 700.1,-36.36 796.37,-20.09"/>
<polygon fill="midnightblue" stroke="midnightblue" points="797.01,-23.53 806.28,-18.4 795.83,-16.63 797.01,-23.53"/>
</g>
<!-- Node21&#45;&gt;Node13 -->
<g id="edge33" class="edge">
<title>Node21&#45;&gt;Node13</title>
<path fill="none" stroke="midnightblue" d="M483.63,-56.44C507.98,-47.44 546.51,-33.19 573.92,-23.05"/>
<polygon fill="midnightblue" stroke="midnightblue" points="575.31,-26.27 583.47,-19.52 572.88,-19.7 575.31,-26.27"/>
</g>
<!-- Node21&#45;&gt;Node15 -->
<g id="edge35" class="edge">
<title>Node21&#45;&gt;Node15</title>
<path fill="none" stroke="midnightblue" d="M497.66,-56.44C533.22,-48.14 588.6,-34.99 644.97,-20.34"/>
<polygon fill="midnightblue" stroke="midnightblue" points="645.97,-23.69 654.76,-17.78 644.2,-16.92 645.97,-23.69"/>
</g>
<!-- Node21&#45;&gt;Node16 -->
<g id="edge37" class="edge">
<title>Node21&#45;&gt;Node16</title>
<path fill="none" stroke="midnightblue" d="M472.39,-56.32C483.65,-48.11 500.79,-35.6 514.21,-25.81"/>
<polygon fill="midnightblue" stroke="midnightblue" points="516.38,-28.56 522.39,-19.83 512.25,-22.9 516.38,-28.56"/>
</g>
<!-- Node22 -->
<g id="node22" class="node">
<title>Node22</title>
<g id="a_node22"><a xlink:title=" ">
<polygon fill="none" stroke="#bfbfbf" points="166,-0.5 166,-19.5 219,-19.5 219,-0.5 166,-0.5"/>
<text text-anchor="middle" x="192.5" y="-7.5" font-family="serif" font-size="10.00">variant</text>
</a>
</g>
</g>
<!-- Node21&#45;&gt;Node22 -->
<g id="edge38" class="edge">
<title>Node21&#45;&gt;Node22</title>
<path fill="none" stroke="midnightblue" d="M412.36,-56.44C367.44,-48.27 298.34,-35.27 228.98,-20.01"/>
<polygon fill="midnightblue" stroke="midnightblue" points="229.72,-16.59 219.2,-17.84 228.2,-23.42 229.72,-16.59"/>
</g>
<!-- Node23&#45;&gt;Node2 -->
<g id="edge41" class="edge">
<title>Node23&#45;&gt;Node2</title>
<path fill="none" stroke="midnightblue" d="M614.5,-56.44C583.32,-47.24 533.57,-32.56 499.09,-22.39"/>
<polygon fill="midnightblue" stroke="midnightblue" points="499.94,-18.99 489.36,-19.52 497.96,-25.7 499.94,-18.99"/>
</g>
<!-- Node23&#45;&gt;Node3 -->
<g id="edge43" class="edge">
<title>Node23&#45;&gt;Node3</title>
<path fill="none" stroke="midnightblue" d="M565.44,-56.49C482.48,-47.2 355.65,-32.25 291.8,-19.94"/>
<polygon fill="midnightblue" stroke="midnightblue" points="292.24,-16.46 281.75,-17.91 290.86,-23.32 292.24,-16.46"/>
</g>
<!-- Node23&#45;&gt;Node5 -->
<g id="edge46" class="edge">
<title>Node23&#45;&gt;Node5</title>
<path fill="none" stroke="midnightblue" d="M595.89,-56.46C552.35,-48.43 485.96,-35.64 419.42,-20.09"/>
<polygon fill="midnightblue" stroke="midnightblue" points="420.14,-16.67 409.6,-17.78 418.53,-23.48 420.14,-16.67"/>
</g>
<!-- Node23&#45;&gt;Node13 -->
<g id="edge42" class="edge">
<title>Node23&#45;&gt;Node13</title>
<path fill="none" stroke="midnightblue" d="M637.39,-56.08C632.22,-48.53 624.65,-37.49 618.31,-28.23"/>
<polygon fill="midnightblue" stroke="midnightblue" points="621.04,-26.02 612.5,-19.75 615.26,-29.98 621.04,-26.02"/>
</g>
<!-- Node23&#45;&gt;Node15 -->
<g id="edge44" class="edge">
<title>Node23&#45;&gt;Node15</title>
<path fill="none" stroke="midnightblue" d="M649.28,-56.08C654.17,-48.53 661.33,-37.49 667.33,-28.23"/>
<polygon fill="midnightblue" stroke="midnightblue" points="670.33,-30.05 672.83,-19.75 664.45,-26.24 670.33,-30.05"/>
</g>
<!-- Node23&#45;&gt;Node16 -->
<g id="edge45" class="edge">
<title>Node23&#45;&gt;Node16</title>
<path fill="none" stroke="midnightblue" d="M625.99,-56.32C608.43,-47.62 581.17,-34.12 560.97,-24.11"/>
<polygon fill="midnightblue" stroke="midnightblue" points="562.48,-20.96 551.97,-19.65 559.38,-27.23 562.48,-20.96"/>
</g>
<!-- Node24&#45;&gt;Node22 -->
<g id="edge50" class="edge">
<title>Node24&#45;&gt;Node22</title>
<path fill="none" stroke="midnightblue" d="M138.78,-56.32C148.34,-48.26 162.78,-36.08 174.28,-26.37"/>
<polygon fill="midnightblue" stroke="midnightblue" points="176.64,-28.96 182.03,-19.83 172.13,-23.61 176.64,-28.96"/>
</g>
<!-- Node25 -->
<g id="node25" class="node">
<title>Node25</title>
<g id="a_node25"><a xlink:title=" ">
<polygon fill="none" stroke="#bfbfbf" points="0,-0.5 0,-19.5 59,-19.5 59,-0.5 0,-0.5"/>
<text text-anchor="middle" x="29.5" y="-7.5" font-family="serif" font-size="10.00">memory</text>
</a>
</g>
</g>
<!-- Node24&#45;&gt;Node25 -->
<g id="edge48" class="edge">
<title>Node24&#45;&gt;Node25</title>
<path fill="none" stroke="midnightblue" d="M112.59,-56.32C96.86,-47.74 72.56,-34.49 54.29,-24.52"/>
<polygon fill="midnightblue" stroke="midnightblue" points="55.82,-21.37 45.37,-19.65 52.47,-27.52 55.82,-21.37"/>
</g>
<!-- Node26 -->
<g id="node26" class="node">
<title>Node26</title>
<g id="a_node26"><a xlink:title=" ">
<polygon fill="none" stroke="#bfbfbf" points="77,-0.5 77,-19.5 148,-19.5 148,-0.5 77,-0.5"/>
<text text-anchor="middle" x="112.5" y="-7.5" font-family="serif" font-size="10.00">type_traits</text>
</a>
</g>
</g>
<!-- Node24&#45;&gt;Node26 -->
<g id="edge49" class="edge">
<title>Node24&#45;&gt;Node26</title>
<path fill="none" stroke="midnightblue" d="M125.86,-56.08C123.71,-48.85 120.62,-38.41 117.95,-29.4"/>
<polygon fill="midnightblue" stroke="midnightblue" points="121.29,-28.34 115.09,-19.75 114.58,-30.33 121.29,-28.34"/>
</g>
</g>
</svg>
