<?xml version="1.0" encoding="UTF-8" standalone="no"?>
<!DOCTYPE svg PUBLIC "-//W3C//DTD SVG 1.1//EN"
 "http://www.w3.org/Graphics/SVG/1.1/DTD/svg11.dtd">
<!-- Generated by graphviz version 2.43.0 (0)
 -->
<!-- Title: PhysicalConvergence.hpp Pages: 1 -->
<!--zoomable 252 -->
<svg id="main" version="1.1" xmlns="http://www.w3.org/2000/svg" xmlns:xlink="http://www.w3.org/1999/xlink" xml:space="preserve" onload="init(evt)">
<style type="text/css"><![CDATA[
.edge:hover path { stroke: red; }
.edge:hover polygon { stroke: red; fill: red; }
]]></style>
<script type="text/javascript"><![CDATA[
var edges = document.getElementsByTagName('g');
if (edges && edges.length) {
  for (var i=0;i<edges.length;i++) {
    if (edges[i].id.substr(0,4)=='edge') {
      edges[i].setAttribute('class','edge');
    }
  }
}
]]></script>
        <defs>
                <circle id="rim" cx="0" cy="0" r="7"/>
                <circle id="rim2" cx="0" cy="0" r="3.5"/>
                <g id="zoomPlus">
                        <use xlink:href="#rim" fill="#404040">
                                <set attributeName="fill" to="#808080" begin="zoomplus.mouseover" end="zoomplus.mouseout"/>
                        </use>
                        <path d="M-4,0h8M0,-4v8" fill="none" stroke="white" stroke-width="1.5" pointer-events="none"/>
                </g>
                <g id="zoomMin">
                        <use xlink:href="#rim" fill="#404040">
                                <set attributeName="fill" to="#808080" begin="zoomminus.mouseover" end="zoomminus.mouseout"/>
                        </use>
                        <path d="M-4,0h8" fill="none" stroke="white" stroke-width="1.5" pointer-events="none"/>
                </g>
                <g id="dirArrow">
                        <path fill="none" stroke="white" stroke-width="1.5" d="M0,-3.0v7 M-2.5,-0.5L0,-3.0L2.5,-0.5"/>
                </g>
               <g id="resetDef">
                       <use xlink:href="#rim2" fill="#404040">
                               <set attributeName="fill" to="#808080" begin="reset.mouseover" end="reset.mouseout"/>
                       </use>
               </g>
        </defs>

<script type="text/javascript">
var viewWidth = 602;
var viewHeight = 252;
var sectionId = 'dynsection-1';
</script>
<script xlink:href="svgpan.js"/>
<svg id="graph" class="graph">
<g id="viewport">
<title>PhysicalConvergence.hpp</title>
<!-- Node1 -->
<g id="node1" class="node">
<title>Node1</title>
<g id="a_node1"><a xlink:title="Class used to define a PhysicalConvergence criterion (physical increment allowed per time&#45;step)">
<polygon fill="#bfbfbf" stroke="black" points="131.97,-224.5 131.97,-243.5 280.97,-243.5 280.97,-224.5 131.97,-224.5"/>
<text text-anchor="middle" x="206.47" y="-231.5" font-family="serif" font-size="10.00">PhysicalConvergence.hpp</text>
</a>
</g>
</g>
<!-- Node2 -->
<g id="node2" class="node">
<title>Node2</title>
<g id="a_node2"><a xlink:href="Convergence_8hpp.html" target="_top" xlink:title="Class used to build and manage PhysicalConvergence.">
<polygon fill="none" stroke="black" points="111.97,-168.5 111.97,-187.5 218.97,-187.5 218.97,-168.5 111.97,-168.5"/>
<text text-anchor="middle" x="165.47" y="-175.5" font-family="serif" font-size="10.00">Convergence.hpp</text>
</a>
</g>
</g>
<!-- Node1&#45;&gt;Node2 -->
<g id="edge1" class="edge">
<title>Node1&#45;&gt;Node2</title>
<path fill="none" stroke="midnightblue" d="M193.45,-215.86C186.35,-206.5 177.86,-195.33 172.11,-187.75"/>
<polygon fill="midnightblue" stroke="midnightblue" points="190.86,-218.24 199.7,-224.08 196.44,-214 190.86,-218.24"/>
</g>
<!-- Node3 -->
<g id="node3" class="node">
<title>Node3</title>
<g id="a_node3"><a xlink:href="Calphad__problem_8hpp.html" target="_top" xlink:title="Class used to defined a Calphad_Problem objet.">
<polygon fill="none" stroke="black" points="17.97,-112.5 17.97,-131.5 148.97,-131.5 148.97,-112.5 17.97,-112.5"/>
<text text-anchor="middle" x="83.47" y="-119.5" font-family="serif" font-size="10.00">Calphad_problem.hpp</text>
</a>
</g>
</g>
<!-- Node1&#45;&gt;Node3 -->
<g id="edge11" class="edge">
<title>Node1&#45;&gt;Node3</title>
<path fill="none" stroke="midnightblue" d="M157.86,-221.32C138.6,-214.48 117.7,-203.94 103.47,-188 89,-171.79 85,-145.3 83.89,-131.69"/>
<polygon fill="midnightblue" stroke="midnightblue" points="156.85,-224.67 167.44,-224.48 159.04,-218.02 156.85,-224.67"/>
</g>
<!-- Node4 -->
<g id="node4" class="node">
<title>Node4</title>
<g id="a_node4"><a xlink:href="sloth_8hpp.html" target="_top" xlink:title="List of all header files contained in the kernel directory.">
<polygon fill="none" stroke="black" points="228.97,-0.5 228.97,-19.5 293.97,-19.5 293.97,-0.5 228.97,-0.5"/>
<text text-anchor="middle" x="261.47" y="-7.5" font-family="serif" font-size="10.00">sloth.hpp</text>
</a>
</g>
</g>
<!-- Node1&#45;&gt;Node4 -->
<g id="edge21" class="edge">
<title>Node1&#45;&gt;Node4</title>
<path fill="none" stroke="midnightblue" d="M148.98,-222.33C77.75,-206.35 -29.84,-171.53 8.47,-112 56.97,-36.63 172.29,-17.5 228.94,-12.65"/>
<polygon fill="midnightblue" stroke="midnightblue" points="148.26,-225.76 158.77,-224.46 149.75,-218.92 148.26,-225.76"/>
</g>
<!-- Node5 -->
<g id="node5" class="node">
<title>Node5</title>
<g id="a_node5"><a xlink:href="Problem_8hpp.html" target="_top" xlink:title="Class used to defined a Problem objet.">
<polygon fill="none" stroke="black" points="205.97,-112.5 205.97,-131.5 288.97,-131.5 288.97,-112.5 205.97,-112.5"/>
<text text-anchor="middle" x="247.47" y="-119.5" font-family="serif" font-size="10.00">Problem.hpp</text>
</a>
</g>
</g>
<!-- Node1&#45;&gt;Node5 -->
<g id="edge12" class="edge">
<title>Node1&#45;&gt;Node5</title>
<path fill="none" stroke="midnightblue" d="M215.99,-215.3C220.15,-207.14 224.9,-197.22 228.47,-188 236.11,-168.27 242.4,-144.15 245.46,-131.57"/>
<polygon fill="midnightblue" stroke="midnightblue" points="212.85,-213.75 211.31,-224.24 219.05,-217 212.85,-213.75"/>
</g>
<!-- Node7 -->
<g id="node7" class="node">
<title>Node7</title>
<g id="a_node7"><a xlink:href="PropertyProblem_8hpp.html" target="_top" xlink:title="Class used to compute primary variables as a function of auxialiary variables.">
<polygon fill="none" stroke="black" points="306.97,-112.5 306.97,-131.5 433.97,-131.5 433.97,-112.5 306.97,-112.5"/>
<text text-anchor="middle" x="370.47" y="-119.5" font-family="serif" font-size="10.00">PropertyProblem.hpp</text>
</a>
</g>
</g>
<!-- Node1&#45;&gt;Node7 -->
<g id="edge20" class="edge">
<title>Node1&#45;&gt;Node7</title>
<path fill="none" stroke="midnightblue" d="M290.52,-222.88C333.47,-215.8 379.41,-204.59 392.47,-188 405.88,-170.96 389.1,-145.3 378.28,-131.88"/>
<polygon fill="midnightblue" stroke="midnightblue" points="289.88,-219.44 280.55,-224.46 290.98,-226.35 289.88,-219.44"/>
</g>
<!-- Node8 -->
<g id="node8" class="node">
<title>Node8</title>
<g id="a_node8"><a xlink:href="ProblemBase_8hpp.html" target="_top" xlink:title="Base class for building Problems.">
<polygon fill="none" stroke="black" points="275.97,-168.5 275.97,-187.5 382.97,-187.5 382.97,-168.5 275.97,-168.5"/>
<text text-anchor="middle" x="329.47" y="-175.5" font-family="serif" font-size="10.00">ProblemBase.hpp</text>
</a>
</g>
</g>
<!-- Node1&#45;&gt;Node8 -->
<g id="edge13" class="edge">
<title>Node1&#45;&gt;Node8</title>
<path fill="none" stroke="midnightblue" d="M235.24,-220.37C258.28,-210.26 289.95,-196.35 310.07,-187.52"/>
<polygon fill="midnightblue" stroke="midnightblue" points="233.71,-217.22 225.96,-224.44 236.52,-223.63 233.71,-217.22"/>
</g>
<!-- Node2&#45;&gt;Node3 -->
<g id="edge2" class="edge">
<title>Node2&#45;&gt;Node3</title>
<path fill="none" stroke="midnightblue" d="M143.64,-162.62C128.66,-152.76 109.27,-139.99 96.61,-131.65"/>
<polygon fill="midnightblue" stroke="midnightblue" points="142.02,-165.75 152.29,-168.32 145.87,-159.9 142.02,-165.75"/>
</g>
<!-- Node2&#45;&gt;Node4 -->
<g id="edge10" class="edge">
<title>Node2&#45;&gt;Node4</title>
<path fill="none" stroke="midnightblue" d="M173.65,-159.09C179.84,-145.88 188.73,-127.58 197.47,-112 217.17,-76.88 243.76,-36.98 255.49,-19.72"/>
<polygon fill="midnightblue" stroke="midnightblue" points="170.35,-157.89 169.33,-168.44 176.7,-160.83 170.35,-157.89"/>
</g>
<!-- Node2&#45;&gt;Node5 -->
<g id="edge4" class="edge">
<title>Node2&#45;&gt;Node5</title>
<path fill="none" stroke="midnightblue" d="M187.3,-162.62C202.28,-152.76 221.67,-139.99 234.33,-131.65"/>
<polygon fill="midnightblue" stroke="midnightblue" points="185.07,-159.9 178.64,-168.32 188.92,-165.75 185.07,-159.9"/>
</g>
<!-- Node2&#45;&gt;Node7 -->
<g id="edge8" class="edge">
<title>Node2&#45;&gt;Node7</title>
<path fill="none" stroke="midnightblue" d="M207.88,-165.83C246.58,-155.63 302.96,-140.78 338.14,-131.52"/>
<polygon fill="midnightblue" stroke="midnightblue" points="206.73,-162.51 197.95,-168.44 208.51,-169.28 206.73,-162.51"/>
</g>
<!-- Node3&#45;&gt;Node4 -->
<g id="edge3" class="edge">
<title>Node3&#45;&gt;Node4</title>
<path fill="none" stroke="midnightblue" d="M100.44,-105.08C116.01,-91 140.13,-70.51 163.47,-56 187.79,-40.87 218.05,-27.75 238.45,-19.65"/>
<polygon fill="midnightblue" stroke="midnightblue" points="97.72,-102.82 92.72,-112.16 102.46,-107.97 97.72,-102.82"/>
</g>
<!-- Node5&#45;&gt;Node4 -->
<g id="edge5" class="edge">
<title>Node5&#45;&gt;Node4</title>
<path fill="none" stroke="midnightblue" d="M247.85,-102.06C248.3,-89.05 249.3,-71.41 251.47,-56 253.28,-43.16 256.8,-28.55 259.15,-19.55"/>
<polygon fill="midnightblue" stroke="midnightblue" points="244.35,-102.03 247.57,-112.12 251.35,-102.22 244.35,-102.03"/>
</g>
<!-- Node6 -->
<g id="node6" class="node">
<title>Node6</title>
<g id="a_node6"><a xlink:href="Time_8hpp.html" target="_top" xlink:title="Main time loop.">
<polygon fill="none" stroke="black" points="259.97,-56.5 259.97,-75.5 324.97,-75.5 324.97,-56.5 259.97,-56.5"/>
<text text-anchor="middle" x="292.47" y="-63.5" font-family="serif" font-size="10.00">Time.hpp</text>
</a>
</g>
</g>
<!-- Node5&#45;&gt;Node6 -->
<g id="edge6" class="edge">
<title>Node5&#45;&gt;Node6</title>
<path fill="none" stroke="midnightblue" d="M261.51,-104.14C269.36,-94.74 278.8,-83.4 285.18,-75.75"/>
<polygon fill="midnightblue" stroke="midnightblue" points="258.61,-102.16 254.9,-112.08 263.99,-106.64 258.61,-102.16"/>
</g>
<!-- Node6&#45;&gt;Node4 -->
<g id="edge7" class="edge">
<title>Node6&#45;&gt;Node4</title>
<path fill="none" stroke="midnightblue" d="M282.29,-47.27C276.99,-38.05 270.75,-27.17 266.49,-19.75"/>
<polygon fill="midnightblue" stroke="midnightblue" points="279.34,-49.15 287.35,-56.08 285.41,-45.67 279.34,-49.15"/>
</g>
<!-- Node7&#45;&gt;Node4 -->
<g id="edge9" class="edge">
<title>Node7&#45;&gt;Node4</title>
<path fill="none" stroke="midnightblue" d="M363.32,-102.58C357.22,-88.6 347.39,-69.53 334.47,-56 319.15,-39.95 296.94,-27.34 281.04,-19.6"/>
<polygon fill="midnightblue" stroke="midnightblue" points="360.2,-104.19 367.25,-112.1 366.67,-101.52 360.2,-104.19"/>
</g>
<!-- Node8&#45;&gt;Node3 -->
<g id="edge14" class="edge">
<title>Node8&#45;&gt;Node3</title>
<path fill="none" stroke="midnightblue" d="M280.64,-166.28C234.15,-156.08 165.11,-140.92 122.27,-131.52"/>
<polygon fill="midnightblue" stroke="midnightblue" points="279.97,-169.72 290.49,-168.44 281.47,-162.88 279.97,-169.72"/>
</g>
<!-- Node8&#45;&gt;Node4 -->
<g id="edge19" class="edge">
<title>Node8&#45;&gt;Node4</title>
<path fill="none" stroke="midnightblue" d="M389.08,-165.97C424.05,-156.41 458.65,-139.66 443.47,-112 412.69,-55.93 337.47,-29.11 293.97,-17.9"/>
<polygon fill="midnightblue" stroke="midnightblue" points="388.08,-162.61 379.25,-168.47 389.81,-169.39 388.08,-162.61"/>
</g>
<!-- Node8&#45;&gt;Node5 -->
<g id="edge17" class="edge">
<title>Node8&#45;&gt;Node5</title>
<path fill="none" stroke="midnightblue" d="M307.64,-162.62C292.66,-152.76 273.27,-139.99 260.61,-131.65"/>
<polygon fill="midnightblue" stroke="midnightblue" points="306.02,-165.75 316.29,-168.32 309.87,-159.9 306.02,-165.75"/>
</g>
<!-- Node8&#45;&gt;Node7 -->
<g id="edge18" class="edge">
<title>Node8&#45;&gt;Node7</title>
<path fill="none" stroke="midnightblue" d="M342.49,-159.86C349.58,-150.5 358.07,-139.33 363.82,-131.75"/>
<polygon fill="midnightblue" stroke="midnightblue" points="339.5,-158 336.24,-168.08 345.07,-162.24 339.5,-158"/>
</g>
<!-- Node9 -->
<g id="node9" class="node">
<title>Node9</title>
<g id="a_node9"><a xlink:href="MPIProblem_8hpp.html" target="_top" xlink:title="Class used to defined a MPI_Problem objet.">
<polygon fill="none" stroke="black" points="490.47,-56.5 490.47,-75.5 594.47,-75.5 594.47,-56.5 490.47,-56.5"/>
<text text-anchor="middle" x="542.47" y="-63.5" font-family="serif" font-size="10.00">MPIProblem.hpp</text>
</a>
</g>
</g>
<!-- Node8&#45;&gt;Node9 -->
<g id="edge15" class="edge">
<title>Node8&#45;&gt;Node9</title>
<path fill="none" stroke="midnightblue" d="M386.97,-166.17C415.26,-159.2 449.09,-148.32 476.47,-132 501.89,-116.85 524.86,-89.9 535.78,-75.94"/>
<polygon fill="midnightblue" stroke="midnightblue" points="386.14,-162.77 377.21,-168.48 387.74,-169.59 386.14,-162.77"/>
</g>
<!-- Node9&#45;&gt;Node4 -->
<g id="edge16" class="edge">
<title>Node9&#45;&gt;Node4</title>
<path fill="none" stroke="midnightblue" d="M487.95,-54.52C430.52,-43.49 341.95,-26.47 294.37,-17.32"/>
<polygon fill="midnightblue" stroke="midnightblue" points="487.46,-57.99 497.94,-56.44 488.78,-51.12 487.46,-57.99"/>
</g>
</g>
</svg>
        <g id="navigator" transform="translate(0 0)" fill="#404254">
                <rect fill="#f2f5e9" fill-opacity="0.5" stroke="#606060" stroke-width=".5" x="0" y="0" width="60" height="60"/>
                <use id="zoomplus" xlink:href="#zoomPlus" x="17" y="9" onmousedown="handleZoom(evt,'in')"/>
                <use id="zoomminus" xlink:href="#zoomMin" x="42" y="9" onmousedown="handleZoom(evt,'out')"/>
                <use id="reset" xlink:href="#resetDef" x="30" y="36" onmousedown="handleReset()"/>
                <g id="arrowUp" xlink:href="#dirArrow" transform="translate(30 24)" onmousedown="handlePan(0,-1)">
                  <use xlink:href="#rim" fill="#404040">
                        <set attributeName="fill" to="#808080" begin="arrowUp.mouseover" end="arrowUp.mouseout"/>
                  </use>
                  <path fill="none" stroke="white" stroke-width="1.5" d="M0,-3.0v7 M-2.5,-0.5L0,-3.0L2.5,-0.5"/>
                </g>
                <g id="arrowRight" xlink:href="#dirArrow" transform="rotate(90) translate(36 -43)" onmousedown="handlePan(1,0)">
                  <use xlink:href="#rim" fill="#404040">
                        <set attributeName="fill" to="#808080" begin="arrowRight.mouseover" end="arrowRight.mouseout"/>
                  </use>
                  <path fill="none" stroke="white" stroke-width="1.5" d="M0,-3.0v7 M-2.5,-0.5L0,-3.0L2.5,-0.5"/>
                </g>
                <g id="arrowDown" xlink:href="#dirArrow" transform="rotate(180) translate(-30 -48)" onmousedown="handlePan(0,1)">
                  <use xlink:href="#rim" fill="#404040">
                        <set attributeName="fill" to="#808080" begin="arrowDown.mouseover" end="arrowDown.mouseout"/>
                  </use>
                  <path fill="none" stroke="white" stroke-width="1.5" d="M0,-3.0v7 M-2.5,-0.5L0,-3.0L2.5,-0.5"/>
                </g>
                <g id="arrowLeft" xlink:href="#dirArrow" transform="rotate(270) translate(-36 17)" onmousedown="handlePan(-1,0)">
                  <use xlink:href="#rim" fill="#404040">
                        <set attributeName="fill" to="#808080" begin="arrowLeft.mouseover" end="arrowLeft.mouseout"/>
                  </use>
                  <path fill="none" stroke="white" stroke-width="1.5" d="M0,-3.0v7 M-2.5,-0.5L0,-3.0L2.5,-0.5"/>
                </g>
        </g>
        <svg viewBox="0 0 15 15" width="100%" height="30px" preserveAspectRatio="xMaxYMin meet">
         <g id="arrow_out" transform="scale(0.3 0.3)">
          <a xlink:href="PhysicalConvergence_8hpp__dep__incl_org.svg" target="_base">
           <rect id="button" ry="5" rx="5" y="6" x="6" height="38" width="38"
                fill="#f2f5e9" fill-opacity="0.5" stroke="#606060" stroke-width="1.0"/>
           <path id="arrow"
             d="M 11.500037,31.436501 C 11.940474,20.09759 22.043105,11.32322 32.158766,21.979434 L 37.068811,17.246167 C 37.068811,17.246167 37.088388,32 37.088388,32 L 22.160133,31.978069 C 22.160133,31.978069 26.997745,27.140456 26.997745,27.140456 C 18.528582,18.264221 13.291696,25.230495 11.500037,31.436501 z"
             style="fill:#404040;"/>
          </a>
         </g>
        </svg>
</svg>
