<?xml version="1.0" encoding="UTF-8" standalone="no"?>
<!DOCTYPE svg PUBLIC "-//W3C//DTD SVG 1.1//EN"
 "http://www.w3.org/Graphics/SVG/1.1/DTD/svg11.dtd">
<!-- Generated by graphviz version 2.43.0 (0)
 -->
<!-- Title: postprocessing.hpp Pages: 1 -->
<svg width="555pt" height="252pt"
 viewBox="0.00 0.00 554.74 252.00" xmlns="http://www.w3.org/2000/svg" xmlns:xlink="http://www.w3.org/1999/xlink">
<g id="graph0" class="graph" transform="scale(1 1) rotate(0) translate(4 248)">
<title>postprocessing.hpp</title>
<!-- Node1 -->
<g id="node1" class="node">
<title>Node1</title>
<g id="a_node1"><a xlink:title="Post&#45;processing features.">
<polygon fill="#bfbfbf" stroke="black" points="34.74,-224.5 34.74,-243.5 151.74,-243.5 151.74,-224.5 34.74,-224.5"/>
<text text-anchor="middle" x="93.24" y="-231.5" font-family="serif" font-size="10.00">postprocessing.hpp</text>
</a>
</g>
</g>
<!-- Node2 -->
<g id="node2" class="node">
<title>Node2</title>
<g id="a_node2"><a xlink:href="MPIProblem_8hpp.html" target="_top" xlink:title="Class used to defined a MPI_Problem objet.">
<polygon fill="none" stroke="black" points="14.24,-112.5 14.24,-131.5 118.24,-131.5 118.24,-112.5 14.24,-112.5"/>
<text text-anchor="middle" x="66.24" y="-119.5" font-family="serif" font-size="10.00">MPIProblem.hpp</text>
</a>
</g>
</g>
<!-- Node1&#45;&gt;Node2 -->
<g id="edge1" class="edge">
<title>Node1&#45;&gt;Node2</title>
<path fill="none" stroke="midnightblue" d="M88.66,-214.35C82.75,-190.25 72.7,-149.31 68.35,-131.59"/>
<polygon fill="midnightblue" stroke="midnightblue" points="85.34,-215.49 91.12,-224.37 92.14,-213.82 85.34,-215.49"/>
</g>
<!-- Node3 -->
<g id="node3" class="node">
<title>Node3</title>
<g id="a_node3"><a xlink:href="sloth_8hpp.html" target="_top" xlink:title="List of all header files contained in the kernel directory.">
<polygon fill="none" stroke="black" points="171.74,-0.5 171.74,-19.5 236.74,-19.5 236.74,-0.5 171.74,-0.5"/>
<text text-anchor="middle" x="204.24" y="-7.5" font-family="serif" font-size="10.00">sloth.hpp</text>
</a>
</g>
</g>
<!-- Node1&#45;&gt;Node3 -->
<g id="edge15" class="edge">
<title>Node1&#45;&gt;Node3</title>
<path fill="none" stroke="midnightblue" d="M69.51,-218.71C36.72,-197.03 -16.09,-153.89 5.24,-112 37.15,-49.34 123.84,-24.76 171.6,-15.76"/>
<polygon fill="midnightblue" stroke="midnightblue" points="67.83,-221.8 78.14,-224.24 71.61,-215.9 67.83,-221.8"/>
</g>
<!-- Node4 -->
<g id="node4" class="node">
<title>Node4</title>
<g id="a_node4"><a xlink:href="Problem_8hpp.html" target="_top" xlink:title="Class used to defined a Problem objet.">
<polygon fill="none" stroke="black" points="136.74,-112.5 136.74,-131.5 219.74,-131.5 219.74,-112.5 136.74,-112.5"/>
<text text-anchor="middle" x="178.24" y="-119.5" font-family="serif" font-size="10.00">Problem.hpp</text>
</a>
</g>
</g>
<!-- Node1&#45;&gt;Node4 -->
<g id="edge3" class="edge">
<title>Node1&#45;&gt;Node4</title>
<path fill="none" stroke="midnightblue" d="M106.17,-216.27C124.54,-192.49 157.54,-149.79 171.6,-131.59"/>
<polygon fill="midnightblue" stroke="midnightblue" points="103.26,-214.32 99.91,-224.37 108.8,-218.6 103.26,-214.32"/>
</g>
<!-- Node6 -->
<g id="node6" class="node">
<title>Node6</title>
<g id="a_node6"><a xlink:href="ProblemBase_8hpp.html" target="_top" xlink:title="Base class for building Problems.">
<polygon fill="none" stroke="black" points="186.74,-168.5 186.74,-187.5 293.74,-187.5 293.74,-168.5 186.74,-168.5"/>
<text text-anchor="middle" x="240.24" y="-175.5" font-family="serif" font-size="10.00">ProblemBase.hpp</text>
</a>
</g>
</g>
<!-- Node1&#45;&gt;Node6 -->
<g id="edge7" class="edge">
<title>Node1&#45;&gt;Node6</title>
<path fill="none" stroke="midnightblue" d="M126.16,-220.91C153.8,-210.75 192.59,-196.51 217.06,-187.52"/>
<polygon fill="midnightblue" stroke="midnightblue" points="124.71,-217.71 116.53,-224.44 127.13,-224.28 124.71,-217.71"/>
</g>
<!-- Node2&#45;&gt;Node3 -->
<g id="edge2" class="edge">
<title>Node2&#45;&gt;Node3</title>
<path fill="none" stroke="midnightblue" d="M72.38,-102.52C77.95,-88.2 87.42,-68.73 101.24,-56 121.05,-37.75 149.43,-26.1 171.39,-19.24"/>
<polygon fill="midnightblue" stroke="midnightblue" points="68.97,-101.66 68.87,-112.26 75.55,-104.03 68.97,-101.66"/>
</g>
<!-- Node4&#45;&gt;Node3 -->
<g id="edge4" class="edge">
<title>Node4&#45;&gt;Node3</title>
<path fill="none" stroke="midnightblue" d="M182.65,-102.35C188.35,-78.25 198.02,-37.31 202.21,-19.59"/>
<polygon fill="midnightblue" stroke="midnightblue" points="179.18,-101.83 180.28,-112.37 185.99,-103.44 179.18,-101.83"/>
</g>
<!-- Node5 -->
<g id="node5" class="node">
<title>Node5</title>
<g id="a_node5"><a xlink:href="Time_8hpp.html" target="_top" xlink:title="Main time loop.">
<polygon fill="none" stroke="black" points="110.74,-56.5 110.74,-75.5 175.74,-75.5 175.74,-56.5 110.74,-56.5"/>
<text text-anchor="middle" x="143.24" y="-63.5" font-family="serif" font-size="10.00">Time.hpp</text>
</a>
</g>
</g>
<!-- Node4&#45;&gt;Node5 -->
<g id="edge5" class="edge">
<title>Node4&#45;&gt;Node5</title>
<path fill="none" stroke="midnightblue" d="M166.94,-103.57C160.92,-94.27 153.77,-83.25 148.91,-75.75"/>
<polygon fill="midnightblue" stroke="midnightblue" points="164.09,-105.6 172.46,-112.08 169.96,-101.79 164.09,-105.6"/>
</g>
<!-- Node5&#45;&gt;Node3 -->
<g id="edge6" class="edge">
<title>Node5&#45;&gt;Node3</title>
<path fill="none" stroke="midnightblue" d="M160.71,-49.54C171.59,-39.91 185.19,-27.87 194.26,-19.83"/>
<polygon fill="midnightblue" stroke="midnightblue" points="158.21,-47.07 153.04,-56.32 162.85,-52.32 158.21,-47.07"/>
</g>
<!-- Node6&#45;&gt;Node2 -->
<g id="edge10" class="edge">
<title>Node6&#45;&gt;Node2</title>
<path fill="none" stroke="midnightblue" d="M202.98,-165.44C170.17,-155.26 123.16,-140.66 93.68,-131.52"/>
<polygon fill="midnightblue" stroke="midnightblue" points="202.08,-168.82 212.67,-168.44 204.16,-162.14 202.08,-168.82"/>
</g>
<!-- Node6&#45;&gt;Node3 -->
<g id="edge14" class="edge">
<title>Node6&#45;&gt;Node3</title>
<path fill="none" stroke="midnightblue" d="M237.01,-158.08C234.73,-145.09 231.5,-127.46 228.24,-112 220.99,-77.61 210.86,-37.01 206.44,-19.61"/>
<polygon fill="midnightblue" stroke="midnightblue" points="233.6,-158.88 238.75,-168.14 240.49,-157.69 233.6,-158.88"/>
</g>
<!-- Node6&#45;&gt;Node4 -->
<g id="edge11" class="edge">
<title>Node6&#45;&gt;Node4</title>
<path fill="none" stroke="midnightblue" d="M222.49,-161.54C211.43,-151.91 197.61,-139.87 188.38,-131.83"/>
<polygon fill="midnightblue" stroke="midnightblue" points="220.44,-164.4 230.28,-168.32 225.04,-159.12 220.44,-164.4"/>
</g>
<!-- Node7 -->
<g id="node7" class="node">
<title>Node7</title>
<g id="a_node7"><a xlink:href="Calphad__problem_8hpp.html" target="_top" xlink:title="Class used to defined a Calphad_Problem objet.">
<polygon fill="none" stroke="black" points="270.74,-56.5 270.74,-75.5 401.74,-75.5 401.74,-56.5 270.74,-56.5"/>
<text text-anchor="middle" x="336.24" y="-63.5" font-family="serif" font-size="10.00">Calphad_problem.hpp</text>
</a>
</g>
</g>
<!-- Node6&#45;&gt;Node7 -->
<g id="edge8" class="edge">
<title>Node6&#45;&gt;Node7</title>
<path fill="none" stroke="midnightblue" d="M254.57,-160.59C275.26,-136.87 312.79,-93.87 328.74,-75.59"/>
<polygon fill="midnightblue" stroke="midnightblue" points="251.71,-158.53 247.77,-168.37 256.99,-163.14 251.71,-158.53"/>
</g>
<!-- Node8 -->
<g id="node8" class="node">
<title>Node8</title>
<g id="a_node8"><a xlink:href="PropertyProblem_8hpp.html" target="_top" xlink:title="Class used to compute primary variables as a function of auxialiary variables.">
<polygon fill="none" stroke="black" points="419.74,-56.5 419.74,-75.5 546.74,-75.5 546.74,-56.5 419.74,-56.5"/>
<text text-anchor="middle" x="483.24" y="-63.5" font-family="serif" font-size="10.00">PropertyProblem.hpp</text>
</a>
</g>
</g>
<!-- Node6&#45;&gt;Node8 -->
<g id="edge12" class="edge">
<title>Node6&#45;&gt;Node8</title>
<path fill="none" stroke="midnightblue" d="M268.6,-164.16C318.74,-141.47 421.76,-94.83 464.26,-75.59"/>
<polygon fill="midnightblue" stroke="midnightblue" points="266.98,-161.06 259.31,-168.37 269.86,-167.43 266.98,-161.06"/>
</g>
<!-- Node7&#45;&gt;Node3 -->
<g id="edge9" class="edge">
<title>Node7&#45;&gt;Node3</title>
<path fill="none" stroke="midnightblue" d="M306.02,-52.64C281.25,-42.5 246.84,-28.43 225.06,-19.52"/>
<polygon fill="midnightblue" stroke="midnightblue" points="304.74,-55.9 315.33,-56.44 307.4,-49.42 304.74,-55.9"/>
</g>
<!-- Node8&#45;&gt;Node3 -->
<g id="edge13" class="edge">
<title>Node8&#45;&gt;Node3</title>
<path fill="none" stroke="midnightblue" d="M429.11,-54.52C372.09,-43.49 284.15,-26.47 236.91,-17.32"/>
<polygon fill="midnightblue" stroke="midnightblue" points="428.55,-57.98 439.03,-56.44 429.88,-51.11 428.55,-57.98"/>
</g>
</g>
</svg>
