<?xml version="1.0" encoding="UTF-8" standalone="no"?>
<!DOCTYPE svg PUBLIC "-//W3C//DTD SVG 1.1//EN"
 "http://www.w3.org/Graphics/SVG/1.1/DTD/svg11.dtd">
<!-- Generated by graphviz version 2.43.0 (0)
 -->
<!-- Title: ProblemBase.hpp Pages: 1 -->
<svg width="513pt" height="196pt"
 viewBox="0.00 0.00 513.00 196.00" xmlns="http://www.w3.org/2000/svg" xmlns:xlink="http://www.w3.org/1999/xlink">
<g id="graph0" class="graph" transform="scale(1 1) rotate(0) translate(4 192)">
<title>ProblemBase.hpp</title>
<!-- Node1 -->
<g id="node1" class="node">
<title>Node1</title>
<g id="a_node1"><a xlink:title="Base class for building Problems.">
<polygon fill="#bfbfbf" stroke="black" points="186,-168.5 186,-187.5 293,-187.5 293,-168.5 186,-168.5"/>
<text text-anchor="middle" x="239.5" y="-175.5" font-family="serif" font-size="10.00">ProblemBase.hpp</text>
</a>
</g>
</g>
<!-- Node2 -->
<g id="node2" class="node">
<title>Node2</title>
<g id="a_node2"><a xlink:href="Calphad__problem_8hpp.html" target="_top" xlink:title="Class used to defined a Calphad_Problem objet.">
<polygon fill="none" stroke="black" points="0,-56.5 0,-75.5 131,-75.5 131,-56.5 0,-56.5"/>
<text text-anchor="middle" x="65.5" y="-63.5" font-family="serif" font-size="10.00">Calphad_problem.hpp</text>
</a>
</g>
</g>
<!-- Node1&#45;&gt;Node2 -->
<g id="edge1" class="edge">
<title>Node1&#45;&gt;Node2</title>
<path fill="none" stroke="midnightblue" d="M208.54,-164.39C189.72,-156.19 165.55,-144.69 145.5,-132 117.98,-114.58 89.16,-89.07 74.79,-75.79"/>
<polygon fill="midnightblue" stroke="midnightblue" points="207.26,-167.65 217.84,-168.36 210.02,-161.21 207.26,-167.65"/>
</g>
<!-- Node3 -->
<g id="node3" class="node">
<title>Node3</title>
<g id="a_node3"><a xlink:href="sloth_8hpp.html" target="_top" xlink:title="List of all header files contained in the kernel directory.">
<polygon fill="none" stroke="black" points="247,-0.5 247,-19.5 312,-19.5 312,-0.5 247,-0.5"/>
<text text-anchor="middle" x="279.5" y="-7.5" font-family="serif" font-size="10.00">sloth.hpp</text>
</a>
</g>
</g>
<!-- Node1&#45;&gt;Node3 -->
<g id="edge11" class="edge">
<title>Node1&#45;&gt;Node3</title>
<path fill="none" stroke="midnightblue" d="M221.43,-161.62C195.97,-138.06 155.15,-91.97 178.5,-56 193.45,-32.98 223.21,-21.63 246.57,-16.1"/>
<polygon fill="midnightblue" stroke="midnightblue" points="219.26,-164.38 229.05,-168.44 223.93,-159.16 219.26,-164.38"/>
</g>
<!-- Node4 -->
<g id="node4" class="node">
<title>Node4</title>
<g id="a_node4"><a xlink:href="MPIProblem_8hpp.html" target="_top" xlink:title="Class used to defined a MPI_Problem objet.">
<polygon fill="none" stroke="black" points="187.5,-56.5 187.5,-75.5 291.5,-75.5 291.5,-56.5 187.5,-56.5"/>
<text text-anchor="middle" x="239.5" y="-63.5" font-family="serif" font-size="10.00">MPIProblem.hpp</text>
</a>
</g>
</g>
<!-- Node1&#45;&gt;Node4 -->
<g id="edge3" class="edge">
<title>Node1&#45;&gt;Node4</title>
<path fill="none" stroke="midnightblue" d="M239.5,-158.35C239.5,-134.25 239.5,-93.31 239.5,-75.59"/>
<polygon fill="midnightblue" stroke="midnightblue" points="236,-158.37 239.5,-168.37 243,-158.37 236,-158.37"/>
</g>
<!-- Node5 -->
<g id="node5" class="node">
<title>Node5</title>
<g id="a_node5"><a xlink:href="Problem_8hpp.html" target="_top" xlink:title="Class used to defined a Problem objet.">
<polygon fill="none" stroke="black" points="277,-112.5 277,-131.5 360,-131.5 360,-112.5 277,-112.5"/>
<text text-anchor="middle" x="318.5" y="-119.5" font-family="serif" font-size="10.00">Problem.hpp</text>
</a>
</g>
</g>
<!-- Node1&#45;&gt;Node5 -->
<g id="edge5" class="edge">
<title>Node1&#45;&gt;Node5</title>
<path fill="none" stroke="midnightblue" d="M260.53,-162.62C274.97,-152.76 293.64,-139.99 305.84,-131.65"/>
<polygon fill="midnightblue" stroke="midnightblue" points="258.47,-159.79 252.19,-168.32 262.42,-165.57 258.47,-159.79"/>
</g>
<!-- Node7 -->
<g id="node7" class="node">
<title>Node7</title>
<g id="a_node7"><a xlink:href="PropertyProblem_8hpp.html" target="_top" xlink:title="Class used to compute primary variables as a function of auxialiary variables.">
<polygon fill="none" stroke="black" points="378,-112.5 378,-131.5 505,-131.5 505,-112.5 378,-112.5"/>
<text text-anchor="middle" x="441.5" y="-119.5" font-family="serif" font-size="10.00">PropertyProblem.hpp</text>
</a>
</g>
</g>
<!-- Node1&#45;&gt;Node7 -->
<g id="edge9" class="edge">
<title>Node1&#45;&gt;Node7</title>
<path fill="none" stroke="midnightblue" d="M281.29,-165.83C319.43,-155.63 374.98,-140.78 409.64,-131.52"/>
<polygon fill="midnightblue" stroke="midnightblue" points="280.26,-162.48 271.51,-168.44 282.07,-169.24 280.26,-162.48"/>
</g>
<!-- Node2&#45;&gt;Node3 -->
<g id="edge2" class="edge">
<title>Node2&#45;&gt;Node3</title>
<path fill="none" stroke="midnightblue" d="M109.35,-53.94C150.15,-43.64 210.04,-28.53 246.8,-19.25"/>
<polygon fill="midnightblue" stroke="midnightblue" points="108.25,-50.6 99.41,-56.44 109.96,-57.39 108.25,-50.6"/>
</g>
<!-- Node4&#45;&gt;Node3 -->
<g id="edge4" class="edge">
<title>Node4&#45;&gt;Node3</title>
<path fill="none" stroke="midnightblue" d="M252.2,-47.86C259.13,-38.5 267.41,-27.33 273.02,-19.75"/>
<polygon fill="midnightblue" stroke="midnightblue" points="249.25,-45.96 246.11,-56.08 254.87,-50.13 249.25,-45.96"/>
</g>
<!-- Node5&#45;&gt;Node3 -->
<g id="edge6" class="edge">
<title>Node5&#45;&gt;Node3</title>
<path fill="none" stroke="midnightblue" d="M314.3,-102.71C311.07,-89.54 306.2,-71.45 300.5,-56 295.73,-43.06 288.72,-28.72 284.13,-19.78"/>
<polygon fill="midnightblue" stroke="midnightblue" points="310.9,-103.52 316.61,-112.44 317.71,-101.91 310.9,-103.52"/>
</g>
<!-- Node6 -->
<g id="node6" class="node">
<title>Node6</title>
<g id="a_node6"><a xlink:href="Time_8hpp.html" target="_top" xlink:title="Main time loop.">
<polygon fill="none" stroke="black" points="348,-56.5 348,-75.5 413,-75.5 413,-56.5 348,-56.5"/>
<text text-anchor="middle" x="380.5" y="-63.5" font-family="serif" font-size="10.00">Time.hpp</text>
</a>
</g>
</g>
<!-- Node5&#45;&gt;Node6 -->
<g id="edge7" class="edge">
<title>Node5&#45;&gt;Node6</title>
<path fill="none" stroke="midnightblue" d="M336.25,-105.54C347.31,-95.91 361.13,-83.87 370.36,-75.83"/>
<polygon fill="midnightblue" stroke="midnightblue" points="333.7,-103.12 328.46,-112.32 338.3,-108.4 333.7,-103.12"/>
</g>
<!-- Node6&#45;&gt;Node3 -->
<g id="edge8" class="edge">
<title>Node6&#45;&gt;Node3</title>
<path fill="none" stroke="midnightblue" d="M355.42,-51.59C336.74,-41.61 311.8,-28.27 295.69,-19.65"/>
<polygon fill="midnightblue" stroke="midnightblue" points="353.8,-54.7 364.27,-56.32 357.1,-48.52 353.8,-54.7"/>
</g>
<!-- Node7&#45;&gt;Node3 -->
<g id="edge10" class="edge">
<title>Node7&#45;&gt;Node3</title>
<path fill="none" stroke="midnightblue" d="M440.62,-101.86C438.95,-87.46 434.45,-68.19 422.5,-56 393.27,-26.16 344.48,-16.05 312.15,-12.66"/>
<polygon fill="midnightblue" stroke="midnightblue" points="437.15,-102.44 441.43,-112.13 444.13,-101.89 437.15,-102.44"/>
</g>
</g>
</svg>
