<?xml version="1.0" encoding="UTF-8" standalone="no"?>
<!DOCTYPE svg PUBLIC "-//W3C//DTD SVG 1.1//EN"
 "http://www.w3.org/Graphics/SVG/1.1/DTD/svg11.dtd">
<!-- Generated by graphviz version 2.43.0 (0)
 -->
<!-- Title: Problem.hpp Pages: 1 -->
<svg width="113pt" height="140pt"
 viewBox="0.00 0.00 113.00 140.00" xmlns="http://www.w3.org/2000/svg" xmlns:xlink="http://www.w3.org/1999/xlink">
<g id="graph0" class="graph" transform="scale(1 1) rotate(0) translate(4 136)">
<title>Problem.hpp</title>
<!-- Node1 -->
<g id="node1" class="node">
<title>Node1</title>
<g id="a_node1"><a xlink:title="Class used to defined a Problem objet.">
<polygon fill="#bfbfbf" stroke="black" points="0,-112.5 0,-131.5 83,-131.5 83,-112.5 0,-112.5"/>
<text text-anchor="middle" x="41.5" y="-119.5" font-family="serif" font-size="10.00">Problem.hpp</text>
</a>
</g>
</g>
<!-- Node2 -->
<g id="node2" class="node">
<title>Node2</title>
<g id="a_node2"><a xlink:href="sloth_8hpp.html" target="_top" xlink:title="List of all header files contained in the kernel directory.">
<polygon fill="none" stroke="black" points="9,-0.5 9,-19.5 74,-19.5 74,-0.5 9,-0.5"/>
<text text-anchor="middle" x="41.5" y="-7.5" font-family="serif" font-size="10.00">sloth.hpp</text>
</a>
</g>
</g>
<!-- Node1&#45;&gt;Node2 -->
<g id="edge1" class="edge">
<title>Node1&#45;&gt;Node2</title>
<path fill="none" stroke="midnightblue" d="M35.96,-102.66C33.79,-94.57 31.57,-84.89 30.5,-76 28.06,-55.77 34.33,-32.25 38.38,-19.79"/>
<polygon fill="midnightblue" stroke="midnightblue" points="32.66,-103.83 38.77,-112.49 39.39,-101.91 32.66,-103.83"/>
</g>
<!-- Node3 -->
<g id="node3" class="node">
<title>Node3</title>
<g id="a_node3"><a xlink:href="Time_8hpp.html" target="_top" xlink:title="Main time loop.">
<polygon fill="none" stroke="black" points="40,-56.5 40,-75.5 105,-75.5 105,-56.5 40,-56.5"/>
<text text-anchor="middle" x="72.5" y="-63.5" font-family="serif" font-size="10.00">Time.hpp</text>
</a>
</g>
</g>
<!-- Node1&#45;&gt;Node3 -->
<g id="edge2" class="edge">
<title>Node1&#45;&gt;Node3</title>
<path fill="none" stroke="midnightblue" d="M51.68,-103.27C56.97,-94.05 63.22,-83.17 67.48,-75.75"/>
<polygon fill="midnightblue" stroke="midnightblue" points="48.56,-101.67 46.62,-112.08 54.63,-105.15 48.56,-101.67"/>
</g>
<!-- Node3&#45;&gt;Node2 -->
<g id="edge3" class="edge">
<title>Node3&#45;&gt;Node2</title>
<path fill="none" stroke="midnightblue" d="M62.32,-47.27C57.03,-38.05 50.78,-27.17 46.52,-19.75"/>
<polygon fill="midnightblue" stroke="midnightblue" points="59.37,-49.15 67.38,-56.08 65.44,-45.67 59.37,-49.15"/>
</g>
</g>
</svg>
