<?xml version="1.0" encoding="UTF-8" standalone="no"?>
<!DOCTYPE svg PUBLIC "-//W3C//DTD SVG 1.1//EN"
 "http://www.w3.org/Graphics/SVG/1.1/DTD/svg11.dtd">
<!-- Generated by graphviz version 2.43.0 (0)
 -->
<!-- Title: PropertyBase.hpp Pages: 1 -->
<svg width="200pt" height="140pt"
 viewBox="0.00 0.00 199.50 140.00" xmlns="http://www.w3.org/2000/svg" xmlns:xlink="http://www.w3.org/1999/xlink">
<g id="graph0" class="graph" transform="scale(1 1) rotate(0) translate(4 136)">
<title>PropertyBase.hpp</title>
<!-- Node1 -->
<g id="node1" class="node">
<title>Node1</title>
<g id="a_node1"><a xlink:title="Base class for Property objects.">
<polygon fill="#bfbfbf" stroke="black" points="82.5,-112.5 82.5,-131.5 191.5,-131.5 191.5,-112.5 82.5,-112.5"/>
<text text-anchor="middle" x="137" y="-119.5" font-family="serif" font-size="10.00">PropertyBase.hpp</text>
</a>
</g>
</g>
<!-- Node2 -->
<g id="node2" class="node">
<title>Node2</title>
<g id="a_node2"><a xlink:href="InterDiffusionCoefficient_8hpp.html" target="_top" xlink:title="Class used to compute inter&#45;diffusion coefficients.">
<polygon fill="none" stroke="black" points="0,-56.5 0,-75.5 164,-75.5 164,-56.5 0,-56.5"/>
<text text-anchor="middle" x="82" y="-63.5" font-family="serif" font-size="10.00">InterDiffusionCoefficient.hpp</text>
</a>
</g>
</g>
<!-- Node1&#45;&gt;Node2 -->
<g id="edge1" class="edge">
<title>Node1&#45;&gt;Node2</title>
<path fill="none" stroke="midnightblue" d="M120.71,-105C110.96,-95.43 98.95,-83.64 90.91,-75.75"/>
<polygon fill="midnightblue" stroke="midnightblue" points="118.33,-107.57 127.92,-112.08 123.23,-102.58 118.33,-107.57"/>
</g>
<!-- Node3 -->
<g id="node3" class="node">
<title>Node3</title>
<g id="a_node3"><a xlink:href="sloth_8hpp.html" target="_top" xlink:title="List of all header files contained in the kernel directory.">
<polygon fill="none" stroke="black" points="104.5,-0.5 104.5,-19.5 169.5,-19.5 169.5,-0.5 104.5,-0.5"/>
<text text-anchor="middle" x="137" y="-7.5" font-family="serif" font-size="10.00">sloth.hpp</text>
</a>
</g>
</g>
<!-- Node1&#45;&gt;Node3 -->
<g id="edge3" class="edge">
<title>Node1&#45;&gt;Node3</title>
<path fill="none" stroke="midnightblue" d="M154.4,-104.82C161.63,-96.92 169.21,-86.79 173,-76 180.52,-54.58 160.68,-31.89 147.55,-19.8"/>
<polygon fill="midnightblue" stroke="midnightblue" points="151.67,-102.6 147.16,-112.19 156.67,-107.51 151.67,-102.6"/>
</g>
<!-- Node2&#45;&gt;Node3 -->
<g id="edge2" class="edge">
<title>Node2&#45;&gt;Node3</title>
<path fill="none" stroke="midnightblue" d="M98.29,-49C108.04,-39.43 120.05,-27.64 128.09,-19.75"/>
<polygon fill="midnightblue" stroke="midnightblue" points="95.77,-46.58 91.08,-56.08 100.67,-51.57 95.77,-46.58"/>
</g>
</g>
</svg>
