<?xml version="1.0" encoding="UTF-8" standalone="no"?>
<!DOCTYPE svg PUBLIC "-//W3C//DTD SVG 1.1//EN"
 "http://www.w3.org/Graphics/SVG/1.1/DTD/svg11.dtd">
<!-- Generated by graphviz version 2.43.0 (0)
 -->
<!-- Title: ReducedOperator.hpp Pages: 1 -->
<svg width="483pt" height="196pt"
 viewBox="0.00 0.00 483.32 196.00" xmlns="http://www.w3.org/2000/svg" xmlns:xlink="http://www.w3.org/1999/xlink">
<g id="graph0" class="graph" transform="scale(1 1) rotate(0) translate(4 192)">
<title>ReducedOperator.hpp</title>
<!-- Node1 -->
<g id="node1" class="node">
<title>Node1</title>
<g id="a_node1"><a xlink:title="UnSteady version of the linear system resulting from the NonLinear algorithm.">
<polygon fill="#bfbfbf" stroke="black" points="298.5,-168.5 298.5,-187.5 428.5,-187.5 428.5,-168.5 298.5,-168.5"/>
<text text-anchor="middle" x="363.5" y="-175.5" font-family="serif" font-size="10.00">ReducedOperator.hpp</text>
</a>
</g>
</g>
<!-- Node2 -->
<g id="node2" class="node">
<title>Node2</title>
<g id="a_node2"><a xlink:href="TransientOperatorBase_8hpp.html" target="_top" xlink:title="Transient Operator base.">
<polygon fill="none" stroke="black" points="163,-112.5 163,-131.5 322,-131.5 322,-112.5 163,-112.5"/>
<text text-anchor="middle" x="242.5" y="-119.5" font-family="serif" font-size="10.00">TransientOperatorBase.hpp</text>
</a>
</g>
</g>
<!-- Node1&#45;&gt;Node2 -->
<g id="edge1" class="edge">
<title>Node1&#45;&gt;Node2</title>
<path fill="none" stroke="midnightblue" d="M335.19,-164.37C312.53,-154.26 281.37,-140.35 261.58,-131.52"/>
<polygon fill="midnightblue" stroke="midnightblue" points="333.77,-167.56 344.33,-168.44 336.62,-161.17 333.77,-167.56"/>
</g>
<!-- Node4 -->
<g id="node4" class="node">
<title>Node4</title>
<g id="a_node4"><a xlink:href="sloth_8hpp.html" target="_top" xlink:title="List of all header files contained in the kernel directory.">
<polygon fill="none" stroke="black" points="210,-0.5 210,-19.5 275,-19.5 275,-0.5 210,-0.5"/>
<text text-anchor="middle" x="242.5" y="-7.5" font-family="serif" font-size="10.00">sloth.hpp</text>
</a>
</g>
</g>
<!-- Node1&#45;&gt;Node4 -->
<g id="edge9" class="edge">
<title>Node1&#45;&gt;Node4</title>
<path fill="none" stroke="midnightblue" d="M389.93,-163.57C430.19,-141.4 498.95,-95.61 466.5,-56 442.69,-26.92 331.39,-16.24 275.17,-12.65"/>
<polygon fill="midnightblue" stroke="midnightblue" points="388.02,-160.63 380.87,-168.44 391.33,-166.79 388.02,-160.63"/>
</g>
<!-- Node3 -->
<g id="node3" class="node">
<title>Node3</title>
<g id="a_node3"><a xlink:href="DiffusionOperator_8hpp.html" target="_top" xlink:title="Diffusion operator (Base, Steady and TimeDependent)">
<polygon fill="none" stroke="black" points="0,-56.5 0,-75.5 131,-75.5 131,-56.5 0,-56.5"/>
<text text-anchor="middle" x="65.5" y="-63.5" font-family="serif" font-size="10.00">DiffusionOperator.hpp</text>
</a>
</g>
</g>
<!-- Node2&#45;&gt;Node3 -->
<g id="edge2" class="edge">
<title>Node2&#45;&gt;Node3</title>
<path fill="none" stroke="midnightblue" d="M204.6,-109.44C171.22,-99.26 123.4,-84.66 93.41,-75.52"/>
<polygon fill="midnightblue" stroke="midnightblue" points="203.87,-112.87 214.45,-112.44 205.91,-106.18 203.87,-112.87"/>
</g>
<!-- Node2&#45;&gt;Node4 -->
<g id="edge8" class="edge">
<title>Node2&#45;&gt;Node4</title>
<path fill="none" stroke="midnightblue" d="M211.95,-107.56C199.17,-100.22 185.65,-89.77 178.5,-76 165.95,-51.83 199.15,-30.79 222.3,-19.59"/>
<polygon fill="midnightblue" stroke="midnightblue" points="210.54,-110.77 221.02,-112.36 213.82,-104.59 210.54,-110.77"/>
</g>
<!-- Node5 -->
<g id="node5" class="node">
<title>Node5</title>
<g id="a_node5"><a xlink:href="HeatOperator_8hpp.html" target="_top" xlink:title="Heat operator (Base, Steady and TimeDependent)">
<polygon fill="none" stroke="black" points="187.5,-56.5 187.5,-75.5 297.5,-75.5 297.5,-56.5 187.5,-56.5"/>
<text text-anchor="middle" x="242.5" y="-63.5" font-family="serif" font-size="10.00">HeatOperator.hpp</text>
</a>
</g>
</g>
<!-- Node2&#45;&gt;Node5 -->
<g id="edge4" class="edge">
<title>Node2&#45;&gt;Node5</title>
<path fill="none" stroke="midnightblue" d="M242.5,-101.8C242.5,-92.91 242.5,-82.78 242.5,-75.75"/>
<polygon fill="midnightblue" stroke="midnightblue" points="239,-102.08 242.5,-112.08 246,-102.08 239,-102.08"/>
</g>
<!-- Node6 -->
<g id="node6" class="node">
<title>Node6</title>
<g id="a_node6"><a xlink:href="PhaseFieldOperator_8hpp.html" target="_top" xlink:title="AllenCahn operator (Base, Steady and TimeDependent)">
<polygon fill="none" stroke="black" points="316,-56.5 316,-75.5 457,-75.5 457,-56.5 316,-56.5"/>
<text text-anchor="middle" x="386.5" y="-63.5" font-family="serif" font-size="10.00">PhaseFieldOperator.hpp</text>
</a>
</g>
</g>
<!-- Node2&#45;&gt;Node6 -->
<g id="edge6" class="edge">
<title>Node2&#45;&gt;Node6</title>
<path fill="none" stroke="midnightblue" d="M274.75,-108.91C301.82,-98.75 339.82,-84.51 363.79,-75.52"/>
<polygon fill="midnightblue" stroke="midnightblue" points="273.45,-105.66 265.32,-112.44 275.91,-112.21 273.45,-105.66"/>
</g>
<!-- Node3&#45;&gt;Node4 -->
<g id="edge3" class="edge">
<title>Node3&#45;&gt;Node4</title>
<path fill="none" stroke="midnightblue" d="M103.4,-53.44C136.78,-43.26 184.6,-28.66 214.59,-19.52"/>
<polygon fill="midnightblue" stroke="midnightblue" points="102.09,-50.18 93.55,-56.44 104.13,-56.87 102.09,-50.18"/>
</g>
<!-- Node5&#45;&gt;Node4 -->
<g id="edge5" class="edge">
<title>Node5&#45;&gt;Node4</title>
<path fill="none" stroke="midnightblue" d="M242.5,-45.8C242.5,-36.91 242.5,-26.78 242.5,-19.75"/>
<polygon fill="midnightblue" stroke="midnightblue" points="239,-46.08 242.5,-56.08 246,-46.08 239,-46.08"/>
</g>
<!-- Node6&#45;&gt;Node4 -->
<g id="edge7" class="edge">
<title>Node6&#45;&gt;Node4</title>
<path fill="none" stroke="midnightblue" d="M354.25,-52.91C327.18,-42.75 289.18,-28.51 265.21,-19.52"/>
<polygon fill="midnightblue" stroke="midnightblue" points="353.09,-56.21 363.68,-56.44 355.55,-49.66 353.09,-56.21"/>
</g>
</g>
</svg>
