<?xml version="1.0" encoding="UTF-8" standalone="no"?>
<!DOCTYPE svg PUBLIC "-//W3C//DTD SVG 1.1//EN"
 "http://www.w3.org/Graphics/SVG/1.1/DTD/svg11.dtd">
<!-- Generated by graphviz version 2.43.0 (0)
 -->
<!-- Title: ReducedOperator.hpp Pages: 1 -->
<svg width="147pt" height="84pt"
 viewBox="0.00 0.00 146.50 84.00" xmlns="http://www.w3.org/2000/svg" xmlns:xlink="http://www.w3.org/1999/xlink">
<g id="graph0" class="graph" transform="scale(1 1) rotate(0) translate(4 80)">
<title>ReducedOperator.hpp</title>
<!-- Node1 -->
<g id="node1" class="node">
<title>Node1</title>
<g id="a_node1"><a xlink:title="UnSteady version of the linear system resulting from the NonLinear algorithm.">
<polygon fill="#bfbfbf" stroke="black" points="0,-56.5 0,-75.5 130,-75.5 130,-56.5 0,-56.5"/>
<text text-anchor="middle" x="65" y="-63.5" font-family="serif" font-size="10.00">ReducedOperator.hpp</text>
</a>
</g>
</g>
<!-- Node2 -->
<g id="node2" class="node">
<title>Node2</title>
<g id="a_node2"><a xlink:title=" ">
<polygon fill="none" stroke="#bfbfbf" points="3,-0.5 3,-19.5 51,-19.5 51,-0.5 3,-0.5"/>
<text text-anchor="middle" x="27" y="-7.5" font-family="serif" font-size="10.00">vector</text>
</a>
</g>
</g>
<!-- Node1&#45;&gt;Node2 -->
<g id="edge1" class="edge">
<title>Node1&#45;&gt;Node2</title>
<path fill="none" stroke="midnightblue" d="M58.73,-56.08C53.36,-48.46 45.48,-37.26 38.92,-27.94"/>
<polygon fill="midnightblue" stroke="midnightblue" points="41.78,-25.91 33.16,-19.75 36.05,-29.94 41.78,-25.91"/>
</g>
<!-- Node3 -->
<g id="node3" class="node">
<title>Node3</title>
<g id="a_node3"><a xlink:title=" ">
<polygon fill="none" stroke="#bfbfbf" points="69.5,-0.5 69.5,-19.5 138.5,-19.5 138.5,-0.5 69.5,-0.5"/>
<text text-anchor="middle" x="104" y="-7.5" font-family="serif" font-size="10.00">mfem.hpp</text>
</a>
</g>
</g>
<!-- Node1&#45;&gt;Node3 -->
<g id="edge2" class="edge">
<title>Node1&#45;&gt;Node3</title>
<path fill="none" stroke="midnightblue" d="M71.44,-56.08C76.95,-48.46 85.03,-37.26 91.76,-27.94"/>
<polygon fill="midnightblue" stroke="midnightblue" points="94.66,-29.91 97.68,-19.75 88.99,-25.81 94.66,-29.91"/>
</g>
</g>
</svg>
