<?xml version="1.0" encoding="UTF-8" standalone="no"?>
<!DOCTYPE svg PUBLIC "-//W3C//DTD SVG 1.1//EN"
 "http://www.w3.org/Graphics/SVG/1.1/DTD/svg11.dtd">
<!-- Generated by graphviz version 2.43.0 (0)
 -->
<!-- Title: SlothNLFormIntegrator.hpp Pages: 1 -->
<!--zoomable 274 -->
<svg id="main" version="1.1" xmlns="http://www.w3.org/2000/svg" xmlns:xlink="http://www.w3.org/1999/xlink" xml:space="preserve" onload="init(evt)">
<style type="text/css"><![CDATA[
.edge:hover path { stroke: red; }
.edge:hover polygon { stroke: red; fill: red; }
]]></style>
<script type="text/javascript"><![CDATA[
var edges = document.getElementsByTagName('g');
if (edges && edges.length) {
  for (var i=0;i<edges.length;i++) {
    if (edges[i].id.substr(0,4)=='edge') {
      edges[i].setAttribute('class','edge');
    }
  }
}
]]></script>
        <defs>
                <circle id="rim" cx="0" cy="0" r="7"/>
                <circle id="rim2" cx="0" cy="0" r="3.5"/>
                <g id="zoomPlus">
                        <use xlink:href="#rim" fill="#404040">
                                <set attributeName="fill" to="#808080" begin="zoomplus.mouseover" end="zoomplus.mouseout"/>
                        </use>
                        <path d="M-4,0h8M0,-4v8" fill="none" stroke="white" stroke-width="1.5" pointer-events="none"/>
                </g>
                <g id="zoomMin">
                        <use xlink:href="#rim" fill="#404040">
                                <set attributeName="fill" to="#808080" begin="zoomminus.mouseover" end="zoomminus.mouseout"/>
                        </use>
                        <path d="M-4,0h8" fill="none" stroke="white" stroke-width="1.5" pointer-events="none"/>
                </g>
                <g id="dirArrow">
                        <path fill="none" stroke="white" stroke-width="1.5" d="M0,-3.0v7 M-2.5,-0.5L0,-3.0L2.5,-0.5"/>
                </g>
               <g id="resetDef">
                       <use xlink:href="#rim2" fill="#404040">
                               <set attributeName="fill" to="#808080" begin="reset.mouseover" end="reset.mouseout"/>
                       </use>
               </g>
        </defs>

<script type="text/javascript">
var viewWidth = 1588;
var viewHeight = 274;
var sectionId = 'dynsection-1';
</script>
<script xlink:href="svgpan.js"/>
<svg id="graph" class="graph">
<g id="viewport">
<title>SlothNLFormIntegrator.hpp</title>
<!-- Node1 -->
<g id="node1" class="node">
<title>Node1</title>
<g id="a_node1"><a xlink:title="Class prodiving common methods to all NLFormIntegrators.">
<polygon fill="#bfbfbf" stroke="black" points="886.5,-246.5 886.5,-265.5 1046.5,-265.5 1046.5,-246.5 886.5,-246.5"/>
<text text-anchor="middle" x="966.5" y="-253.5" font-family="serif" font-size="10.00">SlothNLFormIntegrator.hpp</text>
</a>
</g>
</g>
<!-- Node2 -->
<g id="node2" class="node">
<title>Node2</title>
<g id="a_node2"><a xlink:href="AllenCahnGrainsNLFormIntegrator_8hpp.html" target="_top" xlink:title="VF for Allen&#45;Cahn equation solved in a polycrystal.">
<polygon fill="none" stroke="black" points="0,-129 0,-148 221,-148 221,-129 0,-129"/>
<text text-anchor="middle" x="110.5" y="-136" font-family="serif" font-size="10.00">AllenCahnGrainsNLFormIntegrator.hpp</text>
</a>
</g>
</g>
<!-- Node1&#45;&gt;Node2 -->
<g id="edge1" class="edge">
<title>Node1&#45;&gt;Node2</title>
<path fill="none" stroke="midnightblue" d="M876.36,-254.48C708.2,-252.69 353.05,-244.76 235.5,-210 189.87,-196.51 142.74,-163.9 121.76,-148.22"/>
<polygon fill="midnightblue" stroke="midnightblue" points="876.39,-257.98 886.43,-254.58 876.47,-250.98 876.39,-257.98"/>
</g>
<!-- Node3 -->
<g id="node3" class="node">
<title>Node3</title>
<g id="a_node3"><a xlink:href="sloth_8hpp.html" target="_top" xlink:title="List of all header files contained in the kernel directory.">
<polygon fill="none" stroke="black" points="853,-0.5 853,-19.5 918,-19.5 918,-0.5 853,-0.5"/>
<text text-anchor="middle" x="885.5" y="-7.5" font-family="serif" font-size="10.00">sloth.hpp</text>
</a>
</g>
</g>
<!-- Node1&#45;&gt;Node3 -->
<g id="edge27" class="edge">
<title>Node1&#45;&gt;Node3</title>
<path fill="none" stroke="midnightblue" d="M876.26,-253.24C717.53,-249.43 401.14,-238.35 359.5,-210 311.63,-177.41 323.27,-144.51 316.5,-87 314.89,-73.32 307.15,-66.12 316.5,-56 353.03,-16.47 737.34,-11.63 852.85,-11.06"/>
<polygon fill="midnightblue" stroke="midnightblue" points="876.41,-256.75 886.49,-253.48 876.57,-249.75 876.41,-256.75"/>
</g>
<!-- Node4 -->
<g id="node4" class="node">
<title>Node4</title>
<g id="a_node4"><a xlink:href="AllenCahnNLFormIntegrator_8hpp.html" target="_top" xlink:title="FV for the Allen Cahn equation.">
<polygon fill="none" stroke="black" points="369,-190.5 369,-209.5 556,-209.5 556,-190.5 369,-190.5"/>
<text text-anchor="middle" x="462.5" y="-197.5" font-family="serif" font-size="10.00">AllenCahnNLFormIntegrator.hpp</text>
</a>
</g>
</g>
<!-- Node1&#45;&gt;Node4 -->
<g id="edge3" class="edge">
<title>Node1&#45;&gt;Node4</title>
<path fill="none" stroke="midnightblue" d="M876.75,-245.38C781.7,-235.2 633.08,-219.28 542.08,-209.53"/>
<polygon fill="midnightblue" stroke="midnightblue" points="876.6,-248.89 886.92,-246.47 877.35,-241.93 876.6,-248.89"/>
</g>
<!-- Node9 -->
<g id="node9" class="node">
<title>Node9</title>
<g id="a_node9"><a xlink:href="BlockAllenCahnNLFormIntegrator_8hpp.html" target="_top" xlink:title="VF of the AllenCahn equations (splitting version)">
<polygon fill="none" stroke="black" points="581,-129 581,-148 796,-148 796,-129 581,-129"/>
<text text-anchor="middle" x="688.5" y="-136" font-family="serif" font-size="10.00">BlockAllenCahnNLFormIntegrator.hpp</text>
</a>
</g>
</g>
<!-- Node1&#45;&gt;Node9 -->
<g id="edge13" class="edge">
<title>Node1&#45;&gt;Node9</title>
<path fill="none" stroke="midnightblue" d="M936.07,-242.36C879.13,-218.7 757.84,-168.31 709.26,-148.12"/>
<polygon fill="midnightblue" stroke="midnightblue" points="935.03,-245.71 945.6,-246.32 937.71,-239.25 935.03,-245.71"/>
</g>
<!-- Node10 -->
<g id="node10" class="node">
<title>Node10</title>
<g id="a_node10"><a xlink:href="CahnHilliardNLFormIntegrator_8hpp.html" target="_top" xlink:title="VF of the CahnHilliard equations.">
<polygon fill="none" stroke="black" points="814,-129 814,-148 1013,-148 1013,-129 814,-129"/>
<text text-anchor="middle" x="913.5" y="-136" font-family="serif" font-size="10.00">CahnHilliardNLFormIntegrator.hpp</text>
</a>
</g>
</g>
<!-- Node1&#45;&gt;Node10 -->
<g id="edge15" class="edge">
<title>Node1&#45;&gt;Node10</title>
<path fill="none" stroke="midnightblue" d="M958.32,-237.18C946.79,-212.06 926.21,-167.19 917.53,-148.28"/>
<polygon fill="midnightblue" stroke="midnightblue" points="955.16,-238.69 962.52,-246.32 961.53,-235.77 955.16,-238.69"/>
</g>
<!-- Node11 -->
<g id="node11" class="node">
<title>Node11</title>
<g id="a_node11"><a xlink:href="DiffusionFluxNLFormIntegrator_8hpp.html" target="_top" xlink:title="inter&#45;diffusion integrator">
<polygon fill="none" stroke="black" points="1009.5,-62 1009.5,-81 1211.5,-81 1211.5,-62 1009.5,-62"/>
<text text-anchor="middle" x="1110.5" y="-69" font-family="serif" font-size="10.00">DiffusionFluxNLFormIntegrator.hpp</text>
</a>
</g>
</g>
<!-- Node1&#45;&gt;Node11 -->
<g id="edge17" class="edge">
<title>Node1&#45;&gt;Node11</title>
<path fill="none" stroke="midnightblue" d="M977.55,-237.62C994.31,-211.73 1027.67,-161.89 1060.5,-123 1073.71,-107.35 1090.81,-90.76 1101.2,-81.03"/>
<polygon fill="midnightblue" stroke="midnightblue" points="974.43,-236 971.98,-246.3 980.33,-239.78 974.43,-236"/>
</g>
<!-- Node12 -->
<g id="node12" class="node">
<title>Node12</title>
<g id="a_node12"><a xlink:href="DiffusionNLFormIntegrator_8hpp.html" target="_top" xlink:title="FV for the mass diffusion equation.">
<polygon fill="none" stroke="black" points="1070,-129 1070,-148 1249,-148 1249,-129 1070,-129"/>
<text text-anchor="middle" x="1159.5" y="-136" font-family="serif" font-size="10.00">DiffusionNLFormIntegrator.hpp</text>
</a>
</g>
</g>
<!-- Node1&#45;&gt;Node12 -->
<g id="edge19" class="edge">
<title>Node1&#45;&gt;Node12</title>
<path fill="none" stroke="midnightblue" d="M981.92,-239.35C996.55,-225.13 1019.63,-204.26 1042.5,-190 1071.97,-171.62 1109.3,-156.79 1133.76,-148.07"/>
<polygon fill="midnightblue" stroke="midnightblue" points="979.36,-236.95 974.72,-246.48 984.29,-241.93 979.36,-236.95"/>
</g>
<!-- Node13 -->
<g id="node13" class="node">
<title>Node13</title>
<g id="a_node13"><a xlink:href="HeatNLFormIntegrator_8hpp.html" target="_top" xlink:title="FV for the heat transfer equation.">
<polygon fill="none" stroke="black" points="1051.5,-190.5 1051.5,-209.5 1209.5,-209.5 1209.5,-190.5 1051.5,-190.5"/>
<text text-anchor="middle" x="1130.5" y="-197.5" font-family="serif" font-size="10.00">HeatNLFormIntegrator.hpp</text>
</a>
</g>
</g>
<!-- Node1&#45;&gt;Node13 -->
<g id="edge21" class="edge">
<title>Node1&#45;&gt;Node13</title>
<path fill="none" stroke="midnightblue" d="M1002.02,-243.3C1032.92,-233.13 1076.97,-218.62 1104.64,-209.52"/>
<polygon fill="midnightblue" stroke="midnightblue" points="1000.89,-239.99 992.49,-246.44 1003.08,-246.64 1000.89,-239.99"/>
</g>
<!-- Node14 -->
<g id="node14" class="node">
<title>Node14</title>
<g id="a_node14"><a xlink:href="TimeCHNLFormIntegrator_8hpp.html" target="_top" xlink:title="VF of the time derivative for CH equations.">
<polygon fill="none" stroke="black" points="1227.5,-190.5 1227.5,-209.5 1403.5,-209.5 1403.5,-190.5 1227.5,-190.5"/>
<text text-anchor="middle" x="1315.5" y="-197.5" font-family="serif" font-size="10.00">TimeCHNLFormIntegrator.hpp</text>
</a>
</g>
</g>
<!-- Node1&#45;&gt;Node14 -->
<g id="edge23" class="edge">
<title>Node1&#45;&gt;Node14</title>
<path fill="none" stroke="midnightblue" d="M1032.07,-244.85C1098.02,-234.65 1198.54,-219.1 1260.46,-209.52"/>
<polygon fill="midnightblue" stroke="midnightblue" points="1031.15,-241.46 1021.8,-246.44 1032.22,-248.37 1031.15,-241.46"/>
</g>
<!-- Node15 -->
<g id="node15" class="node">
<title>Node15</title>
<g id="a_node15"><a xlink:href="TimeNLFormIntegrator_8hpp.html" target="_top" xlink:title="VF of the time derivative.">
<polygon fill="none" stroke="black" points="1421,-190.5 1421,-209.5 1580,-209.5 1580,-190.5 1421,-190.5"/>
<text text-anchor="middle" x="1500.5" y="-197.5" font-family="serif" font-size="10.00">TimeNLFormIntegrator.hpp</text>
</a>
</g>
</g>
<!-- Node1&#45;&gt;Node15 -->
<g id="edge25" class="edge">
<title>Node1&#45;&gt;Node15</title>
<path fill="none" stroke="midnightblue" d="M1056.85,-245.92C1146.95,-236.86 1289.3,-222.51 1412.5,-210 1415.25,-209.72 1418.05,-209.44 1420.88,-209.15"/>
<polygon fill="midnightblue" stroke="midnightblue" points="1056.27,-242.46 1046.67,-246.94 1056.97,-249.43 1056.27,-242.46"/>
</g>
<!-- Node2&#45;&gt;Node3 -->
<g id="edge2" class="edge">
<title>Node2&#45;&gt;Node3</title>
<path fill="none" stroke="midnightblue" d="M127.68,-122.11C150.47,-102.75 192.81,-70.31 235.5,-56 351.87,-16.99 737.99,-11.78 852.94,-11.1"/>
<polygon fill="midnightblue" stroke="midnightblue" points="125.21,-119.63 119.95,-128.83 129.79,-124.92 125.21,-119.63"/>
</g>
<!-- Node4&#45;&gt;Node3 -->
<g id="edge12" class="edge">
<title>Node4&#45;&gt;Node3</title>
<path fill="none" stroke="midnightblue" d="M420.42,-186.98C401.47,-179.87 379.95,-169.22 364.5,-154 331.86,-121.85 301.44,-89.69 332.5,-56 367.88,-17.62 739.78,-11.97 852.98,-11.14"/>
<polygon fill="midnightblue" stroke="midnightblue" points="419.45,-190.35 430.05,-190.38 421.78,-183.75 419.45,-190.35"/>
</g>
<!-- Node5 -->
<g id="node5" class="node">
<title>Node5</title>
<g id="a_node5"><a xlink:href="AllenCahnMeltingBaseNLFormIntegrator_8hpp.html" target="_top" xlink:title="Base integrator for melting.">
<polygon fill="none" stroke="black" points="374,-123.5 374,-153.5 551,-153.5 551,-123.5 374,-123.5"/>
<text text-anchor="start" x="382" y="-141.5" font-family="serif" font-size="10.00">AllenCahnMeltingBaseNLForm</text>
<text text-anchor="middle" x="462.5" y="-130.5" font-family="serif" font-size="10.00">Integrator.hpp</text>
</a>
</g>
</g>
<!-- Node4&#45;&gt;Node5 -->
<g id="edge4" class="edge">
<title>Node4&#45;&gt;Node5</title>
<path fill="none" stroke="midnightblue" d="M462.5,-180.23C462.5,-171.59 462.5,-161.5 462.5,-153.52"/>
<polygon fill="midnightblue" stroke="midnightblue" points="459,-180.48 462.5,-190.48 466,-180.48 459,-180.48"/>
</g>
<!-- Node5&#45;&gt;Node3 -->
<g id="edge11" class="edge">
<title>Node5&#45;&gt;Node3</title>
<path fill="none" stroke="midnightblue" d="M401.85,-120.22C361,-105.66 318.72,-82.92 343.5,-56 378.07,-18.44 740.99,-12.23 852.86,-11.2"/>
<polygon fill="midnightblue" stroke="midnightblue" points="400.75,-123.54 411.34,-123.48 403.02,-116.92 400.75,-123.54"/>
</g>
<!-- Node6 -->
<g id="node6" class="node">
<title>Node6</title>
<g id="a_node6"><a xlink:href="AllenCahnCalphadMeltingNLFormIntegrator_8hpp.html" target="_top" xlink:title="Compute the enthalpy of phase change based on two driving forces defined as auxiliary variables.">
<polygon fill="none" stroke="black" points="353,-56.5 353,-86.5 548,-86.5 548,-56.5 353,-56.5"/>
<text text-anchor="start" x="361" y="-74.5" font-family="serif" font-size="10.00">AllenCahnCalphadMeltingNLForm</text>
<text text-anchor="middle" x="450.5" y="-63.5" font-family="serif" font-size="10.00">Integrator.hpp</text>
</a>
</g>
</g>
<!-- Node5&#45;&gt;Node6 -->
<g id="edge5" class="edge">
<title>Node5&#45;&gt;Node6</title>
<path fill="none" stroke="midnightblue" d="M458.05,-113.4C456.38,-104.37 454.54,-94.41 453.1,-86.58"/>
<polygon fill="midnightblue" stroke="midnightblue" points="454.64,-114.2 459.9,-123.4 461.52,-112.93 454.64,-114.2"/>
</g>
<!-- Node7 -->
<g id="node7" class="node">
<title>Node7</title>
<g id="a_node7"><a xlink:href="AllenCahnConstantMeltingNLFormIntegrator_8hpp.html" target="_top" xlink:title="AllenCahn integrator for constant melting.">
<polygon fill="none" stroke="black" points="566,-56.5 566,-86.5 721,-86.5 721,-56.5 566,-56.5"/>
<text text-anchor="start" x="574" y="-74.5" font-family="serif" font-size="10.00">AllenCahnConstantMelting</text>
<text text-anchor="middle" x="643.5" y="-63.5" font-family="serif" font-size="10.00">NLFormIntegrator.hpp</text>
</a>
</g>
</g>
<!-- Node5&#45;&gt;Node7 -->
<g id="edge7" class="edge">
<title>Node5&#45;&gt;Node7</title>
<path fill="none" stroke="midnightblue" d="M511.36,-119.96C540.51,-109.48 577.04,-96.37 604.3,-86.58"/>
<polygon fill="midnightblue" stroke="midnightblue" points="510,-116.72 501.77,-123.4 512.37,-123.31 510,-116.72"/>
</g>
<!-- Node8 -->
<g id="node8" class="node">
<title>Node8</title>
<g id="a_node8"><a xlink:href="AllenCahnTemperatureMeltingNLFormIntegrator_8hpp.html" target="_top" xlink:title="FV for the Allen Cahn equation with ad&#45;hoc melting controled by temperature and a given melting tempe...">
<polygon fill="none" stroke="black" points="739.5,-56.5 739.5,-86.5 915.5,-86.5 915.5,-56.5 739.5,-56.5"/>
<text text-anchor="start" x="747.5" y="-74.5" font-family="serif" font-size="10.00">AllenCahnTemperatureMelting</text>
<text text-anchor="middle" x="827.5" y="-63.5" font-family="serif" font-size="10.00">NLFormIntegrator.hpp</text>
</a>
</g>
</g>
<!-- Node5&#45;&gt;Node8 -->
<g id="edge9" class="edge">
<title>Node5&#45;&gt;Node8</title>
<path fill="none" stroke="midnightblue" d="M551.14,-121.72C611.42,-110.98 690.47,-96.9 748.58,-86.55"/>
<polygon fill="midnightblue" stroke="midnightblue" points="550.48,-118.28 541.25,-123.48 551.71,-125.17 550.48,-118.28"/>
</g>
<!-- Node6&#45;&gt;Node3 -->
<g id="edge6" class="edge">
<title>Node6&#45;&gt;Node3</title>
<path fill="none" stroke="midnightblue" d="M558.25,-55.76C655.04,-42.52 791.13,-23.91 852.82,-15.47"/>
<polygon fill="midnightblue" stroke="midnightblue" points="557.56,-52.32 548.12,-57.15 558.5,-59.26 557.56,-52.32"/>
</g>
<!-- Node7&#45;&gt;Node3 -->
<g id="edge8" class="edge">
<title>Node7&#45;&gt;Node3</title>
<path fill="none" stroke="midnightblue" d="M710.53,-54.02C756.95,-42.61 816.69,-27.92 852.99,-18.99"/>
<polygon fill="midnightblue" stroke="midnightblue" points="709.42,-50.69 700.54,-56.47 711.09,-57.49 709.42,-50.69"/>
</g>
<!-- Node8&#45;&gt;Node3 -->
<g id="edge10" class="edge">
<title>Node8&#45;&gt;Node3</title>
<path fill="none" stroke="midnightblue" d="M848.46,-49C858.34,-38.86 869.58,-27.33 877.06,-19.66"/>
<polygon fill="midnightblue" stroke="midnightblue" points="845.72,-46.8 841.25,-56.4 850.73,-51.68 845.72,-46.8"/>
</g>
<!-- Node9&#45;&gt;Node3 -->
<g id="edge14" class="edge">
<title>Node9&#45;&gt;Node3</title>
<path fill="none" stroke="midnightblue" d="M756.35,-127.4C822.23,-116.9 913.83,-100.19 924.5,-87 942.03,-65.32 912.78,-34.5 896,-19.65"/>
<polygon fill="midnightblue" stroke="midnightblue" points="755.76,-123.95 746.42,-128.97 756.85,-130.86 755.76,-123.95"/>
</g>
<!-- Node10&#45;&gt;Node3 -->
<g id="edge16" class="edge">
<title>Node10&#45;&gt;Node3</title>
<path fill="none" stroke="midnightblue" d="M931.72,-122.13C948.89,-105.71 970.21,-78.93 957.5,-56 947.64,-38.21 927.49,-26.52 911,-19.53"/>
<polygon fill="midnightblue" stroke="midnightblue" points="929.32,-119.59 924.27,-128.9 934.02,-124.77 929.32,-119.59"/>
</g>
<!-- Node11&#45;&gt;Node3 -->
<g id="edge18" class="edge">
<title>Node11&#45;&gt;Node3</title>
<path fill="none" stroke="midnightblue" d="M1068.51,-59.4C1024.81,-47.84 957.33,-30 917.68,-19.51"/>
<polygon fill="midnightblue" stroke="midnightblue" points="1067.7,-62.8 1078.26,-61.98 1069.49,-56.03 1067.7,-62.8"/>
</g>
<!-- Node12&#45;&gt;Node3 -->
<g id="edge20" class="edge">
<title>Node12&#45;&gt;Node3</title>
<path fill="none" stroke="midnightblue" d="M1182.95,-123.25C1207.54,-106.57 1240.09,-78.39 1220.5,-56 1181.38,-11.28 994.54,-9.15 918.15,-10.21"/>
<polygon fill="midnightblue" stroke="midnightblue" points="1180.84,-120.45 1174.37,-128.84 1184.66,-126.32 1180.84,-120.45"/>
</g>
<!-- Node13&#45;&gt;Node3 -->
<g id="edge22" class="edge">
<title>Node13&#45;&gt;Node3</title>
<path fill="none" stroke="midnightblue" d="M1209.36,-187.35C1228.12,-180.68 1246.01,-170.26 1257.5,-154 1274.09,-130.52 1246.69,-63.04 1238.5,-56 1190.91,-15.04 996.38,-10.76 918.23,-10.73"/>
<polygon fill="midnightblue" stroke="midnightblue" points="1208.25,-184.03 1199.8,-190.42 1210.39,-190.7 1208.25,-184.03"/>
</g>
<!-- Node14&#45;&gt;Node3 -->
<g id="edge24" class="edge">
<title>Node14&#45;&gt;Node3</title>
<path fill="none" stroke="midnightblue" d="M1314.23,-180.14C1311.02,-148.84 1299.77,-86.57 1260.5,-56 1207.53,-14.76 999.41,-10.7 918.2,-10.73"/>
<polygon fill="midnightblue" stroke="midnightblue" points="1310.77,-180.83 1315.1,-190.49 1317.75,-180.23 1310.77,-180.83"/>
</g>
<!-- Node15&#45;&gt;Node3 -->
<g id="edge26" class="edge">
<title>Node15&#45;&gt;Node3</title>
<path fill="none" stroke="midnightblue" d="M1483.71,-183.37C1449.83,-152.87 1369.55,-85.8 1288.5,-56 1220.52,-31.01 1001.5,-17.12 918.13,-12.63"/>
<polygon fill="midnightblue" stroke="midnightblue" points="1481.55,-186.14 1491.3,-190.29 1486.27,-180.97 1481.55,-186.14"/>
</g>
</g>
</svg>
        <g id="navigator" transform="translate(0 0)" fill="#404254">
                <rect fill="#f2f5e9" fill-opacity="0.5" stroke="#606060" stroke-width=".5" x="0" y="0" width="60" height="60"/>
                <use id="zoomplus" xlink:href="#zoomPlus" x="17" y="9" onmousedown="handleZoom(evt,'in')"/>
                <use id="zoomminus" xlink:href="#zoomMin" x="42" y="9" onmousedown="handleZoom(evt,'out')"/>
                <use id="reset" xlink:href="#resetDef" x="30" y="36" onmousedown="handleReset()"/>
                <g id="arrowUp" xlink:href="#dirArrow" transform="translate(30 24)" onmousedown="handlePan(0,-1)">
                  <use xlink:href="#rim" fill="#404040">
                        <set attributeName="fill" to="#808080" begin="arrowUp.mouseover" end="arrowUp.mouseout"/>
                  </use>
                  <path fill="none" stroke="white" stroke-width="1.5" d="M0,-3.0v7 M-2.5,-0.5L0,-3.0L2.5,-0.5"/>
                </g>
                <g id="arrowRight" xlink:href="#dirArrow" transform="rotate(90) translate(36 -43)" onmousedown="handlePan(1,0)">
                  <use xlink:href="#rim" fill="#404040">
                        <set attributeName="fill" to="#808080" begin="arrowRight.mouseover" end="arrowRight.mouseout"/>
                  </use>
                  <path fill="none" stroke="white" stroke-width="1.5" d="M0,-3.0v7 M-2.5,-0.5L0,-3.0L2.5,-0.5"/>
                </g>
                <g id="arrowDown" xlink:href="#dirArrow" transform="rotate(180) translate(-30 -48)" onmousedown="handlePan(0,1)">
                  <use xlink:href="#rim" fill="#404040">
                        <set attributeName="fill" to="#808080" begin="arrowDown.mouseover" end="arrowDown.mouseout"/>
                  </use>
                  <path fill="none" stroke="white" stroke-width="1.5" d="M0,-3.0v7 M-2.5,-0.5L0,-3.0L2.5,-0.5"/>
                </g>
                <g id="arrowLeft" xlink:href="#dirArrow" transform="rotate(270) translate(-36 17)" onmousedown="handlePan(-1,0)">
                  <use xlink:href="#rim" fill="#404040">
                        <set attributeName="fill" to="#808080" begin="arrowLeft.mouseover" end="arrowLeft.mouseout"/>
                  </use>
                  <path fill="none" stroke="white" stroke-width="1.5" d="M0,-3.0v7 M-2.5,-0.5L0,-3.0L2.5,-0.5"/>
                </g>
        </g>
        <svg viewBox="0 0 15 15" width="100%" height="30px" preserveAspectRatio="xMaxYMin meet">
         <g id="arrow_out" transform="scale(0.3 0.3)">
          <a xlink:href="SlothNLFormIntegrator_8hpp__dep__incl_org.svg" target="_base">
           <rect id="button" ry="5" rx="5" y="6" x="6" height="38" width="38"
                fill="#f2f5e9" fill-opacity="0.5" stroke="#606060" stroke-width="1.0"/>
           <path id="arrow"
             d="M 11.500037,31.436501 C 11.940474,20.09759 22.043105,11.32322 32.158766,21.979434 L 37.068811,17.246167 C 37.068811,17.246167 37.088388,32 37.088388,32 L 22.160133,31.978069 C 22.160133,31.978069 26.997745,27.140456 26.997745,27.140456 C 18.528582,18.264221 13.291696,25.230495 11.500037,31.436501 z"
             style="fill:#404040;"/>
          </a>
         </g>
        </svg>
</svg>
