<?xml version="1.0" encoding="UTF-8" standalone="no"?>
<!DOCTYPE svg PUBLIC "-//W3C//DTD SVG 1.1//EN"
 "http://www.w3.org/Graphics/SVG/1.1/DTD/svg11.dtd">
<!-- Generated by graphviz version 2.43.0 (0)
 -->
<!-- Title: SlothGridFunction.hpp Pages: 1 -->
<svg width="684pt" height="151pt"
 viewBox="0.00 0.00 684.00 151.00" xmlns="http://www.w3.org/2000/svg" xmlns:xlink="http://www.w3.org/1999/xlink">
<g id="graph0" class="graph" transform="scale(1 1) rotate(0) translate(4 147)">
<title>SlothGridFunction.hpp</title>
<!-- Node1 -->
<g id="node1" class="node">
<title>Node1</title>
<g id="a_node1"><a xlink:title="Class dedicated to the calculation of the gradient of a GridFunction.">
<polygon fill="#bfbfbf" stroke="black" points="234,-123.5 234,-142.5 368,-142.5 368,-123.5 234,-123.5"/>
<text text-anchor="middle" x="301" y="-130.5" font-family="serif" font-size="10.00">SlothGridFunction.hpp</text>
</a>
</g>
</g>
<!-- Node2 -->
<g id="node2" class="node">
<title>Node2</title>
<g id="a_node2"><a xlink:href="DiffusionFluxNLFormIntegrator_8hpp.html" target="_top" xlink:title="inter&#45;diffusion integrator">
<polygon fill="none" stroke="black" points="0,-62 0,-81 202,-81 202,-62 0,-62"/>
<text text-anchor="middle" x="101" y="-69" font-family="serif" font-size="10.00">DiffusionFluxNLFormIntegrator.hpp</text>
</a>
</g>
</g>
<!-- Node1&#45;&gt;Node2 -->
<g id="edge1" class="edge">
<title>Node1&#45;&gt;Node2</title>
<path fill="none" stroke="midnightblue" d="M262.44,-120.53C223.57,-108.96 164.48,-91.38 129.6,-81.01"/>
<polygon fill="midnightblue" stroke="midnightblue" points="261.76,-123.98 272.34,-123.48 263.76,-117.27 261.76,-123.98"/>
</g>
<!-- Node3 -->
<g id="node3" class="node">
<title>Node3</title>
<g id="a_node3"><a xlink:href="sloth_8hpp.html" target="_top" xlink:title="List of all header files contained in the kernel directory.">
<polygon fill="none" stroke="black" points="268.5,-0.5 268.5,-19.5 333.5,-19.5 333.5,-0.5 268.5,-0.5"/>
<text text-anchor="middle" x="301" y="-7.5" font-family="serif" font-size="10.00">sloth.hpp</text>
</a>
</g>
</g>
<!-- Node1&#45;&gt;Node3 -->
<g id="edge7" class="edge">
<title>Node1&#45;&gt;Node3</title>
<path fill="none" stroke="midnightblue" d="M276.63,-117.73C266.05,-110.09 254.78,-99.64 249,-87 243.27,-74.47 243.27,-68.53 249,-56 256.39,-39.82 272.8,-27.23 285.22,-19.53"/>
<polygon fill="midnightblue" stroke="midnightblue" points="274.96,-120.82 285.22,-123.47 278.85,-115 274.96,-120.82"/>
</g>
<!-- Node4 -->
<g id="node4" class="node">
<title>Node4</title>
<g id="a_node4"><a xlink:href="MassDiffusionFluxNLFormIntegrator_8hpp.html" target="_top" xlink:title="Class dedicated to the VF of diffusion flux (gradient of chemical potential) used in mass balance equ...">
<polygon fill="none" stroke="black" points="258.5,-62 258.5,-81 487.5,-81 487.5,-62 258.5,-62"/>
<text text-anchor="middle" x="373" y="-69" font-family="serif" font-size="10.00">MassDiffusionFluxNLFormIntegrator.hpp</text>
</a>
</g>
</g>
<!-- Node1&#45;&gt;Node4 -->
<g id="edge3" class="edge">
<title>Node1&#45;&gt;Node4</title>
<path fill="none" stroke="midnightblue" d="M319.18,-116.97C332.96,-105.59 351.38,-90.37 362.7,-81.01"/>
<polygon fill="midnightblue" stroke="midnightblue" points="316.79,-114.41 311.32,-123.48 321.25,-119.8 316.79,-114.41"/>
</g>
<!-- Node5 -->
<g id="node5" class="node">
<title>Node5</title>
<g id="a_node5"><a xlink:href="ThermalDiffusionFluxNLFormIntegrator_8hpp.html" target="_top" xlink:title="Class dedicated to the VF of thermal diffusion flux used in energy balance equation.">
<polygon fill="none" stroke="black" points="506,-56.5 506,-86.5 676,-86.5 676,-56.5 506,-56.5"/>
<text text-anchor="start" x="514" y="-74.5" font-family="serif" font-size="10.00">ThermalDiffusionFluxNLForm</text>
<text text-anchor="middle" x="591" y="-63.5" font-family="serif" font-size="10.00">Integrator.hpp</text>
</a>
</g>
</g>
<!-- Node1&#45;&gt;Node5 -->
<g id="edge5" class="edge">
<title>Node1&#45;&gt;Node5</title>
<path fill="none" stroke="midnightblue" d="M352.59,-121.41C399.99,-111.69 470.58,-97.21 522.65,-86.52"/>
<polygon fill="midnightblue" stroke="midnightblue" points="351.64,-118.04 342.55,-123.48 353.05,-124.89 351.64,-118.04"/>
</g>
<!-- Node2&#45;&gt;Node3 -->
<g id="edge2" class="edge">
<title>Node2&#45;&gt;Node3</title>
<path fill="none" stroke="midnightblue" d="M139.56,-59.03C178.43,-47.46 237.52,-29.88 272.4,-19.51"/>
<polygon fill="midnightblue" stroke="midnightblue" points="138.24,-55.77 129.66,-61.98 140.24,-62.48 138.24,-55.77"/>
</g>
<!-- Node4&#45;&gt;Node3 -->
<g id="edge4" class="edge">
<title>Node4&#45;&gt;Node3</title>
<path fill="none" stroke="midnightblue" d="M354.82,-55.47C341.04,-44.09 322.62,-28.87 311.3,-19.51"/>
<polygon fill="midnightblue" stroke="midnightblue" points="352.75,-58.3 362.68,-61.98 357.21,-52.91 352.75,-58.3"/>
</g>
<!-- Node5&#45;&gt;Node3 -->
<g id="edge6" class="edge">
<title>Node5&#45;&gt;Node3</title>
<path fill="none" stroke="midnightblue" d="M512.65,-54.43C453.97,-42.39 376.67,-26.52 333.59,-17.69"/>
<polygon fill="midnightblue" stroke="midnightblue" points="512.14,-57.89 522.64,-56.47 513.55,-51.04 512.14,-57.89"/>
</g>
</g>
</svg>
