<?xml version="1.0" encoding="UTF-8" standalone="no"?>
<!DOCTYPE svg PUBLIC "-//W3C//DTD SVG 1.1//EN"
 "http://www.w3.org/Graphics/SVG/1.1/DTD/svg11.dtd">
<!-- Generated by graphviz version 2.43.0 (0)
 -->
<!-- Title: SlothSolver.hpp Pages: 1 -->
<!--zoomable 308 -->
<svg id="main" version="1.1" xmlns="http://www.w3.org/2000/svg" xmlns:xlink="http://www.w3.org/1999/xlink" xml:space="preserve" onload="init(evt)">
<style type="text/css"><![CDATA[
.edge:hover path { stroke: red; }
.edge:hover polygon { stroke: red; fill: red; }
]]></style>
<script type="text/javascript"><![CDATA[
var edges = document.getElementsByTagName('g');
if (edges && edges.length) {
  for (var i=0;i<edges.length;i++) {
    if (edges[i].id.substr(0,4)=='edge') {
      edges[i].setAttribute('class','edge');
    }
  }
}
]]></script>
        <defs>
                <circle id="rim" cx="0" cy="0" r="7"/>
                <circle id="rim2" cx="0" cy="0" r="3.5"/>
                <g id="zoomPlus">
                        <use xlink:href="#rim" fill="#404040">
                                <set attributeName="fill" to="#808080" begin="zoomplus.mouseover" end="zoomplus.mouseout"/>
                        </use>
                        <path d="M-4,0h8M0,-4v8" fill="none" stroke="white" stroke-width="1.5" pointer-events="none"/>
                </g>
                <g id="zoomMin">
                        <use xlink:href="#rim" fill="#404040">
                                <set attributeName="fill" to="#808080" begin="zoomminus.mouseover" end="zoomminus.mouseout"/>
                        </use>
                        <path d="M-4,0h8" fill="none" stroke="white" stroke-width="1.5" pointer-events="none"/>
                </g>
                <g id="dirArrow">
                        <path fill="none" stroke="white" stroke-width="1.5" d="M0,-3.0v7 M-2.5,-0.5L0,-3.0L2.5,-0.5"/>
                </g>
               <g id="resetDef">
                       <use xlink:href="#rim2" fill="#404040">
                               <set attributeName="fill" to="#808080" begin="reset.mouseover" end="reset.mouseout"/>
                       </use>
               </g>
        </defs>

<script type="text/javascript">
var viewWidth = 590;
var viewHeight = 308;
var sectionId = 'dynsection-1';
</script>
<script xlink:href="svgpan.js"/>
<svg id="graph" class="graph">
<g id="viewport">
<title>SlothSolver.hpp</title>
<!-- Node1 -->
<g id="node1" class="node">
<title>Node1</title>
<g id="a_node1"><a xlink:title="Class to define a SlothSolver objet.">
<polygon fill="#bfbfbf" stroke="black" points="184,-280.5 184,-299.5 282,-299.5 282,-280.5 184,-280.5"/>
<text text-anchor="middle" x="233" y="-287.5" font-family="serif" font-size="10.00">SlothSolver.hpp</text>
</a>
</g>
</g>
<!-- Node2 -->
<g id="node2" class="node">
<title>Node2</title>
<g id="a_node2"><a xlink:href="sloth_8hpp.html" target="_top" xlink:title="List of all header files contained in the kernel directory.">
<polygon fill="none" stroke="black" points="270.5,-0.5 270.5,-19.5 335.5,-19.5 335.5,-0.5 270.5,-0.5"/>
<text text-anchor="middle" x="303" y="-7.5" font-family="serif" font-size="10.00">sloth.hpp</text>
</a>
</g>
</g>
<!-- Node1&#45;&gt;Node2 -->
<g id="edge1" class="edge">
<title>Node1&#45;&gt;Node2</title>
<path fill="none" stroke="midnightblue" d="M173.54,-286.03C104.51,-279 0,-255.69 0,-179 0,-179 0,-179 0,-121 0,-78.22 32.79,-75.24 71,-56 136.6,-22.97 223.89,-14.13 270.46,-11.8"/>
<polygon fill="midnightblue" stroke="midnightblue" points="173.59,-289.55 183.87,-286.99 174.24,-282.58 173.59,-289.55"/>
</g>
<!-- Node3 -->
<g id="node3" class="node">
<title>Node3</title>
<g id="a_node3"><a xlink:href="LSolver_8hpp.html" target="_top" xlink:title="Class used to manage Linear Solver objet.">
<polygon fill="none" stroke="black" points="194,-224.5 194,-243.5 272,-243.5 272,-224.5 194,-224.5"/>
<text text-anchor="middle" x="233" y="-231.5" font-family="serif" font-size="10.00">LSolver.hpp</text>
</a>
</g>
</g>
<!-- Node1&#45;&gt;Node3 -->
<g id="edge2" class="edge">
<title>Node1&#45;&gt;Node3</title>
<path fill="none" stroke="midnightblue" d="M233,-269.8C233,-260.91 233,-250.78 233,-243.75"/>
<polygon fill="midnightblue" stroke="midnightblue" points="229.5,-270.08 233,-280.08 236.5,-270.08 229.5,-270.08"/>
</g>
<!-- Node10 -->
<g id="node10" class="node">
<title>Node10</title>
<g id="a_node10"><a xlink:href="NLSolver_8hpp.html" target="_top" xlink:title="Class used to manage a NonLinear Solver( Newton type)">
<polygon fill="none" stroke="black" points="341.5,-224.5 341.5,-243.5 428.5,-243.5 428.5,-224.5 341.5,-224.5"/>
<text text-anchor="middle" x="385" y="-231.5" font-family="serif" font-size="10.00">NLSolver.hpp</text>
</a>
</g>
</g>
<!-- Node1&#45;&gt;Node10 -->
<g id="edge21" class="edge">
<title>Node1&#45;&gt;Node10</title>
<path fill="none" stroke="midnightblue" d="M266.67,-277.04C295.27,-266.88 335.61,-252.55 361.03,-243.52"/>
<polygon fill="midnightblue" stroke="midnightblue" points="265.34,-273.8 257.08,-280.44 267.68,-280.39 265.34,-273.8"/>
</g>
<!-- Node3&#45;&gt;Node2 -->
<g id="edge20" class="edge">
<title>Node3&#45;&gt;Node2</title>
<path fill="none" stroke="midnightblue" d="M206.42,-219.59C151.51,-190.17 34.76,-117.67 85,-56 108,-27.76 215.33,-16.71 270.32,-12.85"/>
<polygon fill="midnightblue" stroke="midnightblue" points="205.11,-222.85 215.59,-224.41 208.37,-216.66 205.11,-222.85"/>
</g>
<!-- Node4 -->
<g id="node4" class="node">
<title>Node4</title>
<g id="a_node4"><a xlink:href="OperatorBase_8hpp.html" target="_top" xlink:title="Base class for building Steady and TimeDependent PhaseFieldOperators.">
<polygon fill="none" stroke="black" points="289,-168.5 289,-187.5 399,-187.5 399,-168.5 289,-168.5"/>
<text text-anchor="middle" x="344" y="-175.5" font-family="serif" font-size="10.00">OperatorBase.hpp</text>
</a>
</g>
</g>
<!-- Node3&#45;&gt;Node4 -->
<g id="edge3" class="edge">
<title>Node3&#45;&gt;Node4</title>
<path fill="none" stroke="midnightblue" d="M260.01,-219.86C280.59,-209.85 308.34,-196.35 326.21,-187.65"/>
<polygon fill="midnightblue" stroke="midnightblue" points="258.3,-216.8 250.83,-224.32 261.36,-223.1 258.3,-216.8"/>
</g>
<!-- Node5 -->
<g id="node5" class="node">
<title>Node5</title>
<g id="a_node5"><a xlink:href="SteadyOperatorBase_8hpp.html" target="_top" xlink:title="Steady Operator base.">
<polygon fill="none" stroke="black" points="321,-112.5 321,-131.5 467,-131.5 467,-112.5 321,-112.5"/>
<text text-anchor="middle" x="394" y="-119.5" font-family="serif" font-size="10.00">SteadyOperatorBase.hpp</text>
</a>
</g>
</g>
<!-- Node3&#45;&gt;Node5 -->
<g id="edge18" class="edge">
<title>Node3&#45;&gt;Node5</title>
<path fill="none" stroke="midnightblue" d="M242.1,-215.24C250.29,-200.79 263.56,-180.77 280,-168 303.02,-150.12 334.05,-138.49 357.93,-131.54"/>
<polygon fill="midnightblue" stroke="midnightblue" points="238.93,-213.74 237.26,-224.2 245.09,-217.06 238.93,-213.74"/>
</g>
<!-- Node9 -->
<g id="node9" class="node">
<title>Node9</title>
<g id="a_node9"><a xlink:href="TransientOperatorBase_8hpp.html" target="_top" xlink:title="Transient Operator base.">
<polygon fill="none" stroke="black" points="143.5,-112.5 143.5,-131.5 302.5,-131.5 302.5,-112.5 143.5,-112.5"/>
<text text-anchor="middle" x="223" y="-119.5" font-family="serif" font-size="10.00">TransientOperatorBase.hpp</text>
</a>
</g>
</g>
<!-- Node3&#45;&gt;Node9 -->
<g id="edge19" class="edge">
<title>Node3&#45;&gt;Node9</title>
<path fill="none" stroke="midnightblue" d="M231.3,-214.35C229.11,-190.25 225.39,-149.31 223.78,-131.59"/>
<polygon fill="midnightblue" stroke="midnightblue" points="227.82,-214.73 232.22,-224.37 234.8,-214.09 227.82,-214.73"/>
</g>
<!-- Node4&#45;&gt;Node2 -->
<g id="edge17" class="edge">
<title>Node4&#45;&gt;Node2</title>
<path fill="none" stroke="midnightblue" d="M400.47,-166.36C476.36,-149.62 596.55,-113.04 549,-56 522.24,-23.9 396.63,-14.63 335.96,-12.01"/>
<polygon fill="midnightblue" stroke="midnightblue" points="399.58,-162.97 390.54,-168.49 401.05,-169.81 399.58,-162.97"/>
</g>
<!-- Node4&#45;&gt;Node5 -->
<g id="edge4" class="edge">
<title>Node4&#45;&gt;Node5</title>
<path fill="none" stroke="midnightblue" d="M359.08,-160.72C367.89,-151.2 378.67,-139.56 385.9,-131.75"/>
<polygon fill="midnightblue" stroke="midnightblue" points="356.48,-158.37 352.26,-168.08 361.62,-163.12 356.48,-158.37"/>
</g>
<!-- Node4&#45;&gt;Node9 -->
<g id="edge12" class="edge">
<title>Node4&#45;&gt;Node9</title>
<path fill="none" stroke="midnightblue" d="M315.69,-164.37C293.03,-154.26 261.87,-140.35 242.08,-131.52"/>
<polygon fill="midnightblue" stroke="midnightblue" points="314.27,-167.56 324.83,-168.44 317.12,-161.17 314.27,-167.56"/>
</g>
<!-- Node5&#45;&gt;Node2 -->
<g id="edge11" class="edge">
<title>Node5&#45;&gt;Node2</title>
<path fill="none" stroke="midnightblue" d="M467.83,-110.49C511.57,-101.11 554.31,-84.36 531,-56 506.66,-26.39 392.86,-15.94 335.8,-12.53"/>
<polygon fill="midnightblue" stroke="midnightblue" points="467.02,-107.08 457.91,-112.49 468.41,-113.94 467.02,-107.08"/>
</g>
<!-- Node6 -->
<g id="node6" class="node">
<title>Node6</title>
<g id="a_node6"><a xlink:href="DiffusionOperator_8hpp.html" target="_top" xlink:title="Diffusion operator (Base, Steady and TimeDependent)">
<polygon fill="none" stroke="black" points="391.5,-56.5 391.5,-75.5 522.5,-75.5 522.5,-56.5 391.5,-56.5"/>
<text text-anchor="middle" x="457" y="-63.5" font-family="serif" font-size="10.00">DiffusionOperator.hpp</text>
</a>
</g>
</g>
<!-- Node5&#45;&gt;Node6 -->
<g id="edge5" class="edge">
<title>Node5&#45;&gt;Node6</title>
<path fill="none" stroke="midnightblue" d="M412.04,-105.54C423.27,-95.91 437.32,-83.87 446.69,-75.83"/>
<polygon fill="midnightblue" stroke="midnightblue" points="409.44,-103.16 404.12,-112.32 413.99,-108.47 409.44,-103.16"/>
</g>
<!-- Node7 -->
<g id="node7" class="node">
<title>Node7</title>
<g id="a_node7"><a xlink:href="HeatOperator_8hpp.html" target="_top" xlink:title="Heat operator (Base, Steady and TimeDependent)">
<polygon fill="none" stroke="black" points="104,-56.5 104,-75.5 214,-75.5 214,-56.5 104,-56.5"/>
<text text-anchor="middle" x="159" y="-63.5" font-family="serif" font-size="10.00">HeatOperator.hpp</text>
</a>
</g>
</g>
<!-- Node5&#45;&gt;Node7 -->
<g id="edge7" class="edge">
<title>Node5&#45;&gt;Node7</title>
<path fill="none" stroke="midnightblue" d="M346.79,-110.15C302.39,-99.95 236.81,-84.88 196.06,-75.52"/>
<polygon fill="midnightblue" stroke="midnightblue" points="346.23,-113.62 356.76,-112.44 347.8,-106.79 346.23,-113.62"/>
</g>
<!-- Node8 -->
<g id="node8" class="node">
<title>Node8</title>
<g id="a_node8"><a xlink:href="PhaseFieldOperator_8hpp.html" target="_top" xlink:title="AllenCahn operator (Base, Steady and TimeDependent)">
<polygon fill="none" stroke="black" points="232.5,-56.5 232.5,-75.5 373.5,-75.5 373.5,-56.5 232.5,-56.5"/>
<text text-anchor="middle" x="303" y="-63.5" font-family="serif" font-size="10.00">PhaseFieldOperator.hpp</text>
</a>
</g>
</g>
<!-- Node5&#45;&gt;Node8 -->
<g id="edge9" class="edge">
<title>Node5&#45;&gt;Node8</title>
<path fill="none" stroke="midnightblue" d="M370.71,-107.18C353.96,-97.24 331.9,-84.15 317.58,-75.65"/>
<polygon fill="midnightblue" stroke="midnightblue" points="368.99,-110.23 379.38,-112.32 372.57,-104.21 368.99,-110.23"/>
</g>
<!-- Node6&#45;&gt;Node2 -->
<g id="edge6" class="edge">
<title>Node6&#45;&gt;Node2</title>
<path fill="none" stroke="midnightblue" d="M422.89,-53.04C393.91,-42.88 353.04,-28.55 327.29,-19.52"/>
<polygon fill="midnightblue" stroke="midnightblue" points="422,-56.44 432.6,-56.44 424.32,-49.83 422,-56.44"/>
</g>
<!-- Node7&#45;&gt;Node2 -->
<g id="edge8" class="edge">
<title>Node7&#45;&gt;Node2</title>
<path fill="none" stroke="midnightblue" d="M191.25,-52.91C218.32,-42.75 256.32,-28.51 280.29,-19.52"/>
<polygon fill="midnightblue" stroke="midnightblue" points="189.95,-49.66 181.82,-56.44 192.41,-56.21 189.95,-49.66"/>
</g>
<!-- Node8&#45;&gt;Node2 -->
<g id="edge10" class="edge">
<title>Node8&#45;&gt;Node2</title>
<path fill="none" stroke="midnightblue" d="M303,-45.8C303,-36.91 303,-26.78 303,-19.75"/>
<polygon fill="midnightblue" stroke="midnightblue" points="299.5,-46.08 303,-56.08 306.5,-46.08 299.5,-46.08"/>
</g>
<!-- Node9&#45;&gt;Node2 -->
<g id="edge16" class="edge">
<title>Node9&#45;&gt;Node2</title>
<path fill="none" stroke="midnightblue" d="M156.74,-110.31C114.93,-100.67 72.69,-83.65 95,-56 116.63,-29.19 217.14,-17.56 270.12,-13.22"/>
<polygon fill="midnightblue" stroke="midnightblue" points="156.24,-113.79 166.75,-112.49 157.73,-106.95 156.24,-113.79"/>
</g>
<!-- Node9&#45;&gt;Node6 -->
<g id="edge13" class="edge">
<title>Node9&#45;&gt;Node6</title>
<path fill="none" stroke="midnightblue" d="M270,-110.15C314.22,-99.95 379.52,-84.88 420.1,-75.52"/>
<polygon fill="midnightblue" stroke="midnightblue" points="269.03,-106.78 260.08,-112.44 270.61,-113.61 269.03,-106.78"/>
</g>
<!-- Node9&#45;&gt;Node7 -->
<g id="edge14" class="edge">
<title>Node9&#45;&gt;Node7</title>
<path fill="none" stroke="midnightblue" d="M205.01,-105.82C193.54,-96.15 179.09,-83.95 169.47,-75.83"/>
<polygon fill="midnightblue" stroke="midnightblue" points="202.82,-108.55 212.72,-112.32 207.33,-103.2 202.82,-108.55"/>
</g>
<!-- Node9&#45;&gt;Node8 -->
<g id="edge15" class="edge">
<title>Node9&#45;&gt;Node8</title>
<path fill="none" stroke="midnightblue" d="M244.3,-106.62C258.92,-96.76 277.83,-83.99 290.18,-75.65"/>
<polygon fill="midnightblue" stroke="midnightblue" points="242.18,-103.83 235.85,-112.32 246.1,-109.63 242.18,-103.83"/>
</g>
<!-- Node10&#45;&gt;Node2 -->
<g id="edge24" class="edge">
<title>Node10&#45;&gt;Node2</title>
<path fill="none" stroke="midnightblue" d="M416.98,-220.52C483.46,-192.81 625.87,-123.3 569,-56 539.45,-21.03 399.9,-13.23 335.6,-11.49"/>
<polygon fill="midnightblue" stroke="midnightblue" points="415.3,-217.42 407.38,-224.45 417.96,-223.9 415.3,-217.42"/>
</g>
<!-- Node10&#45;&gt;Node4 -->
<g id="edge22" class="edge">
<title>Node10&#45;&gt;Node4</title>
<path fill="none" stroke="midnightblue" d="M371.98,-215.86C364.88,-206.5 356.4,-195.33 350.64,-187.75"/>
<polygon fill="midnightblue" stroke="midnightblue" points="369.39,-218.24 378.23,-224.08 374.97,-214 369.39,-218.24"/>
</g>
<!-- Node10&#45;&gt;Node5 -->
<g id="edge23" class="edge">
<title>Node10&#45;&gt;Node5</title>
<path fill="none" stroke="midnightblue" d="M396.42,-215.44C400.98,-207.42 405.69,-197.58 408,-188 412.81,-168.02 404.16,-144.4 398.45,-131.86"/>
<polygon fill="midnightblue" stroke="midnightblue" points="393.31,-213.83 391.1,-224.19 399.29,-217.46 393.31,-213.83"/>
</g>
</g>
</svg>
        <g id="navigator" transform="translate(0 0)" fill="#404254">
                <rect fill="#f2f5e9" fill-opacity="0.5" stroke="#606060" stroke-width=".5" x="0" y="0" width="60" height="60"/>
                <use id="zoomplus" xlink:href="#zoomPlus" x="17" y="9" onmousedown="handleZoom(evt,'in')"/>
                <use id="zoomminus" xlink:href="#zoomMin" x="42" y="9" onmousedown="handleZoom(evt,'out')"/>
                <use id="reset" xlink:href="#resetDef" x="30" y="36" onmousedown="handleReset()"/>
                <g id="arrowUp" xlink:href="#dirArrow" transform="translate(30 24)" onmousedown="handlePan(0,-1)">
                  <use xlink:href="#rim" fill="#404040">
                        <set attributeName="fill" to="#808080" begin="arrowUp.mouseover" end="arrowUp.mouseout"/>
                  </use>
                  <path fill="none" stroke="white" stroke-width="1.5" d="M0,-3.0v7 M-2.5,-0.5L0,-3.0L2.5,-0.5"/>
                </g>
                <g id="arrowRight" xlink:href="#dirArrow" transform="rotate(90) translate(36 -43)" onmousedown="handlePan(1,0)">
                  <use xlink:href="#rim" fill="#404040">
                        <set attributeName="fill" to="#808080" begin="arrowRight.mouseover" end="arrowRight.mouseout"/>
                  </use>
                  <path fill="none" stroke="white" stroke-width="1.5" d="M0,-3.0v7 M-2.5,-0.5L0,-3.0L2.5,-0.5"/>
                </g>
                <g id="arrowDown" xlink:href="#dirArrow" transform="rotate(180) translate(-30 -48)" onmousedown="handlePan(0,1)">
                  <use xlink:href="#rim" fill="#404040">
                        <set attributeName="fill" to="#808080" begin="arrowDown.mouseover" end="arrowDown.mouseout"/>
                  </use>
                  <path fill="none" stroke="white" stroke-width="1.5" d="M0,-3.0v7 M-2.5,-0.5L0,-3.0L2.5,-0.5"/>
                </g>
                <g id="arrowLeft" xlink:href="#dirArrow" transform="rotate(270) translate(-36 17)" onmousedown="handlePan(-1,0)">
                  <use xlink:href="#rim" fill="#404040">
                        <set attributeName="fill" to="#808080" begin="arrowLeft.mouseover" end="arrowLeft.mouseout"/>
                  </use>
                  <path fill="none" stroke="white" stroke-width="1.5" d="M0,-3.0v7 M-2.5,-0.5L0,-3.0L2.5,-0.5"/>
                </g>
        </g>
        <svg viewBox="0 0 15 15" width="100%" height="30px" preserveAspectRatio="xMaxYMin meet">
         <g id="arrow_out" transform="scale(0.3 0.3)">
          <a xlink:href="SlothSolver_8hpp__dep__incl_org.svg" target="_base">
           <rect id="button" ry="5" rx="5" y="6" x="6" height="38" width="38"
                fill="#f2f5e9" fill-opacity="0.5" stroke="#606060" stroke-width="1.0"/>
           <path id="arrow"
             d="M 11.500037,31.436501 C 11.940474,20.09759 22.043105,11.32322 32.158766,21.979434 L 37.068811,17.246167 C 37.068811,17.246167 37.088388,32 37.088388,32 L 22.160133,31.978069 C 22.160133,31.978069 26.997745,27.140456 26.997745,27.140456 C 18.528582,18.264221 13.291696,25.230495 11.500037,31.436501 z"
             style="fill:#404040;"/>
          </a>
         </g>
        </svg>
</svg>
