<?xml version="1.0" encoding="UTF-8" standalone="no"?>
<!DOCTYPE svg PUBLIC "-//W3C//DTD SVG 1.1//EN"
 "http://www.w3.org/Graphics/SVG/1.1/DTD/svg11.dtd">
<!-- Generated by graphviz version 2.43.0 (0)
 -->
<!-- Title: SolverBase.hpp Pages: 1 -->
<svg width="1005pt" height="420pt"
 viewBox="0.00 0.00 1004.50 420.00" xmlns="http://www.w3.org/2000/svg" xmlns:xlink="http://www.w3.org/1999/xlink">
<g id="graph0" class="graph" transform="scale(1 1) rotate(0) translate(4 416)">
<title>SolverBase.hpp</title>
<!-- Node1 -->
<g id="node1" class="node">
<title>Node1</title>
<g id="a_node1"><a xlink:title="Base class for Hypre, Iterative, Direct and Non Linear Solvers.">
<polygon fill="#bfbfbf" stroke="black" points="301.5,-392.5 301.5,-411.5 398.5,-411.5 398.5,-392.5 301.5,-392.5"/>
<text text-anchor="middle" x="350" y="-399.5" font-family="serif" font-size="10.00">SolverBase.hpp</text>
</a>
</g>
</g>
<!-- Node2 -->
<g id="node2" class="node">
<title>Node2</title>
<g id="a_node2"><a xlink:href="sloth_8hpp.html" target="_top" xlink:title="List of all header files contained in the kernel directory.">
<polygon fill="none" stroke="black" points="274.5,-0.5 274.5,-19.5 339.5,-19.5 339.5,-0.5 274.5,-0.5"/>
<text text-anchor="middle" x="307" y="-7.5" font-family="serif" font-size="10.00">sloth.hpp</text>
</a>
</g>
</g>
<!-- Node1&#45;&gt;Node2 -->
<g id="edge1" class="edge">
<title>Node1&#45;&gt;Node2</title>
<path fill="none" stroke="midnightblue" d="M291.3,-399.36C210.46,-396 70.27,-385.92 30,-356 4.46,-337.02 0,-322.82 0,-291 0,-291 0,-291 0,-121 0,-83.16 22.21,-74.89 55,-56 91.87,-34.76 214.59,-20.12 274.09,-14.09"/>
<polygon fill="midnightblue" stroke="midnightblue" points="291.21,-402.85 301.34,-399.75 291.48,-395.86 291.21,-402.85"/>
</g>
<!-- Node3 -->
<g id="node3" class="node">
<title>Node3</title>
<g id="a_node3"><a xlink:href="DSolverBase_8hpp.html" target="_top" xlink:title="Direct solvers.">
<polygon fill="none" stroke="black" points="297.5,-336.5 297.5,-355.5 402.5,-355.5 402.5,-336.5 297.5,-336.5"/>
<text text-anchor="middle" x="350" y="-343.5" font-family="serif" font-size="10.00">DSolverBase.hpp</text>
</a>
</g>
</g>
<!-- Node1&#45;&gt;Node3 -->
<g id="edge2" class="edge">
<title>Node1&#45;&gt;Node3</title>
<path fill="none" stroke="midnightblue" d="M350,-381.8C350,-372.91 350,-362.78 350,-355.75"/>
<polygon fill="midnightblue" stroke="midnightblue" points="346.5,-382.08 350,-392.08 353.5,-382.08 346.5,-382.08"/>
</g>
<!-- Node13 -->
<g id="node13" class="node">
<title>Node13</title>
<g id="a_node13"><a xlink:href="HPrecondBase_8hpp.html" target="_top" xlink:title="Base class for hypre preconditionners used in linear system involved in non linear algorithm.">
<polygon fill="none" stroke="black" points="39,-336.5 39,-355.5 155,-355.5 155,-336.5 39,-336.5"/>
<text text-anchor="middle" x="97" y="-343.5" font-family="serif" font-size="10.00">HPrecondBase.hpp</text>
</a>
</g>
</g>
<!-- Node1&#45;&gt;Node13 -->
<g id="edge30" class="edge">
<title>Node1&#45;&gt;Node13</title>
<path fill="none" stroke="midnightblue" d="M300.08,-390.35C252.27,-380.14 181.05,-364.94 136.9,-355.52"/>
<polygon fill="midnightblue" stroke="midnightblue" points="299.4,-393.78 309.91,-392.44 300.86,-386.93 299.4,-393.78"/>
</g>
<!-- Node14 -->
<g id="node14" class="node">
<title>Node14</title>
<g id="a_node14"><a xlink:href="HSolverBase_8hpp.html" target="_top" xlink:title="Base class for Hypre solvers.">
<polygon fill="none" stroke="black" points="173,-336.5 173,-355.5 279,-355.5 279,-336.5 173,-336.5"/>
<text text-anchor="middle" x="226" y="-343.5" font-family="serif" font-size="10.00">HSolverBase.hpp</text>
</a>
</g>
</g>
<!-- Node1&#45;&gt;Node14 -->
<g id="edge33" class="edge">
<title>Node1&#45;&gt;Node14</title>
<path fill="none" stroke="midnightblue" d="M320.99,-388.37C297.77,-378.26 265.84,-364.35 245.56,-355.52"/>
<polygon fill="midnightblue" stroke="midnightblue" points="319.79,-391.66 330.35,-392.44 322.58,-385.24 319.79,-391.66"/>
</g>
<!-- Node15 -->
<g id="node15" class="node">
<title>Node15</title>
<g id="a_node15"><a xlink:href="IPrecondBase_8hpp.html" target="_top" xlink:title="Base class for preconditionners used in linear system involved in non linear algorithm.">
<polygon fill="none" stroke="black" points="540,-336.5 540,-355.5 650,-355.5 650,-336.5 540,-336.5"/>
<text text-anchor="middle" x="595" y="-343.5" font-family="serif" font-size="10.00">IPrecondBase.hpp</text>
</a>
</g>
</g>
<!-- Node1&#45;&gt;Node15 -->
<g id="edge36" class="edge">
<title>Node1&#45;&gt;Node15</title>
<path fill="none" stroke="midnightblue" d="M398.63,-390.28C444.93,-380.08 513.69,-364.92 556.36,-355.52"/>
<polygon fill="midnightblue" stroke="midnightblue" points="397.83,-386.87 388.82,-392.44 399.34,-393.71 397.83,-386.87"/>
</g>
<!-- Node16 -->
<g id="node16" class="node">
<title>Node16</title>
<g id="a_node16"><a xlink:href="ISolverBase_8hpp.html" target="_top" xlink:title="Base class for iterative solvers.">
<polygon fill="none" stroke="black" points="420.5,-336.5 420.5,-355.5 521.5,-355.5 521.5,-336.5 420.5,-336.5"/>
<text text-anchor="middle" x="471" y="-343.5" font-family="serif" font-size="10.00">ISolverBase.hpp</text>
</a>
</g>
</g>
<!-- Node1&#45;&gt;Node16 -->
<g id="edge40" class="edge">
<title>Node1&#45;&gt;Node16</title>
<path fill="none" stroke="midnightblue" d="M378.31,-388.37C400.97,-378.26 432.13,-364.35 451.92,-355.52"/>
<polygon fill="midnightblue" stroke="midnightblue" points="376.88,-385.17 369.17,-392.44 379.73,-391.56 376.88,-385.17"/>
</g>
<!-- Node17 -->
<g id="node17" class="node">
<title>Node17</title>
<g id="a_node17"><a xlink:href="NLSolverBase_8hpp.html" target="_top" xlink:title="ase class for non linear solvers">
<polygon fill="none" stroke="black" points="883.5,-280.5 883.5,-299.5 996.5,-299.5 996.5,-280.5 883.5,-280.5"/>
<text text-anchor="middle" x="940" y="-287.5" font-family="serif" font-size="10.00">NLSolverBase.hpp</text>
</a>
</g>
</g>
<!-- Node1&#45;&gt;Node17 -->
<g id="edge44" class="edge">
<title>Node1&#45;&gt;Node17</title>
<path fill="none" stroke="midnightblue" d="M408.68,-393.92C471.01,-386.06 572.32,-372.31 659,-356 749.3,-339.01 854.52,-312.98 906.88,-299.6"/>
<polygon fill="midnightblue" stroke="midnightblue" points="408.13,-390.46 398.64,-395.18 409,-397.41 408.13,-390.46"/>
</g>
<!-- Node3&#45;&gt;Node2 -->
<g id="edge3" class="edge">
<title>Node3&#45;&gt;Node2</title>
<path fill="none" stroke="midnightblue" d="M305.51,-333.93C237.12,-315.6 114,-276.79 114,-235 114,-235 114,-235 114,-121 114,-48.11 219.2,-22.89 274.26,-14.68"/>
<polygon fill="midnightblue" stroke="midnightblue" points="304.62,-337.32 315.18,-336.48 306.4,-330.55 304.62,-337.32"/>
</g>
<!-- Node4 -->
<g id="node4" class="node">
<title>Node4</title>
<g id="a_node4"><a xlink:href="NLSolver_8hpp.html" target="_top" xlink:title="Class used to manage a NonLinear Solver( Newton type)">
<polygon fill="none" stroke="black" points="473.5,-224.5 473.5,-243.5 560.5,-243.5 560.5,-224.5 473.5,-224.5"/>
<text text-anchor="middle" x="517" y="-231.5" font-family="serif" font-size="10.00">NLSolver.hpp</text>
</a>
</g>
</g>
<!-- Node3&#45;&gt;Node4 -->
<g id="edge4" class="edge">
<title>Node3&#45;&gt;Node4</title>
<path fill="none" stroke="midnightblue" d="M371.69,-330.71C406.88,-307.53 475.36,-262.43 503.96,-243.59"/>
<polygon fill="midnightblue" stroke="midnightblue" points="369.53,-327.94 363.1,-336.37 373.38,-333.79 369.53,-327.94"/>
</g>
<!-- Node11 -->
<g id="node11" class="node">
<title>Node11</title>
<g id="a_node11"><a xlink:href="SlothSolver_8hpp.html" target="_top" xlink:title="Class to define a SlothSolver objet.">
<polygon fill="none" stroke="black" points="301,-280.5 301,-299.5 399,-299.5 399,-280.5 301,-280.5"/>
<text text-anchor="middle" x="350" y="-287.5" font-family="serif" font-size="10.00">SlothSolver.hpp</text>
</a>
</g>
</g>
<!-- Node3&#45;&gt;Node11 -->
<g id="edge22" class="edge">
<title>Node3&#45;&gt;Node11</title>
<path fill="none" stroke="midnightblue" d="M350,-325.8C350,-316.91 350,-306.78 350,-299.75"/>
<polygon fill="midnightblue" stroke="midnightblue" points="346.5,-326.08 350,-336.08 353.5,-326.08 346.5,-326.08"/>
</g>
<!-- Node4&#45;&gt;Node2 -->
<g id="edge21" class="edge">
<title>Node4&#45;&gt;Node2</title>
<path fill="none" stroke="midnightblue" d="M555.34,-221.35C635.01,-195.32 805.78,-128.97 740,-56 713.27,-26.35 435.81,-14.99 339.62,-11.93"/>
<polygon fill="midnightblue" stroke="midnightblue" points="554.09,-218.07 545.64,-224.47 556.23,-224.74 554.09,-218.07"/>
</g>
<!-- Node5 -->
<g id="node5" class="node">
<title>Node5</title>
<g id="a_node5"><a xlink:href="OperatorBase_8hpp.html" target="_top" xlink:title="Base class for building Steady and TimeDependent PhaseFieldOperators.">
<polygon fill="none" stroke="black" points="343,-168.5 343,-187.5 453,-187.5 453,-168.5 343,-168.5"/>
<text text-anchor="middle" x="398" y="-175.5" font-family="serif" font-size="10.00">OperatorBase.hpp</text>
</a>
</g>
</g>
<!-- Node4&#45;&gt;Node5 -->
<g id="edge5" class="edge">
<title>Node4&#45;&gt;Node5</title>
<path fill="none" stroke="midnightblue" d="M488.86,-220.23C466.6,-210.13 436.14,-196.31 416.77,-187.52"/>
<polygon fill="midnightblue" stroke="midnightblue" points="487.59,-223.5 498.14,-224.44 490.48,-217.12 487.59,-223.5"/>
</g>
<!-- Node6 -->
<g id="node6" class="node">
<title>Node6</title>
<g id="a_node6"><a xlink:href="SteadyOperatorBase_8hpp.html" target="_top" xlink:title="Steady Operator base.">
<polygon fill="none" stroke="black" points="446,-112.5 446,-131.5 592,-131.5 592,-112.5 446,-112.5"/>
<text text-anchor="middle" x="519" y="-119.5" font-family="serif" font-size="10.00">SteadyOperatorBase.hpp</text>
</a>
</g>
</g>
<!-- Node4&#45;&gt;Node6 -->
<g id="edge20" class="edge">
<title>Node4&#45;&gt;Node6</title>
<path fill="none" stroke="midnightblue" d="M517.34,-214.35C517.78,-190.25 518.52,-149.31 518.84,-131.59"/>
<polygon fill="midnightblue" stroke="midnightblue" points="513.84,-214.31 517.16,-224.37 520.84,-214.43 513.84,-214.31"/>
</g>
<!-- Node5&#45;&gt;Node2 -->
<g id="edge19" class="edge">
<title>Node5&#45;&gt;Node2</title>
<path fill="none" stroke="midnightblue" d="M332.98,-172.22C305.86,-166.63 276.81,-155.16 260,-132 233.13,-94.97 278.43,-40.58 298.34,-19.65"/>
<polygon fill="midnightblue" stroke="midnightblue" points="332.39,-175.67 342.86,-174.02 333.65,-168.78 332.39,-175.67"/>
</g>
<!-- Node5&#45;&gt;Node6 -->
<g id="edge6" class="edge">
<title>Node5&#45;&gt;Node6</title>
<path fill="none" stroke="midnightblue" d="M426.31,-164.37C448.97,-154.26 480.13,-140.35 499.92,-131.52"/>
<polygon fill="midnightblue" stroke="midnightblue" points="424.88,-161.17 417.17,-168.44 427.73,-167.56 424.88,-161.17"/>
</g>
<!-- Node10 -->
<g id="node10" class="node">
<title>Node10</title>
<g id="a_node10"><a xlink:href="TransientOperatorBase_8hpp.html" target="_top" xlink:title="Transient Operator base.">
<polygon fill="none" stroke="black" points="268.5,-112.5 268.5,-131.5 427.5,-131.5 427.5,-112.5 268.5,-112.5"/>
<text text-anchor="middle" x="348" y="-119.5" font-family="serif" font-size="10.00">TransientOperatorBase.hpp</text>
</a>
</g>
</g>
<!-- Node5&#45;&gt;Node10 -->
<g id="edge14" class="edge">
<title>Node5&#45;&gt;Node10</title>
<path fill="none" stroke="midnightblue" d="M382.92,-160.72C374.11,-151.2 363.33,-139.56 356.1,-131.75"/>
<polygon fill="midnightblue" stroke="midnightblue" points="380.38,-163.12 389.74,-168.08 385.52,-158.37 380.38,-163.12"/>
</g>
<!-- Node6&#45;&gt;Node2 -->
<g id="edge13" class="edge">
<title>Node6&#45;&gt;Node2</title>
<path fill="none" stroke="midnightblue" d="M602.22,-118.87C674.24,-114.13 761.13,-99.6 722,-56 696.56,-27.65 432.98,-15.51 339.59,-12.08"/>
<polygon fill="midnightblue" stroke="midnightblue" points="601.95,-115.39 592.17,-119.48 602.37,-122.37 601.95,-115.39"/>
</g>
<!-- Node7 -->
<g id="node7" class="node">
<title>Node7</title>
<g id="a_node7"><a xlink:href="DiffusionOperator_8hpp.html" target="_top" xlink:title="Diffusion operator (Base, Steady and TimeDependent)">
<polygon fill="none" stroke="black" points="581.5,-56.5 581.5,-75.5 712.5,-75.5 712.5,-56.5 581.5,-56.5"/>
<text text-anchor="middle" x="647" y="-63.5" font-family="serif" font-size="10.00">DiffusionOperator.hpp</text>
</a>
</g>
</g>
<!-- Node6&#45;&gt;Node7 -->
<g id="edge7" class="edge">
<title>Node6&#45;&gt;Node7</title>
<path fill="none" stroke="midnightblue" d="M548.62,-108.5C572.62,-98.38 605.78,-84.39 626.81,-75.52"/>
<polygon fill="midnightblue" stroke="midnightblue" points="547.14,-105.33 539.28,-112.44 549.86,-111.78 547.14,-105.33"/>
</g>
<!-- Node8 -->
<g id="node8" class="node">
<title>Node8</title>
<g id="a_node8"><a xlink:href="HeatOperator_8hpp.html" target="_top" xlink:title="Heat operator (Base, Steady and TimeDependent)">
<polygon fill="none" stroke="black" points="294,-56.5 294,-75.5 404,-75.5 404,-56.5 294,-56.5"/>
<text text-anchor="middle" x="349" y="-63.5" font-family="serif" font-size="10.00">HeatOperator.hpp</text>
</a>
</g>
</g>
<!-- Node6&#45;&gt;Node8 -->
<g id="edge9" class="edge">
<title>Node6&#45;&gt;Node8</title>
<path fill="none" stroke="midnightblue" d="M482.18,-109.3C450.15,-99.13 404.48,-84.62 375.81,-75.52"/>
<polygon fill="midnightblue" stroke="midnightblue" points="481.47,-112.75 492.06,-112.44 483.59,-106.08 481.47,-112.75"/>
</g>
<!-- Node9 -->
<g id="node9" class="node">
<title>Node9</title>
<g id="a_node9"><a xlink:href="PhaseFieldOperator_8hpp.html" target="_top" xlink:title="AllenCahn operator (Base, Steady and TimeDependent)">
<polygon fill="none" stroke="black" points="422.5,-56.5 422.5,-75.5 563.5,-75.5 563.5,-56.5 422.5,-56.5"/>
<text text-anchor="middle" x="493" y="-63.5" font-family="serif" font-size="10.00">PhaseFieldOperator.hpp</text>
</a>
</g>
</g>
<!-- Node6&#45;&gt;Node9 -->
<g id="edge11" class="edge">
<title>Node6&#45;&gt;Node9</title>
<path fill="none" stroke="midnightblue" d="M510.33,-102.98C505.91,-93.82 500.75,-83.09 497.21,-75.75"/>
<polygon fill="midnightblue" stroke="midnightblue" points="507.21,-104.59 514.71,-112.08 513.52,-101.55 507.21,-104.59"/>
</g>
<!-- Node7&#45;&gt;Node2 -->
<g id="edge8" class="edge">
<title>Node7&#45;&gt;Node2</title>
<path fill="none" stroke="midnightblue" d="M583.21,-54.87C510.81,-43.37 395.55,-25.06 339.6,-16.18"/>
<polygon fill="midnightblue" stroke="midnightblue" points="582.7,-58.33 593.13,-56.44 583.8,-51.42 582.7,-58.33"/>
</g>
<!-- Node8&#45;&gt;Node2 -->
<g id="edge10" class="edge">
<title>Node8&#45;&gt;Node2</title>
<path fill="none" stroke="midnightblue" d="M335.89,-48.14C328.57,-38.74 319.76,-27.4 313.81,-19.75"/>
<polygon fill="midnightblue" stroke="midnightblue" points="333.16,-50.34 342.06,-56.08 338.69,-46.04 333.16,-50.34"/>
</g>
<!-- Node9&#45;&gt;Node2 -->
<g id="edge12" class="edge">
<title>Node9&#45;&gt;Node2</title>
<path fill="none" stroke="midnightblue" d="M453.62,-53.57C418.53,-43.38 367.98,-28.7 336.33,-19.52"/>
<polygon fill="midnightblue" stroke="midnightblue" points="452.95,-57.02 463.53,-56.44 454.9,-50.29 452.95,-57.02"/>
</g>
<!-- Node10&#45;&gt;Node2 -->
<g id="edge18" class="edge">
<title>Node10&#45;&gt;Node2</title>
<path fill="none" stroke="midnightblue" d="M318.18,-107.61C305.52,-100.23 292.08,-89.75 285,-76 275.19,-56.93 290.05,-32.54 299.74,-19.74"/>
<polygon fill="midnightblue" stroke="midnightblue" points="316.69,-110.78 327.15,-112.43 320,-104.61 316.69,-110.78"/>
</g>
<!-- Node10&#45;&gt;Node7 -->
<g id="edge15" class="edge">
<title>Node10&#45;&gt;Node7</title>
<path fill="none" stroke="midnightblue" d="M405.23,-110.66C461.74,-100.46 547.12,-85.04 599.84,-75.52"/>
<polygon fill="midnightblue" stroke="midnightblue" points="404.6,-107.22 395.38,-112.44 405.84,-114.11 404.6,-107.22"/>
</g>
<!-- Node10&#45;&gt;Node8 -->
<g id="edge16" class="edge">
<title>Node10&#45;&gt;Node8</title>
<path fill="none" stroke="midnightblue" d="M348.36,-101.8C348.52,-92.91 348.71,-82.78 348.84,-75.75"/>
<polygon fill="midnightblue" stroke="midnightblue" points="344.85,-102.02 348.17,-112.08 351.85,-102.15 344.85,-102.02"/>
</g>
<!-- Node10&#45;&gt;Node9 -->
<g id="edge17" class="edge">
<title>Node10&#45;&gt;Node9</title>
<path fill="none" stroke="midnightblue" d="M380.48,-108.91C407.74,-98.75 445.99,-84.51 470.13,-75.52"/>
<polygon fill="midnightblue" stroke="midnightblue" points="379.13,-105.67 370.98,-112.44 381.57,-112.23 379.13,-105.67"/>
</g>
<!-- Node11&#45;&gt;Node2 -->
<g id="edge23" class="edge">
<title>Node11&#45;&gt;Node2</title>
<path fill="none" stroke="midnightblue" d="M290.92,-281.44C232.57,-270.27 152,-243.22 152,-179 152,-179 152,-179 152,-121 152,-61.6 228.63,-31.35 274.13,-18.62"/>
<polygon fill="midnightblue" stroke="midnightblue" points="290.34,-284.89 300.8,-283.22 291.58,-278 290.34,-284.89"/>
</g>
<!-- Node11&#45;&gt;Node4 -->
<g id="edge29" class="edge">
<title>Node11&#45;&gt;Node4</title>
<path fill="none" stroke="midnightblue" d="M386.17,-277.3C417.64,-267.13 462.49,-252.62 490.66,-243.52"/>
<polygon fill="midnightblue" stroke="midnightblue" points="384.9,-274.04 376.46,-280.44 387.05,-280.7 384.9,-274.04"/>
</g>
<!-- Node12 -->
<g id="node12" class="node">
<title>Node12</title>
<g id="a_node12"><a xlink:href="LSolver_8hpp.html" target="_top" xlink:title="Class used to manage Linear Solver objet.">
<polygon fill="none" stroke="black" points="311,-224.5 311,-243.5 389,-243.5 389,-224.5 311,-224.5"/>
<text text-anchor="middle" x="350" y="-231.5" font-family="serif" font-size="10.00">LSolver.hpp</text>
</a>
</g>
</g>
<!-- Node11&#45;&gt;Node12 -->
<g id="edge24" class="edge">
<title>Node11&#45;&gt;Node12</title>
<path fill="none" stroke="midnightblue" d="M350,-269.8C350,-260.91 350,-250.78 350,-243.75"/>
<polygon fill="midnightblue" stroke="midnightblue" points="346.5,-270.08 350,-280.08 353.5,-270.08 346.5,-270.08"/>
</g>
<!-- Node12&#45;&gt;Node2 -->
<g id="edge28" class="edge">
<title>Node12&#45;&gt;Node2</title>
<path fill="none" stroke="midnightblue" d="M327.41,-218.6C302.79,-201.41 264.8,-170.16 249,-132 242.23,-115.65 247.33,-72.41 256,-56 264.27,-40.34 280.36,-27.58 292.27,-19.7"/>
<polygon fill="midnightblue" stroke="midnightblue" points="325.57,-221.58 335.81,-224.28 329.49,-215.78 325.57,-221.58"/>
</g>
<!-- Node12&#45;&gt;Node5 -->
<g id="edge25" class="edge">
<title>Node12&#45;&gt;Node5</title>
<path fill="none" stroke="midnightblue" d="M364.73,-216.43C373.14,-206.97 383.35,-195.48 390.22,-187.75"/>
<polygon fill="midnightblue" stroke="midnightblue" points="361.95,-214.28 357.93,-224.08 367.19,-218.93 361.95,-214.28"/>
</g>
<!-- Node12&#45;&gt;Node6 -->
<g id="edge26" class="edge">
<title>Node12&#45;&gt;Node6</title>
<path fill="none" stroke="midnightblue" d="M392.17,-221.27C414.23,-213.9 440.95,-202.92 462,-188 484.53,-172.03 504.12,-145.44 513.36,-131.74"/>
<polygon fill="midnightblue" stroke="midnightblue" points="390.86,-218.02 382.41,-224.41 393,-224.69 390.86,-218.02"/>
</g>
<!-- Node12&#45;&gt;Node10 -->
<g id="edge27" class="edge">
<title>Node12&#45;&gt;Node10</title>
<path fill="none" stroke="midnightblue" d="M341.94,-214.83C338.79,-206.78 335.57,-197.09 334,-188 330.51,-167.75 338.64,-144.24 343.92,-131.79"/>
<polygon fill="midnightblue" stroke="midnightblue" points="338.81,-216.4 345.89,-224.28 345.26,-213.7 338.81,-216.4"/>
</g>
<!-- Node13&#45;&gt;Node2 -->
<g id="edge31" class="edge">
<title>Node13&#45;&gt;Node2</title>
<path fill="none" stroke="midnightblue" d="M81.69,-328.79C64.21,-308.53 38,-271.98 38,-235 38,-235 38,-235 38,-121 38,-84.55 57.1,-75.33 88,-56 146.41,-19.47 229.11,-11.96 274.33,-10.79"/>
<polygon fill="midnightblue" stroke="midnightblue" points="79.26,-331.33 88.55,-336.44 84.47,-326.66 79.26,-331.33"/>
</g>
<!-- Node13&#45;&gt;Node11 -->
<g id="edge32" class="edge">
<title>Node13&#45;&gt;Node11</title>
<path fill="none" stroke="midnightblue" d="M146.92,-334.35C194.73,-324.14 265.95,-308.94 310.1,-299.52"/>
<polygon fill="midnightblue" stroke="midnightblue" points="146.14,-330.93 137.09,-336.44 147.6,-337.78 146.14,-330.93"/>
</g>
<!-- Node14&#45;&gt;Node2 -->
<g id="edge34" class="edge">
<title>Node14&#45;&gt;Node2</title>
<path fill="none" stroke="midnightblue" d="M182.63,-333.39C138.33,-318.59 76,-288.29 76,-235 76,-235 76,-235 76,-121 76,-34.16 210.72,-15.8 274.39,-11.98"/>
<polygon fill="midnightblue" stroke="midnightblue" points="181.75,-336.78 192.34,-336.48 183.87,-330.11 181.75,-336.78"/>
</g>
<!-- Node14&#45;&gt;Node11 -->
<g id="edge35" class="edge">
<title>Node14&#45;&gt;Node11</title>
<path fill="none" stroke="midnightblue" d="M255.01,-332.37C278.23,-322.26 310.16,-308.35 330.44,-299.52"/>
<polygon fill="midnightblue" stroke="midnightblue" points="253.42,-329.24 245.65,-336.44 256.21,-335.66 253.42,-329.24"/>
</g>
<!-- Node15&#45;&gt;Node2 -->
<g id="edge37" class="edge">
<title>Node15&#45;&gt;Node2</title>
<path fill="none" stroke="midnightblue" d="M646.33,-334.22C722.09,-316.8 855,-279.85 855,-235 855,-235 855,-235 855,-121 855,-80.14 826.98,-73.37 790,-56 709.77,-18.31 434.92,-12.18 339.75,-11.19"/>
<polygon fill="midnightblue" stroke="midnightblue" points="645.47,-330.82 636.49,-336.44 647.01,-337.65 645.47,-330.82"/>
</g>
<!-- Node15&#45;&gt;Node4 -->
<g id="edge38" class="edge">
<title>Node15&#45;&gt;Node4</title>
<path fill="none" stroke="midnightblue" d="M582.92,-327.96C566.01,-304.12 535.94,-261.71 523.09,-243.59"/>
<polygon fill="midnightblue" stroke="midnightblue" points="580.24,-330.24 588.88,-336.37 585.95,-326.19 580.24,-330.24"/>
</g>
<!-- Node15&#45;&gt;Node11 -->
<g id="edge39" class="edge">
<title>Node15&#45;&gt;Node11</title>
<path fill="none" stroke="midnightblue" d="M546.37,-334.28C500.07,-324.08 431.31,-308.92 388.64,-299.52"/>
<polygon fill="midnightblue" stroke="midnightblue" points="545.66,-337.71 556.18,-336.44 547.17,-330.87 545.66,-337.71"/>
</g>
<!-- Node16&#45;&gt;Node2 -->
<g id="edge41" class="edge">
<title>Node16&#45;&gt;Node2</title>
<path fill="none" stroke="midnightblue" d="M521.14,-334.35C617.04,-313.28 817,-265.67 817,-235 817,-235 817,-235 817,-121 817,-82.28 793.51,-73.56 759,-56 685.55,-18.62 430.77,-12.28 339.69,-11.21"/>
<polygon fill="midnightblue" stroke="midnightblue" points="520.39,-330.93 511.37,-336.48 521.88,-337.77 520.39,-330.93"/>
</g>
<!-- Node16&#45;&gt;Node4 -->
<g id="edge42" class="edge">
<title>Node16&#45;&gt;Node4</title>
<path fill="none" stroke="midnightblue" d="M478.53,-327C488.56,-303 505.93,-261.47 513.41,-243.59"/>
<polygon fill="midnightblue" stroke="midnightblue" points="475.24,-325.79 474.61,-336.37 481.7,-328.49 475.24,-325.79"/>
</g>
<!-- Node16&#45;&gt;Node11 -->
<g id="edge43" class="edge">
<title>Node16&#45;&gt;Node11</title>
<path fill="none" stroke="midnightblue" d="M442.69,-332.37C420.03,-322.26 388.87,-308.35 369.08,-299.52"/>
<polygon fill="midnightblue" stroke="midnightblue" points="441.27,-335.56 451.83,-336.44 444.12,-329.17 441.27,-335.56"/>
</g>
<!-- Node17&#45;&gt;Node2 -->
<g id="edge45" class="edge">
<title>Node17&#45;&gt;Node2</title>
<path fill="none" stroke="midnightblue" d="M927.64,-272.04C913.72,-251.21 893,-214.3 893,-179 893,-179 893,-179 893,-121 893,-90.2 893.54,-74.6 869,-56 826.73,-23.96 453.16,-13.92 339.6,-11.59"/>
<polygon fill="midnightblue" stroke="midnightblue" points="924.88,-274.2 933.46,-280.41 930.63,-270.2 924.88,-274.2"/>
</g>
<!-- Node17&#45;&gt;Node4 -->
<g id="edge46" class="edge">
<title>Node17&#45;&gt;Node4</title>
<path fill="none" stroke="midnightblue" d="M873.31,-280.49C785.88,-269.33 634.94,-250.06 560.75,-240.58"/>
<polygon fill="midnightblue" stroke="midnightblue" points="873.03,-283.98 883.39,-281.77 873.91,-277.04 873.03,-283.98"/>
</g>
</g>
</svg>
