<?xml version="1.0" encoding="UTF-8" standalone="no"?>
<!DOCTYPE svg PUBLIC "-//W3C//DTD SVG 1.1//EN"
 "http://www.w3.org/Graphics/SVG/1.1/DTD/svg11.dtd">
<!-- Generated by graphviz version 2.43.0 (0)
 -->
<!-- Title: SolverBase.hpp Pages: 1 -->
<!--zoomable 319 -->
<svg id="main" version="1.1" xmlns="http://www.w3.org/2000/svg" xmlns:xlink="http://www.w3.org/1999/xlink" xml:space="preserve" onload="init(evt)">
<style type="text/css"><![CDATA[
.edge:hover path { stroke: red; }
.edge:hover polygon { stroke: red; fill: red; }
]]></style>
<script type="text/javascript"><![CDATA[
var edges = document.getElementsByTagName('g');
if (edges && edges.length) {
  for (var i=0;i<edges.length;i++) {
    if (edges[i].id.substr(0,4)=='edge') {
      edges[i].setAttribute('class','edge');
    }
  }
}
]]></script>
        <defs>
                <circle id="rim" cx="0" cy="0" r="7"/>
                <circle id="rim2" cx="0" cy="0" r="3.5"/>
                <g id="zoomPlus">
                        <use xlink:href="#rim" fill="#404040">
                                <set attributeName="fill" to="#808080" begin="zoomplus.mouseover" end="zoomplus.mouseout"/>
                        </use>
                        <path d="M-4,0h8M0,-4v8" fill="none" stroke="white" stroke-width="1.5" pointer-events="none"/>
                </g>
                <g id="zoomMin">
                        <use xlink:href="#rim" fill="#404040">
                                <set attributeName="fill" to="#808080" begin="zoomminus.mouseover" end="zoomminus.mouseout"/>
                        </use>
                        <path d="M-4,0h8" fill="none" stroke="white" stroke-width="1.5" pointer-events="none"/>
                </g>
                <g id="dirArrow">
                        <path fill="none" stroke="white" stroke-width="1.5" d="M0,-3.0v7 M-2.5,-0.5L0,-3.0L2.5,-0.5"/>
                </g>
               <g id="resetDef">
                       <use xlink:href="#rim2" fill="#404040">
                               <set attributeName="fill" to="#808080" begin="reset.mouseover" end="reset.mouseout"/>
                       </use>
               </g>
        </defs>

<script type="text/javascript">
var viewWidth = 2153;
var viewHeight = 319;
var sectionId = 'dynsection-0';
</script>
<script xlink:href="svgpan.js"/>
<svg id="graph" class="graph">
<g id="viewport">
<title>SolverBase.hpp</title>
<!-- Node1 -->
<g id="node1" class="node">
<title>Node1</title>
<g id="a_node1"><a xlink:title="Base class for Hypre, Iterative, Direct and Non Linear Solvers.">
<polygon fill="#bfbfbf" stroke="black" points="1835.5,-291.5 1835.5,-310.5 1932.5,-310.5 1932.5,-291.5 1835.5,-291.5"/>
<text text-anchor="middle" x="1884" y="-298.5" font-family="serif" font-size="10.00">SolverBase.hpp</text>
</a>
</g>
</g>
<!-- Node2 -->
<g id="node2" class="node">
<title>Node2</title>
<g id="a_node2"><a xlink:title=" ">
<polygon fill="none" stroke="#bfbfbf" points="2085.5,-0.5 2085.5,-19.5 2144.5,-19.5 2144.5,-0.5 2085.5,-0.5"/>
<text text-anchor="middle" x="2115" y="-7.5" font-family="serif" font-size="10.00">memory</text>
</a>
</g>
</g>
<!-- Node1&#45;&gt;Node2 -->
<g id="edge1" class="edge">
<title>Node1&#45;&gt;Node2</title>
<path fill="none" stroke="midnightblue" d="M1932.57,-297.72C2002.7,-291.53 2124,-268.66 2124,-184.5 2124,-184.5 2124,-184.5 2124,-121 2124,-88.84 2120.13,-51.57 2117.47,-29.71"/>
<polygon fill="midnightblue" stroke="midnightblue" points="2120.91,-29.02 2116.18,-19.54 2113.96,-29.9 2120.91,-29.02"/>
</g>
<!-- Node3 -->
<g id="node3" class="node">
<title>Node3</title>
<g id="a_node3"><a xlink:title=" ">
<polygon fill="none" stroke="#bfbfbf" points="676.5,-0.5 676.5,-19.5 723.5,-19.5 723.5,-0.5 676.5,-0.5"/>
<text text-anchor="middle" x="700" y="-7.5" font-family="serif" font-size="10.00">string</text>
</a>
</g>
</g>
<!-- Node1&#45;&gt;Node3 -->
<g id="edge2" class="edge">
<title>Node1&#45;&gt;Node3</title>
<path fill="none" stroke="midnightblue" d="M1835.06,-299.63C1538.98,-297.08 0,-279.28 0,-184.5 0,-184.5 0,-184.5 0,-121 0,-52.73 526.25,-20.15 666.18,-12.7"/>
<polygon fill="midnightblue" stroke="midnightblue" points="666.51,-16.18 676.31,-12.16 666.14,-9.19 666.51,-16.18"/>
</g>
<!-- Node4 -->
<g id="node4" class="node">
<title>Node4</title>
<g id="a_node4"><a xlink:href="Options_8hpp.html" target="_top" xlink:title="List of all Options files.">
<polygon fill="none" stroke="black" points="1028,-235.5 1028,-254.5 1150,-254.5 1150,-235.5 1028,-235.5"/>
<text text-anchor="middle" x="1089" y="-242.5" font-family="serif" font-size="10.00">Options/Options.hpp</text>
</a>
</g>
</g>
<!-- Node1&#45;&gt;Node4 -->
<g id="edge3" class="edge">
<title>Node1&#45;&gt;Node4</title>
<path fill="none" stroke="midnightblue" d="M1835.47,-296.7C1700.38,-287.53 1319.53,-261.66 1160.33,-250.85"/>
<polygon fill="midnightblue" stroke="midnightblue" points="1160.39,-247.34 1150.17,-250.16 1159.91,-254.32 1160.39,-247.34"/>
</g>
<!-- Node6 -->
<g id="node6" class="node">
<title>Node6</title>
<g id="a_node6"><a xlink:href="Utils_8hpp.html" target="_top" xlink:title="List of all Utils files.">
<polygon fill="none" stroke="black" points="1134.5,-112.5 1134.5,-131.5 1223.5,-131.5 1223.5,-112.5 1134.5,-112.5"/>
<text text-anchor="middle" x="1179" y="-119.5" font-family="serif" font-size="10.00">Utils/Utils.hpp</text>
</a>
</g>
</g>
<!-- Node1&#45;&gt;Node6 -->
<g id="edge78" class="edge">
<title>Node1&#45;&gt;Node6</title>
<path fill="none" stroke="midnightblue" d="M1885.9,-291.26C1890.52,-267.37 1899.5,-200.61 1864,-168 1818.02,-125.76 1388.3,-122.52 1233.91,-122.74"/>
<polygon fill="midnightblue" stroke="midnightblue" points="1233.7,-119.24 1223.71,-122.76 1233.72,-126.24 1233.7,-119.24"/>
</g>
<!-- Node19 -->
<g id="node19" class="node">
<title>Node19</title>
<g id="a_node19"><a xlink:title=" ">
<polygon fill="none" stroke="#bfbfbf" points="1884.5,-0.5 1884.5,-19.5 1953.5,-19.5 1953.5,-0.5 1884.5,-0.5"/>
<text text-anchor="middle" x="1919" y="-7.5" font-family="serif" font-size="10.00">mfem.hpp</text>
</a>
</g>
</g>
<!-- Node1&#45;&gt;Node19 -->
<g id="edge79" class="edge">
<title>Node1&#45;&gt;Node19</title>
<path fill="none" stroke="midnightblue" d="M1889.22,-291.4C1894.27,-282.61 1901.63,-268.38 1905,-255 1925.63,-173.19 1922.66,-71.26 1920.3,-29.83"/>
<polygon fill="midnightblue" stroke="midnightblue" points="1923.78,-29.36 1919.66,-19.6 1916.79,-29.8 1923.78,-29.36"/>
</g>
<!-- Node5 -->
<g id="node5" class="node">
<title>Node5</title>
<g id="a_node5"><a xlink:href="AnalyticalFunctionOptions_8hpp.html" target="_top" xlink:title="Options for Analytical functions.">
<polygon fill="none" stroke="black" points="558.5,-168.5 558.5,-198.5 713.5,-198.5 713.5,-168.5 558.5,-168.5"/>
<text text-anchor="start" x="566.5" y="-186.5" font-family="serif" font-size="10.00">Options/AnalyticalFunction</text>
<text text-anchor="middle" x="636" y="-175.5" font-family="serif" font-size="10.00">Options.hpp</text>
</a>
</g>
</g>
<!-- Node4&#45;&gt;Node5 -->
<g id="edge4" class="edge">
<title>Node4&#45;&gt;Node5</title>
<path fill="none" stroke="midnightblue" d="M1027.85,-237.35C957.05,-229.47 836.67,-215.47 723.97,-199.25"/>
<polygon fill="midnightblue" stroke="midnightblue" points="724.19,-195.75 713.79,-197.78 723.19,-202.67 724.19,-195.75"/>
</g>
<!-- Node4&#45;&gt;Node6 -->
<g id="edge77" class="edge">
<title>Node4&#45;&gt;Node6</title>
<path fill="none" stroke="midnightblue" d="M1150.05,-240.57C1246.19,-234.54 1423.98,-220.59 1443,-199 1452.11,-188.66 1451.89,-178.53 1443,-168 1416.79,-136.95 1303.32,-127.32 1233.95,-124.34"/>
<polygon fill="midnightblue" stroke="midnightblue" points="1233.76,-120.83 1223.63,-123.93 1233.48,-127.82 1233.76,-120.83"/>
</g>
<!-- Node29 -->
<g id="node29" class="node">
<title>Node29</title>
<g id="a_node29"><a xlink:href="CalphadOptions_8hpp.html" target="_top" xlink:title="Options for Calphad problems.">
<polygon fill="none" stroke="black" points="731.5,-174 731.5,-193 896.5,-193 896.5,-174 731.5,-174"/>
<text text-anchor="middle" x="814" y="-181" font-family="serif" font-size="10.00">Options/CalphadOptions.hpp</text>
</a>
</g>
</g>
<!-- Node4&#45;&gt;Node29 -->
<g id="edge52" class="edge">
<title>Node4&#45;&gt;Node29</title>
<path fill="none" stroke="midnightblue" d="M1049.6,-235.48C1000.49,-224.85 916.53,-206.68 863.23,-195.15"/>
<polygon fill="midnightblue" stroke="midnightblue" points="863.84,-191.7 853.33,-193.01 862.36,-198.54 863.84,-191.7"/>
</g>
<!-- Node30 -->
<g id="node30" class="node">
<title>Node30</title>
<g id="a_node30"><a xlink:href="DiffusionOptions_8hpp.html" target="_top" xlink:title="Option for Mass Diffusion problems.">
<polygon fill="none" stroke="black" points="1490,-174 1490,-193 1658,-193 1658,-174 1490,-174"/>
<text text-anchor="middle" x="1574" y="-181" font-family="serif" font-size="10.00">Options/DiffusionOptions.hpp</text>
</a>
</g>
</g>
<!-- Node4&#45;&gt;Node30 -->
<g id="edge57" class="edge">
<title>Node4&#45;&gt;Node30</title>
<path fill="none" stroke="midnightblue" d="M1150.07,-237.49C1226.4,-229.22 1361,-214.19 1476,-199 1486.57,-197.6 1497.78,-196.03 1508.68,-194.45"/>
<polygon fill="midnightblue" stroke="midnightblue" points="1509.2,-197.92 1518.59,-193.01 1508.19,-190.99 1509.2,-197.92"/>
</g>
<!-- Node31 -->
<g id="node31" class="node">
<title>Node31</title>
<g id="a_node31"><a xlink:href="PhaseFieldOptions_8hpp.html" target="_top" xlink:title="Options for PhaseField problems.">
<polygon fill="none" stroke="black" points="1676.5,-174 1676.5,-193 1855.5,-193 1855.5,-174 1676.5,-174"/>
<text text-anchor="middle" x="1766" y="-181" font-family="serif" font-size="10.00">Options/PhaseFieldOptions.hpp</text>
</a>
</g>
</g>
<!-- Node4&#45;&gt;Node31 -->
<g id="edge59" class="edge">
<title>Node4&#45;&gt;Node31</title>
<path fill="none" stroke="midnightblue" d="M1150.3,-240.6C1255.98,-234.42 1479.2,-220.04 1667,-199 1678.42,-197.72 1690.54,-196.14 1702.24,-194.49"/>
<polygon fill="midnightblue" stroke="midnightblue" points="1702.99,-197.92 1712.39,-193.03 1702,-190.99 1702.99,-197.92"/>
</g>
<!-- Node32 -->
<g id="node32" class="node">
<title>Node32</title>
<g id="a_node32"><a xlink:href="PhysicalConvergenceOptions_8hpp.html" target="_top" xlink:title="Options for PhysicalConvergence objects.">
<polygon fill="none" stroke="black" points="914.5,-168.5 914.5,-198.5 1083.5,-198.5 1083.5,-168.5 914.5,-168.5"/>
<text text-anchor="start" x="922.5" y="-186.5" font-family="serif" font-size="10.00">Options/PhysicalConvergence</text>
<text text-anchor="middle" x="999" y="-175.5" font-family="serif" font-size="10.00">Options.hpp</text>
</a>
</g>
</g>
<!-- Node4&#45;&gt;Node32 -->
<g id="edge61" class="edge">
<title>Node4&#45;&gt;Node32</title>
<path fill="none" stroke="midnightblue" d="M1076.11,-235.48C1063.8,-227.34 1044.82,-214.79 1028.77,-204.18"/>
<polygon fill="midnightblue" stroke="midnightblue" points="1030.48,-201.12 1020.21,-198.52 1026.62,-206.96 1030.48,-201.12"/>
</g>
<!-- Node33 -->
<g id="node33" class="node">
<title>Node33</title>
<g id="a_node33"><a xlink:href="PhysicalPropertiesOptions_8hpp.html" target="_top" xlink:title="Options for physical properties.">
<polygon fill="none" stroke="black" points="1102,-168.5 1102,-198.5 1256,-198.5 1256,-168.5 1102,-168.5"/>
<text text-anchor="start" x="1110" y="-186.5" font-family="serif" font-size="10.00">Options/PhysicalProperties</text>
<text text-anchor="middle" x="1179" y="-175.5" font-family="serif" font-size="10.00">Options.hpp</text>
</a>
</g>
</g>
<!-- Node4&#45;&gt;Node33 -->
<g id="edge64" class="edge">
<title>Node4&#45;&gt;Node33</title>
<path fill="none" stroke="midnightblue" d="M1101.89,-235.48C1114.2,-227.34 1133.18,-214.79 1149.23,-204.18"/>
<polygon fill="midnightblue" stroke="midnightblue" points="1151.38,-206.96 1157.79,-198.52 1147.52,-201.12 1151.38,-206.96"/>
</g>
<!-- Node34 -->
<g id="node34" class="node">
<title>Node34</title>
<g id="a_node34"><a xlink:href="ProblemsOptions_8hpp.html" target="_top" xlink:title="Options for Problem objects.">
<polygon fill="none" stroke="black" points="370,-174 370,-193 540,-193 540,-174 370,-174"/>
<text text-anchor="middle" x="455" y="-181" font-family="serif" font-size="10.00">Options/ProblemsOptions.hpp</text>
</a>
</g>
</g>
<!-- Node4&#45;&gt;Node34 -->
<g id="edge66" class="edge">
<title>Node4&#45;&gt;Node34</title>
<path fill="none" stroke="midnightblue" d="M1027.72,-240.29C927.42,-233.91 722.06,-219.53 549,-199 538.33,-197.73 527.01,-196.17 516.06,-194.55"/>
<polygon fill="midnightblue" stroke="midnightblue" points="516.55,-191.09 506.14,-193.05 515.5,-198.01 516.55,-191.09"/>
</g>
<!-- Node35 -->
<g id="node35" class="node">
<title>Node35</title>
<g id="a_node35"><a xlink:href="SolversOptions_8hpp.html" target="_top" xlink:title="Options for solvers and preconditioners.">
<polygon fill="none" stroke="black" points="1274,-174 1274,-193 1434,-193 1434,-174 1274,-174"/>
<text text-anchor="middle" x="1354" y="-181" font-family="serif" font-size="10.00">Options/SolversOptions.hpp</text>
</a>
</g>
</g>
<!-- Node4&#45;&gt;Node35 -->
<g id="edge69" class="edge">
<title>Node4&#45;&gt;Node35</title>
<path fill="none" stroke="midnightblue" d="M1126.97,-235.48C1174.2,-224.87 1254.86,-206.76 1306.24,-195.22"/>
<polygon fill="midnightblue" stroke="midnightblue" points="1307.11,-198.61 1316.1,-193.01 1305.58,-191.78 1307.11,-198.61"/>
</g>
<!-- Node36 -->
<g id="node36" class="node">
<title>Node36</title>
<g id="a_node36"><a xlink:href="SpatialOptions_8hpp.html" target="_top" xlink:title="Options for Spatial discretization.">
<polygon fill="none" stroke="black" points="28,-174 28,-193 186,-193 186,-174 28,-174"/>
<text text-anchor="middle" x="107" y="-181" font-family="serif" font-size="10.00">Options/SpatialOptions.hpp</text>
</a>
</g>
</g>
<!-- Node4&#45;&gt;Node36 -->
<g id="edge71" class="edge">
<title>Node4&#45;&gt;Node36</title>
<path fill="none" stroke="midnightblue" d="M1027.84,-243.3C882.84,-241.12 506.94,-232.44 195,-199 184.5,-197.87 173.35,-196.32 162.64,-194.64"/>
<polygon fill="midnightblue" stroke="midnightblue" points="162.97,-191.15 152.54,-193.01 161.85,-198.06 162.97,-191.15"/>
</g>
<!-- Node37 -->
<g id="node37" class="node">
<title>Node37</title>
<g id="a_node37"><a xlink:href="TimeOptions_8hpp.html" target="_top" xlink:title="Options for Time discretization.">
<polygon fill="none" stroke="black" points="204,-174 204,-193 352,-193 352,-174 204,-174"/>
<text text-anchor="middle" x="278" y="-181" font-family="serif" font-size="10.00">Options/TimeOptions.hpp</text>
</a>
</g>
</g>
<!-- Node4&#45;&gt;Node37 -->
<g id="edge74" class="edge">
<title>Node4&#45;&gt;Node37</title>
<path fill="none" stroke="midnightblue" d="M1027.92,-242.52C902.53,-238.97 607.17,-228.02 361,-199 351.4,-197.87 341.23,-196.36 331.43,-194.73"/>
<polygon fill="midnightblue" stroke="midnightblue" points="331.82,-191.25 321.37,-193.02 330.64,-198.15 331.82,-191.25"/>
</g>
<!-- Node5&#45;&gt;Node3 -->
<g id="edge5" class="edge">
<title>Node5&#45;&gt;Node3</title>
<path fill="none" stroke="midnightblue" d="M641.24,-168.47C652.77,-137.57 680.34,-63.69 693.19,-29.25"/>
<polygon fill="midnightblue" stroke="midnightblue" points="696.59,-30.15 696.81,-19.56 690.03,-27.7 696.59,-30.15"/>
</g>
<!-- Node5&#45;&gt;Node6 -->
<g id="edge6" class="edge">
<title>Node5&#45;&gt;Node6</title>
<path fill="none" stroke="midnightblue" d="M713.78,-169.14C716.55,-168.74 719.3,-168.36 722,-168 866.85,-148.68 1038.56,-133.96 1124.41,-127.15"/>
<polygon fill="midnightblue" stroke="midnightblue" points="1124.75,-130.64 1134.45,-126.36 1124.2,-123.66 1124.75,-130.64"/>
</g>
<!-- Node7 -->
<g id="node7" class="node">
<title>Node7</title>
<g id="a_node7"><a xlink:href="UtilsForData_8hpp.html" target="_top" xlink:title="Usefull methods for data.">
<polygon fill="none" stroke="black" points="1208.5,-56.5 1208.5,-75.5 1339.5,-75.5 1339.5,-56.5 1208.5,-56.5"/>
<text text-anchor="middle" x="1274" y="-63.5" font-family="serif" font-size="10.00">Utils/UtilsForData.hpp</text>
</a>
</g>
</g>
<!-- Node6&#45;&gt;Node7 -->
<g id="edge7" class="edge">
<title>Node6&#45;&gt;Node7</title>
<path fill="none" stroke="midnightblue" d="M1194.26,-112.32C1209.22,-103.82 1232.25,-90.73 1249.73,-80.8"/>
<polygon fill="midnightblue" stroke="midnightblue" points="1251.81,-83.64 1258.77,-75.65 1248.35,-77.55 1251.81,-83.64"/>
</g>
<!-- Node20 -->
<g id="node20" class="node">
<title>Node20</title>
<g id="a_node20"><a xlink:href="UtilsForDebug_8hpp.html" target="_top" xlink:title="Usefull methods for debug.">
<polygon fill="none" stroke="black" points="1439.5,-56.5 1439.5,-75.5 1580.5,-75.5 1580.5,-56.5 1439.5,-56.5"/>
<text text-anchor="middle" x="1510" y="-63.5" font-family="serif" font-size="10.00">Utils/UtilsForDebug.hpp</text>
</a>
</g>
</g>
<!-- Node6&#45;&gt;Node20 -->
<g id="edge21" class="edge">
<title>Node6&#45;&gt;Node20</title>
<path fill="none" stroke="midnightblue" d="M1223.64,-113.72C1281.34,-104.3 1382.15,-87.86 1447.46,-77.2"/>
<polygon fill="midnightblue" stroke="midnightblue" points="1448.32,-80.61 1457.63,-75.54 1447.19,-73.7 1448.32,-80.61"/>
</g>
<!-- Node23 -->
<g id="node23" class="node">
<title>Node23</title>
<g id="a_node23"><a xlink:href="UtilsForOptions_8hpp.html" target="_top" xlink:title="Usefull methods for Options.">
<polygon fill="none" stroke="black" points="1044,-56.5 1044,-75.5 1190,-75.5 1190,-56.5 1044,-56.5"/>
<text text-anchor="middle" x="1117" y="-63.5" font-family="serif" font-size="10.00">Utils/UtilsForOptions.hpp</text>
</a>
</g>
</g>
<!-- Node6&#45;&gt;Node23 -->
<g id="edge31" class="edge">
<title>Node6&#45;&gt;Node23</title>
<path fill="none" stroke="midnightblue" d="M1169.04,-112.32C1159.87,-104.34 1146.06,-92.31 1134.97,-82.65"/>
<polygon fill="midnightblue" stroke="midnightblue" points="1136.98,-79.76 1127.14,-75.83 1132.38,-85.04 1136.98,-79.76"/>
</g>
<!-- Node26 -->
<g id="node26" class="node">
<title>Node26</title>
<g id="a_node26"><a xlink:href="UtilsForPostProcessing_8hpp.html" target="_top" xlink:title="Usefull methods for post&#45;processing.">
<polygon fill="none" stroke="black" points="842.5,-56.5 842.5,-75.5 1025.5,-75.5 1025.5,-56.5 842.5,-56.5"/>
<text text-anchor="middle" x="934" y="-63.5" font-family="serif" font-size="10.00">Utils/UtilsForPostProcessing.hpp</text>
</a>
</g>
</g>
<!-- Node6&#45;&gt;Node26 -->
<g id="edge41" class="edge">
<title>Node6&#45;&gt;Node26</title>
<path fill="none" stroke="midnightblue" d="M1140.18,-112.44C1097.44,-103.02 1028.67,-87.87 982.43,-77.68"/>
<polygon fill="midnightblue" stroke="midnightblue" points="983.16,-74.25 972.64,-75.52 981.65,-81.09 983.16,-74.25"/>
</g>
<!-- Node27 -->
<g id="node27" class="node">
<title>Node27</title>
<g id="a_node27"><a xlink:href="UtilsForVariants_8hpp.html" target="_top" xlink:title="manage std::Variants">
<polygon fill="none" stroke="black" points="1948,-56.5 1948,-75.5 2096,-75.5 2096,-56.5 1948,-56.5"/>
<text text-anchor="middle" x="2022" y="-63.5" font-family="serif" font-size="10.00">Utils/UtilsForVariants.hpp</text>
</a>
</g>
</g>
<!-- Node6&#45;&gt;Node27 -->
<g id="edge48" class="edge">
<title>Node6&#45;&gt;Node27</title>
<path fill="none" stroke="midnightblue" d="M1223.73,-118.13C1358.38,-109.51 1761.46,-83.69 1937.82,-72.39"/>
<polygon fill="midnightblue" stroke="midnightblue" points="1938.08,-75.88 1947.83,-71.75 1937.63,-68.9 1938.08,-75.88"/>
</g>
<!-- Node7&#45;&gt;Node3 -->
<g id="edge16" class="edge">
<title>Node7&#45;&gt;Node3</title>
<path fill="none" stroke="midnightblue" d="M1208.17,-56.96C1205.07,-56.63 1202,-56.3 1199,-56 1005.99,-36.44 956.8,-41.52 764,-20 754.17,-18.9 743.53,-17.5 733.79,-16.12"/>
<polygon fill="midnightblue" stroke="midnightblue" points="734.06,-12.62 723.67,-14.66 733.06,-19.55 734.06,-12.62"/>
</g>
<!-- Node8 -->
<g id="node8" class="node">
<title>Node8</title>
<g id="a_node8"><a xlink:title=" ">
<polygon fill="none" stroke="#bfbfbf" points="1624.5,-0.5 1624.5,-19.5 1683.5,-19.5 1683.5,-0.5 1624.5,-0.5"/>
<text text-anchor="middle" x="1654" y="-7.5" font-family="serif" font-size="10.00">unistd.h</text>
</a>
</g>
</g>
<!-- Node7&#45;&gt;Node8 -->
<g id="edge8" class="edge">
<title>Node7&#45;&gt;Node8</title>
<path fill="none" stroke="midnightblue" d="M1339.66,-58.22C1406.32,-50.91 1512.68,-38.08 1614.13,-20"/>
<polygon fill="midnightblue" stroke="midnightblue" points="1615.03,-23.39 1624.25,-18.17 1613.79,-16.5 1615.03,-23.39"/>
</g>
<!-- Node9 -->
<g id="node9" class="node">
<title>Node9</title>
<g id="a_node9"><a xlink:title=" ">
<polygon fill="none" stroke="#bfbfbf" points="1334,-0.5 1334,-19.5 1384,-19.5 1384,-0.5 1334,-0.5"/>
<text text-anchor="middle" x="1359" y="-7.5" font-family="serif" font-size="10.00">cctype</text>
</a>
</g>
</g>
<!-- Node7&#45;&gt;Node9 -->
<g id="edge9" class="edge">
<title>Node7&#45;&gt;Node9</title>
<path fill="none" stroke="midnightblue" d="M1287.66,-56.32C1300.92,-47.9 1321.27,-34.97 1336.85,-25.07"/>
<polygon fill="midnightblue" stroke="midnightblue" points="1338.81,-27.97 1345.38,-19.65 1335.06,-22.06 1338.81,-27.97"/>
</g>
<!-- Node10 -->
<g id="node10" class="node">
<title>Node10</title>
<g id="a_node10"><a xlink:title=" ">
<polygon fill="none" stroke="#bfbfbf" points="1559.5,-0.5 1559.5,-19.5 1606.5,-19.5 1606.5,-0.5 1559.5,-0.5"/>
<text text-anchor="middle" x="1583" y="-7.5" font-family="serif" font-size="10.00">cstdio</text>
</a>
</g>
</g>
<!-- Node7&#45;&gt;Node10 -->
<g id="edge10" class="edge">
<title>Node7&#45;&gt;Node10</title>
<path fill="none" stroke="midnightblue" d="M1338.22,-56.47C1392.08,-48.88 1471.19,-36.69 1549.27,-19.96"/>
<polygon fill="midnightblue" stroke="midnightblue" points="1550.25,-23.33 1559.28,-17.79 1548.77,-16.49 1550.25,-23.33"/>
</g>
<!-- Node11 -->
<g id="node11" class="node">
<title>Node11</title>
<g id="a_node11"><a xlink:title=" ">
<polygon fill="none" stroke="#bfbfbf" points="901,-0.5 901,-19.5 967,-19.5 967,-0.5 901,-0.5"/>
<text text-anchor="middle" x="934" y="-7.5" font-family="serif" font-size="10.00">algorithm</text>
</a>
</g>
</g>
<!-- Node7&#45;&gt;Node11 -->
<g id="edge11" class="edge">
<title>Node7&#45;&gt;Node11</title>
<path fill="none" stroke="midnightblue" d="M1209.87,-56.47C1151.64,-48.47 1063.16,-35.65 977.34,-20.16"/>
<polygon fill="midnightblue" stroke="midnightblue" points="977.9,-16.7 967.43,-18.36 976.65,-23.59 977.9,-16.7"/>
</g>
<!-- Node12 -->
<g id="node12" class="node">
<title>Node12</title>
<g id="a_node12"><a xlink:title=" ">
<polygon fill="none" stroke="#bfbfbf" points="1190,-0.5 1190,-19.5 1258,-19.5 1258,-0.5 1190,-0.5"/>
<text text-anchor="middle" x="1224" y="-7.5" font-family="serif" font-size="10.00">filesystem</text>
</a>
</g>
</g>
<!-- Node7&#45;&gt;Node12 -->
<g id="edge12" class="edge">
<title>Node7&#45;&gt;Node12</title>
<path fill="none" stroke="midnightblue" d="M1265.74,-56.08C1258.54,-48.3 1247.89,-36.8 1239.15,-27.37"/>
<polygon fill="midnightblue" stroke="midnightblue" points="1241.47,-24.71 1232.1,-19.75 1236.33,-29.47 1241.47,-24.71"/>
</g>
<!-- Node13 -->
<g id="node13" class="node">
<title>Node13</title>
<g id="a_node13"><a xlink:title=" ">
<polygon fill="none" stroke="#bfbfbf" points="1402,-0.5 1402,-19.5 1470,-19.5 1470,-0.5 1402,-0.5"/>
<text text-anchor="middle" x="1436" y="-7.5" font-family="serif" font-size="10.00">functional</text>
</a>
</g>
</g>
<!-- Node7&#45;&gt;Node13 -->
<g id="edge13" class="edge">
<title>Node7&#45;&gt;Node13</title>
<path fill="none" stroke="midnightblue" d="M1299.67,-56.44C1326.92,-47.36 1370.18,-32.94 1400.65,-22.78"/>
<polygon fill="midnightblue" stroke="midnightblue" points="1402.07,-26 1410.45,-19.52 1399.86,-19.36 1402.07,-26"/>
</g>
<!-- Node14 -->
<g id="node14" class="node">
<title>Node14</title>
<g id="a_node14"><a xlink:title=" ">
<polygon fill="none" stroke="#bfbfbf" points="1049.5,-0.5 1049.5,-19.5 1110.5,-19.5 1110.5,-0.5 1049.5,-0.5"/>
<text text-anchor="middle" x="1080" y="-7.5" font-family="serif" font-size="10.00">iostream</text>
</a>
</g>
</g>
<!-- Node7&#45;&gt;Node14 -->
<g id="edge14" class="edge">
<title>Node7&#45;&gt;Node14</title>
<path fill="none" stroke="midnightblue" d="M1243.26,-56.44C1210.06,-47.2 1157.01,-32.44 1120.44,-22.26"/>
<polygon fill="midnightblue" stroke="midnightblue" points="1121.17,-18.83 1110.6,-19.52 1119.29,-25.57 1121.17,-18.83"/>
</g>
<!-- Node15 -->
<g id="node15" class="node">
<title>Node15</title>
<g id="a_node15"><a xlink:title=" ">
<polygon fill="none" stroke="#bfbfbf" points="1276.5,-0.5 1276.5,-19.5 1315.5,-19.5 1315.5,-0.5 1276.5,-0.5"/>
<text text-anchor="middle" x="1296" y="-7.5" font-family="serif" font-size="10.00">map</text>
</a>
</g>
</g>
<!-- Node7&#45;&gt;Node15 -->
<g id="edge15" class="edge">
<title>Node7&#45;&gt;Node15</title>
<path fill="none" stroke="midnightblue" d="M1277.63,-56.08C1280.61,-48.77 1284.93,-38.18 1288.62,-29.1"/>
<polygon fill="midnightblue" stroke="midnightblue" points="1291.9,-30.33 1292.43,-19.75 1285.42,-27.69 1291.9,-30.33"/>
</g>
<!-- Node16 -->
<g id="node16" class="node">
<title>Node16</title>
<g id="a_node16"><a xlink:title=" ">
<polygon fill="none" stroke="#bfbfbf" points="1128.5,-0.5 1128.5,-19.5 1171.5,-19.5 1171.5,-0.5 1128.5,-0.5"/>
<text text-anchor="middle" x="1150" y="-7.5" font-family="serif" font-size="10.00">tuple</text>
</a>
</g>
</g>
<!-- Node7&#45;&gt;Node16 -->
<g id="edge17" class="edge">
<title>Node7&#45;&gt;Node16</title>
<path fill="none" stroke="midnightblue" d="M1254.35,-56.44C1234.04,-47.6 1202.1,-33.69 1178.9,-23.59"/>
<polygon fill="midnightblue" stroke="midnightblue" points="1180.12,-20.3 1169.56,-19.52 1177.33,-26.72 1180.12,-20.3"/>
</g>
<!-- Node17 -->
<g id="node17" class="node">
<title>Node17</title>
<g id="a_node17"><a xlink:title=" ">
<polygon fill="none" stroke="#bfbfbf" points="985,-0.5 985,-19.5 1031,-19.5 1031,-0.5 985,-0.5"/>
<text text-anchor="middle" x="1008" y="-7.5" font-family="serif" font-size="10.00">utility</text>
</a>
</g>
</g>
<!-- Node7&#45;&gt;Node17 -->
<g id="edge18" class="edge">
<title>Node7&#45;&gt;Node17</title>
<path fill="none" stroke="midnightblue" d="M1223.07,-56.48C1177.72,-48.61 1109.38,-36.04 1041.09,-20.1"/>
<polygon fill="midnightblue" stroke="midnightblue" points="1041.55,-16.61 1031.01,-17.72 1039.94,-23.42 1041.55,-16.61"/>
</g>
<!-- Node18 -->
<g id="node18" class="node">
<title>Node18</title>
<g id="a_node18"><a xlink:title=" ">
<polygon fill="none" stroke="#bfbfbf" points="835,-0.5 835,-19.5 883,-19.5 883,-0.5 835,-0.5"/>
<text text-anchor="middle" x="859" y="-7.5" font-family="serif" font-size="10.00">vector</text>
</a>
</g>
</g>
<!-- Node7&#45;&gt;Node18 -->
<g id="edge19" class="edge">
<title>Node7&#45;&gt;Node18</title>
<path fill="none" stroke="midnightblue" d="M1208.15,-57.09C1205.06,-56.72 1202,-56.36 1199,-56 1065.77,-40.2 1028.6,-45.86 892.99,-19.93"/>
<polygon fill="midnightblue" stroke="midnightblue" points="893.54,-16.47 883.05,-18.01 892.21,-23.34 893.54,-16.47"/>
</g>
<!-- Node7&#45;&gt;Node19 -->
<g id="edge20" class="edge">
<title>Node7&#45;&gt;Node19</title>
<path fill="none" stroke="midnightblue" d="M1339.55,-61.15C1469.28,-53.36 1755.68,-35.28 1874.22,-19.88"/>
<polygon fill="midnightblue" stroke="midnightblue" points="1875.04,-23.3 1884.48,-18.49 1874.11,-16.36 1875.04,-23.3"/>
</g>
<!-- Node20&#45;&gt;Node3 -->
<g id="edge28" class="edge">
<title>Node20&#45;&gt;Node3</title>
<path fill="none" stroke="midnightblue" d="M1439.27,-61.06C1266.06,-51.35 829.96,-26.62 764,-20 754.16,-19.01 743.51,-17.64 733.78,-16.26"/>
<polygon fill="midnightblue" stroke="midnightblue" points="734.05,-12.76 723.65,-14.78 733.04,-19.69 734.05,-12.76"/>
</g>
<!-- Node20&#45;&gt;Node8 -->
<g id="edge23" class="edge">
<title>Node20&#45;&gt;Node8</title>
<path fill="none" stroke="midnightblue" d="M1532.82,-56.44C1556.83,-47.44 1594.83,-33.19 1621.87,-23.05"/>
<polygon fill="midnightblue" stroke="midnightblue" points="1623.16,-26.3 1631.29,-19.52 1620.7,-19.75 1623.16,-26.3"/>
</g>
<!-- Node20&#45;&gt;Node10 -->
<g id="edge24" class="edge">
<title>Node20&#45;&gt;Node10</title>
<path fill="none" stroke="midnightblue" d="M1521.73,-56.32C1532.84,-48.11 1549.74,-35.6 1562.98,-25.81"/>
<polygon fill="midnightblue" stroke="midnightblue" points="1565.1,-28.59 1571.06,-19.83 1560.94,-22.97 1565.1,-28.59"/>
</g>
<!-- Node20&#45;&gt;Node13 -->
<g id="edge26" class="edge">
<title>Node20&#45;&gt;Node13</title>
<path fill="none" stroke="midnightblue" d="M1498.11,-56.32C1486.85,-48.11 1469.71,-35.6 1456.29,-25.81"/>
<polygon fill="midnightblue" stroke="midnightblue" points="1458.25,-22.9 1448.11,-19.83 1454.12,-28.56 1458.25,-22.9"/>
</g>
<!-- Node20&#45;&gt;Node14 -->
<g id="edge27" class="edge">
<title>Node20&#45;&gt;Node14</title>
<path fill="none" stroke="midnightblue" d="M1439.38,-59.28C1363.04,-52.55 1237.63,-39.92 1120.78,-20.15"/>
<polygon fill="midnightblue" stroke="midnightblue" points="1121.04,-16.64 1110.59,-18.4 1119.86,-23.54 1121.04,-16.64"/>
</g>
<!-- Node20&#45;&gt;Node17 -->
<g id="edge29" class="edge">
<title>Node20&#45;&gt;Node17</title>
<path fill="none" stroke="midnightblue" d="M1439.25,-59.79C1331.63,-51.6 1130.69,-35.26 1041.38,-19.89"/>
<polygon fill="midnightblue" stroke="midnightblue" points="1041.77,-16.41 1031.3,-18.07 1040.52,-23.3 1041.77,-16.41"/>
</g>
<!-- Node20&#45;&gt;Node19 -->
<g id="edge30" class="edge">
<title>Node20&#45;&gt;Node19</title>
<path fill="none" stroke="midnightblue" d="M1580.55,-57.98C1652.01,-50.48 1765.93,-37.5 1874.33,-19.99"/>
<polygon fill="midnightblue" stroke="midnightblue" points="1875.15,-23.4 1884.46,-18.33 1874.03,-16.49 1875.15,-23.4"/>
</g>
<!-- Node21 -->
<g id="node21" class="node">
<title>Node21</title>
<g id="a_node21"><a xlink:title=" ">
<polygon fill="none" stroke="#bfbfbf" points="1702,-0.5 1702,-19.5 1792,-19.5 1792,-0.5 1702,-0.5"/>
<text text-anchor="middle" x="1747" y="-7.5" font-family="serif" font-size="10.00">sys/resource.h</text>
</a>
</g>
</g>
<!-- Node20&#45;&gt;Node21 -->
<g id="edge22" class="edge">
<title>Node20&#45;&gt;Node21</title>
<path fill="none" stroke="midnightblue" d="M1547.55,-56.44C1588.81,-47.04 1655.14,-31.93 1699.87,-21.74"/>
<polygon fill="midnightblue" stroke="midnightblue" points="1700.65,-25.15 1709.62,-19.52 1699.09,-18.33 1700.65,-25.15"/>
</g>
<!-- Node22 -->
<g id="node22" class="node">
<title>Node22</title>
<g id="a_node22"><a xlink:title=" ">
<polygon fill="none" stroke="#bfbfbf" points="1810,-0.5 1810,-19.5 1866,-19.5 1866,-0.5 1810,-0.5"/>
<text text-anchor="middle" x="1838" y="-7.5" font-family="serif" font-size="10.00">fstream</text>
</a>
</g>
</g>
<!-- Node20&#45;&gt;Node22 -->
<g id="edge25" class="edge">
<title>Node20&#45;&gt;Node22</title>
<path fill="none" stroke="midnightblue" d="M1575.58,-56.49C1632.49,-48.72 1717.27,-36.28 1799.96,-20.07"/>
<polygon fill="midnightblue" stroke="midnightblue" points="1800.64,-23.5 1809.77,-18.13 1799.28,-16.64 1800.64,-23.5"/>
</g>
<!-- Node23&#45;&gt;Node3 -->
<g id="edge36" class="edge">
<title>Node23&#45;&gt;Node3</title>
<path fill="none" stroke="midnightblue" d="M1047.97,-56.47C976.79,-47.61 862.59,-33.21 764,-20 754.2,-18.69 743.56,-17.21 733.83,-15.84"/>
<polygon fill="midnightblue" stroke="midnightblue" points="734.09,-12.34 723.7,-14.41 733.11,-19.27 734.09,-12.34"/>
</g>
<!-- Node23&#45;&gt;Node11 -->
<g id="edge32" class="edge">
<title>Node23&#45;&gt;Node11</title>
<path fill="none" stroke="midnightblue" d="M1088,-56.44C1056.82,-47.24 1007.07,-32.56 972.59,-22.39"/>
<polygon fill="midnightblue" stroke="midnightblue" points="973.44,-18.99 962.86,-19.52 971.46,-25.7 973.44,-18.99"/>
</g>
<!-- Node23&#45;&gt;Node13 -->
<g id="edge33" class="edge">
<title>Node23&#45;&gt;Node13</title>
<path fill="none" stroke="midnightblue" d="M1173.95,-56.48C1227.67,-48.26 1310.67,-35.13 1391.87,-20.15"/>
<polygon fill="midnightblue" stroke="midnightblue" points="1392.57,-23.58 1401.76,-18.31 1391.29,-16.69 1392.57,-23.58"/>
</g>
<!-- Node23&#45;&gt;Node14 -->
<g id="edge34" class="edge">
<title>Node23&#45;&gt;Node14</title>
<path fill="none" stroke="midnightblue" d="M1110.89,-56.08C1105.72,-48.53 1098.15,-37.49 1091.81,-28.23"/>
<polygon fill="midnightblue" stroke="midnightblue" points="1094.54,-26.02 1086,-19.75 1088.76,-29.98 1094.54,-26.02"/>
</g>
<!-- Node23&#45;&gt;Node16 -->
<g id="edge37" class="edge">
<title>Node23&#45;&gt;Node16</title>
<path fill="none" stroke="midnightblue" d="M1122.45,-56.08C1127.01,-48.61 1133.67,-37.72 1139.29,-28.52"/>
<polygon fill="midnightblue" stroke="midnightblue" points="1142.42,-30.11 1144.65,-19.75 1136.45,-26.46 1142.42,-30.11"/>
</g>
<!-- Node23&#45;&gt;Node17 -->
<g id="edge38" class="edge">
<title>Node23&#45;&gt;Node17</title>
<path fill="none" stroke="midnightblue" d="M1099.49,-56.32C1081.93,-47.62 1054.67,-34.12 1034.47,-24.11"/>
<polygon fill="midnightblue" stroke="midnightblue" points="1035.98,-20.96 1025.47,-19.65 1032.88,-27.23 1035.98,-20.96"/>
</g>
<!-- Node23&#45;&gt;Node18 -->
<g id="edge40" class="edge">
<title>Node23&#45;&gt;Node18</title>
<path fill="none" stroke="midnightblue" d="M1069.39,-56.46C1025.85,-48.43 959.46,-35.64 892.92,-20.09"/>
<polygon fill="midnightblue" stroke="midnightblue" points="893.64,-16.67 883.1,-17.78 892.03,-23.48 893.64,-16.67"/>
</g>
<!-- Node24 -->
<g id="node24" class="node">
<title>Node24</title>
<g id="a_node24"><a xlink:title=" ">
<polygon fill="none" stroke="#bfbfbf" points="773,-0.5 773,-19.5 817,-19.5 817,-0.5 773,-0.5"/>
<text text-anchor="middle" x="795" y="-7.5" font-family="serif" font-size="10.00">limits</text>
</a>
</g>
</g>
<!-- Node23&#45;&gt;Node24 -->
<g id="edge35" class="edge">
<title>Node23&#45;&gt;Node24</title>
<path fill="none" stroke="midnightblue" d="M1044.77,-56.47C988.01,-49.16 906.86,-37.38 827.44,-20.09"/>
<polygon fill="midnightblue" stroke="midnightblue" points="827.78,-16.58 817.26,-17.84 826.27,-23.41 827.78,-16.58"/>
</g>
<!-- Node25 -->
<g id="node25" class="node">
<title>Node25</title>
<g id="a_node25"><a xlink:title=" ">
<polygon fill="none" stroke="#bfbfbf" points="1488.5,-0.5 1488.5,-19.5 1541.5,-19.5 1541.5,-0.5 1488.5,-0.5"/>
<text text-anchor="middle" x="1515" y="-7.5" font-family="serif" font-size="10.00">variant</text>
</a>
</g>
</g>
<!-- Node23&#45;&gt;Node25 -->
<g id="edge39" class="edge">
<title>Node23&#45;&gt;Node25</title>
<path fill="none" stroke="midnightblue" d="M1190.28,-56.96C1275.07,-47.47 1410.65,-31.72 1478.12,-19.91"/>
<polygon fill="midnightblue" stroke="midnightblue" points="1479.13,-23.28 1488.34,-18.05 1477.88,-16.39 1479.13,-23.28"/>
</g>
<!-- Node26&#45;&gt;Node3 -->
<g id="edge45" class="edge">
<title>Node26&#45;&gt;Node3</title>
<path fill="none" stroke="midnightblue" d="M896.92,-56.44C851.94,-46.06 776.78,-28.72 733.49,-18.73"/>
<polygon fill="midnightblue" stroke="midnightblue" points="734.25,-15.31 723.72,-16.47 732.68,-22.13 734.25,-15.31"/>
</g>
<!-- Node26&#45;&gt;Node11 -->
<g id="edge42" class="edge">
<title>Node26&#45;&gt;Node11</title>
<path fill="none" stroke="midnightblue" d="M934,-56.08C934,-49.01 934,-38.86 934,-29.99"/>
<polygon fill="midnightblue" stroke="midnightblue" points="937.5,-29.75 934,-19.75 930.5,-29.75 937.5,-29.75"/>
</g>
<!-- Node26&#45;&gt;Node14 -->
<g id="edge43" class="edge">
<title>Node26&#45;&gt;Node14</title>
<path fill="none" stroke="midnightblue" d="M957.13,-56.44C981.48,-47.44 1020.01,-33.19 1047.42,-23.05"/>
<polygon fill="midnightblue" stroke="midnightblue" points="1048.81,-26.27 1056.97,-19.52 1046.38,-19.7 1048.81,-26.27"/>
</g>
<!-- Node26&#45;&gt;Node17 -->
<g id="edge46" class="edge">
<title>Node26&#45;&gt;Node17</title>
<path fill="none" stroke="midnightblue" d="M945.89,-56.32C957.15,-48.11 974.29,-35.6 987.71,-25.81"/>
<polygon fill="midnightblue" stroke="midnightblue" points="989.88,-28.56 995.89,-19.83 985.75,-22.9 989.88,-28.56"/>
</g>
<!-- Node26&#45;&gt;Node18 -->
<g id="edge47" class="edge">
<title>Node26&#45;&gt;Node18</title>
<path fill="none" stroke="midnightblue" d="M921.95,-56.32C910.54,-48.11 893.17,-35.6 879.57,-25.81"/>
<polygon fill="midnightblue" stroke="midnightblue" points="881.43,-22.84 871.27,-19.83 877.34,-28.52 881.43,-22.84"/>
</g>
<!-- Node26&#45;&gt;Node24 -->
<g id="edge44" class="edge">
<title>Node26&#45;&gt;Node24</title>
<path fill="none" stroke="midnightblue" d="M911.98,-56.44C888.9,-47.48 852.44,-33.31 826.36,-23.18"/>
<polygon fill="midnightblue" stroke="midnightblue" points="827.51,-19.88 816.92,-19.52 824.98,-26.4 827.51,-19.88"/>
</g>
<!-- Node27&#45;&gt;Node2 -->
<g id="edge49" class="edge">
<title>Node27&#45;&gt;Node2</title>
<path fill="none" stroke="midnightblue" d="M2036.94,-56.32C2051.59,-47.82 2074.13,-34.73 2091.24,-24.8"/>
<polygon fill="midnightblue" stroke="midnightblue" points="2093.2,-27.7 2100.1,-19.65 2089.69,-21.65 2093.2,-27.7"/>
</g>
<!-- Node27&#45;&gt;Node25 -->
<g id="edge51" class="edge">
<title>Node27&#45;&gt;Node25</title>
<path fill="none" stroke="midnightblue" d="M1947.94,-61.53C1856.69,-56.46 1696.84,-44.96 1551.64,-20.05"/>
<polygon fill="midnightblue" stroke="midnightblue" points="1552.11,-16.58 1541.66,-18.31 1550.91,-23.48 1552.11,-16.58"/>
</g>
<!-- Node28 -->
<g id="node28" class="node">
<title>Node28</title>
<g id="a_node28"><a xlink:title=" ">
<polygon fill="none" stroke="#bfbfbf" points="1986.5,-0.5 1986.5,-19.5 2057.5,-19.5 2057.5,-0.5 1986.5,-0.5"/>
<text text-anchor="middle" x="2022" y="-7.5" font-family="serif" font-size="10.00">type_traits</text>
</a>
</g>
</g>
<!-- Node27&#45;&gt;Node28 -->
<g id="edge50" class="edge">
<title>Node27&#45;&gt;Node28</title>
<path fill="none" stroke="midnightblue" d="M2022,-56.08C2022,-49.01 2022,-38.86 2022,-29.99"/>
<polygon fill="midnightblue" stroke="midnightblue" points="2025.5,-29.75 2022,-19.75 2018.5,-29.75 2025.5,-29.75"/>
</g>
<!-- Node29&#45;&gt;Node3 -->
<g id="edge54" class="edge">
<title>Node29&#45;&gt;Node3</title>
<path fill="none" stroke="midnightblue" d="M808.19,-173.76C790.2,-146.69 735.17,-63.91 711.28,-27.96"/>
<polygon fill="midnightblue" stroke="midnightblue" points="714.11,-25.91 705.66,-19.52 708.28,-29.78 714.11,-25.91"/>
</g>
<!-- Node29&#45;&gt;Node6 -->
<g id="edge56" class="edge">
<title>Node29&#45;&gt;Node6</title>
<path fill="none" stroke="midnightblue" d="M866.3,-173.98C934.87,-162.8 1054.63,-143.27 1124.35,-131.91"/>
<polygon fill="midnightblue" stroke="midnightblue" points="1124.96,-135.36 1134.26,-130.29 1123.83,-128.45 1124.96,-135.36"/>
</g>
<!-- Node29&#45;&gt;Node18 -->
<g id="edge55" class="edge">
<title>Node29&#45;&gt;Node18</title>
<path fill="none" stroke="midnightblue" d="M814.19,-173.95C814.89,-153.16 818.11,-98.55 833,-56 836.38,-46.33 841.88,-36.38 846.95,-28.31"/>
<polygon fill="midnightblue" stroke="midnightblue" points="849.97,-30.09 852.56,-19.82 844.13,-26.24 849.97,-30.09"/>
</g>
<!-- Node29&#45;&gt;Node24 -->
<g id="edge53" class="edge">
<title>Node29&#45;&gt;Node24</title>
<path fill="none" stroke="midnightblue" d="M810.89,-173.7C807.54,-163.72 802.34,-146.92 800,-132 794.36,-96.12 794.06,-53.57 794.45,-29.69"/>
<polygon fill="midnightblue" stroke="midnightblue" points="797.96,-29.65 794.68,-19.57 790.96,-29.49 797.96,-29.65"/>
</g>
<!-- Node30&#45;&gt;Node6 -->
<g id="edge58" class="edge">
<title>Node30&#45;&gt;Node6</title>
<path fill="none" stroke="midnightblue" d="M1517.41,-173.98C1441.72,-162.57 1308.42,-142.49 1233.7,-131.24"/>
<polygon fill="midnightblue" stroke="midnightblue" points="1233.97,-127.74 1223.56,-129.71 1232.93,-134.66 1233.97,-127.74"/>
</g>
<!-- Node31&#45;&gt;Node6 -->
<g id="edge60" class="edge">
<title>Node31&#45;&gt;Node6</title>
<path fill="none" stroke="midnightblue" d="M1711.6,-174C1697.13,-171.88 1681.49,-169.73 1667,-168 1510.2,-149.3 1324.26,-134.06 1233.85,-127.1"/>
<polygon fill="midnightblue" stroke="midnightblue" points="1234.06,-123.6 1223.83,-126.33 1233.53,-130.58 1234.06,-123.6"/>
</g>
<!-- Node32&#45;&gt;Node3 -->
<g id="edge62" class="edge">
<title>Node32&#45;&gt;Node3</title>
<path fill="none" stroke="midnightblue" d="M974.53,-168.47C918.1,-136.1 779.42,-56.56 723.73,-24.61"/>
<polygon fill="midnightblue" stroke="midnightblue" points="725.34,-21.5 714.92,-19.56 721.86,-27.57 725.34,-21.5"/>
</g>
<!-- Node32&#45;&gt;Node6 -->
<g id="edge63" class="edge">
<title>Node32&#45;&gt;Node6</title>
<path fill="none" stroke="midnightblue" d="M1041.66,-168.4C1072.63,-158.16 1114.05,-144.47 1143.28,-134.81"/>
<polygon fill="midnightblue" stroke="midnightblue" points="1144.67,-138.03 1153.07,-131.57 1142.48,-131.39 1144.67,-138.03"/>
</g>
<!-- Node33&#45;&gt;Node6 -->
<g id="edge65" class="edge">
<title>Node33&#45;&gt;Node6</title>
<path fill="none" stroke="midnightblue" d="M1179,-168.4C1179,-160.47 1179,-150.46 1179,-141.86"/>
<polygon fill="midnightblue" stroke="midnightblue" points="1182.5,-141.66 1179,-131.66 1175.5,-141.66 1182.5,-141.66"/>
</g>
<!-- Node34&#45;&gt;Node3 -->
<g id="edge67" class="edge">
<title>Node34&#45;&gt;Node3</title>
<path fill="none" stroke="midnightblue" d="M467.15,-174C506.42,-146.51 630.22,-59.85 679.48,-25.36"/>
<polygon fill="midnightblue" stroke="midnightblue" points="681.59,-28.16 687.78,-19.56 677.58,-22.42 681.59,-28.16"/>
</g>
<!-- Node34&#45;&gt;Node6 -->
<g id="edge68" class="edge">
<title>Node34&#45;&gt;Node6</title>
<path fill="none" stroke="midnightblue" d="M505.15,-173.99C519.3,-171.8 534.72,-169.61 549,-168 760.91,-144.13 1014.43,-130.56 1124.05,-125.41"/>
<polygon fill="midnightblue" stroke="midnightblue" points="1124.37,-128.9 1134.2,-124.94 1124.05,-121.91 1124.37,-128.9"/>
</g>
<!-- Node35&#45;&gt;Node6 -->
<g id="edge70" class="edge">
<title>Node35&#45;&gt;Node6</title>
<path fill="none" stroke="midnightblue" d="M1328.93,-173.98C1298.65,-163.68 1247.56,-146.31 1213.56,-134.75"/>
<polygon fill="midnightblue" stroke="midnightblue" points="1214.62,-131.41 1204.03,-131.51 1212.37,-138.04 1214.62,-131.41"/>
</g>
<!-- Node36&#45;&gt;Node3 -->
<g id="edge72" class="edge">
<title>Node36&#45;&gt;Node3</title>
<path fill="none" stroke="midnightblue" d="M135.78,-173.94C205.1,-153.35 386.85,-99.54 539,-56 582.94,-43.43 633.73,-29.3 666.33,-20.28"/>
<polygon fill="midnightblue" stroke="midnightblue" points="667.53,-23.58 676.24,-17.54 665.67,-16.83 667.53,-23.58"/>
</g>
<!-- Node36&#45;&gt;Node6 -->
<g id="edge73" class="edge">
<title>Node36&#45;&gt;Node6</title>
<path fill="none" stroke="midnightblue" d="M152.54,-173.95C166.15,-171.68 181.14,-169.45 195,-168 547.53,-131.02 974.27,-124.42 1123.94,-123.25"/>
<polygon fill="midnightblue" stroke="midnightblue" points="1124.26,-126.75 1134.24,-123.18 1124.21,-119.75 1124.26,-126.75"/>
</g>
<!-- Node37&#45;&gt;Node3 -->
<g id="edge75" class="edge">
<title>Node37&#45;&gt;Node3</title>
<path fill="none" stroke="midnightblue" d="M298.93,-174C367.83,-145.99 587.81,-56.59 669.28,-23.49"/>
<polygon fill="midnightblue" stroke="midnightblue" points="671,-26.56 678.95,-19.56 668.36,-20.08 671,-26.56"/>
</g>
<!-- Node37&#45;&gt;Node6 -->
<g id="edge76" class="edge">
<title>Node37&#45;&gt;Node6</title>
<path fill="none" stroke="midnightblue" d="M321.37,-173.93C334.09,-171.68 348.07,-169.48 361,-168 646.82,-135.29 991.65,-126.18 1123.8,-123.79"/>
<polygon fill="midnightblue" stroke="midnightblue" points="1124.13,-127.29 1134.06,-123.61 1124,-120.29 1124.13,-127.29"/>
</g>
</g>
</svg>
        <g id="navigator" transform="translate(0 0)" fill="#404254">
                <rect fill="#f2f5e9" fill-opacity="0.5" stroke="#606060" stroke-width=".5" x="0" y="0" width="60" height="60"/>
                <use id="zoomplus" xlink:href="#zoomPlus" x="17" y="9" onmousedown="handleZoom(evt,'in')"/>
                <use id="zoomminus" xlink:href="#zoomMin" x="42" y="9" onmousedown="handleZoom(evt,'out')"/>
                <use id="reset" xlink:href="#resetDef" x="30" y="36" onmousedown="handleReset()"/>
                <g id="arrowUp" xlink:href="#dirArrow" transform="translate(30 24)" onmousedown="handlePan(0,-1)">
                  <use xlink:href="#rim" fill="#404040">
                        <set attributeName="fill" to="#808080" begin="arrowUp.mouseover" end="arrowUp.mouseout"/>
                  </use>
                  <path fill="none" stroke="white" stroke-width="1.5" d="M0,-3.0v7 M-2.5,-0.5L0,-3.0L2.5,-0.5"/>
                </g>
                <g id="arrowRight" xlink:href="#dirArrow" transform="rotate(90) translate(36 -43)" onmousedown="handlePan(1,0)">
                  <use xlink:href="#rim" fill="#404040">
                        <set attributeName="fill" to="#808080" begin="arrowRight.mouseover" end="arrowRight.mouseout"/>
                  </use>
                  <path fill="none" stroke="white" stroke-width="1.5" d="M0,-3.0v7 M-2.5,-0.5L0,-3.0L2.5,-0.5"/>
                </g>
                <g id="arrowDown" xlink:href="#dirArrow" transform="rotate(180) translate(-30 -48)" onmousedown="handlePan(0,1)">
                  <use xlink:href="#rim" fill="#404040">
                        <set attributeName="fill" to="#808080" begin="arrowDown.mouseover" end="arrowDown.mouseout"/>
                  </use>
                  <path fill="none" stroke="white" stroke-width="1.5" d="M0,-3.0v7 M-2.5,-0.5L0,-3.0L2.5,-0.5"/>
                </g>
                <g id="arrowLeft" xlink:href="#dirArrow" transform="rotate(270) translate(-36 17)" onmousedown="handlePan(-1,0)">
                  <use xlink:href="#rim" fill="#404040">
                        <set attributeName="fill" to="#808080" begin="arrowLeft.mouseover" end="arrowLeft.mouseout"/>
                  </use>
                  <path fill="none" stroke="white" stroke-width="1.5" d="M0,-3.0v7 M-2.5,-0.5L0,-3.0L2.5,-0.5"/>
                </g>
        </g>
        <svg viewBox="0 0 15 15" width="100%" height="30px" preserveAspectRatio="xMaxYMin meet">
         <g id="arrow_out" transform="scale(0.3 0.3)">
          <a xlink:href="SolverBase_8hpp__incl_org.svg" target="_base">
           <rect id="button" ry="5" rx="5" y="6" x="6" height="38" width="38"
                fill="#f2f5e9" fill-opacity="0.5" stroke="#606060" stroke-width="1.0"/>
           <path id="arrow"
             d="M 11.500037,31.436501 C 11.940474,20.09759 22.043105,11.32322 32.158766,21.979434 L 37.068811,17.246167 C 37.068811,17.246167 37.088388,32 37.088388,32 L 22.160133,31.978069 C 22.160133,31.978069 26.997745,27.140456 26.997745,27.140456 C 18.528582,18.264221 13.291696,25.230495 11.500037,31.436501 z"
             style="fill:#404040;"/>
          </a>
         </g>
        </svg>
</svg>
