<?xml version="1.0" encoding="UTF-8" standalone="no"?>
<!DOCTYPE svg PUBLIC "-//W3C//DTD SVG 1.1//EN"
 "http://www.w3.org/Graphics/SVG/1.1/DTD/svg11.dtd">
<!-- Generated by graphviz version 2.43.0 (0)
 -->
<!-- Title: SolversOptions.hpp Pages: 1 -->
<!--zoomable 196 -->
<svg id="main" version="1.1" xmlns="http://www.w3.org/2000/svg" xmlns:xlink="http://www.w3.org/1999/xlink" xml:space="preserve" onload="init(evt)">
<style type="text/css"><![CDATA[
.edge:hover path { stroke: red; }
.edge:hover polygon { stroke: red; fill: red; }
]]></style>
<script type="text/javascript"><![CDATA[
var edges = document.getElementsByTagName('g');
if (edges && edges.length) {
  for (var i=0;i<edges.length;i++) {
    if (edges[i].id.substr(0,4)=='edge') {
      edges[i].setAttribute('class','edge');
    }
  }
}
]]></script>
        <defs>
                <circle id="rim" cx="0" cy="0" r="7"/>
                <circle id="rim2" cx="0" cy="0" r="3.5"/>
                <g id="zoomPlus">
                        <use xlink:href="#rim" fill="#404040">
                                <set attributeName="fill" to="#808080" begin="zoomplus.mouseover" end="zoomplus.mouseout"/>
                        </use>
                        <path d="M-4,0h8M0,-4v8" fill="none" stroke="white" stroke-width="1.5" pointer-events="none"/>
                </g>
                <g id="zoomMin">
                        <use xlink:href="#rim" fill="#404040">
                                <set attributeName="fill" to="#808080" begin="zoomminus.mouseover" end="zoomminus.mouseout"/>
                        </use>
                        <path d="M-4,0h8" fill="none" stroke="white" stroke-width="1.5" pointer-events="none"/>
                </g>
                <g id="dirArrow">
                        <path fill="none" stroke="white" stroke-width="1.5" d="M0,-3.0v7 M-2.5,-0.5L0,-3.0L2.5,-0.5"/>
                </g>
               <g id="resetDef">
                       <use xlink:href="#rim2" fill="#404040">
                               <set attributeName="fill" to="#808080" begin="reset.mouseover" end="reset.mouseout"/>
                       </use>
               </g>
        </defs>

<script type="text/javascript">
var viewWidth = 1420;
var viewHeight = 196;
var sectionId = 'dynsection-0';
</script>
<script xlink:href="svgpan.js"/>
<svg id="graph" class="graph">
<g id="viewport">
<title>SolversOptions.hpp</title>
<!-- Node1 -->
<g id="node1" class="node">
<title>Node1</title>
<g id="a_node1"><a xlink:title="Options for solvers and preconditioners.">
<polygon fill="#bfbfbf" stroke="black" points="811.5,-168.5 811.5,-187.5 928.5,-187.5 928.5,-168.5 811.5,-168.5"/>
<text text-anchor="middle" x="870" y="-175.5" font-family="serif" font-size="10.00">SolversOptions.hpp</text>
</a>
</g>
</g>
<!-- Node2 -->
<g id="node2" class="node">
<title>Node2</title>
<g id="a_node2"><a xlink:href="Utils_8hpp.html" target="_top" xlink:title="List of all Utils files.">
<polygon fill="none" stroke="black" points="825.5,-112.5 825.5,-131.5 914.5,-131.5 914.5,-112.5 825.5,-112.5"/>
<text text-anchor="middle" x="870" y="-119.5" font-family="serif" font-size="10.00">Utils/Utils.hpp</text>
</a>
</g>
</g>
<!-- Node1&#45;&gt;Node2 -->
<g id="edge1" class="edge">
<title>Node1&#45;&gt;Node2</title>
<path fill="none" stroke="midnightblue" d="M870,-168.08C870,-161.01 870,-150.86 870,-141.99"/>
<polygon fill="midnightblue" stroke="midnightblue" points="873.5,-141.75 870,-131.75 866.5,-141.75 873.5,-141.75"/>
</g>
<!-- Node3 -->
<g id="node3" class="node">
<title>Node3</title>
<g id="a_node3"><a xlink:href="UtilsForData_8hpp.html" target="_top" xlink:title="Usefull methods for data.">
<polygon fill="none" stroke="black" points="488.5,-56.5 488.5,-75.5 619.5,-75.5 619.5,-56.5 488.5,-56.5"/>
<text text-anchor="middle" x="554" y="-63.5" font-family="serif" font-size="10.00">Utils/UtilsForData.hpp</text>
</a>
</g>
</g>
<!-- Node2&#45;&gt;Node3 -->
<g id="edge2" class="edge">
<title>Node2&#45;&gt;Node3</title>
<path fill="none" stroke="midnightblue" d="M825.4,-113.38C770.04,-103.92 675.43,-87.75 613.82,-77.22"/>
<polygon fill="midnightblue" stroke="midnightblue" points="614.29,-73.75 603.85,-75.52 613.11,-80.65 614.29,-73.75"/>
</g>
<!-- Node17 -->
<g id="node17" class="node">
<title>Node17</title>
<g id="a_node17"><a xlink:href="UtilsForDebug_8hpp.html" target="_top" xlink:title="Usefull methods for debug.">
<polygon fill="none" stroke="black" points="637.5,-56.5 637.5,-75.5 778.5,-75.5 778.5,-56.5 637.5,-56.5"/>
<text text-anchor="middle" x="708" y="-63.5" font-family="serif" font-size="10.00">Utils/UtilsForDebug.hpp</text>
</a>
</g>
</g>
<!-- Node2&#45;&gt;Node17 -->
<g id="edge16" class="edge">
<title>Node2&#45;&gt;Node17</title>
<path fill="none" stroke="midnightblue" d="M844.33,-112.44C817.08,-103.36 773.82,-88.94 743.35,-78.78"/>
<polygon fill="midnightblue" stroke="midnightblue" points="744.14,-75.36 733.55,-75.52 741.93,-82 744.14,-75.36"/>
</g>
<!-- Node20 -->
<g id="node20" class="node">
<title>Node20</title>
<g id="a_node20"><a xlink:href="UtilsForOptions_8hpp.html" target="_top" xlink:title="Usefull methods for Options.">
<polygon fill="none" stroke="black" points="797,-56.5 797,-75.5 943,-75.5 943,-56.5 797,-56.5"/>
<text text-anchor="middle" x="870" y="-63.5" font-family="serif" font-size="10.00">Utils/UtilsForOptions.hpp</text>
</a>
</g>
</g>
<!-- Node2&#45;&gt;Node20 -->
<g id="edge26" class="edge">
<title>Node2&#45;&gt;Node20</title>
<path fill="none" stroke="midnightblue" d="M870,-112.08C870,-105.01 870,-94.86 870,-85.99"/>
<polygon fill="midnightblue" stroke="midnightblue" points="873.5,-85.75 870,-75.75 866.5,-85.75 873.5,-85.75"/>
</g>
<!-- Node23 -->
<g id="node23" class="node">
<title>Node23</title>
<g id="a_node23"><a xlink:href="UtilsForPostProcessing_8hpp.html" target="_top" xlink:title="Usefull methods for post&#45;processing.">
<polygon fill="none" stroke="black" points="961.5,-56.5 961.5,-75.5 1144.5,-75.5 1144.5,-56.5 961.5,-56.5"/>
<text text-anchor="middle" x="1053" y="-63.5" font-family="serif" font-size="10.00">Utils/UtilsForPostProcessing.hpp</text>
</a>
</g>
</g>
<!-- Node2&#45;&gt;Node23 -->
<g id="edge36" class="edge">
<title>Node2&#45;&gt;Node23</title>
<path fill="none" stroke="midnightblue" d="M899,-112.44C930.18,-103.24 979.93,-88.56 1014.41,-78.39"/>
<polygon fill="midnightblue" stroke="midnightblue" points="1015.54,-81.7 1024.14,-75.52 1013.56,-74.99 1015.54,-81.7"/>
</g>
<!-- Node24 -->
<g id="node24" class="node">
<title>Node24</title>
<g id="a_node24"><a xlink:href="UtilsForVariants_8hpp.html" target="_top" xlink:title="manage std::Variants">
<polygon fill="none" stroke="black" points="1199,-56.5 1199,-75.5 1347,-75.5 1347,-56.5 1199,-56.5"/>
<text text-anchor="middle" x="1273" y="-63.5" font-family="serif" font-size="10.00">Utils/UtilsForVariants.hpp</text>
</a>
</g>
</g>
<!-- Node2&#45;&gt;Node24 -->
<g id="edge43" class="edge">
<title>Node2&#45;&gt;Node24</title>
<path fill="none" stroke="midnightblue" d="M914.67,-115.01C983.42,-105.8 1115.94,-88.05 1199.13,-76.9"/>
<polygon fill="midnightblue" stroke="midnightblue" points="1199.82,-80.34 1209.27,-75.54 1198.89,-73.4 1199.82,-80.34"/>
</g>
<!-- Node4 -->
<g id="node4" class="node">
<title>Node4</title>
<g id="a_node4"><a xlink:title=" ">
<polygon fill="none" stroke="#bfbfbf" points="363.5,-0.5 363.5,-19.5 422.5,-19.5 422.5,-0.5 363.5,-0.5"/>
<text text-anchor="middle" x="393" y="-7.5" font-family="serif" font-size="10.00">unistd.h</text>
</a>
</g>
</g>
<!-- Node3&#45;&gt;Node4 -->
<g id="edge3" class="edge">
<title>Node3&#45;&gt;Node4</title>
<path fill="none" stroke="midnightblue" d="M528.49,-56.44C501.4,-47.36 458.41,-32.94 428.13,-22.78"/>
<polygon fill="midnightblue" stroke="midnightblue" points="428.99,-19.38 418.39,-19.52 426.76,-26.01 428.99,-19.38"/>
</g>
<!-- Node5 -->
<g id="node5" class="node">
<title>Node5</title>
<g id="a_node5"><a xlink:title=" ">
<polygon fill="none" stroke="#bfbfbf" points="0,-0.5 0,-19.5 50,-19.5 50,-0.5 0,-0.5"/>
<text text-anchor="middle" x="25" y="-7.5" font-family="serif" font-size="10.00">cctype</text>
</a>
</g>
</g>
<!-- Node3&#45;&gt;Node5 -->
<g id="edge4" class="edge">
<title>Node3&#45;&gt;Node5</title>
<path fill="none" stroke="midnightblue" d="M488.28,-62.54C394.97,-58.27 218.74,-47.35 60.09,-19.91"/>
<polygon fill="midnightblue" stroke="midnightblue" points="60.6,-16.44 50.15,-18.16 59.39,-23.34 60.6,-16.44"/>
</g>
<!-- Node6 -->
<g id="node6" class="node">
<title>Node6</title>
<g id="a_node6"><a xlink:title=" ">
<polygon fill="none" stroke="#bfbfbf" points="211.5,-0.5 211.5,-19.5 258.5,-19.5 258.5,-0.5 211.5,-0.5"/>
<text text-anchor="middle" x="235" y="-7.5" font-family="serif" font-size="10.00">cstdio</text>
</a>
</g>
</g>
<!-- Node3&#45;&gt;Node6 -->
<g id="edge5" class="edge">
<title>Node3&#45;&gt;Node6</title>
<path fill="none" stroke="midnightblue" d="M488.33,-56.96C432.18,-49.57 349.07,-37.42 268.5,-20.13"/>
<polygon fill="midnightblue" stroke="midnightblue" points="269.2,-16.7 258.69,-18 267.71,-23.54 269.2,-16.7"/>
</g>
<!-- Node7 -->
<g id="node7" class="node">
<title>Node7</title>
<g id="a_node7"><a xlink:title=" ">
<polygon fill="none" stroke="#bfbfbf" points="980,-0.5 980,-19.5 1046,-19.5 1046,-0.5 980,-0.5"/>
<text text-anchor="middle" x="1013" y="-7.5" font-family="serif" font-size="10.00">algorithm</text>
</a>
</g>
</g>
<!-- Node3&#45;&gt;Node7 -->
<g id="edge6" class="edge">
<title>Node3&#45;&gt;Node7</title>
<path fill="none" stroke="midnightblue" d="M619.76,-56.95C622.54,-56.62 625.3,-56.31 628,-56 776.6,-39.14 817.27,-43.49 969.53,-19.91"/>
<polygon fill="midnightblue" stroke="midnightblue" points="970.39,-23.32 979.73,-18.31 969.31,-16.4 970.39,-23.32"/>
</g>
<!-- Node8 -->
<g id="node8" class="node">
<title>Node8</title>
<g id="a_node8"><a xlink:title=" ">
<polygon fill="none" stroke="#bfbfbf" points="68,-0.5 68,-19.5 136,-19.5 136,-0.5 68,-0.5"/>
<text text-anchor="middle" x="102" y="-7.5" font-family="serif" font-size="10.00">filesystem</text>
</a>
</g>
</g>
<!-- Node3&#45;&gt;Node8 -->
<g id="edge7" class="edge">
<title>Node3&#45;&gt;Node8</title>
<path fill="none" stroke="midnightblue" d="M488.21,-59.74C409.32,-52.98 272.89,-39.9 146.46,-20.1"/>
<polygon fill="midnightblue" stroke="midnightblue" points="146.64,-16.58 136.21,-18.47 145.54,-23.49 146.64,-16.58"/>
</g>
<!-- Node9 -->
<g id="node9" class="node">
<title>Node9</title>
<g id="a_node9"><a xlink:title=" ">
<polygon fill="none" stroke="#bfbfbf" points="685,-0.5 685,-19.5 753,-19.5 753,-0.5 685,-0.5"/>
<text text-anchor="middle" x="719" y="-7.5" font-family="serif" font-size="10.00">functional</text>
</a>
</g>
</g>
<!-- Node3&#45;&gt;Node9 -->
<g id="edge8" class="edge">
<title>Node3&#45;&gt;Node9</title>
<path fill="none" stroke="midnightblue" d="M580.14,-56.44C608.02,-47.32 652.35,-32.81 683.4,-22.65"/>
<polygon fill="midnightblue" stroke="midnightblue" points="684.56,-25.95 692.98,-19.52 682.38,-19.3 684.56,-25.95"/>
</g>
<!-- Node10 -->
<g id="node10" class="node">
<title>Node10</title>
<g id="a_node10"><a xlink:title=" ">
<polygon fill="none" stroke="#bfbfbf" points="900.5,-0.5 900.5,-19.5 961.5,-19.5 961.5,-0.5 900.5,-0.5"/>
<text text-anchor="middle" x="931" y="-7.5" font-family="serif" font-size="10.00">iostream</text>
</a>
</g>
</g>
<!-- Node3&#45;&gt;Node10 -->
<g id="edge9" class="edge">
<title>Node3&#45;&gt;Node10</title>
<path fill="none" stroke="midnightblue" d="M619.66,-56.93C698.17,-47.18 825.99,-30.89 890.34,-19.94"/>
<polygon fill="midnightblue" stroke="midnightblue" points="891.24,-23.33 900.48,-18.16 890.03,-16.44 891.24,-23.33"/>
</g>
<!-- Node11 -->
<g id="node11" class="node">
<title>Node11</title>
<g id="a_node11"><a xlink:title=" ">
<polygon fill="none" stroke="#bfbfbf" points="154.5,-0.5 154.5,-19.5 193.5,-19.5 193.5,-0.5 154.5,-0.5"/>
<text text-anchor="middle" x="174" y="-7.5" font-family="serif" font-size="10.00">map</text>
</a>
</g>
</g>
<!-- Node3&#45;&gt;Node11 -->
<g id="edge10" class="edge">
<title>Node3&#45;&gt;Node11</title>
<path fill="none" stroke="midnightblue" d="M488.18,-60.22C419.21,-54.4 307.71,-42.69 203.79,-20.07"/>
<polygon fill="midnightblue" stroke="midnightblue" points="204.28,-16.59 193.76,-17.85 202.77,-23.43 204.28,-16.59"/>
</g>
<!-- Node12 -->
<g id="node12" class="node">
<title>Node12</title>
<g id="a_node12"><a xlink:title=" ">
<polygon fill="none" stroke="#bfbfbf" points="835.5,-0.5 835.5,-19.5 882.5,-19.5 882.5,-0.5 835.5,-0.5"/>
<text text-anchor="middle" x="859" y="-7.5" font-family="serif" font-size="10.00">string</text>
</a>
</g>
</g>
<!-- Node3&#45;&gt;Node12 -->
<g id="edge11" class="edge">
<title>Node3&#45;&gt;Node12</title>
<path fill="none" stroke="midnightblue" d="M616.73,-56.48C669.82,-48.85 748.07,-36.61 825.37,-19.94"/>
<polygon fill="midnightblue" stroke="midnightblue" points="826.25,-23.33 835.28,-17.78 824.76,-16.49 826.25,-23.33"/>
</g>
<!-- Node13 -->
<g id="node13" class="node">
<title>Node13</title>
<g id="a_node13"><a xlink:title=" ">
<polygon fill="none" stroke="#bfbfbf" points="623.5,-0.5 623.5,-19.5 666.5,-19.5 666.5,-0.5 623.5,-0.5"/>
<text text-anchor="middle" x="645" y="-7.5" font-family="serif" font-size="10.00">tuple</text>
</a>
</g>
</g>
<!-- Node3&#45;&gt;Node13 -->
<g id="edge12" class="edge">
<title>Node3&#45;&gt;Node13</title>
<path fill="none" stroke="midnightblue" d="M568.62,-56.32C582.95,-47.82 605.01,-34.73 621.75,-24.8"/>
<polygon fill="midnightblue" stroke="midnightblue" points="623.6,-27.77 630.42,-19.65 620.03,-21.75 623.6,-27.77"/>
</g>
<!-- Node14 -->
<g id="node14" class="node">
<title>Node14</title>
<g id="a_node14"><a xlink:title=" ">
<polygon fill="none" stroke="#bfbfbf" points="771,-0.5 771,-19.5 817,-19.5 817,-0.5 771,-0.5"/>
<text text-anchor="middle" x="794" y="-7.5" font-family="serif" font-size="10.00">utility</text>
</a>
</g>
</g>
<!-- Node3&#45;&gt;Node14 -->
<g id="edge13" class="edge">
<title>Node3&#45;&gt;Node14</title>
<path fill="none" stroke="midnightblue" d="M597.2,-56.46C637.25,-48.36 698.71,-35.47 760.98,-20.14"/>
<polygon fill="midnightblue" stroke="midnightblue" points="762.11,-23.46 770.97,-17.66 760.42,-16.67 762.11,-23.46"/>
</g>
<!-- Node15 -->
<g id="node15" class="node">
<title>Node15</title>
<g id="a_node15"><a xlink:title=" ">
<polygon fill="none" stroke="#bfbfbf" points="1064,-0.5 1064,-19.5 1112,-19.5 1112,-0.5 1064,-0.5"/>
<text text-anchor="middle" x="1088" y="-7.5" font-family="serif" font-size="10.00">vector</text>
</a>
</g>
</g>
<!-- Node3&#45;&gt;Node15 -->
<g id="edge14" class="edge">
<title>Node3&#45;&gt;Node15</title>
<path fill="none" stroke="midnightblue" d="M619.75,-56.88C622.54,-56.57 625.3,-56.28 628,-56 814.21,-36.83 865.71,-52.63 1054.02,-19.85"/>
<polygon fill="midnightblue" stroke="midnightblue" points="1054.72,-23.28 1063.96,-18.1 1053.51,-16.39 1054.72,-23.28"/>
</g>
<!-- Node16 -->
<g id="node16" class="node">
<title>Node16</title>
<g id="a_node16"><a xlink:title=" ">
<polygon fill="none" stroke="#bfbfbf" points="276.5,-0.5 276.5,-19.5 345.5,-19.5 345.5,-0.5 276.5,-0.5"/>
<text text-anchor="middle" x="311" y="-7.5" font-family="serif" font-size="10.00">mfem.hpp</text>
</a>
</g>
</g>
<!-- Node3&#45;&gt;Node16 -->
<g id="edge15" class="edge">
<title>Node3&#45;&gt;Node16</title>
<path fill="none" stroke="midnightblue" d="M515.5,-56.44C472.07,-46.79 401.56,-31.12 355.73,-20.94"/>
<polygon fill="midnightblue" stroke="midnightblue" points="356.3,-17.48 345.78,-18.73 354.78,-24.32 356.3,-17.48"/>
</g>
<!-- Node17&#45;&gt;Node4 -->
<g id="edge18" class="edge">
<title>Node17&#45;&gt;Node4</title>
<path fill="none" stroke="midnightblue" d="M648.85,-56.5C595.01,-48.5 513.14,-35.69 432.58,-20.01"/>
<polygon fill="midnightblue" stroke="midnightblue" points="433.25,-16.57 422.77,-18.08 431.91,-23.44 433.25,-16.57"/>
</g>
<!-- Node17&#45;&gt;Node6 -->
<g id="edge19" class="edge">
<title>Node17&#45;&gt;Node6</title>
<path fill="none" stroke="midnightblue" d="M637.34,-57C634.18,-56.66 631.06,-56.32 628,-56 470.95,-39.34 427.22,-49.5 268.76,-20.05"/>
<polygon fill="midnightblue" stroke="midnightblue" points="269.13,-16.56 258.66,-18.15 267.84,-23.44 269.13,-16.56"/>
</g>
<!-- Node17&#45;&gt;Node9 -->
<g id="edge21" class="edge">
<title>Node17&#45;&gt;Node9</title>
<path fill="none" stroke="midnightblue" d="M709.82,-56.08C711.27,-48.93 713.37,-38.64 715.19,-29.69"/>
<polygon fill="midnightblue" stroke="midnightblue" points="718.65,-30.25 717.22,-19.75 711.79,-28.85 718.65,-30.25"/>
</g>
<!-- Node17&#45;&gt;Node10 -->
<g id="edge22" class="edge">
<title>Node17&#45;&gt;Node10</title>
<path fill="none" stroke="midnightblue" d="M743.34,-56.44C783.39,-46.75 848.55,-30.97 890.59,-20.79"/>
<polygon fill="midnightblue" stroke="midnightblue" points="891.59,-24.14 900.49,-18.39 889.95,-17.34 891.59,-24.14"/>
</g>
<!-- Node17&#45;&gt;Node12 -->
<g id="edge23" class="edge">
<title>Node17&#45;&gt;Node12</title>
<path fill="none" stroke="midnightblue" d="M731.93,-56.44C757.22,-47.4 797.3,-33.06 825.68,-22.92"/>
<polygon fill="midnightblue" stroke="midnightblue" points="826.95,-26.18 835.19,-19.52 824.59,-19.59 826.95,-26.18"/>
</g>
<!-- Node17&#45;&gt;Node14 -->
<g id="edge24" class="edge">
<title>Node17&#45;&gt;Node14</title>
<path fill="none" stroke="midnightblue" d="M721.82,-56.32C735.23,-47.9 755.82,-34.97 771.59,-25.07"/>
<polygon fill="midnightblue" stroke="midnightblue" points="773.61,-27.94 780.22,-19.65 769.89,-22.01 773.61,-27.94"/>
</g>
<!-- Node17&#45;&gt;Node16 -->
<g id="edge25" class="edge">
<title>Node17&#45;&gt;Node16</title>
<path fill="none" stroke="midnightblue" d="M637.16,-56.68C554.36,-46.83 421.24,-30.63 355.62,-20.14"/>
<polygon fill="midnightblue" stroke="midnightblue" points="356.12,-16.68 345.69,-18.51 354.99,-23.58 356.12,-16.68"/>
</g>
<!-- Node18 -->
<g id="node18" class="node">
<title>Node18</title>
<g id="a_node18"><a xlink:title=" ">
<polygon fill="none" stroke="#bfbfbf" points="515,-0.5 515,-19.5 605,-19.5 605,-0.5 515,-0.5"/>
<text text-anchor="middle" x="560" y="-7.5" font-family="serif" font-size="10.00">sys/resource.h</text>
</a>
</g>
</g>
<!-- Node17&#45;&gt;Node18 -->
<g id="edge17" class="edge">
<title>Node17&#45;&gt;Node18</title>
<path fill="none" stroke="midnightblue" d="M684.55,-56.44C659.87,-47.44 620.81,-33.19 593.02,-23.05"/>
<polygon fill="midnightblue" stroke="midnightblue" points="593.94,-19.66 583.34,-19.52 591.54,-26.23 593.94,-19.66"/>
</g>
<!-- Node19 -->
<g id="node19" class="node">
<title>Node19</title>
<g id="a_node19"><a xlink:title=" ">
<polygon fill="none" stroke="#bfbfbf" points="441,-0.5 441,-19.5 497,-19.5 497,-0.5 441,-0.5"/>
<text text-anchor="middle" x="469" y="-7.5" font-family="serif" font-size="10.00">fstream</text>
</a>
</g>
</g>
<!-- Node17&#45;&gt;Node19 -->
<g id="edge20" class="edge">
<title>Node17&#45;&gt;Node19</title>
<path fill="none" stroke="midnightblue" d="M668.47,-56.43C629.78,-47.99 568.91,-34.58 507.18,-20.24"/>
<polygon fill="midnightblue" stroke="midnightblue" points="507.8,-16.79 497.27,-17.94 506.21,-23.61 507.8,-16.79"/>
</g>
<!-- Node20&#45;&gt;Node7 -->
<g id="edge27" class="edge">
<title>Node20&#45;&gt;Node7</title>
<path fill="none" stroke="midnightblue" d="M892.66,-56.44C916.4,-47.48 953.91,-33.31 980.74,-23.18"/>
<polygon fill="midnightblue" stroke="midnightblue" points="982.33,-26.32 990.45,-19.52 979.86,-19.77 982.33,-26.32"/>
</g>
<!-- Node20&#45;&gt;Node9 -->
<g id="edge28" class="edge">
<title>Node20&#45;&gt;Node9</title>
<path fill="none" stroke="midnightblue" d="M846.07,-56.44C820.78,-47.4 780.7,-33.06 752.32,-22.92"/>
<polygon fill="midnightblue" stroke="midnightblue" points="753.41,-19.59 742.81,-19.52 751.05,-26.18 753.41,-19.59"/>
</g>
<!-- Node20&#45;&gt;Node10 -->
<g id="edge29" class="edge">
<title>Node20&#45;&gt;Node10</title>
<path fill="none" stroke="midnightblue" d="M879.8,-56.32C888.82,-48.34 902.41,-36.31 913.32,-26.65"/>
<polygon fill="midnightblue" stroke="midnightblue" points="915.85,-29.08 921.02,-19.83 911.21,-23.84 915.85,-29.08"/>
</g>
<!-- Node20&#45;&gt;Node12 -->
<g id="edge31" class="edge">
<title>Node20&#45;&gt;Node12</title>
<path fill="none" stroke="midnightblue" d="M868.18,-56.08C866.73,-48.93 864.63,-38.64 862.81,-29.69"/>
<polygon fill="midnightblue" stroke="midnightblue" points="866.21,-28.85 860.78,-19.75 859.35,-30.25 866.21,-28.85"/>
</g>
<!-- Node20&#45;&gt;Node13 -->
<g id="edge32" class="edge">
<title>Node20&#45;&gt;Node13</title>
<path fill="none" stroke="midnightblue" d="M830.46,-56.49C793.22,-48.33 735.66,-35.34 676.53,-20.02"/>
<polygon fill="midnightblue" stroke="midnightblue" points="677.2,-16.58 666.64,-17.45 675.43,-23.36 677.2,-16.58"/>
</g>
<!-- Node20&#45;&gt;Node14 -->
<g id="edge33" class="edge">
<title>Node20&#45;&gt;Node14</title>
<path fill="none" stroke="midnightblue" d="M857.79,-56.32C846.22,-48.11 828.62,-35.6 814.84,-25.81"/>
<polygon fill="midnightblue" stroke="midnightblue" points="816.61,-22.77 806.43,-19.83 812.56,-28.48 816.61,-22.77"/>
</g>
<!-- Node20&#45;&gt;Node15 -->
<g id="edge35" class="edge">
<title>Node20&#45;&gt;Node15</title>
<path fill="none" stroke="midnightblue" d="M906.23,-56.5C941.54,-48.15 996.99,-34.85 1053.97,-20.22"/>
<polygon fill="midnightblue" stroke="midnightblue" points="1055.06,-23.55 1063.87,-17.66 1053.31,-16.77 1055.06,-23.55"/>
</g>
<!-- Node21 -->
<g id="node21" class="node">
<title>Node21</title>
<g id="a_node21"><a xlink:title=" ">
<polygon fill="none" stroke="#bfbfbf" points="1130,-0.5 1130,-19.5 1174,-19.5 1174,-0.5 1130,-0.5"/>
<text text-anchor="middle" x="1152" y="-7.5" font-family="serif" font-size="10.00">limits</text>
</a>
</g>
</g>
<!-- Node20&#45;&gt;Node21 -->
<g id="edge30" class="edge">
<title>Node20&#45;&gt;Node21</title>
<path fill="none" stroke="midnightblue" d="M927.42,-56.47C976.23,-48.82 1048.32,-36.58 1119.66,-20.12"/>
<polygon fill="midnightblue" stroke="midnightblue" points="1120.78,-23.45 1129.72,-17.77 1119.19,-16.64 1120.78,-23.45"/>
</g>
<!-- Node22 -->
<g id="node22" class="node">
<title>Node22</title>
<g id="a_node22"><a xlink:title=" ">
<polygon fill="none" stroke="#bfbfbf" points="1192.5,-0.5 1192.5,-19.5 1245.5,-19.5 1245.5,-0.5 1192.5,-0.5"/>
<text text-anchor="middle" x="1219" y="-7.5" font-family="serif" font-size="10.00">variant</text>
</a>
</g>
</g>
<!-- Node20&#45;&gt;Node22 -->
<g id="edge34" class="edge">
<title>Node20&#45;&gt;Node22</title>
<path fill="none" stroke="midnightblue" d="M943.09,-56.64C1004.45,-49.12 1094.59,-36.94 1182.46,-19.92"/>
<polygon fill="midnightblue" stroke="midnightblue" points="1183.19,-23.35 1192.33,-17.99 1181.85,-16.48 1183.19,-23.35"/>
</g>
<!-- Node23&#45;&gt;Node7 -->
<g id="edge37" class="edge">
<title>Node23&#45;&gt;Node7</title>
<path fill="none" stroke="midnightblue" d="M1046.39,-56.08C1040.74,-48.46 1032.46,-37.26 1025.55,-27.94"/>
<polygon fill="midnightblue" stroke="midnightblue" points="1028.25,-25.7 1019.48,-19.75 1022.62,-29.87 1028.25,-25.7"/>
</g>
<!-- Node23&#45;&gt;Node10 -->
<g id="edge38" class="edge">
<title>Node23&#45;&gt;Node10</title>
<path fill="none" stroke="midnightblue" d="M1033.67,-56.44C1013.68,-47.6 982.26,-33.69 959.44,-23.59"/>
<polygon fill="midnightblue" stroke="midnightblue" points="960.8,-20.36 950.24,-19.52 957.97,-26.76 960.8,-20.36"/>
</g>
<!-- Node23&#45;&gt;Node12 -->
<g id="edge40" class="edge">
<title>Node23&#45;&gt;Node12</title>
<path fill="none" stroke="midnightblue" d="M1022.24,-56.49C991.62,-48.01 943.02,-34.53 892.54,-20.43"/>
<polygon fill="midnightblue" stroke="midnightblue" points="893.34,-17.01 882.76,-17.69 891.45,-23.76 893.34,-17.01"/>
</g>
<!-- Node23&#45;&gt;Node14 -->
<g id="edge41" class="edge">
<title>Node23&#45;&gt;Node14</title>
<path fill="none" stroke="midnightblue" d="M1004.05,-56.44C960.08,-48.5 893.55,-35.85 826.85,-20.06"/>
<polygon fill="midnightblue" stroke="midnightblue" points="827.56,-16.63 817.02,-17.71 825.93,-23.44 827.56,-16.63"/>
</g>
<!-- Node23&#45;&gt;Node15 -->
<g id="edge42" class="edge">
<title>Node23&#45;&gt;Node15</title>
<path fill="none" stroke="midnightblue" d="M1058.78,-56.08C1063.67,-48.53 1070.83,-37.49 1076.83,-28.23"/>
<polygon fill="midnightblue" stroke="midnightblue" points="1079.83,-30.05 1082.33,-19.75 1073.95,-26.24 1079.83,-30.05"/>
</g>
<!-- Node23&#45;&gt;Node21 -->
<g id="edge39" class="edge">
<title>Node23&#45;&gt;Node21</title>
<path fill="none" stroke="midnightblue" d="M1068.91,-56.32C1084.64,-47.74 1108.94,-34.49 1127.21,-24.52"/>
<polygon fill="midnightblue" stroke="midnightblue" points="1129.03,-27.52 1136.13,-19.65 1125.68,-21.37 1129.03,-27.52"/>
</g>
<!-- Node24&#45;&gt;Node22 -->
<g id="edge46" class="edge">
<title>Node24&#45;&gt;Node22</title>
<path fill="none" stroke="midnightblue" d="M1264.08,-56.08C1256.22,-48.22 1244.57,-36.57 1235.08,-27.08"/>
<polygon fill="midnightblue" stroke="midnightblue" points="1237.3,-24.35 1227.75,-19.75 1232.35,-29.3 1237.3,-24.35"/>
</g>
<!-- Node25 -->
<g id="node25" class="node">
<title>Node25</title>
<g id="a_node25"><a xlink:title=" ">
<polygon fill="none" stroke="#bfbfbf" points="1352.5,-0.5 1352.5,-19.5 1411.5,-19.5 1411.5,-0.5 1352.5,-0.5"/>
<text text-anchor="middle" x="1382" y="-7.5" font-family="serif" font-size="10.00">memory</text>
</a>
</g>
</g>
<!-- Node24&#45;&gt;Node25 -->
<g id="edge44" class="edge">
<title>Node24&#45;&gt;Node25</title>
<path fill="none" stroke="midnightblue" d="M1290.51,-56.32C1308.07,-47.62 1335.33,-34.12 1355.53,-24.11"/>
<polygon fill="midnightblue" stroke="midnightblue" points="1357.12,-27.23 1364.53,-19.65 1354.02,-20.96 1357.12,-27.23"/>
</g>
<!-- Node26 -->
<g id="node26" class="node">
<title>Node26</title>
<g id="a_node26"><a xlink:title=" ">
<polygon fill="none" stroke="#bfbfbf" points="1263.5,-0.5 1263.5,-19.5 1334.5,-19.5 1334.5,-0.5 1263.5,-0.5"/>
<text text-anchor="middle" x="1299" y="-7.5" font-family="serif" font-size="10.00">type_traits</text>
</a>
</g>
</g>
<!-- Node24&#45;&gt;Node26 -->
<g id="edge45" class="edge">
<title>Node24&#45;&gt;Node26</title>
<path fill="none" stroke="midnightblue" d="M1277.29,-56.08C1280.85,-48.69 1286.02,-37.95 1290.42,-28.81"/>
<polygon fill="midnightblue" stroke="midnightblue" points="1293.6,-30.28 1294.79,-19.75 1287.29,-27.24 1293.6,-30.28"/>
</g>
</g>
</svg>
        <g id="navigator" transform="translate(0 0)" fill="#404254">
                <rect fill="#f2f5e9" fill-opacity="0.5" stroke="#606060" stroke-width=".5" x="0" y="0" width="60" height="60"/>
                <use id="zoomplus" xlink:href="#zoomPlus" x="17" y="9" onmousedown="handleZoom(evt,'in')"/>
                <use id="zoomminus" xlink:href="#zoomMin" x="42" y="9" onmousedown="handleZoom(evt,'out')"/>
                <use id="reset" xlink:href="#resetDef" x="30" y="36" onmousedown="handleReset()"/>
                <g id="arrowUp" xlink:href="#dirArrow" transform="translate(30 24)" onmousedown="handlePan(0,-1)">
                  <use xlink:href="#rim" fill="#404040">
                        <set attributeName="fill" to="#808080" begin="arrowUp.mouseover" end="arrowUp.mouseout"/>
                  </use>
                  <path fill="none" stroke="white" stroke-width="1.5" d="M0,-3.0v7 M-2.5,-0.5L0,-3.0L2.5,-0.5"/>
                </g>
                <g id="arrowRight" xlink:href="#dirArrow" transform="rotate(90) translate(36 -43)" onmousedown="handlePan(1,0)">
                  <use xlink:href="#rim" fill="#404040">
                        <set attributeName="fill" to="#808080" begin="arrowRight.mouseover" end="arrowRight.mouseout"/>
                  </use>
                  <path fill="none" stroke="white" stroke-width="1.5" d="M0,-3.0v7 M-2.5,-0.5L0,-3.0L2.5,-0.5"/>
                </g>
                <g id="arrowDown" xlink:href="#dirArrow" transform="rotate(180) translate(-30 -48)" onmousedown="handlePan(0,1)">
                  <use xlink:href="#rim" fill="#404040">
                        <set attributeName="fill" to="#808080" begin="arrowDown.mouseover" end="arrowDown.mouseout"/>
                  </use>
                  <path fill="none" stroke="white" stroke-width="1.5" d="M0,-3.0v7 M-2.5,-0.5L0,-3.0L2.5,-0.5"/>
                </g>
                <g id="arrowLeft" xlink:href="#dirArrow" transform="rotate(270) translate(-36 17)" onmousedown="handlePan(-1,0)">
                  <use xlink:href="#rim" fill="#404040">
                        <set attributeName="fill" to="#808080" begin="arrowLeft.mouseover" end="arrowLeft.mouseout"/>
                  </use>
                  <path fill="none" stroke="white" stroke-width="1.5" d="M0,-3.0v7 M-2.5,-0.5L0,-3.0L2.5,-0.5"/>
                </g>
        </g>
        <svg viewBox="0 0 15 15" width="100%" height="30px" preserveAspectRatio="xMaxYMin meet">
         <g id="arrow_out" transform="scale(0.3 0.3)">
          <a xlink:href="SolversOptions_8hpp__incl_org.svg" target="_base">
           <rect id="button" ry="5" rx="5" y="6" x="6" height="38" width="38"
                fill="#f2f5e9" fill-opacity="0.5" stroke="#606060" stroke-width="1.0"/>
           <path id="arrow"
             d="M 11.500037,31.436501 C 11.940474,20.09759 22.043105,11.32322 32.158766,21.979434 L 37.068811,17.246167 C 37.068811,17.246167 37.088388,32 37.088388,32 L 22.160133,31.978069 C 22.160133,31.978069 26.997745,27.140456 26.997745,27.140456 C 18.528582,18.264221 13.291696,25.230495 11.500037,31.436501 z"
             style="fill:#404040;"/>
          </a>
         </g>
        </svg>
</svg>
