<?xml version="1.0" encoding="UTF-8" standalone="no"?>
<!DOCTYPE svg PUBLIC "-//W3C//DTD SVG 1.1//EN"
 "http://www.w3.org/Graphics/SVG/1.1/DTD/svg11.dtd">
<!-- Generated by graphviz version 2.43.0 (0)
 -->
<!-- Title: Spatial.hpp Pages: 1 -->
<svg width="1234pt" height="476pt"
 viewBox="0.00 0.00 1234.00 476.00" xmlns="http://www.w3.org/2000/svg" xmlns:xlink="http://www.w3.org/1999/xlink">
<g id="graph0" class="graph" transform="scale(1 1) rotate(0) translate(4 472)">
<title>Spatial.hpp</title>
<!-- Node1 -->
<g id="node1" class="node">
<title>Node1</title>
<g id="a_node1"><a xlink:title="Spatial discretization.">
<polygon fill="#bfbfbf" stroke="black" points="390.5,-448.5 390.5,-467.5 465.5,-467.5 465.5,-448.5 390.5,-448.5"/>
<text text-anchor="middle" x="428" y="-455.5" font-family="serif" font-size="10.00">Spatial.hpp</text>
</a>
</g>
</g>
<!-- Node2 -->
<g id="node2" class="node">
<title>Node2</title>
<g id="a_node2"><a xlink:href="Boundary_8hpp.html" target="_top" xlink:title="Boundary class used to build a boundary with a name, an index, a type and, if needed,...">
<polygon fill="none" stroke="black" points="158.5,-392.5 158.5,-411.5 247.5,-411.5 247.5,-392.5 158.5,-392.5"/>
<text text-anchor="middle" x="203" y="-399.5" font-family="serif" font-size="10.00">Boundary.hpp</text>
</a>
</g>
</g>
<!-- Node1&#45;&gt;Node2 -->
<g id="edge1" class="edge">
<title>Node1&#45;&gt;Node2</title>
<path fill="none" stroke="midnightblue" d="M382.53,-446.09C340.03,-435.89 277.42,-420.86 238.49,-411.52"/>
<polygon fill="midnightblue" stroke="midnightblue" points="381.81,-449.51 392.35,-448.44 383.44,-442.71 381.81,-449.51"/>
</g>
<!-- Node3 -->
<g id="node3" class="node">
<title>Node3</title>
<g id="a_node3"><a xlink:href="BoundaryConditions_8hpp.html" target="_top" xlink:title="BoundaryConditions class used to build and manage boundary conditions.">
<polygon fill="none" stroke="black" points="140.5,-336.5 140.5,-355.5 285.5,-355.5 285.5,-336.5 140.5,-336.5"/>
<text text-anchor="middle" x="213" y="-343.5" font-family="serif" font-size="10.00">BoundaryConditions.hpp</text>
</a>
</g>
</g>
<!-- Node1&#45;&gt;Node3 -->
<g id="edge46" class="edge">
<title>Node1&#45;&gt;Node3</title>
<path fill="none" stroke="midnightblue" d="M385.52,-445.61C359.94,-437.9 327.16,-426.48 300,-412 269.39,-395.68 237.84,-369.24 222.51,-355.66"/>
<polygon fill="midnightblue" stroke="midnightblue" points="384.72,-449.03 395.3,-448.49 386.7,-442.31 384.72,-449.03"/>
</g>
<!-- Node4 -->
<g id="node4" class="node">
<title>Node4</title>
<g id="a_node4"><a xlink:href="OperatorBase_8hpp.html" target="_top" xlink:title="Base class for building Steady and TimeDependent PhaseFieldOperators.">
<polygon fill="none" stroke="black" points="214,-168.5 214,-187.5 324,-187.5 324,-168.5 214,-168.5"/>
<text text-anchor="middle" x="269" y="-175.5" font-family="serif" font-size="10.00">OperatorBase.hpp</text>
</a>
</g>
</g>
<!-- Node1&#45;&gt;Node4 -->
<g id="edge49" class="edge">
<title>Node1&#45;&gt;Node4</title>
<path fill="none" stroke="midnightblue" d="M388.64,-444.81C371.13,-437.67 351.47,-427.04 338,-412 317.45,-389.06 314,-377.8 314,-347 314,-347 314,-347 314,-289 314,-248.56 287.62,-205.56 275.26,-187.63"/>
<polygon fill="midnightblue" stroke="midnightblue" points="387.5,-448.13 398.09,-448.43 390,-441.59 387.5,-448.13"/>
</g>
<!-- Node5 -->
<g id="node5" class="node">
<title>Node5</title>
<g id="a_node5"><a xlink:href="SteadyOperatorBase_8hpp.html" target="_top" xlink:title="Steady Operator base.">
<polygon fill="none" stroke="black" points="240,-112.5 240,-131.5 386,-131.5 386,-112.5 240,-112.5"/>
<text text-anchor="middle" x="313" y="-119.5" font-family="serif" font-size="10.00">SteadyOperatorBase.hpp</text>
</a>
</g>
</g>
<!-- Node1&#45;&gt;Node5 -->
<g id="edge51" class="edge">
<title>Node1&#45;&gt;Node5</title>
<path fill="none" stroke="midnightblue" d="M408.48,-441.85C385.96,-422.5 352,-386.72 352,-347 352,-347 352,-347 352,-233 352,-193.29 329.14,-149.9 318.42,-131.75"/>
<polygon fill="midnightblue" stroke="midnightblue" points="406.52,-444.76 416.46,-448.43 410.98,-439.37 406.52,-444.76"/>
</g>
<!-- Node6 -->
<g id="node6" class="node">
<title>Node6</title>
<g id="a_node6"><a xlink:href="DiffusionOperator_8hpp.html" target="_top" xlink:title="Diffusion operator (Base, Steady and TimeDependent)">
<polygon fill="none" stroke="black" points="180.5,-56.5 180.5,-75.5 311.5,-75.5 311.5,-56.5 180.5,-56.5"/>
<text text-anchor="middle" x="246" y="-63.5" font-family="serif" font-size="10.00">DiffusionOperator.hpp</text>
</a>
</g>
</g>
<!-- Node1&#45;&gt;Node6 -->
<g id="edge47" class="edge">
<title>Node1&#45;&gt;Node6</title>
<path fill="none" stroke="midnightblue" d="M380.08,-454.79C268.36,-448.34 0,-424.76 0,-347 0,-347 0,-347 0,-233 0,-136.4 131.96,-92.25 202.59,-75.55"/>
<polygon fill="midnightblue" stroke="midnightblue" points="380.21,-458.31 390.39,-455.37 380.6,-451.32 380.21,-458.31"/>
</g>
<!-- Node7 -->
<g id="node7" class="node">
<title>Node7</title>
<g id="a_node7"><a xlink:href="sloth_8hpp.html" target="_top" xlink:title="List of all header files contained in the kernel directory.">
<polygon fill="none" stroke="black" points="652.5,-0.5 652.5,-19.5 717.5,-19.5 717.5,-0.5 652.5,-0.5"/>
<text text-anchor="middle" x="685" y="-7.5" font-family="serif" font-size="10.00">sloth.hpp</text>
</a>
</g>
</g>
<!-- Node1&#45;&gt;Node7 -->
<g id="edge54" class="edge">
<title>Node1&#45;&gt;Node7</title>
<path fill="none" stroke="midnightblue" d="M475.71,-455.48C647.73,-449.38 1226,-423.19 1226,-347 1226,-347 1226,-347 1226,-121 1226,-16.65 834.59,-10.23 717.62,-10.64"/>
<polygon fill="midnightblue" stroke="midnightblue" points="475.56,-451.98 465.69,-455.83 475.8,-458.98 475.56,-451.98"/>
</g>
<!-- Node8 -->
<g id="node8" class="node">
<title>Node8</title>
<g id="a_node8"><a xlink:href="HeatOperator_8hpp.html" target="_top" xlink:title="Heat operator (Base, Steady and TimeDependent)">
<polygon fill="none" stroke="black" points="330,-56.5 330,-75.5 440,-75.5 440,-56.5 330,-56.5"/>
<text text-anchor="middle" x="385" y="-63.5" font-family="serif" font-size="10.00">HeatOperator.hpp</text>
</a>
</g>
</g>
<!-- Node1&#45;&gt;Node8 -->
<g id="edge48" class="edge">
<title>Node1&#45;&gt;Node8</title>
<path fill="none" stroke="midnightblue" d="M428,-438.25C428,-416.36 428,-379.05 428,-347 428,-347 428,-347 428,-233 428,-171.08 399.61,-100.19 388.97,-75.79"/>
<polygon fill="midnightblue" stroke="midnightblue" points="424.5,-438.44 428,-448.44 431.5,-438.44 424.5,-438.44"/>
</g>
<!-- Node9 -->
<g id="node9" class="node">
<title>Node9</title>
<g id="a_node9"><a xlink:href="PhaseFieldOperator_8hpp.html" target="_top" xlink:title="AllenCahn operator (Base, Steady and TimeDependent)">
<polygon fill="none" stroke="black" points="496.5,-56.5 496.5,-75.5 637.5,-75.5 637.5,-56.5 496.5,-56.5"/>
<text text-anchor="middle" x="567" y="-63.5" font-family="serif" font-size="10.00">PhaseFieldOperator.hpp</text>
</a>
</g>
</g>
<!-- Node1&#45;&gt;Node9 -->
<g id="edge50" class="edge">
<title>Node1&#45;&gt;Node9</title>
<path fill="none" stroke="midnightblue" d="M475.52,-451.74C534.67,-442.25 628,-416.3 628,-347 628,-347 628,-347 628,-177 628,-147.02 624.8,-138.07 610,-112 601.68,-97.34 587.53,-83.84 577.75,-75.52"/>
<polygon fill="midnightblue" stroke="midnightblue" points="474.99,-448.28 465.62,-453.23 476.03,-455.2 474.99,-448.28"/>
</g>
<!-- Node10 -->
<g id="node10" class="node">
<title>Node10</title>
<g id="a_node10"><a xlink:href="TransientOperatorBase_8hpp.html" target="_top" xlink:title="Transient Operator base.">
<polygon fill="none" stroke="black" points="441.5,-112.5 441.5,-131.5 600.5,-131.5 600.5,-112.5 441.5,-112.5"/>
<text text-anchor="middle" x="521" y="-119.5" font-family="serif" font-size="10.00">TransientOperatorBase.hpp</text>
</a>
</g>
</g>
<!-- Node1&#45;&gt;Node10 -->
<g id="edge52" class="edge">
<title>Node1&#45;&gt;Node10</title>
<path fill="none" stroke="midnightblue" d="M475.46,-446.27C523.26,-432.33 590,-402.86 590,-347 590,-347 590,-347 590,-233 590,-189.27 550.37,-148.65 531.18,-131.54"/>
<polygon fill="midnightblue" stroke="midnightblue" points="474.27,-442.97 465.57,-449.02 476.15,-449.71 474.27,-442.97"/>
</g>
<!-- Node11 -->
<g id="node11" class="node">
<title>Node11</title>
<g id="a_node11"><a xlink:href="Variable_8hpp.html" target="_top" xlink:title="Variable class used to build and manage variables of model.">
<polygon fill="none" stroke="black" points="682.5,-280.5 682.5,-299.5 763.5,-299.5 763.5,-280.5 682.5,-280.5"/>
<text text-anchor="middle" x="723" y="-287.5" font-family="serif" font-size="10.00">Variable.hpp</text>
</a>
</g>
</g>
<!-- Node1&#45;&gt;Node11 -->
<g id="edge55" class="edge">
<title>Node1&#45;&gt;Node11</title>
<path fill="none" stroke="midnightblue" d="M475.77,-457.05C521.97,-454.91 592.13,-445.68 642,-412 685.15,-382.85 711.31,-322.26 719.88,-299.71"/>
<polygon fill="midnightblue" stroke="midnightblue" points="475.58,-453.55 465.72,-457.42 475.84,-460.55 475.58,-453.55"/>
</g>
<!-- Node12 -->
<g id="node12" class="node">
<title>Node12</title>
<g id="a_node12"><a xlink:href="postprocessing_8hpp.html" target="_top" xlink:title="Post&#45;processing features.">
<polygon fill="none" stroke="black" points="972.5,-224.5 972.5,-243.5 1089.5,-243.5 1089.5,-224.5 972.5,-224.5"/>
<text text-anchor="middle" x="1031" y="-231.5" font-family="serif" font-size="10.00">postprocessing.hpp</text>
</a>
</g>
</g>
<!-- Node1&#45;&gt;Node12 -->
<g id="edge53" class="edge">
<title>Node1&#45;&gt;Node12</title>
<path fill="none" stroke="midnightblue" d="M475.83,-451.74C524.56,-445.5 601.89,-433.19 666,-412 809.77,-364.49 969.5,-271.94 1016.97,-243.51"/>
<polygon fill="midnightblue" stroke="midnightblue" points="475.37,-448.27 465.88,-452.98 476.23,-455.21 475.37,-448.27"/>
</g>
<!-- Node2&#45;&gt;Node3 -->
<g id="edge2" class="edge">
<title>Node2&#45;&gt;Node3</title>
<path fill="none" stroke="midnightblue" d="M206.5,-382.1C208.16,-373.14 210.06,-362.86 211.38,-355.75"/>
<polygon fill="midnightblue" stroke="midnightblue" points="203.03,-381.61 204.65,-392.08 209.91,-382.89 203.03,-381.61"/>
</g>
<!-- Node2&#45;&gt;Node7 -->
<g id="edge45" class="edge">
<title>Node2&#45;&gt;Node7</title>
<path fill="none" stroke="midnightblue" d="M152.04,-389.8C103.57,-375.78 38,-346.56 38,-291 38,-291 38,-291 38,-233 38,-149.94 26.67,-98.56 98,-56 145.73,-27.52 536.07,-14.95 652.4,-11.81"/>
<polygon fill="midnightblue" stroke="midnightblue" points="151.22,-393.2 161.79,-392.48 153.08,-386.45 151.22,-393.2"/>
</g>
<!-- Node3&#45;&gt;Node4 -->
<g id="edge3" class="edge">
<title>Node3&#45;&gt;Node4</title>
<path fill="none" stroke="midnightblue" d="M219.28,-326.39C231.36,-290.59 257.41,-213.34 266.11,-187.57"/>
<polygon fill="midnightblue" stroke="midnightblue" points="215.89,-325.48 216.01,-336.08 222.52,-327.72 215.89,-325.48"/>
</g>
<!-- Node3&#45;&gt;Node7 -->
<g id="edge18" class="edge">
<title>Node3&#45;&gt;Node7</title>
<path fill="none" stroke="midnightblue" d="M174.99,-332.89C134.45,-317.31 76,-286 76,-235 76,-235 76,-235 76,-121 76,-78.22 107.8,-73.15 147,-56 238.45,-15.99 550.17,-11.41 652.3,-11"/>
<polygon fill="midnightblue" stroke="midnightblue" points="174.02,-336.26 184.61,-336.42 176.43,-329.69 174.02,-336.26"/>
</g>
<!-- Node3&#45;&gt;Node11 -->
<g id="edge19" class="edge">
<title>Node3&#45;&gt;Node11</title>
<path fill="none" stroke="midnightblue" d="M295.66,-336.25C406.4,-324.52 598.67,-304.16 682.25,-295.31"/>
<polygon fill="midnightblue" stroke="midnightblue" points="295.1,-332.79 285.53,-337.32 295.84,-339.75 295.1,-332.79"/>
</g>
<!-- Node4&#45;&gt;Node5 -->
<g id="edge4" class="edge">
<title>Node4&#45;&gt;Node5</title>
<path fill="none" stroke="midnightblue" d="M282.73,-160.14C290.4,-150.74 299.63,-139.4 305.87,-131.75"/>
<polygon fill="midnightblue" stroke="midnightblue" points="279.87,-158.12 276.27,-168.08 285.3,-162.54 279.87,-158.12"/>
</g>
<!-- Node4&#45;&gt;Node7 -->
<g id="edge17" class="edge">
<title>Node4&#45;&gt;Node7</title>
<path fill="none" stroke="midnightblue" d="M241.63,-163.81C198.78,-141.49 124.27,-94.92 160,-56 193.33,-19.69 542.57,-12.62 652.24,-11.3"/>
<polygon fill="midnightblue" stroke="midnightblue" points="240.25,-167.03 250.75,-168.44 243.42,-160.79 240.25,-167.03"/>
</g>
<!-- Node4&#45;&gt;Node10 -->
<g id="edge12" class="edge">
<title>Node4&#45;&gt;Node10</title>
<path fill="none" stroke="midnightblue" d="M318.72,-166.35C366.34,-156.14 437.28,-140.94 481.26,-131.52"/>
<polygon fill="midnightblue" stroke="midnightblue" points="317.97,-162.93 308.93,-168.44 319.44,-169.77 317.97,-162.93"/>
</g>
<!-- Node5&#45;&gt;Node6 -->
<g id="edge5" class="edge">
<title>Node5&#45;&gt;Node6</title>
<path fill="none" stroke="midnightblue" d="M294.17,-105.82C282.16,-96.15 267.03,-83.95 256.96,-75.83"/>
<polygon fill="midnightblue" stroke="midnightblue" points="292.25,-108.77 302.24,-112.32 296.65,-103.32 292.25,-108.77"/>
</g>
<!-- Node5&#45;&gt;Node7 -->
<g id="edge11" class="edge">
<title>Node5&#45;&gt;Node7</title>
<path fill="none" stroke="midnightblue" d="M237.58,-110.59C191.16,-101.15 145.09,-84.27 171,-56 203.53,-20.5 543.96,-12.89 652.17,-11.36"/>
<polygon fill="midnightblue" stroke="midnightblue" points="236.98,-114.04 247.46,-112.49 238.3,-107.16 236.98,-114.04"/>
</g>
<!-- Node5&#45;&gt;Node8 -->
<g id="edge7" class="edge">
<title>Node5&#45;&gt;Node8</title>
<path fill="none" stroke="midnightblue" d="M332.87,-106.1C345.82,-96.38 362.3,-84.03 373.22,-75.83"/>
<polygon fill="midnightblue" stroke="midnightblue" points="330.47,-103.52 324.57,-112.32 334.67,-109.12 330.47,-103.52"/>
</g>
<!-- Node5&#45;&gt;Node9 -->
<g id="edge9" class="edge">
<title>Node5&#45;&gt;Node9</title>
<path fill="none" stroke="midnightblue" d="M363.12,-110.35C411.12,-100.14 482.62,-84.94 526.94,-75.52"/>
<polygon fill="midnightblue" stroke="midnightblue" points="362.3,-106.94 353.25,-112.44 363.76,-113.79 362.3,-106.94"/>
</g>
<!-- Node6&#45;&gt;Node7 -->
<g id="edge6" class="edge">
<title>Node6&#45;&gt;Node7</title>
<path fill="none" stroke="midnightblue" d="M321.77,-55.68C418.89,-43.73 583,-23.55 652.43,-15.01"/>
<polygon fill="midnightblue" stroke="midnightblue" points="321.22,-52.22 311.72,-56.92 322.08,-59.17 321.22,-52.22"/>
</g>
<!-- Node8&#45;&gt;Node7 -->
<g id="edge8" class="edge">
<title>Node8&#45;&gt;Node7</title>
<path fill="none" stroke="midnightblue" d="M442.61,-54.63C504.97,-43.41 602.22,-25.9 652.48,-16.85"/>
<polygon fill="midnightblue" stroke="midnightblue" points="441.76,-51.23 432.54,-56.44 443,-58.12 441.76,-51.23"/>
</g>
<!-- Node9&#45;&gt;Node7 -->
<g id="edge10" class="edge">
<title>Node9&#45;&gt;Node7</title>
<path fill="none" stroke="midnightblue" d="M594.9,-52.23C616.97,-42.13 647.18,-28.31 666.39,-19.52"/>
<polygon fill="midnightblue" stroke="midnightblue" points="593.33,-49.1 585.7,-56.44 596.25,-55.46 593.33,-49.1"/>
</g>
<!-- Node10&#45;&gt;Node6 -->
<g id="edge13" class="edge">
<title>Node10&#45;&gt;Node6</title>
<path fill="none" stroke="midnightblue" d="M467.39,-110.47C415.42,-100.27 337.56,-84.98 289.37,-75.52"/>
<polygon fill="midnightblue" stroke="midnightblue" points="466.94,-113.95 477.43,-112.44 468.29,-107.08 466.94,-113.95"/>
</g>
<!-- Node10&#45;&gt;Node7 -->
<g id="edge16" class="edge">
<title>Node10&#45;&gt;Node7</title>
<path fill="none" stroke="midnightblue" d="M503.19,-105.02C489.92,-91.17 476,-71.05 488,-56 508.18,-30.7 601.59,-18.49 652.2,-13.65"/>
<polygon fill="midnightblue" stroke="midnightblue" points="501.12,-107.89 510.72,-112.36 506,-102.88 501.12,-107.89"/>
</g>
<!-- Node10&#45;&gt;Node8 -->
<g id="edge14" class="edge">
<title>Node10&#45;&gt;Node8</title>
<path fill="none" stroke="midnightblue" d="M489.87,-108.64C464.34,-98.5 428.89,-84.43 406.45,-75.52"/>
<polygon fill="midnightblue" stroke="midnightblue" points="488.86,-112.01 499.45,-112.44 491.45,-105.5 488.86,-112.01"/>
</g>
<!-- Node10&#45;&gt;Node9 -->
<g id="edge15" class="edge">
<title>Node10&#45;&gt;Node9</title>
<path fill="none" stroke="midnightblue" d="M535.11,-104.43C543.18,-94.97 552.96,-83.48 559.55,-75.75"/>
<polygon fill="midnightblue" stroke="midnightblue" points="532.42,-102.2 528.6,-112.08 537.75,-106.74 532.42,-102.2"/>
</g>
<!-- Node11&#45;&gt;Node7 -->
<g id="edge39" class="edge">
<title>Node11&#45;&gt;Node7</title>
<path fill="none" stroke="midnightblue" d="M717.78,-270.39C712.16,-248.65 704,-211.51 704,-179 704,-179 704,-179 704,-121 704,-82.82 692.75,-38.26 687.56,-19.75"/>
<polygon fill="midnightblue" stroke="midnightblue" points="714.46,-271.5 720.44,-280.25 721.22,-269.68 714.46,-271.5"/>
</g>
<!-- Node11&#45;&gt;Node12 -->
<g id="edge20" class="edge">
<title>Node11&#45;&gt;Node12</title>
<path fill="none" stroke="midnightblue" d="M773.6,-280.13C831.45,-269.99 925.48,-253.5 982.46,-243.51"/>
<polygon fill="midnightblue" stroke="midnightblue" points="772.83,-276.71 763.58,-281.88 774.04,-283.61 772.83,-276.71"/>
</g>
<!-- Node13 -->
<g id="node13" class="node">
<title>Node13</title>
<g id="a_node13"><a xlink:href="MPIProblem_8hpp.html" target="_top" xlink:title="Class used to defined a MPI_Problem objet.">
<polygon fill="none" stroke="black" points="1056,-112.5 1056,-131.5 1160,-131.5 1160,-112.5 1056,-112.5"/>
<text text-anchor="middle" x="1108" y="-119.5" font-family="serif" font-size="10.00">MPIProblem.hpp</text>
</a>
</g>
</g>
<!-- Node11&#45;&gt;Node13 -->
<g id="edge36" class="edge">
<title>Node11&#45;&gt;Node13</title>
<path fill="none" stroke="midnightblue" d="M752.21,-276.41C827.09,-244.12 1024.48,-159.01 1088,-131.62"/>
<polygon fill="midnightblue" stroke="midnightblue" points="750.69,-273.25 742.89,-280.42 753.46,-279.68 750.69,-273.25"/>
</g>
<!-- Node14 -->
<g id="node14" class="node">
<title>Node14</title>
<g id="a_node14"><a xlink:href="Problem_8hpp.html" target="_top" xlink:title="Class used to defined a Problem objet.">
<polygon fill="none" stroke="black" points="732.5,-112.5 732.5,-131.5 815.5,-131.5 815.5,-112.5 732.5,-112.5"/>
<text text-anchor="middle" x="774" y="-119.5" font-family="serif" font-size="10.00">Problem.hpp</text>
</a>
</g>
</g>
<!-- Node11&#45;&gt;Node14 -->
<g id="edge37" class="edge">
<title>Node11&#45;&gt;Node14</title>
<path fill="none" stroke="midnightblue" d="M728.72,-270.39C739.72,-234.59 763.45,-157.34 771.37,-131.57"/>
<polygon fill="midnightblue" stroke="midnightblue" points="725.33,-269.49 725.74,-280.08 732.02,-271.54 725.33,-269.49"/>
</g>
<!-- Node16 -->
<g id="node16" class="node">
<title>Node16</title>
<g id="a_node16"><a xlink:href="ProblemBase_8hpp.html" target="_top" xlink:title="Base class for building Problems.">
<polygon fill="none" stroke="black" points="808.5,-168.5 808.5,-187.5 915.5,-187.5 915.5,-168.5 808.5,-168.5"/>
<text text-anchor="middle" x="862" y="-175.5" font-family="serif" font-size="10.00">ProblemBase.hpp</text>
</a>
</g>
</g>
<!-- Node11&#45;&gt;Node16 -->
<g id="edge38" class="edge">
<title>Node11&#45;&gt;Node16</title>
<path fill="none" stroke="midnightblue" d="M741.81,-274.12C771.31,-250.77 827.54,-206.27 851.14,-187.59"/>
<polygon fill="midnightblue" stroke="midnightblue" points="739.58,-271.42 733.91,-280.37 743.92,-276.91 739.58,-271.42"/>
</g>
<!-- Node19 -->
<g id="node19" class="node">
<title>Node19</title>
<g id="a_node19"><a xlink:href="Variables_8hpp.html" target="_top" xlink:title="Variables class used to build and manage variables.">
<polygon fill="none" stroke="black" points="471,-224.5 471,-243.5 557,-243.5 557,-224.5 471,-224.5"/>
<text text-anchor="middle" x="514" y="-231.5" font-family="serif" font-size="10.00">Variables.hpp</text>
</a>
</g>
</g>
<!-- Node11&#45;&gt;Node19 -->
<g id="edge40" class="edge">
<title>Node11&#45;&gt;Node19</title>
<path fill="none" stroke="midnightblue" d="M680.02,-277.89C640.55,-267.7 582.9,-252.8 546.96,-243.52"/>
<polygon fill="midnightblue" stroke="midnightblue" points="679.33,-281.33 689.88,-280.44 681.08,-274.55 679.33,-281.33"/>
</g>
<!-- Node12&#45;&gt;Node7 -->
<g id="edge35" class="edge">
<title>Node12&#45;&gt;Node7</title>
<path fill="none" stroke="midnightblue" d="M1066.6,-220.97C1116.35,-202.05 1197.56,-162.26 1169,-112 1144.97,-69.72 1121.07,-71.58 1075,-56 947.97,-13.04 785.83,-9.54 717.59,-10.21"/>
<polygon fill="midnightblue" stroke="midnightblue" points="1065.28,-217.72 1057.11,-224.47 1067.7,-224.29 1065.28,-217.72"/>
</g>
<!-- Node12&#45;&gt;Node13 -->
<g id="edge21" class="edge">
<title>Node12&#45;&gt;Node13</title>
<path fill="none" stroke="midnightblue" d="M1042.93,-215.96C1059.62,-192.12 1089.3,-149.71 1101.99,-131.59"/>
<polygon fill="midnightblue" stroke="midnightblue" points="1039.91,-214.17 1037.04,-224.37 1045.64,-218.18 1039.91,-214.17"/>
</g>
<!-- Node12&#45;&gt;Node14 -->
<g id="edge23" class="edge">
<title>Node12&#45;&gt;Node14</title>
<path fill="none" stroke="midnightblue" d="M962.39,-226.89C903.48,-220.36 824.32,-208.13 800,-188 782.58,-173.59 776.75,-145.8 774.86,-131.69"/>
<polygon fill="midnightblue" stroke="midnightblue" points="962.08,-230.37 972.4,-227.96 962.83,-223.41 962.08,-230.37"/>
</g>
<!-- Node12&#45;&gt;Node16 -->
<g id="edge27" class="edge">
<title>Node12&#45;&gt;Node16</title>
<path fill="none" stroke="midnightblue" d="M994.4,-221.3C962.55,-211.13 917.16,-196.62 888.65,-187.52"/>
<polygon fill="midnightblue" stroke="midnightblue" points="993.63,-224.73 1004.22,-224.44 995.76,-218.07 993.63,-224.73"/>
</g>
<!-- Node13&#45;&gt;Node7 -->
<g id="edge22" class="edge">
<title>Node13&#45;&gt;Node7</title>
<path fill="none" stroke="midnightblue" d="M1097.62,-103.91C1087.33,-88.6 1070.06,-66.92 1049,-56 991.55,-26.21 795.88,-15.36 717.68,-12.15"/>
<polygon fill="midnightblue" stroke="midnightblue" points="1094.77,-105.94 1103.11,-112.47 1100.66,-102.16 1094.77,-105.94"/>
</g>
<!-- Node14&#45;&gt;Node7 -->
<g id="edge24" class="edge">
<title>Node14&#45;&gt;Node7</title>
<path fill="none" stroke="midnightblue" d="M760.72,-104.59C741.53,-80.87 706.74,-37.87 691.95,-19.59"/>
<polygon fill="midnightblue" stroke="midnightblue" points="758.01,-106.8 767.02,-112.37 763.45,-102.39 758.01,-106.8"/>
</g>
<!-- Node15 -->
<g id="node15" class="node">
<title>Node15</title>
<g id="a_node15"><a xlink:href="Time_8hpp.html" target="_top" xlink:title="Main time loop.">
<polygon fill="none" stroke="black" points="770.5,-56.5 770.5,-75.5 835.5,-75.5 835.5,-56.5 770.5,-56.5"/>
<text text-anchor="middle" x="803" y="-63.5" font-family="serif" font-size="10.00">Time.hpp</text>
</a>
</g>
</g>
<!-- Node14&#45;&gt;Node15 -->
<g id="edge25" class="edge">
<title>Node14&#45;&gt;Node15</title>
<path fill="none" stroke="midnightblue" d="M783.68,-102.98C788.6,-93.82 794.36,-83.09 798.3,-75.75"/>
<polygon fill="midnightblue" stroke="midnightblue" points="780.44,-101.62 778.79,-112.08 786.6,-104.93 780.44,-101.62"/>
</g>
<!-- Node15&#45;&gt;Node7 -->
<g id="edge26" class="edge">
<title>Node15&#45;&gt;Node7</title>
<path fill="none" stroke="midnightblue" d="M775.1,-52.23C753.03,-42.13 722.82,-28.31 703.61,-19.52"/>
<polygon fill="midnightblue" stroke="midnightblue" points="773.75,-55.46 784.3,-56.44 776.67,-49.1 773.75,-55.46"/>
</g>
<!-- Node16&#45;&gt;Node7 -->
<g id="edge34" class="edge">
<title>Node16&#45;&gt;Node7</title>
<path fill="none" stroke="midnightblue" d="M865.12,-158.32C868.35,-132.13 869.92,-84.53 845,-56 813.2,-19.6 754.52,-11.57 717.74,-10.37"/>
<polygon fill="midnightblue" stroke="midnightblue" points="861.62,-158.01 863.65,-168.41 868.55,-159.01 861.62,-158.01"/>
</g>
<!-- Node16&#45;&gt;Node13 -->
<g id="edge30" class="edge">
<title>Node16&#45;&gt;Node13</title>
<path fill="none" stroke="midnightblue" d="M910.83,-166.28C957.32,-156.08 1026.36,-140.92 1069.2,-131.52"/>
<polygon fill="midnightblue" stroke="midnightblue" points="910,-162.88 900.98,-168.44 911.5,-169.72 910,-162.88"/>
</g>
<!-- Node16&#45;&gt;Node14 -->
<g id="edge31" class="edge">
<title>Node16&#45;&gt;Node14</title>
<path fill="none" stroke="midnightblue" d="M839.02,-162.9C822.89,-153 801.82,-140.07 788.1,-131.65"/>
<polygon fill="midnightblue" stroke="midnightblue" points="837.51,-166.08 847.86,-168.32 841.17,-160.11 837.51,-166.08"/>
</g>
<!-- Node17 -->
<g id="node17" class="node">
<title>Node17</title>
<g id="a_node17"><a xlink:href="Calphad__problem_8hpp.html" target="_top" xlink:title="Class used to defined a Calphad_Problem objet.">
<polygon fill="none" stroke="black" points="892.5,-56.5 892.5,-75.5 1023.5,-75.5 1023.5,-56.5 892.5,-56.5"/>
<text text-anchor="middle" x="958" y="-63.5" font-family="serif" font-size="10.00">Calphad_problem.hpp</text>
</a>
</g>
</g>
<!-- Node16&#45;&gt;Node17 -->
<g id="edge28" class="edge">
<title>Node16&#45;&gt;Node17</title>
<path fill="none" stroke="midnightblue" d="M870.65,-159.47C877.92,-145.73 889.16,-126.55 902,-112 914.87,-97.41 932.85,-83.89 944.93,-75.56"/>
<polygon fill="midnightblue" stroke="midnightblue" points="867.54,-157.88 866.1,-168.38 873.77,-161.07 867.54,-157.88"/>
</g>
<!-- Node18 -->
<g id="node18" class="node">
<title>Node18</title>
<g id="a_node18"><a xlink:href="PropertyProblem_8hpp.html" target="_top" xlink:title="Class used to compute primary variables as a function of auxialiary variables.">
<polygon fill="none" stroke="black" points="910.5,-112.5 910.5,-131.5 1037.5,-131.5 1037.5,-112.5 910.5,-112.5"/>
<text text-anchor="middle" x="974" y="-119.5" font-family="serif" font-size="10.00">PropertyProblem.hpp</text>
</a>
</g>
</g>
<!-- Node16&#45;&gt;Node18 -->
<g id="edge32" class="edge">
<title>Node16&#45;&gt;Node18</title>
<path fill="none" stroke="midnightblue" d="M889.25,-163.86C910.02,-153.85 938.02,-140.35 956.05,-131.65"/>
<polygon fill="midnightblue" stroke="midnightblue" points="887.48,-160.83 879.99,-168.32 890.52,-167.13 887.48,-160.83"/>
</g>
<!-- Node17&#45;&gt;Node7 -->
<g id="edge29" class="edge">
<title>Node17&#45;&gt;Node7</title>
<path fill="none" stroke="midnightblue" d="M904.74,-54.47C849.26,-43.49 764.1,-26.65 717.77,-17.48"/>
<polygon fill="midnightblue" stroke="midnightblue" points="904.25,-57.94 914.74,-56.44 905.61,-51.07 904.25,-57.94"/>
</g>
<!-- Node18&#45;&gt;Node7 -->
<g id="edge33" class="edge">
<title>Node18&#45;&gt;Node7</title>
<path fill="none" stroke="midnightblue" d="M1000.6,-107.5C1022.92,-94.43 1048.83,-74.01 1033,-56 1012.31,-32.46 800.09,-17.69 717.57,-12.8"/>
<polygon fill="midnightblue" stroke="midnightblue" points="998.73,-104.53 991.69,-112.46 1002.13,-110.65 998.73,-104.53"/>
</g>
<!-- Node19&#45;&gt;Node4 -->
<g id="edge41" class="edge">
<title>Node19&#45;&gt;Node4</title>
<path fill="none" stroke="midnightblue" d="M465.37,-222.28C419.07,-212.08 350.31,-196.92 307.64,-187.52"/>
<polygon fill="midnightblue" stroke="midnightblue" points="464.66,-225.71 475.18,-224.44 466.17,-218.87 464.66,-225.71"/>
</g>
<!-- Node19&#45;&gt;Node5 -->
<g id="edge42" class="edge">
<title>Node19&#45;&gt;Node5</title>
<path fill="none" stroke="midnightblue" d="M489.23,-219.45C447.3,-196.5 363.49,-150.63 328.7,-131.59"/>
<polygon fill="midnightblue" stroke="midnightblue" points="487.78,-222.64 498.23,-224.37 491.14,-216.5 487.78,-222.64"/>
</g>
<!-- Node19&#45;&gt;Node7 -->
<g id="edge44" class="edge">
<title>Node19&#45;&gt;Node7</title>
<path fill="none" stroke="midnightblue" d="M530.69,-217.23C550.61,-198.02 584.45,-164.12 610,-132 628.57,-108.65 631.24,-101.33 647,-76 659.43,-56.02 673.17,-32 680.23,-19.5"/>
<polygon fill="midnightblue" stroke="midnightblue" points="528.11,-214.86 523.3,-224.3 532.95,-219.92 528.11,-214.86"/>
</g>
<!-- Node19&#45;&gt;Node10 -->
<g id="edge43" class="edge">
<title>Node19&#45;&gt;Node10</title>
<path fill="none" stroke="midnightblue" d="M515.19,-214.35C516.72,-190.25 519.33,-149.31 520.45,-131.59"/>
<polygon fill="midnightblue" stroke="midnightblue" points="511.69,-214.17 514.55,-224.37 518.68,-214.61 511.69,-214.17"/>
</g>
</g>
</svg>
