<?xml version="1.0" encoding="UTF-8" standalone="no"?>
<!DOCTYPE svg PUBLIC "-//W3C//DTD SVG 1.1//EN"
 "http://www.w3.org/Graphics/SVG/1.1/DTD/svg11.dtd">
<!-- Generated by graphviz version 2.43.0 (0)
 -->
<!-- Title: SpatialOptions.hpp Pages: 1 -->
<svg width="1420pt" height="196pt"
 viewBox="0.00 0.00 1419.50 196.00" xmlns="http://www.w3.org/2000/svg" xmlns:xlink="http://www.w3.org/1999/xlink">
<g id="graph0" class="graph" transform="scale(1 1) rotate(0) translate(4 192)">
<title>SpatialOptions.hpp</title>
<!-- Node1 -->
<g id="node1" class="node">
<title>Node1</title>
<g id="a_node1"><a xlink:title="Options for Spatial discretization.">
<polygon fill="#bfbfbf" stroke="black" points="711.5,-168.5 711.5,-187.5 826.5,-187.5 826.5,-168.5 711.5,-168.5"/>
<text text-anchor="middle" x="769" y="-175.5" font-family="serif" font-size="10.00">SpatialOptions.hpp</text>
</a>
</g>
</g>
<!-- Node2 -->
<g id="node2" class="node">
<title>Node2</title>
<g id="a_node2"><a xlink:title=" ">
<polygon fill="none" stroke="#bfbfbf" points="709.5,-0.5 709.5,-19.5 756.5,-19.5 756.5,-0.5 709.5,-0.5"/>
<text text-anchor="middle" x="733" y="-7.5" font-family="serif" font-size="10.00">string</text>
</a>
</g>
</g>
<!-- Node1&#45;&gt;Node2 -->
<g id="edge1" class="edge">
<title>Node1&#45;&gt;Node2</title>
<path fill="none" stroke="midnightblue" d="M767.06,-168.08C761.4,-141.95 744.76,-65.21 737.03,-29.58"/>
<polygon fill="midnightblue" stroke="midnightblue" points="740.4,-28.6 734.86,-19.57 733.56,-30.08 740.4,-28.6"/>
</g>
<!-- Node3 -->
<g id="node3" class="node">
<title>Node3</title>
<g id="a_node3"><a xlink:href="Utils_8hpp.html" target="_top" xlink:title="List of all Utils files.">
<polygon fill="none" stroke="black" points="784.5,-112.5 784.5,-131.5 873.5,-131.5 873.5,-112.5 784.5,-112.5"/>
<text text-anchor="middle" x="829" y="-119.5" font-family="serif" font-size="10.00">Utils/Utils.hpp</text>
</a>
</g>
</g>
<!-- Node1&#45;&gt;Node3 -->
<g id="edge2" class="edge">
<title>Node1&#45;&gt;Node3</title>
<path fill="none" stroke="midnightblue" d="M778.64,-168.32C787.51,-160.34 800.87,-148.31 811.61,-138.65"/>
<polygon fill="midnightblue" stroke="midnightblue" points="814.09,-141.13 819.18,-131.83 809.41,-135.92 814.09,-141.13"/>
</g>
<!-- Node4 -->
<g id="node4" class="node">
<title>Node4</title>
<g id="a_node4"><a xlink:href="UtilsForData_8hpp.html" target="_top" xlink:title="Usefull methods for data.">
<polygon fill="none" stroke="black" points="573.5,-56.5 573.5,-75.5 704.5,-75.5 704.5,-56.5 573.5,-56.5"/>
<text text-anchor="middle" x="639" y="-63.5" font-family="serif" font-size="10.00">Utils/UtilsForData.hpp</text>
</a>
</g>
</g>
<!-- Node3&#45;&gt;Node4 -->
<g id="edge3" class="edge">
<title>Node3&#45;&gt;Node4</title>
<path fill="none" stroke="midnightblue" d="M798.89,-112.44C766.37,-103.2 714.42,-88.44 678.61,-78.26"/>
<polygon fill="midnightblue" stroke="midnightblue" points="679.54,-74.88 668.97,-75.52 677.63,-81.62 679.54,-74.88"/>
</g>
<!-- Node17 -->
<g id="node17" class="node">
<title>Node17</title>
<g id="a_node17"><a xlink:href="UtilsForDebug_8hpp.html" target="_top" xlink:title="Usefull methods for debug.">
<polygon fill="none" stroke="black" points="354.5,-56.5 354.5,-75.5 495.5,-75.5 495.5,-56.5 354.5,-56.5"/>
<text text-anchor="middle" x="425" y="-63.5" font-family="serif" font-size="10.00">Utils/UtilsForDebug.hpp</text>
</a>
</g>
</g>
<!-- Node3&#45;&gt;Node17 -->
<g id="edge17" class="edge">
<title>Node3&#45;&gt;Node17</title>
<path fill="none" stroke="midnightblue" d="M784.22,-115.01C715.22,-105.79 582.18,-88.01 498.8,-76.86"/>
<polygon fill="midnightblue" stroke="midnightblue" points="499.26,-73.4 488.89,-75.54 498.34,-80.33 499.26,-73.4"/>
</g>
<!-- Node20 -->
<g id="node20" class="node">
<title>Node20</title>
<g id="a_node20"><a xlink:href="UtilsForOptions_8hpp.html" target="_top" xlink:title="Usefull methods for Options.">
<polygon fill="none" stroke="black" points="963,-56.5 963,-75.5 1109,-75.5 1109,-56.5 963,-56.5"/>
<text text-anchor="middle" x="1036" y="-63.5" font-family="serif" font-size="10.00">Utils/UtilsForOptions.hpp</text>
</a>
</g>
</g>
<!-- Node3&#45;&gt;Node20 -->
<g id="edge27" class="edge">
<title>Node3&#45;&gt;Node20</title>
<path fill="none" stroke="midnightblue" d="M861.8,-112.44C897.38,-103.16 954.31,-88.31 993.35,-78.13"/>
<polygon fill="midnightblue" stroke="midnightblue" points="994.56,-81.43 1003.35,-75.52 992.79,-74.65 994.56,-81.43"/>
</g>
<!-- Node23 -->
<g id="node23" class="node">
<title>Node23</title>
<g id="a_node23"><a xlink:href="UtilsForPostProcessing_8hpp.html" target="_top" xlink:title="Usefull methods for post&#45;processing.">
<polygon fill="none" stroke="black" points="761.5,-56.5 761.5,-75.5 944.5,-75.5 944.5,-56.5 761.5,-56.5"/>
<text text-anchor="middle" x="853" y="-63.5" font-family="serif" font-size="10.00">Utils/UtilsForPostProcessing.hpp</text>
</a>
</g>
</g>
<!-- Node3&#45;&gt;Node23 -->
<g id="edge37" class="edge">
<title>Node3&#45;&gt;Node23</title>
<path fill="none" stroke="midnightblue" d="M832.96,-112.08C836.21,-104.77 840.92,-94.18 844.95,-85.1"/>
<polygon fill="midnightblue" stroke="midnightblue" points="848.25,-86.31 849.11,-75.75 841.85,-83.47 848.25,-86.31"/>
</g>
<!-- Node24 -->
<g id="node24" class="node">
<title>Node24</title>
<g id="a_node24"><a xlink:href="UtilsForVariants_8hpp.html" target="_top" xlink:title="manage std::Variants">
<polygon fill="none" stroke="black" points="1185,-56.5 1185,-75.5 1333,-75.5 1333,-56.5 1185,-56.5"/>
<text text-anchor="middle" x="1259" y="-63.5" font-family="serif" font-size="10.00">Utils/UtilsForVariants.hpp</text>
</a>
</g>
</g>
<!-- Node3&#45;&gt;Node24 -->
<g id="edge44" class="edge">
<title>Node3&#45;&gt;Node24</title>
<path fill="none" stroke="midnightblue" d="M873.8,-115.37C946.5,-106.24 1091.07,-88.09 1180.94,-76.8"/>
<polygon fill="midnightblue" stroke="midnightblue" points="1181.6,-80.25 1191.08,-75.53 1180.73,-73.3 1181.6,-80.25"/>
</g>
<!-- Node4&#45;&gt;Node2 -->
<g id="edge12" class="edge">
<title>Node4&#45;&gt;Node2</title>
<path fill="none" stroke="midnightblue" d="M654.1,-56.32C668.9,-47.82 691.69,-34.73 708.98,-24.8"/>
<polygon fill="midnightblue" stroke="midnightblue" points="711.01,-27.67 717.93,-19.65 707.52,-21.6 711.01,-27.67"/>
</g>
<!-- Node5 -->
<g id="node5" class="node">
<title>Node5</title>
<g id="a_node5"><a xlink:title=" ">
<polygon fill="none" stroke="#bfbfbf" points="334.5,-0.5 334.5,-19.5 393.5,-19.5 393.5,-0.5 334.5,-0.5"/>
<text text-anchor="middle" x="364" y="-7.5" font-family="serif" font-size="10.00">unistd.h</text>
</a>
</g>
</g>
<!-- Node4&#45;&gt;Node5 -->
<g id="edge4" class="edge">
<title>Node4&#45;&gt;Node5</title>
<path fill="none" stroke="midnightblue" d="M591.43,-56.48C545.84,-48.2 474.83,-34.97 403.8,-20.1"/>
<polygon fill="midnightblue" stroke="midnightblue" points="404.29,-16.63 393.78,-18 402.85,-23.48 404.29,-16.63"/>
</g>
<!-- Node6 -->
<g id="node6" class="node">
<title>Node6</title>
<g id="a_node6"><a xlink:title=" ">
<polygon fill="none" stroke="#bfbfbf" points="412,-0.5 412,-19.5 462,-19.5 462,-0.5 412,-0.5"/>
<text text-anchor="middle" x="437" y="-7.5" font-family="serif" font-size="10.00">cctype</text>
</a>
</g>
</g>
<!-- Node4&#45;&gt;Node6 -->
<g id="edge5" class="edge">
<title>Node4&#45;&gt;Node6</title>
<path fill="none" stroke="midnightblue" d="M606.99,-56.44C570.28,-46.63 510.28,-30.59 472.26,-20.43"/>
<polygon fill="midnightblue" stroke="midnightblue" points="472.72,-16.93 462.16,-17.73 470.91,-23.69 472.72,-16.93"/>
</g>
<!-- Node7 -->
<g id="node7" class="node">
<title>Node7</title>
<g id="a_node7"><a xlink:title=" ">
<polygon fill="none" stroke="#bfbfbf" points="182.5,-0.5 182.5,-19.5 229.5,-19.5 229.5,-0.5 182.5,-0.5"/>
<text text-anchor="middle" x="206" y="-7.5" font-family="serif" font-size="10.00">cstdio</text>
</a>
</g>
</g>
<!-- Node4&#45;&gt;Node7 -->
<g id="edge6" class="edge">
<title>Node4&#45;&gt;Node7</title>
<path fill="none" stroke="midnightblue" d="M573.21,-60.91C495.47,-55.34 362.15,-43.48 239.59,-20.05"/>
<polygon fill="midnightblue" stroke="midnightblue" points="240.15,-16.59 229.66,-18.12 238.81,-23.46 240.15,-16.59"/>
</g>
<!-- Node8 -->
<g id="node8" class="node">
<title>Node8</title>
<g id="a_node8"><a xlink:title=" ">
<polygon fill="none" stroke="#bfbfbf" points="1046,-0.5 1046,-19.5 1112,-19.5 1112,-0.5 1046,-0.5"/>
<text text-anchor="middle" x="1079" y="-7.5" font-family="serif" font-size="10.00">algorithm</text>
</a>
</g>
</g>
<!-- Node4&#45;&gt;Node8 -->
<g id="edge7" class="edge">
<title>Node4&#45;&gt;Node8</title>
<path fill="none" stroke="midnightblue" d="M704.77,-59.56C781.82,-52.75 913.5,-39.7 1035.68,-20.08"/>
<polygon fill="midnightblue" stroke="midnightblue" points="1036.28,-23.53 1045.59,-18.47 1035.15,-16.62 1036.28,-23.53"/>
</g>
<!-- Node9 -->
<g id="node9" class="node">
<title>Node9</title>
<g id="a_node9"><a xlink:title=" ">
<polygon fill="none" stroke="#bfbfbf" points="566,-0.5 566,-19.5 634,-19.5 634,-0.5 566,-0.5"/>
<text text-anchor="middle" x="600" y="-7.5" font-family="serif" font-size="10.00">filesystem</text>
</a>
</g>
</g>
<!-- Node4&#45;&gt;Node9 -->
<g id="edge8" class="edge">
<title>Node4&#45;&gt;Node9</title>
<path fill="none" stroke="midnightblue" d="M632.56,-56.08C627.05,-48.46 618.97,-37.26 612.24,-27.94"/>
<polygon fill="midnightblue" stroke="midnightblue" points="615.01,-25.81 606.32,-19.75 609.34,-29.91 615.01,-25.81"/>
</g>
<!-- Node10 -->
<g id="node10" class="node">
<title>Node10</title>
<g id="a_node10"><a xlink:title=" ">
<polygon fill="none" stroke="#bfbfbf" points="480,-0.5 480,-19.5 548,-19.5 548,-0.5 480,-0.5"/>
<text text-anchor="middle" x="514" y="-7.5" font-family="serif" font-size="10.00">functional</text>
</a>
</g>
</g>
<!-- Node4&#45;&gt;Node10 -->
<g id="edge9" class="edge">
<title>Node4&#45;&gt;Node10</title>
<path fill="none" stroke="midnightblue" d="M619.19,-56.44C598.71,-47.6 566.52,-33.69 543.14,-23.59"/>
<polygon fill="midnightblue" stroke="midnightblue" points="544.28,-20.27 533.71,-19.52 541.51,-26.7 544.28,-20.27"/>
</g>
<!-- Node11 -->
<g id="node11" class="node">
<title>Node11</title>
<g id="a_node11"><a xlink:title=" ">
<polygon fill="none" stroke="#bfbfbf" points="774.5,-0.5 774.5,-19.5 835.5,-19.5 835.5,-0.5 774.5,-0.5"/>
<text text-anchor="middle" x="805" y="-7.5" font-family="serif" font-size="10.00">iostream</text>
</a>
</g>
</g>
<!-- Node4&#45;&gt;Node11 -->
<g id="edge10" class="edge">
<title>Node4&#45;&gt;Node11</title>
<path fill="none" stroke="midnightblue" d="M665.3,-56.44C693.35,-47.32 737.94,-32.81 769.18,-22.65"/>
<polygon fill="midnightblue" stroke="midnightblue" points="770.39,-25.94 778.82,-19.52 768.23,-19.28 770.39,-25.94"/>
</g>
<!-- Node12 -->
<g id="node12" class="node">
<title>Node12</title>
<g id="a_node12"><a xlink:title=" ">
<polygon fill="none" stroke="#bfbfbf" points="652.5,-0.5 652.5,-19.5 691.5,-19.5 691.5,-0.5 652.5,-0.5"/>
<text text-anchor="middle" x="672" y="-7.5" font-family="serif" font-size="10.00">map</text>
</a>
</g>
</g>
<!-- Node4&#45;&gt;Node12 -->
<g id="edge11" class="edge">
<title>Node4&#45;&gt;Node12</title>
<path fill="none" stroke="midnightblue" d="M644.45,-56.08C649.01,-48.61 655.67,-37.72 661.29,-28.52"/>
<polygon fill="midnightblue" stroke="midnightblue" points="664.42,-30.11 666.65,-19.75 658.45,-26.46 664.42,-30.11"/>
</g>
<!-- Node13 -->
<g id="node13" class="node">
<title>Node13</title>
<g id="a_node13"><a xlink:title=" ">
<polygon fill="none" stroke="#bfbfbf" points="918.5,-0.5 918.5,-19.5 961.5,-19.5 961.5,-0.5 918.5,-0.5"/>
<text text-anchor="middle" x="940" y="-7.5" font-family="serif" font-size="10.00">tuple</text>
</a>
</g>
</g>
<!-- Node4&#45;&gt;Node13 -->
<g id="edge13" class="edge">
<title>Node4&#45;&gt;Node13</title>
<path fill="none" stroke="midnightblue" d="M702.97,-56.5C755.68,-49 832.53,-36.94 908.64,-19.84"/>
<polygon fill="midnightblue" stroke="midnightblue" points="909.43,-23.25 918.4,-17.62 907.88,-16.43 909.43,-23.25"/>
</g>
<!-- Node14 -->
<g id="node14" class="node">
<title>Node14</title>
<g id="a_node14"><a xlink:title=" ">
<polygon fill="none" stroke="#bfbfbf" points="854,-0.5 854,-19.5 900,-19.5 900,-0.5 854,-0.5"/>
<text text-anchor="middle" x="877" y="-7.5" font-family="serif" font-size="10.00">utility</text>
</a>
</g>
</g>
<!-- Node4&#45;&gt;Node14 -->
<g id="edge14" class="edge">
<title>Node4&#45;&gt;Node14</title>
<path fill="none" stroke="midnightblue" d="M680.76,-56.47C722.29,-47.85 787.74,-33.84 844,-20 844.1,-19.98 844.2,-19.95 844.3,-19.93"/>
<polygon fill="midnightblue" stroke="midnightblue" points="845.15,-23.32 853.96,-17.44 843.4,-16.54 845.15,-23.32"/>
</g>
<!-- Node15 -->
<g id="node15" class="node">
<title>Node15</title>
<g id="a_node15"><a xlink:title=" ">
<polygon fill="none" stroke="#bfbfbf" points="980,-0.5 980,-19.5 1028,-19.5 1028,-0.5 980,-0.5"/>
<text text-anchor="middle" x="1004" y="-7.5" font-family="serif" font-size="10.00">vector</text>
</a>
</g>
</g>
<!-- Node4&#45;&gt;Node15 -->
<g id="edge15" class="edge">
<title>Node4&#45;&gt;Node15</title>
<path fill="none" stroke="midnightblue" d="M704.71,-58.49C771.79,-51.28 878.72,-38.21 970,-20 970.1,-19.98 970.2,-19.96 970.3,-19.94"/>
<polygon fill="midnightblue" stroke="midnightblue" points="970.96,-23.38 979.94,-17.76 969.41,-16.55 970.96,-23.38"/>
</g>
<!-- Node16 -->
<g id="node16" class="node">
<title>Node16</title>
<g id="a_node16"><a xlink:title=" ">
<polygon fill="none" stroke="#bfbfbf" points="247.5,-0.5 247.5,-19.5 316.5,-19.5 316.5,-0.5 247.5,-0.5"/>
<text text-anchor="middle" x="282" y="-7.5" font-family="serif" font-size="10.00">mfem.hpp</text>
</a>
</g>
</g>
<!-- Node4&#45;&gt;Node16 -->
<g id="edge16" class="edge">
<title>Node4&#45;&gt;Node16</title>
<path fill="none" stroke="midnightblue" d="M573.25,-56.82C511.83,-48.9 417.35,-35.99 326.6,-20.2"/>
<polygon fill="midnightblue" stroke="midnightblue" points="327.15,-16.74 316.7,-18.46 325.94,-23.64 327.15,-16.74"/>
</g>
<!-- Node17&#45;&gt;Node2 -->
<g id="edge24" class="edge">
<title>Node17&#45;&gt;Node2</title>
<path fill="none" stroke="midnightblue" d="M488.71,-56.49C542.38,-48.89 621.34,-36.69 699.29,-19.96"/>
<polygon fill="midnightblue" stroke="midnightblue" points="700.25,-23.33 709.28,-17.79 698.76,-16.49 700.25,-23.33"/>
</g>
<!-- Node17&#45;&gt;Node5 -->
<g id="edge19" class="edge">
<title>Node17&#45;&gt;Node5</title>
<path fill="none" stroke="midnightblue" d="M415.2,-56.32C406.18,-48.34 392.59,-36.31 381.68,-26.65"/>
<polygon fill="midnightblue" stroke="midnightblue" points="383.79,-23.84 373.98,-19.83 379.15,-29.08 383.79,-23.84"/>
</g>
<!-- Node17&#45;&gt;Node7 -->
<g id="edge20" class="edge">
<title>Node17&#45;&gt;Node7</title>
<path fill="none" stroke="midnightblue" d="M387.64,-56.45C351.89,-48.17 296.21,-35.02 239.57,-20.35"/>
<polygon fill="midnightblue" stroke="midnightblue" points="240.3,-16.92 229.74,-17.78 238.53,-23.69 240.3,-16.92"/>
</g>
<!-- Node17&#45;&gt;Node10 -->
<g id="edge22" class="edge">
<title>Node17&#45;&gt;Node10</title>
<path fill="none" stroke="midnightblue" d="M439.3,-56.32C453.18,-47.9 474.49,-34.97 490.8,-25.07"/>
<polygon fill="midnightblue" stroke="midnightblue" points="493,-27.83 499.74,-19.65 489.37,-21.85 493,-27.83"/>
</g>
<!-- Node17&#45;&gt;Node11 -->
<g id="edge23" class="edge">
<title>Node17&#45;&gt;Node11</title>
<path fill="none" stroke="midnightblue" d="M495.61,-57.53C562.36,-50.03 665.48,-37.36 764.6,-19.92"/>
<polygon fill="midnightblue" stroke="midnightblue" points="765.25,-23.36 774.48,-18.16 764.02,-16.47 765.25,-23.36"/>
</g>
<!-- Node17&#45;&gt;Node14 -->
<g id="edge25" class="edge">
<title>Node17&#45;&gt;Node14</title>
<path fill="none" stroke="midnightblue" d="M495.56,-60.86C577.12,-55.31 715.44,-43.52 843.67,-19.74"/>
<polygon fill="midnightblue" stroke="midnightblue" points="844.49,-23.15 853.67,-17.86 843.2,-16.27 844.49,-23.15"/>
</g>
<!-- Node17&#45;&gt;Node16 -->
<g id="edge26" class="edge">
<title>Node17&#45;&gt;Node16</title>
<path fill="none" stroke="midnightblue" d="M402.34,-56.44C378.6,-47.48 341.09,-33.31 314.26,-23.18"/>
<polygon fill="midnightblue" stroke="midnightblue" points="315.14,-19.77 304.55,-19.52 312.67,-26.32 315.14,-19.77"/>
</g>
<!-- Node18 -->
<g id="node18" class="node">
<title>Node18</title>
<g id="a_node18"><a xlink:title=" ">
<polygon fill="none" stroke="#bfbfbf" points="0,-0.5 0,-19.5 90,-19.5 90,-0.5 0,-0.5"/>
<text text-anchor="middle" x="45" y="-7.5" font-family="serif" font-size="10.00">sys/resource.h</text>
</a>
</g>
</g>
<!-- Node17&#45;&gt;Node18 -->
<g id="edge18" class="edge">
<title>Node17&#45;&gt;Node18</title>
<path fill="none" stroke="midnightblue" d="M359.36,-56.49C295.72,-48.11 196.18,-34.68 100.24,-20.15"/>
<polygon fill="midnightblue" stroke="midnightblue" points="100.48,-16.65 90.07,-18.61 99.43,-23.57 100.48,-16.65"/>
</g>
<!-- Node19 -->
<g id="node19" class="node">
<title>Node19</title>
<g id="a_node19"><a xlink:title=" ">
<polygon fill="none" stroke="#bfbfbf" points="108,-0.5 108,-19.5 164,-19.5 164,-0.5 108,-0.5"/>
<text text-anchor="middle" x="136" y="-7.5" font-family="serif" font-size="10.00">fstream</text>
</a>
</g>
</g>
<!-- Node17&#45;&gt;Node19 -->
<g id="edge21" class="edge">
<title>Node17&#45;&gt;Node19</title>
<path fill="none" stroke="midnightblue" d="M371.72,-56.47C322.78,-48.41 248.04,-35.55 174.18,-20.15"/>
<polygon fill="midnightblue" stroke="midnightblue" points="174.75,-16.69 164.24,-18.06 173.31,-23.54 174.75,-16.69"/>
</g>
<!-- Node20&#45;&gt;Node2 -->
<g id="edge32" class="edge">
<title>Node20&#45;&gt;Node2</title>
<path fill="none" stroke="midnightblue" d="M972.65,-56.49C919.86,-48.94 842.52,-36.82 766.87,-20.24"/>
<polygon fill="midnightblue" stroke="midnightblue" points="767.21,-16.73 756.69,-17.98 765.7,-23.56 767.21,-16.73"/>
</g>
<!-- Node20&#45;&gt;Node8 -->
<g id="edge28" class="edge">
<title>Node20&#45;&gt;Node8</title>
<path fill="none" stroke="midnightblue" d="M1043.1,-56.08C1049.24,-48.38 1058.27,-37.03 1065.74,-27.65"/>
<polygon fill="midnightblue" stroke="midnightblue" points="1068.54,-29.75 1072.03,-19.75 1063.06,-25.39 1068.54,-29.75"/>
</g>
<!-- Node20&#45;&gt;Node10 -->
<g id="edge29" class="edge">
<title>Node20&#45;&gt;Node10</title>
<path fill="none" stroke="midnightblue" d="M962.69,-56.98C959.41,-56.64 956.17,-56.32 953,-56 780.41,-38.8 733.51,-45.87 558.28,-20.03"/>
<polygon fill="midnightblue" stroke="midnightblue" points="558.61,-16.54 548.2,-18.53 557.58,-23.47 558.61,-16.54"/>
</g>
<!-- Node20&#45;&gt;Node11 -->
<g id="edge30" class="edge">
<title>Node20&#45;&gt;Node11</title>
<path fill="none" stroke="midnightblue" d="M999.4,-56.44C957.47,-46.64 888.97,-30.63 845.48,-20.46"/>
<polygon fill="midnightblue" stroke="midnightblue" points="846.06,-17.01 835.53,-18.14 844.47,-23.82 846.06,-17.01"/>
</g>
<!-- Node20&#45;&gt;Node13 -->
<g id="edge33" class="edge">
<title>Node20&#45;&gt;Node13</title>
<path fill="none" stroke="midnightblue" d="M1020.58,-56.32C1005.46,-47.82 982.18,-34.73 964.53,-24.8"/>
<polygon fill="midnightblue" stroke="midnightblue" points="965.82,-21.51 955.39,-19.65 962.39,-27.61 965.82,-21.51"/>
</g>
<!-- Node20&#45;&gt;Node14 -->
<g id="edge34" class="edge">
<title>Node20&#45;&gt;Node14</title>
<path fill="none" stroke="midnightblue" d="M1010.81,-56.44C983.43,-47.15 939.59,-32.26 909.61,-22.07"/>
<polygon fill="midnightblue" stroke="midnightblue" points="910.61,-18.72 900.01,-18.82 908.35,-25.35 910.61,-18.72"/>
</g>
<!-- Node20&#45;&gt;Node15 -->
<g id="edge36" class="edge">
<title>Node20&#45;&gt;Node15</title>
<path fill="none" stroke="midnightblue" d="M1030.72,-56.08C1026.29,-48.61 1019.84,-37.72 1014.38,-28.52"/>
<polygon fill="midnightblue" stroke="midnightblue" points="1017.29,-26.57 1009.19,-19.75 1011.27,-30.14 1017.29,-26.57"/>
</g>
<!-- Node21 -->
<g id="node21" class="node">
<title>Node21</title>
<g id="a_node21"><a xlink:title=" ">
<polygon fill="none" stroke="#bfbfbf" points="1130,-0.5 1130,-19.5 1174,-19.5 1174,-0.5 1130,-0.5"/>
<text text-anchor="middle" x="1152" y="-7.5" font-family="serif" font-size="10.00">limits</text>
</a>
</g>
</g>
<!-- Node20&#45;&gt;Node21 -->
<g id="edge31" class="edge">
<title>Node20&#45;&gt;Node21</title>
<path fill="none" stroke="midnightblue" d="M1054.38,-56.44C1073.22,-47.68 1102.73,-33.94 1124.38,-23.86"/>
<polygon fill="midnightblue" stroke="midnightblue" points="1126.12,-26.91 1133.71,-19.52 1123.16,-20.56 1126.12,-26.91"/>
</g>
<!-- Node22 -->
<g id="node22" class="node">
<title>Node22</title>
<g id="a_node22"><a xlink:title=" ">
<polygon fill="none" stroke="#bfbfbf" points="1192.5,-0.5 1192.5,-19.5 1245.5,-19.5 1245.5,-0.5 1192.5,-0.5"/>
<text text-anchor="middle" x="1219" y="-7.5" font-family="serif" font-size="10.00">variant</text>
</a>
</g>
</g>
<!-- Node20&#45;&gt;Node22 -->
<g id="edge35" class="edge">
<title>Node20&#45;&gt;Node22</title>
<path fill="none" stroke="midnightblue" d="M1065,-56.44C1096.83,-47.05 1147.99,-31.95 1182.52,-21.77"/>
<polygon fill="midnightblue" stroke="midnightblue" points="1183.62,-25.09 1192.22,-18.9 1181.64,-18.37 1183.62,-25.09"/>
</g>
<!-- Node23&#45;&gt;Node2 -->
<g id="edge41" class="edge">
<title>Node23&#45;&gt;Node2</title>
<path fill="none" stroke="midnightblue" d="M833.99,-56.44C814.41,-47.64 783.69,-33.81 761.27,-23.72"/>
<polygon fill="midnightblue" stroke="midnightblue" points="762.48,-20.43 751.93,-19.52 759.61,-26.81 762.48,-20.43"/>
</g>
<!-- Node23&#45;&gt;Node8 -->
<g id="edge38" class="edge">
<title>Node23&#45;&gt;Node8</title>
<path fill="none" stroke="midnightblue" d="M888.81,-56.44C928.79,-46.89 993.48,-31.43 1036.12,-21.24"/>
<polygon fill="midnightblue" stroke="midnightblue" points="1037.02,-24.63 1045.93,-18.9 1035.39,-17.82 1037.02,-24.63"/>
</g>
<!-- Node23&#45;&gt;Node11 -->
<g id="edge39" class="edge">
<title>Node23&#45;&gt;Node11</title>
<path fill="none" stroke="midnightblue" d="M845.07,-56.08C838.15,-48.3 827.93,-36.8 819.55,-27.37"/>
<polygon fill="midnightblue" stroke="midnightblue" points="822.04,-24.9 812.78,-19.75 816.81,-29.55 822.04,-24.9"/>
</g>
<!-- Node23&#45;&gt;Node14 -->
<g id="edge42" class="edge">
<title>Node23&#45;&gt;Node14</title>
<path fill="none" stroke="midnightblue" d="M856.96,-56.08C860.21,-48.77 864.92,-38.18 868.95,-29.1"/>
<polygon fill="midnightblue" stroke="midnightblue" points="872.25,-30.31 873.11,-19.75 865.85,-27.47 872.25,-30.31"/>
</g>
<!-- Node23&#45;&gt;Node15 -->
<g id="edge43" class="edge">
<title>Node23&#45;&gt;Node15</title>
<path fill="none" stroke="midnightblue" d="M876.93,-56.44C902.22,-47.4 942.3,-33.06 970.68,-22.92"/>
<polygon fill="midnightblue" stroke="midnightblue" points="971.95,-26.18 980.19,-19.52 969.59,-19.59 971.95,-26.18"/>
</g>
<!-- Node23&#45;&gt;Node21 -->
<g id="edge40" class="edge">
<title>Node23&#45;&gt;Node21</title>
<path fill="none" stroke="midnightblue" d="M916.49,-56.46C968.71,-48.96 1044.78,-36.92 1119.65,-20.1"/>
<polygon fill="midnightblue" stroke="midnightblue" points="1120.76,-23.43 1129.73,-17.8 1119.2,-16.61 1120.76,-23.43"/>
</g>
<!-- Node24&#45;&gt;Node22 -->
<g id="edge47" class="edge">
<title>Node24&#45;&gt;Node22</title>
<path fill="none" stroke="midnightblue" d="M1252.39,-56.08C1246.74,-48.46 1238.46,-37.26 1231.55,-27.94"/>
<polygon fill="midnightblue" stroke="midnightblue" points="1234.25,-25.7 1225.48,-19.75 1228.62,-29.87 1234.25,-25.7"/>
</g>
<!-- Node25 -->
<g id="node25" class="node">
<title>Node25</title>
<g id="a_node25"><a xlink:title=" ">
<polygon fill="none" stroke="#bfbfbf" points="1352.5,-0.5 1352.5,-19.5 1411.5,-19.5 1411.5,-0.5 1352.5,-0.5"/>
<text text-anchor="middle" x="1382" y="-7.5" font-family="serif" font-size="10.00">memory</text>
</a>
</g>
</g>
<!-- Node24&#45;&gt;Node25 -->
<g id="edge45" class="edge">
<title>Node24&#45;&gt;Node25</title>
<path fill="none" stroke="midnightblue" d="M1278.49,-56.44C1298.64,-47.6 1330.32,-33.69 1353.33,-23.59"/>
<polygon fill="midnightblue" stroke="midnightblue" points="1354.85,-26.74 1362.6,-19.52 1352.04,-20.33 1354.85,-26.74"/>
</g>
<!-- Node26 -->
<g id="node26" class="node">
<title>Node26</title>
<g id="a_node26"><a xlink:title=" ">
<polygon fill="none" stroke="#bfbfbf" points="1263.5,-0.5 1263.5,-19.5 1334.5,-19.5 1334.5,-0.5 1263.5,-0.5"/>
<text text-anchor="middle" x="1299" y="-7.5" font-family="serif" font-size="10.00">type_traits</text>
</a>
</g>
</g>
<!-- Node24&#45;&gt;Node26 -->
<g id="edge46" class="edge">
<title>Node24&#45;&gt;Node26</title>
<path fill="none" stroke="midnightblue" d="M1265.61,-56.08C1271.26,-48.46 1279.54,-37.26 1286.45,-27.94"/>
<polygon fill="midnightblue" stroke="midnightblue" points="1289.38,-29.87 1292.52,-19.75 1283.75,-25.7 1289.38,-29.87"/>
</g>
</g>
</svg>
