<?xml version="1.0" encoding="UTF-8" standalone="no"?>
<!DOCTYPE svg PUBLIC "-//W3C//DTD SVG 1.1//EN"
 "http://www.w3.org/Graphics/SVG/1.1/DTD/svg11.dtd">
<!-- Generated by graphviz version 2.43.0 (0)
 -->
<!-- Title: SteadyOperatorBase.hpp Pages: 1 -->
<svg width="465pt" height="140pt"
 viewBox="0.00 0.00 465.00 140.00" xmlns="http://www.w3.org/2000/svg" xmlns:xlink="http://www.w3.org/1999/xlink">
<g id="graph0" class="graph" transform="scale(1 1) rotate(0) translate(4 136)">
<title>SteadyOperatorBase.hpp</title>
<!-- Node1 -->
<g id="node1" class="node">
<title>Node1</title>
<g id="a_node1"><a xlink:title="Steady Operator base.">
<polygon fill="#bfbfbf" stroke="black" points="127.5,-112.5 127.5,-131.5 273.5,-131.5 273.5,-112.5 127.5,-112.5"/>
<text text-anchor="middle" x="200.5" y="-119.5" font-family="serif" font-size="10.00">SteadyOperatorBase.hpp</text>
</a>
</g>
</g>
<!-- Node2 -->
<g id="node2" class="node">
<title>Node2</title>
<g id="a_node2"><a xlink:href="DiffusionOperator_8hpp.html" target="_top" xlink:title="Diffusion operator (Base, Steady and TimeDependent)">
<polygon fill="none" stroke="black" points="0,-56.5 0,-75.5 131,-75.5 131,-56.5 0,-56.5"/>
<text text-anchor="middle" x="65.5" y="-63.5" font-family="serif" font-size="10.00">DiffusionOperator.hpp</text>
</a>
</g>
</g>
<!-- Node1&#45;&gt;Node2 -->
<g id="edge1" class="edge">
<title>Node1&#45;&gt;Node2</title>
<path fill="none" stroke="midnightblue" d="M169.59,-108.64C144.26,-98.5 109.07,-84.43 86.79,-75.52"/>
<polygon fill="midnightblue" stroke="midnightblue" points="168.52,-111.98 179.11,-112.44 171.12,-105.48 168.52,-111.98"/>
</g>
<!-- Node3 -->
<g id="node3" class="node">
<title>Node3</title>
<g id="a_node3"><a xlink:href="sloth_8hpp.html" target="_top" xlink:title="List of all header files contained in the kernel directory.">
<polygon fill="none" stroke="black" points="168,-0.5 168,-19.5 233,-19.5 233,-0.5 168,-0.5"/>
<text text-anchor="middle" x="200.5" y="-7.5" font-family="serif" font-size="10.00">sloth.hpp</text>
</a>
</g>
</g>
<!-- Node1&#45;&gt;Node3 -->
<g id="edge7" class="edge">
<title>Node1&#45;&gt;Node3</title>
<path fill="none" stroke="midnightblue" d="M189.74,-103.69C185.32,-95.59 180.73,-85.64 178.5,-76 173.72,-55.34 186.22,-31.99 194.29,-19.67"/>
<polygon fill="midnightblue" stroke="midnightblue" points="186.8,-105.6 194.86,-112.48 192.85,-102.08 186.8,-105.6"/>
</g>
<!-- Node4 -->
<g id="node4" class="node">
<title>Node4</title>
<g id="a_node4"><a xlink:href="HeatOperator_8hpp.html" target="_top" xlink:title="Heat operator (Base, Steady and TimeDependent)">
<polygon fill="none" stroke="black" points="187.5,-56.5 187.5,-75.5 297.5,-75.5 297.5,-56.5 187.5,-56.5"/>
<text text-anchor="middle" x="242.5" y="-63.5" font-family="serif" font-size="10.00">HeatOperator.hpp</text>
</a>
</g>
</g>
<!-- Node1&#45;&gt;Node4 -->
<g id="edge3" class="edge">
<title>Node1&#45;&gt;Node4</title>
<path fill="none" stroke="midnightblue" d="M213.61,-104.14C220.93,-94.74 229.74,-83.4 235.69,-75.75"/>
<polygon fill="midnightblue" stroke="midnightblue" points="210.81,-102.04 207.44,-112.08 216.34,-106.34 210.81,-102.04"/>
</g>
<!-- Node5 -->
<g id="node5" class="node">
<title>Node5</title>
<g id="a_node5"><a xlink:href="PhaseFieldOperator_8hpp.html" target="_top" xlink:title="AllenCahn operator (Base, Steady and TimeDependent)">
<polygon fill="none" stroke="black" points="316,-56.5 316,-75.5 457,-75.5 457,-56.5 316,-56.5"/>
<text text-anchor="middle" x="386.5" y="-63.5" font-family="serif" font-size="10.00">PhaseFieldOperator.hpp</text>
</a>
</g>
</g>
<!-- Node1&#45;&gt;Node5 -->
<g id="edge5" class="edge">
<title>Node1&#45;&gt;Node5</title>
<path fill="none" stroke="midnightblue" d="M239.88,-109.57C274.97,-99.38 325.52,-84.7 357.17,-75.52"/>
<polygon fill="midnightblue" stroke="midnightblue" points="238.6,-106.29 229.97,-112.44 240.55,-113.02 238.6,-106.29"/>
</g>
<!-- Node2&#45;&gt;Node3 -->
<g id="edge2" class="edge">
<title>Node2&#45;&gt;Node3</title>
<path fill="none" stroke="midnightblue" d="M96.41,-52.64C121.74,-42.5 156.93,-28.43 179.21,-19.52"/>
<polygon fill="midnightblue" stroke="midnightblue" points="94.88,-49.48 86.89,-56.44 97.48,-55.98 94.88,-49.48"/>
</g>
<!-- Node4&#45;&gt;Node3 -->
<g id="edge4" class="edge">
<title>Node4&#45;&gt;Node3</title>
<path fill="none" stroke="midnightblue" d="M229.39,-48.14C222.07,-38.74 213.26,-27.4 207.31,-19.75"/>
<polygon fill="midnightblue" stroke="midnightblue" points="226.66,-50.34 235.56,-56.08 232.19,-46.04 226.66,-50.34"/>
</g>
<!-- Node5&#45;&gt;Node3 -->
<g id="edge6" class="edge">
<title>Node5&#45;&gt;Node3</title>
<path fill="none" stroke="midnightblue" d="M347.12,-53.57C312.03,-43.38 261.48,-28.7 229.83,-19.52"/>
<polygon fill="midnightblue" stroke="midnightblue" points="346.45,-57.02 357.03,-56.44 348.4,-50.29 346.45,-57.02"/>
</g>
</g>
</svg>
