<?xml version="1.0" encoding="UTF-8" standalone="no"?>
<!DOCTYPE svg PUBLIC "-//W3C//DTD SVG 1.1//EN"
 "http://www.w3.org/Graphics/SVG/1.1/DTD/svg11.dtd">
<!-- Generated by graphviz version 2.43.0 (0)
 -->
<!-- Title: SteadyReducedOperator.hpp Pages: 1 -->
<svg width="173pt" height="84pt"
 viewBox="0.00 0.00 173.00 84.00" xmlns="http://www.w3.org/2000/svg" xmlns:xlink="http://www.w3.org/1999/xlink">
<g id="graph0" class="graph" transform="scale(1 1) rotate(0) translate(4 80)">
<title>SteadyReducedOperator.hpp</title>
<!-- Node1 -->
<g id="node1" class="node">
<title>Node1</title>
<g id="a_node1"><a xlink:title="Steady version of the linear system resulting from the NonLinear algorithm.">
<polygon fill="#bfbfbf" stroke="black" points="0,-56.5 0,-75.5 165,-75.5 165,-56.5 0,-56.5"/>
<text text-anchor="middle" x="82.5" y="-63.5" font-family="serif" font-size="10.00">SteadyReducedOperator.hpp</text>
</a>
</g>
</g>
<!-- Node2 -->
<g id="node2" class="node">
<title>Node2</title>
<g id="a_node2"><a xlink:title=" ">
<polygon fill="none" stroke="#bfbfbf" points="20.5,-0.5 20.5,-19.5 68.5,-19.5 68.5,-0.5 20.5,-0.5"/>
<text text-anchor="middle" x="44.5" y="-7.5" font-family="serif" font-size="10.00">vector</text>
</a>
</g>
</g>
<!-- Node1&#45;&gt;Node2 -->
<g id="edge1" class="edge">
<title>Node1&#45;&gt;Node2</title>
<path fill="none" stroke="midnightblue" d="M76.23,-56.08C70.86,-48.46 62.98,-37.26 56.42,-27.94"/>
<polygon fill="midnightblue" stroke="midnightblue" points="59.28,-25.91 50.66,-19.75 53.55,-29.94 59.28,-25.91"/>
</g>
<!-- Node3 -->
<g id="node3" class="node">
<title>Node3</title>
<g id="a_node3"><a xlink:title=" ">
<polygon fill="none" stroke="#bfbfbf" points="87,-0.5 87,-19.5 156,-19.5 156,-0.5 87,-0.5"/>
<text text-anchor="middle" x="121.5" y="-7.5" font-family="serif" font-size="10.00">mfem.hpp</text>
</a>
</g>
</g>
<!-- Node1&#45;&gt;Node3 -->
<g id="edge2" class="edge">
<title>Node1&#45;&gt;Node3</title>
<path fill="none" stroke="midnightblue" d="M88.94,-56.08C94.45,-48.46 102.53,-37.26 109.26,-27.94"/>
<polygon fill="midnightblue" stroke="midnightblue" points="112.16,-29.91 115.18,-19.75 106.49,-25.81 112.16,-29.91"/>
</g>
</g>
</svg>
