<?xml version="1.0" encoding="UTF-8" standalone="no"?>
<!DOCTYPE svg PUBLIC "-//W3C//DTD SVG 1.1//EN"
 "http://www.w3.org/Graphics/SVG/1.1/DTD/svg11.dtd">
<!-- Generated by graphviz version 2.43.0 (0)
 -->
<!-- Title: Meshes::from Pages: 1 -->
<!--zoomable 530 -->
<svg id="main" version="1.1" xmlns="http://www.w3.org/2000/svg" xmlns:xlink="http://www.w3.org/1999/xlink" xml:space="preserve" onload="init(evt)">
<style type="text/css"><![CDATA[
.edge:hover path { stroke: red; }
.edge:hover polygon { stroke: red; fill: red; }
]]></style>
<script type="text/javascript"><![CDATA[
var edges = document.getElementsByTagName('g');
if (edges && edges.length) {
  for (var i=0;i<edges.length;i++) {
    if (edges[i].id.substr(0,4)=='edge') {
      edges[i].setAttribute('class','edge');
    }
  }
}
]]></script>
        <defs>
                <circle id="rim" cx="0" cy="0" r="7"/>
                <circle id="rim2" cx="0" cy="0" r="3.5"/>
                <g id="zoomPlus">
                        <use xlink:href="#rim" fill="#404040">
                                <set attributeName="fill" to="#808080" begin="zoomplus.mouseover" end="zoomplus.mouseout"/>
                        </use>
                        <path d="M-4,0h8M0,-4v8" fill="none" stroke="white" stroke-width="1.5" pointer-events="none"/>
                </g>
                <g id="zoomMin">
                        <use xlink:href="#rim" fill="#404040">
                                <set attributeName="fill" to="#808080" begin="zoomminus.mouseover" end="zoomminus.mouseout"/>
                        </use>
                        <path d="M-4,0h8" fill="none" stroke="white" stroke-width="1.5" pointer-events="none"/>
                </g>
                <g id="dirArrow">
                        <path fill="none" stroke="white" stroke-width="1.5" d="M0,-3.0v7 M-2.5,-0.5L0,-3.0L2.5,-0.5"/>
                </g>
               <g id="resetDef">
                       <use xlink:href="#rim2" fill="#404040">
                               <set attributeName="fill" to="#808080" begin="reset.mouseover" end="reset.mouseout"/>
                       </use>
               </g>
        </defs>

<script type="text/javascript">
var viewWidth = 258;
var viewHeight = 530;
var sectionId = 'dynsection-0';
</script>
<script xlink:href="svgpan.js"/>
<svg id="graph" class="graph">
<g id="viewport">
<title>Meshes::from</title>
<!-- Node1 -->
<g id="node1" class="node">
<title>Node1</title>
<g id="a_node1"><a xlink:title=" ">
<polygon fill="#bfbfbf" stroke="black" points="164,-251.5 164,-270.5 250,-270.5 250,-251.5 164,-251.5"/>
<text text-anchor="middle" x="207" y="-258.5" font-family="serif" font-size="10.00">Meshes::from</text>
</a>
</g>
</g>
<!-- Node2 -->
<g id="node2" class="node">
<title>Node2</title>
<g id="a_node2"><a xlink:href="structspecialized__spatial__constructor_3_01T_00_011_01_4.html#ad9287439f1ff6f197b292f62549a75ad" target="_top" xlink:title="Build a one&#45;dimensional mesh by using MFEM inline methods.">
<polygon fill="none" stroke="black" points="4.5,-480.5 4.5,-521.5 123.5,-521.5 123.5,-480.5 4.5,-480.5"/>
<text text-anchor="start" x="12.5" y="-509.5" font-family="serif" font-size="10.00">specialized_spatial</text>
<text text-anchor="start" x="12.5" y="-498.5" font-family="serif" font-size="10.00">_constructor&lt; T, 1 &gt;</text>
<text text-anchor="middle" x="64" y="-487.5" font-family="serif" font-size="10.00">::build_mesh</text>
</a>
</g>
</g>
<!-- Node1&#45;&gt;Node2 -->
<g id="edge1" class="edge">
<title>Node1&#45;&gt;Node2</title>
<path fill="none" stroke="midnightblue" d="M203.68,-280.61C197.94,-321.04 179.59,-414.61 128,-471 124.81,-474.49 121.13,-477.61 117.18,-480.39"/>
<polygon fill="midnightblue" stroke="midnightblue" points="207.15,-281.06 204.98,-270.69 200.21,-280.15 207.15,-281.06"/>
</g>
<!-- Node3 -->
<g id="node3" class="node">
<title>Node3</title>
<g id="a_node3"><a xlink:href="structspecialized__spatial__constructor_3_01T_00_012_01_4.html#a005fb02e74a9ce0b54581b6f0db5f5c7" target="_top" xlink:title="Build a two&#45;dimensional mesh by using MFEM inline methods.">
<polygon fill="none" stroke="black" points="4.5,-420.5 4.5,-461.5 123.5,-461.5 123.5,-420.5 4.5,-420.5"/>
<text text-anchor="start" x="12.5" y="-449.5" font-family="serif" font-size="10.00">specialized_spatial</text>
<text text-anchor="start" x="12.5" y="-438.5" font-family="serif" font-size="10.00">_constructor&lt; T, 2 &gt;</text>
<text text-anchor="middle" x="64" y="-427.5" font-family="serif" font-size="10.00">::build_mesh</text>
</a>
</g>
</g>
<!-- Node1&#45;&gt;Node3 -->
<g id="edge2" class="edge">
<title>Node1&#45;&gt;Node3</title>
<path fill="none" stroke="midnightblue" d="M200.37,-280.43C190.45,-311.63 167.1,-373.25 128,-411 124.43,-414.45 120.38,-417.56 116.11,-420.36"/>
<polygon fill="midnightblue" stroke="midnightblue" points="203.75,-281.33 203.33,-270.74 197.06,-279.29 203.75,-281.33"/>
</g>
<!-- Node4 -->
<g id="node4" class="node">
<title>Node4</title>
<g id="a_node4"><a xlink:href="structspecialized__spatial__constructor_3_01T_00_013_01_4.html#a8014c724d751df65257185c4cc4ea106" target="_top" xlink:title="Build a three&#45;dimensional mesh by using MFEM inline methods.">
<polygon fill="none" stroke="black" points="4.5,-360.5 4.5,-401.5 123.5,-401.5 123.5,-360.5 4.5,-360.5"/>
<text text-anchor="start" x="12.5" y="-389.5" font-family="serif" font-size="10.00">specialized_spatial</text>
<text text-anchor="start" x="12.5" y="-378.5" font-family="serif" font-size="10.00">_constructor&lt; T, 3 &gt;</text>
<text text-anchor="middle" x="64" y="-367.5" font-family="serif" font-size="10.00">::build_mesh</text>
</a>
</g>
</g>
<!-- Node1&#45;&gt;Node4 -->
<g id="edge3" class="edge">
<title>Node1&#45;&gt;Node4</title>
<path fill="none" stroke="midnightblue" d="M193.92,-278.93C179.93,-298.64 155.27,-330.24 128,-351 123.57,-354.37 118.69,-357.51 113.68,-360.37"/>
<polygon fill="midnightblue" stroke="midnightblue" points="196.91,-280.77 199.74,-270.55 191.16,-276.77 196.91,-280.77"/>
</g>
<!-- Node5 -->
<g id="node5" class="node">
<title>Node5</title>
<g id="a_node5"><a xlink:href="structspecialized__spatial__constructor_3_01T_00_011_01_4.html#acc009540b0294c236332a5179c51d854" target="_top" xlink:title="Build a periodic one&#45;dimensional mesh by using MFEM inline methods.">
<polygon fill="none" stroke="black" points="0,-300.5 0,-341.5 128,-341.5 128,-300.5 0,-300.5"/>
<text text-anchor="start" x="8" y="-329.5" font-family="serif" font-size="10.00">specialized_spatial</text>
<text text-anchor="start" x="8" y="-318.5" font-family="serif" font-size="10.00">_constructor&lt; T, 1 &gt;</text>
<text text-anchor="middle" x="64" y="-307.5" font-family="serif" font-size="10.00">::build_periodic_mesh</text>
</a>
</g>
</g>
<!-- Node1&#45;&gt;Node5 -->
<g id="edge4" class="edge">
<title>Node1&#45;&gt;Node5</title>
<path fill="none" stroke="midnightblue" d="M174.22,-274.53C156.23,-282.18 133.37,-291.91 113.22,-300.48"/>
<polygon fill="midnightblue" stroke="midnightblue" points="175.83,-277.64 183.66,-270.51 173.09,-271.2 175.83,-277.64"/>
</g>
<!-- Node6 -->
<g id="node6" class="node">
<title>Node6</title>
<g id="a_node6"><a xlink:href="structspecialized__spatial__constructor_3_01T_00_012_01_4.html#abe1d650198fb88c3210101569b22a6a3" target="_top" xlink:title="Build a periodic two&#45;dimensional mesh by using MFEM inline methods.">
<polygon fill="none" stroke="black" points="0,-240.5 0,-281.5 128,-281.5 128,-240.5 0,-240.5"/>
<text text-anchor="start" x="8" y="-269.5" font-family="serif" font-size="10.00">specialized_spatial</text>
<text text-anchor="start" x="8" y="-258.5" font-family="serif" font-size="10.00">_constructor&lt; T, 2 &gt;</text>
<text text-anchor="middle" x="64" y="-247.5" font-family="serif" font-size="10.00">::build_periodic_mesh</text>
</a>
</g>
</g>
<!-- Node1&#45;&gt;Node6 -->
<g id="edge5" class="edge">
<title>Node1&#45;&gt;Node6</title>
<path fill="none" stroke="midnightblue" d="M153.46,-261C145.21,-261 136.6,-261 128.13,-261"/>
<polygon fill="midnightblue" stroke="midnightblue" points="153.7,-264.5 163.7,-261 153.7,-257.5 153.7,-264.5"/>
</g>
<!-- Node7 -->
<g id="node7" class="node">
<title>Node7</title>
<g id="a_node7"><a xlink:href="structspecialized__spatial__constructor_3_01T_00_013_01_4.html#a67870a398304104983d23b5886a4844d" target="_top" xlink:title="Build a periodic two&#45;dimensional mesh by using MFEM inline methods.">
<polygon fill="none" stroke="black" points="0,-180.5 0,-221.5 128,-221.5 128,-180.5 0,-180.5"/>
<text text-anchor="start" x="8" y="-209.5" font-family="serif" font-size="10.00">specialized_spatial</text>
<text text-anchor="start" x="8" y="-198.5" font-family="serif" font-size="10.00">_constructor&lt; T, 3 &gt;</text>
<text text-anchor="middle" x="64" y="-187.5" font-family="serif" font-size="10.00">::build_periodic_mesh</text>
</a>
</g>
</g>
<!-- Node1&#45;&gt;Node7 -->
<g id="edge6" class="edge">
<title>Node1&#45;&gt;Node7</title>
<path fill="none" stroke="midnightblue" d="M174.22,-247.47C156.23,-239.82 133.37,-230.09 113.22,-221.52"/>
<polygon fill="midnightblue" stroke="midnightblue" points="173.09,-250.8 183.66,-251.49 175.83,-244.36 173.09,-250.8"/>
</g>
<!-- Node8 -->
<g id="node8" class="node">
<title>Node8</title>
<g id="a_node8"><a xlink:href="structspecialized__spatial__constructor_3_01T_00_011_01_4.html#a9d28d9d2735b1b9d2ca88de45cfda15b" target="_top" xlink:title="operator() specialized for a mesh built from GMSH file">
<polygon fill="none" stroke="black" points="4.5,-120.5 4.5,-161.5 123.5,-161.5 123.5,-120.5 4.5,-120.5"/>
<text text-anchor="start" x="12.5" y="-149.5" font-family="serif" font-size="10.00">specialized_spatial</text>
<text text-anchor="start" x="12.5" y="-138.5" font-family="serif" font-size="10.00">_constructor&lt; T, 1 &gt;</text>
<text text-anchor="middle" x="64" y="-127.5" font-family="serif" font-size="10.00">::operator()</text>
</a>
</g>
</g>
<!-- Node1&#45;&gt;Node8 -->
<g id="edge7" class="edge">
<title>Node1&#45;&gt;Node8</title>
<path fill="none" stroke="midnightblue" d="M193.92,-243.07C179.93,-223.36 155.27,-191.76 128,-171 123.57,-167.63 118.69,-164.49 113.68,-161.63"/>
<polygon fill="midnightblue" stroke="midnightblue" points="191.16,-245.23 199.74,-251.45 196.91,-241.23 191.16,-245.23"/>
</g>
<!-- Node9 -->
<g id="node9" class="node">
<title>Node9</title>
<g id="a_node9"><a xlink:href="structspecialized__spatial__constructor_3_01T_00_012_01_4.html#a367e7535f528d675144feb9ec420a28b" target="_top" xlink:title="operator() specialized for a mesh built from GMSH file">
<polygon fill="none" stroke="black" points="4.5,-60.5 4.5,-101.5 123.5,-101.5 123.5,-60.5 4.5,-60.5"/>
<text text-anchor="start" x="12.5" y="-89.5" font-family="serif" font-size="10.00">specialized_spatial</text>
<text text-anchor="start" x="12.5" y="-78.5" font-family="serif" font-size="10.00">_constructor&lt; T, 2 &gt;</text>
<text text-anchor="middle" x="64" y="-67.5" font-family="serif" font-size="10.00">::operator()</text>
</a>
</g>
</g>
<!-- Node1&#45;&gt;Node9 -->
<g id="edge8" class="edge">
<title>Node1&#45;&gt;Node9</title>
<path fill="none" stroke="midnightblue" d="M200.37,-241.57C190.45,-210.37 167.1,-148.75 128,-111 124.43,-107.55 120.38,-104.44 116.11,-101.64"/>
<polygon fill="midnightblue" stroke="midnightblue" points="197.06,-242.71 203.33,-251.26 203.75,-240.67 197.06,-242.71"/>
</g>
<!-- Node10 -->
<g id="node10" class="node">
<title>Node10</title>
<g id="a_node10"><a xlink:href="structspecialized__spatial__constructor_3_01T_00_013_01_4.html#ac2e4126ca21896e53bd7800cf989d462" target="_top" xlink:title="operator() specialized for a mesh built from GMSH file">
<polygon fill="none" stroke="black" points="4.5,-0.5 4.5,-41.5 123.5,-41.5 123.5,-0.5 4.5,-0.5"/>
<text text-anchor="start" x="12.5" y="-29.5" font-family="serif" font-size="10.00">specialized_spatial</text>
<text text-anchor="start" x="12.5" y="-18.5" font-family="serif" font-size="10.00">_constructor&lt; T, 3 &gt;</text>
<text text-anchor="middle" x="64" y="-7.5" font-family="serif" font-size="10.00">::operator()</text>
</a>
</g>
</g>
<!-- Node1&#45;&gt;Node10 -->
<g id="edge9" class="edge">
<title>Node1&#45;&gt;Node10</title>
<path fill="none" stroke="midnightblue" d="M203.68,-241.39C197.94,-200.96 179.59,-107.39 128,-51 124.81,-47.51 121.13,-44.39 117.18,-41.61"/>
<polygon fill="midnightblue" stroke="midnightblue" points="200.21,-241.85 204.98,-251.31 207.15,-240.94 200.21,-241.85"/>
</g>
</g>
</svg>
        <g id="navigator" transform="translate(0 0)" fill="#404254">
                <rect fill="#f2f5e9" fill-opacity="0.5" stroke="#606060" stroke-width=".5" x="0" y="0" width="60" height="60"/>
                <use id="zoomplus" xlink:href="#zoomPlus" x="17" y="9" onmousedown="handleZoom(evt,'in')"/>
                <use id="zoomminus" xlink:href="#zoomMin" x="42" y="9" onmousedown="handleZoom(evt,'out')"/>
                <use id="reset" xlink:href="#resetDef" x="30" y="36" onmousedown="handleReset()"/>
                <g id="arrowUp" xlink:href="#dirArrow" transform="translate(30 24)" onmousedown="handlePan(0,-1)">
                  <use xlink:href="#rim" fill="#404040">
                        <set attributeName="fill" to="#808080" begin="arrowUp.mouseover" end="arrowUp.mouseout"/>
                  </use>
                  <path fill="none" stroke="white" stroke-width="1.5" d="M0,-3.0v7 M-2.5,-0.5L0,-3.0L2.5,-0.5"/>
                </g>
                <g id="arrowRight" xlink:href="#dirArrow" transform="rotate(90) translate(36 -43)" onmousedown="handlePan(1,0)">
                  <use xlink:href="#rim" fill="#404040">
                        <set attributeName="fill" to="#808080" begin="arrowRight.mouseover" end="arrowRight.mouseout"/>
                  </use>
                  <path fill="none" stroke="white" stroke-width="1.5" d="M0,-3.0v7 M-2.5,-0.5L0,-3.0L2.5,-0.5"/>
                </g>
                <g id="arrowDown" xlink:href="#dirArrow" transform="rotate(180) translate(-30 -48)" onmousedown="handlePan(0,1)">
                  <use xlink:href="#rim" fill="#404040">
                        <set attributeName="fill" to="#808080" begin="arrowDown.mouseover" end="arrowDown.mouseout"/>
                  </use>
                  <path fill="none" stroke="white" stroke-width="1.5" d="M0,-3.0v7 M-2.5,-0.5L0,-3.0L2.5,-0.5"/>
                </g>
                <g id="arrowLeft" xlink:href="#dirArrow" transform="rotate(270) translate(-36 17)" onmousedown="handlePan(-1,0)">
                  <use xlink:href="#rim" fill="#404040">
                        <set attributeName="fill" to="#808080" begin="arrowLeft.mouseover" end="arrowLeft.mouseout"/>
                  </use>
                  <path fill="none" stroke="white" stroke-width="1.5" d="M0,-3.0v7 M-2.5,-0.5L0,-3.0L2.5,-0.5"/>
                </g>
        </g>
        <svg viewBox="0 0 15 15" width="100%" height="30px" preserveAspectRatio="xMaxYMin meet">
         <g id="arrow_out" transform="scale(0.3 0.3)">
          <a xlink:href="structMeshes_a41bce2494d7e83bb16a7f79faf1c5d97_icgraph_org.svg" target="_base">
           <rect id="button" ry="5" rx="5" y="6" x="6" height="38" width="38"
                fill="#f2f5e9" fill-opacity="0.5" stroke="#606060" stroke-width="1.0"/>
           <path id="arrow"
             d="M 11.500037,31.436501 C 11.940474,20.09759 22.043105,11.32322 32.158766,21.979434 L 37.068811,17.246167 C 37.068811,17.246167 37.088388,32 37.088388,32 L 22.160133,31.978069 C 22.160133,31.978069 26.997745,27.140456 26.997745,27.140456 C 18.528582,18.264221 13.291696,25.230495 11.500037,31.436501 z"
             style="fill:#404040;"/>
          </a>
         </g>
        </svg>
</svg>
