<?xml version="1.0" encoding="UTF-8" standalone="no"?>
<!DOCTYPE svg PUBLIC "-//W3C//DTD SVG 1.1//EN"
 "http://www.w3.org/Graphics/SVG/1.1/DTD/svg11.dtd">
<!-- Generated by graphviz version 2.43.0 (0)
 -->
<!-- Title: density_function&lt; 1 &gt;::getLinear Pages: 1 -->
<svg width="489pt" height="66pt"
 viewBox="0.00 0.00 489.00 66.00" xmlns="http://www.w3.org/2000/svg" xmlns:xlink="http://www.w3.org/1999/xlink">
<g id="graph0" class="graph" transform="scale(1 1) rotate(0) translate(4 62)">
<title>density_function&lt; 1 &gt;::getLinear</title>
<!-- Node1 -->
<g id="node1" class="node">
<title>Node1</title>
<g id="a_node1"><a xlink:title="Get the Linear Density function (1st derivative)">
<polygon fill="#bfbfbf" stroke="black" points="0,-14 0,-44 119,-44 119,-14 0,-14"/>
<text text-anchor="start" x="8" y="-32" font-family="serif" font-size="10.00">density_function&lt; 1</text>
<text text-anchor="middle" x="59.5" y="-21" font-family="serif" font-size="10.00"> &gt;::getLinear</text>
</a>
</g>
</g>
<!-- Node2 -->
<g id="node2" class="node">
<title>Node2</title>
<g id="a_node2"><a xlink:href="classParameters.html#ae3b314c5ebc3fde8684b0634b2406da6" target="_top" xlink:title="Return the value of the parameter associated to the given name.">
<polygon fill="none" stroke="black" points="155,-14 155,-44 290,-44 290,-14 155,-14"/>
<text text-anchor="start" x="163" y="-32" font-family="serif" font-size="10.00">Parameters::get_param</text>
<text text-anchor="middle" x="222.5" y="-21" font-family="serif" font-size="10.00">_value</text>
</a>
</g>
</g>
<!-- Node1&#45;&gt;Node2 -->
<g id="edge1" class="edge">
<title>Node1&#45;&gt;Node2</title>
<path fill="none" stroke="midnightblue" d="M119.08,-29C127.42,-29 136.09,-29 144.71,-29"/>
<polygon fill="midnightblue" stroke="midnightblue" points="144.78,-32.5 154.78,-29 144.78,-25.5 144.78,-32.5"/>
</g>
<!-- Node3 -->
<g id="node3" class="node">
<title>Node3</title>
<g id="a_node3"><a xlink:href="classParameters.html#aacf1a423c07aa2e63d2397fe903a1388" target="_top" xlink:title="Return the parameter associated to the given name.">
<polygon fill="none" stroke="black" points="326,-38.5 326,-57.5 481,-57.5 481,-38.5 326,-38.5"/>
<text text-anchor="middle" x="403.5" y="-45.5" font-family="serif" font-size="10.00">Parameters::get_parameter</text>
</a>
</g>
</g>
<!-- Node2&#45;&gt;Node3 -->
<g id="edge2" class="edge">
<title>Node2&#45;&gt;Node3</title>
<path fill="none" stroke="midnightblue" d="M290.15,-36.07C298.51,-36.96 307.16,-37.88 315.77,-38.79"/>
<polygon fill="midnightblue" stroke="midnightblue" points="315.52,-42.29 325.84,-39.86 316.26,-35.33 315.52,-42.29"/>
</g>
<!-- Node4 -->
<g id="node4" class="node">
<title>Node4</title>
<g id="a_node4"><a xlink:href="classParameter.html#a7874e1270fe62aecf3063a4f9edecb47" target="_top" xlink:title="Return the value of the paramter.">
<polygon fill="none" stroke="black" points="341,-0.5 341,-19.5 466,-19.5 466,-0.5 341,-0.5"/>
<text text-anchor="middle" x="403.5" y="-7.5" font-family="serif" font-size="10.00">Parameter::get_value</text>
</a>
</g>
</g>
<!-- Node2&#45;&gt;Node4 -->
<g id="edge3" class="edge">
<title>Node2&#45;&gt;Node4</title>
<path fill="none" stroke="midnightblue" d="M290.15,-21.93C303.38,-20.52 317.32,-19.04 330.71,-17.62"/>
<polygon fill="midnightblue" stroke="midnightblue" points="331.25,-21.08 340.82,-16.55 330.51,-14.12 331.25,-21.08"/>
</g>
</g>
</svg>
