<?xml version="1.0" encoding="UTF-8" standalone="no"?>
<!DOCTYPE svg PUBLIC "-//W3C//DTD SVG 1.1//EN"
 "http://www.w3.org/Graphics/SVG/1.1/DTD/svg11.dtd">
<!-- Generated by graphviz version 2.43.0 (0)
 -->
<!-- Title: SetPrecondSolver::operator() Pages: 1 -->
<svg width="493pt" height="196pt"
 viewBox="0.00 0.00 493.00 195.83" xmlns="http://www.w3.org/2000/svg" xmlns:xlink="http://www.w3.org/1999/xlink">
<g id="graph0" class="graph" transform="scale(1 1) rotate(0) translate(4 191.83)">
<title>SetPrecondSolver::operator()</title>
<!-- Node1 -->
<g id="node1" class="node">
<title>Node1</title>
<g id="a_node1"><a xlink:title="Main function.">
<polygon fill="#bfbfbf" stroke="black" points="0,-93.5 0,-112.5 164,-112.5 164,-93.5 0,-93.5"/>
<text text-anchor="middle" x="82" y="-100.5" font-family="serif" font-size="10.00">SetPrecondSolver::operator()</text>
</a>
</g>
</g>
<!-- Node2 -->
<g id="node2" class="node">
<title>Node2</title>
<g id="a_node2"><a xlink:href="classSlothInfo.html#a854d3cafdb9f5a77f1063a27d2a27e04" target="_top" xlink:title="Print information on Debug mode.">
<polygon fill="none" stroke="black" points="383,-142.5 383,-161.5 485,-161.5 485,-142.5 383,-142.5"/>
<text text-anchor="middle" x="434" y="-149.5" font-family="serif" font-size="10.00">SlothInfo::debug</text>
</a>
</g>
</g>
<!-- Node1&#45;&gt;Node2 -->
<g id="edge1" class="edge">
<title>Node1&#45;&gt;Node2</title>
<path fill="none" stroke="midnightblue" d="M93.57,-112.69C112.94,-129.69 156.14,-164.29 200,-177 262.75,-195.18 282.32,-186.21 347,-177 363.92,-174.59 382.17,-169.64 397.48,-164.78"/>
<polygon fill="midnightblue" stroke="midnightblue" points="398.67,-168.07 407.08,-161.62 396.48,-161.42 398.67,-168.07"/>
</g>
<!-- Node3 -->
<g id="node3" class="node">
<title>Node3</title>
<g id="a_node3"><a xlink:href="structUtilsSolvers.html#a840e1af50b97b7df296c16477f372d3d" target="_top" xlink:title="Print the name of the Preconditioner.">
<polygon fill="none" stroke="black" points="219.5,-137 219.5,-167 327.5,-167 327.5,-137 219.5,-137"/>
<text text-anchor="start" x="227.5" y="-155" font-family="serif" font-size="10.00">UtilsSolvers::print</text>
<text text-anchor="middle" x="273.5" y="-144" font-family="serif" font-size="10.00">_prec_name</text>
</a>
</g>
</g>
<!-- Node1&#45;&gt;Node3 -->
<g id="edge2" class="edge">
<title>Node1&#45;&gt;Node3</title>
<path fill="none" stroke="midnightblue" d="M119.99,-112.56C145.44,-119.14 179.88,-128.05 209.59,-135.73"/>
<polygon fill="midnightblue" stroke="midnightblue" points="208.91,-139.17 219.47,-138.29 210.67,-132.4 208.91,-139.17"/>
</g>
<!-- Node4 -->
<g id="node4" class="node">
<title>Node4</title>
<g id="a_node4"><a xlink:href="structUtilsSolvers.html#ad4e84303433eca9ff539ea48b744d9d4" target="_top" xlink:title="Print the name of the Solver.">
<polygon fill="none" stroke="black" points="219.5,-88 219.5,-118 327.5,-118 327.5,-88 219.5,-88"/>
<text text-anchor="start" x="227.5" y="-106" font-family="serif" font-size="10.00">UtilsSolvers::print</text>
<text text-anchor="middle" x="273.5" y="-95" font-family="serif" font-size="10.00">_solver_name</text>
</a>
</g>
</g>
<!-- Node1&#45;&gt;Node4 -->
<g id="edge4" class="edge">
<title>Node1&#45;&gt;Node4</title>
<path fill="none" stroke="midnightblue" d="M164.19,-103C179.23,-103 194.73,-103 209.13,-103"/>
<polygon fill="midnightblue" stroke="midnightblue" points="209.41,-106.5 219.41,-103 209.41,-99.5 209.41,-106.5"/>
</g>
<!-- Node5 -->
<g id="node5" class="node">
<title>Node5</title>
<g id="a_node5"><a xlink:href="structUtilsSolvers.html#a98ebbbe323b0f06e83cf7e8c4d7dbb3c" target="_top" xlink:title="Set the Hypre Solver object.">
<polygon fill="none" stroke="black" points="217,-39 217,-69 330,-69 330,-39 217,-39"/>
<text text-anchor="start" x="225" y="-57" font-family="serif" font-size="10.00">UtilsSolvers::setter</text>
<text text-anchor="middle" x="273.5" y="-46" font-family="serif" font-size="10.00">_hypre</text>
</a>
</g>
</g>
<!-- Node1&#45;&gt;Node5 -->
<g id="edge6" class="edge">
<title>Node1&#45;&gt;Node5</title>
<path fill="none" stroke="midnightblue" d="M119.99,-93.44C144.76,-87.03 178.05,-78.42 207.21,-70.88"/>
<polygon fill="midnightblue" stroke="midnightblue" points="208.12,-74.26 216.92,-68.37 206.37,-67.49 208.12,-74.26"/>
</g>
<!-- Node6 -->
<g id="node6" class="node">
<title>Node6</title>
<g id="a_node6"><a xlink:href="structUtilsSolvers.html#a4a427231156cc008b1ece4ef28992f5a" target="_top" xlink:title="Set the mfem Solver object.">
<polygon fill="none" stroke="black" points="200,-0.5 200,-19.5 347,-19.5 347,-0.5 200,-0.5"/>
<text text-anchor="middle" x="273.5" y="-7.5" font-family="serif" font-size="10.00">UtilsSolvers::setter_mfem</text>
</a>
</g>
</g>
<!-- Node1&#45;&gt;Node6 -->
<g id="edge7" class="edge">
<title>Node1&#45;&gt;Node6</title>
<path fill="none" stroke="midnightblue" d="M95.65,-93.38C116.4,-77.99 159.44,-47.8 200,-30 206.35,-27.22 213.18,-24.73 220.02,-22.53"/>
<polygon fill="midnightblue" stroke="midnightblue" points="221.43,-25.76 230,-19.52 219.41,-19.06 221.43,-25.76"/>
</g>
<!-- Node3&#45;&gt;Node2 -->
<g id="edge3" class="edge">
<title>Node3&#45;&gt;Node2</title>
<path fill="none" stroke="midnightblue" d="M327.72,-152C342.19,-152 357.96,-152 372.78,-152"/>
<polygon fill="midnightblue" stroke="midnightblue" points="372.87,-155.5 382.87,-152 372.87,-148.5 372.87,-155.5"/>
</g>
<!-- Node4&#45;&gt;Node2 -->
<g id="edge5" class="edge">
<title>Node4&#45;&gt;Node2</title>
<path fill="none" stroke="midnightblue" d="M323.35,-118.1C345.49,-124.95 371.37,-132.95 392.42,-139.46"/>
<polygon fill="midnightblue" stroke="midnightblue" points="391.44,-142.81 402.03,-142.42 393.51,-136.13 391.44,-142.81"/>
</g>
</g>
</svg>
