<?xml version="1.0" encoding="UTF-8" standalone="no"?>
<!DOCTYPE svg PUBLIC "-//W3C//DTD SVG 1.1//EN"
 "http://www.w3.org/Graphics/SVG/1.1/DTD/svg11.dtd">
<!-- Generated by graphviz version 2.43.0 (0)
 -->
<!-- Title: SetPrecondNLSolver::operator() Pages: 1 -->
<svg width="452pt" height="196pt"
 viewBox="0.00 0.00 452.00 195.95" xmlns="http://www.w3.org/2000/svg" xmlns:xlink="http://www.w3.org/1999/xlink">
<g id="graph0" class="graph" transform="scale(1 1) rotate(0) translate(4 191.95)">
<title>SetPrecondNLSolver::operator()</title>
<!-- Node1 -->
<g id="node1" class="node">
<title>Node1</title>
<g id="a_node1"><a xlink:title="Main function.">
<polygon fill="#bfbfbf" stroke="black" points="0,-88 0,-118 123,-118 123,-88 0,-88"/>
<text text-anchor="start" x="8" y="-106" font-family="serif" font-size="10.00">SetPrecondNLSolver</text>
<text text-anchor="middle" x="61.5" y="-95" font-family="serif" font-size="10.00">::operator()</text>
</a>
</g>
</g>
<!-- Node2 -->
<g id="node2" class="node">
<title>Node2</title>
<g id="a_node2"><a xlink:href="classSlothInfo.html#a854d3cafdb9f5a77f1063a27d2a27e04" target="_top" xlink:title="Print information on Debug mode.">
<polygon fill="none" stroke="black" points="342,-142.5 342,-161.5 444,-161.5 444,-142.5 342,-142.5"/>
<text text-anchor="middle" x="393" y="-149.5" font-family="serif" font-size="10.00">SlothInfo::debug</text>
</a>
</g>
</g>
<!-- Node1&#45;&gt;Node2 -->
<g id="edge1" class="edge">
<title>Node1&#45;&gt;Node2</title>
<path fill="none" stroke="midnightblue" d="M76.04,-118.22C93.24,-136.28 124.81,-165.4 159,-177 226.48,-199.89 310.69,-179.76 357.15,-164.76"/>
<polygon fill="midnightblue" stroke="midnightblue" points="358.37,-168.04 366.75,-161.56 356.15,-161.4 358.37,-168.04"/>
</g>
<!-- Node3 -->
<g id="node3" class="node">
<title>Node3</title>
<g id="a_node3"><a xlink:href="structUtilsSolvers.html#a840e1af50b97b7df296c16477f372d3d" target="_top" xlink:title="Print the name of the Preconditioner.">
<polygon fill="none" stroke="black" points="178.5,-137 178.5,-167 286.5,-167 286.5,-137 178.5,-137"/>
<text text-anchor="start" x="186.5" y="-155" font-family="serif" font-size="10.00">UtilsSolvers::print</text>
<text text-anchor="middle" x="232.5" y="-144" font-family="serif" font-size="10.00">_prec_name</text>
</a>
</g>
</g>
<!-- Node1&#45;&gt;Node3 -->
<g id="edge2" class="edge">
<title>Node1&#45;&gt;Node3</title>
<path fill="none" stroke="midnightblue" d="M114.58,-118.1C132.1,-123.18 151.79,-128.89 169.96,-134.16"/>
<polygon fill="midnightblue" stroke="midnightblue" points="169.01,-137.53 179.59,-136.95 170.96,-130.8 169.01,-137.53"/>
</g>
<!-- Node4 -->
<g id="node4" class="node">
<title>Node4</title>
<g id="a_node4"><a xlink:href="structUtilsSolvers.html#ad4e84303433eca9ff539ea48b744d9d4" target="_top" xlink:title="Print the name of the Solver.">
<polygon fill="none" stroke="black" points="178.5,-88 178.5,-118 286.5,-118 286.5,-88 178.5,-88"/>
<text text-anchor="start" x="186.5" y="-106" font-family="serif" font-size="10.00">UtilsSolvers::print</text>
<text text-anchor="middle" x="232.5" y="-95" font-family="serif" font-size="10.00">_solver_name</text>
</a>
</g>
</g>
<!-- Node1&#45;&gt;Node4 -->
<g id="edge4" class="edge">
<title>Node1&#45;&gt;Node4</title>
<path fill="none" stroke="midnightblue" d="M123.04,-103C137.73,-103 153.49,-103 168.3,-103"/>
<polygon fill="midnightblue" stroke="midnightblue" points="168.39,-106.5 178.39,-103 168.39,-99.5 168.39,-106.5"/>
</g>
<!-- Node5 -->
<g id="node5" class="node">
<title>Node5</title>
<g id="a_node5"><a xlink:href="structUtilsSolvers.html#a98ebbbe323b0f06e83cf7e8c4d7dbb3c" target="_top" xlink:title="Set the Hypre Solver object.">
<polygon fill="none" stroke="black" points="176,-39 176,-69 289,-69 289,-39 176,-39"/>
<text text-anchor="start" x="184" y="-57" font-family="serif" font-size="10.00">UtilsSolvers::setter</text>
<text text-anchor="middle" x="232.5" y="-46" font-family="serif" font-size="10.00">_hypre</text>
</a>
</g>
</g>
<!-- Node1&#45;&gt;Node5 -->
<g id="edge6" class="edge">
<title>Node1&#45;&gt;Node5</title>
<path fill="none" stroke="midnightblue" d="M114.58,-87.9C132.1,-82.82 151.79,-77.11 169.96,-71.84"/>
<polygon fill="midnightblue" stroke="midnightblue" points="170.96,-75.2 179.59,-69.05 169.01,-68.47 170.96,-75.2"/>
</g>
<!-- Node6 -->
<g id="node6" class="node">
<title>Node6</title>
<g id="a_node6"><a xlink:href="structUtilsSolvers.html#a4a427231156cc008b1ece4ef28992f5a" target="_top" xlink:title="Set the mfem Solver object.">
<polygon fill="none" stroke="black" points="159,-0.5 159,-19.5 306,-19.5 306,-0.5 159,-0.5"/>
<text text-anchor="middle" x="232.5" y="-7.5" font-family="serif" font-size="10.00">UtilsSolvers::setter_mfem</text>
</a>
</g>
</g>
<!-- Node1&#45;&gt;Node6 -->
<g id="edge7" class="edge">
<title>Node1&#45;&gt;Node6</title>
<path fill="none" stroke="midnightblue" d="M78.3,-88C96.44,-71.54 127.73,-45.43 159,-30 164.61,-27.23 170.66,-24.8 176.79,-22.67"/>
<polygon fill="midnightblue" stroke="midnightblue" points="177.97,-25.97 186.43,-19.58 175.84,-19.3 177.97,-25.97"/>
</g>
<!-- Node3&#45;&gt;Node2 -->
<g id="edge3" class="edge">
<title>Node3&#45;&gt;Node2</title>
<path fill="none" stroke="midnightblue" d="M286.72,-152C301.19,-152 316.96,-152 331.78,-152"/>
<polygon fill="midnightblue" stroke="midnightblue" points="331.87,-155.5 341.87,-152 331.87,-148.5 331.87,-155.5"/>
</g>
<!-- Node4&#45;&gt;Node2 -->
<g id="edge5" class="edge">
<title>Node4&#45;&gt;Node2</title>
<path fill="none" stroke="midnightblue" d="M282.35,-118.1C304.49,-124.95 330.37,-132.95 351.42,-139.46"/>
<polygon fill="midnightblue" stroke="midnightblue" points="350.44,-142.81 361.03,-142.42 352.51,-136.13 350.44,-142.81"/>
</g>
</g>
</svg>
