<?xml version="1.0" encoding="UTF-8" standalone="no"?>
<!DOCTYPE svg PUBLIC "-//W3C//DTD SVG 1.1//EN"
 "http://www.w3.org/Graphics/SVG/1.1/DTD/svg11.dtd">
<!-- Generated by graphviz version 2.43.0 (0)
 -->
<!-- Title: Mobility_function&lt; 0 &gt;::getDegenerated Pages: 1 -->
<svg width="496pt" height="66pt"
 viewBox="0.00 0.00 496.00 66.00" xmlns="http://www.w3.org/2000/svg" xmlns:xlink="http://www.w3.org/1999/xlink">
<g id="graph0" class="graph" transform="scale(1 1) rotate(0) translate(4 62)">
<title>Mobility_function&lt; 0 &gt;::getDegenerated</title>
<!-- Node1 -->
<g id="node1" class="node">
<title>Node1</title>
<g id="a_node1"><a xlink:title="Get the Degenerated Mobility function.">
<polygon fill="#bfbfbf" stroke="black" points="0,-14 0,-44 126,-44 126,-14 0,-14"/>
<text text-anchor="start" x="8" y="-32" font-family="serif" font-size="10.00">Mobility_function&lt;</text>
<text text-anchor="middle" x="63" y="-21" font-family="serif" font-size="10.00"> 0 &gt;::getDegenerated</text>
</a>
</g>
</g>
<!-- Node2 -->
<g id="node2" class="node">
<title>Node2</title>
<g id="a_node2"><a xlink:href="classParameters.html#ae3b314c5ebc3fde8684b0634b2406da6" target="_top" xlink:title="Return the value of the parameter associated to the given name.">
<polygon fill="none" stroke="black" points="162,-14 162,-44 297,-44 297,-14 162,-14"/>
<text text-anchor="start" x="170" y="-32" font-family="serif" font-size="10.00">Parameters::get_param</text>
<text text-anchor="middle" x="229.5" y="-21" font-family="serif" font-size="10.00">_value</text>
</a>
</g>
</g>
<!-- Node1&#45;&gt;Node2 -->
<g id="edge1" class="edge">
<title>Node1&#45;&gt;Node2</title>
<path fill="none" stroke="midnightblue" d="M126.19,-29C134.56,-29 143.23,-29 151.81,-29"/>
<polygon fill="midnightblue" stroke="midnightblue" points="151.83,-32.5 161.83,-29 151.83,-25.5 151.83,-32.5"/>
</g>
<!-- Node3 -->
<g id="node3" class="node">
<title>Node3</title>
<g id="a_node3"><a xlink:href="classParameters.html#aacf1a423c07aa2e63d2397fe903a1388" target="_top" xlink:title="Return the parameter associated to the given name.">
<polygon fill="none" stroke="black" points="333,-38.5 333,-57.5 488,-57.5 488,-38.5 333,-38.5"/>
<text text-anchor="middle" x="410.5" y="-45.5" font-family="serif" font-size="10.00">Parameters::get_parameter</text>
</a>
</g>
</g>
<!-- Node2&#45;&gt;Node3 -->
<g id="edge2" class="edge">
<title>Node2&#45;&gt;Node3</title>
<path fill="none" stroke="midnightblue" d="M297.15,-36.07C305.51,-36.96 314.16,-37.88 322.77,-38.79"/>
<polygon fill="midnightblue" stroke="midnightblue" points="322.52,-42.29 332.84,-39.86 323.26,-35.33 322.52,-42.29"/>
</g>
<!-- Node4 -->
<g id="node4" class="node">
<title>Node4</title>
<g id="a_node4"><a xlink:href="classParameter.html#a7874e1270fe62aecf3063a4f9edecb47" target="_top" xlink:title="Return the value of the paramter.">
<polygon fill="none" stroke="black" points="348,-0.5 348,-19.5 473,-19.5 473,-0.5 348,-0.5"/>
<text text-anchor="middle" x="410.5" y="-7.5" font-family="serif" font-size="10.00">Parameter::get_value</text>
</a>
</g>
</g>
<!-- Node2&#45;&gt;Node4 -->
<g id="edge3" class="edge">
<title>Node2&#45;&gt;Node4</title>
<path fill="none" stroke="midnightblue" d="M297.15,-21.93C310.38,-20.52 324.32,-19.04 337.71,-17.62"/>
<polygon fill="midnightblue" stroke="midnightblue" points="338.25,-21.08 347.82,-16.55 337.51,-14.12 338.25,-21.08"/>
</g>
</g>
</svg>
