<?xml version="1.0" encoding="UTF-8" standalone="no"?>
<!DOCTYPE svg PUBLIC "-//W3C//DTD SVG 1.1//EN"
 "http://www.w3.org/Graphics/SVG/1.1/DTD/svg11.dtd">
<!-- Generated by graphviz version 2.43.0 (0)
 -->
<!-- Title: specialized_spatial_constructor&lt; T, 1 &gt;::operator() Pages: 1 -->
<svg width="451pt" height="165pt"
 viewBox="0.00 0.00 451.00 165.00" xmlns="http://www.w3.org/2000/svg" xmlns:xlink="http://www.w3.org/1999/xlink">
<g id="graph0" class="graph" transform="scale(1 1) rotate(0) translate(4 161)">
<title>specialized_spatial_constructor&lt; T, 1 &gt;::operator()</title>
<!-- Node1 -->
<g id="node1" class="node">
<title>Node1</title>
<g id="a_node1"><a xlink:title="operator() specialized for a mesh built from GMSH file">
<polygon fill="#bfbfbf" stroke="black" points="0,-57.5 0,-98.5 119,-98.5 119,-57.5 0,-57.5"/>
<text text-anchor="start" x="8" y="-86.5" font-family="serif" font-size="10.00">specialized_spatial</text>
<text text-anchor="start" x="8" y="-75.5" font-family="serif" font-size="10.00">_constructor&lt; T, 1 &gt;</text>
<text text-anchor="middle" x="59.5" y="-64.5" font-family="serif" font-size="10.00">::operator()</text>
</a>
</g>
</g>
<!-- Node2 -->
<g id="node2" class="node">
<title>Node2</title>
<g id="a_node2"><a xlink:href="structMeshes.html#a41bce2494d7e83bb16a7f79faf1c5d97" target="_top" xlink:title=" ">
<polygon fill="none" stroke="black" points="187,-137.5 187,-156.5 273,-156.5 273,-137.5 187,-137.5"/>
<text text-anchor="middle" x="230" y="-144.5" font-family="serif" font-size="10.00">Meshes::from</text>
</a>
</g>
</g>
<!-- Node1&#45;&gt;Node2 -->
<g id="edge1" class="edge">
<title>Node1&#45;&gt;Node2</title>
<path fill="none" stroke="midnightblue" d="M94.58,-98.54C112.16,-108.48 134.23,-119.97 155,-128 162.05,-130.73 169.64,-133.18 177.16,-135.35"/>
<polygon fill="midnightblue" stroke="midnightblue" points="176.4,-138.77 186.97,-138.04 178.25,-132.02 176.4,-138.77"/>
</g>
<!-- Node3 -->
<g id="node3" class="node">
<title>Node3</title>
<g id="a_node3"><a xlink:href="classSpatialDiscretization.html#a60e42688ee029c0c0f622912b1ea66f4" target="_top" xlink:title=" ">
<polygon fill="none" stroke="black" points="159.5,-88 159.5,-118 300.5,-118 300.5,-88 159.5,-88"/>
<text text-anchor="start" x="167.5" y="-106" font-family="serif" font-size="10.00">SpatialDiscretization</text>
<text text-anchor="middle" x="230" y="-95" font-family="serif" font-size="10.00">::GMSHReaderSplitFiles</text>
</a>
</g>
</g>
<!-- Node1&#45;&gt;Node3 -->
<g id="edge2" class="edge">
<title>Node1&#45;&gt;Node3</title>
<path fill="none" stroke="midnightblue" d="M119.43,-86.74C129.11,-88.18 139.28,-89.69 149.37,-91.19"/>
<polygon fill="midnightblue" stroke="midnightblue" points="149,-94.67 159.4,-92.67 150.02,-87.74 149,-94.67"/>
</g>
<!-- Node4 -->
<g id="node4" class="node">
<title>Node4</title>
<g id="a_node4"><a xlink:href="classSpatialDiscretization.html#a8400a265a094312b4d57708d44f9d627" target="_top" xlink:title="Set the FE_Collection, the FE_Space and associated size.">
<polygon fill="none" stroke="black" points="155,-39 155,-69 305,-69 305,-39 155,-39"/>
<text text-anchor="start" x="163" y="-57" font-family="serif" font-size="10.00">SpatialDiscretization</text>
<text text-anchor="middle" x="230" y="-46" font-family="serif" font-size="10.00">::set_finite_element_space</text>
</a>
</g>
</g>
<!-- Node1&#45;&gt;Node4 -->
<g id="edge3" class="edge">
<title>Node1&#45;&gt;Node4</title>
<path fill="none" stroke="midnightblue" d="M119.43,-69.61C127.69,-68.43 136.3,-67.2 144.91,-65.98"/>
<polygon fill="midnightblue" stroke="midnightblue" points="145.58,-69.42 154.99,-64.54 144.6,-62.49 145.58,-69.42"/>
</g>
<!-- Node6 -->
<g id="node6" class="node">
<title>Node6</title>
<g id="a_node6"><a xlink:href="classSlothInfo.html#ad6fa3fa2789f2c6779ba9c6ec2712c31" target="_top" xlink:title="Print information on Normal mode.">
<polygon fill="none" stroke="black" points="175,-0.5 175,-19.5 285,-19.5 285,-0.5 175,-0.5"/>
<text text-anchor="middle" x="230" y="-7.5" font-family="serif" font-size="10.00">SlothInfo::verbose</text>
</a>
</g>
</g>
<!-- Node1&#45;&gt;Node6 -->
<g id="edge5" class="edge">
<title>Node1&#45;&gt;Node6</title>
<path fill="none" stroke="midnightblue" d="M96.95,-57.27C114.17,-48.05 135.25,-37.59 155,-30 162.34,-27.18 170.23,-24.6 178.03,-22.29"/>
<polygon fill="midnightblue" stroke="midnightblue" points="179.14,-25.61 187.8,-19.52 177.23,-18.88 179.14,-25.61"/>
</g>
<!-- Node5 -->
<g id="node5" class="node">
<title>Node5</title>
<g id="a_node5"><a xlink:href="classSlothInfo.html#a854d3cafdb9f5a77f1063a27d2a27e04" target="_top" xlink:title="Print information on Debug mode.">
<polygon fill="none" stroke="black" points="341,-44.5 341,-63.5 443,-63.5 443,-44.5 341,-44.5"/>
<text text-anchor="middle" x="392" y="-51.5" font-family="serif" font-size="10.00">SlothInfo::debug</text>
</a>
</g>
</g>
<!-- Node4&#45;&gt;Node5 -->
<g id="edge4" class="edge">
<title>Node4&#45;&gt;Node5</title>
<path fill="none" stroke="midnightblue" d="M305.38,-54C313.76,-54 322.22,-54 330.39,-54"/>
<polygon fill="midnightblue" stroke="midnightblue" points="330.56,-57.5 340.56,-54 330.56,-50.5 330.56,-57.5"/>
</g>
</g>
</svg>
