<?xml version="1.0" encoding="UTF-8" standalone="no"?>
<!DOCTYPE svg PUBLIC "-//W3C//DTD SVG 1.1//EN"
 "http://www.w3.org/Graphics/SVG/1.1/DTD/svg11.dtd">
<!-- Generated by graphviz version 2.43.0 (0)
 -->
<!-- Title: KKS_nucleation_strategy::from Pages: 1 -->
<svg width="340pt" height="66pt"
 viewBox="0.00 0.00 340.00 66.00" xmlns="http://www.w3.org/2000/svg" xmlns:xlink="http://www.w3.org/1999/xlink">
<g id="graph0" class="graph" transform="scale(1 1) rotate(0) translate(4 62)">
<title>KKS_nucleation_strategy::from</title>
<!-- Node1 -->
<g id="node1" class="node">
<title>Node1</title>
<g id="a_node1"><a xlink:title=" ">
<polygon fill="#bfbfbf" stroke="black" points="188,-14 188,-44 332,-44 332,-14 188,-14"/>
<text text-anchor="start" x="196" y="-32" font-family="serif" font-size="10.00">KKS_nucleation_strategy</text>
<text text-anchor="middle" x="260" y="-21" font-family="serif" font-size="10.00">::from</text>
</a>
</g>
</g>
<!-- Node2 -->
<g id="node2" class="node">
<title>Node2</title>
<g id="a_node2"><a xlink:href="classKKS.html#adb4477c43ac2d3cef4abecf5d7a31c46" target="_top" xlink:title="Compute Calphad contributions needed by KKS resolution.">
<polygon fill="none" stroke="black" points="0,-38.5 0,-57.5 152,-57.5 152,-38.5 0,-38.5"/>
<text text-anchor="middle" x="76" y="-45.5" font-family="serif" font-size="10.00">KKS::execute_linearization</text>
</a>
</g>
</g>
<!-- Node1&#45;&gt;Node2 -->
<g id="edge1" class="edge">
<title>Node1&#45;&gt;Node2</title>
<path fill="none" stroke="midnightblue" d="M177.83,-37.47C169.24,-38.37 160.52,-39.28 152,-40.17"/>
<polygon fill="midnightblue" stroke="midnightblue" points="178.27,-40.95 187.85,-36.43 177.54,-33.98 178.27,-40.95"/>
</g>
<!-- Node3 -->
<g id="node3" class="node">
<title>Node3</title>
<g id="a_node3"><a xlink:href="classKKS.html#aa8eded958ee594c717a21555f2a5fa88" target="_top" xlink:title="Get all parameters required by KKS problem.">
<polygon fill="none" stroke="black" points="13.5,-0.5 13.5,-19.5 138.5,-19.5 138.5,-0.5 13.5,-0.5"/>
<text text-anchor="middle" x="76" y="-7.5" font-family="serif" font-size="10.00">KKS::get_parameters</text>
</a>
</g>
</g>
<!-- Node1&#45;&gt;Node3 -->
<g id="edge2" class="edge">
<title>Node1&#45;&gt;Node3</title>
<path fill="none" stroke="midnightblue" d="M177.86,-20.53C164.69,-19.15 151.25,-17.75 138.65,-16.44"/>
<polygon fill="midnightblue" stroke="midnightblue" points="177.54,-24.02 187.85,-21.57 178.27,-17.05 177.54,-24.02"/>
</g>
</g>
</svg>
