<?xml version="1.0" encoding="UTF-8" standalone="no"?>
<!DOCTYPE svg PUBLIC "-//W3C//DTD SVG 1.1//EN"
 "http://www.w3.org/Graphics/SVG/1.1/DTD/svg11.dtd">
<!-- Generated by graphviz version 2.43.0 (0)
 -->
<!-- Title: specialized_spatial_constructor&lt; T, 3 &gt;::operator() Pages: 1 -->
<svg width="459pt" height="215pt"
 viewBox="0.00 0.00 459.00 214.50" xmlns="http://www.w3.org/2000/svg" xmlns:xlink="http://www.w3.org/1999/xlink">
<g id="graph0" class="graph" transform="scale(1 1) rotate(0) translate(4 210.5)">
<title>specialized_spatial_constructor&lt; T, 3 &gt;::operator()</title>
<!-- Node1 -->
<g id="node1" class="node">
<title>Node1</title>
<g id="a_node1"><a xlink:title="operator() specialized for a mesh built from GMSH file">
<polygon fill="#bfbfbf" stroke="black" points="0,-82.5 0,-123.5 119,-123.5 119,-82.5 0,-82.5"/>
<text text-anchor="start" x="8" y="-111.5" font-family="serif" font-size="10.00">specialized_spatial</text>
<text text-anchor="start" x="8" y="-100.5" font-family="serif" font-size="10.00">_constructor&lt; T, 3 &gt;</text>
<text text-anchor="middle" x="59.5" y="-89.5" font-family="serif" font-size="10.00">::operator()</text>
</a>
</g>
</g>
<!-- Node2 -->
<g id="node2" class="node">
<title>Node2</title>
<g id="a_node2"><a xlink:href="classSpatialDiscretization.html#a3463c09a77a0c6563a353d97cf56dfa4" target="_top" xlink:title="Apply nb_ref uniform refinement.">
<polygon fill="none" stroke="black" points="155,-176 155,-206 313,-206 313,-176 155,-176"/>
<text text-anchor="start" x="163" y="-194" font-family="serif" font-size="10.00">SpatialDiscretization</text>
<text text-anchor="middle" x="234" y="-183" font-family="serif" font-size="10.00">::apply_uniform_refinement</text>
</a>
</g>
</g>
<!-- Node1&#45;&gt;Node2 -->
<g id="edge1" class="edge">
<title>Node1&#45;&gt;Node2</title>
<path fill="none" stroke="midnightblue" d="M87,-123.58C105.31,-137.05 130.67,-154.27 155,-166 159.68,-168.26 164.62,-170.38 169.64,-172.36"/>
<polygon fill="midnightblue" stroke="midnightblue" points="168.77,-175.77 179.36,-175.99 171.22,-169.21 168.77,-175.77"/>
</g>
<!-- Node3 -->
<g id="node3" class="node">
<title>Node3</title>
<g id="a_node3"><a xlink:href="structMeshes.html#a41bce2494d7e83bb16a7f79faf1c5d97" target="_top" xlink:title=" ">
<polygon fill="none" stroke="black" points="191,-137.5 191,-156.5 277,-156.5 277,-137.5 191,-137.5"/>
<text text-anchor="middle" x="234" y="-144.5" font-family="serif" font-size="10.00">Meshes::from</text>
</a>
</g>
</g>
<!-- Node1&#45;&gt;Node3 -->
<g id="edge2" class="edge">
<title>Node1&#45;&gt;Node3</title>
<path fill="none" stroke="midnightblue" d="M119.18,-118.72C131.03,-121.83 143.4,-125.05 155,-128 164.22,-130.34 174.08,-132.79 183.57,-135.11"/>
<polygon fill="midnightblue" stroke="midnightblue" points="182.74,-138.51 193.28,-137.49 184.4,-131.71 182.74,-138.51"/>
</g>
<!-- Node4 -->
<g id="node4" class="node">
<title>Node4</title>
<g id="a_node4"><a xlink:href="classSpatialDiscretization.html#a60e42688ee029c0c0f622912b1ea66f4" target="_top" xlink:title=" ">
<polygon fill="none" stroke="black" points="163.5,-88 163.5,-118 304.5,-118 304.5,-88 163.5,-88"/>
<text text-anchor="start" x="171.5" y="-106" font-family="serif" font-size="10.00">SpatialDiscretization</text>
<text text-anchor="middle" x="234" y="-95" font-family="serif" font-size="10.00">::GMSHReaderSplitFiles</text>
</a>
</g>
</g>
<!-- Node1&#45;&gt;Node4 -->
<g id="edge3" class="edge">
<title>Node1&#45;&gt;Node4</title>
<path fill="none" stroke="midnightblue" d="M119.38,-103C130.22,-103 141.7,-103 153.03,-103"/>
<polygon fill="midnightblue" stroke="midnightblue" points="153.37,-106.5 163.37,-103 153.37,-99.5 153.37,-106.5"/>
</g>
<!-- Node5 -->
<g id="node5" class="node">
<title>Node5</title>
<g id="a_node5"><a xlink:href="classSpatialDiscretization.html#a8400a265a094312b4d57708d44f9d627" target="_top" xlink:title="Set the FE_Collection, the FE_Space and associated size.">
<polygon fill="none" stroke="black" points="159,-39 159,-69 309,-69 309,-39 159,-39"/>
<text text-anchor="start" x="167" y="-57" font-family="serif" font-size="10.00">SpatialDiscretization</text>
<text text-anchor="middle" x="234" y="-46" font-family="serif" font-size="10.00">::set_finite_element_space</text>
</a>
</g>
</g>
<!-- Node1&#45;&gt;Node5 -->
<g id="edge4" class="edge">
<title>Node1&#45;&gt;Node5</title>
<path fill="none" stroke="midnightblue" d="M119.38,-86.27C135.86,-81.59 153.83,-76.49 170.51,-71.75"/>
<polygon fill="midnightblue" stroke="midnightblue" points="171.5,-75.11 180.17,-69.01 169.59,-68.37 171.5,-75.11"/>
</g>
<!-- Node7 -->
<g id="node7" class="node">
<title>Node7</title>
<g id="a_node7"><a xlink:href="classSlothInfo.html#ad6fa3fa2789f2c6779ba9c6ec2712c31" target="_top" xlink:title="Print information on Normal mode.">
<polygon fill="none" stroke="black" points="179,-0.5 179,-19.5 289,-19.5 289,-0.5 179,-0.5"/>
<text text-anchor="middle" x="234" y="-7.5" font-family="serif" font-size="10.00">SlothInfo::verbose</text>
</a>
</g>
</g>
<!-- Node1&#45;&gt;Node7 -->
<g id="edge6" class="edge">
<title>Node1&#45;&gt;Node7</title>
<path fill="none" stroke="midnightblue" d="M82.05,-82.18C100.15,-65.76 127.43,-43.47 155,-30 160.77,-27.18 166.98,-24.73 173.29,-22.61"/>
<polygon fill="midnightblue" stroke="midnightblue" points="174.71,-25.83 183.23,-19.53 172.64,-19.14 174.71,-25.83"/>
</g>
<!-- Node6 -->
<g id="node6" class="node">
<title>Node6</title>
<g id="a_node6"><a xlink:href="classSlothInfo.html#a854d3cafdb9f5a77f1063a27d2a27e04" target="_top" xlink:title="Print information on Debug mode.">
<polygon fill="none" stroke="black" points="349,-44.5 349,-63.5 451,-63.5 451,-44.5 349,-44.5"/>
<text text-anchor="middle" x="400" y="-51.5" font-family="serif" font-size="10.00">SlothInfo::debug</text>
</a>
</g>
</g>
<!-- Node5&#45;&gt;Node6 -->
<g id="edge5" class="edge">
<title>Node5&#45;&gt;Node6</title>
<path fill="none" stroke="midnightblue" d="M309.32,-54C319.16,-54 329.14,-54 338.7,-54"/>
<polygon fill="midnightblue" stroke="midnightblue" points="338.88,-57.5 348.88,-54 338.88,-50.5 338.88,-57.5"/>
</g>
</g>
</svg>
