<?xml version="1.0" encoding="UTF-8" standalone="no"?>
<!DOCTYPE svg PUBLIC "-//W3C//DTD SVG 1.1//EN"
 "http://www.w3.org/Graphics/SVG/1.1/DTD/svg11.dtd">
<!-- Generated by graphviz version 2.43.0 (0)
 -->
<!-- Title: Conductivity_function&lt; 0 &gt;::getConstant Pages: 1 -->
<svg width="498pt" height="66pt"
 viewBox="0.00 0.00 498.00 66.00" xmlns="http://www.w3.org/2000/svg" xmlns:xlink="http://www.w3.org/1999/xlink">
<g id="graph0" class="graph" transform="scale(1 1) rotate(0) translate(4 62)">
<title>Conductivity_function&lt; 0 &gt;::getConstant</title>
<!-- Node1 -->
<g id="node1" class="node">
<title>Node1</title>
<g id="a_node1"><a xlink:title="Get the Constant Conductivity fonction.">
<polygon fill="#bfbfbf" stroke="black" points="0,-14 0,-44 128,-44 128,-14 0,-14"/>
<text text-anchor="start" x="8" y="-32" font-family="serif" font-size="10.00">Conductivity_function</text>
<text text-anchor="middle" x="64" y="-21" font-family="serif" font-size="10.00">&lt; 0 &gt;::getConstant</text>
</a>
</g>
</g>
<!-- Node2 -->
<g id="node2" class="node">
<title>Node2</title>
<g id="a_node2"><a xlink:href="classParameters.html#ae3b314c5ebc3fde8684b0634b2406da6" target="_top" xlink:title="Return the value of the parameter associated to the given name.">
<polygon fill="none" stroke="black" points="164,-14 164,-44 299,-44 299,-14 164,-14"/>
<text text-anchor="start" x="172" y="-32" font-family="serif" font-size="10.00">Parameters::get_param</text>
<text text-anchor="middle" x="231.5" y="-21" font-family="serif" font-size="10.00">_value</text>
</a>
</g>
</g>
<!-- Node1&#45;&gt;Node2 -->
<g id="edge1" class="edge">
<title>Node1&#45;&gt;Node2</title>
<path fill="none" stroke="midnightblue" d="M128.04,-29C136.44,-29 145.14,-29 153.74,-29"/>
<polygon fill="midnightblue" stroke="midnightblue" points="153.78,-32.5 163.78,-29 153.78,-25.5 153.78,-32.5"/>
</g>
<!-- Node3 -->
<g id="node3" class="node">
<title>Node3</title>
<g id="a_node3"><a xlink:href="classParameters.html#aacf1a423c07aa2e63d2397fe903a1388" target="_top" xlink:title="Return the parameter associated to the given name.">
<polygon fill="none" stroke="black" points="335,-38.5 335,-57.5 490,-57.5 490,-38.5 335,-38.5"/>
<text text-anchor="middle" x="412.5" y="-45.5" font-family="serif" font-size="10.00">Parameters::get_parameter</text>
</a>
</g>
</g>
<!-- Node2&#45;&gt;Node3 -->
<g id="edge2" class="edge">
<title>Node2&#45;&gt;Node3</title>
<path fill="none" stroke="midnightblue" d="M299.15,-36.07C307.51,-36.96 316.16,-37.88 324.77,-38.79"/>
<polygon fill="midnightblue" stroke="midnightblue" points="324.52,-42.29 334.84,-39.86 325.26,-35.33 324.52,-42.29"/>
</g>
<!-- Node4 -->
<g id="node4" class="node">
<title>Node4</title>
<g id="a_node4"><a xlink:href="classParameter.html#a7874e1270fe62aecf3063a4f9edecb47" target="_top" xlink:title="Return the value of the paramter.">
<polygon fill="none" stroke="black" points="350,-0.5 350,-19.5 475,-19.5 475,-0.5 350,-0.5"/>
<text text-anchor="middle" x="412.5" y="-7.5" font-family="serif" font-size="10.00">Parameter::get_value</text>
</a>
</g>
</g>
<!-- Node2&#45;&gt;Node4 -->
<g id="edge3" class="edge">
<title>Node2&#45;&gt;Node4</title>
<path fill="none" stroke="midnightblue" d="M299.15,-21.93C312.38,-20.52 326.32,-19.04 339.71,-17.62"/>
<polygon fill="midnightblue" stroke="midnightblue" points="340.25,-21.08 349.82,-16.55 339.51,-14.12 340.25,-21.08"/>
</g>
</g>
</svg>
