<?xml version="1.0" encoding="UTF-8" standalone="no"?>
<!DOCTYPE svg PUBLIC "-//W3C//DTD SVG 1.1//EN"
 "http://www.w3.org/Graphics/SVG/1.1/DTD/svg11.dtd">
<!-- Generated by graphviz version 2.43.0 (0)
 -->
<!-- Title: UtilsSolvers::print_solver_name Pages: 1 -->
<svg width="316pt" height="78pt"
 viewBox="0.00 0.00 316.00 77.50" xmlns="http://www.w3.org/2000/svg" xmlns:xlink="http://www.w3.org/1999/xlink">
<g id="graph0" class="graph" transform="scale(1 1) rotate(0) translate(4 73.5)">
<title>UtilsSolvers::print_solver_name</title>
<!-- Node1 -->
<g id="node1" class="node">
<title>Node1</title>
<g id="a_node1"><a xlink:title="Print the name of the Solver.">
<polygon fill="#bfbfbf" stroke="black" points="200,-22.5 200,-52.5 308,-52.5 308,-22.5 200,-22.5"/>
<text text-anchor="start" x="208" y="-40.5" font-family="serif" font-size="10.00">UtilsSolvers::print</text>
<text text-anchor="middle" x="254" y="-29.5" font-family="serif" font-size="10.00">_solver_name</text>
</a>
</g>
</g>
<!-- Node2 -->
<g id="node2" class="node">
<title>Node2</title>
<g id="a_node2"><a xlink:href="structSetPrecondSolver.html#aa4e37e62a935fea0c1926352c0ecd1d2" target="_top" xlink:title="Main function.">
<polygon fill="none" stroke="black" points="0,-50 0,-69 164,-69 164,-50 0,-50"/>
<text text-anchor="middle" x="82" y="-57" font-family="serif" font-size="10.00">SetPrecondSolver::operator()</text>
</a>
</g>
</g>
<!-- Node1&#45;&gt;Node2 -->
<g id="edge1" class="edge">
<title>Node1&#45;&gt;Node2</title>
<path fill="none" stroke="midnightblue" d="M189.57,-45.71C178.85,-47.1 167.64,-48.55 156.69,-49.96"/>
<polygon fill="midnightblue" stroke="midnightblue" points="190.21,-49.16 199.68,-44.4 189.31,-42.21 190.21,-49.16"/>
</g>
<!-- Node3 -->
<g id="node3" class="node">
<title>Node3</title>
<g id="a_node3"><a xlink:href="structSetPrecondNLSolver.html#a3579c089c95ed6ddc8ee6678327d2712" target="_top" xlink:title="Main function.">
<polygon fill="none" stroke="black" points="20.5,-0.5 20.5,-30.5 143.5,-30.5 143.5,-0.5 20.5,-0.5"/>
<text text-anchor="start" x="28.5" y="-18.5" font-family="serif" font-size="10.00">SetPrecondNLSolver</text>
<text text-anchor="middle" x="82" y="-7.5" font-family="serif" font-size="10.00">::operator()</text>
</a>
</g>
</g>
<!-- Node1&#45;&gt;Node3 -->
<g id="edge2" class="edge">
<title>Node1&#45;&gt;Node3</title>
<path fill="none" stroke="midnightblue" d="M189.45,-29.28C174.42,-27.33 158.43,-25.26 143.54,-23.33"/>
<polygon fill="midnightblue" stroke="midnightblue" points="189.31,-32.79 199.68,-30.6 190.21,-25.84 189.31,-32.79"/>
</g>
</g>
</svg>
