<?xml version="1.0" encoding="UTF-8" standalone="no"?>
<!DOCTYPE svg PUBLIC "-//W3C//DTD SVG 1.1//EN"
 "http://www.w3.org/Graphics/SVG/1.1/DTD/svg11.dtd">
<!-- Generated by graphviz version 2.43.0 (0)
 -->
<!-- Title: Diffusion_function&lt; 1 &gt;::getLog Pages: 1 -->
<svg width="480pt" height="66pt"
 viewBox="0.00 0.00 480.00 66.00" xmlns="http://www.w3.org/2000/svg" xmlns:xlink="http://www.w3.org/1999/xlink">
<g id="graph0" class="graph" transform="scale(1 1) rotate(0) translate(4 62)">
<title>Diffusion_function&lt; 1 &gt;::getLog</title>
<!-- Node1 -->
<g id="node1" class="node">
<title>Node1</title>
<g id="a_node1"><a xlink:title="Get the Log Diffusion function (1st derivative)">
<polygon fill="#bfbfbf" stroke="black" points="0,-14 0,-44 110,-44 110,-14 0,-14"/>
<text text-anchor="start" x="8" y="-32" font-family="serif" font-size="10.00">Diffusion_function</text>
<text text-anchor="middle" x="55" y="-21" font-family="serif" font-size="10.00">&lt; 1 &gt;::getLog</text>
</a>
</g>
</g>
<!-- Node2 -->
<g id="node2" class="node">
<title>Node2</title>
<g id="a_node2"><a xlink:href="classParameters.html#ae3b314c5ebc3fde8684b0634b2406da6" target="_top" xlink:title="Return the value of the parameter associated to the given name.">
<polygon fill="none" stroke="black" points="146,-14 146,-44 281,-44 281,-14 146,-14"/>
<text text-anchor="start" x="154" y="-32" font-family="serif" font-size="10.00">Parameters::get_param</text>
<text text-anchor="middle" x="213.5" y="-21" font-family="serif" font-size="10.00">_value</text>
</a>
</g>
</g>
<!-- Node1&#45;&gt;Node2 -->
<g id="edge1" class="edge">
<title>Node1&#45;&gt;Node2</title>
<path fill="none" stroke="midnightblue" d="M110.3,-29C118.55,-29 127.19,-29 135.8,-29"/>
<polygon fill="midnightblue" stroke="midnightblue" points="135.88,-32.5 145.88,-29 135.88,-25.5 135.88,-32.5"/>
</g>
<!-- Node3 -->
<g id="node3" class="node">
<title>Node3</title>
<g id="a_node3"><a xlink:href="classParameters.html#aacf1a423c07aa2e63d2397fe903a1388" target="_top" xlink:title="Return the parameter associated to the given name.">
<polygon fill="none" stroke="black" points="317,-38.5 317,-57.5 472,-57.5 472,-38.5 317,-38.5"/>
<text text-anchor="middle" x="394.5" y="-45.5" font-family="serif" font-size="10.00">Parameters::get_parameter</text>
</a>
</g>
</g>
<!-- Node2&#45;&gt;Node3 -->
<g id="edge2" class="edge">
<title>Node2&#45;&gt;Node3</title>
<path fill="none" stroke="midnightblue" d="M281.15,-36.07C289.51,-36.96 298.16,-37.88 306.77,-38.79"/>
<polygon fill="midnightblue" stroke="midnightblue" points="306.52,-42.29 316.84,-39.86 307.26,-35.33 306.52,-42.29"/>
</g>
<!-- Node4 -->
<g id="node4" class="node">
<title>Node4</title>
<g id="a_node4"><a xlink:href="classParameter.html#a7874e1270fe62aecf3063a4f9edecb47" target="_top" xlink:title="Return the value of the paramter.">
<polygon fill="none" stroke="black" points="332,-0.5 332,-19.5 457,-19.5 457,-0.5 332,-0.5"/>
<text text-anchor="middle" x="394.5" y="-7.5" font-family="serif" font-size="10.00">Parameter::get_value</text>
</a>
</g>
</g>
<!-- Node2&#45;&gt;Node4 -->
<g id="edge3" class="edge">
<title>Node2&#45;&gt;Node4</title>
<path fill="none" stroke="midnightblue" d="M281.15,-21.93C294.38,-20.52 308.32,-19.04 321.71,-17.62"/>
<polygon fill="midnightblue" stroke="midnightblue" points="322.25,-21.08 331.82,-16.55 321.51,-14.12 322.25,-21.08"/>
</g>
</g>
</svg>
