<?xml version="1.0" encoding="UTF-8" standalone="no"?>
<!DOCTYPE svg PUBLIC "-//W3C//DTD SVG 1.1//EN"
 "http://www.w3.org/Graphics/SVG/1.1/DTD/svg11.dtd">
<!-- Generated by graphviz version 2.43.0 (0)
 -->
<!-- Title: UtilsSolvers::setter_hypre Pages: 1 -->
<svg width="321pt" height="78pt"
 viewBox="0.00 0.00 321.00 77.50" xmlns="http://www.w3.org/2000/svg" xmlns:xlink="http://www.w3.org/1999/xlink">
<g id="graph0" class="graph" transform="scale(1 1) rotate(0) translate(4 73.5)">
<title>UtilsSolvers::setter_hypre</title>
<!-- Node1 -->
<g id="node1" class="node">
<title>Node1</title>
<g id="a_node1"><a xlink:title="Set the Hypre Solver object.">
<polygon fill="#bfbfbf" stroke="black" points="200,-22.5 200,-52.5 313,-52.5 313,-22.5 200,-22.5"/>
<text text-anchor="start" x="208" y="-40.5" font-family="serif" font-size="10.00">UtilsSolvers::setter</text>
<text text-anchor="middle" x="256.5" y="-29.5" font-family="serif" font-size="10.00">_hypre</text>
</a>
</g>
</g>
<!-- Node2 -->
<g id="node2" class="node">
<title>Node2</title>
<g id="a_node2"><a xlink:href="structSetPrecondSolver.html#aa4e37e62a935fea0c1926352c0ecd1d2" target="_top" xlink:title="Main function.">
<polygon fill="none" stroke="black" points="0,-50 0,-69 164,-69 164,-50 0,-50"/>
<text text-anchor="middle" x="82" y="-57" font-family="serif" font-size="10.00">SetPrecondSolver::operator()</text>
</a>
</g>
</g>
<!-- Node1&#45;&gt;Node2 -->
<g id="edge1" class="edge">
<title>Node1&#45;&gt;Node2</title>
<path fill="none" stroke="midnightblue" d="M189.99,-45.86C179.41,-47.2 168.39,-48.61 157.61,-49.98"/>
<polygon fill="midnightblue" stroke="midnightblue" points="190.49,-49.32 199.97,-44.58 189.61,-42.38 190.49,-49.32"/>
</g>
<!-- Node3 -->
<g id="node3" class="node">
<title>Node3</title>
<g id="a_node3"><a xlink:href="structSetPrecondNLSolver.html#a3579c089c95ed6ddc8ee6678327d2712" target="_top" xlink:title="Main function.">
<polygon fill="none" stroke="black" points="20.5,-0.5 20.5,-30.5 143.5,-30.5 143.5,-0.5 20.5,-0.5"/>
<text text-anchor="start" x="28.5" y="-18.5" font-family="serif" font-size="10.00">SetPrecondNLSolver</text>
<text text-anchor="middle" x="82" y="-7.5" font-family="serif" font-size="10.00">::operator()</text>
</a>
</g>
</g>
<!-- Node1&#45;&gt;Node3 -->
<g id="edge2" class="edge">
<title>Node1&#45;&gt;Node3</title>
<path fill="none" stroke="midnightblue" d="M189.7,-29.11C174.62,-27.18 158.65,-25.15 143.8,-23.25"/>
<polygon fill="midnightblue" stroke="midnightblue" points="189.61,-32.62 199.97,-30.42 190.49,-25.68 189.61,-32.62"/>
</g>
</g>
</svg>
