<?xml version="1.0" encoding="UTF-8" standalone="no"?>
<!DOCTYPE svg PUBLIC "-//W3C//DTD SVG 1.1//EN"
 "http://www.w3.org/Graphics/SVG/1.1/DTD/svg11.dtd">
<!-- Generated by graphviz version 2.43.0 (0)
 -->
<!-- Title: specialized_spatial_constructor&lt; T, 3 &gt;::operator() Pages: 1 -->
<svg width="459pt" height="88pt"
 viewBox="0.00 0.00 459.00 88.00" xmlns="http://www.w3.org/2000/svg" xmlns:xlink="http://www.w3.org/1999/xlink">
<g id="graph0" class="graph" transform="scale(1 1) rotate(0) translate(4 84)">
<title>specialized_spatial_constructor&lt; T, 3 &gt;::operator()</title>
<!-- Node1 -->
<g id="node1" class="node">
<title>Node1</title>
<g id="a_node1"><a xlink:title="operator() specialized for a periodic mesh built from MFEM methods">
<polygon fill="#bfbfbf" stroke="black" points="0,-19 0,-60 119,-60 119,-19 0,-19"/>
<text text-anchor="start" x="8" y="-48" font-family="serif" font-size="10.00">specialized_spatial</text>
<text text-anchor="start" x="8" y="-37" font-family="serif" font-size="10.00">_constructor&lt; T, 3 &gt;</text>
<text text-anchor="middle" x="59.5" y="-26" font-family="serif" font-size="10.00">::operator()</text>
</a>
</g>
</g>
<!-- Node2 -->
<g id="node2" class="node">
<title>Node2</title>
<g id="a_node2"><a xlink:href="classSpatialDiscretization.html#a3463c09a77a0c6563a353d97cf56dfa4" target="_top" xlink:title="Apply nb_ref uniform refinement.">
<polygon fill="none" stroke="black" points="155,-49.5 155,-79.5 313,-79.5 313,-49.5 155,-49.5"/>
<text text-anchor="start" x="163" y="-67.5" font-family="serif" font-size="10.00">SpatialDiscretization</text>
<text text-anchor="middle" x="234" y="-56.5" font-family="serif" font-size="10.00">::apply_uniform_refinement</text>
</a>
</g>
</g>
<!-- Node1&#45;&gt;Node2 -->
<g id="edge1" class="edge">
<title>Node1&#45;&gt;Node2</title>
<path fill="none" stroke="midnightblue" d="M119.38,-48.03C127.59,-49.22 136.17,-50.47 144.77,-51.71"/>
<polygon fill="midnightblue" stroke="midnightblue" points="144.46,-55.2 154.86,-53.18 145.47,-48.28 144.46,-55.2"/>
</g>
<!-- Node3 -->
<g id="node3" class="node">
<title>Node3</title>
<g id="a_node3"><a xlink:href="classSpatialDiscretization.html#a8400a265a094312b4d57708d44f9d627" target="_top" xlink:title="Set the FE_Collection, the FE_Space and associated size.">
<polygon fill="none" stroke="black" points="159,-0.5 159,-30.5 309,-30.5 309,-0.5 159,-0.5"/>
<text text-anchor="start" x="167" y="-18.5" font-family="serif" font-size="10.00">SpatialDiscretization</text>
<text text-anchor="middle" x="234" y="-7.5" font-family="serif" font-size="10.00">::set_finite_element_space</text>
</a>
</g>
</g>
<!-- Node1&#45;&gt;Node3 -->
<g id="edge2" class="edge">
<title>Node1&#45;&gt;Node3</title>
<path fill="none" stroke="midnightblue" d="M119.38,-31.31C128.9,-29.98 138.91,-28.59 148.88,-27.2"/>
<polygon fill="midnightblue" stroke="midnightblue" points="149.4,-30.66 158.83,-25.82 148.44,-23.73 149.4,-30.66"/>
</g>
<!-- Node4 -->
<g id="node4" class="node">
<title>Node4</title>
<g id="a_node4"><a xlink:href="classSlothInfo.html#a854d3cafdb9f5a77f1063a27d2a27e04" target="_top" xlink:title="Print information on Debug mode.">
<polygon fill="none" stroke="black" points="349,-6 349,-25 451,-25 451,-6 349,-6"/>
<text text-anchor="middle" x="400" y="-13" font-family="serif" font-size="10.00">SlothInfo::debug</text>
</a>
</g>
</g>
<!-- Node3&#45;&gt;Node4 -->
<g id="edge3" class="edge">
<title>Node3&#45;&gt;Node4</title>
<path fill="none" stroke="midnightblue" d="M309.32,-15.5C319.16,-15.5 329.14,-15.5 338.7,-15.5"/>
<polygon fill="midnightblue" stroke="midnightblue" points="338.88,-19 348.88,-15.5 338.88,-12 338.88,-19"/>
</g>
</g>
</svg>
