<?xml version="1.0" encoding="UTF-8" standalone="no"?>
<!DOCTYPE svg PUBLIC "-//W3C//DTD SVG 1.1//EN"
 "http://www.w3.org/Graphics/SVG/1.1/DTD/svg11.dtd">
<!-- Generated by graphviz version 2.43.0 (0)
 -->
<!-- Title: HeatCapacity_function&lt; 0 &gt;::getConstant Pages: 1 -->
<svg width="503pt" height="66pt"
 viewBox="0.00 0.00 503.00 66.00" xmlns="http://www.w3.org/2000/svg" xmlns:xlink="http://www.w3.org/1999/xlink">
<g id="graph0" class="graph" transform="scale(1 1) rotate(0) translate(4 62)">
<title>HeatCapacity_function&lt; 0 &gt;::getConstant</title>
<!-- Node1 -->
<g id="node1" class="node">
<title>Node1</title>
<g id="a_node1"><a xlink:title="Get the Constant HeatCapacity fonction.">
<polygon fill="#bfbfbf" stroke="black" points="0,-14 0,-44 133,-44 133,-14 0,-14"/>
<text text-anchor="start" x="8" y="-32" font-family="serif" font-size="10.00">HeatCapacity_function</text>
<text text-anchor="middle" x="66.5" y="-21" font-family="serif" font-size="10.00">&lt; 0 &gt;::getConstant</text>
</a>
</g>
</g>
<!-- Node2 -->
<g id="node2" class="node">
<title>Node2</title>
<g id="a_node2"><a xlink:href="classParameters.html#ae3b314c5ebc3fde8684b0634b2406da6" target="_top" xlink:title="Return the value of the parameter associated to the given name.">
<polygon fill="none" stroke="black" points="169,-14 169,-44 304,-44 304,-14 169,-14"/>
<text text-anchor="start" x="177" y="-32" font-family="serif" font-size="10.00">Parameters::get_param</text>
<text text-anchor="middle" x="236.5" y="-21" font-family="serif" font-size="10.00">_value</text>
</a>
</g>
</g>
<!-- Node1&#45;&gt;Node2 -->
<g id="edge1" class="edge">
<title>Node1&#45;&gt;Node2</title>
<path fill="none" stroke="midnightblue" d="M133.42,-29C141.72,-29 150.26,-29 158.71,-29"/>
<polygon fill="midnightblue" stroke="midnightblue" points="158.95,-32.5 168.95,-29 158.95,-25.5 158.95,-32.5"/>
</g>
<!-- Node3 -->
<g id="node3" class="node">
<title>Node3</title>
<g id="a_node3"><a xlink:href="classParameters.html#aacf1a423c07aa2e63d2397fe903a1388" target="_top" xlink:title="Return the parameter associated to the given name.">
<polygon fill="none" stroke="black" points="340,-38.5 340,-57.5 495,-57.5 495,-38.5 340,-38.5"/>
<text text-anchor="middle" x="417.5" y="-45.5" font-family="serif" font-size="10.00">Parameters::get_parameter</text>
</a>
</g>
</g>
<!-- Node2&#45;&gt;Node3 -->
<g id="edge2" class="edge">
<title>Node2&#45;&gt;Node3</title>
<path fill="none" stroke="midnightblue" d="M304.15,-36.07C312.51,-36.96 321.16,-37.88 329.77,-38.79"/>
<polygon fill="midnightblue" stroke="midnightblue" points="329.52,-42.29 339.84,-39.86 330.26,-35.33 329.52,-42.29"/>
</g>
<!-- Node4 -->
<g id="node4" class="node">
<title>Node4</title>
<g id="a_node4"><a xlink:href="classParameter.html#a7874e1270fe62aecf3063a4f9edecb47" target="_top" xlink:title="Return the value of the paramter.">
<polygon fill="none" stroke="black" points="355,-0.5 355,-19.5 480,-19.5 480,-0.5 355,-0.5"/>
<text text-anchor="middle" x="417.5" y="-7.5" font-family="serif" font-size="10.00">Parameter::get_value</text>
</a>
</g>
</g>
<!-- Node2&#45;&gt;Node4 -->
<g id="edge3" class="edge">
<title>Node2&#45;&gt;Node4</title>
<path fill="none" stroke="midnightblue" d="M304.15,-21.93C317.38,-20.52 331.32,-19.04 344.71,-17.62"/>
<polygon fill="midnightblue" stroke="midnightblue" points="345.25,-21.08 354.82,-16.55 344.51,-14.12 345.25,-21.08"/>
</g>
</g>
</svg>
