<?xml version="1.0" encoding="UTF-8" standalone="no"?>
<!DOCTYPE svg PUBLIC "-//W3C//DTD SVG 1.1//EN"
 "http://www.w3.org/Graphics/SVG/1.1/DTD/svg11.dtd">
<!-- Generated by graphviz version 2.43.0 (0)
 -->
<!-- Title: UtilsSolvers::setter_mfem Pages: 1 -->
<svg width="355pt" height="78pt"
 viewBox="0.00 0.00 355.00 77.50" xmlns="http://www.w3.org/2000/svg" xmlns:xlink="http://www.w3.org/1999/xlink">
<g id="graph0" class="graph" transform="scale(1 1) rotate(0) translate(4 73.5)">
<title>UtilsSolvers::setter_mfem</title>
<!-- Node1 -->
<g id="node1" class="node">
<title>Node1</title>
<g id="a_node1"><a xlink:title="Set the mfem Solver object.">
<polygon fill="#bfbfbf" stroke="black" points="200,-28 200,-47 347,-47 347,-28 200,-28"/>
<text text-anchor="middle" x="273.5" y="-35" font-family="serif" font-size="10.00">UtilsSolvers::setter_mfem</text>
</a>
</g>
</g>
<!-- Node2 -->
<g id="node2" class="node">
<title>Node2</title>
<g id="a_node2"><a xlink:href="structSetPrecondSolver.html#aa4e37e62a935fea0c1926352c0ecd1d2" target="_top" xlink:title="Main function.">
<polygon fill="none" stroke="black" points="0,-50 0,-69 164,-69 164,-50 0,-50"/>
<text text-anchor="middle" x="82" y="-57" font-family="serif" font-size="10.00">SetPrecondSolver::operator()</text>
</a>
</g>
</g>
<!-- Node1&#45;&gt;Node2 -->
<g id="edge1" class="edge">
<title>Node1&#45;&gt;Node2</title>
<path fill="none" stroke="midnightblue" d="M189.82,-47.1C181.27,-48.09 172.58,-49.1 164.05,-50.09"/>
<polygon fill="midnightblue" stroke="midnightblue" points="190.25,-50.57 199.78,-45.94 189.44,-43.62 190.25,-50.57"/>
</g>
<!-- Node3 -->
<g id="node3" class="node">
<title>Node3</title>
<g id="a_node3"><a xlink:href="structSetPrecondNLSolver.html#a3579c089c95ed6ddc8ee6678327d2712" target="_top" xlink:title="Main function.">
<polygon fill="none" stroke="black" points="20.5,-0.5 20.5,-30.5 143.5,-30.5 143.5,-0.5 20.5,-0.5"/>
<text text-anchor="start" x="28.5" y="-18.5" font-family="serif" font-size="10.00">SetPrecondNLSolver</text>
<text text-anchor="middle" x="82" y="-7.5" font-family="serif" font-size="10.00">::operator()</text>
</a>
</g>
</g>
<!-- Node1&#45;&gt;Node3 -->
<g id="edge2" class="edge">
<title>Node1&#45;&gt;Node3</title>
<path fill="none" stroke="midnightblue" d="M189.66,-27.88C174.15,-26.08 158.21,-24.23 143.53,-22.53"/>
<polygon fill="midnightblue" stroke="midnightblue" points="189.44,-31.38 199.78,-29.06 190.25,-24.43 189.44,-31.38"/>
</g>
</g>
</svg>
