<?xml version="1.0" encoding="UTF-8" standalone="no"?>
<!DOCTYPE svg PUBLIC "-//W3C//DTD SVG 1.1//EN"
 "http://www.w3.org/Graphics/SVG/1.1/DTD/svg11.dtd">
<!-- Generated by graphviz version 2.43.0 (0)
 -->
<!-- Title: UtilsForDebug.hpp Pages: 1 -->
<svg width="698pt" height="84pt"
 viewBox="0.00 0.00 697.50 84.00" xmlns="http://www.w3.org/2000/svg" xmlns:xlink="http://www.w3.org/1999/xlink">
<g id="graph0" class="graph" transform="scale(1 1) rotate(0) translate(4 80)">
<title>UtilsForDebug.hpp</title>
<!-- Node1 -->
<g id="node1" class="node">
<title>Node1</title>
<g id="a_node1"><a xlink:title="Usefull methods for debug.">
<polygon fill="#bfbfbf" stroke="black" points="301.5,-56.5 301.5,-75.5 416.5,-75.5 416.5,-56.5 301.5,-56.5"/>
<text text-anchor="middle" x="359" y="-63.5" font-family="serif" font-size="10.00">UtilsForDebug.hpp</text>
</a>
</g>
</g>
<!-- Node2 -->
<g id="node2" class="node">
<title>Node2</title>
<g id="a_node2"><a xlink:title=" ">
<polygon fill="none" stroke="#bfbfbf" points="0,-0.5 0,-19.5 90,-19.5 90,-0.5 0,-0.5"/>
<text text-anchor="middle" x="45" y="-7.5" font-family="serif" font-size="10.00">sys/resource.h</text>
</a>
</g>
</g>
<!-- Node1&#45;&gt;Node2 -->
<g id="edge1" class="edge">
<title>Node1&#45;&gt;Node2</title>
<path fill="none" stroke="midnightblue" d="M309.25,-56.44C252.36,-46.66 159.48,-30.69 100.35,-20.52"/>
<polygon fill="midnightblue" stroke="midnightblue" points="100.89,-17.06 90.44,-18.82 99.71,-23.96 100.89,-17.06"/>
</g>
<!-- Node3 -->
<g id="node3" class="node">
<title>Node3</title>
<g id="a_node3"><a xlink:title=" ">
<polygon fill="none" stroke="#bfbfbf" points="108.5,-0.5 108.5,-19.5 167.5,-19.5 167.5,-0.5 108.5,-0.5"/>
<text text-anchor="middle" x="138" y="-7.5" font-family="serif" font-size="10.00">unistd.h</text>
</a>
</g>
</g>
<!-- Node1&#45;&gt;Node3 -->
<g id="edge2" class="edge">
<title>Node1&#45;&gt;Node3</title>
<path fill="none" stroke="midnightblue" d="M323.98,-56.44C284.07,-46.69 218.98,-30.79 177.34,-20.61"/>
<polygon fill="midnightblue" stroke="midnightblue" points="178.09,-17.19 167.55,-18.22 176.43,-23.99 178.09,-17.19"/>
</g>
<!-- Node4 -->
<g id="node4" class="node">
<title>Node4</title>
<g id="a_node4"><a xlink:title=" ">
<polygon fill="none" stroke="#bfbfbf" points="185.5,-0.5 185.5,-19.5 232.5,-19.5 232.5,-0.5 185.5,-0.5"/>
<text text-anchor="middle" x="209" y="-7.5" font-family="serif" font-size="10.00">cstdio</text>
</a>
</g>
</g>
<!-- Node1&#45;&gt;Node4 -->
<g id="edge3" class="edge">
<title>Node1&#45;&gt;Node4</title>
<path fill="none" stroke="midnightblue" d="M335.23,-56.44C310.11,-47.4 270.29,-33.06 242.1,-22.92"/>
<polygon fill="midnightblue" stroke="midnightblue" points="243.25,-19.61 232.66,-19.52 240.88,-26.2 243.25,-19.61"/>
</g>
<!-- Node5 -->
<g id="node5" class="node">
<title>Node5</title>
<g id="a_node5"><a xlink:title=" ">
<polygon fill="none" stroke="#bfbfbf" points="251,-0.5 251,-19.5 307,-19.5 307,-0.5 251,-0.5"/>
<text text-anchor="middle" x="279" y="-7.5" font-family="serif" font-size="10.00">fstream</text>
</a>
</g>
</g>
<!-- Node1&#45;&gt;Node5 -->
<g id="edge4" class="edge">
<title>Node1&#45;&gt;Node5</title>
<path fill="none" stroke="midnightblue" d="M346.15,-56.32C333.78,-47.98 314.87,-35.21 300.26,-25.35"/>
<polygon fill="midnightblue" stroke="midnightblue" points="302.07,-22.35 291.82,-19.65 298.15,-28.15 302.07,-22.35"/>
</g>
<!-- Node6 -->
<g id="node6" class="node">
<title>Node6</title>
<g id="a_node6"><a xlink:title=" ">
<polygon fill="none" stroke="#bfbfbf" points="325,-0.5 325,-19.5 393,-19.5 393,-0.5 325,-0.5"/>
<text text-anchor="middle" x="359" y="-7.5" font-family="serif" font-size="10.00">functional</text>
</a>
</g>
</g>
<!-- Node1&#45;&gt;Node6 -->
<g id="edge5" class="edge">
<title>Node1&#45;&gt;Node6</title>
<path fill="none" stroke="midnightblue" d="M359,-56.08C359,-49.01 359,-38.86 359,-29.99"/>
<polygon fill="midnightblue" stroke="midnightblue" points="362.5,-29.75 359,-19.75 355.5,-29.75 362.5,-29.75"/>
</g>
<!-- Node7 -->
<g id="node7" class="node">
<title>Node7</title>
<g id="a_node7"><a xlink:title=" ">
<polygon fill="none" stroke="#bfbfbf" points="411.5,-0.5 411.5,-19.5 472.5,-19.5 472.5,-0.5 411.5,-0.5"/>
<text text-anchor="middle" x="442" y="-7.5" font-family="serif" font-size="10.00">iostream</text>
</a>
</g>
</g>
<!-- Node1&#45;&gt;Node7 -->
<g id="edge6" class="edge">
<title>Node1&#45;&gt;Node7</title>
<path fill="none" stroke="midnightblue" d="M372.34,-56.32C385.16,-47.98 404.78,-35.21 419.94,-25.35"/>
<polygon fill="midnightblue" stroke="midnightblue" points="422.22,-28.04 428.7,-19.65 418.41,-22.17 422.22,-28.04"/>
</g>
<!-- Node8 -->
<g id="node8" class="node">
<title>Node8</title>
<g id="a_node8"><a xlink:title=" ">
<polygon fill="none" stroke="#bfbfbf" points="490.5,-0.5 490.5,-19.5 537.5,-19.5 537.5,-0.5 490.5,-0.5"/>
<text text-anchor="middle" x="514" y="-7.5" font-family="serif" font-size="10.00">string</text>
</a>
</g>
</g>
<!-- Node1&#45;&gt;Node8 -->
<g id="edge7" class="edge">
<title>Node1&#45;&gt;Node8</title>
<path fill="none" stroke="midnightblue" d="M383.56,-56.44C409.75,-47.32 451.4,-32.81 480.57,-22.65"/>
<polygon fill="midnightblue" stroke="midnightblue" points="482.03,-25.85 490.32,-19.25 479.72,-19.24 482.03,-25.85"/>
</g>
<!-- Node9 -->
<g id="node9" class="node">
<title>Node9</title>
<g id="a_node9"><a xlink:title=" ">
<polygon fill="none" stroke="#bfbfbf" points="556,-0.5 556,-19.5 602,-19.5 602,-0.5 556,-0.5"/>
<text text-anchor="middle" x="579" y="-7.5" font-family="serif" font-size="10.00">utility</text>
</a>
</g>
</g>
<!-- Node1&#45;&gt;Node9 -->
<g id="edge8" class="edge">
<title>Node1&#45;&gt;Node9</title>
<path fill="none" stroke="midnightblue" d="M396.56,-56.47C432.51,-48.2 488.49,-35.06 545.97,-20.19"/>
<polygon fill="midnightblue" stroke="midnightblue" points="547.16,-23.5 555.96,-17.6 545.4,-16.73 547.16,-23.5"/>
</g>
<!-- Node10 -->
<g id="node10" class="node">
<title>Node10</title>
<g id="a_node10"><a xlink:title=" ">
<polygon fill="none" stroke="#bfbfbf" points="620.5,-0.5 620.5,-19.5 689.5,-19.5 689.5,-0.5 620.5,-0.5"/>
<text text-anchor="middle" x="655" y="-7.5" font-family="serif" font-size="10.00">mfem.hpp</text>
</a>
</g>
</g>
<!-- Node1&#45;&gt;Node10 -->
<g id="edge9" class="edge">
<title>Node1&#45;&gt;Node10</title>
<path fill="none" stroke="midnightblue" d="M408.8,-56.49C457.49,-48.08 534.02,-34.63 610.18,-20.12"/>
<polygon fill="midnightblue" stroke="midnightblue" points="611.26,-23.47 620.43,-18.16 609.95,-16.6 611.26,-23.47"/>
</g>
</g>
</svg>
