<?xml version="1.0" encoding="UTF-8" standalone="no"?>
<!DOCTYPE svg PUBLIC "-//W3C//DTD SVG 1.1//EN"
 "http://www.w3.org/Graphics/SVG/1.1/DTD/svg11.dtd">
<!-- Generated by graphviz version 2.43.0 (0)
 -->
<!-- Title: UtilsForPostProcessing.hpp Pages: 1 -->
<svg width="412pt" height="84pt"
 viewBox="0.00 0.00 412.00 84.00" xmlns="http://www.w3.org/2000/svg" xmlns:xlink="http://www.w3.org/1999/xlink">
<g id="graph0" class="graph" transform="scale(1 1) rotate(0) translate(4 80)">
<title>UtilsForPostProcessing.hpp</title>
<!-- Node1 -->
<g id="node1" class="node">
<title>Node1</title>
<g id="a_node1"><a xlink:title="Usefull methods for post&#45;processing.">
<polygon fill="#bfbfbf" stroke="black" points="139.5,-56.5 139.5,-75.5 296.5,-75.5 296.5,-56.5 139.5,-56.5"/>
<text text-anchor="middle" x="218" y="-63.5" font-family="serif" font-size="10.00">UtilsForPostProcessing.hpp</text>
</a>
</g>
</g>
<!-- Node2 -->
<g id="node2" class="node">
<title>Node2</title>
<g id="a_node2"><a xlink:title=" ">
<polygon fill="none" stroke="#bfbfbf" points="0,-0.5 0,-19.5 66,-19.5 66,-0.5 0,-0.5"/>
<text text-anchor="middle" x="33" y="-7.5" font-family="serif" font-size="10.00">algorithm</text>
</a>
</g>
</g>
<!-- Node1&#45;&gt;Node2 -->
<g id="edge1" class="edge">
<title>Node1&#45;&gt;Node2</title>
<path fill="none" stroke="midnightblue" d="M188.69,-56.44C157.16,-47.24 106.87,-32.56 72.01,-22.39"/>
<polygon fill="midnightblue" stroke="midnightblue" points="72.76,-18.96 62.18,-19.52 70.8,-25.68 72.76,-18.96"/>
</g>
<!-- Node3 -->
<g id="node3" class="node">
<title>Node3</title>
<g id="a_node3"><a xlink:title=" ">
<polygon fill="none" stroke="#bfbfbf" points="84.5,-0.5 84.5,-19.5 145.5,-19.5 145.5,-0.5 84.5,-0.5"/>
<text text-anchor="middle" x="115" y="-7.5" font-family="serif" font-size="10.00">iostream</text>
</a>
</g>
</g>
<!-- Node1&#45;&gt;Node3 -->
<g id="edge2" class="edge">
<title>Node1&#45;&gt;Node3</title>
<path fill="none" stroke="midnightblue" d="M201.45,-56.32C185.01,-47.7 159.57,-34.36 140.53,-24.39"/>
<polygon fill="midnightblue" stroke="midnightblue" points="141.99,-21.2 131.51,-19.65 138.74,-27.4 141.99,-21.2"/>
</g>
<!-- Node4 -->
<g id="node4" class="node">
<title>Node4</title>
<g id="a_node4"><a xlink:title=" ">
<polygon fill="none" stroke="#bfbfbf" points="164,-0.5 164,-19.5 208,-19.5 208,-0.5 164,-0.5"/>
<text text-anchor="middle" x="186" y="-7.5" font-family="serif" font-size="10.00">limits</text>
</a>
</g>
</g>
<!-- Node1&#45;&gt;Node4 -->
<g id="edge3" class="edge">
<title>Node1&#45;&gt;Node4</title>
<path fill="none" stroke="midnightblue" d="M212.72,-56.08C208.29,-48.61 201.84,-37.72 196.38,-28.52"/>
<polygon fill="midnightblue" stroke="midnightblue" points="199.29,-26.57 191.19,-19.75 193.27,-30.14 199.29,-26.57"/>
</g>
<!-- Node5 -->
<g id="node5" class="node">
<title>Node5</title>
<g id="a_node5"><a xlink:title=" ">
<polygon fill="none" stroke="#bfbfbf" points="226.5,-0.5 226.5,-19.5 273.5,-19.5 273.5,-0.5 226.5,-0.5"/>
<text text-anchor="middle" x="250" y="-7.5" font-family="serif" font-size="10.00">string</text>
</a>
</g>
</g>
<!-- Node1&#45;&gt;Node5 -->
<g id="edge4" class="edge">
<title>Node1&#45;&gt;Node5</title>
<path fill="none" stroke="midnightblue" d="M223.28,-56.08C227.71,-48.61 234.16,-37.72 239.62,-28.52"/>
<polygon fill="midnightblue" stroke="midnightblue" points="242.73,-30.14 244.81,-19.75 236.71,-26.57 242.73,-30.14"/>
</g>
<!-- Node6 -->
<g id="node6" class="node">
<title>Node6</title>
<g id="a_node6"><a xlink:title=" ">
<polygon fill="none" stroke="#bfbfbf" points="292,-0.5 292,-19.5 338,-19.5 338,-0.5 292,-0.5"/>
<text text-anchor="middle" x="315" y="-7.5" font-family="serif" font-size="10.00">utility</text>
</a>
</g>
</g>
<!-- Node1&#45;&gt;Node6 -->
<g id="edge5" class="edge">
<title>Node1&#45;&gt;Node6</title>
<path fill="none" stroke="midnightblue" d="M233.58,-56.32C249,-47.74 272.81,-34.49 290.71,-24.52"/>
<polygon fill="midnightblue" stroke="midnightblue" points="292.42,-27.58 299.45,-19.65 289.01,-21.46 292.42,-27.58"/>
</g>
<!-- Node7 -->
<g id="node7" class="node">
<title>Node7</title>
<g id="a_node7"><a xlink:title=" ">
<polygon fill="none" stroke="#bfbfbf" points="356,-0.5 356,-19.5 404,-19.5 404,-0.5 356,-0.5"/>
<text text-anchor="middle" x="380" y="-7.5" font-family="serif" font-size="10.00">vector</text>
</a>
</g>
</g>
<!-- Node1&#45;&gt;Node7 -->
<g id="edge6" class="edge">
<title>Node1&#45;&gt;Node7</title>
<path fill="none" stroke="midnightblue" d="M243.67,-56.44C271.32,-47.23 315.46,-32.51 345.99,-22.34"/>
<polygon fill="midnightblue" stroke="midnightblue" points="347.39,-25.56 355.77,-19.08 345.18,-18.92 347.39,-25.56"/>
</g>
</g>
</svg>
