<?xml version="1.0" encoding="UTF-8" standalone="no"?>
<!DOCTYPE svg PUBLIC "-//W3C//DTD SVG 1.1//EN"
 "http://www.w3.org/Graphics/SVG/1.1/DTD/svg11.dtd">
<!-- Generated by graphviz version 2.43.0 (0)
 -->
<!-- Title: UtilsForOptions.hpp Pages: 1 -->
<svg width="631pt" height="84pt"
 viewBox="0.00 0.00 631.00 84.00" xmlns="http://www.w3.org/2000/svg" xmlns:xlink="http://www.w3.org/1999/xlink">
<g id="graph0" class="graph" transform="scale(1 1) rotate(0) translate(4 80)">
<title>UtilsForOptions.hpp</title>
<!-- Node1 -->
<g id="node1" class="node">
<title>Node1</title>
<g id="a_node1"><a xlink:title="Usefull methods for Options.">
<polygon fill="#bfbfbf" stroke="black" points="276,-56.5 276,-75.5 396,-75.5 396,-56.5 276,-56.5"/>
<text text-anchor="middle" x="336" y="-63.5" font-family="serif" font-size="10.00">UtilsForOptions.hpp</text>
</a>
</g>
</g>
<!-- Node2 -->
<g id="node2" class="node">
<title>Node2</title>
<g id="a_node2"><a xlink:title=" ">
<polygon fill="none" stroke="#bfbfbf" points="0,-0.5 0,-19.5 66,-19.5 66,-0.5 0,-0.5"/>
<text text-anchor="middle" x="33" y="-7.5" font-family="serif" font-size="10.00">algorithm</text>
</a>
</g>
</g>
<!-- Node1&#45;&gt;Node2 -->
<g id="edge1" class="edge">
<title>Node1&#45;&gt;Node2</title>
<path fill="none" stroke="midnightblue" d="M282.9,-56.49C232.25,-48.23 153.56,-35.01 76.34,-20.2"/>
<polygon fill="midnightblue" stroke="midnightblue" points="76.93,-16.75 66.45,-18.29 75.6,-23.62 76.93,-16.75"/>
</g>
<!-- Node3 -->
<g id="node3" class="node">
<title>Node3</title>
<g id="a_node3"><a xlink:title=" ">
<polygon fill="none" stroke="#bfbfbf" points="84,-0.5 84,-19.5 152,-19.5 152,-0.5 84,-0.5"/>
<text text-anchor="middle" x="118" y="-7.5" font-family="serif" font-size="10.00">functional</text>
</a>
</g>
</g>
<!-- Node1&#45;&gt;Node3 -->
<g id="edge2" class="edge">
<title>Node1&#45;&gt;Node3</title>
<path fill="none" stroke="midnightblue" d="M301.46,-56.44C263.64,-47.07 202.9,-32.03 161.77,-21.84"/>
<polygon fill="midnightblue" stroke="midnightblue" points="162.57,-18.43 152.02,-19.43 160.89,-25.23 162.57,-18.43"/>
</g>
<!-- Node4 -->
<g id="node4" class="node">
<title>Node4</title>
<g id="a_node4"><a xlink:title=" ">
<polygon fill="none" stroke="#bfbfbf" points="170.5,-0.5 170.5,-19.5 231.5,-19.5 231.5,-0.5 170.5,-0.5"/>
<text text-anchor="middle" x="201" y="-7.5" font-family="serif" font-size="10.00">iostream</text>
</a>
</g>
</g>
<!-- Node1&#45;&gt;Node4 -->
<g id="edge3" class="edge">
<title>Node1&#45;&gt;Node4</title>
<path fill="none" stroke="midnightblue" d="M314.61,-56.44C292.29,-47.52 257.1,-33.44 231.79,-23.32"/>
<polygon fill="midnightblue" stroke="midnightblue" points="232.88,-19.98 222.29,-19.52 230.28,-26.48 232.88,-19.98"/>
</g>
<!-- Node5 -->
<g id="node5" class="node">
<title>Node5</title>
<g id="a_node5"><a xlink:title=" ">
<polygon fill="none" stroke="#bfbfbf" points="250,-0.5 250,-19.5 294,-19.5 294,-0.5 250,-0.5"/>
<text text-anchor="middle" x="272" y="-7.5" font-family="serif" font-size="10.00">limits</text>
</a>
</g>
</g>
<!-- Node1&#45;&gt;Node5 -->
<g id="edge4" class="edge">
<title>Node1&#45;&gt;Node5</title>
<path fill="none" stroke="midnightblue" d="M325.72,-56.32C316.16,-48.26 301.72,-36.08 290.22,-26.37"/>
<polygon fill="midnightblue" stroke="midnightblue" points="292.37,-23.61 282.47,-19.83 287.86,-28.96 292.37,-23.61"/>
</g>
<!-- Node6 -->
<g id="node6" class="node">
<title>Node6</title>
<g id="a_node6"><a xlink:title=" ">
<polygon fill="none" stroke="#bfbfbf" points="312.5,-0.5 312.5,-19.5 359.5,-19.5 359.5,-0.5 312.5,-0.5"/>
<text text-anchor="middle" x="336" y="-7.5" font-family="serif" font-size="10.00">string</text>
</a>
</g>
</g>
<!-- Node1&#45;&gt;Node6 -->
<g id="edge5" class="edge">
<title>Node1&#45;&gt;Node6</title>
<path fill="none" stroke="midnightblue" d="M336,-56.08C336,-49.01 336,-38.86 336,-29.99"/>
<polygon fill="midnightblue" stroke="midnightblue" points="339.5,-29.75 336,-19.75 332.5,-29.75 339.5,-29.75"/>
</g>
<!-- Node7 -->
<g id="node7" class="node">
<title>Node7</title>
<g id="a_node7"><a xlink:title=" ">
<polygon fill="none" stroke="#bfbfbf" points="377.5,-0.5 377.5,-19.5 420.5,-19.5 420.5,-0.5 377.5,-0.5"/>
<text text-anchor="middle" x="399" y="-7.5" font-family="serif" font-size="10.00">tuple</text>
</a>
</g>
</g>
<!-- Node1&#45;&gt;Node7 -->
<g id="edge6" class="edge">
<title>Node1&#45;&gt;Node7</title>
<path fill="none" stroke="midnightblue" d="M346.12,-56.32C355.53,-48.26 369.74,-36.08 381.07,-26.37"/>
<polygon fill="midnightblue" stroke="midnightblue" points="383.38,-29 388.69,-19.83 378.82,-23.68 383.38,-29"/>
</g>
<!-- Node8 -->
<g id="node8" class="node">
<title>Node8</title>
<g id="a_node8"><a xlink:title=" ">
<polygon fill="none" stroke="#bfbfbf" points="439,-0.5 439,-19.5 485,-19.5 485,-0.5 439,-0.5"/>
<text text-anchor="middle" x="462" y="-7.5" font-family="serif" font-size="10.00">utility</text>
</a>
</g>
</g>
<!-- Node1&#45;&gt;Node8 -->
<g id="edge7" class="edge">
<title>Node1&#45;&gt;Node8</title>
<path fill="none" stroke="midnightblue" d="M355.97,-56.44C376.61,-47.6 409.06,-33.69 432.63,-23.59"/>
<polygon fill="midnightblue" stroke="midnightblue" points="434.32,-26.67 442.13,-19.52 431.56,-20.24 434.32,-26.67"/>
</g>
<!-- Node9 -->
<g id="node9" class="node">
<title>Node9</title>
<g id="a_node9"><a xlink:title=" ">
<polygon fill="none" stroke="#bfbfbf" points="503.5,-0.5 503.5,-19.5 556.5,-19.5 556.5,-0.5 503.5,-0.5"/>
<text text-anchor="middle" x="530" y="-7.5" font-family="serif" font-size="10.00">variant</text>
</a>
</g>
</g>
<!-- Node1&#45;&gt;Node9 -->
<g id="edge8" class="edge">
<title>Node1&#45;&gt;Node9</title>
<path fill="none" stroke="midnightblue" d="M366.74,-56.44C401.21,-46.85 457.08,-31.3 493.68,-21.11"/>
<polygon fill="midnightblue" stroke="midnightblue" points="494.76,-24.44 503.46,-18.39 492.88,-17.7 494.76,-24.44"/>
</g>
<!-- Node10 -->
<g id="node10" class="node">
<title>Node10</title>
<g id="a_node10"><a xlink:title=" ">
<polygon fill="none" stroke="#bfbfbf" points="575,-0.5 575,-19.5 623,-19.5 623,-0.5 575,-0.5"/>
<text text-anchor="middle" x="599" y="-7.5" font-family="serif" font-size="10.00">vector</text>
</a>
</g>
</g>
<!-- Node1&#45;&gt;Node10 -->
<g id="edge9" class="edge">
<title>Node1&#45;&gt;Node10</title>
<path fill="none" stroke="midnightblue" d="M385.13,-56.46C429.66,-48.48 497.29,-35.76 564.92,-20.12"/>
<polygon fill="midnightblue" stroke="midnightblue" points="565.96,-23.47 574.9,-17.79 564.37,-16.66 565.96,-23.47"/>
</g>
</g>
</svg>
