<?xml version="1.0" encoding="UTF-8" standalone="no"?>
<!DOCTYPE svg PUBLIC "-//W3C//DTD SVG 1.1//EN"
 "http://www.w3.org/Graphics/SVG/1.1/DTD/svg11.dtd">
<!-- Generated by graphviz version 2.43.0 (0)
 -->
<!-- Title: UtilsForData.hpp Pages: 1 -->
<svg width="938pt" height="84pt"
 viewBox="0.00 0.00 938.00 84.00" xmlns="http://www.w3.org/2000/svg" xmlns:xlink="http://www.w3.org/1999/xlink">
<g id="graph0" class="graph" transform="scale(1 1) rotate(0) translate(4 80)">
<title>UtilsForData.hpp</title>
<!-- Node1 -->
<g id="node1" class="node">
<title>Node1</title>
<g id="a_node1"><a xlink:title="Usefull methods for data.">
<polygon fill="#bfbfbf" stroke="black" points="446.5,-56.5 446.5,-75.5 550.5,-75.5 550.5,-56.5 446.5,-56.5"/>
<text text-anchor="middle" x="498.5" y="-63.5" font-family="serif" font-size="10.00">UtilsForData.hpp</text>
</a>
</g>
</g>
<!-- Node2 -->
<g id="node2" class="node">
<title>Node2</title>
<g id="a_node2"><a xlink:title=" ">
<polygon fill="none" stroke="#bfbfbf" points="0,-0.5 0,-19.5 59,-19.5 59,-0.5 0,-0.5"/>
<text text-anchor="middle" x="29.5" y="-7.5" font-family="serif" font-size="10.00">unistd.h</text>
</a>
</g>
</g>
<!-- Node1&#45;&gt;Node2 -->
<g id="edge1" class="edge">
<title>Node1&#45;&gt;Node2</title>
<path fill="none" stroke="midnightblue" d="M446.26,-61.61C366.96,-56 211.31,-43.22 69.43,-19.95"/>
<polygon fill="midnightblue" stroke="midnightblue" points="69.67,-16.44 59.24,-18.26 68.53,-23.35 69.67,-16.44"/>
</g>
<!-- Node3 -->
<g id="node3" class="node">
<title>Node3</title>
<g id="a_node3"><a xlink:title=" ">
<polygon fill="none" stroke="#bfbfbf" points="77.5,-0.5 77.5,-19.5 127.5,-19.5 127.5,-0.5 77.5,-0.5"/>
<text text-anchor="middle" x="102.5" y="-7.5" font-family="serif" font-size="10.00">cctype</text>
</a>
</g>
</g>
<!-- Node1&#45;&gt;Node3 -->
<g id="edge2" class="edge">
<title>Node1&#45;&gt;Node3</title>
<path fill="none" stroke="midnightblue" d="M446.3,-60.74C377.63,-54.65 253.08,-41.9 137.73,-20"/>
<polygon fill="midnightblue" stroke="midnightblue" points="138.15,-16.52 127.66,-18.07 136.82,-23.39 138.15,-16.52"/>
</g>
<!-- Node4 -->
<g id="node4" class="node">
<title>Node4</title>
<g id="a_node4"><a xlink:title=" ">
<polygon fill="none" stroke="#bfbfbf" points="146,-0.5 146,-19.5 193,-19.5 193,-0.5 146,-0.5"/>
<text text-anchor="middle" x="169.5" y="-7.5" font-family="serif" font-size="10.00">cstdio</text>
</a>
</g>
</g>
<!-- Node1&#45;&gt;Node4 -->
<g id="edge3" class="edge">
<title>Node1&#45;&gt;Node4</title>
<path fill="none" stroke="midnightblue" d="M446.31,-58.92C389,-51.82 294.13,-38.87 203.14,-19.91"/>
<polygon fill="midnightblue" stroke="midnightblue" points="203.72,-16.46 193.21,-17.82 202.27,-23.31 203.72,-16.46"/>
</g>
<!-- Node5 -->
<g id="node5" class="node">
<title>Node5</title>
<g id="a_node5"><a xlink:title=" ">
<polygon fill="none" stroke="#bfbfbf" points="211.5,-0.5 211.5,-19.5 277.5,-19.5 277.5,-0.5 211.5,-0.5"/>
<text text-anchor="middle" x="244.5" y="-7.5" font-family="serif" font-size="10.00">algorithm</text>
</a>
</g>
</g>
<!-- Node1&#45;&gt;Node5 -->
<g id="edge4" class="edge">
<title>Node1&#45;&gt;Node5</title>
<path fill="none" stroke="midnightblue" d="M458.25,-56.48C417.68,-47.89 353,-34.17 287.59,-20.23"/>
<polygon fill="midnightblue" stroke="midnightblue" points="288.02,-16.74 277.51,-18.08 286.56,-23.59 288.02,-16.74"/>
</g>
<!-- Node6 -->
<g id="node6" class="node">
<title>Node6</title>
<g id="a_node6"><a xlink:title=" ">
<polygon fill="none" stroke="#bfbfbf" points="295.5,-0.5 295.5,-19.5 363.5,-19.5 363.5,-0.5 295.5,-0.5"/>
<text text-anchor="middle" x="329.5" y="-7.5" font-family="serif" font-size="10.00">filesystem</text>
</a>
</g>
</g>
<!-- Node1&#45;&gt;Node6 -->
<g id="edge5" class="edge">
<title>Node1&#45;&gt;Node6</title>
<path fill="none" stroke="midnightblue" d="M471.72,-56.44C443.17,-47.32 397.77,-32.81 365.96,-22.65"/>
<polygon fill="midnightblue" stroke="midnightblue" points="366.74,-19.23 356.15,-19.52 364.61,-25.89 366.74,-19.23"/>
</g>
<!-- Node7 -->
<g id="node7" class="node">
<title>Node7</title>
<g id="a_node7"><a xlink:title=" ">
<polygon fill="none" stroke="#bfbfbf" points="381.5,-0.5 381.5,-19.5 449.5,-19.5 449.5,-0.5 381.5,-0.5"/>
<text text-anchor="middle" x="415.5" y="-7.5" font-family="serif" font-size="10.00">functional</text>
</a>
</g>
</g>
<!-- Node1&#45;&gt;Node7 -->
<g id="edge6" class="edge">
<title>Node1&#45;&gt;Node7</title>
<path fill="none" stroke="midnightblue" d="M485.16,-56.32C472.34,-47.98 452.72,-35.21 437.56,-25.35"/>
<polygon fill="midnightblue" stroke="midnightblue" points="439.09,-22.17 428.8,-19.65 435.28,-28.04 439.09,-22.17"/>
</g>
<!-- Node8 -->
<g id="node8" class="node">
<title>Node8</title>
<g id="a_node8"><a xlink:title=" ">
<polygon fill="none" stroke="#bfbfbf" points="468,-0.5 468,-19.5 529,-19.5 529,-0.5 468,-0.5"/>
<text text-anchor="middle" x="498.5" y="-7.5" font-family="serif" font-size="10.00">iostream</text>
</a>
</g>
</g>
<!-- Node1&#45;&gt;Node8 -->
<g id="edge7" class="edge">
<title>Node1&#45;&gt;Node8</title>
<path fill="none" stroke="midnightblue" d="M498.5,-56.08C498.5,-49.01 498.5,-38.86 498.5,-29.99"/>
<polygon fill="midnightblue" stroke="midnightblue" points="502,-29.75 498.5,-19.75 495,-29.75 502,-29.75"/>
</g>
<!-- Node9 -->
<g id="node9" class="node">
<title>Node9</title>
<g id="a_node9"><a xlink:title=" ">
<polygon fill="none" stroke="#bfbfbf" points="547,-0.5 547,-19.5 586,-19.5 586,-0.5 547,-0.5"/>
<text text-anchor="middle" x="566.5" y="-7.5" font-family="serif" font-size="10.00">map</text>
</a>
</g>
</g>
<!-- Node1&#45;&gt;Node9 -->
<g id="edge8" class="edge">
<title>Node1&#45;&gt;Node9</title>
<path fill="none" stroke="midnightblue" d="M509.43,-56.32C519.67,-48.18 535.22,-35.84 547.5,-26.09"/>
<polygon fill="midnightblue" stroke="midnightblue" points="549.72,-28.79 555.38,-19.83 545.37,-23.31 549.72,-28.79"/>
</g>
<!-- Node10 -->
<g id="node10" class="node">
<title>Node10</title>
<g id="a_node10"><a xlink:title=" ">
<polygon fill="none" stroke="#bfbfbf" points="604,-0.5 604,-19.5 651,-19.5 651,-0.5 604,-0.5"/>
<text text-anchor="middle" x="627.5" y="-7.5" font-family="serif" font-size="10.00">string</text>
</a>
</g>
</g>
<!-- Node1&#45;&gt;Node10 -->
<g id="edge9" class="edge">
<title>Node1&#45;&gt;Node10</title>
<path fill="none" stroke="midnightblue" d="M518.94,-56.44C540.17,-47.56 573.6,-33.56 597.75,-23.45"/>
<polygon fill="midnightblue" stroke="midnightblue" points="599.28,-26.61 607.16,-19.52 596.58,-20.15 599.28,-26.61"/>
</g>
<!-- Node11 -->
<g id="node11" class="node">
<title>Node11</title>
<g id="a_node11"><a xlink:title=" ">
<polygon fill="none" stroke="#bfbfbf" points="669,-0.5 669,-19.5 712,-19.5 712,-0.5 669,-0.5"/>
<text text-anchor="middle" x="690.5" y="-7.5" font-family="serif" font-size="10.00">tuple</text>
</a>
</g>
</g>
<!-- Node1&#45;&gt;Node11 -->
<g id="edge10" class="edge">
<title>Node1&#45;&gt;Node11</title>
<path fill="none" stroke="midnightblue" d="M529.91,-56.48C560.61,-48.11 608.91,-34.82 659.15,-20.35"/>
<polygon fill="midnightblue" stroke="midnightblue" points="660.25,-23.68 668.89,-17.54 658.31,-16.95 660.25,-23.68"/>
</g>
<!-- Node12 -->
<g id="node12" class="node">
<title>Node12</title>
<g id="a_node12"><a xlink:title=" ">
<polygon fill="none" stroke="#bfbfbf" points="730.5,-0.5 730.5,-19.5 776.5,-19.5 776.5,-0.5 730.5,-0.5"/>
<text text-anchor="middle" x="753.5" y="-7.5" font-family="serif" font-size="10.00">utility</text>
</a>
</g>
</g>
<!-- Node1&#45;&gt;Node12 -->
<g id="edge11" class="edge">
<title>Node1&#45;&gt;Node12</title>
<path fill="none" stroke="midnightblue" d="M546.14,-56.46C589.24,-48.49 654.64,-35.81 720.36,-20.13"/>
<polygon fill="midnightblue" stroke="midnightblue" points="721.58,-23.44 730.48,-17.7 719.94,-16.63 721.58,-23.44"/>
</g>
<!-- Node13 -->
<g id="node13" class="node">
<title>Node13</title>
<g id="a_node13"><a xlink:title=" ">
<polygon fill="none" stroke="#bfbfbf" points="794.5,-0.5 794.5,-19.5 842.5,-19.5 842.5,-0.5 794.5,-0.5"/>
<text text-anchor="middle" x="818.5" y="-7.5" font-family="serif" font-size="10.00">vector</text>
</a>
</g>
</g>
<!-- Node1&#45;&gt;Node13 -->
<g id="edge12" class="edge">
<title>Node1&#45;&gt;Node13</title>
<path fill="none" stroke="midnightblue" d="M550.67,-58.59C606.34,-51.35 697.26,-38.4 784.62,-19.99"/>
<polygon fill="midnightblue" stroke="midnightblue" points="785.38,-23.41 794.42,-17.9 783.91,-16.56 785.38,-23.41"/>
</g>
<!-- Node14 -->
<g id="node14" class="node">
<title>Node14</title>
<g id="a_node14"><a xlink:title=" ">
<polygon fill="none" stroke="#bfbfbf" points="861,-0.5 861,-19.5 930,-19.5 930,-0.5 861,-0.5"/>
<text text-anchor="middle" x="895.5" y="-7.5" font-family="serif" font-size="10.00">mfem.hpp</text>
</a>
</g>
</g>
<!-- Node1&#45;&gt;Node14 -->
<g id="edge13" class="edge">
<title>Node1&#45;&gt;Node14</title>
<path fill="none" stroke="midnightblue" d="M550.71,-59.58C617.74,-52.35 737.85,-38.47 850.76,-20"/>
<polygon fill="midnightblue" stroke="midnightblue" points="851.66,-23.4 860.96,-18.32 850.52,-16.5 851.66,-23.4"/>
</g>
</g>
</svg>
