<?xml version="1.0" encoding="UTF-8" standalone="no"?>
<!DOCTYPE svg PUBLIC "-//W3C//DTD SVG 1.1//EN"
 "http://www.w3.org/Graphics/SVG/1.1/DTD/svg11.dtd">
<!-- Generated by graphviz version 2.43.0 (0)
 -->
<!-- Title: check_file_existence Pages: 1 -->
<svg width="576pt" height="39pt"
 viewBox="0.00 0.00 576.00 39.00" xmlns="http://www.w3.org/2000/svg" xmlns:xlink="http://www.w3.org/1999/xlink">
<g id="graph0" class="graph" transform="scale(1 1) rotate(0) translate(4 35)">
<title>check_file_existence</title>
<!-- Node1 -->
<g id="node1" class="node">
<title>Node1</title>
<g id="a_node1"><a xlink:title="Check existence of a file.">
<polygon fill="#bfbfbf" stroke="black" points="448,-6 448,-25 568,-25 568,-6 448,-6"/>
<text text-anchor="middle" x="508" y="-13" font-family="serif" font-size="10.00">check_file_existence</text>
</a>
</g>
</g>
<!-- Node2 -->
<g id="node2" class="node">
<title>Node2</title>
<g id="a_node2"><a xlink:href="classCalphadInformedNeuralNetwork.html#a65455151b7486c06d1b346c377468800" target="_top" xlink:title="Get the parameters associated with the CalphadInformedNeuralNetwork object.">
<polygon fill="none" stroke="black" points="227,-0.5 227,-30.5 412,-30.5 412,-0.5 227,-0.5"/>
<text text-anchor="start" x="235" y="-18.5" font-family="serif" font-size="10.00">CalphadInformedNeuralNetwork</text>
<text text-anchor="middle" x="319.5" y="-7.5" font-family="serif" font-size="10.00">::get_parameters</text>
</a>
</g>
</g>
<!-- Node1&#45;&gt;Node2 -->
<g id="edge1" class="edge">
<title>Node1&#45;&gt;Node2</title>
<path fill="none" stroke="midnightblue" d="M437.91,-15.5C429.51,-15.5 420.84,-15.5 412.18,-15.5"/>
<polygon fill="midnightblue" stroke="midnightblue" points="437.99,-19 447.99,-15.5 437.99,-12 437.99,-19"/>
</g>
<!-- Node3 -->
<g id="node3" class="node">
<title>Node3</title>
<g id="a_node3"><a xlink:href="classCalphadInformedNeuralNetwork.html#a36b758dd30a42967cc6c46910e3ca9ae" target="_top" xlink:title="Construct a new CalphadInformedNeuralNetwork::CalphadInformedNeuralNetwork object.">
<polygon fill="none" stroke="black" points="0,-0.5 0,-30.5 191,-30.5 191,-0.5 0,-0.5"/>
<text text-anchor="start" x="8" y="-18.5" font-family="serif" font-size="10.00">CalphadInformedNeuralNetwork</text>
<text text-anchor="middle" x="95.5" y="-7.5" font-family="serif" font-size="10.00">::CalphadInformedNeuralNetwork</text>
</a>
</g>
</g>
<!-- Node2&#45;&gt;Node3 -->
<g id="edge2" class="edge">
<title>Node2&#45;&gt;Node3</title>
<path fill="none" stroke="midnightblue" d="M216.89,-15.5C208.3,-15.5 199.63,-15.5 191.1,-15.5"/>
<polygon fill="midnightblue" stroke="midnightblue" points="216.92,-19 226.92,-15.5 216.92,-12 216.92,-19"/>
</g>
</g>
</svg>
