<?xml version="1.0" encoding="UTF-8" standalone="no"?>
<!DOCTYPE svg PUBLIC "-//W3C//DTD SVG 1.1//EN"
 "http://www.w3.org/Graphics/SVG/1.1/DTD/svg11.dtd">
<!-- Generated by graphviz version 2.43.0 (0)
 -->
<!-- Title: toUpperCase Pages: 1 -->
<svg width="274pt" height="88pt"
 viewBox="0.00 0.00 274.00 88.00" xmlns="http://www.w3.org/2000/svg" xmlns:xlink="http://www.w3.org/1999/xlink">
<g id="graph0" class="graph" transform="scale(1 1) rotate(0) translate(4 84)">
<title>toUpperCase</title>
<!-- Node1 -->
<g id="node1" class="node">
<title>Node1</title>
<g id="a_node1"><a xlink:title="Put string in uppercase.">
<polygon fill="#bfbfbf" stroke="black" points="183,-30 183,-49 266,-49 266,-30 183,-30"/>
<text text-anchor="middle" x="224.5" y="-37" font-family="serif" font-size="10.00">toUpperCase</text>
</a>
</g>
</g>
<!-- Node2 -->
<g id="node2" class="node">
<title>Node2</title>
<g id="a_node2"><a xlink:href="classInterDiffusionCoefficient.html#a68099636d767d6ad4e4bba774c203d41" target="_top" xlink:title="Get the values of the property.">
<polygon fill="none" stroke="black" points="3,-49.5 3,-79.5 144,-79.5 144,-49.5 3,-49.5"/>
<text text-anchor="start" x="11" y="-67.5" font-family="serif" font-size="10.00">InterDiffusionCoefficient</text>
<text text-anchor="middle" x="73.5" y="-56.5" font-family="serif" font-size="10.00">::get_property</text>
</a>
</g>
</g>
<!-- Node1&#45;&gt;Node2 -->
<g id="edge1" class="edge">
<title>Node1&#45;&gt;Node2</title>
<path fill="none" stroke="midnightblue" d="M172.66,-48.03C163.47,-49.57 153.73,-51.21 144.11,-52.82"/>
<polygon fill="midnightblue" stroke="midnightblue" points="173.5,-51.44 182.79,-46.33 172.34,-44.53 173.5,-51.44"/>
</g>
<!-- Node3 -->
<g id="node3" class="node">
<title>Node3</title>
<g id="a_node3"><a xlink:href="classInterDiffusionCoefficient.html#a9539e97cca32bd9d570872eef5f43983" target="_top" xlink:title="Construct a new InterDiffusionCoefficient::InterDiffusionCoefficient object.">
<polygon fill="none" stroke="black" points="0,-0.5 0,-30.5 147,-30.5 147,-0.5 0,-0.5"/>
<text text-anchor="start" x="8" y="-18.5" font-family="serif" font-size="10.00">InterDiffusionCoefficient</text>
<text text-anchor="middle" x="73.5" y="-7.5" font-family="serif" font-size="10.00">::InterDiffusionCoefficient</text>
</a>
</g>
</g>
<!-- Node1&#45;&gt;Node3 -->
<g id="edge2" class="edge">
<title>Node1&#45;&gt;Node3</title>
<path fill="none" stroke="midnightblue" d="M172.67,-31.31C164.47,-29.99 155.85,-28.6 147.25,-27.22"/>
<polygon fill="midnightblue" stroke="midnightblue" points="172.36,-34.81 182.79,-32.94 173.47,-27.9 172.36,-34.81"/>
</g>
</g>
</svg>
