<?xml version="1.0" encoding="UTF-8" standalone="no"?>
<!DOCTYPE svg PUBLIC "-//W3C//DTD SVG 1.1//EN"
 "http://www.w3.org/Graphics/SVG/1.1/DTD/svg11.dtd">
<!-- Generated by graphviz version 2.43.0 (0)
 -->
<!-- Title: Variable.hpp Pages: 1 -->
<svg width="1021pt" height="308pt"
 viewBox="0.00 0.00 1021.22 308.00" xmlns="http://www.w3.org/2000/svg" xmlns:xlink="http://www.w3.org/1999/xlink">
<g id="graph0" class="graph" transform="scale(1 1) rotate(0) translate(4 304)">
<title>Variable.hpp</title>
<!-- Node1 -->
<g id="node1" class="node">
<title>Node1</title>
<g id="a_node1"><a xlink:title="Variable class used to build and manage variables of model.">
<polygon fill="#bfbfbf" stroke="black" points="266.09,-280.5 266.09,-299.5 347.09,-299.5 347.09,-280.5 266.09,-280.5"/>
<text text-anchor="middle" x="306.59" y="-287.5" font-family="serif" font-size="10.00">Variable.hpp</text>
</a>
</g>
</g>
<!-- Node2 -->
<g id="node2" class="node">
<title>Node2</title>
<g id="a_node2"><a xlink:href="postprocessing_8hpp.html" target="_top" xlink:title="Post&#45;processing features.">
<polygon fill="none" stroke="black" points="117.09,-224.5 117.09,-243.5 234.09,-243.5 234.09,-224.5 117.09,-224.5"/>
<text text-anchor="middle" x="175.59" y="-231.5" font-family="serif" font-size="10.00">postprocessing.hpp</text>
</a>
</g>
</g>
<!-- Node1&#45;&gt;Node2 -->
<g id="edge1" class="edge">
<title>Node1&#45;&gt;Node2</title>
<path fill="none" stroke="midnightblue" d="M276.28,-276.5C251.72,-266.38 217.78,-252.39 196.25,-243.52"/>
<polygon fill="midnightblue" stroke="midnightblue" points="275.26,-279.87 285.84,-280.44 277.93,-273.4 275.26,-279.87"/>
</g>
<!-- Node3 -->
<g id="node3" class="node">
<title>Node3</title>
<g id="a_node3"><a xlink:href="MPIProblem_8hpp.html" target="_top" xlink:title="Class used to defined a MPI_Problem objet.">
<polygon fill="none" stroke="black" points="336.59,-112.5 336.59,-131.5 440.59,-131.5 440.59,-112.5 336.59,-112.5"/>
<text text-anchor="middle" x="388.59" y="-119.5" font-family="serif" font-size="10.00">MPIProblem.hpp</text>
</a>
</g>
</g>
<!-- Node1&#45;&gt;Node3 -->
<g id="edge17" class="edge">
<title>Node1&#45;&gt;Node3</title>
<path fill="none" stroke="midnightblue" d="M315.56,-270.86C333.14,-235.25 371.58,-157.45 384.36,-131.57"/>
<polygon fill="midnightblue" stroke="midnightblue" points="312.29,-269.56 311,-280.08 318.57,-272.66 312.29,-269.56"/>
</g>
<!-- Node4 -->
<g id="node4" class="node">
<title>Node4</title>
<g id="a_node4"><a xlink:href="sloth_8hpp.html" target="_top" xlink:title="List of all header files contained in the kernel directory.">
<polygon fill="none" stroke="black" points="415.09,-0.5 415.09,-19.5 480.09,-19.5 480.09,-0.5 415.09,-0.5"/>
<text text-anchor="middle" x="447.59" y="-7.5" font-family="serif" font-size="10.00">sloth.hpp</text>
</a>
</g>
</g>
<!-- Node1&#45;&gt;Node4 -->
<g id="edge20" class="edge">
<title>Node1&#45;&gt;Node4</title>
<path fill="none" stroke="midnightblue" d="M327.58,-274.32C360.96,-249.52 424.91,-195.75 449.59,-132 464.92,-92.42 454.81,-39.97 449.87,-19.6"/>
<polygon fill="midnightblue" stroke="midnightblue" points="325.44,-271.55 319.41,-280.26 329.56,-277.21 325.44,-271.55"/>
</g>
<!-- Node5 -->
<g id="node5" class="node">
<title>Node5</title>
<g id="a_node5"><a xlink:href="Problem_8hpp.html" target="_top" xlink:title="Class used to defined a Problem objet.">
<polygon fill="none" stroke="black" points="13.09,-112.5 13.09,-131.5 96.09,-131.5 96.09,-112.5 13.09,-112.5"/>
<text text-anchor="middle" x="54.59" y="-119.5" font-family="serif" font-size="10.00">Problem.hpp</text>
</a>
</g>
</g>
<!-- Node1&#45;&gt;Node5 -->
<g id="edge18" class="edge">
<title>Node1&#45;&gt;Node5</title>
<path fill="none" stroke="midnightblue" d="M255.82,-282.79C204.56,-275.62 129.87,-262.39 107.59,-244 71.16,-213.92 59.04,-153.9 55.7,-131.6"/>
<polygon fill="midnightblue" stroke="midnightblue" points="255.35,-286.26 265.74,-284.15 256.3,-279.33 255.35,-286.26"/>
</g>
<!-- Node7 -->
<g id="node7" class="node">
<title>Node7</title>
<g id="a_node7"><a xlink:href="ProblemBase_8hpp.html" target="_top" xlink:title="Base class for building Problems.">
<polygon fill="none" stroke="black" points="122.09,-168.5 122.09,-187.5 229.09,-187.5 229.09,-168.5 122.09,-168.5"/>
<text text-anchor="middle" x="175.59" y="-175.5" font-family="serif" font-size="10.00">ProblemBase.hpp</text>
</a>
</g>
</g>
<!-- Node1&#45;&gt;Node7 -->
<g id="edge19" class="edge">
<title>Node1&#45;&gt;Node7</title>
<path fill="none" stroke="midnightblue" d="M292.35,-272.79C279.89,-259.06 260.97,-239.24 242.59,-224 225.55,-209.87 204.02,-196.04 190.04,-187.52"/>
<polygon fill="midnightblue" stroke="midnightblue" points="289.93,-275.34 299.2,-280.46 295.15,-270.67 289.93,-275.34"/>
</g>
<!-- Node10 -->
<g id="node10" class="node">
<title>Node10</title>
<g id="a_node10"><a xlink:href="Variables_8hpp.html" target="_top" xlink:title="Variables class used to build and manage variables.">
<polygon fill="none" stroke="black" points="570.59,-224.5 570.59,-243.5 656.59,-243.5 656.59,-224.5 570.59,-224.5"/>
<text text-anchor="middle" x="613.59" y="-231.5" font-family="serif" font-size="10.00">Variables.hpp</text>
</a>
</g>
</g>
<!-- Node1&#45;&gt;Node10 -->
<g id="edge21" class="edge">
<title>Node1&#45;&gt;Node10</title>
<path fill="none" stroke="midnightblue" d="M357.29,-280.08C416.78,-269.62 514.4,-252.45 570.43,-242.59"/>
<polygon fill="midnightblue" stroke="midnightblue" points="356.6,-276.65 347.36,-281.83 357.82,-283.54 356.6,-276.65"/>
</g>
<!-- Node2&#45;&gt;Node3 -->
<g id="edge2" class="edge">
<title>Node2&#45;&gt;Node3</title>
<path fill="none" stroke="midnightblue" d="M201.28,-219.73C245.53,-196.88 334.94,-150.71 371.96,-131.59"/>
<polygon fill="midnightblue" stroke="midnightblue" points="199.59,-216.67 192.31,-224.37 202.8,-222.89 199.59,-216.67"/>
</g>
<!-- Node2&#45;&gt;Node4 -->
<g id="edge16" class="edge">
<title>Node2&#45;&gt;Node4</title>
<path fill="none" stroke="midnightblue" d="M131.77,-221.37C90.11,-207.67 30,-180.41 3.59,-132 -11.15,-104.97 26.75,-59.37 31.59,-56 93.4,-13.03 327.78,-10.14 414.81,-10.6"/>
<polygon fill="midnightblue" stroke="midnightblue" points="130.82,-224.74 141.41,-224.4 132.92,-218.06 130.82,-224.74"/>
</g>
<!-- Node2&#45;&gt;Node5 -->
<g id="edge4" class="edge">
<title>Node2&#45;&gt;Node5</title>
<path fill="none" stroke="midnightblue" d="M153.21,-218.79C140.74,-210.45 125.23,-199.34 112.59,-188 92.11,-169.62 71.43,-144.52 61.2,-131.55"/>
<polygon fill="midnightblue" stroke="midnightblue" points="151.38,-221.78 161.66,-224.34 155.22,-215.93 151.38,-221.78"/>
</g>
<!-- Node2&#45;&gt;Node7 -->
<g id="edge8" class="edge">
<title>Node2&#45;&gt;Node7</title>
<path fill="none" stroke="midnightblue" d="M175.59,-213.8C175.59,-204.91 175.59,-194.78 175.59,-187.75"/>
<polygon fill="midnightblue" stroke="midnightblue" points="172.09,-214.08 175.59,-224.08 179.09,-214.08 172.09,-214.08"/>
</g>
<!-- Node3&#45;&gt;Node4 -->
<g id="edge3" class="edge">
<title>Node3&#45;&gt;Node4</title>
<path fill="none" stroke="midnightblue" d="M398.08,-103.32C410.92,-79.37 433.35,-37.55 442.99,-19.59"/>
<polygon fill="midnightblue" stroke="midnightblue" points="394.87,-101.9 393.22,-112.37 401.04,-105.21 394.87,-101.9"/>
</g>
<!-- Node5&#45;&gt;Node4 -->
<g id="edge5" class="edge">
<title>Node5&#45;&gt;Node4</title>
<path fill="none" stroke="midnightblue" d="M43.76,-103.27C36.48,-88.83 30.12,-68.82 41.59,-56 66.4,-28.29 323.11,-15.78 415.06,-12.16"/>
<polygon fill="midnightblue" stroke="midnightblue" points="40.81,-105.18 48.74,-112.21 46.93,-101.77 40.81,-105.18"/>
</g>
<!-- Node6 -->
<g id="node6" class="node">
<title>Node6</title>
<g id="a_node6"><a xlink:href="Time_8hpp.html" target="_top" xlink:title="Main time loop.">
<polygon fill="none" stroke="black" points="51.09,-56.5 51.09,-75.5 116.09,-75.5 116.09,-56.5 51.09,-56.5"/>
<text text-anchor="middle" x="83.59" y="-63.5" font-family="serif" font-size="10.00">Time.hpp</text>
</a>
</g>
</g>
<!-- Node5&#45;&gt;Node6 -->
<g id="edge6" class="edge">
<title>Node5&#45;&gt;Node6</title>
<path fill="none" stroke="midnightblue" d="M64.27,-102.98C69.19,-93.82 74.95,-83.09 78.89,-75.75"/>
<polygon fill="midnightblue" stroke="midnightblue" points="61.03,-101.62 59.38,-112.08 67.2,-104.93 61.03,-101.62"/>
</g>
<!-- Node6&#45;&gt;Node4 -->
<g id="edge7" class="edge">
<title>Node6&#45;&gt;Node4</title>
<path fill="none" stroke="midnightblue" d="M126.15,-56.76C127.65,-56.5 129.13,-56.24 130.59,-56 233.95,-38.78 356.97,-22.52 414.66,-15.14"/>
<polygon fill="midnightblue" stroke="midnightblue" points="125.4,-53.34 116.17,-58.55 126.64,-60.23 125.4,-53.34"/>
</g>
<!-- Node7&#45;&gt;Node3 -->
<g id="edge11" class="edge">
<title>Node7&#45;&gt;Node3</title>
<path fill="none" stroke="midnightblue" d="M219.15,-165.96C259.38,-155.76 318.3,-140.82 355,-131.52"/>
<polygon fill="midnightblue" stroke="midnightblue" points="218.18,-162.59 209.34,-168.44 219.9,-169.38 218.18,-162.59"/>
</g>
<!-- Node7&#45;&gt;Node4 -->
<g id="edge15" class="edge">
<title>Node7&#45;&gt;Node4</title>
<path fill="none" stroke="midnightblue" d="M168.82,-158.75C160.35,-132.37 149.85,-83.75 175.59,-56 207.5,-21.61 349.99,-13.5 415.03,-11.59"/>
<polygon fill="midnightblue" stroke="midnightblue" points="165.53,-159.96 172.11,-168.27 172.15,-157.67 165.53,-159.96"/>
</g>
<!-- Node7&#45;&gt;Node5 -->
<g id="edge12" class="edge">
<title>Node7&#45;&gt;Node5</title>
<path fill="none" stroke="midnightblue" d="M147.29,-164.37C124.63,-154.26 93.47,-140.35 73.68,-131.52"/>
<polygon fill="midnightblue" stroke="midnightblue" points="145.86,-167.56 156.42,-168.44 148.72,-161.17 145.86,-167.56"/>
</g>
<!-- Node8 -->
<g id="node8" class="node">
<title>Node8</title>
<g id="a_node8"><a xlink:href="Calphad__problem_8hpp.html" target="_top" xlink:title="Class used to defined a Calphad_Problem objet.">
<polygon fill="none" stroke="black" points="185.09,-56.5 185.09,-75.5 316.09,-75.5 316.09,-56.5 185.09,-56.5"/>
<text text-anchor="middle" x="250.59" y="-63.5" font-family="serif" font-size="10.00">Calphad_problem.hpp</text>
</a>
</g>
</g>
<!-- Node7&#45;&gt;Node8 -->
<g id="edge9" class="edge">
<title>Node7&#45;&gt;Node8</title>
<path fill="none" stroke="midnightblue" d="M173.17,-158.06C172.35,-144.32 173.28,-125.8 181.59,-112 192,-94.73 211.88,-82.83 227.63,-75.63"/>
<polygon fill="midnightblue" stroke="midnightblue" points="169.71,-158.65 174.14,-168.27 176.67,-157.99 169.71,-158.65"/>
</g>
<!-- Node9 -->
<g id="node9" class="node">
<title>Node9</title>
<g id="a_node9"><a xlink:href="PropertyProblem_8hpp.html" target="_top" xlink:title="Class used to compute primary variables as a function of auxialiary variables.">
<polygon fill="none" stroke="black" points="191.09,-112.5 191.09,-131.5 318.09,-131.5 318.09,-112.5 191.09,-112.5"/>
<text text-anchor="middle" x="254.59" y="-119.5" font-family="serif" font-size="10.00">PropertyProblem.hpp</text>
</a>
</g>
</g>
<!-- Node7&#45;&gt;Node9 -->
<g id="edge13" class="edge">
<title>Node7&#45;&gt;Node9</title>
<path fill="none" stroke="midnightblue" d="M196.63,-162.62C211.06,-152.76 229.74,-139.99 241.93,-131.65"/>
<polygon fill="midnightblue" stroke="midnightblue" points="194.57,-159.79 188.29,-168.32 198.52,-165.57 194.57,-159.79"/>
</g>
<!-- Node8&#45;&gt;Node4 -->
<g id="edge10" class="edge">
<title>Node8&#45;&gt;Node4</title>
<path fill="none" stroke="midnightblue" d="M291.82,-53.7C329,-43.51 382.87,-28.74 416.53,-19.52"/>
<polygon fill="midnightblue" stroke="midnightblue" points="290.53,-50.42 281.81,-56.44 292.38,-57.18 290.53,-50.42"/>
</g>
<!-- Node9&#45;&gt;Node4 -->
<g id="edge14" class="edge">
<title>Node9&#45;&gt;Node4</title>
<path fill="none" stroke="midnightblue" d="M278.63,-107.3C318.98,-84.3 399.19,-38.59 432.52,-19.59"/>
<polygon fill="midnightblue" stroke="midnightblue" points="276.69,-104.38 269.74,-112.37 280.16,-110.46 276.69,-104.38"/>
</g>
<!-- Node10&#45;&gt;Node4 -->
<g id="edge39" class="edge">
<title>Node10&#45;&gt;Node4</title>
<path fill="none" stroke="midnightblue" d="M598.44,-217.08C580.27,-197.67 549.32,-163.56 525.59,-132 495.41,-91.85 464.54,-40.15 452.67,-19.8"/>
<polygon fill="midnightblue" stroke="midnightblue" points="595.97,-219.57 605.38,-224.44 601.07,-214.77 595.97,-219.57"/>
</g>
<!-- Node11 -->
<g id="node11" class="node">
<title>Node11</title>
<g id="a_node11"><a xlink:href="OperatorBase_8hpp.html" target="_top" xlink:title="Base class for building Steady and TimeDependent PhaseFieldOperators.">
<polygon fill="none" stroke="black" points="643.59,-168.5 643.59,-187.5 753.59,-187.5 753.59,-168.5 643.59,-168.5"/>
<text text-anchor="middle" x="698.59" y="-175.5" font-family="serif" font-size="10.00">OperatorBase.hpp</text>
</a>
</g>
</g>
<!-- Node10&#45;&gt;Node11 -->
<g id="edge22" class="edge">
<title>Node10&#45;&gt;Node11</title>
<path fill="none" stroke="midnightblue" d="M635.79,-218.9C651.37,-209 671.72,-196.07 684.97,-187.65"/>
<polygon fill="midnightblue" stroke="midnightblue" points="633.82,-216.01 627.25,-224.32 637.57,-221.92 633.82,-216.01"/>
</g>
<!-- Node12 -->
<g id="node12" class="node">
<title>Node12</title>
<g id="a_node12"><a xlink:href="SteadyOperatorBase_8hpp.html" target="_top" xlink:title="Steady Operator base.">
<polygon fill="none" stroke="black" points="711.59,-112.5 711.59,-131.5 857.59,-131.5 857.59,-112.5 711.59,-112.5"/>
<text text-anchor="middle" x="784.59" y="-119.5" font-family="serif" font-size="10.00">SteadyOperatorBase.hpp</text>
</a>
</g>
</g>
<!-- Node10&#45;&gt;Node12 -->
<g id="edge37" class="edge">
<title>Node10&#45;&gt;Node12</title>
<path fill="none" stroke="midnightblue" d="M666.74,-228.98C698.3,-223.95 737.01,-212.75 762.59,-188 778.35,-172.76 782.82,-145.85 784.09,-131.92"/>
<polygon fill="midnightblue" stroke="midnightblue" points="666.18,-225.53 656.78,-230.41 667.17,-232.46 666.18,-225.53"/>
</g>
<!-- Node16 -->
<g id="node16" class="node">
<title>Node16</title>
<g id="a_node16"><a xlink:href="TransientOperatorBase_8hpp.html" target="_top" xlink:title="Transient Operator base.">
<polygon fill="none" stroke="black" points="534.09,-112.5 534.09,-131.5 693.09,-131.5 693.09,-112.5 534.09,-112.5"/>
<text text-anchor="middle" x="613.59" y="-119.5" font-family="serif" font-size="10.00">TransientOperatorBase.hpp</text>
</a>
</g>
</g>
<!-- Node10&#45;&gt;Node16 -->
<g id="edge38" class="edge">
<title>Node10&#45;&gt;Node16</title>
<path fill="none" stroke="midnightblue" d="M613.59,-214.35C613.59,-190.25 613.59,-149.31 613.59,-131.59"/>
<polygon fill="midnightblue" stroke="midnightblue" points="610.09,-214.37 613.59,-224.37 617.09,-214.37 610.09,-214.37"/>
</g>
<!-- Node11&#45;&gt;Node4 -->
<g id="edge36" class="edge">
<title>Node11&#45;&gt;Node4</title>
<path fill="none" stroke="midnightblue" d="M763.8,-172.49C871.85,-162.74 1069.37,-133.89 997.59,-56 962.45,-17.87 593.38,-12.05 480.33,-11.16"/>
<polygon fill="midnightblue" stroke="midnightblue" points="763.29,-169.02 753.63,-173.38 763.9,-175.99 763.29,-169.02"/>
</g>
<!-- Node11&#45;&gt;Node12 -->
<g id="edge23" class="edge">
<title>Node11&#45;&gt;Node12</title>
<path fill="none" stroke="midnightblue" d="M721.05,-162.9C736.82,-153 757.41,-140.07 770.81,-131.65"/>
<polygon fill="midnightblue" stroke="midnightblue" points="719.02,-160.04 712.41,-168.32 722.74,-165.97 719.02,-160.04"/>
</g>
<!-- Node11&#45;&gt;Node16 -->
<g id="edge31" class="edge">
<title>Node11&#45;&gt;Node16</title>
<path fill="none" stroke="midnightblue" d="M676.4,-162.9C660.81,-153 640.46,-140.07 627.22,-131.65"/>
<polygon fill="midnightblue" stroke="midnightblue" points="674.62,-165.92 684.94,-168.32 678.37,-160.01 674.62,-165.92"/>
</g>
<!-- Node12&#45;&gt;Node4 -->
<g id="edge30" class="edge">
<title>Node12&#45;&gt;Node4</title>
<path fill="none" stroke="midnightblue" d="M867.76,-117.77C936.54,-112.17 1017.28,-97.01 979.59,-56 945.77,-19.19 591.09,-12.46 480.4,-11.26"/>
<polygon fill="midnightblue" stroke="midnightblue" points="867.42,-114.28 857.71,-118.52 867.95,-121.26 867.42,-114.28"/>
</g>
<!-- Node13 -->
<g id="node13" class="node">
<title>Node13</title>
<g id="a_node13"><a xlink:href="DiffusionOperator_8hpp.html" target="_top" xlink:title="Diffusion operator (Base, Steady and TimeDependent)">
<polygon fill="none" stroke="black" points="839.09,-56.5 839.09,-75.5 970.09,-75.5 970.09,-56.5 839.09,-56.5"/>
<text text-anchor="middle" x="904.59" y="-63.5" font-family="serif" font-size="10.00">DiffusionOperator.hpp</text>
</a>
</g>
</g>
<!-- Node12&#45;&gt;Node13 -->
<g id="edge24" class="edge">
<title>Node12&#45;&gt;Node13</title>
<path fill="none" stroke="midnightblue" d="M812.97,-108.23C835.41,-98.13 866.13,-84.31 885.67,-75.52"/>
<polygon fill="midnightblue" stroke="midnightblue" points="811.29,-105.15 803.61,-112.44 814.16,-111.53 811.29,-105.15"/>
</g>
<!-- Node14 -->
<g id="node14" class="node">
<title>Node14</title>
<g id="a_node14"><a xlink:href="HeatOperator_8hpp.html" target="_top" xlink:title="Heat operator (Base, Steady and TimeDependent)">
<polygon fill="none" stroke="black" points="551.59,-56.5 551.59,-75.5 661.59,-75.5 661.59,-56.5 551.59,-56.5"/>
<text text-anchor="middle" x="606.59" y="-63.5" font-family="serif" font-size="10.00">HeatOperator.hpp</text>
</a>
</g>
</g>
<!-- Node12&#45;&gt;Node14 -->
<g id="edge26" class="edge">
<title>Node12&#45;&gt;Node14</title>
<path fill="none" stroke="midnightblue" d="M746.48,-109.44C712.92,-99.26 664.82,-84.66 634.67,-75.52"/>
<polygon fill="midnightblue" stroke="midnightblue" points="745.8,-112.89 756.39,-112.44 747.84,-106.19 745.8,-112.89"/>
</g>
<!-- Node15 -->
<g id="node15" class="node">
<title>Node15</title>
<g id="a_node15"><a xlink:href="PhaseFieldOperator_8hpp.html" target="_top" xlink:title="AllenCahn operator (Base, Steady and TimeDependent)">
<polygon fill="none" stroke="black" points="680.09,-56.5 680.09,-75.5 821.09,-75.5 821.09,-56.5 680.09,-56.5"/>
<text text-anchor="middle" x="750.59" y="-63.5" font-family="serif" font-size="10.00">PhaseFieldOperator.hpp</text>
</a>
</g>
</g>
<!-- Node12&#45;&gt;Node15 -->
<g id="edge28" class="edge">
<title>Node12&#45;&gt;Node15</title>
<path fill="none" stroke="midnightblue" d="M773.62,-103.57C767.77,-94.27 760.82,-83.25 756.1,-75.75"/>
<polygon fill="midnightblue" stroke="midnightblue" points="770.69,-105.49 778.98,-112.08 776.61,-101.76 770.69,-105.49"/>
</g>
<!-- Node13&#45;&gt;Node4 -->
<g id="edge25" class="edge">
<title>Node13&#45;&gt;Node4</title>
<path fill="none" stroke="midnightblue" d="M828.69,-55.78C693.3,-39.61 544.59,-22.27 480.13,-14.78"/>
<polygon fill="midnightblue" stroke="midnightblue" points="828.48,-59.28 838.83,-56.99 829.31,-52.33 828.48,-59.28"/>
</g>
<!-- Node14&#45;&gt;Node4 -->
<g id="edge27" class="edge">
<title>Node14&#45;&gt;Node4</title>
<path fill="none" stroke="midnightblue" d="M571.77,-53.17C541.83,-43 499.37,-28.59 472.67,-19.52"/>
<polygon fill="midnightblue" stroke="midnightblue" points="570.81,-56.54 581.4,-56.44 573.06,-49.91 570.81,-56.54"/>
</g>
<!-- Node15&#45;&gt;Node4 -->
<g id="edge29" class="edge">
<title>Node15&#45;&gt;Node4</title>
<path fill="none" stroke="midnightblue" d="M692.41,-54.63C629.42,-43.41 531.2,-25.9 480.44,-16.85"/>
<polygon fill="midnightblue" stroke="midnightblue" points="692.12,-58.13 702.58,-56.44 693.35,-51.24 692.12,-58.13"/>
</g>
<!-- Node16&#45;&gt;Node4 -->
<g id="edge35" class="edge">
<title>Node16&#45;&gt;Node4</title>
<path fill="none" stroke="midnightblue" d="M591.1,-107.03C577.08,-98.24 558.69,-86.6 542.59,-76 512.55,-56.21 477.79,-32.12 459.8,-19.55"/>
<polygon fill="midnightblue" stroke="midnightblue" points="589.29,-110.02 599.62,-112.35 593,-104.08 589.29,-110.02"/>
</g>
<!-- Node16&#45;&gt;Node13 -->
<g id="edge32" class="edge">
<title>Node16&#45;&gt;Node13</title>
<path fill="none" stroke="midnightblue" d="M669.63,-110.6C724.63,-100.4 807.49,-85.02 858.7,-75.52"/>
<polygon fill="midnightblue" stroke="midnightblue" points="668.9,-107.18 659.7,-112.44 670.18,-114.06 668.9,-107.18"/>
</g>
<!-- Node16&#45;&gt;Node14 -->
<g id="edge33" class="edge">
<title>Node16&#45;&gt;Node14</title>
<path fill="none" stroke="midnightblue" d="M611.14,-102.1C609.98,-93.14 608.65,-82.86 607.73,-75.75"/>
<polygon fill="midnightblue" stroke="midnightblue" points="607.68,-102.62 612.44,-112.08 614.62,-101.72 607.68,-102.62"/>
</g>
<!-- Node16&#45;&gt;Node15 -->
<g id="edge34" class="edge">
<title>Node16&#45;&gt;Node15</title>
<path fill="none" stroke="midnightblue" d="M644.62,-108.77C670.35,-98.63 706.28,-84.47 728.99,-75.52"/>
<polygon fill="midnightblue" stroke="midnightblue" points="643.32,-105.52 635.3,-112.44 645.89,-112.03 643.32,-105.52"/>
</g>
</g>
</svg>
